<svg width="61" height="61" viewBox="0 0 61 61" fill="none" xmlns="http://www.w3.org/2000/svg">
<path d="M30.4997 5.08337C16.4697 5.08337 5.08301 16.47 5.08301 30.5C5.08301 44.53 16.4697 55.9167 30.4997 55.9167C44.5297 55.9167 55.9163 44.53 55.9163 30.5C55.9163 16.47 44.5297 5.08337 30.4997 5.08337ZM30.4997 12.7084C34.7188 12.7084 38.1247 16.1142 38.1247 20.3334C38.1247 24.5525 34.7188 27.9584 30.4997 27.9584C26.2805 27.9584 22.8747 24.5525 22.8747 20.3334C22.8747 16.1142 26.2805 12.7084 30.4997 12.7084ZM30.4997 48.8C24.1455 48.8 18.5284 45.5467 15.2497 40.6159C15.3259 35.558 25.4163 32.7875 30.4997 32.7875C35.5576 32.7875 45.6734 35.558 45.7497 40.6159C42.4709 45.5467 36.8538 48.8 30.4997 48.8Z" fill="white"/>
</svg>
