<svg width="143" height="143" viewBox="0 0 143 143" fill="none" xmlns="http://www.w3.org/2000/svg">
<path d="M71.4994 11.9165C38.6094 11.9165 11.916 38.6098 11.916 71.4998C11.916 104.39 38.6094 131.083 71.4994 131.083C104.389 131.083 131.083 104.39 131.083 71.4998C131.083 38.6098 104.389 11.9165 71.4994 11.9165ZM71.4994 29.7915C81.3902 29.7915 89.3744 37.7757 89.3744 47.6665C89.3744 57.5573 81.3902 65.5415 71.4994 65.5415C61.6085 65.5415 53.6244 57.5573 53.6244 47.6665C53.6244 37.7757 61.6085 29.7915 71.4994 29.7915ZM71.4994 114.4C56.6035 114.4 43.4356 106.773 35.7494 95.214C35.9281 83.3569 59.5827 76.8623 71.4994 76.8623C83.3564 76.8623 107.071 83.3569 107.249 95.214C99.5631 106.773 86.3952 114.4 71.4994 114.4Z" fill="white"/>
</svg>
