<svg width="2048" height="1634" viewBox="0 0 2048 1634" fill="none" xmlns="http://www.w3.org/2000/svg">
<path d="M469.064 1634C364.002 1634 169.578 1518.69 85.0461 1447.45L-97 131.674C572.012 148.577 1917.64 182.385 1948.07 182.385C1978.51 182.385 2010.27 1048.71 2022.34 1481.87C1979.47 1502.69 1967.28 1575.86 1899.17 1582.38C1814.03 1590.53 1690.86 1542.54 1539.6 1518.99C1388.35 1495.45 1392.88 1634 1156.49 1634C993.465 1634 992.559 1545.25 860.327 1552.5C728.094 1559.74 600.39 1634 469.064 1634Z" fill="#E8F7F3"/>
<path d="M245.668 1610.46C140.841 1610.46 60.1164 1567.17 0.816406 1516.68V-92C727.401 -61.7708 2184.01 -0.693977 2197.79 1.77932C2215 4.87095 2550.72 1610.46 2268.56 1610.46C1986.41 1610.46 1956.76 1516.68 1819.03 1516.68C1681.3 1516.68 1586.61 1610.46 1476.62 1610.46C1366.63 1610.46 1257.3 1494.52 1151.96 1516.68C1044.18 1539.35 1033.78 1610.46 882.665 1610.46C731.546 1610.46 785.154 1534.2 570.862 1516.68C414.407 1503.89 376.702 1610.46 245.668 1610.46Z" fill="#B9E6DB"/>
</svg>
