<svg width="932" height="1129" viewBox="0 0 932 1129" fill="none" xmlns="http://www.w3.org/2000/svg">
<path d="M427.452 15.432H413.376V2.544H408.696V15.432H394.836V19.896H408.696V36.132H413.376V19.896H427.452V15.432ZM434.004 7.44V12.156H459.996V7.44H434.004ZM431.016 28.212V33.144H462.984V28.212H431.016ZM475.98 21.228C476.124 19.716 476.196 18.204 476.232 16.836H490.668V21.228H475.98ZM490.668 8.376V12.768H476.232V8.376H490.668ZM495.204 4.2H471.804V16.044C471.804 21.516 471.3 28.392 465.864 33.036C466.8 33.648 468.528 35.232 469.176 36.132C472.524 33.324 474.324 29.4 475.26 25.368H490.668V30.588C490.668 31.344 490.38 31.632 489.516 31.632C488.724 31.632 485.7 31.668 483.18 31.524C483.864 32.712 484.728 34.764 484.98 36.024C488.688 36.024 491.208 35.952 492.936 35.196C494.592 34.476 495.204 33.252 495.204 30.66V4.2Z" fill="white"/>
<path d="M10.008 115.04V106.976H25.992V115.04H10.008ZM25.992 94.988V102.728H10.008V94.988H25.992ZM5.58 90.668V121.7H10.008V119.36H25.992V121.628H30.6V90.668H5.58Z" fill="#333333"/>
<path d="M13.5488 292.424L14.7061 281.672H26.1611V284.748H17.665L17.0791 289.846C18.0654 289.279 19.1787 288.996 20.4189 288.996C22.4502 288.996 24.0273 289.646 25.1504 290.944C26.2832 292.243 26.8496 293.991 26.8496 296.188C26.8496 298.356 26.2246 300.085 24.9746 301.374C23.7246 302.653 22.0107 303.293 19.833 303.293C17.8799 303.293 16.2588 302.741 14.9697 301.638C13.6904 300.524 12.9971 299.06 12.8896 297.243H16.332C16.4688 298.278 16.8398 299.074 17.4453 299.631C18.0508 300.178 18.8418 300.451 19.8184 300.451C20.9121 300.451 21.7617 300.061 22.3672 299.279C22.9824 298.498 23.29 297.434 23.29 296.086C23.29 294.787 22.9531 293.762 22.2793 293.01C21.6055 292.248 20.6777 291.867 19.4961 291.867C18.8516 291.867 18.3047 291.955 17.8555 292.131C17.4062 292.297 16.918 292.629 16.3906 293.127L13.5488 292.424Z" fill="#333333"/>
<circle cx="17" cy="326" r="6" fill="white"/>
<path d="M13.2354 401H9.69043V383.876L4.46094 385.663V382.66L12.7812 379.599H13.2354V401ZM34.9883 401H20.6475V398.554L27.752 390.805C28.7773 389.662 29.5049 388.71 29.9346 387.948C30.374 387.177 30.5938 386.405 30.5938 385.634C30.5938 384.618 30.3057 383.798 29.7295 383.173C29.1631 382.548 28.3965 382.235 27.4297 382.235C26.2773 382.235 25.3838 382.587 24.749 383.29C24.1143 383.993 23.7969 384.955 23.7969 386.176H20.2373C20.2373 384.877 20.5303 383.71 21.1162 382.675C21.7119 381.63 22.5566 380.819 23.6504 380.243C24.7539 379.667 26.0234 379.379 27.459 379.379C29.5293 379.379 31.1602 379.901 32.3516 380.946C33.5527 381.981 34.1533 383.417 34.1533 385.253C34.1533 386.317 33.8506 387.436 33.2451 388.607C32.6494 389.77 31.668 391.093 30.3008 392.577L25.0859 398.158H34.9883V401Z" fill="#333333"/>
<path d="M13.2354 488H9.69043V470.876L4.46094 472.663V469.66L12.7812 466.599H13.2354V488ZM30.7402 479.079C29.5488 480.339 28.1572 480.969 26.5654 480.969C24.6904 480.969 23.1963 480.314 22.083 479.006C20.9697 477.688 20.4131 475.959 20.4131 473.82C20.4131 472.414 20.6963 471.14 21.2627 469.997C21.8291 468.854 22.6348 467.966 23.6797 467.331C24.7246 466.696 25.9355 466.379 27.3125 466.379C29.4609 466.379 31.165 467.18 32.4248 468.781C33.6846 470.383 34.3145 472.526 34.3145 475.212V476.208C34.3145 480.056 33.4453 482.99 31.707 485.012C29.9688 487.033 27.376 488.059 23.9287 488.088H23.5039V485.144H24.0166C26.1162 485.114 27.7275 484.611 28.8506 483.635C29.9736 482.648 30.6035 481.13 30.7402 479.079ZM27.3125 478.186C28.0254 478.186 28.6943 477.98 29.3193 477.57C29.9443 477.16 30.4277 476.594 30.7695 475.871V474.479C30.7695 472.907 30.4473 471.643 29.8027 470.686C29.1582 469.729 28.3232 469.25 27.2979 469.25C26.2725 469.25 25.4521 469.675 24.8369 470.524C24.2314 471.364 23.9287 472.429 23.9287 473.718C23.9287 475.056 24.2363 476.135 24.8516 476.955C25.4668 477.775 26.2871 478.186 27.3125 478.186Z" fill="#333333"/>
<path d="M17.9375 576H3.59668V573.554L10.7012 565.805C11.7266 564.662 12.4541 563.71 12.8838 562.948C13.3232 562.177 13.543 561.405 13.543 560.634C13.543 559.618 13.2549 558.798 12.6787 558.173C12.1123 557.548 11.3457 557.235 10.3789 557.235C9.22656 557.235 8.33301 557.587 7.69824 558.29C7.06348 558.993 6.74609 559.955 6.74609 561.176H3.18652C3.18652 559.877 3.47949 558.71 4.06543 557.675C4.66113 556.63 5.50586 555.819 6.59961 555.243C7.70312 554.667 8.97266 554.379 10.4082 554.379C12.4785 554.379 14.1094 554.901 15.3008 555.946C16.502 556.981 17.1025 558.417 17.1025 560.253C17.1025 561.317 16.7998 562.436 16.1943 563.607C15.5986 564.77 14.6172 566.093 13.25 567.577L8.03516 573.158H17.9375V576ZM31.7217 554.569V557.514H31.2822C29.29 557.543 27.6982 558.09 26.5068 559.154C25.3154 560.219 24.6074 561.728 24.3828 563.681C25.5254 562.479 26.9854 561.879 28.7627 561.879C30.6475 561.879 32.1318 562.543 33.2158 563.871C34.3096 565.199 34.8564 566.913 34.8564 569.013C34.8564 571.181 34.2168 572.938 32.9375 574.286C31.668 575.624 29.998 576.293 27.9277 576.293C25.7988 576.293 24.0703 575.507 22.7422 573.935C21.4238 572.362 20.7646 570.302 20.7646 567.753V566.537C20.7646 562.797 21.6729 559.867 23.4893 557.748C25.3154 555.629 27.9375 554.569 31.3555 554.569H31.7217ZM27.8984 564.75C27.1172 564.75 26.3994 564.97 25.7451 565.409C25.1006 565.849 24.627 566.435 24.3242 567.167V568.251C24.3242 569.833 24.6562 571.093 25.3203 572.03C25.9844 572.958 26.8438 573.422 27.8984 573.422C28.9531 573.422 29.7881 573.026 30.4033 572.235C31.0186 571.444 31.3262 570.404 31.3262 569.115C31.3262 567.826 31.0137 566.776 30.3887 565.966C29.7637 565.155 28.9336 564.75 27.8984 564.75Z" fill="#333333"/>
<path d="M141.476 101.656V106.3H174.596V101.656H141.476Z" fill="#333333"/>
<path d="M141.476 101.656V106.3H174.596V101.656H141.476Z" fill="#333333"/>
<path d="M141.476 101.656V106.3H174.596V101.656H141.476Z" fill="#333333"/>
<path d="M141.476 101.656V106.3H174.596V101.656H141.476Z" fill="#333333"/>
<path d="M165.671 281.569V284.514H165.231C163.239 284.543 161.647 285.09 160.456 286.154C159.265 287.219 158.557 288.728 158.332 290.681C159.475 289.479 160.935 288.879 162.712 288.879C164.597 288.879 166.081 289.543 167.165 290.871C168.259 292.199 168.806 293.913 168.806 296.013C168.806 298.181 168.166 299.938 166.887 301.286C165.617 302.624 163.947 303.293 161.877 303.293C159.748 303.293 158.02 302.507 156.691 300.935C155.373 299.362 154.714 297.302 154.714 294.753V293.537C154.714 289.797 155.622 286.867 157.438 284.748C159.265 282.629 161.887 281.569 165.305 281.569H165.671ZM161.848 291.75C161.066 291.75 160.349 291.97 159.694 292.409C159.05 292.849 158.576 293.435 158.273 294.167V295.251C158.273 296.833 158.605 298.093 159.27 299.03C159.934 299.958 160.793 300.422 161.848 300.422C162.902 300.422 163.737 300.026 164.353 299.235C164.968 298.444 165.275 297.404 165.275 296.115C165.275 294.826 164.963 293.776 164.338 292.966C163.713 292.155 162.883 291.75 161.848 291.75Z" fill="#333333"/>
<circle cx="162" cy="326" r="6" fill="white"/>
<path d="M154.235 401H150.69V383.876L145.461 385.663V382.66L153.781 379.599H154.235V401ZM165.764 388.71H167.932C169.025 388.7 169.89 388.417 170.524 387.86C171.169 387.304 171.491 386.498 171.491 385.443C171.491 384.428 171.223 383.642 170.686 383.085C170.158 382.519 169.348 382.235 168.254 382.235C167.297 382.235 166.511 382.514 165.896 383.07C165.28 383.617 164.973 384.335 164.973 385.224H161.413C161.413 384.13 161.701 383.134 162.277 382.235C162.863 381.337 163.674 380.639 164.709 380.141C165.754 379.633 166.921 379.379 168.21 379.379C170.339 379.379 172.009 379.916 173.22 380.99C174.44 382.055 175.051 383.539 175.051 385.443C175.051 386.4 174.743 387.304 174.128 388.153C173.522 388.993 172.736 389.628 171.77 390.058C172.941 390.458 173.83 391.088 174.436 391.947C175.051 392.807 175.358 393.832 175.358 395.023C175.358 396.938 174.699 398.461 173.381 399.594C172.072 400.727 170.349 401.293 168.21 401.293C166.159 401.293 164.479 400.746 163.171 399.652C161.862 398.559 161.208 397.104 161.208 395.287H164.768C164.768 396.225 165.08 396.986 165.705 397.572C166.34 398.158 167.189 398.451 168.254 398.451C169.357 398.451 170.227 398.158 170.861 397.572C171.496 396.986 171.813 396.137 171.813 395.023C171.813 393.9 171.481 393.036 170.817 392.431C170.153 391.825 169.167 391.522 167.858 391.522H165.764V388.71Z" fill="#333333"/>
<path d="M154.235 401H150.69V383.876L145.461 385.663V382.66L153.781 379.599H154.235V401ZM165.764 388.71H167.932C169.025 388.7 169.89 388.417 170.524 387.86C171.169 387.304 171.491 386.498 171.491 385.443C171.491 384.428 171.223 383.642 170.686 383.085C170.158 382.519 169.348 382.235 168.254 382.235C167.297 382.235 166.511 382.514 165.896 383.07C165.28 383.617 164.973 384.335 164.973 385.224H161.413C161.413 384.13 161.701 383.134 162.277 382.235C162.863 381.337 163.674 380.639 164.709 380.141C165.754 379.633 166.921 379.379 168.21 379.379C170.339 379.379 172.009 379.916 173.22 380.99C174.44 382.055 175.051 383.539 175.051 385.443C175.051 386.4 174.743 387.304 174.128 388.153C173.522 388.993 172.736 389.628 171.77 390.058C172.941 390.458 173.83 391.088 174.436 391.947C175.051 392.807 175.358 393.832 175.358 395.023C175.358 396.938 174.699 398.461 173.381 399.594C172.072 400.727 170.349 401.293 168.21 401.293C166.159 401.293 164.479 400.746 163.171 399.652C161.862 398.559 161.208 397.104 161.208 395.287H164.768C164.768 396.225 165.08 396.986 165.705 397.572C166.34 398.158 167.189 398.451 168.254 398.451C169.357 398.451 170.227 398.158 170.861 397.572C171.496 396.986 171.813 396.137 171.813 395.023C171.813 393.9 171.481 393.036 170.817 392.431C170.153 391.825 169.167 391.522 167.858 391.522H165.764V388.71Z" fill="#333333"/>
<path d="M154.235 401H150.69V383.876L145.461 385.663V382.66L153.781 379.599H154.235V401ZM165.764 388.71H167.932C169.025 388.7 169.89 388.417 170.524 387.86C171.169 387.304 171.491 386.498 171.491 385.443C171.491 384.428 171.223 383.642 170.686 383.085C170.158 382.519 169.348 382.235 168.254 382.235C167.297 382.235 166.511 382.514 165.896 383.07C165.28 383.617 164.973 384.335 164.973 385.224H161.413C161.413 384.13 161.701 383.134 162.277 382.235C162.863 381.337 163.674 380.639 164.709 380.141C165.754 379.633 166.921 379.379 168.21 379.379C170.339 379.379 172.009 379.916 173.22 380.99C174.44 382.055 175.051 383.539 175.051 385.443C175.051 386.4 174.743 387.304 174.128 388.153C173.522 388.993 172.736 389.628 171.77 390.058C172.941 390.458 173.83 391.088 174.436 391.947C175.051 392.807 175.358 393.832 175.358 395.023C175.358 396.938 174.699 398.461 173.381 399.594C172.072 400.727 170.349 401.293 168.21 401.293C166.159 401.293 164.479 400.746 163.171 399.652C161.862 398.559 161.208 397.104 161.208 395.287H164.768C164.768 396.225 165.08 396.986 165.705 397.572C166.34 398.158 167.189 398.451 168.254 398.451C169.357 398.451 170.227 398.158 170.861 397.572C171.496 396.986 171.813 396.137 171.813 395.023C171.813 393.9 171.481 393.036 170.817 392.431C170.153 391.825 169.167 391.522 167.858 391.522H165.764V388.71Z" fill="#333333"/>
<path d="M154.235 401H150.69V383.876L145.461 385.663V382.66L153.781 379.599H154.235V401ZM165.764 388.71H167.932C169.025 388.7 169.89 388.417 170.524 387.86C171.169 387.304 171.491 386.498 171.491 385.443C171.491 384.428 171.223 383.642 170.686 383.085C170.158 382.519 169.348 382.235 168.254 382.235C167.297 382.235 166.511 382.514 165.896 383.07C165.28 383.617 164.973 384.335 164.973 385.224H161.413C161.413 384.13 161.701 383.134 162.277 382.235C162.863 381.337 163.674 380.639 164.709 380.141C165.754 379.633 166.921 379.379 168.21 379.379C170.339 379.379 172.009 379.916 173.22 380.99C174.44 382.055 175.051 383.539 175.051 385.443C175.051 386.4 174.743 387.304 174.128 388.153C173.522 388.993 172.736 389.628 171.77 390.058C172.941 390.458 173.83 391.088 174.436 391.947C175.051 392.807 175.358 393.832 175.358 395.023C175.358 396.938 174.699 398.461 173.381 399.594C172.072 400.727 170.349 401.293 168.21 401.293C166.159 401.293 164.479 400.746 163.171 399.652C161.862 398.559 161.208 397.104 161.208 395.287H164.768C164.768 396.225 165.08 396.986 165.705 397.572C166.34 398.158 167.189 398.451 168.254 398.451C169.357 398.451 170.227 398.158 170.861 397.572C171.496 396.986 171.813 396.137 171.813 395.023C171.813 393.9 171.481 393.036 170.817 392.431C170.153 391.825 169.167 391.522 167.858 391.522H165.764V388.71Z" fill="#333333"/>
<path d="M158.938 488H144.597V485.554L151.701 477.805C152.727 476.662 153.454 475.71 153.884 474.948C154.323 474.177 154.543 473.405 154.543 472.634C154.543 471.618 154.255 470.798 153.679 470.173C153.112 469.548 152.346 469.235 151.379 469.235C150.227 469.235 149.333 469.587 148.698 470.29C148.063 470.993 147.746 471.955 147.746 473.176H144.187C144.187 471.877 144.479 470.71 145.065 469.675C145.661 468.63 146.506 467.819 147.6 467.243C148.703 466.667 149.973 466.379 151.408 466.379C153.479 466.379 155.109 466.901 156.301 467.946C157.502 468.981 158.103 470.417 158.103 472.253C158.103 473.317 157.8 474.436 157.194 475.607C156.599 476.77 155.617 478.093 154.25 479.577L149.035 485.158H158.938V488ZM175.549 479.021C175.549 482.087 174.973 484.401 173.82 485.964C172.678 487.517 170.935 488.293 168.591 488.293C166.286 488.293 164.548 487.536 163.376 486.022C162.214 484.499 161.618 482.248 161.589 479.27V475.578C161.589 472.512 162.16 470.212 163.303 468.679C164.455 467.146 166.208 466.379 168.562 466.379C170.896 466.379 172.634 467.126 173.776 468.62C174.929 470.114 175.52 472.351 175.549 475.329V479.021ZM171.989 475.036C171.989 473.034 171.716 471.569 171.169 470.642C170.622 469.704 169.753 469.235 168.562 469.235C167.399 469.235 166.545 469.68 165.998 470.568C165.451 471.447 165.163 472.824 165.134 474.699V479.533C165.134 481.525 165.412 483.01 165.969 483.986C166.525 484.963 167.399 485.451 168.591 485.451C169.733 485.451 170.578 485.002 171.125 484.104C171.672 483.195 171.96 481.779 171.989 479.855V475.036Z" fill="#333333"/>
<path d="M158.938 488H144.597V485.554L151.701 477.805C152.727 476.662 153.454 475.71 153.884 474.948C154.323 474.177 154.543 473.405 154.543 472.634C154.543 471.618 154.255 470.798 153.679 470.173C153.112 469.548 152.346 469.235 151.379 469.235C150.227 469.235 149.333 469.587 148.698 470.29C148.063 470.993 147.746 471.955 147.746 473.176H144.187C144.187 471.877 144.479 470.71 145.065 469.675C145.661 468.63 146.506 467.819 147.6 467.243C148.703 466.667 149.973 466.379 151.408 466.379C153.479 466.379 155.109 466.901 156.301 467.946C157.502 468.981 158.103 470.417 158.103 472.253C158.103 473.317 157.8 474.436 157.194 475.607C156.599 476.77 155.617 478.093 154.25 479.577L149.035 485.158H158.938V488ZM175.549 479.021C175.549 482.087 174.973 484.401 173.82 485.964C172.678 487.517 170.935 488.293 168.591 488.293C166.286 488.293 164.548 487.536 163.376 486.022C162.214 484.499 161.618 482.248 161.589 479.27V475.578C161.589 472.512 162.16 470.212 163.303 468.679C164.455 467.146 166.208 466.379 168.562 466.379C170.896 466.379 172.634 467.126 173.776 468.62C174.929 470.114 175.52 472.351 175.549 475.329V479.021ZM171.989 475.036C171.989 473.034 171.716 471.569 171.169 470.642C170.622 469.704 169.753 469.235 168.562 469.235C167.399 469.235 166.545 469.68 165.998 470.568C165.451 471.447 165.163 472.824 165.134 474.699V479.533C165.134 481.525 165.412 483.01 165.969 483.986C166.525 484.963 167.399 485.451 168.591 485.451C169.733 485.451 170.578 485.002 171.125 484.104C171.672 483.195 171.96 481.779 171.989 479.855V475.036Z" fill="#333333"/>
<path d="M158.938 488H144.597V485.554L151.701 477.805C152.727 476.662 153.454 475.71 153.884 474.948C154.323 474.177 154.543 473.405 154.543 472.634C154.543 471.618 154.255 470.798 153.679 470.173C153.112 469.548 152.346 469.235 151.379 469.235C150.227 469.235 149.333 469.587 148.698 470.29C148.063 470.993 147.746 471.955 147.746 473.176H144.187C144.187 471.877 144.479 470.71 145.065 469.675C145.661 468.63 146.506 467.819 147.6 467.243C148.703 466.667 149.973 466.379 151.408 466.379C153.479 466.379 155.109 466.901 156.301 467.946C157.502 468.981 158.103 470.417 158.103 472.253C158.103 473.317 157.8 474.436 157.194 475.607C156.599 476.77 155.617 478.093 154.25 479.577L149.035 485.158H158.938V488ZM175.549 479.021C175.549 482.087 174.973 484.401 173.82 485.964C172.678 487.517 170.935 488.293 168.591 488.293C166.286 488.293 164.548 487.536 163.376 486.022C162.214 484.499 161.618 482.248 161.589 479.27V475.578C161.589 472.512 162.16 470.212 163.303 468.679C164.455 467.146 166.208 466.379 168.562 466.379C170.896 466.379 172.634 467.126 173.776 468.62C174.929 470.114 175.52 472.351 175.549 475.329V479.021ZM171.989 475.036C171.989 473.034 171.716 471.569 171.169 470.642C170.622 469.704 169.753 469.235 168.562 469.235C167.399 469.235 166.545 469.68 165.998 470.568C165.451 471.447 165.163 472.824 165.134 474.699V479.533C165.134 481.525 165.412 483.01 165.969 483.986C166.525 484.963 167.399 485.451 168.591 485.451C169.733 485.451 170.578 485.002 171.125 484.104C171.672 483.195 171.96 481.779 171.989 479.855V475.036Z" fill="#333333"/>
<path d="M158.938 488H144.597V485.554L151.701 477.805C152.727 476.662 153.454 475.71 153.884 474.948C154.323 474.177 154.543 473.405 154.543 472.634C154.543 471.618 154.255 470.798 153.679 470.173C153.112 469.548 152.346 469.235 151.379 469.235C150.227 469.235 149.333 469.587 148.698 470.29C148.063 470.993 147.746 471.955 147.746 473.176H144.187C144.187 471.877 144.479 470.71 145.065 469.675C145.661 468.63 146.506 467.819 147.6 467.243C148.703 466.667 149.973 466.379 151.408 466.379C153.479 466.379 155.109 466.901 156.301 467.946C157.502 468.981 158.103 470.417 158.103 472.253C158.103 473.317 157.8 474.436 157.194 475.607C156.599 476.77 155.617 478.093 154.25 479.577L149.035 485.158H158.938V488ZM175.549 479.021C175.549 482.087 174.973 484.401 173.82 485.964C172.678 487.517 170.935 488.293 168.591 488.293C166.286 488.293 164.548 487.536 163.376 486.022C162.214 484.499 161.618 482.248 161.589 479.27V475.578C161.589 472.512 162.16 470.212 163.303 468.679C164.455 467.146 166.208 466.379 168.562 466.379C170.896 466.379 172.634 467.126 173.776 468.62C174.929 470.114 175.52 472.351 175.549 475.329V479.021ZM171.989 475.036C171.989 473.034 171.716 471.569 171.169 470.642C170.622 469.704 169.753 469.235 168.562 469.235C167.399 469.235 166.545 469.68 165.998 470.568C165.451 471.447 165.163 472.824 165.134 474.699V479.533C165.134 481.525 165.412 483.01 165.969 483.986C166.525 484.963 167.399 485.451 168.591 485.451C169.733 485.451 170.578 485.002 171.125 484.104C171.672 483.195 171.96 481.779 171.989 479.855V475.036Z" fill="#333333"/>
<path d="M158.938 576H144.597V573.554L151.701 565.805C152.727 564.662 153.454 563.71 153.884 562.948C154.323 562.177 154.543 561.405 154.543 560.634C154.543 559.618 154.255 558.798 153.679 558.173C153.112 557.548 152.346 557.235 151.379 557.235C150.227 557.235 149.333 557.587 148.698 558.29C148.063 558.993 147.746 559.955 147.746 561.176H144.187C144.187 559.877 144.479 558.71 145.065 557.675C145.661 556.63 146.506 555.819 147.6 555.243C148.703 554.667 149.973 554.379 151.408 554.379C153.479 554.379 155.109 554.901 156.301 555.946C157.502 556.981 158.103 558.417 158.103 560.253C158.103 561.317 157.8 562.436 157.194 563.607C156.599 564.77 155.617 566.093 154.25 567.577L149.035 573.158H158.938V576ZM175.842 556.649L167.316 576H163.581L172.092 557.528H161.062V554.672H175.842V556.649Z" fill="#333333"/>
<path d="M158.938 576H144.597V573.554L151.701 565.805C152.727 564.662 153.454 563.71 153.884 562.948C154.323 562.177 154.543 561.405 154.543 560.634C154.543 559.618 154.255 558.798 153.679 558.173C153.112 557.548 152.346 557.235 151.379 557.235C150.227 557.235 149.333 557.587 148.698 558.29C148.063 558.993 147.746 559.955 147.746 561.176H144.187C144.187 559.877 144.479 558.71 145.065 557.675C145.661 556.63 146.506 555.819 147.6 555.243C148.703 554.667 149.973 554.379 151.408 554.379C153.479 554.379 155.109 554.901 156.301 555.946C157.502 556.981 158.103 558.417 158.103 560.253C158.103 561.317 157.8 562.436 157.194 563.607C156.599 564.77 155.617 566.093 154.25 567.577L149.035 573.158H158.938V576ZM175.842 556.649L167.316 576H163.581L172.092 557.528H161.062V554.672H175.842V556.649Z" fill="#333333"/>
<path d="M158.938 576H144.597V573.554L151.701 565.805C152.727 564.662 153.454 563.71 153.884 562.948C154.323 562.177 154.543 561.405 154.543 560.634C154.543 559.618 154.255 558.798 153.679 558.173C153.112 557.548 152.346 557.235 151.379 557.235C150.227 557.235 149.333 557.587 148.698 558.29C148.063 558.993 147.746 559.955 147.746 561.176H144.187C144.187 559.877 144.479 558.71 145.065 557.675C145.661 556.63 146.506 555.819 147.6 555.243C148.703 554.667 149.973 554.379 151.408 554.379C153.479 554.379 155.109 554.901 156.301 555.946C157.502 556.981 158.103 558.417 158.103 560.253C158.103 561.317 157.8 562.436 157.194 563.607C156.599 564.77 155.617 566.093 154.25 567.577L149.035 573.158H158.938V576ZM175.842 556.649L167.316 576H163.581L172.092 557.528H161.062V554.672H175.842V556.649Z" fill="#333333"/>
<path d="M158.938 576H144.597V573.554L151.701 565.805C152.727 564.662 153.454 563.71 153.884 562.948C154.323 562.177 154.543 561.405 154.543 560.634C154.543 559.618 154.255 558.798 153.679 558.173C153.112 557.548 152.346 557.235 151.379 557.235C150.227 557.235 149.333 557.587 148.698 558.29C148.063 558.993 147.746 559.955 147.746 561.176H144.187C144.187 559.877 144.479 558.71 145.065 557.675C145.661 556.63 146.506 555.819 147.6 555.243C148.703 554.667 149.973 554.379 151.408 554.379C153.479 554.379 155.109 554.901 156.301 555.946C157.502 556.981 158.103 558.417 158.103 560.253C158.103 561.317 157.8 562.436 157.194 563.607C156.599 564.77 155.617 566.093 154.25 567.577L149.035 573.158H158.938V576ZM175.842 556.649L167.316 576H163.581L172.092 557.528H161.062V554.672H175.842V556.649Z" fill="#333333"/>
<circle cx="300" cy="326" r="6" fill="white"/>
<path d="M285.004 93.44V98.156H310.996V93.44H285.004ZM282.016 114.212V119.144H313.984V114.212H282.016Z" fill="#333333"/>
<path d="M306.791 283.649L298.266 303H294.53L303.041 284.528H292.011V281.672H306.791V283.649Z" fill="#333333"/>
<path d="M292.235 401H288.69V383.876L283.461 385.663V382.66L291.781 379.599H292.235V401ZM311.688 393.397H314.34V396.254H311.688V401H308.129V396.254H298.915L298.812 394.086L308.012 379.672H311.688V393.397ZM302.548 393.397H308.129V384.491L307.865 384.96L302.548 393.397Z" fill="#333333"/>
<path d="M296.938 488H282.597V485.554L289.701 477.805C290.727 476.662 291.454 475.71 291.884 474.948C292.323 474.177 292.543 473.405 292.543 472.634C292.543 471.618 292.255 470.798 291.679 470.173C291.112 469.548 290.346 469.235 289.379 469.235C288.227 469.235 287.333 469.587 286.698 470.29C286.063 470.993 285.746 471.955 285.746 473.176H282.187C282.187 471.877 282.479 470.71 283.065 469.675C283.661 468.63 284.506 467.819 285.6 467.243C286.703 466.667 287.973 466.379 289.408 466.379C291.479 466.379 293.109 466.901 294.301 467.946C295.502 468.981 296.103 470.417 296.103 472.253C296.103 473.317 295.8 474.436 295.194 475.607C294.599 476.77 293.617 478.093 292.25 479.577L287.035 485.158H296.938V488ZM309.286 488H305.741V470.876L300.512 472.663V469.66L308.832 466.599H309.286V488Z" fill="#333333"/>
<path d="M296.938 576H282.597V573.554L289.701 565.805C290.727 564.662 291.454 563.71 291.884 562.948C292.323 562.177 292.543 561.405 292.543 560.634C292.543 559.618 292.255 558.798 291.679 558.173C291.112 557.548 290.346 557.235 289.379 557.235C288.227 557.235 287.333 557.587 286.698 558.29C286.063 558.993 285.746 559.955 285.746 561.176H282.187C282.187 559.877 282.479 558.71 283.065 557.675C283.661 556.63 284.506 555.819 285.6 555.243C286.703 554.667 287.973 554.379 289.408 554.379C291.479 554.379 293.109 554.901 294.301 555.946C295.502 556.981 296.103 558.417 296.103 560.253C296.103 561.317 295.8 562.436 295.194 563.607C294.599 564.77 293.617 566.093 292.25 567.577L287.035 573.158H296.938V576ZM313.08 560.297C313.08 561.342 312.812 562.274 312.274 563.095C311.737 563.905 311.005 564.545 310.077 565.014C311.19 565.531 312.045 566.239 312.641 567.138C313.246 568.036 313.549 569.052 313.549 570.185C313.549 572.06 312.914 573.549 311.645 574.652C310.375 575.746 308.686 576.293 306.576 576.293C304.457 576.293 302.758 575.741 301.479 574.638C300.209 573.534 299.574 572.05 299.574 570.185C299.574 569.042 299.877 568.017 300.482 567.108C301.088 566.2 301.938 565.502 303.031 565.014C302.113 564.545 301.386 563.905 300.849 563.095C300.321 562.274 300.058 561.342 300.058 560.297C300.058 558.48 300.644 557.04 301.815 555.976C302.987 554.911 304.569 554.379 306.562 554.379C308.563 554.379 310.15 554.911 311.322 555.976C312.494 557.04 313.08 558.48 313.08 560.297ZM309.989 570.009C309.989 568.954 309.672 568.104 309.037 567.46C308.412 566.806 307.582 566.479 306.547 566.479C305.512 566.479 304.682 566.801 304.057 567.445C303.441 568.09 303.134 568.944 303.134 570.009C303.134 571.054 303.437 571.889 304.042 572.514C304.657 573.139 305.502 573.451 306.576 573.451C307.65 573.451 308.485 573.148 309.081 572.543C309.687 571.938 309.989 571.093 309.989 570.009ZM309.535 560.429C309.535 559.501 309.267 558.739 308.729 558.144C308.192 557.538 307.47 557.235 306.562 557.235C305.653 557.235 304.936 557.523 304.408 558.1C303.881 558.666 303.617 559.442 303.617 560.429C303.617 561.405 303.881 562.182 304.408 562.758C304.945 563.334 305.668 563.622 306.576 563.622C307.484 563.622 308.202 563.334 308.729 562.758C309.267 562.182 309.535 561.405 309.535 560.429Z" fill="#333333"/>
<path d="M912.948 94.32H899.232V86.58H894.552V94.32H881.052V98.784H912.948V94.32ZM888.576 102.636C886.776 107.964 883.608 113.328 880.044 116.532C881.232 117.252 883.428 118.728 884.4 119.628C887.856 115.92 891.42 109.908 893.58 103.932L888.576 102.636ZM900.384 104.328C903.552 109.116 907.08 115.488 908.448 119.52L913.272 117.396C911.724 113.256 907.944 107.136 904.74 102.6L900.384 104.328Z" fill="#333333"/>
<path d="M895.235 305H891.69V287.876L886.461 289.663V286.66L894.781 283.599H895.235V305ZM912.286 305H908.741V287.876L903.512 289.663V286.66L911.832 283.599H912.286V305Z" fill="#333333"/>
<path d="M894.235 401H890.69V383.876L885.461 385.663V382.66L893.781 379.599H894.235V401ZM915.08 385.297C915.08 386.342 914.812 387.274 914.274 388.095C913.737 388.905 913.005 389.545 912.077 390.014C913.19 390.531 914.045 391.239 914.641 392.138C915.246 393.036 915.549 394.052 915.549 395.185C915.549 397.06 914.914 398.549 913.645 399.652C912.375 400.746 910.686 401.293 908.576 401.293C906.457 401.293 904.758 400.741 903.479 399.638C902.209 398.534 901.574 397.05 901.574 395.185C901.574 394.042 901.877 393.017 902.482 392.108C903.088 391.2 903.938 390.502 905.031 390.014C904.113 389.545 903.386 388.905 902.849 388.095C902.321 387.274 902.058 386.342 902.058 385.297C902.058 383.48 902.644 382.04 903.815 380.976C904.987 379.911 906.569 379.379 908.562 379.379C910.563 379.379 912.15 379.911 913.322 380.976C914.494 382.04 915.08 383.48 915.08 385.297ZM911.989 395.009C911.989 393.954 911.672 393.104 911.037 392.46C910.412 391.806 909.582 391.479 908.547 391.479C907.512 391.479 906.682 391.801 906.057 392.445C905.441 393.09 905.134 393.944 905.134 395.009C905.134 396.054 905.437 396.889 906.042 397.514C906.657 398.139 907.502 398.451 908.576 398.451C909.65 398.451 910.485 398.148 911.081 397.543C911.687 396.938 911.989 396.093 911.989 395.009ZM911.535 385.429C911.535 384.501 911.267 383.739 910.729 383.144C910.192 382.538 909.47 382.235 908.562 382.235C907.653 382.235 906.936 382.523 906.408 383.1C905.881 383.666 905.617 384.442 905.617 385.429C905.617 386.405 905.881 387.182 906.408 387.758C906.945 388.334 907.668 388.622 908.576 388.622C909.484 388.622 910.202 388.334 910.729 387.758C911.267 387.182 911.535 386.405 911.535 385.429Z" fill="#333333"/>
<path d="M898.938 488H884.597V485.554L891.701 477.805C892.727 476.662 893.454 475.71 893.884 474.948C894.323 474.177 894.543 473.405 894.543 472.634C894.543 471.618 894.255 470.798 893.679 470.173C893.112 469.548 892.346 469.235 891.379 469.235C890.227 469.235 889.333 469.587 888.698 470.29C888.063 470.993 887.746 471.955 887.746 473.176H884.187C884.187 471.877 884.479 470.71 885.065 469.675C885.661 468.63 886.506 467.819 887.6 467.243C888.703 466.667 889.973 466.379 891.408 466.379C893.479 466.379 895.109 466.901 896.301 467.946C897.502 468.981 898.103 470.417 898.103 472.253C898.103 473.317 897.8 474.436 897.194 475.607C896.599 476.77 895.617 478.093 894.25 479.577L889.035 485.158H898.938V488ZM902.6 477.424L903.757 466.672H915.212V469.748H906.716L906.13 474.846C907.116 474.279 908.229 473.996 909.47 473.996C911.501 473.996 913.078 474.646 914.201 475.944C915.334 477.243 915.9 478.991 915.9 481.188C915.9 483.356 915.275 485.085 914.025 486.374C912.775 487.653 911.062 488.293 908.884 488.293C906.931 488.293 905.31 487.741 904.021 486.638C902.741 485.524 902.048 484.06 901.94 482.243H905.383C905.52 483.278 905.891 484.074 906.496 484.631C907.102 485.178 907.893 485.451 908.869 485.451C909.963 485.451 910.812 485.061 911.418 484.279C912.033 483.498 912.341 482.434 912.341 481.086C912.341 479.787 912.004 478.762 911.33 478.01C910.656 477.248 909.729 476.867 908.547 476.867C907.902 476.867 907.355 476.955 906.906 477.131C906.457 477.297 905.969 477.629 905.441 478.127L902.6 477.424Z" fill="#333333"/>
<path d="M902.638 196.397H905.289V199.254H902.638V204H899.078V199.254H889.864L889.762 197.086L898.961 182.672H902.638V196.397ZM893.497 196.397H899.078V187.491L898.814 187.96L893.497 196.397Z" fill="#333333"/>
<path d="M743.048 105.472V115.192H733.472C734.12 112.348 734.84 108.964 735.524 105.472H743.048ZM747.512 115.192V101.26H736.316C736.712 99.136 737.108 97.048 737.468 94.996H750.788V90.784H723.104V94.996H732.68C732.356 97.012 731.996 99.136 731.6 101.26H724.292V105.472H730.808C730.124 108.928 729.404 112.312 728.684 115.192H721.016V119.44H753.128V115.192H747.512Z" fill="#333333"/>
<path d="M732.235 305H728.69V287.876L723.461 289.663V286.66L731.781 283.599H732.235V305ZM753.549 296.021C753.549 299.087 752.973 301.401 751.82 302.964C750.678 304.517 748.935 305.293 746.591 305.293C744.286 305.293 742.548 304.536 741.376 303.022C740.214 301.499 739.618 299.248 739.589 296.27V292.578C739.589 289.512 740.16 287.212 741.303 285.679C742.455 284.146 744.208 283.379 746.562 283.379C748.896 283.379 750.634 284.126 751.776 285.62C752.929 287.114 753.52 289.351 753.549 292.329V296.021ZM749.989 292.036C749.989 290.034 749.716 288.569 749.169 287.642C748.622 286.704 747.753 286.235 746.562 286.235C745.399 286.235 744.545 286.68 743.998 287.568C743.451 288.447 743.163 289.824 743.134 291.699V296.533C743.134 298.525 743.412 300.01 743.969 300.986C744.525 301.963 745.399 302.451 746.591 302.451C747.733 302.451 748.578 302.002 749.125 301.104C749.672 300.195 749.96 298.779 749.989 296.855V292.036Z" fill="#333333"/>
<path d="M732.235 401H728.69V383.876L723.461 385.663V382.66L731.781 379.599H732.235V401ZM753.842 381.649L745.316 401H741.581L750.092 382.528H739.062V379.672H753.842V381.649Z" fill="#333333"/>
<path d="M736.938 488H722.597V485.554L729.701 477.805C730.727 476.662 731.454 475.71 731.884 474.948C732.323 474.177 732.543 473.405 732.543 472.634C732.543 471.618 732.255 470.798 731.679 470.173C731.112 469.548 730.346 469.235 729.379 469.235C728.227 469.235 727.333 469.587 726.698 470.29C726.063 470.993 725.746 471.955 725.746 473.176H722.187C722.187 471.877 722.479 470.71 723.065 469.675C723.661 468.63 724.506 467.819 725.6 467.243C726.703 466.667 727.973 466.379 729.408 466.379C731.479 466.379 733.109 466.901 734.301 467.946C735.502 468.981 736.103 470.417 736.103 472.253C736.103 473.317 735.8 474.436 735.194 475.607C734.599 476.77 733.617 478.093 732.25 479.577L727.035 485.158H736.938V488ZM751.688 480.397H754.34V483.254H751.688V488H748.129V483.254H738.915L738.812 481.086L748.012 466.672H751.688V480.397ZM742.548 480.397H748.129V471.491L747.865 471.96L742.548 480.397Z" fill="#333333"/>
<path d="M726.713 563.71H728.881C729.975 563.7 730.839 563.417 731.474 562.86C732.118 562.304 732.44 561.498 732.44 560.443C732.44 559.428 732.172 558.642 731.635 558.085C731.107 557.519 730.297 557.235 729.203 557.235C728.246 557.235 727.46 557.514 726.845 558.07C726.229 558.617 725.922 559.335 725.922 560.224H722.362C722.362 559.13 722.65 558.134 723.227 557.235C723.812 556.337 724.623 555.639 725.658 555.141C726.703 554.633 727.87 554.379 729.159 554.379C731.288 554.379 732.958 554.916 734.169 555.99C735.39 557.055 736 558.539 736 560.443C736 561.4 735.692 562.304 735.077 563.153C734.472 563.993 733.686 564.628 732.719 565.058C733.891 565.458 734.779 566.088 735.385 566.947C736 567.807 736.308 568.832 736.308 570.023C736.308 571.938 735.648 573.461 734.33 574.594C733.021 575.727 731.298 576.293 729.159 576.293C727.108 576.293 725.429 575.746 724.12 574.652C722.812 573.559 722.157 572.104 722.157 570.287H725.717C725.717 571.225 726.029 571.986 726.654 572.572C727.289 573.158 728.139 573.451 729.203 573.451C730.307 573.451 731.176 573.158 731.811 572.572C732.445 571.986 732.763 571.137 732.763 570.023C732.763 568.9 732.431 568.036 731.767 567.431C731.103 566.825 730.116 566.522 728.808 566.522H726.713V563.71ZM749.286 576H745.741V558.876L740.512 560.663V557.66L748.832 554.599H749.286V576Z" fill="#333333"/>
<path d="M733.713 191.71H735.881C736.975 191.7 737.839 191.417 738.474 190.86C739.118 190.304 739.44 189.498 739.44 188.443C739.44 187.428 739.172 186.642 738.635 186.085C738.107 185.519 737.297 185.235 736.203 185.235C735.246 185.235 734.46 185.514 733.845 186.07C733.229 186.617 732.922 187.335 732.922 188.224H729.362C729.362 187.13 729.65 186.134 730.227 185.235C730.812 184.337 731.623 183.639 732.658 183.141C733.703 182.633 734.87 182.379 736.159 182.379C738.288 182.379 739.958 182.916 741.169 183.99C742.39 185.055 743 186.539 743 188.443C743 189.4 742.692 190.304 742.077 191.153C741.472 191.993 740.686 192.628 739.719 193.058C740.891 193.458 741.779 194.088 742.385 194.947C743 195.807 743.308 196.832 743.308 198.023C743.308 199.938 742.648 201.461 741.33 202.594C740.021 203.727 738.298 204.293 736.159 204.293C734.108 204.293 732.429 203.746 731.12 202.652C729.812 201.559 729.157 200.104 729.157 198.287H732.717C732.717 199.225 733.029 199.986 733.654 200.572C734.289 201.158 735.139 201.451 736.203 201.451C737.307 201.451 738.176 201.158 738.811 200.572C739.445 199.986 739.763 199.137 739.763 198.023C739.763 196.9 739.431 196.036 738.767 195.431C738.103 194.825 737.116 194.522 735.808 194.522H733.713V191.71Z" fill="#333333"/>
<path d="M431.356 90.964V95.284H458.644V90.964H431.356ZM433.84 102.448V106.804H455.8V102.448H433.84ZM429.34 114.58V118.972H460.588V114.58H429.34Z" fill="#333333"/>
<circle cx="449" cy="299.478" r="30" fill="white"/>
<path d="M440.971 255.698C425.578 276.302 419 290.347 419 299.478L479 299.478C477.656 283.351 465.25 265.645 456.649 255.156C452.491 250.086 444.895 250.446 440.971 255.698Z" fill="white"/>
<path d="M455.029 287.297C455.029 288.342 454.761 289.274 454.224 290.095C453.687 290.905 452.954 291.545 452.026 292.014C453.14 292.531 453.994 293.239 454.59 294.138C455.195 295.036 455.498 296.052 455.498 297.185C455.498 299.06 454.863 300.549 453.594 301.652C452.324 302.746 450.635 303.293 448.525 303.293C446.406 303.293 444.707 302.741 443.428 301.638C442.158 300.534 441.523 299.05 441.523 297.185C441.523 296.042 441.826 295.017 442.432 294.108C443.037 293.2 443.887 292.502 444.98 292.014C444.062 291.545 443.335 290.905 442.798 290.095C442.271 289.274 442.007 288.342 442.007 287.297C442.007 285.48 442.593 284.04 443.765 282.976C444.937 281.911 446.519 281.379 448.511 281.379C450.513 281.379 452.1 281.911 453.271 282.976C454.443 284.04 455.029 285.48 455.029 287.297ZM451.938 297.009C451.938 295.954 451.621 295.104 450.986 294.46C450.361 293.806 449.531 293.479 448.496 293.479C447.461 293.479 446.631 293.801 446.006 294.445C445.391 295.09 445.083 295.944 445.083 297.009C445.083 298.054 445.386 298.889 445.991 299.514C446.606 300.139 447.451 300.451 448.525 300.451C449.6 300.451 450.435 300.148 451.03 299.543C451.636 298.938 451.938 298.093 451.938 297.009ZM451.484 287.429C451.484 286.501 451.216 285.739 450.679 285.144C450.142 284.538 449.419 284.235 448.511 284.235C447.603 284.235 446.885 284.523 446.357 285.1C445.83 285.666 445.566 286.442 445.566 287.429C445.566 288.405 445.83 289.182 446.357 289.758C446.895 290.334 447.617 290.622 448.525 290.622C449.434 290.622 450.151 290.334 450.679 289.758C451.216 289.182 451.484 288.405 451.484 287.429Z" fill="#333333"/>
<path d="M442.235 401H438.69V383.876L433.461 385.663V382.66L441.781 379.599H442.235V401ZM450.6 390.424L451.757 379.672H463.212V382.748H454.716L454.13 387.846C455.116 387.279 456.229 386.996 457.47 386.996C459.501 386.996 461.078 387.646 462.201 388.944C463.334 390.243 463.9 391.991 463.9 394.188C463.9 396.356 463.275 398.085 462.025 399.374C460.775 400.653 459.062 401.293 456.884 401.293C454.931 401.293 453.31 400.741 452.021 399.638C450.741 398.524 450.048 397.06 449.94 395.243H453.383C453.52 396.278 453.891 397.074 454.496 397.631C455.102 398.178 455.893 398.451 456.869 398.451C457.963 398.451 458.812 398.061 459.418 397.279C460.033 396.498 460.341 395.434 460.341 394.086C460.341 392.787 460.004 391.762 459.33 391.01C458.656 390.248 457.729 389.867 456.547 389.867C455.902 389.867 455.355 389.955 454.906 390.131C454.457 390.297 453.969 390.629 453.441 391.127L450.6 390.424Z" fill="#333333"/>
<path d="M446.938 488H432.597V485.554L439.701 477.805C440.727 476.662 441.454 475.71 441.884 474.948C442.323 474.177 442.543 473.405 442.543 472.634C442.543 471.618 442.255 470.798 441.679 470.173C441.112 469.548 440.346 469.235 439.379 469.235C438.227 469.235 437.333 469.587 436.698 470.29C436.063 470.993 435.746 471.955 435.746 473.176H432.187C432.187 471.877 432.479 470.71 433.065 469.675C433.661 468.63 434.506 467.819 435.6 467.243C436.703 466.667 437.973 466.379 439.408 466.379C441.479 466.379 443.109 466.901 444.301 467.946C445.502 468.981 446.103 470.417 446.103 472.253C446.103 473.317 445.8 474.436 445.194 475.607C444.599 476.77 443.617 478.093 442.25 479.577L437.035 485.158H446.938V488ZM463.988 488H449.647V485.554L456.752 477.805C457.777 476.662 458.505 475.71 458.935 474.948C459.374 474.177 459.594 473.405 459.594 472.634C459.594 471.618 459.306 470.798 458.729 470.173C458.163 469.548 457.396 469.235 456.43 469.235C455.277 469.235 454.384 469.587 453.749 470.29C453.114 470.993 452.797 471.955 452.797 473.176H449.237C449.237 471.877 449.53 470.71 450.116 469.675C450.712 468.63 451.557 467.819 452.65 467.243C453.754 466.667 455.023 466.379 456.459 466.379C458.529 466.379 460.16 466.901 461.352 467.946C462.553 468.981 463.153 470.417 463.153 472.253C463.153 473.317 462.851 474.436 462.245 475.607C461.649 476.77 460.668 478.093 459.301 479.577L454.086 485.158H463.988V488Z" fill="#333333"/>
<path d="M446.938 576H432.597V573.554L439.701 565.805C440.727 564.662 441.454 563.71 441.884 562.948C442.323 562.177 442.543 561.405 442.543 560.634C442.543 559.618 442.255 558.798 441.679 558.173C441.112 557.548 440.346 557.235 439.379 557.235C438.227 557.235 437.333 557.587 436.698 558.29C436.063 558.993 435.746 559.955 435.746 561.176H432.187C432.187 559.877 432.479 558.71 433.065 557.675C433.661 556.63 434.506 555.819 435.6 555.243C436.703 554.667 437.973 554.379 439.408 554.379C441.479 554.379 443.109 554.901 444.301 555.946C445.502 556.981 446.103 558.417 446.103 560.253C446.103 561.317 445.8 562.436 445.194 563.607C444.599 564.77 443.617 566.093 442.25 567.577L437.035 573.158H446.938V576ZM459.74 567.079C458.549 568.339 457.157 568.969 455.565 568.969C453.69 568.969 452.196 568.314 451.083 567.006C449.97 565.688 449.413 563.959 449.413 561.82C449.413 560.414 449.696 559.14 450.263 557.997C450.829 556.854 451.635 555.966 452.68 555.331C453.725 554.696 454.936 554.379 456.312 554.379C458.461 554.379 460.165 555.18 461.425 556.781C462.685 558.383 463.314 560.526 463.314 563.212V564.208C463.314 568.056 462.445 570.99 460.707 573.012C458.969 575.033 456.376 576.059 452.929 576.088H452.504V573.144H453.017C455.116 573.114 456.728 572.611 457.851 571.635C458.974 570.648 459.604 569.13 459.74 567.079ZM456.312 566.186C457.025 566.186 457.694 565.98 458.319 565.57C458.944 565.16 459.428 564.594 459.77 563.871V562.479C459.77 560.907 459.447 559.643 458.803 558.686C458.158 557.729 457.323 557.25 456.298 557.25C455.272 557.25 454.452 557.675 453.837 558.524C453.231 559.364 452.929 560.429 452.929 561.718C452.929 563.056 453.236 564.135 453.852 564.955C454.467 565.775 455.287 566.186 456.312 566.186Z" fill="#333333"/>
<path d="M450.235 204H446.69V186.876L441.461 188.663V185.66L449.781 182.599H450.235V204Z" fill="#333333"/>
<path d="M602.689 294.079C601.498 295.339 600.106 295.969 598.515 295.969C596.64 295.969 595.146 295.314 594.032 294.006C592.919 292.688 592.362 290.959 592.362 288.82C592.362 287.414 592.646 286.14 593.212 284.997C593.778 283.854 594.584 282.966 595.629 282.331C596.674 281.696 597.885 281.379 599.262 281.379C601.41 281.379 603.114 282.18 604.374 283.781C605.634 285.383 606.264 287.526 606.264 290.212V291.208C606.264 295.056 605.395 297.99 603.656 300.012C601.918 302.033 599.325 303.059 595.878 303.088H595.453V300.144H595.966C598.065 300.114 599.677 299.611 600.8 298.635C601.923 297.648 602.553 296.13 602.689 294.079ZM599.262 293.186C599.975 293.186 600.644 292.98 601.269 292.57C601.894 292.16 602.377 291.594 602.719 290.871V289.479C602.719 287.907 602.396 286.643 601.752 285.686C601.107 284.729 600.272 284.25 599.247 284.25C598.222 284.25 597.401 284.675 596.786 285.524C596.181 286.364 595.878 287.429 595.878 288.718C595.878 290.056 596.186 291.135 596.801 291.955C597.416 292.775 598.236 293.186 599.262 293.186Z" fill="#333333"/>
<path d="M586.236 113.608V107.2C587.208 107.956 588.324 109.36 588.864 110.368C593.796 107.02 594.804 101.62 595.164 94.78H598.26V103.492C598.26 105.94 598.584 106.732 599.232 107.344C599.916 107.956 601.032 108.28 602.004 108.28H604.308C605.028 108.28 605.964 108.136 606.504 107.884C607.008 107.668 607.404 107.344 607.692 106.912V113.608H586.236ZM590.952 94.78C590.736 100.216 590.124 104.536 586.236 107.128V94.78H590.952ZM607.692 102.376C606.792 102.016 605.784 101.476 605.28 100.936C605.244 102.304 605.208 103.384 605.1 103.852C605.028 104.32 604.884 104.536 604.704 104.644C604.56 104.716 604.272 104.752 604.02 104.752H603.084C602.832 104.752 602.652 104.68 602.508 104.572C602.4 104.464 602.364 104.14 602.364 103.6V94.78H607.692V102.376ZM581.916 90.676V120.088H586.236V117.748H607.692V119.8H612.192V90.676H581.916Z" fill="#333333"/>
<path d="M592.235 401H588.69V383.876L583.461 385.663V382.66L591.781 379.599H592.235V401ZM610.722 379.569V382.514H610.282C608.29 382.543 606.698 383.09 605.507 384.154C604.315 385.219 603.607 386.728 603.383 388.681C604.525 387.479 605.985 386.879 607.763 386.879C609.647 386.879 611.132 387.543 612.216 388.871C613.31 390.199 613.856 391.913 613.856 394.013C613.856 396.181 613.217 397.938 611.938 399.286C610.668 400.624 608.998 401.293 606.928 401.293C604.799 401.293 603.07 400.507 601.742 398.935C600.424 397.362 599.765 395.302 599.765 392.753V391.537C599.765 387.797 600.673 384.867 602.489 382.748C604.315 380.629 606.938 379.569 610.355 379.569H610.722ZM606.898 389.75C606.117 389.75 605.399 389.97 604.745 390.409C604.101 390.849 603.627 391.435 603.324 392.167V393.251C603.324 394.833 603.656 396.093 604.32 397.03C604.984 397.958 605.844 398.422 606.898 398.422C607.953 398.422 608.788 398.026 609.403 397.235C610.019 396.444 610.326 395.404 610.326 394.115C610.326 392.826 610.014 391.776 609.389 390.966C608.764 390.155 607.934 389.75 606.898 389.75Z" fill="#333333"/>
<path d="M596.938 488H582.597V485.554L589.701 477.805C590.727 476.662 591.454 475.71 591.884 474.948C592.323 474.177 592.543 473.405 592.543 472.634C592.543 471.618 592.255 470.798 591.679 470.173C591.112 469.548 590.346 469.235 589.379 469.235C588.227 469.235 587.333 469.587 586.698 470.29C586.063 470.993 585.746 471.955 585.746 473.176H582.187C582.187 471.877 582.479 470.71 583.065 469.675C583.661 468.63 584.506 467.819 585.6 467.243C586.703 466.667 587.973 466.379 589.408 466.379C591.479 466.379 593.109 466.901 594.301 467.946C595.502 468.981 596.103 470.417 596.103 472.253C596.103 473.317 595.8 474.436 595.194 475.607C594.599 476.77 593.617 478.093 592.25 479.577L587.035 485.158H596.938V488ZM603.764 475.71H605.932C607.025 475.7 607.89 475.417 608.524 474.86C609.169 474.304 609.491 473.498 609.491 472.443C609.491 471.428 609.223 470.642 608.686 470.085C608.158 469.519 607.348 469.235 606.254 469.235C605.297 469.235 604.511 469.514 603.896 470.07C603.28 470.617 602.973 471.335 602.973 472.224H599.413C599.413 471.13 599.701 470.134 600.277 469.235C600.863 468.337 601.674 467.639 602.709 467.141C603.754 466.633 604.921 466.379 606.21 466.379C608.339 466.379 610.009 466.916 611.22 467.99C612.44 469.055 613.051 470.539 613.051 472.443C613.051 473.4 612.743 474.304 612.128 475.153C611.522 475.993 610.736 476.628 609.77 477.058C610.941 477.458 611.83 478.088 612.436 478.947C613.051 479.807 613.358 480.832 613.358 482.023C613.358 483.938 612.699 485.461 611.381 486.594C610.072 487.727 608.349 488.293 606.21 488.293C604.159 488.293 602.479 487.746 601.171 486.652C599.862 485.559 599.208 484.104 599.208 482.287H602.768C602.768 483.225 603.08 483.986 603.705 484.572C604.34 485.158 605.189 485.451 606.254 485.451C607.357 485.451 608.227 485.158 608.861 484.572C609.496 483.986 609.813 483.137 609.813 482.023C609.813 480.9 609.481 480.036 608.817 479.431C608.153 478.825 607.167 478.522 605.858 478.522H603.764V475.71Z" fill="#333333"/>
<path d="M586.713 563.71H588.881C589.975 563.7 590.839 563.417 591.474 562.86C592.118 562.304 592.44 561.498 592.44 560.443C592.44 559.428 592.172 558.642 591.635 558.085C591.107 557.519 590.297 557.235 589.203 557.235C588.246 557.235 587.46 557.514 586.845 558.07C586.229 558.617 585.922 559.335 585.922 560.224H582.362C582.362 559.13 582.65 558.134 583.227 557.235C583.812 556.337 584.623 555.639 585.658 555.141C586.703 554.633 587.87 554.379 589.159 554.379C591.288 554.379 592.958 554.916 594.169 555.99C595.39 557.055 596 558.539 596 560.443C596 561.4 595.692 562.304 595.077 563.153C594.472 563.993 593.686 564.628 592.719 565.058C593.891 565.458 594.779 566.088 595.385 566.947C596 567.807 596.308 568.832 596.308 570.023C596.308 571.938 595.648 573.461 594.33 574.594C593.021 575.727 591.298 576.293 589.159 576.293C587.108 576.293 585.429 575.746 584.12 574.652C582.812 573.559 582.157 572.104 582.157 570.287H585.717C585.717 571.225 586.029 571.986 586.654 572.572C587.289 573.158 588.139 573.451 589.203 573.451C590.307 573.451 591.176 573.158 591.811 572.572C592.445 571.986 592.763 571.137 592.763 570.023C592.763 568.9 592.431 568.036 591.767 567.431C591.103 566.825 590.116 566.522 588.808 566.522H586.713V563.71ZM613.549 567.021C613.549 570.087 612.973 572.401 611.82 573.964C610.678 575.517 608.935 576.293 606.591 576.293C604.286 576.293 602.548 575.536 601.376 574.022C600.214 572.499 599.618 570.248 599.589 567.27V563.578C599.589 560.512 600.16 558.212 601.303 556.679C602.455 555.146 604.208 554.379 606.562 554.379C608.896 554.379 610.634 555.126 611.776 556.62C612.929 558.114 613.52 560.351 613.549 563.329V567.021ZM609.989 563.036C609.989 561.034 609.716 559.569 609.169 558.642C608.622 557.704 607.753 557.235 606.562 557.235C605.399 557.235 604.545 557.68 603.998 558.568C603.451 559.447 603.163 560.824 603.134 562.699V567.533C603.134 569.525 603.412 571.01 603.969 571.986C604.525 572.963 605.399 573.451 606.591 573.451C607.733 573.451 608.578 573.002 609.125 572.104C609.672 571.195 609.96 569.779 609.989 567.855V563.036Z" fill="#333333"/>
<path d="M607.938 204H593.597V201.554L600.701 193.805C601.727 192.662 602.454 191.71 602.884 190.948C603.323 190.177 603.543 189.405 603.543 188.634C603.543 187.618 603.255 186.798 602.679 186.173C602.112 185.548 601.346 185.235 600.379 185.235C599.227 185.235 598.333 185.587 597.698 186.29C597.063 186.993 596.746 187.955 596.746 189.176H593.187C593.187 187.877 593.479 186.71 594.065 185.675C594.661 184.63 595.506 183.819 596.6 183.243C597.703 182.667 598.973 182.379 600.408 182.379C602.479 182.379 604.109 182.901 605.301 183.946C606.502 184.981 607.103 186.417 607.103 188.253C607.103 189.317 606.8 190.436 606.194 191.607C605.599 192.77 604.617 194.093 603.25 195.577L598.035 201.158H607.938V204Z" fill="#333333"/>
<path d="M817.2 793.491C814.49 791.393 814.478 788.601 814.453 785.581C814.339 769.396 814.074 753.211 813.961 737.026C813.936 733.046 812.713 730.026 809.79 727.006C802.896 719.88 794.73 717.745 785.505 717.846C770.874 718.01 755.99 718.503 741.649 719.476C738.864 719.665 735.285 720.752 734.314 718.263L733.142 712.097C733.142 712.097 731.088 701.193 728.706 698.818C723.489 693.638 714.491 696.91 707.648 698.35C703.502 699.222 698.348 699.803 695.827 703.847C695.726 704.011 695.638 704.162 695.55 704.327C695.411 704.592 695.273 704.857 695.147 705.161V705.173C694.844 705.919 694.605 706.765 694.466 707.726C695.21 714.018 695.953 720.297 696.697 726.589L697.415 731.517C697.415 731.517 696.873 732.616 692.966 734.044L692.046 734.347C692.046 734.347 666.691 738.15 667.182 754.702L668.341 793.668L666.451 794.539C664.725 795.487 663.389 797.028 663.2 801.868V1095.2C663.2 1113.43 699.343 1128.21 743.943 1128.21C788.53 1128.21 824.686 1113.43 824.686 1095.2L819.304 797.925C819.153 796.144 818.536 794.527 817.2 793.491Z" fill="#F1F1F1"/>
<rect y="711" width="524" height="63" rx="31.5" fill="#E8F6F3"/>
<path d="M160.339 753.39C158.979 753.39 157.849 753.1 156.949 752.52C156.069 751.94 155.359 750.87 154.819 749.31C154.299 747.75 154.039 745.66 154.039 743.04C154.039 740.42 154.319 738.32 154.879 736.74C155.439 735.16 156.169 734.07 157.069 733.47C157.989 732.87 159.129 732.57 160.489 732.57C162.569 732.57 164.139 733.34 165.199 734.88C166.279 736.42 166.819 739.11 166.819 742.95C166.819 746.77 166.259 749.47 165.139 751.05C164.039 752.61 162.439 753.39 160.339 753.39ZM163.129 736.86C162.549 735.7 161.649 735.12 160.429 735.12C159.209 735.12 158.309 735.7 157.729 736.86C157.149 738.02 156.859 740.07 156.859 743.01C156.859 745.93 157.139 747.97 157.699 749.13C158.279 750.27 159.189 750.84 160.429 750.84C161.669 750.84 162.569 750.27 163.129 749.13C163.709 747.97 163.999 745.93 163.999 743.01C163.999 740.07 163.709 738.02 163.129 736.86ZM170.577 735.39V732.96H182.067V734.55L178.677 742.62C177.037 746.26 175.987 749.72 175.527 753H172.587C172.987 749.82 173.957 746.5 175.497 743.04L178.857 735.39H170.577ZM194.301 750.03C194.661 749.67 195.091 749.49 195.591 749.49C196.091 749.49 196.521 749.67 196.881 750.03C197.241 750.37 197.421 750.8 197.421 751.32C197.421 751.82 197.241 752.26 196.881 752.64C196.521 753 196.091 753.18 195.591 753.18C195.091 753.18 194.661 753 194.301 752.64C193.941 752.26 193.761 751.82 193.761 751.32C193.761 750.8 193.941 750.37 194.301 750.03ZM194.331 741.03C194.691 740.67 195.121 740.49 195.621 740.49C196.121 740.49 196.551 740.67 196.911 741.03C197.271 741.37 197.451 741.8 197.451 742.32C197.451 742.82 197.271 743.26 196.911 743.64C196.551 744 196.121 744.18 195.621 744.18C195.121 744.18 194.691 744 194.331 743.64C193.971 743.26 193.791 742.82 193.791 742.32C193.791 741.8 193.971 741.37 194.331 741.03ZM224.091 747.3H220.701V753H218.031V747.3H209.391V745.56L217.641 733.2H220.701V745.32H224.091V747.3ZM218.031 745.32V737.1L212.511 745.32H218.031ZM232.91 750.84C234.09 750.84 234.98 750.44 235.58 749.64C236.2 748.82 236.51 747.77 236.51 746.49C236.51 745.21 236.25 744.19 235.73 743.43C235.23 742.65 234.4 742.26 233.24 742.26C232.1 742.26 231.1 742.73 230.24 743.67L228.5 742.77V732.96H238.4V735.39H231.02V740.58C231.82 740.06 232.88 739.8 234.2 739.8C235.54 739.8 236.72 740.38 237.74 741.54C238.76 742.68 239.27 744.27 239.27 746.31C239.27 748.35 238.75 750.04 237.71 751.38C236.67 752.72 235.14 753.39 233.12 753.39C231.1 753.39 229.23 752.86 227.51 751.8L228.41 749.61C229.01 749.93 229.76 750.22 230.66 750.48C231.56 750.72 232.31 750.84 232.91 750.84Z" fill="#767753"/>
<path d="M95.544 751.92V742.416H104.472V740.64H95.544V733.296H93.672V751.92H84.72V753.696H106.104V751.92H95.544ZM131.256 743.88H121.512V737.88H129.408V736.128H115.536C115.944 735.216 116.304 734.256 116.616 733.272L114.744 732.864C113.784 736.104 112.08 739.296 110.016 741.288C110.472 741.552 111.288 742.08 111.648 742.368C112.752 741.168 113.784 739.632 114.696 737.88H119.712V743.88H109.968V745.632H119.712V754.848H121.512V745.632H131.256V743.88Z" fill="#767753"/>
<path d="M394.053 743.25H392.613V741.21H394.023C395.203 741.07 396.113 740.67 396.753 740.01C397.413 739.35 397.743 738.58 397.743 737.7C397.743 736.8 397.443 736.14 396.843 735.72C396.263 735.3 395.413 735.09 394.293 735.09C393.193 735.09 392.013 735.34 390.753 735.84L390.093 733.68C391.793 732.94 393.453 732.57 395.073 732.57C396.713 732.57 398.013 733.02 398.973 733.92C399.953 734.8 400.443 735.99 400.443 737.49C400.443 738.41 400.223 739.28 399.783 740.1C399.363 740.9 398.753 741.52 397.953 741.96C400.153 742.78 401.253 744.44 401.253 746.94C401.253 748.84 400.663 750.39 399.483 751.59C398.323 752.79 396.783 753.39 394.863 753.39C392.963 753.39 391.163 752.87 389.463 751.83L390.453 749.58C392.133 750.42 393.553 750.84 394.713 750.84C395.893 750.84 396.823 750.48 397.503 749.76C398.183 749.02 398.523 748.09 398.523 746.97C398.523 745.85 398.133 744.95 397.353 744.27C396.573 743.59 395.473 743.25 394.053 743.25ZM411.987 753.39C410.627 753.39 409.497 753.1 408.597 752.52C407.717 751.94 407.007 750.87 406.467 749.31C405.947 747.75 405.687 745.66 405.687 743.04C405.687 740.42 405.967 738.32 406.527 736.74C407.087 735.16 407.817 734.07 408.717 733.47C409.637 732.87 410.777 732.57 412.137 732.57C414.217 732.57 415.787 733.34 416.847 734.88C417.927 736.42 418.467 739.11 418.467 742.95C418.467 746.77 417.907 749.47 416.787 751.05C415.687 752.61 414.087 753.39 411.987 753.39ZM414.777 736.86C414.197 735.7 413.297 735.12 412.077 735.12C410.857 735.12 409.957 735.7 409.377 736.86C408.797 738.02 408.507 740.07 408.507 743.01C408.507 745.93 408.787 747.97 409.347 749.13C409.927 750.27 410.837 750.84 412.077 750.84C413.317 750.84 414.217 750.27 414.777 749.13C415.357 747.97 415.647 745.93 415.647 743.01C415.647 740.07 415.357 738.02 414.777 736.86ZM429.366 753.39C428.006 753.39 426.876 753.1 425.976 752.52C425.096 751.94 424.386 750.87 423.846 749.31C423.326 747.75 423.066 745.66 423.066 743.04C423.066 740.42 423.346 738.32 423.906 736.74C424.466 735.16 425.196 734.07 426.096 733.47C427.016 732.87 428.156 732.57 429.516 732.57C431.596 732.57 433.166 733.34 434.226 734.88C435.306 736.42 435.846 739.11 435.846 742.95C435.846 746.77 435.286 749.47 434.166 751.05C433.066 752.61 431.466 753.39 429.366 753.39ZM432.156 736.86C431.576 735.7 430.676 735.12 429.456 735.12C428.236 735.12 427.336 735.7 426.756 736.86C426.176 738.02 425.886 740.07 425.886 743.01C425.886 745.93 426.166 747.97 426.726 749.13C427.306 750.27 428.216 750.84 429.456 750.84C430.696 750.84 431.596 750.27 432.156 749.13C432.736 747.97 433.026 745.93 433.026 743.01C433.026 740.07 432.736 738.02 432.156 736.86ZM452.355 742.71V753H449.655V742.74C449.655 741.82 449.535 741.1 449.295 740.58C449.055 740.06 448.565 739.8 447.825 739.8C447.105 739.8 446.345 739.99 445.545 740.37C444.745 740.75 444.105 741.23 443.625 741.81V753H440.925V737.82H443.175L443.475 739.65C444.035 739.11 444.765 738.62 445.665 738.18C446.585 737.74 447.475 737.52 448.335 737.52C450.155 737.52 451.345 738.26 451.905 739.74C452.505 739.18 453.285 738.67 454.245 738.21C455.205 737.75 456.105 737.52 456.945 737.52C459.625 737.52 460.965 739.21 460.965 742.59V753H458.265V742.74C458.265 741.8 458.145 741.08 457.905 740.58C457.665 740.06 457.195 739.8 456.495 739.8C455.795 739.8 455.055 739.99 454.275 740.37C453.495 740.75 452.835 741.19 452.295 741.69C452.335 741.93 452.355 742.27 452.355 742.71ZM466.478 732H469.208V749.94C469.208 750.72 469.568 751.11 470.288 751.11C470.848 751.11 471.438 751.01 472.058 750.81L472.508 752.79C471.688 753.19 470.678 753.39 469.478 753.39C467.478 753.39 466.478 752.25 466.478 749.97V732Z" fill="#767753"/>
<ellipse cx="43.5598" cy="744.64" rx="12.76" ry="12.32" fill="#B9E6DB"/>
<path d="M36.176 731.235C32.4485 736.805 30.7998 740.878 30.7998 743.76L56.3198 743.76C55.9452 739.414 53.5496 734.788 50.9131 730.902C47.3143 725.598 39.741 725.909 36.176 731.235Z" fill="#B9E6DB"/>
<circle cx="44" cy="742" r="21" stroke="#B9E6DB" stroke-width="2"/>
<rect y="799" width="524" height="63" rx="31.5" fill="#E8F6F3"/>
<path d="M159.958 841.39C158.598 841.39 157.468 841.1 156.568 840.52C155.688 839.94 154.978 838.87 154.438 837.31C153.918 835.75 153.658 833.66 153.658 831.04C153.658 828.42 153.938 826.32 154.498 824.74C155.058 823.16 155.788 822.07 156.688 821.47C157.608 820.87 158.748 820.57 160.108 820.57C162.188 820.57 163.758 821.34 164.818 822.88C165.898 824.42 166.438 827.11 166.438 830.95C166.438 834.77 165.878 837.47 164.758 839.05C163.658 840.61 162.058 841.39 159.958 841.39ZM162.748 824.86C162.168 823.7 161.268 823.12 160.048 823.12C158.828 823.12 157.928 823.7 157.348 824.86C156.768 826.02 156.478 828.07 156.478 831.01C156.478 833.93 156.758 835.97 157.318 837.13C157.898 838.27 158.808 838.84 160.048 838.84C161.288 838.84 162.188 838.27 162.748 837.13C163.328 835.97 163.618 833.93 163.618 831.01C163.618 828.07 163.328 826.02 162.748 824.86ZM174.607 841.39C173.627 841.39 172.607 841.18 171.547 840.76L172.237 838.36C173.037 838.68 173.787 838.84 174.487 838.84C177.267 838.84 179.037 836.93 179.797 833.11C178.557 834.13 177.187 834.64 175.687 834.64C174.207 834.64 173.007 834.1 172.087 833.02C171.167 831.94 170.707 830.31 170.707 828.13C170.707 825.95 171.237 824.15 172.297 822.73C173.357 821.29 174.847 820.57 176.767 820.57C180.807 820.57 182.827 823.64 182.827 829.78C182.827 833.42 182.067 836.27 180.547 838.33C179.027 840.37 177.047 841.39 174.607 841.39ZM180.037 829.63C180.037 827.21 179.757 825.52 179.197 824.56C178.637 823.6 177.817 823.12 176.737 823.12C175.677 823.12 174.867 823.56 174.307 824.44C173.747 825.32 173.467 826.54 173.467 828.1C173.467 830.9 174.337 832.3 176.077 832.3C177.417 832.3 178.727 831.73 180.007 830.59C180.027 830.37 180.037 830.05 180.037 829.63ZM196.03 838.03C196.39 837.67 196.82 837.49 197.32 837.49C197.82 837.49 198.25 837.67 198.61 838.03C198.97 838.37 199.15 838.8 199.15 839.32C199.15 839.82 198.97 840.26 198.61 840.64C198.25 841 197.82 841.18 197.32 841.18C196.82 841.18 196.39 841 196.03 840.64C195.67 840.26 195.49 839.82 195.49 839.32C195.49 838.8 195.67 838.37 196.03 838.03ZM196.06 829.03C196.42 828.67 196.85 828.49 197.35 828.49C197.85 828.49 198.28 828.67 198.64 829.03C199 829.37 199.18 829.8 199.18 830.32C199.18 830.82 199 831.26 198.64 831.64C198.28 832 197.85 832.18 197.35 832.18C196.85 832.18 196.42 832 196.06 831.64C195.7 831.26 195.52 830.82 195.52 830.32C195.52 829.8 195.7 829.37 196.06 829.03ZM211.209 841V838.57C213.349 836.27 215.199 834.18 216.759 832.3C218.319 830.4 219.269 829.14 219.609 828.52C219.969 827.9 220.149 827.12 220.149 826.18C220.149 825.22 219.849 824.47 219.249 823.93C218.649 823.39 217.769 823.12 216.609 823.12C215.449 823.12 214.239 823.37 212.979 823.87L212.319 821.71C213.959 820.95 215.619 820.57 217.299 820.57C218.979 820.57 220.309 821.06 221.289 822.04C222.289 823.02 222.789 824.38 222.789 826.12C222.789 827.86 221.939 829.78 220.239 831.88C217.819 834.9 215.959 837.13 214.659 838.57H223.509L223.299 841H211.209ZM231.208 841.39C230.228 841.39 229.208 841.18 228.148 840.76L228.838 838.36C229.638 838.68 230.388 838.84 231.088 838.84C233.868 838.84 235.638 836.93 236.398 833.11C235.158 834.13 233.788 834.64 232.288 834.64C230.808 834.64 229.608 834.1 228.688 833.02C227.768 831.94 227.308 830.31 227.308 828.13C227.308 825.95 227.838 824.15 228.898 822.73C229.958 821.29 231.448 820.57 233.368 820.57C237.408 820.57 239.428 823.64 239.428 829.78C239.428 833.42 238.668 836.27 237.148 838.33C235.628 840.37 233.648 841.39 231.208 841.39ZM236.638 829.63C236.638 827.21 236.358 825.52 235.798 824.56C235.238 823.6 234.418 823.12 233.338 823.12C232.278 823.12 231.468 823.56 230.908 824.44C230.348 825.32 230.068 826.54 230.068 828.1C230.068 830.9 230.938 832.3 232.678 832.3C234.018 832.3 235.328 831.73 236.608 830.59C236.628 830.37 236.638 830.05 236.638 829.63Z" fill="#767753"/>
<path d="M95.544 840.92V831.416H104.472V829.64H95.544V822.296H93.672V840.92H84.72V842.696H106.104V840.92H95.544ZM131.256 832.88H121.512V826.88H129.408V825.128H115.536C115.944 824.216 116.304 823.256 116.616 822.272L114.744 821.864C113.784 825.104 112.08 828.296 110.016 830.288C110.472 830.552 111.288 831.08 111.648 831.368C112.752 830.168 113.784 828.632 114.696 826.88H119.712V832.88H109.968V834.632H119.712V843.848H121.512V834.632H131.256V832.88Z" fill="#767753"/>
<path d="M389.361 841V838.57C391.501 836.27 393.351 834.18 394.911 832.3C396.471 830.4 397.421 829.14 397.761 828.52C398.121 827.9 398.301 827.12 398.301 826.18C398.301 825.22 398.001 824.47 397.401 823.93C396.801 823.39 395.921 823.12 394.761 823.12C393.601 823.12 392.391 823.37 391.131 823.87L390.471 821.71C392.111 820.95 393.771 820.57 395.451 820.57C397.131 820.57 398.461 821.06 399.441 822.04C400.441 823.02 400.941 824.38 400.941 826.12C400.941 827.86 400.091 829.78 398.391 831.88C395.971 834.9 394.111 837.13 392.811 838.57H401.661L401.451 841H389.361ZM412.089 841.39C410.729 841.39 409.599 841.1 408.699 840.52C407.819 839.94 407.109 838.87 406.569 837.31C406.049 835.75 405.789 833.66 405.789 831.04C405.789 828.42 406.069 826.32 406.629 824.74C407.189 823.16 407.919 822.07 408.819 821.47C409.739 820.87 410.879 820.57 412.239 820.57C414.319 820.57 415.889 821.34 416.949 822.88C418.029 824.42 418.569 827.11 418.569 830.95C418.569 834.77 418.009 837.47 416.889 839.05C415.789 840.61 414.189 841.39 412.089 841.39ZM414.879 824.86C414.299 823.7 413.399 823.12 412.179 823.12C410.959 823.12 410.059 823.7 409.479 824.86C408.899 826.02 408.609 828.07 408.609 831.01C408.609 833.93 408.889 835.97 409.449 837.13C410.029 838.27 410.939 838.84 412.179 838.84C413.419 838.84 414.319 838.27 414.879 837.13C415.459 835.97 415.749 833.93 415.749 831.01C415.749 828.07 415.459 826.02 414.879 824.86ZM429.468 841.39C428.108 841.39 426.978 841.1 426.078 840.52C425.198 839.94 424.488 838.87 423.948 837.31C423.428 835.75 423.168 833.66 423.168 831.04C423.168 828.42 423.448 826.32 424.008 824.74C424.568 823.16 425.298 822.07 426.198 821.47C427.118 820.87 428.258 820.57 429.618 820.57C431.698 820.57 433.268 821.34 434.328 822.88C435.408 824.42 435.948 827.11 435.948 830.95C435.948 834.77 435.388 837.47 434.268 839.05C433.168 840.61 431.568 841.39 429.468 841.39ZM432.258 824.86C431.678 823.7 430.778 823.12 429.558 823.12C428.338 823.12 427.438 823.7 426.858 824.86C426.278 826.02 425.988 828.07 425.988 831.01C425.988 833.93 426.268 835.97 426.828 837.13C427.408 838.27 428.318 838.84 429.558 838.84C430.798 838.84 431.698 838.27 432.258 837.13C432.838 835.97 433.128 833.93 433.128 831.01C433.128 828.07 432.838 826.02 432.258 824.86ZM452.457 830.71V841H449.757V830.74C449.757 829.82 449.637 829.1 449.397 828.58C449.157 828.06 448.667 827.8 447.927 827.8C447.207 827.8 446.447 827.99 445.647 828.37C444.847 828.75 444.207 829.23 443.727 829.81V841H441.027V825.82H443.277L443.577 827.65C444.137 827.11 444.867 826.62 445.767 826.18C446.687 825.74 447.577 825.52 448.437 825.52C450.257 825.52 451.447 826.26 452.007 827.74C452.607 827.18 453.387 826.67 454.347 826.21C455.307 825.75 456.207 825.52 457.047 825.52C459.727 825.52 461.067 827.21 461.067 830.59V841H458.367V830.74C458.367 829.8 458.247 829.08 458.007 828.58C457.767 828.06 457.297 827.8 456.597 827.8C455.897 827.8 455.157 827.99 454.377 828.37C453.597 828.75 452.937 829.19 452.397 829.69C452.437 829.93 452.457 830.27 452.457 830.71ZM466.581 820H469.311V837.94C469.311 838.72 469.671 839.11 470.391 839.11C470.951 839.11 471.541 839.01 472.161 838.81L472.611 840.79C471.791 841.19 470.781 841.39 469.581 841.39C467.581 841.39 466.581 840.25 466.581 837.97V820Z" fill="#767753"/>
<ellipse cx="43.5598" cy="832.64" rx="12.76" ry="12.32" fill="#B9E6DB"/>
<path d="M36.176 819.235C32.4485 824.805 30.7998 828.878 30.7998 831.76L56.3198 831.76C55.9452 827.414 53.5496 822.788 50.9131 818.902C47.3143 813.598 39.741 813.909 36.176 819.235Z" fill="#B9E6DB"/>
<circle cx="44" cy="830" r="21" stroke="#B9E6DB" stroke-width="2"/>
<rect y="887" width="524" height="63" rx="31.5" fill="#E8F6F3"/>
<path d="M169.523 929H166.733V911.45L162.413 913.46L161.603 911.45L167.153 908.96H169.523V929ZM174.099 929V926.57C176.239 924.27 178.089 922.18 179.649 920.3C181.209 918.4 182.159 917.14 182.499 916.52C182.859 915.9 183.039 915.12 183.039 914.18C183.039 913.22 182.739 912.47 182.139 911.93C181.539 911.39 180.659 911.12 179.499 911.12C178.339 911.12 177.129 911.37 175.869 911.87L175.209 909.71C176.849 908.95 178.509 908.57 180.189 908.57C181.869 908.57 183.199 909.06 184.179 910.04C185.179 911.02 185.679 912.38 185.679 914.12C185.679 915.86 184.829 917.78 183.129 919.88C180.709 922.9 178.849 925.13 177.549 926.57H186.399L186.189 929H174.099ZM191.398 926.03C191.758 925.67 192.188 925.49 192.688 925.49C193.188 925.49 193.618 925.67 193.978 926.03C194.338 926.37 194.518 926.8 194.518 927.32C194.518 927.82 194.338 928.26 193.978 928.64C193.618 929 193.188 929.18 192.688 929.18C192.188 929.18 191.758 929 191.398 928.64C191.038 928.26 190.858 927.82 190.858 927.32C190.858 926.8 191.038 926.37 191.398 926.03ZM191.428 917.03C191.788 916.67 192.218 916.49 192.718 916.49C193.218 916.49 193.648 916.67 194.008 917.03C194.368 917.37 194.548 917.8 194.548 918.32C194.548 918.82 194.368 919.26 194.008 919.64C193.648 920 193.218 920.18 192.718 920.18C192.218 920.18 191.788 920 191.428 919.64C191.068 919.26 190.888 918.82 190.888 918.32C190.888 917.8 191.068 917.37 191.428 917.03ZM211.167 919.25H209.727V917.21H211.137C212.317 917.07 213.227 916.67 213.867 916.01C214.527 915.35 214.857 914.58 214.857 913.7C214.857 912.8 214.557 912.14 213.957 911.72C213.377 911.3 212.527 911.09 211.407 911.09C210.307 911.09 209.127 911.34 207.867 911.84L207.207 909.68C208.907 908.94 210.567 908.57 212.187 908.57C213.827 908.57 215.127 909.02 216.087 909.92C217.067 910.8 217.557 911.99 217.557 913.49C217.557 914.41 217.337 915.28 216.897 916.1C216.477 916.9 215.867 917.52 215.067 917.96C217.267 918.78 218.367 920.44 218.367 922.94C218.367 924.84 217.777 926.39 216.597 927.59C215.437 928.79 213.897 929.39 211.977 929.39C210.077 929.39 208.277 928.87 206.577 927.83L207.567 925.58C209.247 926.42 210.667 926.84 211.827 926.84C213.007 926.84 213.937 926.48 214.617 925.76C215.297 925.02 215.637 924.09 215.637 922.97C215.637 921.85 215.247 920.95 214.467 920.27C213.687 919.59 212.587 919.25 211.167 919.25ZM229.581 929H226.791V911.45L222.471 913.46L221.661 911.45L227.211 908.96H229.581V929Z" fill="#767753"/>
<path d="M106.008 914.464V912.688H84.816V914.464H93.984V932.8H95.88V920.176C98.616 921.64 101.832 923.608 103.464 924.952L104.712 923.344C102.816 921.904 99.048 919.744 96.192 918.376L95.88 918.736V914.464H106.008ZM131.256 921.88H121.512V915.88H129.408V914.128H115.536C115.944 913.216 116.304 912.256 116.616 911.272L114.744 910.864C113.784 914.104 112.08 917.296 110.016 919.288C110.472 919.552 111.288 920.08 111.648 920.368C112.752 919.168 113.784 917.632 114.696 915.88H119.712V921.88H109.968V923.632H119.712V932.848H121.512V923.632H131.256V921.88Z" fill="#767753"/>
<path d="M394.053 919.25H392.613V917.21H394.023C395.203 917.07 396.113 916.67 396.753 916.01C397.413 915.35 397.743 914.58 397.743 913.7C397.743 912.8 397.443 912.14 396.843 911.72C396.263 911.3 395.413 911.09 394.293 911.09C393.193 911.09 392.013 911.34 390.753 911.84L390.093 909.68C391.793 908.94 393.453 908.57 395.073 908.57C396.713 908.57 398.013 909.02 398.973 909.92C399.953 910.8 400.443 911.99 400.443 913.49C400.443 914.41 400.223 915.28 399.783 916.1C399.363 916.9 398.753 917.52 397.953 917.96C400.153 918.78 401.253 920.44 401.253 922.94C401.253 924.84 400.663 926.39 399.483 927.59C398.323 928.79 396.783 929.39 394.863 929.39C392.963 929.39 391.163 928.87 389.463 927.83L390.453 925.58C392.133 926.42 393.553 926.84 394.713 926.84C395.893 926.84 396.823 926.48 397.503 925.76C398.183 925.02 398.523 924.09 398.523 922.97C398.523 921.85 398.133 920.95 397.353 920.27C396.573 919.59 395.473 919.25 394.053 919.25ZM411.987 929.39C410.627 929.39 409.497 929.1 408.597 928.52C407.717 927.94 407.007 926.87 406.467 925.31C405.947 923.75 405.687 921.66 405.687 919.04C405.687 916.42 405.967 914.32 406.527 912.74C407.087 911.16 407.817 910.07 408.717 909.47C409.637 908.87 410.777 908.57 412.137 908.57C414.217 908.57 415.787 909.34 416.847 910.88C417.927 912.42 418.467 915.11 418.467 918.95C418.467 922.77 417.907 925.47 416.787 927.05C415.687 928.61 414.087 929.39 411.987 929.39ZM414.777 912.86C414.197 911.7 413.297 911.12 412.077 911.12C410.857 911.12 409.957 911.7 409.377 912.86C408.797 914.02 408.507 916.07 408.507 919.01C408.507 921.93 408.787 923.97 409.347 925.13C409.927 926.27 410.837 926.84 412.077 926.84C413.317 926.84 414.217 926.27 414.777 925.13C415.357 923.97 415.647 921.93 415.647 919.01C415.647 916.07 415.357 914.02 414.777 912.86ZM429.366 929.39C428.006 929.39 426.876 929.1 425.976 928.52C425.096 927.94 424.386 926.87 423.846 925.31C423.326 923.75 423.066 921.66 423.066 919.04C423.066 916.42 423.346 914.32 423.906 912.74C424.466 911.16 425.196 910.07 426.096 909.47C427.016 908.87 428.156 908.57 429.516 908.57C431.596 908.57 433.166 909.34 434.226 910.88C435.306 912.42 435.846 915.11 435.846 918.95C435.846 922.77 435.286 925.47 434.166 927.05C433.066 928.61 431.466 929.39 429.366 929.39ZM432.156 912.86C431.576 911.7 430.676 911.12 429.456 911.12C428.236 911.12 427.336 911.7 426.756 912.86C426.176 914.02 425.886 916.07 425.886 919.01C425.886 921.93 426.166 923.97 426.726 925.13C427.306 926.27 428.216 926.84 429.456 926.84C430.696 926.84 431.596 926.27 432.156 925.13C432.736 923.97 433.026 921.93 433.026 919.01C433.026 916.07 432.736 914.02 432.156 912.86ZM452.355 918.71V929H449.655V918.74C449.655 917.82 449.535 917.1 449.295 916.58C449.055 916.06 448.565 915.8 447.825 915.8C447.105 915.8 446.345 915.99 445.545 916.37C444.745 916.75 444.105 917.23 443.625 917.81V929H440.925V913.82H443.175L443.475 915.65C444.035 915.11 444.765 914.62 445.665 914.18C446.585 913.74 447.475 913.52 448.335 913.52C450.155 913.52 451.345 914.26 451.905 915.74C452.505 915.18 453.285 914.67 454.245 914.21C455.205 913.75 456.105 913.52 456.945 913.52C459.625 913.52 460.965 915.21 460.965 918.59V929H458.265V918.74C458.265 917.8 458.145 917.08 457.905 916.58C457.665 916.06 457.195 915.8 456.495 915.8C455.795 915.8 455.055 915.99 454.275 916.37C453.495 916.75 452.835 917.19 452.295 917.69C452.335 917.93 452.355 918.27 452.355 918.71ZM466.478 908H469.208V925.94C469.208 926.72 469.568 927.11 470.288 927.11C470.848 927.11 471.438 927.01 472.058 926.81L472.508 928.79C471.688 929.19 470.678 929.39 469.478 929.39C467.478 929.39 466.478 928.25 466.478 925.97V908Z" fill="#767753"/>
<ellipse cx="43.5598" cy="920.64" rx="12.76" ry="12.32" fill="#B9E6DB"/>
<path d="M36.176 907.235C32.4485 912.805 30.7998 916.878 30.7998 919.76L56.3198 919.76C55.9452 915.414 53.5496 910.788 50.9131 906.902C47.3143 901.598 39.741 901.909 36.176 907.235Z" fill="#B9E6DB"/>
<circle cx="44" cy="918" r="21" stroke="#B9E6DB" stroke-width="2"/>
<rect x="0.260742" y="975" width="524" height="63" rx="31.5" transform="rotate(0.237178 0.260742 975)" fill="#E8F6F3"/>
<path d="M160.261 1018.05C158.901 1018.05 157.773 1017.75 156.875 1017.17C155.998 1016.59 155.292 1015.51 154.758 1013.95C154.245 1012.39 153.994 1010.3 154.004 1007.68C154.015 1005.06 154.304 1002.96 154.87 1001.38C155.437 999.803 156.171 998.716 157.074 998.119C157.996 997.523 159.138 997.228 160.498 997.234C162.578 997.242 164.144 998.019 165.198 999.563C166.272 1001.11 166.801 1003.8 166.785 1007.64C166.769 1011.46 166.198 1014.16 165.071 1015.73C163.965 1017.29 162.361 1018.06 160.261 1018.05ZM163.12 1001.53C162.545 1000.37 161.647 999.788 160.427 999.783C159.207 999.778 158.305 1000.35 157.72 1001.51C157.135 1002.67 156.837 1004.72 156.824 1007.66C156.812 1010.58 157.084 1012.62 157.639 1013.78C158.214 1014.92 159.122 1015.5 160.362 1015.5C161.602 1015.51 162.504 1014.94 163.069 1013.8C163.654 1012.65 163.952 1010.61 163.964 1007.69C163.977 1004.75 163.695 1002.7 163.12 1001.53ZM176.301 1015.57C177.481 1015.57 178.372 1015.18 178.976 1014.38C179.599 1013.56 179.913 1012.51 179.919 1011.23C179.924 1009.95 179.668 1008.93 179.151 1008.17C178.655 1007.39 177.826 1007 176.666 1006.99C175.526 1006.99 174.524 1007.45 173.66 1008.39L171.924 1007.48L171.965 997.671L181.865 997.712L181.855 1000.14L174.475 1000.11L174.453 1005.3C175.255 1004.78 176.316 1004.53 177.636 1004.53C178.976 1004.54 180.154 1005.12 181.169 1006.29C182.185 1007.43 182.688 1009.03 182.679 1011.07C182.671 1013.11 182.144 1014.79 181.099 1016.13C180.053 1017.46 178.52 1018.13 176.5 1018.12C174.48 1018.11 172.612 1017.57 170.897 1016.51L171.806 1014.32C172.405 1014.64 173.153 1014.94 174.052 1015.2C174.951 1015.44 175.701 1015.57 176.301 1015.57ZM195.644 1014.84C196.005 1014.48 196.436 1014.3 196.936 1014.3C197.436 1014.31 197.865 1014.49 198.224 1014.85C198.582 1015.19 198.761 1015.62 198.759 1016.14C198.756 1016.64 198.575 1017.08 198.213 1017.46C197.852 1017.82 197.421 1018 196.921 1017.99C196.421 1017.99 195.992 1017.81 195.633 1017.45C195.275 1017.07 195.096 1016.63 195.099 1016.13C195.101 1015.61 195.282 1015.18 195.644 1014.84ZM195.711 1005.84C196.073 1005.48 196.503 1005.3 197.003 1005.3C197.503 1005.31 197.933 1005.49 198.291 1005.85C198.65 1006.19 198.828 1006.62 198.826 1007.14C198.824 1007.64 198.642 1008.08 198.28 1008.46C197.919 1008.82 197.488 1009 196.988 1008.99C196.488 1008.99 196.059 1008.81 195.7 1008.45C195.342 1008.07 195.164 1007.63 195.166 1007.13C195.168 1006.61 195.35 1006.18 195.711 1005.84ZM216.49 1015.74C217.67 1015.74 218.562 1015.34 219.165 1014.55C219.788 1013.73 220.103 1012.68 220.108 1011.4C220.113 1010.12 219.857 1009.1 219.341 1008.34C218.844 1007.56 218.015 1007.16 216.855 1007.16C215.715 1007.15 214.713 1007.62 213.85 1008.55L212.113 1007.65L212.154 997.837L222.054 997.878L222.044 1000.31L214.664 1000.28L214.642 1005.47C215.445 1004.95 216.506 1004.7 217.826 1004.7C219.166 1004.71 220.343 1005.29 221.358 1006.46C222.374 1007.6 222.877 1009.19 222.869 1011.23C222.86 1013.27 222.333 1014.96 221.288 1016.3C220.242 1017.63 218.709 1018.29 216.689 1018.29C214.669 1018.28 212.802 1017.74 211.086 1016.67L211.995 1014.49C212.594 1014.81 213.342 1015.1 214.241 1015.37C215.14 1015.61 215.89 1015.73 216.49 1015.74ZM239.413 1012.8C239.407 1014.26 238.872 1015.56 237.807 1016.69C236.763 1017.81 235.23 1018.36 233.21 1018.35C231.21 1018.35 229.662 1017.83 228.567 1016.81C227.491 1015.78 226.957 1014.39 226.964 1012.63C226.969 1011.51 227.283 1010.48 227.907 1009.54C228.551 1008.59 229.394 1007.83 230.436 1007.27C228.761 1006.17 227.927 1004.59 227.936 1002.55C227.942 1000.95 228.457 999.725 229.481 998.869C230.505 997.993 231.806 997.559 233.386 997.565C234.986 997.572 236.265 997.997 237.221 998.841C238.198 999.665 238.683 1000.81 238.677 1002.27C238.673 1003.31 238.409 1004.27 237.885 1005.14C237.361 1006.02 236.618 1006.73 235.656 1007.26C236.894 1007.83 237.831 1008.53 238.468 1009.38C239.104 1010.2 239.419 1011.34 239.413 1012.8ZM229.754 1012.64C229.75 1013.64 230.067 1014.42 230.704 1014.98C231.342 1015.53 232.181 1015.8 233.221 1015.8C234.281 1015.81 235.122 1015.51 235.745 1014.92C236.367 1014.3 236.68 1013.5 236.684 1012.52C236.689 1011.38 236.263 1010.5 235.405 1009.87C234.668 1009.35 233.999 1008.98 233.4 1008.76C232.701 1008.47 232.342 1008.32 232.322 1008.3C230.618 1009.29 229.762 1010.74 229.754 1012.64ZM236.097 1002.32C236.1 1001.6 235.852 1001.05 235.354 1000.66C234.855 1000.26 234.206 1000.06 233.406 1000.06C232.626 1000.05 231.945 1000.24 231.364 1000.62C230.802 1000.97 230.52 1001.57 230.516 1002.41C230.513 1003.23 230.79 1004.01 231.347 1004.76C231.904 1005.48 232.611 1006.03 233.47 1006.42C234.272 1005.98 234.904 1005.37 235.367 1004.59C235.851 1003.8 236.094 1003.04 236.097 1002.32Z" fill="#767753"/>
<path d="M106.166 999.903L106.174 998.127L84.9819 998.039L84.9746 999.815L94.1425 999.853L94.0666 1018.19L95.9626 1018.2L96.0148 1005.57C98.7448 1007.05 101.953 1009.03 103.579 1010.38L104.834 1008.78C102.944 1007.33 99.1846 1005.15 96.3343 1003.77L96.0208 1004.13L96.0385 999.861L106.166 999.903ZM131.383 1007.42L121.64 1007.38L121.664 1001.38L129.56 1001.42L129.568 999.663L115.696 999.606C116.107 998.696 116.471 997.737 116.788 996.755L114.917 996.339C113.944 999.575 112.227 1002.76 110.154 1004.74C110.609 1005.01 111.423 1005.54 111.782 1005.83C112.891 1004.63 113.929 1003.1 114.848 1001.35L119.864 1001.38L119.84 1007.38L110.096 1007.33L110.088 1009.09L119.832 1009.13L119.794 1018.34L121.594 1018.35L121.632 1009.13L131.376 1009.18L131.383 1007.42Z" fill="#767753"/>
<path d="M403.052 1012.97L399.662 1012.95L399.638 1018.65L396.968 1018.64L396.992 1012.94L388.352 1012.91L388.359 1011.17L396.66 998.841L399.72 998.854L399.67 1010.97L403.06 1010.99L403.052 1012.97ZM397 1010.96L397.034 1002.74L391.48 1010.94L397 1010.96ZM413.196 1019.1C411.836 1019.09 410.708 1018.8 409.81 1018.22C408.932 1017.63 408.227 1016.56 407.693 1015C407.18 1013.43 406.928 1011.34 406.939 1008.72C406.95 1006.1 407.239 1004 407.805 1002.43C408.372 1000.85 409.106 999.763 410.009 999.166C410.931 998.57 412.073 998.275 413.433 998.281C415.513 998.289 417.079 999.066 418.133 1000.61C419.207 1002.15 419.735 1004.85 419.72 1008.69C419.704 1012.51 419.133 1015.2 418.006 1016.78C416.9 1018.34 415.296 1019.11 413.196 1019.1ZM416.055 1002.58C415.48 1001.42 414.582 1000.84 413.362 1000.83C412.142 1000.83 411.24 1001.4 410.655 1002.56C410.07 1003.72 409.772 1005.77 409.759 1008.71C409.747 1011.63 410.019 1013.67 410.574 1014.83C411.149 1015.97 412.057 1016.54 413.297 1016.55C414.537 1016.56 415.439 1015.99 416.004 1014.85C416.589 1013.69 416.887 1011.65 416.899 1008.73C416.911 1005.79 416.63 1003.74 416.055 1002.58ZM430.575 1019.17C429.215 1019.17 428.086 1018.87 427.189 1018.29C426.311 1017.7 425.606 1016.63 425.072 1015.07C424.559 1013.51 424.307 1011.42 424.318 1008.8C424.329 1006.18 424.618 1004.08 425.184 1002.5C425.751 1000.92 426.485 999.835 427.388 999.238C428.31 998.642 429.451 998.347 430.811 998.352C432.891 998.361 434.458 999.138 435.512 1000.68C436.585 1002.23 437.114 1004.92 437.098 1008.76C437.082 1012.58 436.511 1015.28 435.385 1016.85C434.278 1018.41 432.675 1019.18 430.575 1019.17ZM433.434 1002.65C432.858 1001.49 431.961 1000.91 430.741 1000.9C429.521 1000.9 428.618 1001.47 428.034 1002.63C427.449 1003.79 427.15 1005.84 427.138 1008.78C427.126 1011.7 427.398 1013.74 427.953 1014.9C428.528 1016.04 429.436 1016.62 430.676 1016.62C431.916 1016.63 432.818 1016.06 433.383 1014.92C433.968 1013.77 434.266 1011.73 434.278 1008.81C434.29 1005.87 434.009 1003.82 433.434 1002.65ZM453.608 1008.59L453.565 1018.88L450.865 1018.87L450.908 1008.61C450.912 1007.69 450.795 1006.97 450.557 1006.44C450.319 1005.92 449.83 1005.66 449.09 1005.66C448.37 1005.66 447.609 1005.84 446.808 1006.22C446.006 1006.6 445.364 1007.07 444.882 1007.65L444.836 1018.84L442.136 1018.83L442.198 1003.65L444.448 1003.66L444.741 1005.49C445.303 1004.95 446.035 1004.47 446.937 1004.03C447.859 1003.59 448.75 1003.38 449.61 1003.38C451.43 1003.39 452.616 1004.13 453.17 1005.62C453.773 1005.06 454.555 1004.55 455.517 1004.09C456.479 1003.64 457.379 1003.41 458.219 1003.42C460.899 1003.43 462.232 1005.12 462.218 1008.5L462.175 1018.91L459.475 1018.9L459.518 1008.64C459.522 1007.7 459.405 1006.98 459.167 1006.48C458.929 1005.96 458.46 1005.7 457.76 1005.69C457.06 1005.69 456.319 1005.88 455.538 1006.25C454.756 1006.63 454.094 1007.07 453.552 1007.57C453.591 1007.81 453.61 1008.15 453.608 1008.59ZM467.776 997.935L470.506 997.947L470.431 1015.89C470.428 1016.67 470.787 1017.06 471.507 1017.06C472.067 1017.06 472.657 1016.97 473.278 1016.77L473.72 1018.75C472.898 1019.15 471.887 1019.34 470.687 1019.34C468.687 1019.33 467.692 1018.19 467.701 1015.91L467.776 997.935Z" fill="#767753"/>
<ellipse cx="43.6877" cy="1011.74" rx="12.76" ry="12.32" fill="#B9E6DB"/>
<path d="M36.3039 998.332C32.5764 1003.9 30.9278 1007.97 30.9277 1010.86L56.4477 1010.86C56.0731 1006.51 53.6775 1001.89 51.041 997.999C47.4423 992.695 39.8689 993.005 36.3039 998.332Z" fill="#B9E6DB"/>
<circle cx="44.1279" cy="1009.1" r="21" stroke="#B9E6DB" stroke-width="2"/>
<rect y="1065.19" width="524" height="63" rx="31.5" fill="#E8F6F3"/>
<path d="M160.002 1107.58C158.642 1107.58 157.512 1107.29 156.612 1106.71C155.732 1106.13 155.022 1105.06 154.482 1103.5C153.962 1101.94 153.702 1099.85 153.702 1097.23C153.702 1094.61 153.982 1092.51 154.542 1090.93C155.102 1089.35 155.832 1088.26 156.732 1087.66C157.652 1087.06 158.792 1086.76 160.152 1086.76C162.232 1086.76 163.802 1087.53 164.862 1089.07C165.942 1090.61 166.482 1093.3 166.482 1097.14C166.482 1100.96 165.922 1103.66 164.802 1105.24C163.702 1106.8 162.102 1107.58 160.002 1107.58ZM162.792 1091.05C162.212 1089.89 161.312 1089.31 160.092 1089.31C158.872 1089.31 157.972 1089.89 157.392 1091.05C156.812 1092.21 156.522 1094.26 156.522 1097.2C156.522 1100.12 156.802 1102.16 157.362 1103.32C157.942 1104.46 158.852 1105.03 160.092 1105.03C161.332 1105.03 162.232 1104.46 162.792 1103.32C163.372 1102.16 163.662 1100.12 163.662 1097.2C163.662 1094.26 163.372 1092.21 162.792 1091.05ZM170.241 1089.58V1087.15H181.731V1088.74L178.341 1096.81C176.701 1100.45 175.651 1103.91 175.191 1107.19H172.251C172.651 1104.01 173.621 1100.69 175.161 1097.23L178.521 1089.58H170.241ZM193.964 1104.22C194.324 1103.86 194.754 1103.68 195.254 1103.68C195.754 1103.68 196.184 1103.86 196.544 1104.22C196.904 1104.56 197.084 1104.99 197.084 1105.51C197.084 1106.01 196.904 1106.45 196.544 1106.83C196.184 1107.19 195.754 1107.37 195.254 1107.37C194.754 1107.37 194.324 1107.19 193.964 1106.83C193.604 1106.45 193.424 1106.01 193.424 1105.51C193.424 1104.99 193.604 1104.56 193.964 1104.22ZM193.994 1095.22C194.354 1094.86 194.784 1094.68 195.284 1094.68C195.784 1094.68 196.214 1094.86 196.574 1095.22C196.934 1095.56 197.114 1095.99 197.114 1096.51C197.114 1097.01 196.934 1097.45 196.574 1097.83C196.214 1098.19 195.784 1098.37 195.284 1098.37C194.784 1098.37 194.354 1098.19 193.994 1097.83C193.634 1097.45 193.454 1097.01 193.454 1096.51C193.454 1095.99 193.634 1095.56 193.994 1095.22ZM223.754 1101.49H220.364V1107.19H217.694V1101.49H209.054V1099.75L217.304 1087.39H220.364V1099.51H223.754V1101.49ZM217.694 1099.51V1091.29L212.174 1099.51H217.694ZM233.563 1107.58C229.543 1107.58 227.533 1104.6 227.533 1098.64C227.533 1094.88 228.273 1091.96 229.753 1089.88C231.253 1087.8 233.183 1086.76 235.543 1086.76C236.683 1086.76 237.723 1086.97 238.663 1087.39L238.033 1089.61C237.273 1089.41 236.533 1089.31 235.813 1089.31C234.453 1089.31 233.333 1089.83 232.453 1090.87C231.593 1091.89 230.993 1093.34 230.653 1095.22C231.713 1094.24 233.013 1093.75 234.553 1093.75C236.113 1093.75 237.353 1094.29 238.273 1095.37C239.193 1096.45 239.653 1098.06 239.653 1100.2C239.653 1102.32 239.123 1104.08 238.063 1105.48C237.023 1106.88 235.523 1107.58 233.563 1107.58ZM234.313 1096.24C232.733 1096.24 231.403 1096.78 230.323 1097.86C230.323 1099.74 230.473 1101.23 230.773 1102.33C231.073 1103.41 231.443 1104.13 231.883 1104.49C232.343 1104.85 232.933 1105.03 233.653 1105.03C234.693 1105.03 235.493 1104.61 236.053 1103.77C236.613 1102.91 236.893 1101.75 236.893 1100.29C236.893 1097.59 236.033 1096.24 234.313 1096.24Z" fill="#767753"/>
<path d="M106.008 1089.66V1087.88H84.816V1089.66H93.984V1107.99H95.88V1095.37C98.616 1096.83 101.832 1098.8 103.464 1100.15L104.712 1098.54C102.816 1097.1 99.048 1094.94 96.192 1093.57L95.88 1093.93V1089.66H106.008ZM131.256 1097.07H121.512V1091.07H129.408V1089.32H115.536C115.944 1088.41 116.304 1087.45 116.616 1086.47L114.744 1086.06C113.784 1089.3 112.08 1092.49 110.016 1094.48C110.472 1094.75 111.288 1095.27 111.648 1095.56C112.752 1094.36 113.784 1092.83 114.696 1091.07H119.712V1097.07H109.968V1098.83H119.712V1108.04H121.512V1098.83H131.256V1097.07Z" fill="#767753"/>
<path d="M389.361 1107.19V1104.76C391.501 1102.46 393.351 1100.37 394.911 1098.49C396.471 1096.59 397.421 1095.33 397.761 1094.71C398.121 1094.09 398.301 1093.31 398.301 1092.37C398.301 1091.41 398.001 1090.66 397.401 1090.12C396.801 1089.58 395.921 1089.31 394.761 1089.31C393.601 1089.31 392.391 1089.56 391.131 1090.06L390.471 1087.9C392.111 1087.14 393.771 1086.76 395.451 1086.76C397.131 1086.76 398.461 1087.25 399.441 1088.23C400.441 1089.21 400.941 1090.57 400.941 1092.31C400.941 1094.05 400.091 1095.97 398.391 1098.07C395.971 1101.09 394.111 1103.32 392.811 1104.76H401.661L401.451 1107.19H389.361ZM412.089 1107.58C410.729 1107.58 409.599 1107.29 408.699 1106.71C407.819 1106.13 407.109 1105.06 406.569 1103.5C406.049 1101.94 405.789 1099.85 405.789 1097.23C405.789 1094.61 406.069 1092.51 406.629 1090.93C407.189 1089.35 407.919 1088.26 408.819 1087.66C409.739 1087.06 410.879 1086.76 412.239 1086.76C414.319 1086.76 415.889 1087.53 416.949 1089.07C418.029 1090.61 418.569 1093.3 418.569 1097.14C418.569 1100.96 418.009 1103.66 416.889 1105.24C415.789 1106.8 414.189 1107.58 412.089 1107.58ZM414.879 1091.05C414.299 1089.89 413.399 1089.31 412.179 1089.31C410.959 1089.31 410.059 1089.89 409.479 1091.05C408.899 1092.21 408.609 1094.26 408.609 1097.2C408.609 1100.12 408.889 1102.16 409.449 1103.32C410.029 1104.46 410.939 1105.03 412.179 1105.03C413.419 1105.03 414.319 1104.46 414.879 1103.32C415.459 1102.16 415.749 1100.12 415.749 1097.2C415.749 1094.26 415.459 1092.21 414.879 1091.05ZM429.468 1107.58C428.108 1107.58 426.978 1107.29 426.078 1106.71C425.198 1106.13 424.488 1105.06 423.948 1103.5C423.428 1101.94 423.168 1099.85 423.168 1097.23C423.168 1094.61 423.448 1092.51 424.008 1090.93C424.568 1089.35 425.298 1088.26 426.198 1087.66C427.118 1087.06 428.258 1086.76 429.618 1086.76C431.698 1086.76 433.268 1087.53 434.328 1089.07C435.408 1090.61 435.948 1093.3 435.948 1097.14C435.948 1100.96 435.388 1103.66 434.268 1105.24C433.168 1106.8 431.568 1107.58 429.468 1107.58ZM432.258 1091.05C431.678 1089.89 430.778 1089.31 429.558 1089.31C428.338 1089.31 427.438 1089.89 426.858 1091.05C426.278 1092.21 425.988 1094.26 425.988 1097.2C425.988 1100.12 426.268 1102.16 426.828 1103.32C427.408 1104.46 428.318 1105.03 429.558 1105.03C430.798 1105.03 431.698 1104.46 432.258 1103.32C432.838 1102.16 433.128 1100.12 433.128 1097.2C433.128 1094.26 432.838 1092.21 432.258 1091.05ZM452.457 1096.9V1107.19H449.757V1096.93C449.757 1096.01 449.637 1095.29 449.397 1094.77C449.157 1094.25 448.667 1093.99 447.927 1093.99C447.207 1093.99 446.447 1094.18 445.647 1094.56C444.847 1094.94 444.207 1095.42 443.727 1096V1107.19H441.027V1092.01H443.277L443.577 1093.84C444.137 1093.3 444.867 1092.81 445.767 1092.37C446.687 1091.93 447.577 1091.71 448.437 1091.71C450.257 1091.71 451.447 1092.45 452.007 1093.93C452.607 1093.37 453.387 1092.86 454.347 1092.4C455.307 1091.94 456.207 1091.71 457.047 1091.71C459.727 1091.71 461.067 1093.4 461.067 1096.78V1107.19H458.367V1096.93C458.367 1095.99 458.247 1095.27 458.007 1094.77C457.767 1094.25 457.297 1093.99 456.597 1093.99C455.897 1093.99 455.157 1094.18 454.377 1094.56C453.597 1094.94 452.937 1095.38 452.397 1095.88C452.437 1096.12 452.457 1096.46 452.457 1096.9ZM466.581 1086.19H469.311V1104.13C469.311 1104.91 469.671 1105.3 470.391 1105.3C470.951 1105.3 471.541 1105.2 472.161 1105L472.611 1106.98C471.791 1107.38 470.781 1107.58 469.581 1107.58C467.581 1107.58 466.581 1106.44 466.581 1104.16V1086.19Z" fill="#767753"/>
<ellipse cx="43.5598" cy="1100.83" rx="12.76" ry="12.32" fill="#B9E6DB"/>
<path d="M36.176 1087.43C32.4485 1093 30.7998 1097.07 30.7998 1099.95L56.3198 1099.95C55.9452 1095.61 53.5496 1090.98 50.9131 1087.1C47.3143 1081.79 39.741 1082.1 36.176 1087.43Z" fill="#B9E6DB"/>
<circle cx="44" cy="1098.19" r="21" stroke="#B9E6DB" stroke-width="2"/>
<rect x="43" y="763" width="2" height="45" rx="1" fill="#B9E6DB"/>
<rect x="43" y="851" width="2" height="45" rx="1" fill="#B9E6DB"/>
<rect x="43" y="939" width="2" height="50" rx="1" fill="#B9E6DB"/>
<rect x="43" y="1030" width="2" height="47" rx="1" fill="#B9E6DB"/>
<path fill-rule="evenodd" clip-rule="evenodd" d="M806.32 812.28C786.439 808.65 770.928 805.818 743.061 818.05C711.301 831.991 680.465 834.076 663.756 822.359L663.548 821.83L663.551 822.213C663.55 822.213 663.549 822.212 663.548 822.212C663.549 822.238 663.55 822.264 663.551 822.29L665.129 1095.72L665.387 1095.72C668.676 1113.65 703.1 1127.76 745.082 1127.76C789.239 1127.76 825.034 1112.15 825.034 1092.9C825.034 1091.87 824.931 1090.85 824.729 1089.84L819.763 828.91C820.206 824.023 820.285 819.201 820.285 814.645C815.298 813.92 810.703 813.081 806.32 812.28Z" fill="#BFEDE2" fill-opacity="0.5"/>
<path fill-rule="evenodd" clip-rule="evenodd" d="M765.965 823.217C804.056 830.901 813.064 822.19 820.082 811.659C820.338 816.122 820.429 821.987 819.884 828.539L826.435 1090.07C826.556 1090.84 826.618 1091.61 826.618 1092.39C826.618 1092.92 826.589 1093.45 826.533 1093.98L826.558 1094.97L826.394 1094.97C823.252 1113 787.339 1127.22 743.5 1127.22C697.595 1127.22 660.382 1111.63 660.382 1092.39C660.382 1091.43 660.476 1090.47 660.659 1089.53L663.706 826.615L664.291 826.728C664.08 825.482 663.838 824.307 663.548 823.217C666.18 814.545 678.471 806.328 708.815 809.826C727.589 811.99 734.506 814.284 742.465 816.923C748.175 818.817 754.421 820.888 765.965 823.217Z" fill="#B9E6DB"/>
<path d="M697.447 936.35H692.983V908.27L686.071 911.486L684.775 908.27L693.655 904.286H697.447V936.35ZM728.145 927.23H722.721V936.35H718.449V927.23H704.625V924.446L717.825 904.67H722.721V924.062H728.145V927.23ZM718.449 924.062V910.91L709.617 924.062H718.449ZM744.416 936.974C742.24 936.974 740.432 936.51 738.992 935.582C737.584 934.654 736.448 932.942 735.584 930.446C734.752 927.95 734.336 924.606 734.336 920.414C734.336 916.222 734.784 912.862 735.68 910.334C736.576 907.806 737.744 906.062 739.184 905.102C740.656 904.142 742.48 903.662 744.656 903.662C747.984 903.662 750.496 904.894 752.192 907.358C753.92 909.822 754.784 914.126 754.784 920.27C754.784 926.382 753.888 930.702 752.096 933.23C750.336 935.726 747.776 936.974 744.416 936.974ZM748.88 910.526C747.952 908.67 746.512 907.742 744.56 907.742C742.608 907.742 741.168 908.67 740.24 910.526C739.312 912.382 738.848 915.662 738.848 920.366C738.848 925.038 739.296 928.302 740.192 930.158C741.12 931.982 742.576 932.894 744.56 932.894C746.544 932.894 747.984 931.982 748.88 930.158C749.808 928.302 750.272 925.038 750.272 920.366C750.272 915.662 749.808 912.382 748.88 910.526ZM772.222 936.974C770.046 936.974 768.238 936.51 766.798 935.582C765.39 934.654 764.254 932.942 763.39 930.446C762.558 927.95 762.142 924.606 762.142 920.414C762.142 916.222 762.59 912.862 763.486 910.334C764.382 907.806 765.55 906.062 766.99 905.102C768.462 904.142 770.286 903.662 772.462 903.662C775.79 903.662 778.302 904.894 779.998 907.358C781.726 909.822 782.59 914.126 782.59 920.27C782.59 926.382 781.694 930.702 779.902 933.23C778.142 935.726 775.582 936.974 772.222 936.974ZM776.686 910.526C775.758 908.67 774.318 907.742 772.366 907.742C770.414 907.742 768.974 908.67 768.046 910.526C767.118 912.382 766.654 915.662 766.654 920.366C766.654 925.038 767.102 928.302 767.998 930.158C768.926 931.982 770.382 932.894 772.366 932.894C774.35 932.894 775.79 931.982 776.686 930.158C777.614 928.302 778.078 925.038 778.078 920.366C778.078 915.662 777.614 912.382 776.686 910.526Z" fill="white"/>
<path d="M795.068 927.534V933.708H793.448V927.552C793.448 927 793.376 926.568 793.232 926.256C793.088 925.944 792.794 925.788 792.35 925.788C791.918 925.788 791.462 925.902 790.982 926.13C790.502 926.358 790.118 926.646 789.83 926.994V933.708H788.21V924.6H789.56L789.74 925.698C790.076 925.374 790.514 925.08 791.054 924.816C791.606 924.552 792.14 924.42 792.656 924.42C793.748 924.42 794.462 924.864 794.798 925.752C795.158 925.416 795.626 925.11 796.202 924.834C796.778 924.558 797.318 924.42 797.822 924.42C799.43 924.42 800.234 925.434 800.234 927.462V933.708H798.614V927.552C798.614 926.988 798.542 926.556 798.398 926.256C798.254 925.944 797.972 925.788 797.552 925.788C797.132 925.788 796.688 925.902 796.22 926.13C795.752 926.358 795.356 926.622 795.032 926.922C795.056 927.066 795.068 927.27 795.068 927.534ZM803.542 921.108H805.18V931.872C805.18 932.34 805.396 932.574 805.828 932.574C806.164 932.574 806.518 932.514 806.89 932.394L807.16 933.582C806.668 933.822 806.062 933.942 805.342 933.942C804.142 933.942 803.542 933.258 803.542 931.89V921.108Z" fill="white"/>
<path d="M291.427 3L276 18.5L291.427 34L294 31.417L281.142 18.5L294 5.58303L291.427 3Z" fill="white"/>
<path d="M595.573 34L611 18.5L595.573 3L593 5.58303L605.858 18.5L593 31.417L595.573 34Z" fill="white"/>
</svg>
