<svg width="1368" height="953" viewBox="0 0 1368 953" fill="none" xmlns="http://www.w3.org/2000/svg">
<path d="M312.5 953C254.5 953 147.167 889.333 100.5 850L0 123.5C369.333 132.833 1112.2 151.5 1129 151.5C1145.8 151.5 1163.33 629.833 1170 869C1146.33 880.5 1139.6 920.9 1102 924.5C1055 929 987 902.5 903.5 889.5C820 876.5 822.5 953 692 953C602 953 601.5 904 528.5 908C455.5 912 385 953 312.5 953Z" fill="#E8F7F3"/>
<path d="M189.172 940C131.302 940 86.7371 916.102 54 888.22V0C455.117 16.6909 1259.25 50.414 1266.86 51.7797C1276.36 53.4867 1461.69 940 1305.93 940C1150.16 940 1133.79 888.22 1057.76 888.22C981.726 888.22 929.452 940 868.73 940C808.008 940 747.652 875.986 689.5 888.22C630 900.739 624.258 940 540.832 940C457.405 940 487 897.893 368.698 888.22C282.326 881.158 261.511 940 189.172 940Z" fill="#B9E6DB"/>
<path d="M464.82 153.416C462.948 151.016 459.444 147.416 456.516 144.872H453.06C451.188 148.664 447.828 153.368 443.028 156.872C443.7 157.4 444.708 158.504 445.188 159.272C449.892 155.624 453.108 151.304 455.22 147.8C457.812 150.2 460.74 153.656 462.276 155.72L464.82 153.416ZM450.756 170.168V166.28H459.732V170.168H450.756ZM459.732 159.944V163.688H450.756V159.944H459.732ZM477.348 156.728H483.492C482.82 159.8 481.908 163.112 480.996 165.272L483.78 166.328C485.268 163.208 486.612 158.264 487.572 153.992L485.22 153.32L484.644 153.464H471.3C472.068 150.872 472.692 148.136 473.172 145.352L469.668 144.824C468.516 152.168 466.356 159.128 462.9 163.64V157.304H456.948V152.888H453.732V157.304H447.54V182.504C446.292 182.888 445.14 183.176 444.084 183.464L445.332 186.776C449.412 185.48 454.548 183.752 459.588 182.072C459.972 183.08 460.308 183.992 460.5 184.808L463.572 183.464C462.804 180.968 460.884 176.936 459.06 173.96L456.18 175.016C456.948 176.312 457.716 177.848 458.436 179.336C455.796 180.152 453.156 180.92 450.756 181.592V172.808H462.9V164.168C463.764 164.648 465.06 165.464 465.684 165.944C467.508 163.448 468.996 160.28 470.292 156.728H473.892V163.016C473.892 166.952 472.404 179.48 462.228 185.816C462.852 186.488 463.86 187.976 464.34 188.696C472.356 183.56 475.092 174.296 475.62 170.408C476.1 174.296 478.644 183.752 486.036 188.696C486.564 187.88 487.668 186.392 488.292 185.672C478.884 179.48 477.348 166.76 477.348 163.016V156.728ZM529.668 156.92L529.14 157.064H515.124V160.616H527.604C525.3 170.168 520.212 177.32 513.972 181.208C514.788 181.784 516.228 183.176 516.804 184.04C523.812 179.288 529.62 170.408 532.02 157.832L529.668 156.92ZM553.668 152.6C550.836 156.344 546.132 161.144 542.292 164.504C540.612 161.096 539.268 157.448 538.26 153.656V144.968H534.564V183.608C534.564 184.568 534.228 184.856 533.268 184.904C532.308 184.904 529.236 184.952 525.78 184.808C526.356 185.864 527.076 187.64 527.22 188.696C531.636 188.696 534.42 188.6 536.004 187.976C537.588 187.304 538.26 186.152 538.26 183.608V163.016C542.052 172.856 547.812 180.92 556.116 185C556.692 183.944 557.94 182.504 558.804 181.784C552.468 179.048 547.476 173.816 543.78 167.336C547.908 164.12 553.092 159.08 556.884 154.904L553.668 152.6ZM587.652 172.088C586.932 176.264 585.876 180.536 584.1 183.464C584.916 183.752 586.452 184.472 587.028 184.904C588.756 181.88 590.1 177.224 590.868 172.664L587.652 172.088ZM598.884 172.856C600.42 175.784 602.004 179.672 602.628 182.216L605.604 181.064C604.98 178.568 603.348 174.728 601.716 171.8L598.884 172.856ZM597.588 161.192C598.452 162.392 599.364 163.784 600.18 165.224C597.108 165.368 594.084 165.512 591.348 165.608C594.996 161.576 599.124 156.152 602.244 151.736L599.124 150.2C597.54 152.84 595.38 156.056 593.076 159.128C592.26 158.12 591.108 156.968 589.86 155.864C591.924 153.176 594.324 149.432 596.244 146.264L592.98 144.872C591.732 147.608 589.668 151.304 587.748 154.04C587.268 153.656 586.836 153.32 586.404 152.984L584.676 155.384C586.98 157.208 589.62 159.656 591.156 161.672C590.004 163.16 588.804 164.552 587.7 165.8L584.388 165.896L584.772 169.112C587.268 169.016 590.292 168.872 593.556 168.68V188.648H596.916V168.488L601.764 168.152C602.34 169.304 602.82 170.36 603.156 171.272L606.036 169.784C605.076 167.096 602.58 163.016 600.276 159.944L597.588 161.192ZM613.572 185.096C610.932 185.096 610.452 184.712 610.452 182.84V165.704H622.644V168.488H626.196V147.464H605.556V150.824H622.644V162.344H606.9V182.84C606.9 187.304 608.388 188.408 613.284 188.408H622.884C627.492 188.408 628.596 186.392 629.028 179.096C628.068 178.808 626.58 178.28 625.716 177.656C625.476 183.896 625.092 185.096 622.692 185.096H613.572ZM682.836 176.744C679.524 178.856 676.116 180.92 673.572 182.408L673.428 180.392L666.372 181.832V167.912H673.236V164.792H666.372V159.704H671.7V156.632H659.124C661.764 153.752 663.732 150.68 665.172 148.088C667.764 150.488 670.644 153.848 672.084 156.008L674.484 153.32C672.756 150.92 669.204 147.368 666.324 144.872H663.108C661.524 148.664 658.452 153.512 654.132 157.16C654.756 157.592 655.812 158.696 656.34 159.416C657.012 158.792 657.684 158.168 658.308 157.544V159.704H663.252V164.792H655.764V167.912H663.252V182.408C660.276 183.032 657.54 183.512 655.332 183.896L656.052 187.208C660.708 186.152 666.756 184.904 672.612 183.608L674.1 185.768C676.98 183.944 680.532 181.64 683.844 179.432L682.836 176.744ZM656.868 171.08C657.78 173.96 658.5 177.656 658.596 180.152L661.236 179.48C661.092 177.032 660.324 173.336 659.316 170.456L656.868 171.08ZM670.452 179.288C671.172 177.08 672.084 173.672 672.852 170.744L670.068 170.024C669.684 172.568 668.772 176.36 668.1 178.664L670.452 179.288ZM674.436 169.4C676.26 171.368 678.228 174.056 679.092 175.832L681.684 174.056C680.82 172.328 678.756 169.736 676.932 167.912L674.436 169.4ZM680.34 155.912C680.676 154.424 681.012 152.792 681.348 151.208H691.428C691.284 152.6 691.044 154.232 690.804 155.912H680.34ZM687.684 165.8H698.82V162.776H693.156C693.924 158.216 694.692 152.696 695.124 148.52L692.628 148.232L692.1 148.424H681.924L682.548 145.16L679.14 144.824C678.276 149.72 676.932 156.392 675.828 160.376L679.188 160.712C679.332 160.088 679.524 159.416 679.716 158.696H690.42C690.228 160.088 689.988 161.48 689.796 162.776H673.428V165.8H684.324V185C684.324 185.528 684.132 185.672 683.556 185.672C683.028 185.672 681.348 185.72 679.476 185.624C679.908 186.488 680.388 187.784 680.484 188.648C683.316 188.648 685.092 188.648 686.196 188.12C687.396 187.592 687.684 186.68 687.684 185V175.4C689.844 180.2 692.916 183.944 697.236 186.056C697.716 185.192 698.724 183.896 699.396 183.32C693.252 180.728 689.46 174.584 687.684 167.144V165.8ZM693.204 175.592C694.74 173.96 696.708 171.608 698.34 169.304L695.46 167.816C694.404 169.784 692.388 172.568 690.9 174.248L693.204 175.592Z" fill="#60794D"/>
</svg>
