<svg width="1024" height="875" viewBox="0 0 1024 875" fill="none" xmlns="http://www.w3.org/2000/svg">
<path d="M253.5 875C195.5 875 88.1667 811.333 41.5 772L-59 45.5C310.333 54.8333 1053.2 73.5 1070 73.5C1086.8 73.5 1104.33 551.833 1111 791C1087.33 802.5 1080.6 842.9 1043 846.5C996 851 928 824.5 844.5 811.5C761 798.5 763.5 875 633 875C543 875 542.5 826 469.5 830C396.5 834 326 875 253.5 875Z" fill="#E8F7F3"/>
<path d="M130.172 862C72.3017 862 27.7371 838.102 -5 810.22V-78C396.117 -61.3091 1200.25 -27.586 1207.86 -26.2203C1217.36 -24.5133 1402.69 862 1246.93 862C1091.16 862 1074.79 810.22 998.76 810.22C922.726 810.22 870.452 862 809.73 862C749.008 862 688.652 797.986 630.5 810.22C571 822.739 565.258 862 481.832 862C398.405 862 428 819.893 309.698 810.22C223.326 803.158 202.511 862 130.172 862Z" fill="#B9E6DB"/>
</svg>
