<svg width="2056" height="2740" viewBox="0 0 2056 2740" fill="none" xmlns="http://www.w3.org/2000/svg">
<g filter="url(#filter0_dd_511_9580)">
<rect width="2048" height="2732" transform="translate(4)" fill="white"/>
<path d="M1082.11 1345.26C1185.17 1362.57 1252.82 1332.71 1271.81 1308.99C1275.37 1360.62 1216.62 1489 1024.36 1489C870.552 1489 798.876 1370.28 784.041 1323.77C791.161 1304.23 835.011 1282.3 917.109 1290.18C1004.34 1298.56 1007.35 1332.7 1082.11 1345.26Z" fill="#8EE8D2" fill-opacity="0.5"/>
<path d="M999.473 1336C1064.21 1280.66 1208.1 1289.43 1271.96 1300.74C1268.11 1363.12 1215.15 1487.36 1034.15 1485.19C853.156 1483.02 804.604 1364.03 802.952 1304.8C841.486 1338.26 934.736 1391.33 999.473 1336Z" fill="#BFEDE2" fill-opacity="0.5"/>
<path d="M1028 1489C973.876 1489 924.483 1476.6 881.714 1452.36C838.566 1427.93 805.449 1394.11 783.307 1351.64C761.165 1309.74 750 1264.65 750 1217.86C750 1129.54 776.305 1059.27 827.969 1008.91C879.632 958.555 947.193 933 1028.38 933C1081.56 933 1130.19 945.026 1172.96 968.513C1216.11 992.189 1249.42 1025.82 1272.13 1068.29C1294.65 1110.38 1306 1158.67 1306 1211.85C1306 1265.77 1294.08 1314.82 1270.42 1357.47C1246.58 1400.69 1212.32 1433.76 1168.61 1455.93C1125.27 1477.91 1077.96 1489 1028 1489ZM1028.38 959.306C954.195 959.306 893.069 982.23 846.515 1027.7C799.961 1072.99 776.494 1136.87 776.494 1217.86C776.494 1260.51 786.713 1301.47 806.773 1339.62C826.644 1377.39 856.355 1407.64 894.961 1429.62C933.756 1451.61 978.607 1462.88 1028.19 1462.88C1073.99 1462.88 1117.13 1452.74 1156.69 1432.63C1195.67 1412.9 1226.14 1383.4 1247.33 1344.88C1268.72 1305.98 1279.7 1261.26 1279.7 1211.85C1279.7 1162.99 1269.29 1118.83 1248.85 1080.69C1228.6 1042.73 1198.89 1012.86 1160.28 991.625C1121.3 970.204 1077.01 959.306 1028.38 959.306Z" fill="#A0CA77"/>
<path fill-rule="evenodd" clip-rule="evenodd" d="M1133.79 1221.24H1134.17L1065.47 1028.27C1060.36 1013.8 1040.87 1011.17 1031.97 1023.57L912.183 1190.24H912.562C893.637 1217.48 883.229 1251.68 891.556 1291.7C900.261 1333.79 929.972 1370.43 969.524 1385.09C978.345 1388.36 987.19 1390.6 995.957 1391.88C990.361 1370.57 991.903 1335.11 996.824 1295.83C982.555 1272.23 947.343 1213.35 952.492 1215.6C962.647 1219.84 978.18 1236.58 1001.05 1266.08C1014.47 1180.61 1038.79 1089.52 1038.79 1089.52L1028.3 1392.36C1084.31 1385.78 1131.36 1341.18 1139.84 1281.37C1142.87 1260.51 1140.22 1240.03 1133.79 1221.24Z" fill="#A0CA77"/>
<path d="M852.284 1627.91V1634.75H887.204V1627.91H852.284ZM851.204 1640.22V1647.28H888.356V1640.22H851.204ZM872.804 1630.07V1662.18H880.364V1630.07H872.804ZM858.764 1630.36V1644.11C858.764 1647.78 857.18 1654.77 851.06 1658.51C852.86 1659.66 855.452 1661.97 856.604 1663.48C864.164 1658.3 866.108 1648.79 866.108 1644.18V1630.36H858.764ZM843.716 1608.47V1614.09H861.86V1608.47H843.716ZM877.124 1608.47V1614.09H895.34V1608.47H877.124ZM891.956 1598.61V1653.33C891.956 1654.41 891.596 1654.84 890.444 1654.84C889.364 1654.84 885.764 1654.84 882.596 1654.7C883.748 1656.93 884.9 1660.96 885.116 1663.26C890.66 1663.34 894.404 1663.12 897.068 1661.68C899.66 1660.24 900.452 1657.79 900.452 1653.47V1598.61H891.956ZM844.508 1598.61V1604.8H859.196V1618.05H844.508V1624.24H867.332V1598.61H844.508ZM896.348 1598.61H872.012V1624.38H896.348V1618.19H880.22V1604.8H896.348V1598.61ZM839.396 1598.61V1663.48H847.892V1598.61H839.396ZM978.716 1652.9V1660.67H1001.68V1652.9H978.716ZM974.396 1633.31V1663.48H982.604V1641.09H997.724V1663.19H1006.29V1633.31H974.396ZM969.788 1619.63L970.652 1627.98C979.58 1627.34 991.964 1626.4 1003.56 1625.46L1003.63 1617.76C991.388 1618.55 978.356 1619.27 969.788 1619.63ZM992.468 1610.56C996.86 1616.9 1001.32 1625.25 1002.84 1630.65L1010.32 1626.69C1008.6 1621.22 1003.84 1613.15 999.308 1607.1L992.468 1610.56ZM982.316 1595.8C980.732 1604.01 977.492 1615.1 974.54 1622.22L981.812 1624.1C985.052 1617.33 988.94 1606.82 991.892 1597.6L982.316 1595.8ZM941.996 1610.2V1618.19H965.324V1610.2H941.996ZM951.716 1595.8C949.268 1610.13 945.092 1629.21 941.78 1640.51L948.836 1644.33C952.364 1631.37 956.828 1612 959.852 1596.74L951.716 1595.8ZM946.1 1639.43C953.66 1644.4 962.804 1651.96 966.836 1657.36L972.02 1650.45C967.844 1645.05 958.34 1638.06 950.78 1633.38L946.1 1639.43ZM962.156 1610.2V1611.78C960.788 1634.54 954.38 1650.45 942.14 1656.86C943.868 1658.51 946.172 1661.68 947.324 1663.77C961.652 1654.91 968.564 1639 970.22 1610.92L965.108 1609.98L963.596 1610.2H962.156ZM1076.13 1620.06V1628.63H1115.16V1620.06H1076.13ZM1091.32 1596.16V1663.48H1100.11V1596.16H1091.32ZM1050.36 1617.98V1624.46H1073.61V1617.98H1050.36ZM1050.79 1598.1V1604.66H1073.76V1598.1H1050.79ZM1050.36 1627.77V1634.32H1073.61V1627.77H1050.36ZM1046.83 1607.82V1614.66H1076.49V1607.82H1046.83ZM1054.32 1637.78V1644.62H1065.84V1652.82H1054.32V1659.66H1073.4V1637.78H1054.32ZM1050.14 1637.78V1662.54H1057.63V1637.78H1050.14ZM1153.68 1644.9V1651.74H1218.91V1644.9H1153.68ZM1170.74 1625.25H1202.78V1627.84H1170.74V1625.25ZM1170.74 1632.74H1202.78V1635.4H1170.74V1632.74ZM1170.74 1617.83H1202.78V1620.42H1170.74V1617.83ZM1162.03 1612.65V1640.58H1211.92V1612.65H1162.03ZM1194.72 1639.22V1663.34H1203.64V1639.22H1194.72ZM1162.46 1600.55V1607.39H1185.14V1600.55H1162.46ZM1191.04 1600.55V1607.39H1218.62V1600.55H1191.04ZM1162.75 1595.3C1160.44 1600.7 1156.2 1606.24 1151.66 1609.7C1153.6 1610.78 1156.99 1613.01 1158.64 1614.38C1163.04 1610.34 1167.86 1603.86 1170.81 1597.53L1162.75 1595.3ZM1192.05 1595.3C1190.04 1600.7 1186.22 1606.1 1181.68 1609.48C1183.77 1610.34 1187.52 1612.22 1189.32 1613.51C1193.42 1609.7 1197.81 1603.58 1200.26 1597.31L1192.05 1595.3ZM1165.34 1605.81C1167.07 1608.18 1168.87 1611.57 1169.66 1613.66L1177.15 1610.99C1176.28 1608.83 1174.27 1605.66 1172.47 1603.43L1165.34 1605.81ZM1197.02 1605.74C1199.32 1608.11 1201.92 1611.57 1203.07 1613.73L1210.34 1610.56C1209.04 1608.26 1206.24 1605.09 1203.93 1602.86L1197.02 1605.74ZM1170.81 1639.14V1645.91C1170.81 1649.66 1168.44 1654.48 1154.61 1657.14C1156.48 1658.8 1158.86 1661.68 1160.01 1663.48C1175.85 1659.45 1179.52 1652.82 1179.52 1646.06V1639.14H1170.81ZM678.296 1744.24V1753.67H744.968V1744.24H678.296ZM821.36 1746.33L812.864 1748.13C818.192 1766.7 827.048 1778.44 845.408 1783.55C846.776 1781.03 849.368 1777.14 851.384 1775.2C834.464 1771.38 825.464 1761.23 821.36 1746.33ZM787.16 1742.73V1751.66H847.136V1742.73H787.16ZM784.928 1720.62V1729.55H849.008V1720.62H784.928ZM811.712 1723V1740.71C811.712 1752.81 808.688 1768.36 782.984 1775.92C784.784 1777.65 787.376 1781.46 788.312 1783.62C817.256 1774.77 821 1756.12 821 1740.71V1723H811.712ZM895.664 1718.25V1724.8H949.088V1718.25H895.664ZM890.48 1750.65V1757.34H954.632V1750.65H890.48ZM900.92 1735.53V1740.64H915.68V1735.53H900.92ZM899.336 1742.94V1748.06H915.68V1742.94H899.336ZM929 1742.94V1748.13H945.488V1742.94H929ZM929 1735.53V1740.64H943.904V1735.53H929ZM918.128 1720.84V1748.7H926.408V1720.84H918.128ZM911.288 1765.7V1782.9H919.136V1765.7H911.288ZM926.768 1765.7V1782.9H934.616V1765.7H926.768ZM890.768 1727.39V1741.65H898.4V1733.22H946.352V1741.65H954.344V1727.39H890.768ZM895.808 1760.8V1783.26H903.944V1767.57H944.336V1760.8H895.808ZM942.464 1760.8V1775.49C942.464 1776.14 942.248 1776.35 941.456 1776.35C940.808 1776.42 938.432 1776.42 936.344 1776.35C937.28 1778.3 938.432 1781.18 938.792 1783.34C942.68 1783.34 945.632 1783.34 947.936 1782.11C950.24 1780.96 950.816 1779.09 950.816 1775.63V1760.8H942.464ZM918.272 1753.31C917.84 1756.62 916.76 1761.09 915.752 1764.33L923.312 1764.9C924.608 1762.02 926.336 1757.85 927.704 1753.38L918.272 1753.31ZM994.952 1754.9V1761.88H1061.05V1754.9H994.952ZM996.32 1718.39V1725.88H1059.32V1718.39H996.32ZM1018.93 1747.98C1014.75 1755.04 1008.42 1764.33 1003.95 1770.09L1012.3 1772.61C1016.7 1766.85 1022.82 1757.78 1027.42 1750.14L1018.93 1747.98ZM1039.81 1757.49C1034.05 1771.31 1020.51 1775.2 996.248 1776.21C997.616 1778.08 998.912 1781.1 999.488 1783.62C1026.2 1781.54 1041.03 1776.64 1048.16 1759.65L1039.81 1757.49ZM1008.92 1770.66C1026.13 1774.34 1042.98 1779.52 1053.42 1783.77L1058.6 1776.78C1047.8 1772.82 1029.87 1767.86 1013.31 1764.47L1008.92 1770.66ZM1015.26 1721.34V1745.97H1023.39V1721.34H1015.26ZM1031.6 1721.34V1745.97H1039.74V1721.34H1031.6ZM1007.7 1736.75H1048.38V1743.52H1007.7V1736.75ZM999.632 1729.98V1750.29H1057.02V1729.98H999.632ZM1107.78 1727.54V1735.1H1122.03V1768.43H1107.78V1776.06H1129.88V1727.54H1107.78ZM1102.74 1727.54V1781.39H1110.58V1727.54H1102.74ZM1107.42 1746.76V1754.25H1125.85V1746.76H1107.42ZM1112.96 1715.8C1112.6 1719.76 1111.59 1725.3 1110.58 1729.05L1117.5 1730.56C1118.94 1727.18 1120.74 1722.06 1122.39 1717.17L1112.96 1715.8ZM1139.38 1727.03V1734.88H1160.41V1727.03H1139.38ZM1157.46 1727.03V1728.69C1156.66 1758.71 1155.73 1771.1 1153.42 1773.54C1152.49 1774.55 1151.7 1774.84 1150.26 1774.84C1148.46 1774.84 1144.14 1774.77 1139.46 1774.41C1141.04 1776.71 1142.19 1780.38 1142.34 1782.76C1146.51 1782.98 1150.9 1783.05 1153.64 1782.62C1156.59 1782.18 1158.61 1781.39 1160.62 1778.58C1163.58 1774.77 1164.44 1763.32 1165.38 1730.92C1165.45 1729.84 1165.45 1727.03 1165.45 1727.03H1157.46ZM1139.6 1715.87C1137.3 1725.45 1133.19 1735.24 1128.37 1741.29C1130.38 1742.44 1133.91 1744.89 1135.5 1746.33C1140.39 1739.42 1145.07 1728.47 1147.88 1717.82L1139.6 1715.87ZM1136.07 1747.77C1139.53 1753.1 1144.06 1760.15 1146.01 1764.54L1153.35 1760.08C1151.12 1755.83 1146.37 1748.92 1142.84 1743.95L1136.07 1747.77ZM1206.63 1733.51V1742.22H1226.72V1733.51H1206.63ZM1234.64 1715.94V1772.25C1234.64 1773.62 1234.14 1774.05 1232.7 1774.12C1231.11 1774.12 1226.58 1774.12 1221.82 1773.9C1223.19 1776.5 1224.92 1780.89 1225.28 1783.55C1231.83 1783.55 1236.58 1783.19 1239.68 1781.68C1242.7 1780.1 1243.78 1777.5 1243.78 1772.32V1715.94H1234.64ZM1223.77 1733.51V1735.38C1221.32 1751.3 1214.26 1763.82 1204.4 1770.45C1206.49 1771.74 1210.02 1775.27 1211.53 1777.29C1221.82 1769.73 1229.74 1755.04 1233.06 1735.38L1227.08 1733.22L1225.57 1733.51H1223.77ZM1243.28 1726.46L1236.44 1727.9C1241.55 1750.14 1250.12 1768.86 1266.82 1778.3C1268.26 1775.63 1271.29 1772.03 1273.45 1770.23C1257.32 1762.53 1247.89 1745.54 1243.28 1726.46ZM1263.44 1727.1C1258.98 1733.51 1251.34 1741.36 1245.51 1746.18L1251.7 1751.08C1257.75 1746.54 1265.46 1739.27 1271.58 1732.79L1263.44 1727.1ZM1322.41 1742.3V1750.72H1361.36V1742.3H1322.41ZM1358.55 1742.3V1743.88C1357.9 1763.9 1357.11 1771.96 1355.38 1773.83C1354.59 1774.62 1353.8 1774.84 1352.5 1774.84C1350.7 1774.84 1346.96 1774.77 1342.93 1774.41C1344.51 1776.86 1345.66 1780.6 1345.81 1783.12C1350.06 1783.26 1354.23 1783.34 1356.75 1782.98C1359.49 1782.54 1361.5 1781.9 1363.3 1779.45C1365.82 1776.5 1366.69 1767.93 1367.48 1746.04C1367.55 1744.96 1367.62 1742.3 1367.62 1742.3H1358.55ZM1330.54 1716.81C1326.22 1727.75 1318.23 1737.83 1309.16 1743.81C1311.25 1745.46 1314.99 1748.92 1316.65 1750.79C1325.72 1743.66 1334.5 1732.07 1339.9 1719.54L1330.54 1716.81ZM1357.98 1716.66L1349.48 1720.05C1355.17 1731.06 1364.02 1742.73 1372.16 1750.22C1373.82 1747.77 1377.13 1744.24 1379.5 1742.37C1371.58 1736.32 1362.51 1725.81 1357.98 1716.66ZM1335.3 1744.74C1334.14 1757.56 1332.42 1769.73 1313.12 1776.06C1315.14 1777.94 1317.66 1781.61 1318.74 1783.98C1340.19 1775.99 1343.29 1760.94 1344.66 1744.74H1335.3Z" fill="#A0CA77"/>
</g>
<defs>
<filter id="filter0_dd_511_9580" x="0" y="0" width="2056" height="2740" filterUnits="userSpaceOnUse" color-interpolation-filters="sRGB">
<feFlood flood-opacity="0" result="BackgroundImageFix"/>
<feColorMatrix in="SourceAlpha" type="matrix" values="0 0 0 0 0 0 0 0 0 0 0 0 0 0 0 0 0 0 127 0" result="hardAlpha"/>
<feOffset dy="4"/>
<feGaussianBlur stdDeviation="2"/>
<feComposite in2="hardAlpha" operator="out"/>
<feColorMatrix type="matrix" values="0 0 0 0 0 0 0 0 0 0 0 0 0 0 0 0 0 0 0.25 0"/>
<feBlend mode="normal" in2="BackgroundImageFix" result="effect1_dropShadow_511_9580"/>
<feColorMatrix in="SourceAlpha" type="matrix" values="0 0 0 0 0 0 0 0 0 0 0 0 0 0 0 0 0 0 127 0" result="hardAlpha"/>
<feOffset dy="4"/>
<feGaussianBlur stdDeviation="2"/>
<feComposite in2="hardAlpha" operator="out"/>
<feColorMatrix type="matrix" values="0 0 0 0 0 0 0 0 0 0 0 0 0 0 0 0 0 0 0.25 0"/>
<feBlend mode="normal" in2="effect1_dropShadow_511_9580" result="effect2_dropShadow_511_9580"/>
<feBlend mode="normal" in="SourceGraphic" in2="effect2_dropShadow_511_9580" result="shape"/>
</filter>
</defs>
</svg>
