<svg width="2056" height="2740" viewBox="0 0 2056 2740" fill="none" xmlns="http://www.w3.org/2000/svg">
<g filter="url(#filter0_dd_511_9682)">
<rect width="2048" height="2732" transform="translate(4)" fill="white"/>
<path d="M852.284 1627.91V1634.75H887.204V1627.91H852.284ZM851.204 1640.22V1647.28H888.356V1640.22H851.204ZM872.804 1630.07V1662.18H880.364V1630.07H872.804ZM858.764 1630.36V1644.11C858.764 1647.78 857.18 1654.77 851.06 1658.51C852.86 1659.66 855.452 1661.97 856.604 1663.48C864.164 1658.3 866.108 1648.79 866.108 1644.18V1630.36H858.764ZM843.716 1608.47V1614.09H861.86V1608.47H843.716ZM877.124 1608.47V1614.09H895.34V1608.47H877.124ZM891.956 1598.61V1653.33C891.956 1654.41 891.596 1654.84 890.444 1654.84C889.364 1654.84 885.764 1654.84 882.596 1654.7C883.748 1656.93 884.9 1660.96 885.116 1663.26C890.66 1663.34 894.404 1663.12 897.068 1661.68C899.66 1660.24 900.452 1657.79 900.452 1653.47V1598.61H891.956ZM844.508 1598.61V1604.8H859.196V1618.05H844.508V1624.24H867.332V1598.61H844.508ZM896.348 1598.61H872.012V1624.38H896.348V1618.19H880.22V1604.8H896.348V1598.61ZM839.396 1598.61V1663.48H847.892V1598.61H839.396ZM978.716 1652.9V1660.67H1001.68V1652.9H978.716ZM974.396 1633.31V1663.48H982.604V1641.09H997.724V1663.19H1006.29V1633.31H974.396ZM969.788 1619.63L970.652 1627.98C979.58 1627.34 991.964 1626.4 1003.56 1625.46L1003.63 1617.76C991.388 1618.55 978.356 1619.27 969.788 1619.63ZM992.468 1610.56C996.86 1616.9 1001.32 1625.25 1002.84 1630.65L1010.32 1626.69C1008.6 1621.22 1003.84 1613.15 999.308 1607.1L992.468 1610.56ZM982.316 1595.8C980.732 1604.01 977.492 1615.1 974.54 1622.22L981.812 1624.1C985.052 1617.33 988.94 1606.82 991.892 1597.6L982.316 1595.8ZM941.996 1610.2V1618.19H965.324V1610.2H941.996ZM951.716 1595.8C949.268 1610.13 945.092 1629.21 941.78 1640.51L948.836 1644.33C952.364 1631.37 956.828 1612 959.852 1596.74L951.716 1595.8ZM946.1 1639.43C953.66 1644.4 962.804 1651.96 966.836 1657.36L972.02 1650.45C967.844 1645.05 958.34 1638.06 950.78 1633.38L946.1 1639.43ZM962.156 1610.2V1611.78C960.788 1634.54 954.38 1650.45 942.14 1656.86C943.868 1658.51 946.172 1661.68 947.324 1663.77C961.652 1654.91 968.564 1639 970.22 1610.92L965.108 1609.98L963.596 1610.2H962.156ZM1076.56 1620.5V1653.26C1076.56 1654.48 1075.99 1654.91 1074.4 1654.91C1072.75 1654.91 1066.84 1654.91 1061.73 1654.7C1063.1 1657.07 1064.76 1660.96 1065.26 1663.48C1072.17 1663.48 1077.36 1663.34 1080.88 1662.04C1084.48 1660.74 1085.71 1658.37 1085.71 1653.47V1620.5H1076.56ZM1051.94 1600.91V1609.41H1102.27V1600.91H1051.94ZM1099.03 1600.91V1603C1095.43 1608.47 1086.93 1617.11 1079.44 1621.86C1081.17 1623.23 1083.98 1626.11 1085.35 1627.98C1094.2 1622.44 1103.71 1613.3 1110.19 1605.38L1103.42 1600.34L1101.33 1600.91H1099.03ZM1160.44 1614.38V1620.71H1180.39V1614.38H1160.44ZM1160.44 1626.18V1632.3H1180.39V1626.18H1160.44ZM1160.44 1638.21V1644.62H1180.39V1638.21H1160.44ZM1191.62 1630.07V1637.34H1218.76V1630.07H1191.62ZM1163.97 1602.57V1609.05H1175.35V1602.57H1163.97ZM1186.22 1599.54V1606.6H1212.93V1599.54H1186.22ZM1186.22 1643.82V1651.31H1220.13V1643.82H1186.22ZM1199.68 1623.59V1663.26H1207.89V1623.59H1199.68ZM1168.22 1617.69V1640.58H1173.98V1617.69H1168.22ZM1210.63 1599.54V1600.55C1210.34 1610.99 1209.91 1614.88 1209.12 1615.82C1208.61 1616.46 1208.04 1616.61 1207.1 1616.61C1206.16 1616.61 1204.29 1616.54 1201.99 1616.32C1203.07 1618.19 1203.79 1621.07 1203.93 1623.23C1206.81 1623.38 1209.62 1623.3 1211.2 1623.09C1213.08 1622.8 1214.44 1622.22 1215.6 1620.71C1217.18 1618.84 1217.83 1613.87 1218.19 1602.28C1218.26 1601.34 1218.33 1599.54 1218.33 1599.54H1210.63ZM1190.18 1624.1C1189.17 1629.86 1187.23 1635.76 1184.42 1639.58C1186.15 1640.37 1189.32 1641.95 1190.76 1642.96C1193.56 1638.71 1195.94 1632.09 1197.24 1625.46L1190.18 1624.1ZM1162.24 1595.8C1160.3 1604.37 1156.48 1612.79 1151.59 1618.12C1153.32 1619.27 1156.41 1621.86 1157.71 1623.23C1162.89 1617.11 1167.36 1607.39 1169.95 1597.46L1162.24 1595.8ZM1157.28 1614.38V1633.46C1157.28 1641.59 1156.84 1652.32 1151.95 1659.81C1153.6 1660.53 1156.7 1662.47 1158 1663.62C1163.25 1655.49 1164.19 1642.67 1164.19 1633.46V1614.38H1157.28ZM1178.08 1614.38V1655.06C1178.08 1655.92 1177.72 1656.21 1176.86 1656.21C1176 1656.28 1173.12 1656.28 1170.31 1656.14C1171.32 1658.08 1172.47 1661.39 1172.76 1663.41C1177.15 1663.41 1180.1 1663.26 1182.33 1662.04C1184.49 1660.74 1185.14 1658.58 1185.14 1655.2V1614.38H1178.08ZM1194.86 1601.92C1194.14 1609.7 1192.63 1615.82 1183.99 1619.34C1185.72 1620.64 1187.66 1623.45 1188.52 1625.25C1199.25 1620.5 1201.7 1612.43 1202.56 1601.92H1194.86ZM1173.33 1602.57V1603.86C1172.47 1607.25 1170.67 1612.58 1169.08 1615.89C1170.6 1616.68 1172.97 1618.12 1174.34 1619.13C1176.57 1615.53 1179.38 1609.84 1180.96 1605.3L1176.07 1602.21L1174.99 1602.57H1173.33ZM678.296 1744.24V1753.67H744.968V1744.24H678.296ZM821.36 1746.33L812.864 1748.13C818.192 1766.7 827.048 1778.44 845.408 1783.55C846.776 1781.03 849.368 1777.14 851.384 1775.2C834.464 1771.38 825.464 1761.23 821.36 1746.33ZM787.16 1742.73V1751.66H847.136V1742.73H787.16ZM784.928 1720.62V1729.55H849.008V1720.62H784.928ZM811.712 1723V1740.71C811.712 1752.81 808.688 1768.36 782.984 1775.92C784.784 1777.65 787.376 1781.46 788.312 1783.62C817.256 1774.77 821 1756.12 821 1740.71V1723H811.712ZM895.664 1718.25V1724.8H949.088V1718.25H895.664ZM890.48 1750.65V1757.34H954.632V1750.65H890.48ZM900.92 1735.53V1740.64H915.68V1735.53H900.92ZM899.336 1742.94V1748.06H915.68V1742.94H899.336ZM929 1742.94V1748.13H945.488V1742.94H929ZM929 1735.53V1740.64H943.904V1735.53H929ZM918.128 1720.84V1748.7H926.408V1720.84H918.128ZM911.288 1765.7V1782.9H919.136V1765.7H911.288ZM926.768 1765.7V1782.9H934.616V1765.7H926.768ZM890.768 1727.39V1741.65H898.4V1733.22H946.352V1741.65H954.344V1727.39H890.768ZM895.808 1760.8V1783.26H903.944V1767.57H944.336V1760.8H895.808ZM942.464 1760.8V1775.49C942.464 1776.14 942.248 1776.35 941.456 1776.35C940.808 1776.42 938.432 1776.42 936.344 1776.35C937.28 1778.3 938.432 1781.18 938.792 1783.34C942.68 1783.34 945.632 1783.34 947.936 1782.11C950.24 1780.96 950.816 1779.09 950.816 1775.63V1760.8H942.464ZM918.272 1753.31C917.84 1756.62 916.76 1761.09 915.752 1764.33L923.312 1764.9C924.608 1762.02 926.336 1757.85 927.704 1753.38L918.272 1753.31ZM994.952 1754.9V1761.88H1061.05V1754.9H994.952ZM996.32 1718.39V1725.88H1059.32V1718.39H996.32ZM1018.93 1747.98C1014.75 1755.04 1008.42 1764.33 1003.95 1770.09L1012.3 1772.61C1016.7 1766.85 1022.82 1757.78 1027.42 1750.14L1018.93 1747.98ZM1039.81 1757.49C1034.05 1771.31 1020.51 1775.2 996.248 1776.21C997.616 1778.08 998.912 1781.1 999.488 1783.62C1026.2 1781.54 1041.03 1776.64 1048.16 1759.65L1039.81 1757.49ZM1008.92 1770.66C1026.13 1774.34 1042.98 1779.52 1053.42 1783.77L1058.6 1776.78C1047.8 1772.82 1029.87 1767.86 1013.31 1764.47L1008.92 1770.66ZM1015.26 1721.34V1745.97H1023.39V1721.34H1015.26ZM1031.6 1721.34V1745.97H1039.74V1721.34H1031.6ZM1007.7 1736.75H1048.38V1743.52H1007.7V1736.75ZM999.632 1729.98V1750.29H1057.02V1729.98H999.632ZM1107.78 1727.54V1735.1H1122.03V1768.43H1107.78V1776.06H1129.88V1727.54H1107.78ZM1102.74 1727.54V1781.39H1110.58V1727.54H1102.74ZM1107.42 1746.76V1754.25H1125.85V1746.76H1107.42ZM1112.96 1715.8C1112.6 1719.76 1111.59 1725.3 1110.58 1729.05L1117.5 1730.56C1118.94 1727.18 1120.74 1722.06 1122.39 1717.17L1112.96 1715.8ZM1139.38 1727.03V1734.88H1160.41V1727.03H1139.38ZM1157.46 1727.03V1728.69C1156.66 1758.71 1155.73 1771.1 1153.42 1773.54C1152.49 1774.55 1151.7 1774.84 1150.26 1774.84C1148.46 1774.84 1144.14 1774.77 1139.46 1774.41C1141.04 1776.71 1142.19 1780.38 1142.34 1782.76C1146.51 1782.98 1150.9 1783.05 1153.64 1782.62C1156.59 1782.18 1158.61 1781.39 1160.62 1778.58C1163.58 1774.77 1164.44 1763.32 1165.38 1730.92C1165.45 1729.84 1165.45 1727.03 1165.45 1727.03H1157.46ZM1139.6 1715.87C1137.3 1725.45 1133.19 1735.24 1128.37 1741.29C1130.38 1742.44 1133.91 1744.89 1135.5 1746.33C1140.39 1739.42 1145.07 1728.47 1147.88 1717.82L1139.6 1715.87ZM1136.07 1747.77C1139.53 1753.1 1144.06 1760.15 1146.01 1764.54L1153.35 1760.08C1151.12 1755.83 1146.37 1748.92 1142.84 1743.95L1136.07 1747.77ZM1206.63 1733.51V1742.22H1226.72V1733.51H1206.63ZM1234.64 1715.94V1772.25C1234.64 1773.62 1234.14 1774.05 1232.7 1774.12C1231.11 1774.12 1226.58 1774.12 1221.82 1773.9C1223.19 1776.5 1224.92 1780.89 1225.28 1783.55C1231.83 1783.55 1236.58 1783.19 1239.68 1781.68C1242.7 1780.1 1243.78 1777.5 1243.78 1772.32V1715.94H1234.64ZM1223.77 1733.51V1735.38C1221.32 1751.3 1214.26 1763.82 1204.4 1770.45C1206.49 1771.74 1210.02 1775.27 1211.53 1777.29C1221.82 1769.73 1229.74 1755.04 1233.06 1735.38L1227.08 1733.22L1225.57 1733.51H1223.77ZM1243.28 1726.46L1236.44 1727.9C1241.55 1750.14 1250.12 1768.86 1266.82 1778.3C1268.26 1775.63 1271.29 1772.03 1273.45 1770.23C1257.32 1762.53 1247.89 1745.54 1243.28 1726.46ZM1263.44 1727.1C1258.98 1733.51 1251.34 1741.36 1245.51 1746.18L1251.7 1751.08C1257.75 1746.54 1265.46 1739.27 1271.58 1732.79L1263.44 1727.1ZM1322.41 1742.3V1750.72H1361.36V1742.3H1322.41ZM1358.55 1742.3V1743.88C1357.9 1763.9 1357.11 1771.96 1355.38 1773.83C1354.59 1774.62 1353.8 1774.84 1352.5 1774.84C1350.7 1774.84 1346.96 1774.77 1342.93 1774.41C1344.51 1776.86 1345.66 1780.6 1345.81 1783.12C1350.06 1783.26 1354.23 1783.34 1356.75 1782.98C1359.49 1782.54 1361.5 1781.9 1363.3 1779.45C1365.82 1776.5 1366.69 1767.93 1367.48 1746.04C1367.55 1744.96 1367.62 1742.3 1367.62 1742.3H1358.55ZM1330.54 1716.81C1326.22 1727.75 1318.23 1737.83 1309.16 1743.81C1311.25 1745.46 1314.99 1748.92 1316.65 1750.79C1325.72 1743.66 1334.5 1732.07 1339.9 1719.54L1330.54 1716.81ZM1357.98 1716.66L1349.48 1720.05C1355.17 1731.06 1364.02 1742.73 1372.16 1750.22C1373.82 1747.77 1377.13 1744.24 1379.5 1742.37C1371.58 1736.32 1362.51 1725.81 1357.98 1716.66ZM1335.3 1744.74C1334.14 1757.56 1332.42 1769.73 1313.12 1776.06C1315.14 1777.94 1317.66 1781.61 1318.74 1783.98C1340.19 1775.99 1343.29 1760.94 1344.66 1744.74H1335.3Z" fill="#A0CA77"/>
<g clip-path="url(#clip0_511_9682)">
<path d="M1083.11 1345.26C1186.17 1362.57 1253.82 1332.71 1272.81 1308.99C1276.37 1360.62 1217.62 1489 1025.36 1489C871.552 1489 799.876 1370.28 785.041 1323.77C792.161 1304.23 836.011 1282.3 918.109 1290.18C1005.34 1298.56 1008.35 1332.7 1083.11 1345.26Z" fill="#8EE8D2" fill-opacity="0.5"/>
<path d="M1000.47 1336C1065.21 1280.66 1209.1 1289.43 1272.96 1300.74C1269.11 1363.12 1216.15 1487.36 1035.15 1485.19C854.156 1483.02 805.604 1364.03 803.952 1304.8C842.486 1338.26 935.736 1391.33 1000.47 1336Z" fill="#BFEDE2" fill-opacity="0.5"/>
<path d="M1029 1489C974.876 1489 925.483 1476.6 882.714 1452.36C839.566 1427.93 806.449 1394.11 784.307 1351.64C762.165 1309.74 751 1264.65 751 1217.86C751 1129.54 777.305 1059.27 828.969 1008.91C880.632 958.555 948.193 933 1029.38 933C1082.56 933 1131.19 945.026 1173.96 968.513C1217.11 992.189 1250.42 1025.82 1273.13 1068.29C1295.65 1110.38 1307 1158.67 1307 1211.85C1307 1265.77 1295.08 1314.82 1271.42 1357.47C1247.58 1400.69 1213.32 1433.76 1169.61 1455.93C1126.27 1477.91 1078.96 1489 1029 1489ZM1029.38 959.306C955.195 959.306 894.069 982.23 847.515 1027.7C800.961 1072.99 777.494 1136.87 777.494 1217.86C777.494 1260.51 787.713 1301.47 807.773 1339.62C827.644 1377.39 857.355 1407.64 895.961 1429.62C934.756 1451.61 979.607 1462.88 1029.19 1462.88C1074.99 1462.88 1118.13 1452.74 1157.69 1432.63C1196.67 1412.9 1227.14 1383.4 1248.33 1344.88C1269.72 1305.98 1280.7 1261.26 1280.7 1211.85C1280.7 1162.99 1270.29 1118.83 1249.85 1080.69C1229.6 1042.73 1199.89 1012.86 1161.28 991.625C1122.3 970.204 1078.01 959.306 1029.38 959.306Z" fill="#A0CA77"/>
<path fill-rule="evenodd" clip-rule="evenodd" d="M1134.79 1221.24H1135.17L1066.47 1028.27C1061.36 1013.8 1041.87 1011.17 1032.97 1023.57L913.183 1190.24H913.562C894.637 1217.48 884.229 1251.68 892.556 1291.7C901.261 1333.79 930.972 1370.43 970.524 1385.09C979.345 1388.36 988.19 1390.6 996.957 1391.88C991.361 1370.57 992.903 1335.11 997.824 1295.83C983.555 1272.23 948.343 1213.35 953.492 1215.6C963.647 1219.84 979.18 1236.58 1002.05 1266.08C1015.47 1180.61 1039.79 1089.52 1039.79 1089.52L1029.3 1392.36C1085.31 1385.78 1132.36 1341.18 1140.84 1281.37C1143.87 1260.51 1141.22 1240.03 1134.79 1221.24Z" fill="#A0CA77"/>
<path d="M1087.1 1281.6C1194.16 1306.09 1264.43 1263.84 1284.15 1230.27C1287.85 1303.33 1226.82 1485 1027.11 1485C867.341 1485 792.887 1317 777.477 1251.18C784.873 1223.53 830.423 1192.5 915.703 1203.66C1006.31 1215.5 1009.44 1263.82 1087.1 1281.6Z" fill="#8EE8D2" fill-opacity="0.5"/>
<path d="M1016.26 1285.69C1088.77 1209.16 1220.35 1219.41 1291.87 1235.04C1287.56 1321.33 1239.34 1480.39 1036.61 1477.39C833.874 1474.39 786.891 1345.08 785.041 1263.18C828.202 1309.45 943.749 1362.22 1016.26 1285.69Z" fill="#BFEDE2" fill-opacity="0.5"/>
<path d="M1029 1485C974.876 1485 925.483 1472.6 882.714 1448.36C839.566 1423.93 806.449 1390.11 784.307 1347.64C762.165 1305.74 751 1260.65 751 1213.86C751 1125.54 777.305 1055.27 828.969 1004.91C880.632 954.555 948.193 929 1029.38 929C1082.56 929 1131.19 941.026 1173.96 964.513C1217.11 988.189 1250.42 1021.82 1273.13 1064.29C1295.65 1106.38 1307 1154.67 1307 1207.85C1307 1261.77 1295.08 1310.82 1271.42 1353.47C1247.58 1396.69 1213.32 1429.76 1169.61 1451.93C1126.27 1473.91 1078.96 1485 1029 1485ZM1029.38 955.306C955.195 955.306 894.069 978.23 847.515 1023.7C800.961 1068.99 777.494 1132.87 777.494 1213.86C777.494 1256.51 787.713 1297.47 807.773 1335.62C827.644 1373.39 857.355 1403.64 895.961 1425.62C934.756 1447.61 979.607 1458.88 1029.19 1458.88C1074.99 1458.88 1118.13 1448.74 1157.69 1428.63C1196.67 1408.9 1227.14 1379.4 1248.33 1340.88C1269.72 1301.98 1280.7 1257.26 1280.7 1207.85C1280.7 1158.99 1270.29 1114.83 1249.85 1076.69C1229.6 1038.73 1199.89 1008.86 1161.28 987.625C1122.3 966.204 1078.01 955.306 1029.38 955.306Z" fill="#A0CA77"/>
<path fill-rule="evenodd" clip-rule="evenodd" d="M1134.79 1217.24H1135.17L1066.47 1024.27C1061.36 1009.8 1041.87 1007.17 1032.97 1019.57L913.183 1186.24H913.562C894.637 1213.48 884.229 1247.68 892.556 1287.7C901.261 1329.79 930.972 1366.43 970.524 1381.09C979.345 1384.36 988.19 1386.6 996.957 1387.88C991.362 1366.57 992.903 1331.11 997.824 1291.83C983.555 1268.23 948.343 1209.35 953.492 1211.6C963.647 1215.84 979.18 1232.58 1002.05 1262.08C1015.47 1176.61 1039.79 1085.52 1039.79 1085.52L1029.3 1388.36C1085.31 1381.78 1132.36 1337.18 1140.84 1277.37C1143.87 1256.51 1141.22 1236.03 1134.79 1217.24Z" fill="#A0CA77"/>
<path d="M1083.11 1341.26C1186.17 1358.57 1253.82 1328.71 1272.81 1304.99C1276.37 1356.62 1217.62 1485 1025.36 1485C871.552 1485 799.876 1366.28 785.041 1319.77C792.161 1300.23 836.011 1278.3 918.109 1286.18C1005.34 1294.56 1008.35 1328.7 1083.11 1341.26Z" fill="#8EE8D2" fill-opacity="0.5"/>
<path d="M1000.47 1332C1065.21 1276.66 1209.1 1285.43 1272.96 1296.74C1269.11 1359.12 1216.15 1483.36 1035.15 1481.19C854.156 1479.02 805.604 1360.03 803.952 1300.8C842.486 1334.26 935.736 1387.33 1000.47 1332Z" fill="#BFEDE2" fill-opacity="0.5"/>
<path d="M1029 1485C974.876 1485 925.483 1472.6 882.714 1448.36C839.566 1423.93 806.449 1390.11 784.307 1347.64C762.165 1305.74 751 1260.65 751 1213.86C751 1125.54 777.305 1055.27 828.969 1004.91C880.632 954.555 948.193 929 1029.38 929C1082.56 929 1131.19 941.026 1173.96 964.513C1217.11 988.189 1250.42 1021.82 1273.13 1064.29C1295.65 1106.38 1307 1154.67 1307 1207.85C1307 1261.77 1295.08 1310.82 1271.42 1353.47C1247.58 1396.69 1213.32 1429.76 1169.61 1451.93C1126.27 1473.91 1078.96 1485 1029 1485ZM1029.38 955.306C955.195 955.306 894.069 978.23 847.515 1023.7C800.961 1068.99 777.494 1132.87 777.494 1213.86C777.494 1256.51 787.713 1297.47 807.773 1335.62C827.644 1373.39 857.355 1403.64 895.961 1425.62C934.756 1447.61 979.607 1458.88 1029.19 1458.88C1074.99 1458.88 1118.13 1448.74 1157.69 1428.63C1196.67 1408.9 1227.14 1379.4 1248.33 1340.88C1269.72 1301.98 1280.7 1257.26 1280.7 1207.85C1280.7 1158.99 1270.29 1114.83 1249.85 1076.69C1229.6 1038.73 1199.89 1008.86 1161.28 987.625C1122.3 966.204 1078.01 955.306 1029.38 955.306Z" fill="#A0CA77"/>
<path fill-rule="evenodd" clip-rule="evenodd" d="M1134.79 1217.24H1135.17L1066.47 1024.27C1061.36 1009.8 1041.87 1007.17 1032.97 1019.57L913.183 1186.24H913.562C894.637 1213.48 884.229 1247.68 892.556 1287.7C901.261 1329.79 930.972 1366.43 970.524 1381.09C979.345 1384.36 988.19 1386.6 996.957 1387.88C991.361 1366.57 992.903 1331.11 997.824 1291.83C983.555 1268.23 948.343 1209.35 953.492 1211.6C963.647 1215.84 979.18 1232.58 1002.05 1262.08C1015.47 1176.61 1039.79 1085.52 1039.79 1085.52L1029.3 1388.36C1085.31 1381.78 1132.36 1337.18 1140.84 1277.37C1143.87 1256.51 1141.22 1236.03 1134.79 1217.24Z" fill="#A0CA77"/>
<path d="M1110.32 1154.05C1237.63 1187.69 1267.74 1149.55 1291.19 1103.45C1295.59 1203.79 1285.38 1466.09 1047.88 1466.09C747.218 1466.09 786.347 1244.44 768.021 1154.05C776.817 1116.08 817.895 1080.11 919.313 1095.42C1027.07 1111.69 1017.96 1129.64 1110.32 1154.05Z" fill="#8EE8D2" fill-opacity="0.5"/>
<path d="M1029 1135.14C1141.44 1060.51 1193.03 1098.05 1284.31 1118.12C1284.31 1261.84 1274 1458.54 1015.29 1454.69C756.583 1450.84 768.49 1261.07 766.13 1155.94C821.208 1215.33 923.565 1205.11 1029 1135.14Z" fill="#BFEDE2" fill-opacity="0.5"/>
<path d="M1029 1485C974.876 1485 925.483 1472.6 882.714 1448.36C839.566 1423.93 806.449 1390.11 784.307 1347.64C762.165 1305.74 751 1260.65 751 1213.86C751 1125.54 777.305 1055.27 828.969 1004.91C880.632 954.555 948.193 929 1029.38 929C1082.56 929 1131.19 941.026 1173.96 964.513C1217.11 988.189 1250.42 1021.82 1273.13 1064.29C1295.65 1106.38 1307 1154.67 1307 1207.85C1307 1261.77 1295.08 1310.82 1271.42 1353.47C1247.58 1396.69 1213.32 1429.76 1169.61 1451.93C1126.27 1473.91 1078.96 1485 1029 1485ZM1029.38 955.306C955.195 955.306 894.069 978.23 847.515 1023.7C800.961 1068.99 777.494 1132.87 777.494 1213.86C777.494 1256.51 787.713 1297.47 807.773 1335.62C827.644 1373.39 857.355 1403.64 895.961 1425.62C934.756 1447.61 979.607 1458.88 1029.19 1458.88C1074.99 1458.88 1118.13 1448.74 1157.69 1428.63C1196.67 1408.9 1227.14 1379.4 1248.33 1340.88C1269.72 1301.98 1280.7 1257.26 1280.7 1207.85C1280.7 1158.99 1270.29 1114.83 1249.85 1076.69C1229.6 1038.73 1199.89 1008.86 1161.28 987.625C1122.3 966.204 1078.01 955.306 1029.38 955.306Z" fill="#A0CA77"/>
<path fill-rule="evenodd" clip-rule="evenodd" d="M1134.79 1217.24H1135.17L1066.47 1024.27C1061.36 1009.8 1041.87 1007.17 1032.97 1019.57L913.183 1186.24H913.562C894.637 1213.48 884.229 1247.68 892.556 1287.7C901.261 1329.79 930.972 1366.43 970.524 1381.09C979.345 1384.36 988.189 1386.6 996.957 1387.88C991.361 1366.57 992.902 1331.11 997.824 1291.83C983.555 1268.23 948.343 1209.35 953.492 1211.6C963.647 1215.84 979.18 1232.58 1002.05 1262.08C1015.47 1176.61 1039.79 1085.52 1039.79 1085.52L1029.3 1388.36C1085.31 1381.78 1132.36 1337.18 1140.84 1277.37C1143.87 1256.51 1141.22 1236.03 1134.79 1217.24Z" fill="#A0CA77"/>
</g>
<path d="M1029 1485C974.876 1485 925.483 1472.6 882.714 1448.36C839.566 1423.93 806.449 1390.11 784.307 1347.64C762.165 1305.74 751 1260.65 751 1213.86C751 1125.54 777.305 1055.27 828.969 1004.91C880.632 954.555 948.193 929 1029.38 929C1082.56 929 1131.19 941.026 1173.96 964.513C1217.11 988.189 1250.42 1021.82 1273.13 1064.29C1295.65 1106.38 1307 1154.67 1307 1207.85C1307 1261.77 1295.08 1310.82 1271.42 1353.47C1247.58 1396.69 1213.32 1429.76 1169.61 1451.93C1126.27 1473.91 1078.96 1485 1029 1485ZM1029.38 955.306C955.195 955.306 894.069 978.23 847.515 1023.7C800.961 1068.99 777.494 1132.87 777.494 1213.86C777.494 1256.51 787.713 1297.47 807.773 1335.62C827.644 1373.39 857.355 1403.64 895.961 1425.62C934.756 1447.61 979.607 1458.88 1029.19 1458.88C1074.99 1458.88 1118.13 1448.74 1157.69 1428.63C1196.67 1408.9 1227.14 1379.4 1248.33 1340.88C1269.72 1301.98 1280.7 1257.26 1280.7 1207.85C1280.7 1158.99 1270.29 1114.83 1249.85 1076.69C1229.6 1038.73 1199.89 1008.86 1161.28 987.625C1122.3 966.204 1078.01 955.306 1029.38 955.306Z" fill="#A0CA77"/>
</g>
<defs>
<filter id="filter0_dd_511_9682" x="0" y="0" width="2056" height="2740" filterUnits="userSpaceOnUse" color-interpolation-filters="sRGB">
<feFlood flood-opacity="0" result="BackgroundImageFix"/>
<feColorMatrix in="SourceAlpha" type="matrix" values="0 0 0 0 0 0 0 0 0 0 0 0 0 0 0 0 0 0 127 0" result="hardAlpha"/>
<feOffset dy="4"/>
<feGaussianBlur stdDeviation="2"/>
<feComposite in2="hardAlpha" operator="out"/>
<feColorMatrix type="matrix" values="0 0 0 0 0 0 0 0 0 0 0 0 0 0 0 0 0 0 0.25 0"/>
<feBlend mode="normal" in2="BackgroundImageFix" result="effect1_dropShadow_511_9682"/>
<feColorMatrix in="SourceAlpha" type="matrix" values="0 0 0 0 0 0 0 0 0 0 0 0 0 0 0 0 0 0 127 0" result="hardAlpha"/>
<feOffset dy="4"/>
<feGaussianBlur stdDeviation="2"/>
<feComposite in2="hardAlpha" operator="out"/>
<feColorMatrix type="matrix" values="0 0 0 0 0 0 0 0 0 0 0 0 0 0 0 0 0 0 0.25 0"/>
<feBlend mode="normal" in2="effect1_dropShadow_511_9682" result="effect2_dropShadow_511_9682"/>
<feBlend mode="normal" in="SourceGraphic" in2="effect2_dropShadow_511_9682" result="shape"/>
</filter>
<clipPath id="clip0_511_9682">
<rect width="556" height="556" fill="white" transform="translate(751 933)"/>
</clipPath>
</defs>
</svg>
