<svg width="349" height="39" viewBox="0 0 349 39" fill="none" xmlns="http://www.w3.org/2000/svg">
<path d="M26.3768 16.0145H5.36957V0H0V39H5.36957V20.6304H26.3768V39H31.7464V0H26.3768V16.0145Z" fill="white"/>
<path d="M200.841 3.3442C199.192 1.97826 197.214 1.08333 194.906 0.565217C193.258 0.188406 190.855 0 187.7 0H173.805V39H188.406C190.855 39 193.022 38.7645 194.906 38.3406C196.79 37.9167 198.392 37.2572 199.758 36.4094C201.124 35.5616 202.301 34.3841 203.431 32.8768C204.562 31.3696 205.457 29.4855 206.21 27.1775C206.964 24.8696 207.247 22.2319 207.247 19.2645C207.247 15.779 206.729 12.7174 205.645 9.98551C204.562 7.25362 203.008 5.08696 200.841 3.3442ZM200.653 26.7065C199.946 28.779 198.957 30.4275 197.685 31.6522C196.79 32.5 195.566 33.2065 194.058 33.6775C192.551 34.1486 190.431 34.3841 187.794 34.3841H179.174V4.61594H187.653C190.855 4.61594 193.163 4.89855 194.576 5.41667C196.555 6.17029 198.25 7.63043 199.663 9.7971C201.076 11.9638 201.736 15.1196 201.736 19.2174C201.689 22.1377 201.359 24.6341 200.653 26.7065Z" fill="white"/>
<path d="M237.627 23.1739C236.968 22.5145 235.978 21.9022 234.707 21.2428C238.239 20.7246 240.83 19.5 242.478 17.6159C244.174 15.7319 245.022 13.3768 245.022 10.6449C245.022 8.47826 244.504 6.5471 243.515 4.75725C242.478 2.96739 241.16 1.74275 239.464 1.03623C237.768 0.32971 235.272 0 231.975 0H215.772V39H220.623V21.6667H226.228C227.453 21.6667 228.395 21.7138 228.913 21.8551C229.667 22.0435 230.421 22.3732 231.127 22.8913C231.834 23.4094 232.681 24.2572 233.576 25.4819C234.471 26.7065 235.649 28.4964 237.062 30.8514L241.913 38.9529H247.989L241.631 28.3551C240.406 26.2826 239.04 24.587 237.627 23.1739ZM231.033 17.192H220.623V4.28623H232.21C234.942 4.28623 236.921 4.89855 238.145 6.07609C239.417 7.25362 240.029 8.76087 240.029 10.6449C240.029 11.9167 239.7 13.0471 239.04 14.1304C238.381 15.2138 237.439 15.9674 236.214 16.4855C234.942 16.9565 233.247 17.192 231.033 17.192Z" fill="white"/>
<path d="M264.664 0H259.294V39H264.664V0Z" fill="white"/>
<path d="M302.675 30.6159L281.432 0H275.921V39H281.055V8.33696L302.298 39H307.809V0H302.675V30.6159Z" fill="white"/>
<path d="M332.536 16.4384L347.75 0H340.496L322.551 19.3116V0H317.181V39H322.551V26.942C322.551 26 322.928 25.1522 323.634 24.4928L328.909 18.8406L341.438 39H348.504L332.536 16.4384Z" fill="white"/>
<path d="M70.3221 19.9713L65.3293 5.79375C64.9525 4.71041 63.5395 4.4749 62.88 5.41693L57.5105 12.3879C57.3692 12.5764 57.1808 12.8119 57.0395 13.0474L54.1663 17.6633H54.2134C52.8474 19.6887 52.0938 22.1851 52.659 25.1524C53.3185 28.2611 55.4851 30.9459 58.3583 32.0293C64.1047 34.1959 69.9924 30.2865 70.7931 24.3988C70.9815 22.8445 70.7931 21.3372 70.3221 19.9713Z" fill="white"/>
<path d="M60.3843 33.7249C58.6415 29.0147 63.3988 11.0691 63.3988 11.0691L62.5981 34.3843L60.3843 33.7249Z" fill="#BEE0B9"/>
<path d="M60.9495 26.0941C60.9495 26.0941 56.8046 19.2643 57.2756 19.4999C58.2176 19.9238 59.8191 21.8078 62.4096 25.2933" fill="#BEE0B9"/>
<path d="M133.674 0C133.674 0 125.808 30.1449 125.29 32.6413C124.677 28.3551 119.167 6.97101 119.167 6.97101L117.282 0H114.221H111.112L109.134 7.20652C109.134 7.20652 103.388 28.0254 102.446 32.2174C101.975 29.5797 94.6267 0 94.6267 0H89.3984L99.5724 39H104.754L112.902 9.27899C113.279 8.00725 113.656 6.5 114.08 4.71014C114.221 5.27536 114.598 6.78261 115.304 9.27899L123.406 39H128.304L138.761 0H133.674Z" fill="white"/>
<path d="M62.4569 38.1525C58.8301 38.1525 55.533 37.3046 52.7069 35.7032C49.8337 34.0546 47.6199 31.7938 46.1127 28.9206C44.6526 26.1416 43.8989 23.08 43.8989 19.9242C43.8989 13.9894 45.6417 9.27929 49.1272 5.88798C52.5656 2.49668 57.0873 0.801025 62.504 0.801025C66.0366 0.801025 69.2866 1.60175 72.1598 3.2032C75.033 4.80465 77.2467 7.06552 78.8011 9.89161C80.3083 12.7177 81.062 15.9677 81.062 19.5474C81.062 23.1742 80.2612 26.4713 78.7069 29.3445C77.1054 32.2648 74.8446 34.4786 71.9243 35.9387C68.9569 37.446 65.8011 38.1525 62.4569 38.1525ZM62.504 2.59088C57.5584 2.59088 53.4605 4.14523 50.3518 7.15972C47.2431 10.2213 45.6888 14.5075 45.6888 19.9242C45.6888 22.7974 46.3482 25.5293 47.7141 28.1199C49.033 30.6633 51.0112 32.6887 53.6018 34.1489C56.1924 35.609 59.1598 36.3626 62.504 36.3626C65.5656 36.3626 68.4388 35.7032 71.0765 34.3373C73.667 33.0184 75.6924 31.0402 77.1525 28.4496C78.5656 25.859 79.3192 22.8445 79.3192 19.5003C79.3192 16.2032 78.6127 13.2358 77.2468 10.6923C75.8808 8.14885 73.9025 6.12349 71.3591 4.71045C68.7214 3.2974 65.754 2.59088 62.504 2.59088Z" fill="white"/>
</svg>
