<svg width="760" height="85" viewBox="0 0 760 85" fill="none" xmlns="http://www.w3.org/2000/svg">
<path d="M57.4879 34.9034H11.7029V0H0V85H11.7029V44.9638H57.4879V85H69.1908V0H57.4879V34.9034Z" fill="white"/>
<path d="M437.73 7.28865C434.137 4.31159 429.825 2.36111 424.795 1.23188C421.202 0.410628 415.966 0 409.088 0H378.805V85H410.628C415.967 85 420.689 84.4867 424.795 83.5628C428.901 82.6389 432.392 81.2017 435.369 79.3539C438.346 77.506 440.912 74.9396 443.376 71.6546C445.84 68.3696 447.79 64.2633 449.433 59.2331C451.075 54.2029 451.691 48.4541 451.691 41.9867C451.691 34.3901 450.562 27.7174 448.201 21.7633C445.84 15.8092 442.452 11.087 437.73 7.28865ZM437.319 58.2065C435.779 62.7234 433.624 66.3164 430.852 68.9855C428.901 70.8333 426.232 72.3732 422.947 73.3998C419.662 74.4263 415.043 74.9396 409.294 74.9396H390.508V10.0604H408.986C415.967 10.0604 420.997 10.6763 424.076 11.8056C428.388 13.4481 432.084 16.6304 435.163 21.3527C438.243 26.0749 439.68 32.9529 439.68 41.8841C439.578 48.2488 438.859 53.6896 437.319 58.2065Z" fill="white"/>
<path d="M517.904 50.5072C516.467 49.07 514.311 47.7355 511.54 46.2983C519.239 45.1691 524.885 42.5 528.478 38.3937C532.174 34.2874 534.021 29.1546 534.021 23.2005C534.021 18.4783 532.892 14.2693 530.736 10.3684C528.478 6.46739 525.604 3.79831 521.908 2.25845C518.212 0.718599 512.771 0 505.585 0H470.271V85H480.845V47.2222H493.061C495.73 47.2222 497.784 47.3249 498.913 47.6328C500.555 48.0435 502.198 48.7621 503.738 49.8913C505.278 51.0205 507.125 52.8684 509.076 55.5374C511.026 58.2065 513.593 62.1075 516.672 67.2403L527.246 84.8973H540.489L526.63 61.7995C523.961 57.2826 520.984 53.587 517.904 50.5072ZM503.532 37.4698H480.845V9.34179H506.099C512.053 9.34179 516.364 10.6763 519.034 13.2428C521.805 15.8092 523.14 19.0942 523.14 23.2005C523.14 25.9722 522.421 28.436 520.984 30.7971C519.547 33.1582 517.494 34.8007 514.825 35.93C512.053 36.9565 508.357 37.4698 503.532 37.4698Z" fill="white"/>
<path d="M576.828 0H565.125V85H576.828V0Z" fill="white"/>
<path d="M659.674 66.7271L613.376 0H601.365V85H612.555V18.1703L658.853 85H670.864V0H659.674V66.7271Z" fill="white"/>
<path d="M724.761 35.8273L757.919 0H742.11L702.998 42.0894V0H691.295V85H702.998V58.7198C702.998 56.6667 703.819 54.8188 705.359 53.3816L716.857 41.0628L744.163 85H759.562L724.761 35.8273Z" fill="white"/>
<path d="M153.268 43.5272L142.387 12.6274C141.565 10.2663 138.486 9.75302 137.049 11.8062L125.346 26.9994C125.038 27.41 124.627 27.9233 124.319 28.4366L118.057 38.497H118.16C115.183 42.9112 113.54 48.3521 114.772 54.8194C116.209 61.5948 120.931 67.4463 127.193 69.8074C139.718 74.5296 152.55 66.0091 154.295 53.1769C154.706 49.7893 154.295 46.5042 153.268 43.5272Z" fill="white"/>
<path d="M131.606 73.503C127.808 63.2373 138.176 24.125 138.176 24.125L136.431 74.9402L131.606 73.503Z" fill="#BEE0B9"/>
<path d="M132.839 56.8718C132.839 56.8718 123.805 41.9865 124.831 42.4998C126.884 43.4237 130.375 47.53 136.021 55.1266" fill="#BEE0B9"/>
<path d="M291.341 0C291.341 0 274.198 65.7005 273.068 71.1413C271.734 61.7995 259.723 15.1932 259.723 15.1932L255.617 0H248.944H242.169L237.857 15.7065C237.857 15.7065 225.333 61.0809 223.28 70.2174C222.253 64.4686 206.239 0 206.239 0H194.844L217.018 85H228.31L246.07 20.2234C246.891 17.4517 247.712 14.1667 248.636 10.2657C248.944 11.4976 249.765 14.7826 251.305 20.2234L268.962 85H279.638L302.428 0H291.341Z" fill="white"/>
<path d="M136.123 83.1521C128.218 83.1521 121.032 81.3043 114.873 77.814C108.611 74.221 103.786 69.2934 100.501 63.0314C97.3183 56.9746 95.6758 50.3019 95.6758 43.4239C95.6758 30.4891 99.4741 20.2234 107.071 12.8321C114.565 5.44077 124.42 1.74512 136.225 1.74512C143.925 1.74512 151.008 3.49029 157.27 6.98062C163.532 10.471 168.357 15.3985 171.745 21.5579C175.03 27.7173 176.672 34.8007 176.672 42.6026C176.672 50.5072 174.927 57.6932 171.539 63.9553C168.049 70.32 163.121 75.1449 156.757 78.3272C150.289 81.6123 143.411 83.1521 136.123 83.1521ZM136.225 5.64608C125.446 5.64608 116.515 9.03377 109.74 15.6038C102.964 22.2765 99.5767 31.6183 99.5767 43.4239C99.5767 49.6859 101.014 55.64 103.991 61.2862C106.865 66.8297 111.177 71.2439 116.823 74.4263C122.469 77.6086 128.937 79.2512 136.225 79.2512C142.898 79.2512 149.16 77.814 154.909 74.8369C160.555 71.9625 164.969 67.6509 168.152 62.0048C171.231 56.3586 172.874 49.7886 172.874 42.4999C172.874 35.314 171.334 28.8466 168.357 23.3031C165.38 17.7596 161.068 13.3454 155.525 10.2656C149.776 7.18594 143.309 5.64608 136.225 5.64608Z" fill="white"/>
</svg>
