<svg width="55" height="59" viewBox="0 0 55 59" fill="none" xmlns="http://www.w3.org/2000/svg">
<path d="M1 21.4946C1 19.609 1 18.6662 1.58579 18.0804C2.17157 17.4946 3.11438 17.4946 5 17.4946H49.7835C51.6691 17.4946 52.6119 17.4946 53.1977 18.0804C53.7835 18.6662 53.7835 19.609 53.7835 21.4946V51.0822C53.7835 53.9106 53.7835 55.3248 52.9048 56.2035C52.0261 57.0822 50.6119 57.0822 47.7835 57.0822H7.00001C4.17158 57.0822 2.75736 57.0822 1.87868 56.2035C1 55.3248 1 53.9106 1 51.0822V21.4946Z" stroke="#767753" stroke-width="2"/>
<path d="M40.589 17.4949V11C40.589 6.28595 40.589 3.92893 39.1245 2.46447C37.6601 1 35.303 1 30.589 1H24.1973C19.4832 1 17.1262 1 15.6617 2.46447C14.1973 3.92893 14.1973 6.28595 14.1973 11V17.4949" stroke="#767753" stroke-width="2" stroke-linecap="round"/>
<ellipse cx="27.3909" cy="37.2884" rx="6.59793" ry="6.59796" fill="#767753"/>
</svg>
