<svg width="306" height="306" viewBox="0 0 306 306" fill="none" xmlns="http://www.w3.org/2000/svg">
<path d="M152.792 305.505C123.045 305.505 95.8982 298.691 72.3917 285.372C48.6772 271.95 30.4752 253.366 18.3059 230.033C6.13665 207.009 0 182.23 0 156.521C0 107.996 14.4575 69.3814 42.8526 41.7115C71.2476 14.0415 108.38 0 153 0C182.227 0 208.958 6.60776 232.465 19.5135C256.179 32.5226 274.485 51.0036 286.966 74.3373C299.344 97.4644 305.584 123.999 305.584 153.217C305.584 182.849 299.032 209.796 286.03 233.233C272.925 256.98 254.099 275.151 230.072 287.334C206.254 299.414 180.251 305.505 152.792 305.505ZM153 14.4545C112.228 14.4545 78.6324 27.0505 53.0456 52.0361C27.4589 76.9184 14.5615 112.022 14.5615 156.521C14.5615 179.958 20.1781 202.466 31.2033 223.425C42.1245 244.177 58.4542 260.8 79.6725 272.88C100.995 284.96 125.645 291.154 152.896 291.154C178.067 291.154 201.781 285.579 223.52 274.532C244.946 263.691 261.692 247.481 273.341 226.316C285.094 204.944 291.127 180.371 291.127 153.217C291.127 126.373 285.406 102.11 274.173 81.1515C263.044 60.2958 246.714 43.8796 225.496 32.2128C204.07 20.4427 179.731 14.4545 153 14.4545Z" fill="white"/>
<path d="M210.935 158.381H211.143L173.387 52.347C170.578 44.3971 159.865 42.9516 154.977 49.7659L89.1378 141.345H89.3458C78.9447 156.316 73.2241 175.107 77.8006 197.098C82.5851 220.225 98.9148 240.358 120.653 248.412C163.818 264.415 208.022 235.403 214.263 191.42C215.927 179.959 214.471 168.706 210.935 158.381Z" fill="white"/>
<path d="M136.148 255.225C122.939 220.018 158.718 86.0049 158.718 86.0049L152.686 260.078L136.148 255.225Z" fill="#BEE0B9"/>
<path d="M138.851 204.636C138.851 204.636 107.752 153.735 111.288 155.284C118.465 158.278 130.53 172.63 149.772 198.648" fill="#BEE0B9"/>
</svg>
