<svg width="387" height="387" viewBox="0 0 387 387" fill="none" xmlns="http://www.w3.org/2000/svg">
<path d="M193.5 387C155.827 387 121.448 378.368 91.6787 361.496C61.646 344.494 38.5946 320.952 23.1831 291.394C7.77161 262.229 0 230.84 0 198.274C0 136.804 18.3094 87.8892 54.2696 52.8381C90.2297 17.7871 137.255 0 193.763 0C230.777 0 264.63 8.3704 294.399 24.7188C324.432 41.198 347.615 64.609 363.422 94.167C379.097 123.463 387 157.076 387 194.089C387 231.625 378.701 265.76 362.236 295.449C345.639 325.53 321.797 348.549 291.37 363.981C261.205 379.284 228.275 387 193.5 387ZM193.763 18.3102C142.128 18.3102 99.582 34.2663 67.1784 65.9169C34.7747 97.4366 18.4411 141.904 18.4411 198.274C18.4411 227.962 25.5541 256.474 39.5167 283.024C53.3475 309.312 74.0279 330.369 100.899 345.671C127.902 360.973 159.12 368.821 193.632 368.821C225.509 368.821 255.541 361.758 283.071 347.764C310.206 334.031 331.413 313.497 346.166 286.686C361.051 259.613 368.691 228.486 368.691 194.089C368.691 160.084 361.446 129.349 347.22 102.799C333.126 76.3799 312.445 55.5847 285.574 40.8057C258.439 25.8959 227.616 18.3102 193.763 18.3102Z" fill="#A0CA77"/>
<path d="M267.132 200.628H267.396L219.581 66.3093C216.024 56.2387 202.457 54.4076 196.266 63.0396L112.886 179.048H113.149C99.9768 198.012 92.7321 221.816 98.5279 249.673C104.587 278.97 125.267 304.473 152.797 314.675C207.462 334.947 263.444 298.195 271.347 242.48C273.455 227.963 271.611 213.707 267.132 200.628Z" fill="#A0CA77"/>
<path d="M172.424 323.306C155.695 278.708 201.008 108.946 201.008 108.946L193.368 329.453L172.424 323.306Z" fill="white"/>
<path d="M175.849 259.221C175.849 259.221 136.464 194.743 140.943 196.705C150.032 200.497 165.311 218.677 189.68 251.635" fill="white"/>
</svg>
