<svg width="155" height="155" viewBox="0 0 155 155" fill="none" xmlns="http://www.w3.org/2000/svg">
<path d="M77.5 155C62.4115 155 48.6419 151.543 36.7189 144.785C24.6903 137.976 15.4578 128.547 9.28523 116.708C3.11266 105.027 0 92.4552 0 79.412C0 54.7922 7.33322 35.2011 21.7359 21.1626C36.1385 7.12403 54.9728 0 77.6055 0C92.4302 0 105.989 3.35248 117.912 9.9003C129.94 16.5005 139.226 25.877 145.557 37.7154C151.835 49.4491 155 62.9115 155 77.7357C155 92.7695 151.676 106.441 145.082 118.332C138.434 130.38 128.885 139.6 116.698 145.781C104.617 151.909 91.4278 155 77.5 155ZM77.6055 7.33356C56.9248 7.33356 39.8843 13.7242 26.9061 26.4008C13.9278 39.025 7.38598 56.8351 7.38598 79.412C7.38598 91.3028 10.2349 102.722 15.8271 113.356C21.3666 123.885 29.6494 132.318 40.4118 138.447C51.227 144.576 63.7304 147.719 77.5528 147.719C90.3199 147.719 102.349 144.89 113.375 139.285C124.243 133.785 132.737 125.561 138.645 114.823C144.607 103.979 147.667 91.5123 147.667 77.7357C147.667 64.1163 144.765 51.8064 139.067 41.1727C133.422 30.5914 125.14 22.2626 114.377 16.3434C103.509 10.3717 91.1641 7.33356 77.6055 7.33356Z" fill="white"/>
<path fill-rule="evenodd" clip-rule="evenodd" d="M107.097 80.3549H106.991C108.785 85.5931 109.523 91.3028 108.679 97.1173C106.314 113.792 93.1969 126.225 77.5821 128.058L80.5071 43.6348C80.5071 43.6348 73.7291 69.0284 69.9868 92.8551C63.6111 84.6307 59.2808 79.9648 56.45 78.7834C55.0144 78.1546 64.8307 94.5688 68.8087 101.15C67.4366 112.1 67.007 121.984 68.567 127.925C66.1227 127.568 63.6571 126.944 61.1981 126.032C50.1719 121.947 41.889 111.732 39.4622 99.9983C37.1409 88.8409 40.0425 79.3072 45.3182 71.7118H45.2127L78.6079 25.2484C81.0875 21.7912 86.5214 22.5245 87.9459 26.558L107.097 80.3549Z" fill="white"/>
</svg>
