<svg width="641" height="326" viewBox="0 0 641 326" fill="none" xmlns="http://www.w3.org/2000/svg">
<rect width="641" height="326" rx="56" fill="white"/>
<path d="M281.962 116H279.323V106.799H269.288V116H266.663V96.0938H269.288V104.652H279.323V96.0938H281.962V116ZM291.776 116H289.246V101.207H291.776V116ZM289.041 97.2832C289.041 96.873 289.164 96.5267 289.411 96.2441C289.666 95.9616 290.039 95.8203 290.532 95.8203C291.024 95.8203 291.398 95.9616 291.653 96.2441C291.908 96.5267 292.036 96.873 292.036 97.2832C292.036 97.6934 291.908 98.0352 291.653 98.3086C291.398 98.582 291.024 98.7188 290.532 98.7188C290.039 98.7188 289.666 98.582 289.411 98.3086C289.164 98.0352 289.041 97.6934 289.041 97.2832ZM326.863 96.0938H329.502V110.189C329.502 112.094 328.928 113.585 327.779 114.66C326.64 115.736 325.118 116.273 323.213 116.273C321.235 116.273 319.695 115.768 318.592 114.756C317.489 113.744 316.938 112.327 316.938 110.504H319.562C319.562 111.643 319.872 112.532 320.492 113.17C321.121 113.808 322.028 114.127 323.213 114.127C324.298 114.127 325.173 113.785 325.838 113.102C326.512 112.418 326.854 111.461 326.863 110.23V96.0938ZM335.706 108.467C335.706 107.018 335.989 105.714 336.554 104.557C337.128 103.399 337.921 102.506 338.933 101.877C339.954 101.248 341.116 100.934 342.419 100.934C344.433 100.934 346.06 101.631 347.3 103.025C348.549 104.42 349.173 106.275 349.173 108.59V108.768C349.173 110.208 348.895 111.502 348.339 112.65C347.792 113.79 347.004 114.678 345.974 115.316C344.953 115.954 343.777 116.273 342.446 116.273C340.441 116.273 338.814 115.576 337.566 114.182C336.326 112.787 335.706 110.941 335.706 108.645V108.467ZM338.249 108.768C338.249 110.408 338.627 111.725 339.384 112.719C340.15 113.712 341.17 114.209 342.446 114.209C343.732 114.209 344.752 113.708 345.509 112.705C346.265 111.693 346.644 110.281 346.644 108.467C346.644 106.844 346.256 105.532 345.482 104.529C344.716 103.518 343.695 103.012 342.419 103.012C341.17 103.012 340.163 103.508 339.398 104.502C338.632 105.495 338.249 106.917 338.249 108.768ZM357.674 102.998C358.795 101.622 360.254 100.934 362.049 100.934C365.176 100.934 366.752 102.697 366.78 106.225V116H364.25V106.211C364.241 105.145 363.995 104.356 363.512 103.846C363.038 103.335 362.295 103.08 361.284 103.08C360.463 103.08 359.743 103.299 359.123 103.736C358.504 104.174 358.021 104.748 357.674 105.459V116H355.145V95H357.674V102.998ZM375.759 101.207L375.841 103.066C376.972 101.645 378.448 100.934 380.271 100.934C383.397 100.934 384.974 102.697 385.002 106.225V116H382.472V106.211C382.463 105.145 382.217 104.356 381.734 103.846C381.26 103.335 380.517 103.08 379.505 103.08C378.685 103.08 377.965 103.299 377.345 103.736C376.726 104.174 376.242 104.748 375.896 105.459V116H373.367V101.207H375.759ZM97.176 135.676C95.608 139.932 93.004 144.104 90.26 146.792C90.652 147.268 91.212 148.332 91.436 148.836C92.388 147.8 93.368 146.652 94.264 145.364V161.072H96.252V142.256C97.344 140.352 98.324 138.336 99.136 136.264L97.176 135.676ZM102.272 147.492C101.516 150.796 100.2 154.128 98.436 156.256C98.94 156.536 99.836 157.068 100.228 157.404C101.936 155.08 103.42 151.552 104.316 147.884L102.272 147.492ZM114.116 142.872C113.892 144.3 113.64 145.784 113.472 146.792L115.208 147.128C115.572 145.644 116.076 143.236 116.44 141.192L115.012 140.856L114.676 140.94H103.336C103.896 139.4 104.4 137.776 104.82 136.152L102.776 135.704C101.852 139.792 100.228 143.796 98.184 146.372C98.632 146.68 99.5 147.38 99.836 147.688C100.844 146.372 101.768 144.72 102.552 142.872H106.808V158.608C106.808 158.972 106.696 159.084 106.332 159.084C105.968 159.084 104.764 159.112 103.448 159.056C103.728 159.644 104.064 160.568 104.176 161.156C105.94 161.156 107.116 161.1 107.872 160.736C108.6 160.4 108.852 159.784 108.852 158.608V142.872H114.116ZM110.896 147.884C112.38 150.824 113.78 154.744 114.228 157.292L116.216 156.62C115.74 154.072 114.312 150.236 112.716 147.268L110.896 147.884ZM158.916 152.504C158.048 154.1 156.816 155.36 155.192 156.34C153.092 155.836 150.88 155.36 148.668 154.94C149.228 154.184 149.816 153.344 150.404 152.504H158.916ZM145.476 142.704H149.704V146.484H145.476V142.704ZM151.692 138.644H156.2V140.996H151.692V138.644ZM162.836 142.704V146.484H158.188V142.704H162.836ZM151.692 146.484V142.704H156.2V146.484H151.692ZM166.756 152.504V150.768H151.58C152.14 149.956 152.672 149.144 153.148 148.388L152.392 148.192H164.88V140.996H158.188V138.644H166.056V136.796H142.144V138.644H149.704V140.996H143.516V148.192H150.88C150.376 149.004 149.788 149.872 149.2 150.768H141.472V152.504H147.996C146.932 153.988 145.896 155.444 145.028 156.536L146.988 157.208L147.576 156.452C149.284 156.788 150.964 157.152 152.616 157.544C149.844 158.552 146.316 159.056 141.864 159.308C142.2 159.756 142.508 160.512 142.648 161.1C148.192 160.708 152.448 159.868 155.584 158.272C159.14 159.196 162.276 160.232 164.628 161.184L165.888 159.504C163.732 158.692 160.876 157.796 157.684 156.956C159.224 155.78 160.372 154.324 161.212 152.504H166.756ZM202.008 155.696C202.008 155.892 202.008 156.06 201.98 156.256H199.348V153.652H197.92V157.572H201.644C201.224 158.412 200.328 159.168 198.508 159.728C198.872 160.008 199.348 160.596 199.544 160.932C202.988 159.728 203.52 157.824 203.52 155.724V153.232H202.008V155.696ZM195.008 141.752H201.252V143.796H195.008V141.752ZM201.252 138.28V140.352H195.008V138.28H201.252ZM201.728 150.124C201.98 150.46 202.232 150.852 202.456 151.244L200.16 151.356C201.364 150.236 202.652 148.808 203.716 147.548L202.484 146.988C202.008 147.66 201.364 148.472 200.664 149.284C200.384 148.948 200.048 148.556 199.656 148.22C200.328 147.492 201.112 146.512 201.812 145.616L201.084 145.308H203.212V136.768H193.02V161.156H195.008V145.308H200.328C199.936 145.952 199.348 146.792 198.816 147.464C198.536 147.24 198.284 147.044 198.032 146.876L197.164 147.716C198.144 148.388 199.18 149.424 199.796 150.236C199.376 150.684 198.984 151.076 198.592 151.44L196.828 151.524L196.996 152.84C198.76 152.728 200.832 152.616 203.044 152.448C203.184 152.728 203.268 153.008 203.324 153.232L204.5 152.756C204.276 151.916 203.604 150.684 202.848 149.76L201.728 150.124ZM210.996 157.572V153.652H209.568V156.256H206.852V153.232H205.312V160.624H206.852V157.572H210.996ZM207.692 143.796V141.752H214.132V143.796H207.692ZM214.132 138.28V140.352H207.692V138.28H214.132ZM216.148 136.768H205.704V145.308H207.216C206.796 145.98 206.208 146.792 205.676 147.492C205.396 147.268 205.116 147.072 204.836 146.876L203.94 147.66C204.92 148.388 205.984 149.396 206.6 150.236C206.152 150.684 205.704 151.104 205.284 151.468L204.276 151.524L204.584 152.84C206.404 152.7 208.532 152.588 210.688 152.42C210.856 152.756 210.968 153.064 211.052 153.344L212.256 152.868C212.004 151.944 211.192 150.572 210.408 149.592L209.232 149.984C209.512 150.376 209.82 150.796 210.072 151.244C208.952 151.3 207.916 151.328 206.936 151.384C208.196 150.264 209.568 148.836 210.66 147.632L209.4 147.072C208.924 147.716 208.252 148.528 207.524 149.284C207.244 148.948 206.908 148.584 206.544 148.248C207.244 147.492 208.056 146.512 208.784 145.56L208.196 145.308H214.132V158.524C214.132 158.888 214.02 159.028 213.656 159.028C213.292 159.056 212.088 159.056 210.856 159C211.164 159.532 211.416 160.512 211.528 161.072C213.264 161.072 214.44 161.016 215.168 160.68C215.924 160.316 216.148 159.672 216.148 158.524V136.768ZM251.624 138.392V140.716H245.576V138.392H251.624ZM245.576 144.72V142.256H251.624V144.72H245.576ZM253.612 146.316V136.768H243.504V161.156H245.576V146.316H253.612ZM262.012 151.244V149.508H257.672V147.016H255.768V149.508H247.9V151.244H254.984C253.08 153.708 249.944 156.032 247.144 157.18C247.536 157.544 248.124 158.216 248.46 158.692C250.98 157.46 253.808 155.248 255.768 152.84V158.244C255.768 158.552 255.656 158.636 255.348 158.664C255.012 158.664 253.92 158.692 252.744 158.636C252.996 159.14 253.276 159.868 253.388 160.372C255.04 160.372 256.104 160.372 256.804 160.064C257.476 159.756 257.672 159.252 257.672 158.272V151.244H262.012ZM258.092 144.748V142.256H264.364V144.748H258.092ZM264.364 138.392V140.716H258.092V138.392H264.364ZM266.464 136.768H256.104V146.344H264.364V158.328C264.364 158.86 264.196 159.028 263.692 159.028C263.132 159.056 261.312 159.084 259.464 159C259.772 159.56 260.108 160.54 260.192 161.128C262.656 161.128 264.252 161.1 265.176 160.764C266.128 160.4 266.464 159.728 266.464 158.328V136.768ZM301.408 142.62L301.1 142.704H292.924V144.776H300.204C298.86 150.348 295.892 154.52 292.252 156.788C292.728 157.124 293.568 157.936 293.904 158.44C297.992 155.668 301.38 150.488 302.78 143.152L301.408 142.62ZM315.408 140.1C313.756 142.284 311.012 145.084 308.772 147.044C307.792 145.056 307.008 142.928 306.42 140.716V135.648H304.264V158.188C304.264 158.748 304.068 158.916 303.508 158.944C302.948 158.944 301.156 158.972 299.14 158.888C299.476 159.504 299.896 160.54 299.98 161.156C302.556 161.156 304.18 161.1 305.104 160.736C306.028 160.344 306.42 159.672 306.42 158.188V146.176C308.632 151.916 311.992 156.62 316.836 159C317.172 158.384 317.9 157.544 318.404 157.124C314.708 155.528 311.796 152.476 309.64 148.696C312.048 146.82 315.072 143.88 317.284 141.444L315.408 140.1ZM354.552 141.752H345.676V143.46H365.78V141.752H356.68V139.568H367.824V137.86H356.68V135.564H354.552V137.86H343.632V139.568H354.552V141.752ZM353.74 158.636V154.24H348.364V151.188H353.74V146.988H357.464V151.188H362.98V154.24H357.464V158.636H353.74ZM359.424 158.636V155.892H364.94V149.508H359.396V146.988H365.416V149.676H367.488V145.28H343.856V149.676H345.844V146.988H351.836V149.508H346.488V155.892H351.78V158.636H343.128V160.428H368.356V158.636H359.424ZM403.86 149.2V146.96H408.144V149.2H403.86ZM403.86 143.264H408.144V145.504H403.86V143.264ZM414.64 143.264V145.504H410.16V143.264H414.64ZM414.64 149.2H410.16V146.96H414.64V149.2ZM408.144 157.684H410.16V154.492H418.504V152.728H410.16V150.768H416.628V141.724H410.16V139.82H418.084V138.056H410.16V135.592H408.144V138.056H400.612V139.82H408.144V141.724H401.956V150.768H408.144V152.728H400.192V154.492H408.144V157.684ZM399.856 140.828C398.988 139.456 397.056 137.552 395.348 136.264L393.752 137.44C395.46 138.784 397.336 140.716 398.176 142.116L399.856 140.828ZM399.016 146.54H393.5V148.5H397.056V155.668C395.796 156.844 394.368 158.02 393.192 158.888L394.284 160.876C395.656 159.672 396.944 158.496 398.176 157.292C399.912 159.476 402.432 160.456 406.1 160.596C409.236 160.736 415.144 160.68 418.28 160.54C418.364 159.924 418.7 158.972 418.952 158.496C415.592 158.72 409.152 158.804 406.072 158.664C402.796 158.552 400.332 157.6 399.016 155.528V146.54ZM445.076 151.44C444.768 153.876 444.236 156.396 443.368 158.104C443.76 158.244 444.6 158.608 444.908 158.86C445.804 157.068 446.448 154.38 446.84 151.748L445.076 151.44ZM452.076 149.2C452.356 149.844 452.552 150.46 452.664 150.992L454.316 150.236C453.896 148.696 452.776 146.288 451.6 144.496L450.088 145.112C450.536 145.84 450.956 146.652 451.348 147.464L447.316 147.66C449.22 145.28 451.32 142.116 452.916 139.568L451.18 138.756C450.396 140.268 449.332 142.088 448.184 143.824C447.764 143.264 447.26 142.648 446.672 142.032C447.736 140.464 448.94 138.196 449.892 136.264L448.072 135.592C447.484 137.132 446.504 139.26 445.58 140.856C445.3 140.576 445.02 140.324 444.74 140.072L443.62 141.388C444.88 142.592 446.28 144.188 447.092 145.448C446.504 146.288 445.916 147.072 445.356 147.772L443.424 147.856L443.62 149.732L448.016 149.452V161.128H449.864V149.34L452.076 149.2ZM450.816 151.832C451.516 153.428 452.076 155.5 452.216 156.844L453.84 156.34C453.644 154.996 453.056 152.952 452.356 151.384L450.816 151.832ZM458.656 150.628L458.348 150.656H453.784V152.448H457.564C456.612 155.304 454.792 157.404 452.552 158.58C452.944 158.86 453.588 159.56 453.868 160.008C456.612 158.412 458.824 155.5 459.804 151.076L458.656 150.628ZM456.724 144.132H466.132V146.568H456.724V144.132ZM456.724 140.128H466.132V142.536H456.724V140.128ZM467.42 149.48C466.552 150.46 465.18 151.804 463.948 152.812C463.22 151.468 462.688 150.012 462.352 148.64V148.276H468.12V138.448H461.54C461.96 137.692 462.436 136.824 462.828 135.984L460.532 135.536C460.28 136.376 459.86 137.496 459.412 138.448H454.82V148.276H460.448V158.916C460.448 159.224 460.364 159.308 460 159.308C459.692 159.336 458.544 159.336 457.312 159.308C457.564 159.812 457.816 160.596 457.872 161.1C459.636 161.1 460.728 161.072 461.428 160.792C462.156 160.484 462.352 159.952 462.352 158.916V153.204C463.528 155.836 465.46 158.44 468.456 159.98C468.736 159.448 469.352 158.692 469.716 158.3C467.56 157.376 465.964 155.892 464.788 154.212C466.16 153.26 467.784 151.916 469.1 150.712L467.42 149.48ZM500.572 140.184V151.272H496.904V140.184H500.572ZM502.448 153.204V138.252H495.028V155.808H496.904V153.204H502.448ZM503.344 160.092C504.604 158.496 505.22 155.78 505.584 153.512L504.016 153.064C503.68 155.248 503.008 157.796 501.832 159.308L503.344 160.092ZM506.872 153.512C507.348 155.304 507.572 157.544 507.516 159L509.056 158.748C509.084 157.292 508.86 155.024 508.356 153.288L506.872 153.512ZM509.952 153.316C510.624 154.8 511.296 156.76 511.492 158.076L512.948 157.572C512.696 156.312 512.024 154.352 511.296 152.868L509.952 153.316ZM506.396 147.24H510.68V149.928H506.396V147.24ZM510.68 138.7V141.276H506.396V138.7H510.68ZM510.68 145.588H506.396V142.984H510.68V145.588ZM512.612 149.928V147.24H517.764V145.588H512.612V142.984H517.764V141.276H512.612V138.7H518.324V136.852H504.464V151.72H517.148C516.868 156.676 516.532 158.58 516.056 159.084C515.832 159.364 515.58 159.42 515.16 159.42C514.74 159.42 513.648 159.392 512.444 159.28C512.752 159.756 512.948 160.54 512.976 161.072C514.236 161.128 515.412 161.128 516.028 161.072C516.784 161.016 517.232 160.848 517.68 160.344C518.408 159.476 518.744 157.096 519.108 150.796C519.136 150.516 519.136 149.928 519.136 149.928H512.612ZM513.004 152.812C513.76 153.988 514.516 155.556 514.824 156.648L516.112 156.088C515.804 155.052 515.02 153.512 514.236 152.364L513.004 152.812ZM555.76 152.224H558.056C557.3 148.024 563.992 147.156 563.992 142.928C563.992 139.708 561.472 137.692 557.524 137.692C554.472 137.692 552.288 138.98 550.44 140.94L551.952 142.34C553.576 140.632 555.34 139.792 557.244 139.792C560.1 139.792 561.5 141.192 561.5 143.124C561.5 146.316 554.892 147.576 555.76 152.224ZM556.964 159.14C557.944 159.14 558.756 158.412 558.756 157.292C558.756 156.172 557.944 155.416 556.964 155.416C555.956 155.416 555.144 156.172 555.144 157.292C555.144 158.412 555.956 159.14 556.964 159.14Z" fill="#67695E"/>
<path d="M105 213.5H280C287.456 213.5 293.5 219.544 293.5 227V244C293.5 251.456 287.456 257.5 280 257.5H105C97.5442 257.5 91.5 251.456 91.5 244V227C91.5 219.544 97.5442 213.5 105 213.5Z" stroke="#BEE6F6" stroke-width="3"/>
<path d="M345 213.5H520C527.456 213.5 533.5 219.544 533.5 227V244C533.5 251.456 527.456 257.5 520 257.5H345C337.544 257.5 331.5 251.456 331.5 244V227C331.5 219.544 337.544 213.5 345 213.5Z" fill="#BEE6F6" stroke="#BEE6F6" stroke-width="3"/>
<path d="M438.9 227.55H425.975V225.525H438.9V227.55ZM438.9 230.925H425.975V228.9H438.9V230.925ZM440.75 224.1H424.15V232.35H440.75V224.1ZM433.625 240.125H441.875V238.475H433.625V235.7H443.5V234.025H421.55V235.7H431.8V243.225C429.65 242.65 428.05 241.5 427.075 239.25C427.325 238.45 427.55 237.625 427.725 236.75L425.85 236.5C425.175 240.15 423.6 242.95 421 244.625C421.4 244.925 422.125 245.625 422.375 245.95C424 244.75 425.3 243.2 426.275 241.25C428.3 244.625 431.475 245.425 436.5 245.425H443.3C443.4 244.875 443.7 244.075 443.95 243.65C442.675 243.675 437.5 243.675 436.575 243.675C435.525 243.675 434.525 243.625 433.625 243.525V240.125Z" fill="white"/>
<path d="M191.55 235.825H193.4V228.2C194.075 227.6 194.7 226.925 195.275 226.25H203.275V224.5H181.75V226.25H192.775C189.9 229.275 185.425 231.7 181 233.15C181.4 233.55 182.025 234.4 182.3 234.825C185.475 233.625 188.775 231.9 191.55 229.775V235.825ZM198.725 238.175V243.05H186.375V238.175H198.725ZM184.5 245.925H186.375V244.725H198.725V245.875H200.7V236.525H184.5V245.925ZM194.45 229.925C197.325 231.1 200.75 233.1 202.55 234.55L203.875 233.15C202.05 231.775 198.625 229.85 195.775 228.675L194.45 229.925Z" fill="#C1A78E"/>
<path d="M209.476 231.252C208.541 231.252 208.277 230.944 208.277 230.229V224.806H215.713V223.981H207.386V230.185C207.386 231.615 208.024 232.077 209.564 232.077H214.096C214.866 232.077 215.647 232.055 215.944 231.989C215.9 231.769 215.834 231.373 215.823 231.142C215.438 231.208 214.635 231.252 214.074 231.252H209.476ZM214.822 237.003L214.679 237.058H207.727V237.883H214.283C213.766 239.181 212.996 240.358 212.094 241.381C211.181 240.578 210.224 239.797 209.333 239.126L208.706 239.654C209.619 240.347 210.587 241.161 211.511 241.997C210.158 243.328 208.563 244.34 206.99 244.901C207.166 245.077 207.397 245.429 207.518 245.66C209.146 245.011 210.763 243.988 212.149 242.591C213.282 243.68 214.283 244.747 214.899 245.605L215.625 244.978C214.965 244.098 213.92 243.031 212.743 241.953C213.876 240.666 214.822 239.104 215.405 237.3L214.822 237.003Z" fill="#C1A78E"/>
<path d="M220.468 234.668L221.273 233.755H222.133V233.809L220.769 235.281H220.162L218.813 233.809V233.755H219.657L220.468 234.668Z" fill="#C1A78E"/>
<path d="M438.9 227.55H425.975V225.525H438.9V227.55ZM438.9 230.925H425.975V228.9H438.9V230.925ZM440.75 224.1H424.15V232.35H440.75V224.1ZM433.625 240.125H441.875V238.475H433.625V235.7H443.5V234.025H421.55V235.7H431.8V243.225C429.65 242.65 428.05 241.5 427.075 239.25C427.325 238.45 427.55 237.625 427.725 236.75L425.85 236.5C425.175 240.15 423.6 242.95 421 244.625C421.4 244.925 422.125 245.625 422.375 245.95C424 244.75 425.3 243.2 426.275 241.25C428.3 244.625 431.475 245.425 436.5 245.425H443.3C443.4 244.875 443.7 244.075 443.95 243.65C442.675 243.675 437.5 243.675 436.575 243.675C435.525 243.675 434.525 243.625 433.625 243.525V240.125Z" fill="white"/>
<path d="M458.404 230.94H449.92V231.816H457.492V234.444H450.328V235.524C450.328 236.856 450.112 238.884 448.396 240.336C448.624 240.456 448.984 240.732 449.152 240.9C450.988 239.328 451.264 237.072 451.264 235.536V235.32H458.404V230.94Z" fill="white"/>
<path d="M462.053 227.808C462.141 227.984 462.249 228.184 462.377 228.408C462.513 228.624 462.653 228.836 462.797 229.044C462.949 229.252 463.085 229.432 463.205 229.584V229.728H462.497C462.313 229.584 462.105 229.4 461.873 229.176C461.641 228.944 461.425 228.716 461.225 228.492C461.033 228.26 460.889 228.072 460.793 227.928V227.808H462.053Z" fill="white"/>
<path d="M124.94 143.36C125.792 142.52 126.704 141.416 127.544 140.264L126.908 139.82L126.692 139.916H120.86V140.792H126.056C125.372 141.776 124.58 142.64 124.316 142.904C123.992 143.252 123.644 143.516 123.392 143.576C123.536 143.768 123.716 144.176 123.776 144.368C123.884 144.284 124.28 144.224 124.796 144.224H128.54C128.072 146.768 127.58 148.04 127.016 148.472C126.836 148.604 126.644 148.628 126.356 148.628C125.984 148.628 125.144 148.604 124.292 148.52C124.472 148.784 124.592 149.156 124.604 149.42C125.408 149.48 126.176 149.492 126.572 149.468C127.1 149.444 127.412 149.372 127.748 149.072C128.444 148.472 128.972 147.032 129.536 143.792C129.572 143.648 129.596 143.36 129.596 143.36H124.94ZM120.404 157.936V158.908H129.476V157.936H120.404Z" fill="#67695E"/>
<path d="M170.404 139.936V140.908H179.476V139.936H170.404ZM180.064 159.348C179.632 158.268 178.732 156.6 177.964 155.328L177.136 155.688C177.448 156.216 177.772 156.816 178.084 157.416L172.72 158.088C174.652 156.468 176.656 154.416 178.444 152.064L177.664 151.488C177.124 152.244 176.524 152.988 175.912 153.684L172.372 153.948C173.572 152.772 174.784 151.284 175.816 149.748L174.988 149.244C173.944 151.02 172.36 152.844 171.868 153.312C171.4 153.78 171.076 154.092 170.776 154.152C170.896 154.404 171.052 154.86 171.088 155.052C171.388 154.932 171.844 154.848 175.144 154.548C173.956 155.844 172.864 156.864 172.384 157.26C171.628 157.92 171.136 158.316 170.776 158.4C170.896 158.664 171.088 159.096 171.136 159.3C171.592 159.096 172.24 159 178.468 158.16C178.768 158.76 179.02 159.324 179.188 159.768L180.064 159.348Z" fill="#67695E"/>
<path d="M223.89 135.85C223.36 136.89 222.25 138.65 221.31 139.98C222.52 141.53 223.74 143.41 224.25 144.58L225.03 144.17C224.49 143.1 223.3 141.34 222.21 139.97C223.04 138.77 224.07 137.32 224.67 136.13L223.89 135.85ZM227.29 136.01C226.74 137.02 225.61 138.71 224.64 139.99C225.87 141.48 227.12 143.3 227.66 144.42L228.44 144.01C227.89 142.98 226.66 141.29 225.56 139.98C226.41 138.84 227.46 137.43 228.08 136.3L227.29 136.01ZM228.79 152.61C228.16 151.66 227.13 150.48 225.98 149.28C226.86 148.11 227.62 146.82 228.26 145.41L227.5 145.17C226.94 146.45 226.24 147.64 225.43 148.72C224.45 147.72 223.41 146.74 222.46 145.9L221.89 146.4C222.87 147.28 223.93 148.32 224.92 149.36C223.83 150.68 222.56 151.78 221.15 152.6C221.32 152.76 221.61 153.08 221.72 153.25C223.1 152.38 224.35 151.26 225.46 149.93C226.56 151.13 227.53 152.31 228.12 153.24L228.79 152.61ZM228.25 158.08L228.11 158.12H227.1C227.47 156.97 227.88 155.58 228.13 154.59L227.56 154.47L227.43 154.51H221.37V155.23H227.17C226.95 156.07 226.62 157.21 226.32 158.12H222.74C223.11 157.42 223.47 156.51 223.7 155.67L222.91 155.44C222.71 156.41 222.27 157.44 222.13 157.71C222 157.99 221.86 158.19 221.72 158.22C221.81 158.43 221.94 158.79 221.98 158.96C222.08 158.88 222.44 158.84 223.01 158.84H227.86C227.57 160.04 227.03 161.46 226.59 162.2C226.78 162.3 227.05 162.49 227.19 162.61C227.78 161.64 228.45 159.9 228.79 158.36L228.25 158.08Z" fill="#67695E"/>
<path d="M278.564 141.664H272.569C272.877 140.96 273.174 140.058 273.35 139.222L272.47 138.969C272.338 139.948 271.953 140.993 271.854 141.268C271.733 141.554 271.612 141.741 271.458 141.785C271.568 142.005 271.7 142.412 271.755 142.599C271.865 142.511 272.261 142.467 272.844 142.467H277.629C277.321 145.679 276.98 147.087 276.529 147.483C276.375 147.615 276.21 147.637 275.946 147.637C275.638 147.637 274.857 147.626 274.043 147.549C274.208 147.791 274.329 148.154 274.351 148.407C275.088 148.451 275.825 148.473 276.221 148.44C276.683 148.418 276.969 148.33 277.255 148.022C277.816 147.472 278.168 145.954 278.531 142.093L278.564 141.664ZM270.787 156.358V157.249H279.103V156.358H270.787Z" fill="#67695E"/>
<path d="M330.037 134.695H322.26V135.498H329.201V137.907H322.634V138.897C322.634 140.118 322.436 141.977 320.863 143.308C321.072 143.418 321.402 143.671 321.556 143.825C323.239 142.384 323.492 140.316 323.492 138.908V138.71H330.037V134.695ZM330.169 151.571C329.476 150.526 328.343 149.228 327.078 147.908C328.046 146.621 328.882 145.202 329.586 143.651L328.75 143.387C328.134 144.795 327.364 146.104 326.473 147.292C325.395 146.192 324.251 145.114 323.206 144.19L322.579 144.74C323.657 145.708 324.823 146.852 325.912 147.996C324.713 149.448 323.316 150.658 321.765 151.56C321.952 151.736 322.271 152.088 322.392 152.275C323.91 151.318 325.285 150.086 326.506 148.623C327.716 149.943 328.783 151.241 329.432 152.264L330.169 151.571ZM324.625 152.86C323.833 153.388 322.601 154.037 321.578 154.4C321.732 154.653 321.897 154.95 322.018 155.236C322.942 154.796 323.855 154.301 324.603 153.828C325.747 157.436 327.474 159.548 329.685 161C329.894 160.813 330.202 160.494 330.444 160.34C327.936 158.789 326.319 156.754 325.274 153.069L324.625 152.86Z" fill="#67695E"/>
<path d="M381.323 138.069H373.414V141.061C373.414 142.623 373.271 144.691 371.962 146.154C372.16 146.242 372.512 146.495 372.655 146.638C374.041 145.098 374.25 142.766 374.25 141.072V138.872H381.323V138.069ZM381.169 158.571C380.476 157.526 379.343 156.228 378.078 154.908C379.046 153.621 379.882 152.202 380.586 150.651L379.75 150.387C379.134 151.795 378.364 153.104 377.473 154.292C376.395 153.192 375.251 152.114 374.206 151.19L373.579 151.74C374.657 152.708 375.823 153.852 376.912 154.996C375.713 156.448 374.316 157.658 372.765 158.56C372.952 158.736 373.271 159.088 373.392 159.275C374.91 158.318 376.285 157.086 377.506 155.623C378.716 156.943 379.783 158.241 380.432 159.264L381.169 158.571Z" fill="#67695E"/>
<path d="M427.627 137.664C427.781 136.861 427.891 135.992 427.99 135.046L427.154 134.98C427.066 135.948 426.945 136.85 426.791 137.664H424.283C424.547 136.971 424.811 136.091 424.943 135.277L424.096 135.024C423.997 135.981 423.645 137.015 423.557 137.279C423.447 137.565 423.337 137.752 423.194 137.785C423.293 138.005 423.425 138.401 423.48 138.577V138.588C423.579 138.5 423.986 138.456 424.613 138.456H426.615C425.988 141.03 424.822 142.79 422.512 143.901C422.688 144.066 422.985 144.418 423.084 144.594C425.548 143.285 426.78 141.349 427.462 138.456H430.124C429.86 141.723 429.552 143.087 429.156 143.45C429.013 143.582 428.881 143.604 428.639 143.604C428.364 143.604 427.704 143.593 427.011 143.527C427.165 143.758 427.264 144.121 427.286 144.363C427.935 144.407 428.584 144.418 428.936 144.396C429.354 144.363 429.607 144.275 429.871 143.978C430.377 143.461 430.674 141.987 430.993 138.082C431.015 137.961 431.026 137.664 431.026 137.664H427.627ZM422.787 147.358V148.249H431.103V147.358H422.787ZM430.575 155.688L430.421 155.732H429.31C429.717 154.467 430.168 152.938 430.443 151.849L429.816 151.717L429.673 151.761H423.007V152.553H429.387C429.145 153.477 428.782 154.731 428.452 155.732H424.514C424.921 154.962 425.317 153.961 425.57 153.037L424.701 152.784C424.481 153.851 423.997 154.984 423.843 155.281C423.7 155.589 423.546 155.809 423.392 155.842C423.491 156.073 423.634 156.469 423.678 156.656C423.788 156.568 424.184 156.524 424.811 156.524H430.146C429.827 157.844 429.233 159.406 428.749 160.22C428.958 160.33 429.255 160.539 429.409 160.671C430.058 159.604 430.795 157.69 431.169 155.996L430.575 155.688Z" fill="#67695E"/>
<path d="M482.543 135.948H473.501V136.773H477.56V144.561H478.451V136.773H482.543V135.948ZM473.787 147.358V148.249H482.103V147.358H473.787ZM481.575 155.688L481.421 155.732H480.31C480.717 154.467 481.168 152.938 481.443 151.849L480.816 151.717L480.673 151.761H474.007V152.553H480.387C480.145 153.477 479.782 154.731 479.452 155.732H475.514C475.921 154.962 476.317 153.961 476.57 153.037L475.701 152.784C475.481 153.851 474.997 154.984 474.843 155.281C474.7 155.589 474.546 155.809 474.392 155.842C474.491 156.073 474.634 156.469 474.678 156.656C474.788 156.568 475.184 156.524 475.811 156.524H481.146C480.827 157.844 480.233 159.406 479.749 160.22C479.958 160.33 480.255 160.539 480.409 160.671C481.058 159.604 481.795 157.69 482.169 155.996L481.575 155.688Z" fill="#67695E"/>
<path d="M524.952 139.849V148.341H525.821V140.685H532.201V148.341H533.103V139.849H524.952ZM532.388 152.321C531.53 153.399 530.21 154.708 529.077 155.643C528.142 154.686 526.701 153.377 525.502 152.354L524.875 152.893C526.129 153.982 527.68 155.489 528.593 156.501V161.341H529.451V156.402C530.628 155.445 532.069 154.048 533.136 152.849L532.388 152.321Z" fill="#67695E"/>
<path d="M134.465 152.002L135.344 151.006H136.281V151.064L134.793 152.67H134.131L132.66 151.064V151.006H133.58L134.465 152.002Z" fill="#67695E"/>
<path d="M184.553 145.808C184.641 145.984 184.749 146.184 184.877 146.408C185.013 146.624 185.153 146.836 185.297 147.044C185.449 147.252 185.585 147.432 185.705 147.584V147.728H184.997C184.813 147.584 184.605 147.4 184.373 147.176C184.141 146.944 183.925 146.716 183.725 146.492C183.533 146.26 183.389 146.072 183.293 145.928V145.808H184.553Z" fill="#67695E"/>
<path d="M283.553 149.808C283.641 149.984 283.749 150.184 283.877 150.408C284.013 150.624 284.153 150.836 284.297 151.044C284.449 151.252 284.585 151.432 284.705 151.584V151.728H283.997C283.813 151.584 283.605 151.4 283.373 151.176C283.141 150.944 282.925 150.716 282.725 150.492C282.533 150.26 282.389 150.072 282.293 149.928V149.808H283.553Z" fill="#67695E"/>
<path d="M334.465 149.002L335.344 148.006H336.281V148.064L334.793 149.67H334.131L332.66 148.064V148.006H333.58L334.465 149.002Z" fill="#67695E"/>
<path d="M386.705 146.928C386.609 147.072 386.461 147.26 386.261 147.492C386.061 147.716 385.845 147.944 385.613 148.176C385.389 148.4 385.181 148.584 384.989 148.728H384.293V148.584C384.413 148.432 384.541 148.252 384.677 148.044C384.821 147.836 384.961 147.624 385.097 147.408C385.233 147.184 385.345 146.984 385.433 146.808H386.705V146.928Z" fill="#67695E"/>
<path d="M436.705 146.928C436.609 147.072 436.461 147.26 436.261 147.492C436.061 147.716 435.845 147.944 435.613 148.176C435.389 148.4 435.181 148.584 434.989 148.728H434.293V148.584C434.413 148.432 434.541 148.252 434.677 148.044C434.821 147.836 434.961 147.624 435.097 147.408C435.233 147.184 435.345 146.984 435.433 146.808H436.705V146.928Z" fill="#67695E"/>
<path d="M486.553 147.808C486.641 147.984 486.749 148.184 486.877 148.408C487.013 148.624 487.153 148.836 487.297 149.044C487.449 149.252 487.585 149.432 487.705 149.584V149.728H486.997C486.813 149.584 486.605 149.4 486.373 149.176C486.141 148.944 485.925 148.716 485.725 148.492C485.533 148.26 485.389 148.072 485.293 147.928V147.808H486.553Z" fill="#67695E"/>
<path d="M528.867 135.99C528.867 135.814 528.92 135.666 529.025 135.545C529.135 135.424 529.295 135.363 529.506 135.363C529.717 135.363 529.877 135.424 529.986 135.545C530.096 135.666 530.15 135.814 530.15 135.99C530.15 136.166 530.096 136.312 529.986 136.43C529.877 136.547 529.717 136.605 529.506 136.605C529.295 136.605 529.135 136.547 529.025 136.43C528.92 136.312 528.867 136.166 528.867 135.99Z" fill="#67695E"/>
<rect x="7.5" y="7.5" width="626" height="311" rx="48.5" stroke="#BEE6F6" stroke-width="15"/>
</svg>
