<svg width="1486" height="756" viewBox="0 0 1486 756" fill="none" xmlns="http://www.w3.org/2000/svg">
<rect x="17.5" y="17.501" width="1451" height="721" rx="82.5" fill="white" stroke="#BEE6F6" stroke-width="35"/>
<path d="M203.69 314.104L203.69 316.656L214.448 316.656L214.448 314.104L203.69 314.104ZM217.484 320.22L217.462 320.616C216.758 325.742 215.9 328.492 214.91 329.218C214.536 329.482 214.162 329.526 213.634 329.526C212.886 329.526 211.104 329.504 209.454 329.35C210.004 330.098 210.378 331.22 210.422 331.968C211.984 332.056 213.502 332.078 214.382 332.012C215.592 331.924 216.34 331.726 217.088 330.978C218.32 329.878 219.222 327.172 220.08 321.386C220.168 321.012 220.234 320.22 220.234 320.22L217.484 320.22ZM209.014 323.058C209.014 322.618 210.576 321.826 210.576 321.826L210.576 321.76C212.402 320.176 214.58 317.69 216.34 315.16L214.602 313.862L213.524 314.28L213.524 314.412C212.336 316.678 210.334 318.922 209.74 319.516C209.168 320.154 208.486 320.682 207.958 320.814C208.332 321.386 208.86 322.552 209.014 323.058ZM209.014 323.058C209.212 322.86 210.158 322.728 211.016 322.728L219.178 322.728L219.178 320.22L210.29 320.22L209.014 320.924L209.014 323.058ZM202.986 349.232L202.986 352.136L219.882 352.136L219.882 349.232L202.986 349.232Z" fill="#67695E"/>
<path d="M333.986 312.232L333.986 315.136L350.882 315.136L350.882 312.232L333.986 312.232ZM345.866 344.016C347.164 346.37 348.748 349.582 349.43 351.584L352.026 350.308C351.234 348.284 349.672 345.27 348.286 342.916L345.866 344.016ZM335.306 350.902C335.306 350.396 337.264 349.582 337.264 349.582L337.264 349.516C341.268 346.48 345.602 342.432 349.21 337.548L347.032 335.81C343.666 340.672 338.98 345.138 337.374 346.37C335.922 347.558 335.086 348.196 334.272 348.394C334.624 349.12 335.152 350.374 335.306 350.902ZM335.306 350.902C336.428 350.396 337.99 350.198 350.266 348.482C350.068 347.954 349.76 346.964 349.628 346.282L336.736 347.888L335.196 348.812L335.306 350.902ZM335.24 343.444C335.24 342.96 336.934 342.146 336.934 342.146L336.934 342.08C339.486 339.836 342.17 336.69 344.194 333.5L341.84 331.982C340.102 335.238 337.33 338.56 336.406 339.396C335.548 340.254 335.02 340.76 334.36 340.914C334.668 341.618 335.13 342.938 335.24 343.444ZM335.24 343.444C336.01 343.114 337.22 342.872 345.008 341.992C345.14 341.442 345.514 340.32 345.866 339.638L336.56 340.518L335.13 341.354L335.24 343.444Z" fill="#67695E"/>
<path d="M605.186 311.02L605.164 311.46C604.658 318.126 603.998 321.338 603.096 322.086C602.766 322.35 602.414 322.416 601.908 322.416C601.226 322.416 599.598 322.394 597.992 322.24C598.52 323.032 598.938 324.22 598.982 325.012C600.478 325.078 601.996 325.122 602.898 325.012C604.02 324.902 604.746 324.66 605.472 323.868C606.594 322.702 607.276 319.622 607.914 312.252C607.958 311.878 608.002 311.02 608.002 311.02L605.186 311.02ZM593.812 313.902C594.01 313.682 595.066 313.572 596.122 313.572L606.968 313.572L606.99 311.02L595.198 311.02L593.812 311.79L593.812 313.902ZM593.812 313.902C593.812 313.352 595.66 312.428 595.66 312.428L595.66 312.384C596.386 310.888 597.288 308.6 597.662 306.576L594.846 305.828C594.626 307.786 593.944 309.788 593.746 310.316C593.504 310.888 593.196 311.262 592.866 311.394C593.174 312.076 593.636 313.33 593.812 313.902ZM591.986 342.232L591.986 345.136L608.882 345.136L608.882 342.232L591.986 342.232Z" fill="#67695E"/>
<path d="M725.668 300.06L725.668 302.634L739.22 302.634L739.22 306.44L727.538 306.44L727.538 308.992L741.904 308.992L741.904 300.06L725.668 300.06ZM726.504 306.44L726.504 308.904C726.504 311.104 726.13 314.8 722.984 317.11C723.644 317.484 724.722 318.32 725.184 318.804C728.748 316.12 729.254 311.698 729.254 308.948L729.254 306.44L726.504 306.44ZM738.318 321.422C735.436 328.484 730.684 334.292 724.612 337.636C725.206 338.186 726.262 339.33 726.658 339.924C732.796 336.14 737.834 329.87 741.046 322.258L738.318 321.422ZM726.108 324.986C731.102 329.43 737.46 335.7 740.166 339.858L742.52 337.526C739.594 333.346 732.972 327.362 728.088 323.16L726.108 324.986ZM742.52 359.372C741.706 359.856 740.672 360.868 739.99 361.396C735.898 358.58 732.598 354.334 730.266 347.536C728.836 348.504 727.494 349.406 725.69 350.396C725.294 349.472 724.722 348.548 724.194 347.756C726.24 346.964 728.792 345.556 730.376 344.412L732.444 345.006C734.424 351.98 737.504 356.27 742.52 359.372Z" fill="#67695E"/>
<path d="M996.11 304.042L996.11 304.504C995.626 311.39 995.01 314.426 994.24 315.13C993.932 315.416 993.668 315.482 993.206 315.482C992.612 315.482 991.336 315.46 990.016 315.328C990.522 316.076 990.852 317.242 990.918 318.012C992.216 318.078 993.514 318.078 994.284 317.99C995.252 317.88 995.89 317.638 996.55 316.868C997.562 315.768 998.178 312.754 998.75 305.252C998.816 304.9 998.86 304.042 998.86 304.042L996.11 304.042ZM983.262 306.858C983.46 306.638 984.538 306.528 985.66 306.528L997.364 306.528L997.386 304.042L984.67 304.042L983.262 304.834L983.262 306.858ZM983.262 306.836C983.262 306.308 985.154 305.384 985.154 305.384L985.154 305.362C985.77 303.888 986.54 301.622 986.826 299.664L984.164 298.938C984.01 300.852 983.372 302.854 983.196 303.404C982.976 303.976 982.69 304.328 982.382 304.438C982.69 305.098 983.108 306.286 983.262 306.836ZM990.148 298.85C989.422 307.76 987.42 313.216 980.864 316.032C981.414 316.582 982.338 317.77 982.624 318.342C989.532 314.91 991.93 308.904 992.854 299.07L990.148 298.85ZM981.986 329.232L981.986 332.136L998.882 332.136L998.882 329.232L981.986 329.232ZM983.856 355.016C984.076 354.796 985.11 354.686 986.21 354.686L997.364 354.686L997.364 352.156L985.242 352.156L983.856 352.948L983.856 355.016ZM996.352 352.156L996.352 352.794C995.802 355.588 994.35 359.262 993.118 361.154C993.756 361.484 994.724 362.122 995.23 362.518C996.792 360.23 998.398 356.644 999.234 353.08L997.298 352.046L996.792 352.156L996.352 352.156ZM983.856 355.016C983.856 354.488 985.638 353.586 985.638 353.586L985.638 353.542C986.474 352.09 987.508 349.802 988.014 347.8L985.242 347.052C984.912 348.988 984.142 350.946 983.856 351.474C983.614 352.024 983.284 352.42 982.954 352.508C983.262 353.212 983.702 354.444 983.856 355.016ZM982.448 344.302L982.448 346.81L995.604 346.81L995.604 344.302L982.448 344.302ZM994.79 344.302L994.79 344.588C994.35 346.524 993.382 350.11 992.502 352.816L995.142 353.256C996.022 350.55 996.99 347.228 997.584 344.566L995.56 344.192L995.12 344.302L994.79 344.302Z" fill="#67695E"/>
<path d="M1110.39 300.5L1110.39 303.118L1128.63 303.118L1128.63 300.5L1110.39 300.5ZM1118.07 302.15L1118.07 318.056L1120.95 318.056L1120.95 302.15L1118.07 302.15ZM1110.99 329.232L1110.99 332.136L1127.88 332.136L1127.88 329.232L1110.99 329.232ZM1112.86 355.016C1113.08 354.796 1114.11 354.686 1115.21 354.686L1126.36 354.686L1126.36 352.156L1114.24 352.156L1112.86 352.948L1112.86 355.016ZM1125.35 352.156L1125.35 352.794C1124.8 355.588 1123.35 359.262 1122.12 361.154C1122.76 361.484 1123.72 362.122 1124.23 362.518C1125.79 360.23 1127.4 356.644 1128.23 353.08L1126.3 352.046L1125.79 352.156L1125.35 352.156ZM1112.86 355.016C1112.86 354.488 1114.64 353.586 1114.64 353.586L1114.64 353.542C1115.47 352.09 1116.51 349.802 1117.01 347.8L1114.24 347.052C1113.91 348.988 1113.14 350.946 1112.86 351.474C1112.61 352.024 1112.28 352.42 1111.95 352.508C1112.26 353.212 1112.7 354.444 1112.86 355.016ZM1111.45 344.302L1111.45 346.81L1124.6 346.81L1124.6 344.302L1111.45 344.302ZM1123.79 344.302L1123.79 344.588C1123.35 346.524 1122.38 350.11 1121.5 352.816L1124.14 353.256C1125.02 350.55 1125.99 347.228 1126.58 344.566L1124.56 344.192L1124.12 344.302L1123.79 344.302Z" fill="#67695E"/>
<path d="M1241.32 311.434L1241.32 328.814L1244.13 328.814L1244.13 314.118L1254.89 314.118L1254.89 328.814L1257.84 328.814L1257.84 311.434L1241.32 311.434ZM1240.88 340.116C1243.67 342.536 1247.21 345.946 1248.97 347.948L1251.02 345.704C1249.19 343.768 1245.72 340.688 1242.86 338.334L1240.88 340.116ZM1255.9 338.268C1253.79 340.908 1250.49 343.944 1247.96 345.726L1250.12 347.464C1252.6 345.572 1255.81 342.69 1258.28 339.984L1255.9 338.268ZM1248.16 345.374L1248.16 356.682L1250.95 356.682L1250.95 345.374L1248.16 345.374Z" fill="#67695E"/>
<path d="M1247.86 299.229C1247.86 298.814 1248 298.47 1248.29 298.198C1248.58 297.926 1248.97 297.79 1249.45 297.79C1249.93 297.79 1250.31 297.926 1250.6 298.198C1250.89 298.47 1251.04 298.814 1251.04 299.229C1251.04 299.645 1250.89 299.989 1250.6 300.261C1250.31 300.526 1249.93 300.658 1249.45 300.658C1248.97 300.658 1248.58 300.526 1248.29 300.261C1248 299.989 1247.86 299.645 1247.86 299.229Z" fill="#67695E"/>
<path d="M857 305.962L857 308.514L871.41 308.514L871.41 305.962L857 305.962ZM855.042 305.962L855.042 312.034C855.042 315.114 854.8 319.25 852.248 322.066C852.886 322.352 854.052 323.122 854.514 323.584C857.264 320.526 857.704 315.554 857.704 312.056L857.704 305.962L855.042 305.962ZM867.318 332.422C864.436 339.484 859.684 345.292 853.612 348.636C854.206 349.186 855.262 350.33 855.658 350.924C861.796 347.14 866.834 340.87 870.046 333.258L867.318 332.422ZM855.108 335.986C860.102 340.43 866.46 346.7 869.166 350.858L871.52 348.526C868.594 344.346 861.972 338.362 857.088 334.16L855.108 335.986Z" fill="#67695E"/>
<path d="M884.599 321.368C884.393 321.573 884.122 321.823 883.785 322.116C883.447 322.409 883.081 322.717 882.685 323.04C882.303 323.363 881.922 323.671 881.541 323.964C881.174 324.243 880.851 324.477 880.573 324.668L878.395 324.668L878.395 324.382C878.629 324.103 878.901 323.781 879.209 323.414C879.531 323.033 879.847 322.644 880.155 322.248C880.463 321.837 880.719 321.471 880.925 321.148L884.599 321.148L884.599 321.368Z" fill="#67695E"/>
<path d="M468.552 297.916C467.408 300.336 465.032 304.164 462.92 307.156C465.67 310.742 468.2 314.724 469.344 317.452L472.182 316.022C470.95 313.602 468.552 310.082 466.154 307.134C467.914 304.538 469.916 301.986 471.368 298.906L468.552 297.916ZM476.186 298.356C474.998 300.666 472.6 304.318 470.444 307.178C473.216 310.588 475.79 314.394 476.978 317.012L479.838 315.582C478.584 313.272 476.142 309.95 473.744 307.156C475.526 304.714 477.55 302.272 479.024 299.368L476.186 298.356ZM476.318 320.422C473.436 327.484 468.684 333.292 462.612 336.636C463.206 337.186 464.262 338.33 464.658 338.924C470.796 335.14 475.834 328.87 479.046 321.258L476.318 320.422ZM464.108 323.986C469.102 328.43 475.46 334.7 478.166 338.858L480.52 336.526C477.594 332.346 470.972 326.362 466.088 322.16L464.108 323.986ZM464.856 354.016C465.076 353.796 466.11 353.686 467.21 353.686L478.364 353.686L478.364 351.156L466.242 351.156L464.856 351.948L464.856 354.016ZM477.352 351.156L477.352 351.794C476.802 354.588 475.35 358.262 474.118 360.154C474.756 360.484 475.724 361.122 476.23 361.518C477.792 359.23 479.398 355.644 480.234 352.08L478.298 351.046L477.792 351.156L477.352 351.156ZM464.856 354.016C464.856 353.488 466.638 352.586 466.638 352.586L466.638 352.542C467.474 351.09 468.508 348.802 469.014 346.8L466.242 346.052C465.912 347.988 465.142 349.946 464.856 350.474C464.614 351.024 464.284 351.42 463.954 351.508C464.262 352.212 464.702 353.444 464.856 354.016ZM463.448 343.302L463.448 345.81L476.604 345.81L476.604 343.302L463.448 343.302ZM475.79 343.302L475.79 343.588C475.35 345.524 474.382 349.11 473.502 351.816L476.142 352.256C477.022 349.55 477.99 346.228 478.584 343.566L476.56 343.192L476.12 343.302L475.79 343.302Z" fill="#67695E"/>
<path d="M227.878 336.5L229.468 338.058L231.058 336.5L233.7 336.5L233.7 336.607L230.456 339.615L228.49 339.615L225.235 336.597L225.235 336.5L227.878 336.5Z" fill="#67695E"/>
<path d="M362.069 323.148C362.289 323.471 362.545 323.837 362.839 324.248C363.147 324.644 363.455 325.033 363.763 325.414C364.085 325.781 364.364 326.103 364.599 326.382L364.599 326.668L362.421 326.668C362.142 326.477 361.812 326.243 361.431 325.964C361.064 325.671 360.683 325.363 360.287 325.04C359.905 324.717 359.546 324.409 359.209 324.116C358.871 323.823 358.6 323.573 358.395 323.368L358.395 323.148L362.069 323.148Z" fill="#67695E"/>
<path d="M620.069 329.148C620.289 329.471 620.545 329.837 620.839 330.248C621.147 330.644 621.455 331.033 621.763 331.414C622.085 331.781 622.364 332.103 622.599 332.382L622.599 332.668L620.421 332.668C620.142 332.477 619.812 332.243 619.431 331.964C619.064 331.671 618.683 331.363 618.287 331.04C617.905 330.717 617.546 330.409 617.209 330.116C616.871 329.823 616.6 329.573 616.395 329.368L616.395 329.148L620.069 329.148Z" fill="#67695E"/>
<path d="M751.878 327.5L753.468 329.058L755.058 327.5L757.7 327.5L757.7 327.607L754.456 330.615L752.49 330.615L749.235 327.597L749.235 327.5L751.878 327.5Z" fill="#67695E"/>
<path d="M1013.6 328.368C1013.39 328.573 1013.12 328.823 1012.78 329.116C1012.45 329.409 1012.08 329.717 1011.68 330.04C1011.3 330.363 1010.92 330.671 1010.54 330.964C1010.17 331.243 1009.85 331.477 1009.57 331.668L1007.39 331.668L1007.39 331.382C1007.63 331.103 1007.9 330.781 1008.21 330.414C1008.53 330.033 1008.85 329.644 1009.15 329.248C1009.46 328.837 1009.72 328.471 1009.92 328.148L1013.6 328.148L1013.6 328.368Z" fill="#67695E"/>
<path d="M1140.07 328.148C1140.29 328.471 1140.55 328.837 1140.84 329.248C1141.15 329.644 1141.45 330.033 1141.76 330.414C1142.09 330.781 1142.36 331.103 1142.6 331.382L1142.6 331.668L1140.42 331.668C1140.14 331.477 1139.81 331.243 1139.43 330.964C1139.06 330.671 1138.68 330.363 1138.29 330.04C1137.91 329.717 1137.55 329.409 1137.21 329.116C1136.87 328.823 1136.6 328.573 1136.39 328.368L1136.39 328.148L1140.07 328.148Z" fill="#67695E"/>
<path d="M614.712 205.82L614.712 211.34L587.009 211.34L587.009 205.82L614.712 205.82ZM588.063 183.812L588.063 235L581.278 235L581.278 183.812L588.063 183.812ZM620.618 183.812L620.618 235L613.868 235L613.868 183.812L620.618 183.812ZM645.959 196.961L645.959 235L639.42 235L639.42 196.961L645.959 196.961ZM638.927 186.871C638.927 185.816 639.244 184.926 639.877 184.199C640.533 183.473 641.494 183.109 642.759 183.109C644.002 183.109 644.951 183.473 645.607 184.199C646.287 184.926 646.627 185.816 646.627 186.871C646.627 187.879 646.287 188.746 645.607 189.473C644.951 190.176 644.002 190.527 642.759 190.527C641.494 190.527 640.533 190.176 639.877 189.473C639.244 188.746 638.927 187.879 638.927 186.871ZM736.184 220.059L736.184 183.812L742.934 183.812L742.934 220.059C742.934 223.434 742.242 226.281 740.859 228.602C739.477 230.922 737.566 232.691 735.129 233.91C732.715 235.105 729.938 235.703 726.797 235.703C723.656 235.703 720.867 235.164 718.43 234.086C715.992 233.008 714.082 231.367 712.699 229.164C711.316 226.961 710.625 224.184 710.625 220.832L717.41 220.832C717.41 222.988 717.809 224.758 718.605 226.141C719.402 227.523 720.504 228.543 721.91 229.199C723.34 229.855 724.969 230.184 726.797 230.184C728.578 230.184 730.172 229.809 731.578 229.059C733.008 228.285 734.133 227.148 734.953 225.648C735.773 224.125 736.184 222.262 736.184 220.059ZM758.923 216.402L758.923 215.594C758.923 212.852 759.321 210.309 760.118 207.965C760.915 205.598 762.063 203.547 763.563 201.812C765.063 200.055 766.88 198.695 769.013 197.734C771.145 196.75 773.536 196.258 776.184 196.258C778.856 196.258 781.259 196.75 783.391 197.734C785.548 198.695 787.376 200.055 788.876 201.812C790.399 203.547 791.559 205.598 792.356 207.965C793.153 210.309 793.552 212.852 793.552 215.594L793.552 216.402C793.552 219.145 793.153 221.687 792.356 224.031C791.559 226.375 790.399 228.426 788.876 230.184C787.376 231.918 785.559 233.277 783.427 234.262C781.317 235.223 778.927 235.703 776.255 235.703C773.583 235.703 771.18 235.223 769.048 234.262C766.915 233.277 765.087 231.918 763.563 230.184C762.063 228.426 760.915 226.375 760.118 224.031C759.321 221.687 758.923 219.145 758.923 216.402ZM765.427 215.594L765.427 216.402C765.427 218.301 765.649 220.094 766.095 221.781C766.54 223.445 767.208 224.922 768.098 226.211C769.013 227.5 770.149 228.52 771.509 229.27C772.868 229.996 774.45 230.359 776.255 230.359C778.036 230.359 779.595 229.996 780.93 229.27C782.29 228.52 783.415 227.5 784.305 226.211C785.196 224.922 785.864 223.445 786.309 221.781C786.778 220.094 787.013 218.301 787.013 216.402L787.013 215.594C787.013 213.719 786.778 211.949 786.309 210.285C785.864 208.598 785.184 207.109 784.27 205.82C783.38 204.508 782.255 203.477 780.895 202.727C779.559 201.977 777.989 201.602 776.184 201.602C774.403 201.602 772.833 201.977 771.473 202.727C770.138 203.477 769.013 204.508 768.098 205.82C767.208 207.109 766.54 208.598 766.095 210.285C765.649 211.949 765.427 213.719 765.427 215.594ZM815.412 181L815.412 235L808.908 235L808.908 181L815.412 181ZM813.865 214.539L811.158 214.434C811.181 211.832 811.568 209.43 812.318 207.227C813.068 205 814.123 203.066 815.482 201.426C816.841 199.785 818.459 198.52 820.334 197.629C822.232 196.715 824.33 196.258 826.627 196.258C828.502 196.258 830.189 196.516 831.689 197.031C833.189 197.523 834.466 198.32 835.521 199.422C836.599 200.523 837.42 201.953 837.982 203.711C838.545 205.445 838.826 207.566 838.826 210.074L838.826 235L832.287 235L832.287 210.004C832.287 208.012 831.994 206.418 831.408 205.223C830.822 204.004 829.966 203.125 828.841 202.586C827.716 202.023 826.334 201.742 824.693 201.742C823.076 201.742 821.599 202.082 820.263 202.762C818.951 203.441 817.814 204.379 816.853 205.574C815.916 206.77 815.177 208.141 814.638 209.687C814.123 211.211 813.865 212.828 813.865 214.539ZM862.268 205.082L862.268 235L855.764 235L855.764 196.961L861.916 196.961L862.268 205.082ZM860.721 214.539L858.014 214.434C858.037 211.832 858.424 209.43 859.174 207.227C859.924 205 860.979 203.066 862.338 201.426C863.698 199.785 865.315 198.52 867.19 197.629C869.088 196.715 871.186 196.258 873.483 196.258C875.358 196.258 877.045 196.516 878.545 197.031C880.045 197.523 881.323 198.32 882.377 199.422C883.455 200.523 884.276 201.953 884.838 203.711C885.401 205.445 885.682 207.566 885.682 210.074L885.682 235L879.143 235L879.143 210.004C879.143 208.012 878.85 206.418 878.264 205.223C877.678 204.004 876.823 203.125 875.698 202.586C874.573 202.023 873.19 201.742 871.549 201.742C869.932 201.742 868.455 202.082 867.12 202.762C865.807 203.441 864.67 204.379 863.709 205.574C862.772 206.77 862.034 208.141 861.495 209.687C860.979 211.211 860.721 212.828 860.721 214.539ZM159.78 294.88C157.404 305.464 153.228 315.832 147.9 322.528C149.124 323.32 151.284 325.048 152.22 325.984C157.764 318.64 162.3 307.552 165.108 296.032L159.78 294.88ZM158.556 325.408C156.54 334.048 153.084 342.616 148.62 348.16C149.916 348.808 152.22 350.248 153.3 351.112C157.692 345.064 161.58 335.92 163.812 326.488L158.556 325.408ZM159.132 308.416L157.044 313.456L191.532 313.456L191.532 308.416L159.132 308.416ZM170.292 310.504L170.292 354.208C170.292 355.144 170.004 355.432 169.068 355.432C168.06 355.432 164.964 355.504 161.58 355.36C162.372 356.944 163.164 359.32 163.524 360.832C167.988 360.832 171.084 360.688 173.028 359.752C175.044 358.888 175.692 357.304 175.692 354.208L175.692 310.504L170.292 310.504ZM180.876 326.488C184.836 334.048 188.436 344.2 189.588 350.824L194.7 349.096C193.476 342.4 189.876 332.464 185.7 324.904L180.876 326.488ZM189.948 308.416L189.948 309.208C189.228 313.96 188.292 320.008 187.5 323.608L192.18 324.472C193.116 320.584 194.34 314.392 195.348 309.064L191.604 308.272L190.668 308.416L189.948 308.416ZM145.308 294.808C141.276 305.752 134.508 316.552 127.38 323.536C128.388 324.76 129.9 327.64 130.476 328.864C138.252 320.8 145.668 308.632 150.42 296.392L145.308 294.808ZM137.82 313.384L137.82 360.688L143.004 360.688L143.004 308.344L142.86 308.272L137.82 313.384ZM259.14 333.904L259.14 338.44L324.66 338.44L324.66 333.904L259.14 333.904ZM260.868 297.688L260.868 302.44L322.86 302.44L322.86 297.688L260.868 297.688ZM284.124 326.344C279.66 333.4 272.964 343.048 268.356 348.88L273.468 350.608C278.076 344.704 284.7 335.272 289.38 327.784L284.124 326.344ZM305.724 335.488C299.964 349.528 285.852 354.64 260.148 356.008C261.012 357.232 261.876 359.176 262.236 360.76C289.236 358.744 304.572 352.84 310.908 337L305.724 335.488ZM272.244 348.16C290.532 351.544 308.172 356.44 319.188 360.976L322.428 356.584C311.268 352.192 292.764 347.368 274.98 344.2L272.244 348.16ZM280.524 299.488L280.524 324.616L285.636 324.616L285.636 299.488L280.524 299.488ZM297.3 299.488L297.3 324.616L302.412 324.616L302.412 299.488L297.3 299.488ZM269.508 313.024L314.436 313.024L314.436 322.816L269.508 322.816L269.508 313.024ZM264.468 308.632L264.468 327.28L319.836 327.28L319.836 308.632L264.468 308.632ZM414.228 332.248C416.1 334.768 417.828 338.08 418.404 340.312L421.5 339.088C420.924 336.928 419.124 333.688 417.252 331.24L414.228 332.248ZM402.492 325.984C405.372 328.144 408.54 331.24 409.98 333.472L412.212 330.952C410.7 328.792 407.532 325.84 404.652 323.824L402.492 325.984ZM411.06 319.072C409.836 321.16 407.532 324.4 405.804 326.488L408.468 327.712C410.268 325.84 412.572 323.104 414.516 320.512L411.06 319.072ZM416.244 324.112C413.652 327.712 408.9 333.184 405.3 336.424L407.676 337.72C411.348 334.624 415.956 329.656 419.412 325.552L416.244 324.112ZM423.588 340.312L423.588 359.464L427.62 359.464L427.62 340.312L423.588 340.312ZM401.556 335.92L402.06 339.304C406.884 339.016 412.716 338.656 418.836 338.152L418.836 334.984C412.284 335.416 406.092 335.704 401.556 335.92ZM433.668 331.888C435.756 334.552 437.7 338.152 438.42 340.6L441.588 339.376C440.868 336.928 438.78 333.4 436.764 330.88L433.668 331.888ZM419.988 325.912C422.94 328.072 426.252 331.312 427.692 333.616L430.068 331.168C428.628 328.936 425.244 325.84 422.364 323.752L419.988 325.912ZM429.06 318.928C427.692 321.16 425.172 324.76 423.3 326.92L425.964 328.144C427.98 326.128 430.428 323.176 432.516 320.368L429.06 318.928ZM434.172 324.256C431.436 327.928 426.396 333.328 422.652 336.496L425.028 337.792C428.916 334.768 433.812 329.872 437.412 325.84L434.172 324.256ZM420.924 335.92L421.716 339.304C426.612 338.944 432.66 338.584 438.708 338.08L438.708 334.912C431.868 335.344 425.604 335.704 420.924 335.92ZM404.436 341.392L404.436 351.544L416.892 351.544L416.892 348.16L408.108 348.16L408.108 341.392L404.436 341.392ZM434.604 341.392L434.604 348.16L426.468 348.16L426.468 351.544L438.348 351.544L438.348 341.392L434.604 341.392ZM414.948 340.312L414.948 346.72C414.948 350.68 413.94 354.712 405.948 357.16C406.884 357.88 408.108 359.392 408.612 360.328C417.612 357.16 418.908 352.192 418.908 346.792L418.908 340.312L414.948 340.312ZM394.572 306.976L394.572 310.648L414.804 310.648L414.804 306.976L394.572 306.976ZM427.692 306.976L427.692 310.648L448.428 310.648L448.428 306.976L427.692 306.976ZM446.412 297.616L446.412 353.992C446.412 354.928 446.124 355.288 445.188 355.288C444.18 355.36 441.156 355.36 437.988 355.216C438.708 356.656 439.428 359.176 439.644 360.616C444.108 360.616 447.204 360.544 449.148 359.608C451.092 358.672 451.668 357.016 451.668 353.992L451.668 297.616L446.412 297.616ZM395.004 297.616L395.004 301.576L413.076 301.576L413.076 315.832L395.004 315.832L395.004 319.792L418.188 319.792L418.188 297.616L395.004 297.616ZM449.004 297.616L424.596 297.616L424.596 319.792L449.004 319.792L449.004 315.832L429.708 315.832L429.708 301.576L449.004 301.576L449.004 297.616ZM391.764 297.616L391.764 360.832L396.948 360.832L396.948 297.616L391.764 297.616ZM532.884 330.592L532.884 335.128L569.46 335.128L569.46 330.592L532.884 330.592ZM553.332 324.184L553.332 353.344C553.332 354.136 553.044 354.352 552.18 354.424C551.316 354.424 548.508 354.424 545.412 354.352C546.132 355.576 546.852 357.52 547.14 358.816C551.46 358.816 554.196 358.816 555.924 358.024C557.724 357.232 558.228 355.864 558.228 353.416L558.228 324.184L553.332 324.184ZM552.396 333.544C547.788 340.456 538.86 347.296 530.94 350.536C532.092 351.472 533.532 353.2 534.396 354.424C542.316 350.536 551.388 342.976 556.284 335.2L552.396 333.544ZM524.244 307.84L524.244 311.8L544.26 311.8L544.26 307.84L524.244 307.84ZM557.436 307.84L557.436 311.8L577.812 311.8L577.812 307.84L557.436 307.84ZM575.58 297.616L575.58 353.488C575.58 354.856 575.076 355.288 573.78 355.288C572.34 355.36 567.66 355.432 562.836 355.216C563.7 356.728 564.564 359.248 564.852 360.76C571.188 360.76 575.292 360.688 577.74 359.824C580.116 358.888 580.98 357.16 580.98 353.56L580.98 297.616L575.58 297.616ZM524.676 297.616L524.676 301.792L542.604 301.792L542.604 318.208L524.676 318.208L524.676 322.384L547.716 322.384L547.716 297.616L524.676 297.616ZM578.244 297.616L554.196 297.616L554.196 322.456L578.244 322.456L578.244 318.352L559.38 318.352L559.38 301.792L578.244 301.792L578.244 297.616ZM521.58 297.616L521.58 360.832L526.908 360.832L526.908 297.616L521.58 297.616ZM648.588 313.024L648.588 318.424L670.26 318.424L670.26 313.024L648.588 313.024ZM677.964 294.736L677.964 353.2C677.964 354.568 677.388 355 676.02 355.072C674.508 355.072 669.9 355.144 664.716 354.928C665.58 356.584 666.66 359.248 666.876 360.832C673.572 360.832 677.748 360.688 680.196 359.68C682.572 358.744 683.58 357.016 683.58 353.2L683.58 294.736L677.964 294.736ZM668.388 313.024L668.388 314.248C665.364 330.736 657.084 343.048 646.788 349.528C648.084 350.392 650.244 352.552 651.18 353.848C661.764 346.648 670.476 333.184 674.148 314.176L670.476 312.808L669.54 313.024L668.388 313.024ZM683.292 306.472L678.972 307.48C684.3 328.792 694.092 347.152 710.508 355.288C711.444 353.632 713.316 351.472 714.684 350.392C698.556 343.336 688.26 325.84 683.292 306.472ZM706.764 306.256C702.012 312.664 693.66 321.088 687.54 326.056L691.356 329.08C697.62 324.256 705.828 316.336 711.732 309.784L706.764 306.256ZM778.98 300.496L778.98 304.888L841.692 304.888L841.692 300.496L778.98 300.496ZM777.684 354.352L777.684 358.96L843.06 358.96L843.06 354.352L777.684 354.352ZM784.308 310.576L784.308 314.968L836.364 314.968L836.364 310.576L784.308 310.576ZM779.556 319.72L779.556 331.096L784.74 331.096L784.74 324.184L835.428 324.184L835.428 331.096L840.828 331.096L840.828 319.72L779.556 319.72ZM807.276 294.52L807.276 313.168L812.82 313.168L812.82 294.52L807.276 294.52ZM814.836 330.664L814.836 334.984L829.092 334.984L829.092 342.904L814.836 342.904L814.836 347.224L834.204 347.224L834.204 330.664L814.836 330.664ZM814.836 345.28L814.836 356.656L819.948 356.656L819.948 345.28L814.836 345.28ZM805.26 321.304L800.22 321.304L800.22 332.536L805.26 332.536L805.26 321.304ZM805.26 345.352L800.148 345.352L800.148 356.872L805.26 356.872L805.26 345.352ZM814.836 321.304L814.836 332.896L819.876 332.896L819.876 321.304L814.836 321.304ZM805.26 330.664L786.396 330.664L786.396 347.224L805.26 347.224L805.26 342.904L791.292 342.904L791.292 334.984L805.26 334.984L805.26 330.664ZM921.54 322.96L907.212 322.96L907.212 328L916.356 328L916.356 348.448L921.54 348.448L921.54 322.96ZM921.54 346.288L916.86 346.288C913.476 349.384 909.588 352.624 906.42 354.928L909.228 360.184C912.828 357.016 916.14 353.92 919.308 350.824C923.772 356.512 930.324 359.032 939.828 359.392C947.892 359.752 963.3 359.608 971.436 359.248C971.652 357.664 972.516 355.144 973.164 353.92C964.452 354.496 947.82 354.712 939.828 354.352C931.26 354.064 924.924 351.616 921.54 346.288ZM907.86 299.344C912.252 302.872 917.22 307.912 919.236 311.512L923.7 308.128C921.468 304.6 916.428 299.632 911.964 296.392L907.86 299.344ZM925.644 301L925.644 305.536L970.932 305.536L970.932 301L925.644 301ZM924.564 339.016L924.564 343.552L972.012 343.552L972.012 339.016L924.564 339.016ZM945.156 294.592L945.156 351.76L950.484 351.76L950.484 294.592L945.156 294.592ZM934.068 324.04L961.932 324.04L961.932 329.8L934.068 329.8L934.068 324.04ZM934.068 314.536L961.932 314.536L961.932 320.224L934.068 320.224L934.068 314.536ZM929.1 310.504L929.1 333.904L967.188 333.904L967.188 310.504L929.1 310.504ZM1097.8 330.592C1094.92 333.832 1089.88 338.512 1086.28 341.248L1089.59 343.84C1093.33 341.32 1098.23 337.288 1102.12 333.76L1097.8 330.592ZM1079.94 294.448C1079.08 297.328 1077.35 301.36 1075.98 304.024L1080.52 305.176C1082.17 302.8 1084.19 299.056 1085.92 295.6L1079.94 294.448ZM1070.15 316.768L1094.41 316.768L1094.41 323.032L1070.15 323.032L1070.15 316.768ZM1070.15 306.328L1094.41 306.328L1094.41 312.592L1070.15 312.592L1070.15 306.328ZM1065.18 302.008L1065.18 327.424L1099.6 327.424L1099.6 302.008L1065.18 302.008ZM1079.72 325.048L1079.72 355C1079.72 355.792 1079.51 356.008 1078.57 356.008C1077.71 356.08 1074.83 356.08 1071.59 356.008C1072.24 357.376 1072.88 359.392 1073.03 360.76C1077.56 360.76 1080.44 360.688 1082.32 359.896C1084.12 359.104 1084.62 357.736 1084.62 355L1084.62 325.048L1079.72 325.048ZM1062.44 333.688L1062.44 338.224L1074.47 338.224L1074.47 333.688L1062.44 333.688ZM1073.24 333.688L1073.24 334.552C1071.16 343.984 1065.97 350.608 1059.2 354.136C1060.28 354.928 1061.94 356.728 1062.59 357.88C1069.79 353.776 1075.48 346.216 1078.07 334.768L1075.12 333.544L1074.18 333.688L1073.24 333.688ZM1083.97 325.408L1081.02 329.08C1082.96 338.44 1088.15 351.472 1100.46 357.808C1101.18 356.44 1102.76 354.424 1103.77 353.416C1091.17 347.944 1085.99 335.56 1083.97 325.408ZM1047.61 294.592C1045.74 299.344 1042.36 306.4 1039.76 310.576L1043.44 312.16C1046.24 308.2 1049.63 301.72 1052.36 296.392L1047.61 294.592ZM1055.68 302.8C1051.72 310.36 1044.95 321.088 1039.55 327.496L1042.86 329.368C1048.26 323.104 1055.24 312.88 1060.21 304.888L1055.68 302.8ZM1036.09 309.568C1039.91 313.24 1044.23 318.352 1046.03 321.808L1049.12 317.776C1047.25 314.464 1042.86 309.64 1038.97 306.112L1036.09 309.568ZM1052.87 319.288C1055.75 324.04 1058.56 330.448 1059.49 334.48L1063.74 332.536C1062.73 328.576 1059.78 322.384 1056.76 317.632L1052.87 319.288ZM1035.52 326.416L1036.09 331.24C1042.64 330.808 1051.28 330.304 1059.85 329.728L1059.85 325.192C1050.78 325.696 1041.78 326.128 1035.52 326.416ZM1054.74 336.712C1056.47 340.816 1057.98 346.216 1058.34 349.672L1062.52 348.376C1062.08 344.92 1060.57 339.592 1058.7 335.488L1054.74 336.712ZM1039.84 335.704C1039.04 341.968 1037.68 348.448 1035.37 352.84C1036.45 353.344 1038.61 354.28 1039.48 354.856C1041.78 350.248 1043.44 343.336 1044.37 336.496L1039.84 335.704ZM1047.47 328.504L1047.47 360.76L1052.22 360.76L1052.22 328.504L1047.47 328.504ZM1171.09 301.432L1171.09 306.472L1182.61 306.472L1182.61 335.2L1171.09 335.2L1171.09 340.24L1187.58 340.24L1187.58 301.432L1171.09 301.432ZM1168.28 301.432L1168.28 347.008L1173.18 347.008L1173.18 301.432L1168.28 301.432ZM1195.72 309.28L1195.72 313.672L1227.25 313.672L1227.25 309.28L1195.72 309.28ZM1195.72 320.44L1195.72 324.832L1227.25 324.832L1227.25 320.44L1195.72 320.44ZM1192.76 331.744L1192.76 336.352L1227.04 336.352L1227.04 331.744L1192.76 331.744ZM1192.76 297.904L1192.76 334.264L1197.88 334.264L1197.88 302.656L1228.69 302.656L1228.69 297.904L1192.76 297.904ZM1208.89 300.064L1208.89 333.904L1213.86 333.904L1213.86 300.064L1208.89 300.064ZM1225.81 331.744L1225.81 332.608C1225.02 348.232 1224.16 354.064 1222.86 355.432C1222.28 356.152 1221.56 356.296 1220.48 356.296C1219.33 356.296 1216.52 356.224 1213.43 355.936C1214.22 357.232 1214.72 359.248 1214.8 360.616C1218.04 360.76 1221.13 360.76 1222.79 360.688C1224.66 360.472 1225.88 360.04 1227.04 358.744C1228.91 356.512 1229.84 350.32 1230.71 333.976C1230.78 333.256 1230.78 331.744 1230.78 331.744L1225.81 331.744ZM1191.61 339.88C1190.75 345.568 1188.95 352.12 1185.85 356.008L1189.81 358.096C1193.05 353.992 1194.71 346.936 1195.64 341.032L1191.61 339.88ZM1199.03 341.032C1200.18 345.64 1200.83 351.472 1200.61 355.288L1204.64 354.64C1204.79 350.824 1204.14 344.992 1202.84 340.456L1199.03 341.032ZM1206.95 340.528C1208.75 344.344 1210.4 349.456 1210.91 352.84L1214.72 351.544C1214.08 348.304 1212.35 343.192 1210.48 339.376L1206.95 340.528ZM1214.87 339.304C1216.88 342.328 1218.83 346.36 1219.62 349.168L1223 347.728C1222.14 345.064 1220.12 341.032 1218.04 338.008L1214.87 339.304ZM1324.67 337.648L1330.57 337.648C1328.7 326.848 1345.91 324.616 1345.91 313.744C1345.91 305.464 1339.36 300.208 1329.2 300.208C1321.43 300.208 1315.81 303.592 1311.06 308.632L1314.88 312.16C1319.05 307.84 1323.59 305.68 1328.56 305.68C1335.9 305.68 1339.43 309.28 1339.43 314.248C1339.43 322.456 1322.51 325.624 1324.67 337.648ZM1327.76 355.36C1330.28 355.36 1332.37 353.56 1332.37 350.68C1332.37 347.8 1330.28 345.856 1327.76 345.856C1325.24 345.856 1323.16 347.8 1323.16 350.68C1323.16 353.56 1325.17 355.36 1327.76 355.36Z" fill="#67695E"/>
</svg>
