<svg width="710" height="753" viewBox="0 0 710 753" fill="none" xmlns="http://www.w3.org/2000/svg">
<rect x="11.0312" y="41.124" width="667.777" height="667.777" rx="142.5" stroke="#FFD5C2" stroke-width="15"/>
<path d="M612.653 390.602L589.563 361.887L454.595 470.416L404.546 408.175C474.364 339.842 482.213 228.384 419.743 150.695C353.254 68.0076 232.352 54.8798 149.702 121.339C67.0146 187.829 53.8867 308.73 120.376 391.417C182.846 469.106 293.391 485.363 375.117 431.839L425.165 494.08L290.196 602.609L313.287 631.324L448.255 522.795L545.602 643.857L575.031 620.193L477.685 499.131L612.653 390.602ZM154.128 364.278C102.629 300.232 112.797 206.59 176.842 155.091C240.887 103.591 334.53 113.759 386.029 177.805C437.528 241.85 427.292 335.485 363.285 386.954C299.239 438.453 205.597 428.285 154.128 364.278Z" fill="#FFD5C2"/>
</svg>
