<svg width="165" height="64" viewBox="0 0 165 64" fill="none" xmlns="http://www.w3.org/2000/svg">
<path d="M48.912 18.272H51.792V19.604H48.912V18.272ZM48.912 14.672H51.792V15.932H48.912V14.672ZM48.912 11.108H51.792V12.332H48.912V11.108ZM44.52 25.832C45.168 26.336 45.852 26.948 46.32 27.344C47.544 26.336 49.092 24.536 50.064 22.988L48.3 22.052H52.152L50.82 23.06C51.648 23.852 52.656 24.968 53.16 25.652L55.464 23.816C55.068 23.312 54.42 22.664 53.736 22.052H54.996V8.588H45.816V22.052H47.076C46.536 22.952 45.708 23.96 44.88 24.788C44.196 23.744 42.288 21.116 41.46 20.072V18.812H44.7V14.924H41.46V7.508H37.644V14.924H33.792V18.812H37.356C36.528 23.096 34.836 28.1 32.964 30.944C33.54 31.916 34.368 33.464 34.764 34.58C35.844 32.852 36.816 30.44 37.644 27.812V41.096H41.46V24.464C42.108 25.724 42.756 27.092 43.116 27.992L44.52 25.832ZM58.704 31.484C58.272 32.672 57.66 33.608 56.868 34.364C55.284 33.86 53.664 33.392 52.224 32.996L53.196 31.484H58.704ZM59.424 18.272H62.376V19.604H59.424V18.272ZM59.424 14.672H62.376V15.932H59.424V14.672ZM59.424 11.108H62.376V12.332H59.424V11.108ZM56.112 26.66L56.904 27.38C58.128 26.336 59.676 24.536 60.648 22.988L58.884 22.052H63.06L61.512 23.024C62.592 24.32 63.888 26.048 64.5 27.164L67.02 25.436C66.444 24.536 65.364 23.168 64.356 22.052H65.652V8.588H56.292V22.052H57.66C56.904 23.276 55.716 24.68 54.636 25.508C55.032 25.796 55.5 26.156 55.932 26.552L52.188 25.616C51.756 26.408 51.288 27.272 50.784 28.136H44.376V31.484H48.804C47.94 32.852 47.076 34.184 46.356 35.228L50.028 36.236L50.352 35.804C51.144 36.02 51.972 36.308 52.836 36.56C50.604 37.208 47.724 37.496 44.052 37.604C44.628 38.432 45.204 39.944 45.42 41.204C50.892 40.664 54.888 39.908 57.732 38.324C60.216 39.296 62.484 40.304 64.032 41.204L66.588 38.252C65.076 37.46 63.06 36.56 60.828 35.732C61.764 34.58 62.448 33.176 62.916 31.484H66.948V28.136H55.248L56.112 26.66ZM110.472 24.788C109.896 23.852 107.376 20.288 106.332 18.992V18.164H109.248V14.204H106.332V7.508H102.3V14.204H98.232V18.164H102.192C101.292 22.448 99.672 27.524 97.692 30.332C98.34 31.484 99.312 33.428 99.672 34.688C100.608 33.104 101.508 30.908 102.3 28.496V41.096H106.332V24.356C106.98 25.652 107.592 26.912 107.952 27.848L110.472 24.788ZM115.332 18.128C114.756 16.364 113.928 14.348 113.1 12.656L109.968 13.952C111.084 16.4 112.236 19.712 112.632 21.8L115.332 20.648V22.7C115.332 23.276 115.332 23.924 115.296 24.536C112.956 26.192 110.544 27.848 108.96 28.784L111.012 32.816C112.272 31.736 113.568 30.512 114.9 29.252C114.216 32.888 112.596 36.236 108.528 38.216C109.356 38.9 110.688 40.448 111.264 41.312C118.032 37.136 119.22 29.576 119.22 22.7V7.544H115.332V18.128ZM126.096 36.884C125.484 36.884 125.412 36.668 125.412 35.084V27.164C126.996 28.928 128.544 30.8 129.372 32.132L132.144 29.468C130.956 27.74 128.292 25.04 126.348 23.024L125.412 23.852V20.288L127.824 21.44C129.048 19.568 130.416 16.58 131.748 13.988L127.824 12.404C127.284 14.384 126.348 16.94 125.412 18.956V7.544H121.38V35.048C121.38 39.476 122.244 40.736 125.304 40.736H128.148C130.776 40.736 131.748 38.936 132.18 34.4C131.028 34.112 129.552 33.428 128.616 32.708C128.508 35.948 128.364 36.884 127.788 36.884H126.096Z" fill="#767753"/>
<path d="M69.574 18.644V20.45H82.454V18.644H69.574ZM72.85 36.432C74.474 33.982 76.154 30.818 77.4 27.458L75.51 26.912C74.404 30.384 72.458 34.052 71.8 34.976C71.198 35.914 70.82 36.46 70.344 36.6C70.596 37.076 70.946 37.972 71.044 38.308C71.828 38.07 72.976 38.154 81.712 37.79C81.656 37.426 81.586 36.628 81.628 36.166L72.85 36.432Z" fill="#767753"/>
<path d="M151.95 18.168V16.516H146.574C146.882 15.62 147.176 14.696 147.442 13.772L145.524 13.296C145.272 14.374 144.95 15.466 144.614 16.516H140.022V18.168H144.026C143.354 20.016 142.682 21.514 142.36 22.074C141.814 23.11 141.478 23.698 141.016 23.852C141.268 24.342 141.618 25.238 141.716 25.588C142.388 25.28 143.284 25.182 149.29 24.398C149.654 24.986 149.962 25.532 150.186 25.994L151.782 25.07C151.082 23.796 149.71 21.822 148.534 20.296L147.022 21.024C147.428 21.584 147.876 22.228 148.31 22.872L143.592 23.418C144.404 21.864 145.23 20.072 145.958 18.168H151.95ZM152.076 38.182C151.572 36.908 150.564 34.99 149.696 33.478L148.142 34.178C148.422 34.682 148.716 35.242 149.01 35.816L144.292 36.404C146.35 34.654 148.464 32.526 150.284 30.076L148.884 28.97C148.268 29.852 147.596 30.706 146.91 31.504L143.648 31.812C144.88 30.552 146.112 29.04 147.092 27.5L145.594 26.534C144.474 28.606 142.71 30.706 142.136 31.252C141.59 31.798 141.24 32.106 140.82 32.204C141.016 32.666 141.31 33.492 141.394 33.828C141.8 33.66 142.388 33.52 145.426 33.156C144.278 34.374 143.256 35.298 142.738 35.69C141.828 36.446 141.296 36.838 140.764 36.964C141.002 37.426 141.324 38.224 141.436 38.56C142.108 38.252 143.018 38.14 149.682 37.216C149.99 37.874 150.242 38.504 150.424 39.008L152.076 38.182Z" fill="#767753"/>
<path d="M159.688 25.416C159.538 25.584 159.319 25.8033 159.03 26.074C158.75 26.3447 158.456 26.6107 158.148 26.872C157.84 27.1333 157.574 27.348 157.35 27.516H156.174V27.334C156.314 27.166 156.477 26.9607 156.664 26.718C156.85 26.4753 157.032 26.228 157.21 25.976C157.396 25.7147 157.55 25.4813 157.672 25.276H159.688V25.416Z" fill="#767753"/>
</svg>
