<svg width="513" height="81" viewBox="0 0 513 81" fill="none" xmlns="http://www.w3.org/2000/svg">
<path d="M40.224 18.312H31.008V23.304C31.008 26.184 32.016 26.904 35.568 26.904H42C44.544 26.904 45.456 26.04 45.792 22.824C44.928 22.632 43.776 22.248 43.152 21.816C43.008 24.072 42.768 24.36 41.616 24.36H35.904C34.32 24.36 34.032 24.168 34.032 23.256V20.808H43.392V12.696H30.096V15.192H40.224V18.312ZM24.768 18.312H15.36V23.304C15.36 26.184 16.272 26.904 19.824 26.904H25.776C28.224 26.904 29.136 26.088 29.472 22.968C28.608 22.824 27.456 22.44 26.832 21.96C26.688 24.072 26.448 24.36 25.296 24.36H20.112C18.576 24.36 18.336 24.168 18.336 23.304V20.808H27.792V12.696H14.496V15.192H24.768V18.312ZM25.536 33.72H33.408V38.28H25.536V33.72ZM45.504 38.28H36.816V33.72H44.016V30.984H36.816V27.528H33.408V30.984H25.536V27.528H22.224V30.984H15.12V33.72H22.224V38.28H13.584V41.064H45.504V38.28ZM44.784 47.448C42.528 45.672 38.592 43.368 35.088 41.688L32.544 43.272C35.856 44.952 39.312 47.208 41.328 48.984L44.784 47.448ZM23.808 41.592C21.696 43.512 18.144 45.336 14.88 46.632C15.648 47.112 16.944 48.264 17.52 48.888C20.688 47.352 24.528 45 26.976 42.696L23.808 41.592ZM12.672 19.944C11.328 17.544 8.16 14.232 5.328 11.976L2.592 13.8C5.376 16.152 8.448 19.56 9.696 21.96L12.672 19.944ZM11.568 29.64H2.352V33H8.256V45.384C6.144 47.4 3.792 49.416 1.776 50.904L3.648 54.216C5.952 52.104 8.112 50.088 10.128 47.976C13.104 51.768 17.472 53.496 23.808 53.736C29.232 53.928 39.6 53.832 45.024 53.592C45.168 52.584 45.744 51 46.176 50.232C40.32 50.616 29.136 50.76 23.712 50.52C18.096 50.28 13.824 48.648 11.568 45.048V29.64ZM102.624 31.032C101.04 31.56 99.456 32.088 97.872 32.568V23.736H103.008V20.472H97.872V10.872H94.56V20.472H88.56V23.736H94.56V33.576C92.064 34.344 89.76 35.064 87.936 35.544L88.848 39L94.56 37.128V50.52C94.56 51.24 94.32 51.384 93.744 51.384C93.168 51.432 91.296 51.432 89.232 51.384C89.712 52.344 90.144 53.832 90.288 54.648C93.264 54.696 95.088 54.552 96.24 54.024C97.44 53.448 97.872 52.488 97.872 50.52V36.072L103.104 34.344L102.624 31.032ZM122.352 39.432H112.704L114.048 39.048C113.808 37.896 113.04 36.168 112.32 34.872H123.216C122.688 36.216 121.872 37.944 121.248 39.096L122.352 39.432ZM115.488 15.384H120.24V20.424H115.488V15.384ZM112.608 20.424H108.048V15.384H112.608V20.424ZM123.12 15.384H127.968V20.424H123.12V15.384ZM132.384 32.04H119.328V28.632H130.032V25.944H119.328V22.968H130.944V12.792H105.12V22.968H115.968V25.944H105.648V28.632H115.968V32.04H103.296V34.872H111.168L109.2 35.352C109.872 36.552 110.544 38.184 110.88 39.432H103.728V42.216H115.968V45.624H104.736V48.408H115.968V55.032H119.328V48.408H130.656V45.624H119.328V42.216H131.712V39.432H124.272C125.04 38.184 125.904 36.648 126.816 35.064L126.096 34.872H132.384V32.04ZM198.72 49.704V37.512H214.128V34.056H198.72V23.592H215.904V20.088H198.72V10.872H195.072V20.088H185.328C186.384 17.64 187.248 15.048 188.016 12.408L184.416 11.64C182.544 18.456 179.472 25.08 175.536 29.304C176.496 29.784 178.08 30.84 178.8 31.416C180.576 29.256 182.256 26.616 183.792 23.592H195.072V34.056H180.816V37.512H195.072V49.704H175.632V53.16H218.16V49.704H198.72ZM276.144 41.352L270.912 43.08V31.176H275.712V27.864H270.912V17.448H276.432V14.088H261.552V17.448H267.504V27.864H262.08V31.176H267.504V44.136C265.056 44.952 262.848 45.624 261.072 46.152L261.888 49.752C266.16 48.36 271.632 46.488 276.768 44.76L276.144 41.352ZM282.048 25.176H289.344V31.272H282.048V25.176ZM282.048 16.152H289.344V22.2H282.048V16.152ZM299.76 22.2H292.416V16.152H299.76V22.2ZM299.76 31.272H292.416V25.176H299.76V31.272ZM292.704 49.848V43.272H303.888V40.008H292.704V34.392H303.168V13.032H278.784V34.392H289.104V40.008H278.208V43.272H289.104V49.848H274.512V53.112H305.424V49.848H292.704ZM349.872 33.144C351.12 29.64 352.032 24.216 352.272 20.28L349.584 19.896C349.248 23.784 348.384 29.016 347.088 32.184L349.872 33.144ZM354 54.648H357.552V10.824H354V54.648ZM357.888 19.656C359.232 22.296 360.672 25.752 361.2 27.816L363.888 26.52C363.312 24.504 361.824 21.096 360.384 18.504L357.888 19.656ZM378.96 49.608V37.608H388.752V34.296H378.96V24.36H389.808V20.952H378.96V11.016H375.408V20.952H369.408C370.08 18.6 370.656 16.104 371.136 13.608L367.68 13.032C366.576 19.56 364.656 25.992 361.872 30.168C362.736 30.552 364.32 31.32 365.04 31.8C366.336 29.736 367.44 27.24 368.4 24.36H375.408V34.296H365.232V37.608H375.408V49.608H361.68V53.016H390.96V49.608H378.96ZM440.016 16.248H452.208V25.464H440.016V16.248ZM444.96 33.768C445.152 32.04 445.296 30.312 445.392 28.632H455.568V13.032H436.704V28.632H441.936C441.456 37.32 440.304 47.112 433.776 52.296C434.64 52.824 435.744 53.976 436.224 54.744C441.264 50.568 443.52 43.944 444.576 36.984H452.448C452.016 46.44 451.536 50.088 450.672 51.048C450.24 51.48 449.856 51.576 449.04 51.576C448.176 51.576 445.92 51.576 443.568 51.336C444.144 52.152 444.48 53.496 444.576 54.456C446.88 54.552 449.232 54.6 450.432 54.456C451.872 54.36 452.688 54.072 453.504 53.112C454.8 51.624 455.28 47.256 455.856 35.304C455.856 34.872 455.904 33.768 455.904 33.768H444.96ZM463.92 16.584H460.464V42.984H463.92V16.584ZM472.128 11.784V49.944C472.128 50.856 471.744 51.144 470.88 51.144C469.968 51.192 466.944 51.24 463.584 51.096C464.16 52.104 464.688 53.736 464.88 54.696C469.248 54.696 471.936 54.648 473.52 54.072C475.008 53.448 475.68 52.344 475.68 49.944V11.784H472.128Z" fill="#60794D"/>
<path d="M68.055 11.25H53.962V13.256H59.895V24.816H62.122V13.256H68.055V11.25ZM65.199 25.808V36.841L57.039 37.062V25.791H55.05V35.787C55.05 36.603 54.54 37.283 54.149 37.589C54.489 37.963 55.101 38.847 55.339 39.34C56.121 39.085 57.243 39.136 65.199 38.813V39.935H67.307V25.808H65.199ZM66.27 47.064L65.879 47.166H64.859C65.454 45.262 66.1 43.086 66.491 41.301L64.91 41.012L64.57 41.097H54.795V43.018H63.89C63.567 44.293 63.125 45.823 62.717 47.166H57.821C58.314 46.146 58.807 44.905 59.096 43.8L56.954 43.222C56.699 44.701 56.087 46.231 55.883 46.639C55.679 47.064 55.441 47.353 55.169 47.438C55.424 47.965 55.747 48.917 55.883 49.359C56.036 49.189 56.835 49.104 57.685 49.104H65.165C64.621 50.957 63.771 52.963 63.023 54.119C63.533 54.374 64.264 54.85 64.672 55.156C65.862 53.405 67.12 50.634 67.766 47.863L66.27 47.064Z" fill="#60794D"/>
<path d="M142.016 17.572V19.66H146.642V32.044H148.928V19.66H153.824C153.608 23.422 153.356 25.024 152.96 25.42C152.744 25.636 152.564 25.69 152.24 25.69C151.844 25.69 150.98 25.672 150.08 25.6C150.44 26.194 150.728 27.13 150.764 27.76C151.736 27.796 152.69 27.796 153.284 27.706C153.95 27.634 154.418 27.436 154.886 26.878C155.516 26.104 155.822 23.962 156.092 18.508C156.11 18.238 156.146 17.572 156.146 17.572H142.016ZM150.512 40.938H156.29V38.85H150.512V36.582H148.244V38.85H141.674V40.938H148.244V43.044C144.806 42.936 142.286 44.394 142.286 47.022C142.286 49.524 144.806 51.252 148.46 51.252C151.61 51.27 154.202 50.37 155.912 48.21L154.292 46.698C152.924 48.228 151.07 49.11 148.208 49.11C145.742 49.11 144.428 48.192 144.428 46.842C144.428 45.276 146.534 44.43 150.512 45.024V40.938Z" fill="#60794D"/>
<path d="M241.876 17.14H228.61V19.228H239.68V22.342H229.294V24.376C229.294 26.176 228.988 29.182 226.414 31.09C226.954 31.378 227.818 32.062 228.214 32.458C231.112 30.28 231.544 26.68 231.544 24.448H241.876V17.14ZM230.95 48.984C233.038 45.834 235.198 41.766 236.8 37.446L234.37 36.744C232.948 41.208 230.446 45.924 229.6 47.112C228.826 48.318 228.34 49.02 227.728 49.2C228.052 49.812 228.502 50.964 228.628 51.396C229.636 51.09 231.112 51.198 242.344 50.73C242.272 50.262 242.182 49.236 242.236 48.642L230.95 48.984Z" fill="#60794D"/>
<path d="M322.309 20.987C322.53 19.797 322.7 18.505 322.819 17.128L320.745 16.958C320.626 18.42 320.456 19.763 320.235 20.987H317.277C317.634 19.967 317.991 18.709 318.161 17.587L316.121 17.026C315.985 18.505 315.509 20.069 315.356 20.477C315.186 20.919 314.982 21.208 314.744 21.293C314.965 21.803 315.288 22.721 315.424 23.146V23.163C315.577 22.993 316.41 22.891 317.277 22.891H319.793C318.79 26.393 316.988 28.79 313.571 30.235C313.979 30.66 314.693 31.578 314.931 32.02C318.756 30.133 320.796 27.192 321.901 22.891H325.216C324.876 27.107 324.434 29.045 323.89 29.538C323.652 29.776 323.448 29.81 323.108 29.81C322.649 29.81 321.663 29.793 320.643 29.708C321.034 30.286 321.289 31.17 321.34 31.782C322.343 31.833 323.346 31.833 323.941 31.748C324.672 31.663 325.165 31.493 325.675 30.898C326.474 30.048 326.933 27.719 327.392 21.905C327.426 21.633 327.46 20.987 327.46 20.987H322.309ZM314.438 43.452V45.679H327.494V43.452H314.438Z" fill="#60794D"/>
<path d="M331.435 39.092C331.267 38.816 331.045 38.516 330.769 38.192C330.505 37.868 330.229 37.55 329.941 37.238C329.665 36.926 329.413 36.662 329.185 36.446V36.212H330.967C331.279 36.404 331.615 36.632 331.975 36.896C332.335 37.148 332.671 37.436 332.983 37.76C333.295 37.436 333.637 37.148 334.009 36.896C334.381 36.632 334.723 36.404 335.035 36.212H336.817V36.446C336.601 36.662 336.349 36.926 336.061 37.238C335.773 37.55 335.491 37.868 335.215 38.192C334.951 38.516 334.735 38.816 334.567 39.092H331.435Z" fill="#60794D"/>
<path d="M413.055 11.25H398.962V13.256H404.895V24.816H407.122V13.256H413.055V11.25ZM399.438 31.452V33.679H412.494V31.452H399.438ZM402.175 52.096C404.147 49.121 406.187 45.279 407.7 41.199L405.405 40.536C404.062 44.752 401.699 49.206 400.9 50.328C400.169 51.467 399.71 52.13 399.132 52.3C399.438 52.878 399.863 53.966 399.982 54.374C400.934 54.085 402.328 54.187 412.936 53.745C412.868 53.303 412.783 52.334 412.834 51.773L402.175 52.096Z" fill="#60794D"/>
<path d="M488.736 13.953C489.178 12.916 489.603 11.658 489.824 10.536L487.648 9.958C487.461 11.454 486.951 13.001 486.781 13.426C486.594 13.868 486.373 14.14 486.118 14.242C486.356 14.786 486.713 15.738 486.832 16.18C486.985 16.01 487.801 15.925 488.617 15.925H495.485C495.094 19.971 494.618 22.011 494.006 22.521C493.751 22.725 493.496 22.759 493.088 22.759C492.561 22.759 491.32 22.742 490.062 22.64C490.487 23.252 490.81 24.17 490.827 24.782C492 24.833 493.173 24.85 493.853 24.765C494.72 24.68 495.281 24.51 495.842 23.881C496.726 22.98 497.236 20.6 497.746 14.905C497.763 14.633 497.814 13.953 497.814 13.953H488.736ZM485.438 31.452V33.679H498.494V31.452H485.438ZM499.361 46.469V44.429H496.063C496.097 43.545 496.114 42.678 496.114 41.896V40.468H494.091V41.862C494.091 42.661 494.074 43.528 494.023 44.429H489.79V40.638H487.733V44.429H484.639V46.469H487.733V50.855C487.733 53.575 488.685 54.459 491.252 54.459H495.332C496.301 54.459 497.355 54.425 497.848 54.272C497.746 53.796 497.644 52.861 497.593 52.334C497.083 52.436 496.182 52.521 495.434 52.521H491.15C490.079 52.521 489.79 52.113 489.79 50.974V46.469H493.785C493.581 47.761 493.241 49.087 492.68 50.345C493.292 50.566 494.159 51.042 494.635 51.416C495.315 49.818 495.689 48.118 495.893 46.469H499.361Z" fill="#60794D"/>
<path d="M420.465 32.212C420.645 32.476 420.855 32.776 421.095 33.112C421.347 33.436 421.599 33.754 421.851 34.066C422.115 34.366 422.343 34.63 422.535 34.858V35.092H420.753C420.525 34.936 420.255 34.744 419.943 34.516C419.643 34.276 419.331 34.024 419.007 33.76C418.695 33.496 418.401 33.244 418.125 33.004C417.849 32.764 417.627 32.56 417.459 32.392V32.212H420.465Z" fill="#60794D"/>
<path d="M506.535 32.392C506.367 32.56 506.145 32.764 505.869 33.004C505.593 33.244 505.293 33.496 504.969 33.76C504.657 34.024 504.345 34.276 504.033 34.516C503.733 34.744 503.469 34.936 503.241 35.092H501.459V34.858C501.651 34.63 501.873 34.366 502.125 34.066C502.389 33.754 502.647 33.436 502.899 33.112C503.151 32.776 503.361 32.476 503.529 32.212H506.535V32.392Z" fill="#60794D"/>
<path d="M73.4348 31.092C73.2668 30.816 73.0448 30.516 72.7688 30.192C72.5048 29.868 72.2288 29.55 71.9408 29.238C71.6648 28.926 71.4128 28.662 71.1848 28.446V28.212H72.9668C73.2788 28.404 73.6148 28.632 73.9748 28.896C74.3348 29.148 74.6708 29.436 74.9828 29.76C75.2948 29.436 75.6368 29.148 76.0088 28.896C76.3808 28.632 76.7228 28.404 77.0348 28.212H78.8168V28.446C78.6008 28.662 78.3488 28.926 78.0608 29.238C77.7728 29.55 77.4908 29.868 77.2148 30.192C76.9508 30.516 76.7348 30.816 76.5668 31.092H73.4348Z" fill="#60794D"/>
<path d="M165.535 32.392C165.367 32.56 165.145 32.764 164.869 33.004C164.593 33.244 164.293 33.496 163.969 33.76C163.657 34.024 163.345 34.276 163.033 34.516C162.733 34.744 162.469 34.936 162.241 35.092H160.459V34.858C160.651 34.63 160.873 34.366 161.125 34.066C161.389 33.754 161.647 33.436 161.899 33.112C162.151 32.776 162.361 32.476 162.529 32.212H165.535V32.392Z" fill="#60794D"/>
</svg>
