<svg width="200" height="59" viewBox="0 0 200 59" fill="none" xmlns="http://www.w3.org/2000/svg">
<path d="M4.356 10.964V15.284H31.644V10.964H4.356ZM6.84 22.448V26.804H28.8V22.448H6.84ZM2.34 34.58V38.972H33.588V34.58H2.34ZM81.9 16.94H97.812V18.884H81.9V16.94ZM81.9 12.008H97.812V13.916H81.9V12.008ZM92.34 36.524V34.076H101.988V30.728H92.34V28.532H103.644V25.004H92.34V22.808H87.912V25.004H82.692C83.088 24.32 83.412 23.672 83.736 23.024L80.748 22.16H102.276V8.768H77.688V22.16H79.344C78.048 24.968 75.78 27.704 73.404 29.504C74.412 30.044 76.14 31.376 76.968 32.132C78.084 31.16 79.236 29.9 80.28 28.532H87.912V30.728H78.624V34.076H87.912V36.524H74.196V40.232H105.912V36.524H92.34ZM153.864 14.744H158.04V12.548H165.78V14.744H169.992V12.548H178.092V9.164H169.992V7.544H165.78V9.164H158.04V7.544H153.864V9.164H145.98V12.548H153.864V14.744ZM170.928 27.02H167.472L169.164 25.4C168.264 24.896 167.148 24.32 165.924 23.744C167.292 22.772 168.444 21.62 169.272 20.216L167.364 19.244L166.86 19.352H162.828C163.152 18.992 163.476 18.632 163.8 18.272H170.928V27.02ZM158.436 27.02C160.2 26.552 161.964 25.94 163.512 25.184C164.844 25.832 166.068 26.444 167.004 27.02H158.436ZM153.108 18.272H160.56C159.84 18.992 158.94 19.712 157.896 20.396C157.104 20.144 156.384 19.892 155.664 19.64L153.9 21.188C154.404 21.368 154.944 21.548 155.484 21.764C154.836 22.052 154.116 22.34 153.396 22.628C154.044 22.988 154.908 23.78 155.34 24.392C156.42 23.924 157.428 23.384 158.328 22.844C159.12 23.168 159.912 23.528 160.704 23.852C158.94 24.608 156.96 25.148 154.98 25.472C155.412 25.868 155.916 26.48 156.312 27.02H153.108V18.272ZM160.632 21.296H164.988C164.484 21.764 163.908 22.16 163.296 22.556C162.36 22.16 161.424 21.8 160.488 21.404L160.632 21.296ZM175.068 15.5H163.08C163.44 14.924 163.8 14.276 164.124 13.628L159.732 13.052C159.552 13.772 159.264 14.672 158.976 15.5H149.184V29.828H159.444L158.256 30.764C160.128 32.024 162.288 33.86 163.26 35.192L166.212 32.744C165.492 31.88 164.232 30.8 162.936 29.828H175.068V15.5ZM148.392 40.16C151.344 38.576 152.64 35.912 153.324 32.78L149.688 31.772C149.112 34.4 147.636 36.56 145.152 37.856L148.392 40.16ZM160.452 37.136C158.868 37.136 158.544 36.992 158.544 36.02V31.052H154.404V36.056C154.404 39.584 155.52 40.628 159.984 40.628H165.708C169.02 40.628 170.172 39.62 170.64 35.552C169.524 35.3 167.832 34.724 167.004 34.112C166.824 36.74 166.608 37.136 165.276 37.136H160.452ZM169.56 32.744C171.756 34.868 174.168 37.82 175.104 39.8L178.74 37.892C177.66 35.84 175.104 32.996 172.944 31.052L169.56 32.744Z" fill="#767753"/>
<path d="M54.864 20.856C54.176 19.048 52.864 16.36 51.696 14.216L49.776 14.904C50.224 15.784 50.72 16.776 51.184 17.784L44.576 18.664C46.144 15.88 47.728 12.36 48.88 8.728L46.656 8.152C45.616 12.072 43.68 16.312 43.024 17.368C42.416 18.456 42.048 19.064 41.504 19.256C41.792 19.8 42.176 20.84 42.304 21.256C43.136 20.872 44.256 20.728 51.984 19.56C52.304 20.36 52.592 21.096 52.784 21.72L54.864 20.856ZM52.96 32.472L52.592 32.568H51.632C52.192 30.776 52.8 28.728 53.168 27.048L51.68 26.776L51.36 26.856H42.16V28.664H50.72C50.416 29.864 50 31.304 49.616 32.568H45.008C45.472 31.608 45.936 30.44 46.208 29.4L44.192 28.856C43.952 30.248 43.376 31.688 43.184 32.072C42.992 32.472 42.768 32.744 42.512 32.824C42.752 33.32 43.056 34.216 43.184 34.632C43.328 34.472 44.08 34.392 44.88 34.392H51.92C51.408 36.136 50.608 38.024 49.904 39.112C50.384 39.352 51.072 39.8 51.456 40.088C52.576 38.44 53.76 35.832 54.368 33.224L52.96 32.472Z" fill="#767753"/>
<path d="M124.225 7.75H111.79V9.52H117.025V19.72H118.99V9.52H124.225V7.75ZM112.21 23.34V25.305H123.73V23.34H112.21ZM114.625 39.32C116.365 36.695 118.165 33.305 119.5 29.705L117.475 29.12C116.29 32.84 114.205 36.77 113.5 37.76C112.855 38.765 112.45 39.35 111.94 39.5C112.21 40.01 112.585 40.97 112.69 41.33C113.53 41.075 114.76 41.165 124.12 40.775C124.06 40.385 123.985 39.53 124.03 39.035L114.625 39.32Z" fill="#767753"/>
<path d="M197.034 10.258V8.592H191.056C191.28 7.976 191.49 7.346 191.672 6.716L189.922 6.296C189.74 7.066 189.488 7.864 189.236 8.592H184.938V10.258H188.62C188.382 10.86 188.172 11.322 188.046 11.546C187.71 12.204 187.458 12.582 187.122 12.694C187.304 13.128 187.584 13.926 187.682 14.248C187.808 14.122 188.396 14.038 188.942 14.038H193.212C192.666 15.508 191.826 17.104 191.07 18.07C191.504 18.308 192.148 18.784 192.484 19.092C193.646 17.566 194.864 15.284 195.522 13.016L194.22 12.302L193.912 12.4H189.446C189.768 11.742 190.104 11.014 190.412 10.258H197.034ZM196.754 29.048C195.858 27.774 194.43 26.234 192.834 24.694C193.996 23.07 194.99 21.278 195.802 19.346L194.066 18.8C193.38 20.48 192.54 22.048 191.546 23.462C190.188 22.202 188.788 20.97 187.556 19.906L186.296 21.068C187.598 22.216 189.04 23.574 190.412 24.932C188.956 26.654 187.262 28.082 185.358 29.132C185.736 29.482 186.394 30.196 186.646 30.588C188.494 29.454 190.174 27.97 191.658 26.22C193.142 27.788 194.458 29.314 195.256 30.546L196.754 29.048ZM187.85 40.432C189.474 37.982 191.154 34.818 192.4 31.458L190.51 30.912C189.404 34.384 187.458 38.052 186.8 38.976C186.198 39.914 185.82 40.46 185.344 40.6C185.596 41.076 185.946 41.972 186.044 42.308C186.828 42.07 187.976 42.154 196.712 41.79C196.656 41.426 196.586 40.628 196.628 40.166L187.85 40.432Z" fill="#767753"/>
</svg>
