<svg width="413" height="111" viewBox="0 0 413 111" fill="none" xmlns="http://www.w3.org/2000/svg">
<path d="M92.634 18.894C90.94 21.292 87.53 25.164 84.56 28.134C88.234 31.676 91.732 35.702 93.426 38.43L96.22 36.824C94.482 34.404 91.204 30.95 88.08 28.112C90.566 25.604 93.47 22.898 95.406 20.126L92.634 18.894ZM81.986 49.232V52.136H98.882V49.232H81.986ZM82.712 81.506C82.712 80.978 84.67 79.922 84.67 79.922V79.834C87.442 75.874 90.5 70.352 92.7 64.456L89.73 63.598C87.992 69.054 84.934 74.796 83.9 76.248C82.932 77.744 82.36 78.58 81.612 78.822C81.986 79.57 82.536 80.956 82.712 81.506ZM82.712 81.506C83.944 81.11 85.726 81.242 99.476 80.67C99.366 80.12 99.278 78.844 99.322 78.118L84.494 78.558L82.668 79.46L82.712 81.506Z" fill="#767753"/>
<path d="M234.822 19.07V38.276H237.528V19.07H234.822ZM225.516 34.734C226.418 34.14 227.694 33.656 236.428 31.39C236.23 30.84 235.944 29.85 235.812 29.102L226.55 31.28L225.252 32.248L225.516 34.734ZM225.516 34.734C225.516 33.766 228.134 32.424 228.134 32.424V19.862H225.538V30.312C225.538 31.258 224.834 31.896 224.284 32.182C224.746 32.798 225.34 34.03 225.516 34.734ZM222.986 49.232V52.136H239.882V49.232H222.986ZM222.238 67.096V69.648H240.63V67.096H222.238ZM229.454 63.092V67.096C229.454 71.276 228.772 76.622 221.578 80.142C222.084 80.582 222.92 81.748 223.206 82.342C230.884 78.58 232.116 71.826 232.116 67.162V63.092H229.454ZM231.082 71.716V77.898C231.082 80.692 231.94 81.638 234.866 81.638C235.394 81.638 237.99 81.638 238.672 81.638C239.596 81.638 240.652 81.594 241.136 81.44C241.026 80.78 240.916 79.614 240.872 78.888C240.322 79.02 239.354 79.064 238.65 79.064C237.968 79.064 235.328 79.064 234.756 79.064C233.986 79.064 233.81 78.778 233.81 77.964V71.716H231.082Z" fill="#767753"/>
<path d="M368.952 29.238V31.856H387.96V29.238H368.952ZM373.264 38.126C373.462 37.906 374.408 37.796 375.244 37.796H383.208V35.2H374.54L373.264 35.926V38.126ZM382.592 35.2V35.838C381.888 38.544 380.128 42.152 378.61 44.11C379.27 44.506 380.282 45.254 380.81 45.738C382.636 43.34 384.572 39.754 385.606 36.19L383.56 35.046L383.054 35.2H382.592ZM373.264 38.126C373.264 37.62 375.288 36.696 375.288 36.696V36.63C376.806 33.88 378.456 30.074 379.556 26.268L376.806 25.63C375.926 29.128 374.364 32.89 373.836 33.88C373.308 34.914 372.934 35.508 372.384 35.684C372.692 36.344 373.11 37.598 373.264 38.126ZM370.646 67.224C370.866 67.004 371.944 66.894 373.066 66.894H384.858L384.88 64.408H372.054L370.646 65.2V67.224ZM370.646 67.224C370.646 66.696 372.516 65.838 372.516 65.838V65.794C373.176 64.496 374.034 62.428 374.43 60.58L371.856 59.92C371.592 61.68 370.866 63.484 370.646 63.968C370.404 64.474 370.118 64.804 369.81 64.914C370.096 65.552 370.514 66.674 370.646 67.224ZM369.59 56.884V59.458H387.432V56.884H369.59ZM378.17 57.874C377.554 65.992 375.464 70.656 369.128 72.988C369.7 73.494 370.624 74.616 370.932 75.166C377.532 72.284 379.974 67.092 380.854 58.072L378.17 57.874ZM383.956 64.716C383.582 67.752 382.768 71.822 381.558 74.308L384.088 75.232C385.474 72.416 386.398 68.632 386.948 65.31L387.08 64.87L384.704 64.056L383.692 64.716H383.956Z" fill="#767753"/>
<path d="M398.069 50.148C398.289 50.4707 398.545 50.8373 398.839 51.248C399.147 51.644 399.455 52.0327 399.763 52.414C400.085 52.7807 400.364 53.1033 400.599 53.382V53.668H398.421C398.142 53.4773 397.812 53.2427 397.431 52.964C397.064 52.6707 396.683 52.3627 396.287 52.04C395.905 51.7173 395.546 51.4093 395.209 51.116C394.871 50.8227 394.6 50.5733 394.395 50.368V50.148H398.069Z" fill="#767753"/>
<path d="M13.248 48.416V83.552H21.888V54.608H52.848V48.416H13.248ZM50.328 48.416V75.128C50.328 76.208 49.896 76.496 48.6 76.568C47.52 76.568 42.84 76.568 39.24 76.424C40.32 78.368 41.472 81.176 41.904 83.264C47.736 83.264 52.056 83.264 55.08 82.184C58.032 81.176 59.04 79.304 59.04 75.2V48.416H50.328ZM18.648 57.704V63.392H52.776V57.704H18.648ZM3.96 38.696V45.176H67.968V38.696H3.96ZM8.352 19.544V26.024H64.224V19.544H8.352ZM11.088 29.192V35.384H61.056V29.192H11.088ZM18.648 66.632V72.248H52.92V66.632H18.648ZM31.32 15.872V43.016H40.104V15.872H31.32ZM150.768 23C154.872 25.52 160.776 29.192 163.512 31.496L168.84 24.656C165.816 22.496 159.768 19.04 155.736 16.88L150.768 23ZM146.448 42.944C150.84 45.176 156.96 48.632 159.912 50.72L164.736 43.592C161.568 41.504 155.16 38.408 151.128 36.536L146.448 42.944ZM149.04 76.784L156.24 82.616C160.632 75.632 165.168 67.424 168.984 59.792L162.648 54.104C158.328 62.384 152.856 71.384 149.04 76.784ZM170.352 21.92V30.56H210.456V21.92H170.352ZM166.392 70.52V79.16H213.696V70.52H166.392ZM185.04 24.8V75.416H194.472V24.8H185.04ZM291.888 20.192V27.752H356.256V20.192H291.888ZM307.728 15.872V32.072H316.512V15.872H307.728ZM331.632 15.872V31.136H340.488V15.872H331.632ZM291.96 57.272V64.904H356.256V57.272H291.96ZM319.32 52.448V83.48H328.392V52.448H319.32ZM316.944 60.728C311.256 66.632 300.168 71.888 289.728 74.408C291.672 76.208 294.336 79.736 295.632 81.968C306.36 78.584 317.376 71.888 324 63.896L316.944 60.728ZM330.768 61.304L324.216 64.04C330.624 72.104 341.28 78.656 352.008 81.824C353.232 79.52 355.896 76.064 357.768 74.264C347.184 72.032 336.384 67.208 330.768 61.304ZM346.032 29.984C333.72 32.72 312.264 34.16 293.688 34.376C294.48 36.248 295.416 39.704 295.632 41.792C314.568 41.72 337.032 40.352 352.872 36.752L346.032 29.984ZM296.784 45.176C299.232 48.416 301.68 52.808 302.544 55.688L310.248 52.592C309.24 49.568 306.576 45.392 303.984 42.296L296.784 45.176ZM316.872 43.52C318.6 46.472 320.184 50.432 320.616 52.952L328.608 50.288C328.104 47.624 326.232 43.952 324.432 41.072L316.872 43.52ZM344.088 39.416C342.504 43.52 339.48 49.136 337.032 52.664L343.8 55.544C346.464 52.304 349.848 47.264 352.944 42.512L344.088 39.416Z" fill="#767753"/>
</svg>
