<svg width="194" height="77" viewBox="0 0 194 77" fill="none" xmlns="http://www.w3.org/2000/svg">
<path d="M113.114 6.59V13.128L108.872 14.122V7.094H107.22V13.744C107.22 14.332 106.758 14.738 106.422 14.92C106.716 15.326 107.08 16.096 107.206 16.544C107.738 16.208 108.48 15.914 113.114 14.696V18.812H114.836V6.59H113.114ZM105.596 23.784V25.618H116.348V23.784H105.596ZM113.072 40.768C112.582 40.768 112.484 40.586 112.484 40.068V36.092H111.112C111.21 35.644 111.28 35.196 111.322 34.762H116.824V33.152H111.406V30.604H109.698V33.152H105.106V34.762H109.628C109.376 37.086 108.382 39.648 104.7 41.44C105.008 41.734 105.554 42.476 105.722 42.84C108.564 41.454 110.02 39.424 110.748 37.38V40.026C110.748 41.804 111.28 42.406 113.156 42.406H115.564C116.152 42.406 116.824 42.378 117.132 42.266C117.076 41.86 117.006 41.104 116.964 40.656C116.628 40.726 115.998 40.768 115.564 40.768H113.072Z" fill="#767753"/>
<path d="M182.034 14.258V12.592H176.056C176.28 11.976 176.49 11.346 176.672 10.716L174.922 10.296C174.74 11.066 174.488 11.864 174.236 12.592H169.938V14.258H173.62C173.382 14.86 173.172 15.322 173.046 15.546C172.71 16.204 172.458 16.582 172.122 16.694C172.304 17.128 172.584 17.926 172.682 18.248C172.808 18.122 173.396 18.038 173.942 18.038H178.212C177.666 19.508 176.826 21.104 176.07 22.07C176.504 22.308 177.148 22.784 177.484 23.092C178.646 21.566 179.864 19.284 180.522 17.016L179.22 16.302L178.912 16.4H174.446C174.768 15.742 175.104 15.014 175.412 14.258H182.034ZM181.698 30.746V29.094H170.344V30.746H175.706C175.58 31.908 175.398 32.958 175.118 33.882H172.612C172.934 33.14 173.242 32.272 173.41 31.46L171.786 31.04C171.604 32.16 171.142 33.294 171.016 33.602C170.862 33.924 170.666 34.148 170.484 34.204C170.652 34.624 170.918 35.338 171.016 35.674C171.142 35.534 171.828 35.464 172.542 35.464H174.516C173.648 37.284 172.248 38.53 170.036 39.342C170.4 39.678 170.988 40.392 171.184 40.728C173.774 39.608 175.356 37.914 176.322 35.464H179.276C178.996 37.13 178.548 38.964 177.946 40.196L179.556 40.77C180.452 38.992 181.026 36.584 181.39 34.47L181.474 34.19L179.962 33.658L179.626 33.882H176.826C177.078 32.93 177.26 31.894 177.4 30.746H181.698Z" fill="#767753"/>
<path d="M186.362 25.276C186.502 25.4813 186.665 25.7147 186.852 25.976C187.048 26.228 187.244 26.4753 187.44 26.718C187.645 26.9513 187.823 27.1567 187.972 27.334V27.516H186.586C186.409 27.3947 186.199 27.2453 185.956 27.068C185.723 26.8813 185.48 26.6853 185.228 26.48C184.985 26.2747 184.757 26.0787 184.542 25.892C184.327 25.7053 184.155 25.5467 184.024 25.416V25.276H186.362Z" fill="#767753"/>
<path d="M45.261 7.301C44.273 8.718 42.245 10.993 40.49 12.748C42.661 14.841 44.741 17.233 45.742 18.832L47.38 17.896C46.353 16.466 44.429 14.412 42.583 12.735C44.052 11.253 45.755 9.654 46.912 8.016L45.261 7.301ZM38.982 24.228V25.931H48.966V24.228H38.982ZM41.075 40.544C42.583 38.269 44.143 35.331 45.3 32.211L43.545 31.704C42.518 34.928 40.711 38.334 40.1 39.192C39.541 40.063 39.19 40.57 38.748 40.7C38.982 41.142 39.307 41.974 39.398 42.286C40.126 42.065 41.192 42.143 49.304 41.805C49.252 41.467 49.187 40.726 49.226 40.297L41.075 40.544Z" fill="#767753"/>
<path d="M10.98 32.78V31.124H25.128V32.78H10.98ZM25.128 26.732V28.316H10.98V26.732H25.128ZM29.484 23.672H6.696V41.168H10.98V35.552H25.128V36.956C25.128 37.496 24.948 37.64 24.3 37.676C23.76 37.712 21.42 37.712 19.656 37.604C20.196 38.576 20.772 39.98 20.988 41.024C23.868 41.024 26.028 40.988 27.504 40.484C28.98 39.944 29.484 39.044 29.484 37.028V23.672ZM20.088 18.884V17.192H30.492V14.168H20.088V12.548H32.076V9.344H20.088V7.508H15.732V9.344H4.284V12.548H15.732V14.168H5.616V17.192H15.732V18.884H2.088V22.088H33.912V18.884H20.088ZM77.22 11.9C75.744 10.82 72.72 9.092 70.74 8.048L68.256 11.072C70.308 12.332 73.224 14.132 74.628 15.284L77.22 11.9ZM75.204 21.296C73.62 20.288 70.452 18.74 68.472 17.804L66.132 20.972C68.292 22.088 71.388 23.78 72.828 24.86L75.204 21.296ZM74.16 26.516C72.036 30.656 69.3 35.12 67.392 37.82L70.992 40.736C73.152 37.208 75.456 33.104 77.328 29.396L74.16 26.516ZM90 34.688V14.816H97.956V10.532H78.012V14.816H85.32V34.688H76.068V38.972H99.576V34.688H90ZM139.5 15.572H143.856V13.412H151.416V15.104H155.52C149.256 16.076 140.4 16.616 132.552 16.724C132.912 17.66 133.416 19.352 133.488 20.396C142.884 20.324 154.08 19.676 161.964 17.876L158.58 14.564C157.716 14.744 156.816 14.924 155.808 15.068V13.412H163.656V9.668H155.808V7.544H151.416V9.668H143.856V7.544H139.5V9.668H131.652V13.412H139.5V15.572ZM157.5 27.236C158.796 25.616 160.488 23.096 162 20.756L157.608 19.172C156.852 21.26 155.304 24.032 154.08 25.832L157.5 27.236ZM140.76 25.796C140.292 24.284 138.924 22.196 137.664 20.648L134.1 22.088C135.288 23.672 136.548 25.868 136.944 27.308L140.76 25.796ZM163.656 31.88V28.136H149.796V25.724H146.628L149.904 24.644C149.652 23.312 148.752 21.476 147.852 20.036L144.108 21.26C144.936 22.664 145.692 24.464 145.908 25.724H145.332V28.136H131.652V31.88H141.66C138.672 33.932 134.532 35.66 130.572 36.632C131.508 37.532 132.84 39.26 133.488 40.376C137.7 39.044 142.02 36.668 145.332 33.716V41.132H149.796V33.68C152.964 36.668 157.248 39.044 161.532 40.304C162.18 39.188 163.476 37.424 164.448 36.56C160.272 35.696 156.024 34.004 153.036 31.88H163.656Z" fill="#767753"/>
</svg>
