<svg width="295" height="74" viewBox="0 0 295 74" fill="none" xmlns="http://www.w3.org/2000/svg">
<path d="M26.668 16.2271L25.876 16.3711H16.48V20.6911H24.292C22.672 26.9911 19.504 31.9231 15.328 34.7311C16.408 35.3791 18.136 37.1071 18.892 38.1151C23.968 34.3711 27.928 27.0631 29.584 17.3071L26.668 16.2271ZM44.704 13.2031C42.868 15.7591 40.024 18.8191 37.468 21.1951C36.424 18.8911 35.596 16.4791 34.912 13.9591V7.6231H30.376V35.6671C30.376 36.2791 30.124 36.5311 29.404 36.5311C28.648 36.5311 26.38 36.5671 24.004 36.4591C24.688 37.7191 25.516 39.8791 25.696 41.2471C28.972 41.2471 31.312 41.0671 32.86 40.2751C34.336 39.5551 34.912 38.2591 34.912 35.6671V25.0471C37.504 30.9151 41.14 35.6671 46.36 38.6191C47.116 37.3231 48.592 35.5231 49.672 34.6231C45.244 32.5351 41.86 29.0431 39.304 24.7231C42.22 22.4551 45.82 19.0711 48.7 16.0111L44.704 13.2031ZM97.372 21.6631H101.08V19.3231C101.908 19.8631 102.736 20.4391 103.204 20.8351C104.716 18.8551 106.048 15.9751 106.984 12.9151C111.268 12.4831 115.876 11.6911 119.404 10.6471L116.524 7.7311C113.788 8.6311 109.432 9.4231 105.292 9.9271L103.492 9.5671C102.844 12.5551 101.764 15.5431 100.252 17.6671H97.372V12.5911C98.92 12.1951 100.36 11.7271 101.656 11.2231L98.812 7.9471C96.04 9.2071 91.612 10.2511 87.652 10.9351C88.12 11.7991 88.624 13.2391 88.84 14.2111C90.244 14.0311 91.72 13.7791 93.232 13.4911V17.6671H88.084V21.6631H92.656C91.324 25.1551 89.344 28.9711 87.328 31.3111C88.012 32.3911 88.912 34.1551 89.308 35.3791C90.712 33.5791 92.08 31.0231 93.232 28.2511V41.1751H97.372V27.1351C98.236 28.4311 99.1 29.8351 99.532 30.7711L101.98 27.4231C101.296 26.6311 98.344 23.4991 97.372 22.7071V21.6631ZM114.508 12.8791C115.984 15.1471 117.46 18.2791 118.036 20.2951L121.528 18.7831C120.88 16.7671 119.368 13.8151 117.82 11.5471L114.508 12.8791ZM113.14 19.2511C112.996 17.6311 112.492 15.1471 111.844 13.3111L108.352 14.0671C108.892 15.9751 109.36 18.4951 109.432 20.1151L113.14 19.2511ZM106.336 35.5591V32.2831H110.224V28.7551H106.336V25.7671C108.208 24.9751 110.188 24.0391 111.88 22.9591V25.9831H116.344V28.7551H112.348V32.2831H116.344V35.5591H106.336ZM120.448 22.4191H111.88V22.5271L108.676 19.8991C107.596 20.8711 105.976 21.9871 104.284 22.8871L102.376 22.3831V41.2471H106.336V39.2311H116.344V40.8871H120.448V22.4191ZM168.364 13.5631H184.888V20.9431H168.364V13.5631ZM184.276 36.6751C183.016 36.6751 182.836 36.4951 182.836 35.2351V25.1911H189.496V9.3151H164.044V25.1911H168.976C168.58 30.9511 167.536 35.0551 159.436 37.3591C160.444 38.2951 161.632 40.0231 162.1 41.2111C171.46 38.1151 173.152 32.6071 173.764 25.1911H178.444V35.2351C178.444 39.3391 179.524 40.7071 183.628 40.7071H188.092C191.836 40.7071 192.952 38.8711 193.384 32.1751C192.232 31.8511 190.324 31.1311 189.424 30.3751C189.244 35.8111 189.028 36.6751 187.768 36.6751H184.276ZM246.448 23.9671V27.2071H239.068C239.32 26.1631 239.608 25.0471 239.86 23.9671H246.448ZM250.66 16.7671H257.86V20.0791H250.66V16.7671ZM250.66 27.2071V23.9671H262.288V12.8791H256.708C257.464 11.6191 258.328 10.1431 259.156 8.6311L254.404 7.5151C253.936 9.1351 253 11.2951 252.172 12.8791H244.72L244.936 12.8071C244.432 11.2951 243.172 9.1711 242.128 7.5871L238.168 8.8111C238.96 10.0351 239.752 11.5831 240.256 12.8791H234.496V16.7671H246.448V20.0791H240.796V20.0431L236.44 19.5391C235.72 23.3191 234.46 28.1791 233.416 31.2031L237.808 31.7071L237.988 31.0591H243.712C240.688 33.6151 236.476 35.8111 232.3 36.9991C233.236 37.8991 234.604 39.6631 235.288 40.7431C239.32 39.3031 243.28 36.9271 246.448 34.0471V41.1751H250.66V31.0591H259.516C259.228 33.6511 258.94 34.8751 258.508 35.3431C258.148 35.6311 257.788 35.7031 257.248 35.7031C256.528 35.7031 254.98 35.6671 253.432 35.5231C254.08 36.5671 254.584 38.2591 254.656 39.5551C256.564 39.6271 258.292 39.5911 259.336 39.4831C260.524 39.3391 261.352 39.0511 262.144 38.1511C263.152 37.0711 263.656 34.4791 264.016 28.8271C264.088 28.2871 264.16 27.2071 264.16 27.2071H250.66Z" fill="#767753"/>
<path d="M66.966 8.99H57.385V10.498H65.38V12.747H57.879V14.216C57.879 15.516 57.658 17.687 55.799 19.065C56.189 19.273 56.813 19.767 57.099 20.053C59.192 18.48 59.504 15.88 59.504 14.268H66.966V8.99ZM67.343 31.116C66.511 29.933 65.185 28.503 63.703 27.073C64.782 25.565 65.705 23.901 66.459 22.107L64.847 21.6C64.21 23.16 63.43 24.616 62.507 25.929C61.246 24.759 59.946 23.615 58.802 22.627L57.632 23.706C58.841 24.772 60.18 26.033 61.454 27.294C60.102 28.893 58.529 30.219 56.761 31.194C57.112 31.519 57.723 32.182 57.957 32.546C59.673 31.493 61.233 30.115 62.611 28.49C63.989 29.946 65.211 31.363 65.952 32.507L67.343 31.116ZM60.154 35.185C59.218 35.874 57.723 36.706 56.514 37.174C56.826 37.629 57.164 38.175 57.385 38.721C58.464 38.136 59.244 37.603 60.102 37.031C61.467 41.048 63.417 43.57 65.848 45.234C66.238 44.909 66.862 44.324 67.33 44.025C64.366 42.192 62.559 39.67 61.376 35.549L60.154 35.185Z" fill="#767753"/>
<path d="M129.426 13.33C129.777 12.537 130.141 11.562 130.323 10.691L128.607 10.249C128.477 11.38 128.113 12.537 127.983 12.849C127.853 13.187 127.671 13.408 127.489 13.473C127.671 13.889 127.944 14.656 128.048 14.994C128.165 14.864 128.763 14.799 129.387 14.799H130.973C130.427 17.737 129.049 19.544 126.345 20.493C126.67 20.792 127.229 21.442 127.424 21.78C130.362 20.519 131.909 18.374 132.624 14.799H135.081C134.834 18.036 134.522 19.531 134.119 19.895C133.95 20.064 133.781 20.103 133.521 20.103C133.17 20.103 132.416 20.09 131.61 20.025C131.909 20.454 132.13 21.143 132.156 21.598C132.923 21.624 133.703 21.637 134.158 21.572C134.73 21.507 135.107 21.377 135.497 20.922C136.082 20.285 136.407 18.504 136.719 14.032C136.745 13.837 136.771 13.33 136.771 13.33H129.426ZM137.642 39.169C137.174 37.986 136.238 36.205 135.432 34.801L133.989 35.451C134.249 35.919 134.522 36.439 134.795 36.972L130.414 37.518C132.325 35.893 134.288 33.917 135.978 31.642L134.678 30.615C134.106 31.434 133.482 32.227 132.845 32.968L129.816 33.254C130.96 32.084 132.104 30.68 133.014 29.25L131.623 28.353C130.583 30.277 128.945 32.227 128.412 32.734C127.905 33.241 127.58 33.527 127.19 33.618C127.372 34.047 127.645 34.814 127.723 35.126C128.1 34.97 128.646 34.84 131.467 34.502C130.401 35.633 129.452 36.491 128.971 36.855C128.126 37.557 127.632 37.921 127.138 38.038C127.359 38.467 127.658 39.208 127.762 39.52C128.386 39.234 129.231 39.13 135.419 38.272C135.705 38.883 135.939 39.468 136.108 39.936L137.642 39.169Z" fill="#767753"/>
<path d="M209.395 8.25H198.618V9.784H203.155V18.624H204.858V9.784H209.395V8.25ZM207.211 19.912V28.349L200.971 28.518V19.899H199.45V27.543C199.45 28.167 199.06 28.687 198.761 28.921C199.021 29.207 199.489 29.883 199.671 30.26C200.269 30.065 201.127 30.104 207.211 29.857V30.715H208.823V19.912H207.211ZM201.075 40.544C202.583 38.269 204.143 35.331 205.3 32.211L203.545 31.704C202.518 34.928 200.711 38.334 200.1 39.192C199.541 40.063 199.19 40.57 198.748 40.7C198.982 41.142 199.307 41.974 199.398 42.286C200.126 42.065 201.192 42.143 209.304 41.805C209.252 41.467 209.187 40.726 209.226 40.297L201.075 40.544Z" fill="#767753"/>
<path d="M272.426 14.33C272.777 13.537 273.141 12.562 273.323 11.691L271.607 11.249C271.477 12.38 271.113 13.537 270.983 13.849C270.853 14.187 270.671 14.408 270.489 14.473C270.671 14.889 270.944 15.656 271.048 15.994C271.165 15.864 271.763 15.799 272.387 15.799H273.973C273.427 18.737 272.049 20.544 269.345 21.493C269.67 21.792 270.229 22.442 270.424 22.78C273.362 21.519 274.909 19.374 275.624 15.799H278.081C277.834 19.036 277.522 20.531 277.119 20.895C276.95 21.064 276.781 21.103 276.521 21.103C276.17 21.103 275.416 21.09 274.61 21.025C274.909 21.454 275.13 22.143 275.156 22.598C275.923 22.624 276.703 22.637 277.158 22.572C277.73 22.507 278.107 22.377 278.497 21.922C279.082 21.285 279.407 19.504 279.719 15.032C279.745 14.837 279.771 14.33 279.771 14.33H272.426ZM269.982 34.228V35.931H279.966V34.228H269.982Z" fill="#767753"/>
<path d="M286.336 26.042C286.466 26.2327 286.618 26.4493 286.791 26.692C286.973 26.926 287.155 27.1557 287.337 27.381C287.528 27.5977 287.692 27.7883 287.831 27.953V28.122H286.544C286.379 28.0093 286.184 27.8707 285.959 27.706C285.742 27.5327 285.517 27.3507 285.283 27.16C285.058 26.9693 284.845 26.7873 284.646 26.614C284.447 26.4407 284.286 26.2933 284.165 26.172V26.042H286.336Z" fill="#767753"/>
<path d="M143.336 25.042C143.466 25.2327 143.618 25.4493 143.791 25.692C143.973 25.926 144.155 26.1557 144.337 26.381C144.528 26.5977 144.692 26.7883 144.831 26.953V27.122H143.544C143.379 27.0093 143.184 26.8707 142.959 26.706C142.742 26.5327 142.517 26.3507 142.283 26.16C142.058 25.9693 141.845 25.7873 141.646 25.614C141.447 25.4407 141.286 25.2933 141.165 25.172V25.042H143.336Z" fill="#767753"/>
<path d="M71.7827 26.516C71.652 26.3013 71.4793 26.068 71.2647 25.816C71.0593 25.564 70.8447 25.3167 70.6207 25.074C70.406 24.8313 70.21 24.626 70.0327 24.458V24.276H71.4187C71.6613 24.4253 71.9227 24.6027 72.2027 24.808C72.4827 25.004 72.744 25.228 72.9867 25.48C73.2293 25.228 73.4953 25.004 73.7847 24.808C74.074 24.6027 74.34 24.4253 74.5827 24.276H75.9687V24.458C75.8007 24.626 75.6047 24.8313 75.3807 25.074C75.1567 25.3167 74.9373 25.564 74.7227 25.816C74.5173 26.068 74.3493 26.3013 74.2187 26.516H71.7827Z" fill="#767753"/>
</svg>
