<svg width="315" height="109" viewBox="0 0 315 109" fill="none" xmlns="http://www.w3.org/2000/svg">
<path d="M37.04 53.6V58H76.4V53.6H37.04ZM35.6 86.4V90.96H76.96V86.4H35.6ZM48.96 18.88V28.88H53.52V18.88H48.96ZM59.2 18.88V28.88H63.76V18.88H59.2ZM46 65.76H66.96V72.8H46V65.76ZM41.04 61.84V76.72H72.16V61.84H41.04ZM44.16 39.84H68.8V45.36H44.16V39.84ZM44.16 30.4H68.8V35.84H44.16V30.4ZM39.44 26.24V49.6H73.68V26.24H39.44ZM44.8 78.32C46.4 81.2 47.68 85.12 48.08 87.76L52.72 86.08C52.24 83.44 50.88 79.68 49.12 76.88L44.8 78.32ZM63.36 76.8C62.56 79.44 60.96 83.52 59.68 86.24L63.6 87.6C64.96 85.12 66.8 81.52 68.48 78.24L63.36 76.8ZM12.32 63.68V68H30.16V63.68H12.32ZM12.32 73.92V78.32H30.16V73.92H12.32ZM9.52 53.6V92.48H14.64V58H29.92V53.6H9.52ZM26.72 53.6V86.72C26.72 87.52 26.4 87.76 25.6 87.76C24.88 87.84 22.32 87.84 19.52 87.76C20.16 89.04 20.88 91.04 21.12 92.4C25.36 92.4 28 92.4 29.68 91.52C31.44 90.72 31.92 89.36 31.92 86.8V53.6H26.72ZM9.44 21.68V46H14.08V26.24H27.28V46H32V21.68H9.44ZM4.88 43.92V55.44H9.44V48.32H32V55.44H36.72V43.92H4.88ZM18.24 31.44V45.6H22.08V35.28H30.32V31.44H18.24ZM49.76 27.84V47.52H53.52V27.84H49.76ZM59.2 27.84V47.52H62.96V27.84H59.2ZM180.16 84.96V89.92H251.92V84.96H180.16ZM180.56 33.04V38H251.44V33.04H180.56ZM186.08 73.28V78.08H246.8V73.28H186.08ZM212.64 24.96V87.36H218.64V24.96H212.64ZM240.48 19.28C227.84 21.6 205.2 23.04 186.56 23.52C187.12 24.8 187.84 26.88 187.84 28.32C206.56 27.92 229.36 26.56 243.68 23.92L240.48 19.28ZM194.48 57.2H237.76V63.36H194.48V57.2ZM194.48 47.12H237.76V53.2H194.48V47.12ZM188.64 42.8V67.68H243.84V42.8H188.64Z" fill="#60794D"/>
<path d="M102.252 43.184C104.172 45.824 106.572 49.472 107.652 51.704L110.412 50.144C109.188 47.936 106.86 44.552 104.844 41.96L102.252 43.184ZM93.156 51.008C93.156 50.432 95.34 49.184 95.34 49.184V49.112C98.1 44.312 101.028 37.64 102.972 30.752L99.684 29.936C98.172 36.344 95.244 43.256 94.236 44.984C93.3 46.76 92.724 47.768 91.956 48.056C92.364 48.896 92.964 50.432 93.156 51.008ZM93.156 51.008C94.356 50.48 96.036 50.288 108.132 48.704C107.916 48.08 107.556 46.856 107.436 46.04L94.788 47.456L93.012 48.536L93.156 51.008ZM90.252 35.456V38.312H110.7V35.456H90.252ZM91.212 79.344V82.512H109.644V79.344H91.212Z" fill="#60794D"/>
<path d="M121.413 64.456C121.189 64.088 120.893 63.688 120.525 63.256C120.173 62.824 119.805 62.4 119.421 61.984C119.053 61.568 118.717 61.216 118.413 60.928V60.616H120.789C121.205 60.872 121.653 61.176 122.133 61.528C122.613 61.864 123.061 62.248 123.477 62.68C123.893 62.248 124.349 61.864 124.845 61.528C125.341 61.176 125.797 60.872 126.213 60.616H128.589V60.928C128.301 61.216 127.965 61.568 127.581 61.984C127.197 62.4 126.821 62.824 126.453 63.256C126.101 63.688 125.813 64.088 125.589 64.456H121.413Z" fill="#60794D"/>
<path d="M300.12 58.616C300.36 58.968 300.64 59.368 300.96 59.816C301.296 60.248 301.632 60.672 301.968 61.088C302.32 61.488 302.624 61.84 302.88 62.144V62.456H300.504C300.2 62.248 299.84 61.992 299.424 61.688C299.024 61.368 298.608 61.032 298.176 60.68C297.76 60.328 297.368 59.992 297 59.672C296.632 59.352 296.336 59.08 296.112 58.856V58.616H300.12Z" fill="#60794D"/>
<path d="M267.012 35.648V38.48H287.94V35.648H267.012ZM275.964 18.608V37.688H278.892V18.608H275.964ZM269.076 20.84V32.072H286.164V20.84H283.116V29.24H272.004V20.84H269.076ZM282.756 44.824C279.612 52.528 274.428 58.864 267.804 62.512C268.452 63.112 269.604 64.36 270.036 65.008C276.732 60.88 282.228 54.04 285.732 45.736L282.756 44.824ZM269.436 48.712C274.884 53.56 281.82 60.4 284.772 64.936L287.34 62.392C284.148 57.832 276.924 51.304 271.596 46.72L269.436 48.712ZM269.004 90.552C269.004 89.976 271.14 88.824 271.14 88.824V88.728C274.164 84.408 277.5 78.384 279.9 71.952L276.66 71.016C274.764 76.968 271.428 83.232 270.3 84.816C269.244 86.448 268.62 87.36 267.804 87.624C268.212 88.44 268.812 89.952 269.004 90.552ZM269.004 90.552C270.348 90.12 272.292 90.264 287.292 89.64C287.172 89.04 287.076 87.648 287.124 86.856L270.948 87.336L268.956 88.32L269.004 90.552Z" fill="#60794D"/>
</svg>
