<svg width="1015" height="109" viewBox="0 0 1015 109" fill="none" xmlns="http://www.w3.org/2000/svg">
<path d="M19.12 50.4H3.6V56H13.44V78.72H19.12V50.4ZM19.12 76.32H14C10.32 79.84 6.08 83.44 2.64 86.08L5.76 91.76C9.6 88.16 13.2 84.72 16.64 81.28C21.68 87.6 28.96 90.48 39.6 90.88C48.72 91.2 66.16 91.04 75.28 90.64C75.52 88.96 76.48 86.24 77.2 84.96C67.36 85.6 48.56 85.84 39.52 85.44C30 85.04 22.88 82.32 19.12 76.32ZM4 23.76C8.64 27.76 13.84 33.52 15.92 37.52L20.96 34.08C18.72 30.08 13.36 24.56 8.64 20.72L4 23.76ZM25.04 52.64V57.28H73.6V52.64H25.04ZM22.48 64.96V69.68H76.08V64.96H22.48ZM36.88 46.88V67.28H42.64V46.88H36.88ZM55.76 46.88V67.28H61.44V46.88H55.76ZM27.04 31.36V35.6H46.4V22H24V26.16H41.12V31.36H27.04ZM25.36 31.36V39.76C25.36 44.56 26.96 45.76 32.88 45.76C34.08 45.76 41.68 45.76 42.96 45.76C47.04 45.76 48.56 44.4 49.12 39.2C47.68 38.96 45.68 38.32 44.72 37.52C44.48 41.04 44.08 41.52 42.16 41.52C40.64 41.52 34.56 41.52 33.44 41.52C30.88 41.52 30.48 41.2 30.48 39.68V31.36H25.36ZM53.44 31.36V35.6H72.48V22H50.24V26.16H67.28V31.36H53.44ZM51.68 31.36V39.68C51.68 44.56 53.36 45.76 59.44 45.76C60.72 45.76 68.88 45.76 70.16 45.76C74.48 45.76 76 44.4 76.56 38.96C75.12 38.64 73.12 38 72.08 37.28C71.84 41.04 71.44 41.52 69.44 41.52C67.84 41.52 61.28 41.52 60 41.52C57.28 41.52 56.8 41.2 56.8 39.68V31.36H51.68ZM54.32 73.28C59.84 76.16 65.76 80 68.96 82.96L74.88 80.32C71.04 77.36 64.48 73.44 58.64 70.64L54.32 73.28ZM39.68 70.48C36.08 73.76 30.08 76.8 24.64 78.96C25.92 79.76 28.16 81.68 29.04 82.72C34.4 80.16 40.88 76.24 44.96 72.32L39.68 70.48ZM237.28 26.4H245.44V34.88H237.28V26.4ZM224.48 26.4H232.48V34.88H224.48V26.4ZM212.08 26.4H219.68V34.88H212.08V26.4ZM207.12 22.08V39.2H250.48V22.08H207.12ZM208 44.16V48.72H248.88V44.16H208ZM204 54.4V59.2H252.88V54.4H204ZM204.8 66.8V71.52H251.76V66.8H204.8ZM206.4 77.28V81.92H250V77.28H206.4ZM225.28 38.08V56.32H231.04V38.08H225.28ZM225.28 68.88V93.04H231.04V68.88H225.28ZM214 59.92C215.28 62.32 216.48 65.6 216.96 67.6L222.16 66.24C221.68 64.16 220.24 61.04 218.96 58.8L214 59.92ZM237.92 58C237.12 60.32 235.52 63.92 234.24 66.32L238.8 67.6C240.16 65.52 241.92 62.48 243.52 59.52L237.92 58ZM178.16 60.32L179.76 66.16C186.56 64 195.36 61.12 203.68 58.24L202.88 52.72C193.76 55.68 184.4 58.56 178.16 60.32ZM179.28 34.96V40.56H203.6V34.96H179.28ZM189.36 18.88V85.44C189.36 86.64 188.88 86.88 187.92 86.88C186.96 86.96 183.92 86.96 180.4 86.88C181.2 88.56 181.92 91.04 182.16 92.48C187.2 92.48 190.32 92.32 192.16 91.36C194.16 90.4 194.96 88.8 194.96 85.44V18.88H189.36ZM368.64 34.4V40.24H424.08V34.4H368.64ZM365.12 57.84V63.6H421.2V57.84H365.12ZM356.4 84V89.84H427.84V84H356.4ZM389.04 18.88V86.96H395.2V18.88H389.04ZM371.04 20.16C368 31.6 362.8 42.72 356.24 49.84C357.76 50.64 360.48 52.4 361.68 53.44C368.08 45.76 373.68 33.92 377.2 21.52L371.04 20.16ZM566 42.88H595.76V53.2H566V42.88ZM566 27.76H595.76V37.92H566V27.76ZM560.56 22.56V58.4H601.52V22.56H560.56ZM559.52 67.76V73.28H602.64V67.76H559.52ZM553.36 84.32V89.76H605.28V84.32H553.36ZM531.6 24.24V29.92H556.56V24.24H531.6ZM532.48 47.36V53.04H555.44V47.36H532.48ZM530.8 78L532.24 84.16C539.36 81.76 548.48 78.72 557.2 75.76L556.16 70C546.88 73.12 537.28 76.24 530.8 78ZM541.6 26.48V77.2L547.36 76.08V26.48H541.6ZM578.24 25.04V55.84H577.84V86.8H583.92V55.84H583.52V25.04H578.24ZM717.68 18.8V92.32H723.76V18.8H717.68ZM710.32 34C709.76 40.48 708.32 49.28 706.16 54.64L710.88 56.24C713.04 50.48 714.48 41.2 714.88 34.72L710.32 34ZM724.32 33.52C726.56 38 728.96 43.84 729.84 47.36L734.32 45.12C733.44 41.68 730.96 36 728.48 31.68L724.32 33.52ZM740.64 22.56C738.88 33.36 735.68 44.24 730.96 51.28C732.48 51.92 735.2 53.2 736.4 54.08C740.88 46.56 744.4 35.2 746.48 23.52L740.64 22.56ZM740.72 35.76L738.88 41.52H777.92V35.76H740.72ZM753.68 19.12V87.12H759.68V19.12H753.68ZM736.64 58.16V63.84H776.16V58.16H736.64ZM730.64 83.84V89.6H779.84V83.84H730.64ZM927.44 28.48V72.8H933.28V28.48H927.44ZM947.04 20.32V84.48C947.04 86 946.4 86.48 944.88 86.48C943.36 86.56 938.4 86.64 932.64 86.4C933.6 88.16 934.56 90.88 934.88 92.48C942.24 92.56 946.72 92.4 949.36 91.36C951.92 90.4 952.96 88.56 952.96 84.48V20.32H947.04ZM897.76 57.36V62.72H916.72V57.36H897.76ZM914.16 57.36V58.4C913.36 77.52 912.56 84.64 911.04 86.32C910.32 87.04 909.6 87.2 908.24 87.2C906.8 87.2 903.04 87.2 899.04 86.8C900 88.24 900.64 90.48 900.72 92.08C904.64 92.32 908.56 92.32 910.64 92.16C912.96 91.92 914.48 91.44 915.76 89.84C918 87.28 918.8 80 919.68 59.92C919.76 59.12 919.76 57.36 919.76 57.36H914.16ZM893.04 27.92H913.52V43.28H893.04V27.92ZM887.6 22.56V48.8H919.28V22.56H887.6ZM896.4 46.72C895.68 61.76 894 79.28 882.64 88.48C884.08 89.36 885.92 91.2 886.8 92.64C899.12 82.32 901.36 63.6 902.32 46.72H896.4Z" fill="#60794D"/>
<path d="M87.564 25V27.856H107.46V25H87.564ZM95.94 26.8V44.152H99.084V26.8H95.94ZM89.1 48.376V62.464C89.1 63.616 88.356 64.6 87.804 65.032C88.284 65.536 89.172 66.784 89.484 67.48L91.908 64.504V48.376H89.1ZM89.484 67.48C90.636 67.096 92.316 67.216 104.844 66.712C104.748 66.064 104.652 64.72 104.724 63.904L91.26 64.312L89.46 65.272L89.484 67.48ZM103.428 48.4V68.344H106.38V48.4H103.428ZM90.252 84.472C90.492 84.232 91.62 84.112 92.82 84.112H104.988V81.352H91.764L90.252 82.216V84.472ZM103.884 81.352V82.048C103.284 85.096 101.7 89.104 100.356 91.168C101.052 91.528 102.108 92.224 102.66 92.656C104.364 90.16 106.116 86.248 107.028 82.36L104.916 81.232L104.364 81.352H103.884ZM90.252 84.472C90.252 83.896 92.196 82.912 92.196 82.912V82.864C93.108 81.28 94.236 78.784 94.788 76.6L91.764 75.784C91.404 77.896 90.564 80.032 90.252 80.608C89.988 81.208 89.628 81.64 89.268 81.736C89.604 82.504 90.084 83.848 90.252 84.472ZM88.716 72.784V75.52H103.068V72.784H88.716ZM102.18 72.784V73.096C101.7 75.208 100.644 79.12 99.684 82.072L102.564 82.552C103.524 79.6 104.58 75.976 105.228 73.072L103.02 72.664L102.54 72.784H102.18Z" fill="#60794D"/>
<path d="M270.332 36.768V55.392H273.404V36.768H270.332ZM264.188 36.096V38.88H282.236V36.096H264.188ZM280.028 36.096V36.6C279.74 43.272 279.356 45.96 278.78 46.584C278.492 46.872 278.252 46.944 277.82 46.944C277.268 46.944 276.116 46.92 274.916 46.824C275.42 47.592 275.78 48.84 275.828 49.704C277.148 49.728 278.42 49.752 279.188 49.632C280.076 49.512 280.724 49.272 281.324 48.504C282.188 47.496 282.596 44.616 282.932 37.368C282.98 36.984 283.004 36.096 283.004 36.096H280.028ZM283.22 70.608V67.824H263.708V70.608H283.22ZM282.692 80.304L280.532 78.264C278.732 80.328 276.236 81.504 272.42 81.504C269.156 81.504 267.38 80.28 267.38 78.48C267.38 76.392 270.188 75.264 275.516 76.056V64.8H272.468V73.392C267.908 73.272 264.524 75.192 264.524 78.696C264.524 82.056 267.884 84.36 272.78 84.36C276.98 84.36 280.436 83.16 282.692 80.304Z" fill="#60794D"/>
<path d="M443.956 35.52V38.328H458.74V42.48H445.996V45.264H461.668V35.52H443.956ZM444.868 42.48V45.168C444.868 47.568 444.46 51.6 441.028 54.12C441.748 54.528 442.924 55.44 443.428 55.968C447.316 53.04 447.868 48.216 447.868 45.216V42.48H444.868ZM444.004 84.552C444.004 83.976 446.14 82.824 446.14 82.824V82.728C449.164 78.408 452.5 72.384 454.9 65.952L451.66 65.016C449.764 70.968 446.428 77.232 445.3 78.816C444.244 80.448 443.62 81.36 442.804 81.624C443.212 82.44 443.812 83.952 444.004 84.552ZM444.004 84.552C445.348 84.12 447.292 84.264 462.292 83.64C462.172 83.04 462.076 81.648 462.124 80.856L445.948 81.336L443.956 82.32L444.004 84.552Z" fill="#60794D"/>
<path d="M633.62 39.864V40.368C633.092 47.88 632.42 51.192 631.58 51.96C631.244 52.272 630.956 52.344 630.452 52.344C629.804 52.344 628.412 52.32 626.972 52.176C627.524 52.992 627.884 54.264 627.956 55.104C629.372 55.176 630.788 55.176 631.628 55.08C632.684 54.96 633.38 54.696 634.1 53.856C635.204 52.656 635.876 49.368 636.5 41.184C636.572 40.8 636.62 39.864 636.62 39.864H633.62ZM619.604 42.936C619.82 42.696 620.996 42.576 622.22 42.576H634.988L635.012 39.864H621.14L619.604 40.728V42.936ZM619.604 42.912C619.604 42.336 621.668 41.328 621.668 41.328V41.304C622.34 39.696 623.18 37.224 623.492 35.088L620.588 34.296C620.42 36.384 619.724 38.568 619.532 39.168C619.292 39.792 618.98 40.176 618.644 40.296C618.98 41.016 619.436 42.312 619.604 42.912ZM627.116 34.2C626.324 43.92 624.14 49.872 616.988 52.944C617.588 53.544 618.596 54.84 618.908 55.464C626.444 51.72 629.06 45.168 630.068 34.44L627.116 34.2ZM618.212 73.344V76.512H636.644V73.344H618.212Z" fill="#60794D"/>
<path d="M794.564 27V29.856H814.46V27H794.564ZM802.94 28.8V46.152H806.084V28.8H802.94ZM795.212 56.344V59.512H813.644V56.344H795.212ZM796.004 89.552C796.004 88.976 798.14 87.824 798.14 87.824V87.728C801.164 83.408 804.5 77.384 806.9 70.952L803.66 70.016C801.764 75.968 798.428 82.232 797.3 83.816C796.244 85.448 795.62 86.36 794.804 86.624C795.212 87.44 795.812 88.952 796.004 89.552ZM796.004 89.552C797.348 89.12 799.292 89.264 814.292 88.64C814.172 88.04 814.076 86.648 814.124 85.856L797.948 86.336L795.956 87.32L796.004 89.552Z" fill="#60794D"/>
<path d="M982.612 29.84L982.588 30.32C982.036 37.592 981.316 41.096 980.332 41.912C979.972 42.2 979.588 42.272 979.036 42.272C978.292 42.272 976.516 42.248 974.764 42.08C975.34 42.944 975.796 44.24 975.844 45.104C977.476 45.176 979.132 45.224 980.116 45.104C981.34 44.984 982.132 44.72 982.924 43.856C984.148 42.584 984.892 39.224 985.588 31.184C985.636 30.776 985.684 29.84 985.684 29.84H982.612ZM970.204 32.984C970.42 32.744 971.572 32.624 972.724 32.624H984.556L984.58 29.84H971.716L970.204 30.68V32.984ZM970.204 32.984C970.204 32.384 972.22 31.376 972.22 31.376V31.328C973.012 29.696 973.996 27.2 974.404 24.992L971.332 24.176C971.092 26.312 970.348 28.496 970.132 29.072C969.868 29.696 969.532 30.104 969.172 30.248C969.508 30.992 970.012 32.36 970.204 32.984ZM968.212 55.344V58.512H986.644V55.344H968.212ZM967.108 74.488V77.392H987.892V74.488H967.108ZM971.476 69.16V83.584C971.476 87.4 972.796 88.648 976.42 88.648C977.164 88.648 981.148 88.648 982.204 88.648C983.572 88.648 985.06 88.6 985.732 88.384C985.612 87.712 985.444 86.416 985.396 85.672C984.652 85.816 983.38 85.912 982.324 85.912C981.22 85.912 977.188 85.912 976.276 85.912C974.788 85.912 974.38 85.36 974.38 83.728V69.16H971.476ZM980.428 68.92V70.888C980.428 74.392 980.26 78.832 978.46 82.864C979.324 83.176 980.548 83.848 981.196 84.376C983.14 79.912 983.284 74.848 983.284 70.912V68.92H980.428Z" fill="#60794D"/>
<path d="M647.413 64.456C647.189 64.088 646.893 63.688 646.525 63.256C646.173 62.824 645.805 62.4 645.421 61.984C645.053 61.568 644.717 61.216 644.413 60.928V60.616H646.789C647.205 60.872 647.653 61.176 648.133 61.528C648.613 61.864 649.061 62.248 649.477 62.68C649.893 62.248 650.349 61.864 650.845 61.528C651.341 61.176 651.797 60.872 652.213 60.616H654.589V60.928C654.301 61.216 653.965 61.568 653.581 61.984C653.197 62.4 652.821 62.824 652.453 63.256C652.101 63.688 651.813 64.088 651.589 64.456H647.413Z" fill="#60794D"/>
<path d="M827.12 56.616C827.36 56.968 827.64 57.368 827.96 57.816C828.296 58.248 828.632 58.672 828.968 59.088C829.32 59.488 829.624 59.84 829.88 60.144V60.456H827.504C827.2 60.248 826.84 59.992 826.424 59.688C826.024 59.368 825.608 59.032 825.176 58.68C824.76 58.328 824.368 57.992 824 57.672C823.632 57.352 823.336 57.08 823.112 56.856V56.616H827.12Z" fill="#60794D"/>
<path d="M1002.88 52.856C1002.66 53.08 1002.36 53.352 1001.99 53.672C1001.62 53.992 1001.22 54.328 1000.79 54.68C1000.38 55.032 999.96 55.368 999.544 55.688C999.144 55.992 998.792 56.248 998.488 56.456H996.112V56.144C996.368 55.84 996.664 55.488 997 55.088C997.352 54.672 997.696 54.248 998.032 53.816C998.368 53.368 998.648 52.968 998.872 52.616H1002.88V52.856Z" fill="#60794D"/>
<path d="M117.413 64.456C117.189 64.088 116.893 63.688 116.525 63.256C116.173 62.824 115.805 62.4 115.421 61.984C115.053 61.568 114.717 61.216 114.413 60.928V60.616H116.789C117.205 60.872 117.653 61.176 118.133 61.528C118.613 61.864 119.061 62.248 119.477 62.68C119.893 62.248 120.349 61.864 120.845 61.528C121.341 61.176 121.797 60.872 122.213 60.616H124.589V60.928C124.301 61.216 123.965 61.568 123.581 61.984C123.197 62.4 122.821 62.824 122.453 63.256C122.101 63.688 121.813 64.088 121.589 64.456H117.413Z" fill="#60794D"/>
<path d="M296.88 58.856C296.656 59.08 296.36 59.352 295.992 59.672C295.624 59.992 295.224 60.328 294.792 60.68C294.376 61.032 293.96 61.368 293.544 61.688C293.144 61.992 292.792 62.248 292.488 62.456H290.112V62.144C290.368 61.84 290.664 61.488 291 61.088C291.352 60.672 291.696 60.248 292.032 59.816C292.368 59.368 292.648 58.968 292.872 58.616H296.88V58.856Z" fill="#60794D"/>
</svg>
