<svg width="192" height="77" viewBox="0 0 192 77" fill="none" xmlns="http://www.w3.org/2000/svg">
<path d="M116.034 13.258V11.592H110.056C110.28 10.976 110.49 10.346 110.672 9.716L108.922 9.296C108.74 10.066 108.488 10.864 108.236 11.592H103.938V13.258H107.62C107.382 13.86 107.172 14.322 107.046 14.546C106.71 15.204 106.458 15.582 106.122 15.694C106.304 16.128 106.584 16.926 106.682 17.248C106.808 17.122 107.396 17.038 107.942 17.038H112.212C111.666 18.508 110.826 20.104 110.07 21.07C110.504 21.308 111.148 21.784 111.484 22.092C112.646 20.566 113.864 18.284 114.522 16.016L113.22 15.302L112.912 15.4H108.446C108.768 14.742 109.104 14.014 109.412 13.258H116.034ZM115.698 29.746V28.094H104.344V29.746H109.706C109.58 30.908 109.398 31.958 109.118 32.882H106.612C106.934 32.14 107.242 31.272 107.41 30.46L105.786 30.04C105.604 31.16 105.142 32.294 105.016 32.602C104.862 32.924 104.666 33.148 104.484 33.204C104.652 33.624 104.918 34.338 105.016 34.674C105.142 34.534 105.828 34.464 106.542 34.464H108.516C107.648 36.284 106.248 37.53 104.036 38.342C104.4 38.678 104.988 39.392 105.184 39.728C107.774 38.608 109.356 36.914 110.322 34.464H113.276C112.996 36.13 112.548 37.964 111.946 39.196L113.556 39.77C114.452 37.992 115.026 35.584 115.39 33.47L115.474 33.19L113.962 32.658L113.626 32.882H110.826C111.078 31.93 111.26 30.894 111.4 29.746H115.698Z" fill="#767753"/>
<path d="M173.138 11.492C172.396 13.032 170.898 15.468 169.54 17.358C171.29 19.64 172.9 22.188 173.642 23.91L175.448 23C174.65 21.46 173.124 19.234 171.612 17.344C172.732 15.706 174.006 14.082 174.916 12.122L173.138 11.492ZM177.982 11.772C177.226 13.242 175.7 15.566 174.328 17.372C176.106 19.542 177.73 21.978 178.486 23.63L180.32 22.72C179.508 21.264 177.954 19.15 176.442 17.358C177.576 15.804 178.864 14.264 179.788 12.416L177.982 11.772ZM179.41 34.322L179.116 34.392H172.06C172.732 33.132 173.432 31.564 173.894 30.024L172.032 29.688C171.64 31.41 170.87 33.23 170.604 33.706C170.338 34.21 170.128 34.504 169.834 34.588C170.03 35.036 170.31 35.848 170.394 36.184C170.534 36.044 171.206 35.974 171.934 35.974H178.57C178.108 37.752 177.352 39.754 176.638 40.916C177.058 41.126 177.66 41.588 177.982 41.854C179.046 40.16 180.068 37.5 180.6 34.924L179.41 34.322Z" fill="#767753"/>
<path d="M121.362 24.276C121.502 24.4813 121.665 24.7147 121.852 24.976C122.048 25.228 122.244 25.4753 122.44 25.718C122.645 25.9513 122.823 26.1567 122.972 26.334V26.516H121.586C121.409 26.3947 121.199 26.2453 120.956 26.068C120.723 25.8813 120.48 25.6853 120.228 25.48C119.985 25.2747 119.757 25.0787 119.542 24.892C119.327 24.7053 119.155 24.5467 119.024 24.416V24.276H121.362Z" fill="#767753"/>
<path d="M28.188 24.5H22.464V18.092H28.188V24.5ZM22.464 35.12V28.532H28.188V35.12H22.464ZM11.7 34.868H6.192V29.936H11.7V34.868ZM34.812 13.952H32.544V7.688H28.188V13.952H22.464V7.688H18.216V13.952H15.552V17.624H11.016V12.188C12.888 11.756 14.652 11.216 16.236 10.64L12.888 7.508C10.008 8.696 5.22 9.776 0.936 10.388C1.44 11.252 2.016 12.728 2.196 13.7C3.708 13.52 5.256 13.268 6.876 13.016V17.624H1.152V21.62H6.876V26.12H2.376V40.7H6.192V38.684H11.7V39.836H15.732V26.12H11.016V21.62H16.38V18.092H18.216V41.132H22.464V39.188H28.188V40.988H32.544V18.092H34.812V13.952ZM74.7 15.572H79.056V13.412H86.616V15.104H90.72C84.456 16.076 75.6 16.616 67.752 16.724C68.112 17.66 68.616 19.352 68.688 20.396C78.084 20.324 89.28 19.676 97.164 17.876L93.78 14.564C92.916 14.744 92.016 14.924 91.008 15.068V13.412H98.856V9.668H91.008V7.544H86.616V9.668H79.056V7.544H74.7V9.668H66.852V13.412H74.7V15.572ZM92.7 27.236C93.996 25.616 95.688 23.096 97.2 20.756L92.808 19.172C92.052 21.26 90.504 24.032 89.28 25.832L92.7 27.236ZM75.96 25.796C75.492 24.284 74.124 22.196 72.864 20.648L69.3 22.088C70.488 23.672 71.748 25.868 72.144 27.308L75.96 25.796ZM98.856 31.88V28.136H84.996V25.724H81.828L85.104 24.644C84.852 23.312 83.952 21.476 83.052 20.036L79.308 21.26C80.136 22.664 80.892 24.464 81.108 25.724H80.532V28.136H66.852V31.88H76.86C73.872 33.932 69.732 35.66 65.772 36.632C66.708 37.532 68.04 39.26 68.688 40.376C72.9 39.044 77.22 36.668 80.532 33.716V41.132H84.996V33.68C88.164 36.668 92.448 39.044 96.732 40.304C97.38 39.188 98.676 37.424 99.648 36.56C95.472 35.696 91.224 34.004 88.236 31.88H98.856ZM144.792 27.2C144.144 26.192 141.12 22.088 140.076 20.828V18.848H144.216V14.888H140.076V7.508H136.044V14.888H131.328V18.848H135.648C134.64 23.132 132.588 28.064 130.392 30.944C131.076 31.988 132.012 33.68 132.408 34.904C133.776 33.032 135 30.332 136.044 27.38V41.096H140.076V25.976C140.976 27.596 141.876 29.324 142.38 30.476L144.792 27.2ZM149.904 25.328H152.1C152.856 28.676 153.864 31.664 155.268 34.22C153.468 34.544 151.632 34.868 149.904 35.156V25.328ZM157.968 12.944V15.428H149.904V12.944H157.968ZM149.904 21.692V19.1H157.968V21.692H149.904ZM161.388 25.94C160.38 27.02 158.868 28.388 157.428 29.54C156.852 28.244 156.348 26.804 155.952 25.328H162.072V9.272H145.836V35.84C144.792 36.02 143.856 36.164 142.992 36.272L144.144 40.376C147.456 39.728 151.668 38.9 155.664 38.036L155.304 34.328C156.924 37.244 159.048 39.584 161.856 41.168C162.432 40.016 163.728 38.36 164.7 37.532C162.432 36.452 160.596 34.76 159.156 32.636C160.776 31.592 162.54 30.368 164.232 29.216L161.388 25.94Z" fill="#767753"/>
<path d="M59.9719 27.416C59.8412 27.5467 59.6685 27.7053 59.4539 27.892C59.2392 28.0787 59.0059 28.2747 58.7539 28.48C58.5112 28.6853 58.2685 28.8813 58.0259 29.068C57.7925 29.2453 57.5872 29.3947 57.4099 29.516H56.0239V29.334C56.1732 29.1567 56.3459 28.9513 56.5419 28.718C56.7472 28.4753 56.9479 28.228 57.1439 27.976C57.3399 27.7147 57.5032 27.4813 57.6339 27.276H59.9719V27.416Z" fill="#767753"/>
<path d="M50.95 10.168V8.516H45.574C45.882 7.62 46.176 6.696 46.442 5.772L44.524 5.296C44.272 6.374 43.95 7.466 43.614 8.516H39.022V10.168H43.026C42.354 12.016 41.682 13.514 41.36 14.074C40.814 15.11 40.478 15.698 40.016 15.852C40.268 16.342 40.618 17.238 40.716 17.588C41.388 17.28 42.284 17.182 48.29 16.398C48.654 16.986 48.962 17.532 49.186 17.994L50.782 17.07C50.082 15.796 48.71 13.822 47.534 12.296L46.022 13.024C46.428 13.584 46.876 14.228 47.31 14.872L42.592 15.418C43.404 13.864 44.23 12.072 44.958 10.168H50.95ZM39.596 23.784V25.618H50.348V23.784H39.596ZM49.34 37.288L49.018 37.372H48.178C48.668 35.804 49.2 34.012 49.522 32.542L48.22 32.304L47.94 32.374H39.89V33.956H47.38C47.114 35.006 46.75 36.266 46.414 37.372H42.382C42.788 36.532 43.194 35.51 43.432 34.6L41.668 34.124C41.458 35.342 40.954 36.602 40.786 36.938C40.618 37.288 40.422 37.526 40.198 37.596C40.408 38.03 40.674 38.814 40.786 39.178C40.912 39.038 41.57 38.968 42.27 38.968H48.43C47.982 40.494 47.282 42.146 46.666 43.098C47.086 43.308 47.688 43.7 48.024 43.952C49.004 42.51 50.04 40.228 50.572 37.946L49.34 37.288Z" fill="#767753"/>
</svg>
