<svg width="405" height="98" viewBox="0 0 405 98" fill="none" xmlns="http://www.w3.org/2000/svg">
<path d="M83.668 22.06V24.634H97.22V28.44H85.538V30.992H99.904V22.06H83.668ZM84.504 28.44V30.904C84.504 33.104 84.13 36.8 80.984 39.11C81.644 39.484 82.722 40.32 83.184 40.804C86.748 38.12 87.254 33.698 87.254 30.948V28.44H84.504ZM96.318 43.422C93.436 50.484 88.684 56.292 82.612 59.636C83.206 60.186 84.262 61.33 84.658 61.924C90.796 58.14 95.834 51.87 99.046 44.258L96.318 43.422ZM84.108 46.986C89.102 51.43 95.46 57.7 98.166 61.858L100.52 59.526C97.594 55.346 90.972 49.362 86.088 45.16L84.108 46.986ZM100.52 81.372C99.706 81.856 98.672 82.868 97.99 83.396C93.898 80.58 90.598 76.334 88.266 69.536C86.836 70.504 85.494 71.406 83.69 72.396C83.294 71.472 82.722 70.548 82.194 69.756C84.24 68.964 86.792 67.556 88.376 66.412L90.444 67.006C92.424 73.98 95.504 78.27 100.52 81.372Z" fill="#767753"/>
<path d="M380.106 35.752C381.866 38.172 384.066 41.516 385.056 43.562L387.586 42.132C386.464 40.108 384.33 37.006 382.482 34.63L380.106 35.752ZM371.768 42.924C371.768 42.396 373.77 41.252 373.77 41.252V41.186C376.3 36.786 378.984 30.67 380.766 24.356L377.752 23.608C376.366 29.482 373.682 35.818 372.758 37.402C371.9 39.03 371.372 39.954 370.668 40.218C371.042 40.988 371.592 42.396 371.768 42.924ZM371.768 42.924C372.868 42.44 374.408 42.264 385.496 40.812C385.298 40.24 384.968 39.118 384.858 38.37L373.264 39.668L371.636 40.658L371.768 42.924ZM369.106 28.668V31.286H387.85V28.668H369.106ZM381.866 66.016C383.164 68.37 384.748 71.582 385.43 73.584L388.026 72.308C387.234 70.284 385.672 67.27 384.286 64.916L381.866 66.016ZM371.306 72.902C371.306 72.396 373.264 71.582 373.264 71.582V71.516C377.268 68.48 381.602 64.432 385.21 59.548L383.032 57.81C379.666 62.672 374.98 67.138 373.374 68.37C371.922 69.558 371.086 70.196 370.272 70.394C370.624 71.12 371.152 72.374 371.306 72.902ZM371.306 72.902C372.428 72.396 373.99 72.198 386.266 70.482C386.068 69.954 385.76 68.964 385.628 68.282L372.736 69.888L371.196 70.812L371.306 72.902ZM371.24 65.444C371.24 64.96 372.934 64.146 372.934 64.146V64.08C375.486 61.836 378.17 58.69 380.194 55.5L377.84 53.982C376.102 57.238 373.33 60.56 372.406 61.396C371.548 62.254 371.02 62.76 370.36 62.914C370.668 63.618 371.13 64.938 371.24 65.444ZM371.24 65.444C372.01 65.114 373.22 64.872 381.008 63.992C381.14 63.442 381.514 62.32 381.866 61.638L372.56 62.518L371.13 63.354L371.24 65.444Z" fill="#767753"/>
<path d="M225.316 32.434V49.814H228.132V35.118H238.89V49.814H241.838V32.434H225.316ZM224.986 69.232V72.136H241.882V69.232H224.986Z" fill="#767753"/>
<path d="M251.069 56.148C251.289 56.4707 251.545 56.8373 251.839 57.248C252.147 57.644 252.455 58.0327 252.763 58.414C253.085 58.7807 253.364 59.1033 253.599 59.382V59.668H251.421C251.142 59.4773 250.812 59.2427 250.431 58.964C250.064 58.6707 249.683 58.3627 249.287 58.04C248.905 57.7173 248.546 57.4093 248.209 57.116C247.871 56.8227 247.6 56.5733 247.395 56.368V56.148H251.069Z" fill="#767753"/>
<path d="M399.599 48.368C399.393 48.5733 399.122 48.8227 398.785 49.116C398.447 49.4093 398.081 49.7173 397.685 50.04C397.303 50.3627 396.922 50.6707 396.541 50.964C396.174 51.2427 395.851 51.4773 395.573 51.668H393.395V51.382C393.629 51.1033 393.901 50.7807 394.209 50.414C394.531 50.0327 394.847 49.644 395.155 49.248C395.463 48.8373 395.719 48.4707 395.925 48.148H399.599V48.368Z" fill="#767753"/>
<path d="M110.587 53.668C110.382 53.3307 110.11 52.964 109.773 52.568C109.45 52.172 109.113 51.7833 108.761 51.402C108.424 51.0207 108.116 50.698 107.837 50.434V50.148H110.015C110.396 50.3827 110.807 50.6613 111.247 50.984C111.687 51.292 112.098 51.644 112.479 52.04C112.86 51.644 113.278 51.292 113.733 50.984C114.188 50.6613 114.606 50.3827 114.987 50.148H117.165V50.434C116.901 50.698 116.593 51.0207 116.241 51.402C115.889 51.7833 115.544 52.172 115.207 52.568C114.884 52.964 114.62 53.3307 114.415 53.668H110.587Z" fill="#767753"/>
<path d="M3.672 33.512V42.224H23.76V33.512H3.672ZM31.68 15.944V72.248C31.68 73.616 31.176 74.048 29.736 74.12C28.152 74.12 23.616 74.12 18.864 73.904C20.232 76.496 21.96 80.888 22.32 83.552C28.872 83.552 33.624 83.192 36.72 81.68C39.744 80.096 40.824 77.504 40.824 72.32V15.944H31.68ZM20.808 33.512V35.384C18.36 51.296 11.304 63.824 1.44 70.448C3.528 71.744 7.056 75.272 8.568 77.288C18.864 69.728 26.784 55.04 30.096 35.384L24.12 33.224L22.608 33.512H20.808ZM40.32 26.456L33.48 27.896C38.592 50.144 47.16 68.864 63.864 78.296C65.304 75.632 68.328 72.032 70.488 70.232C54.36 62.528 44.928 45.536 40.32 26.456ZM60.48 27.104C56.016 33.512 48.384 41.36 42.552 46.184L48.744 51.08C54.792 46.544 62.496 39.272 68.616 32.792L60.48 27.104ZM164.088 58.352H196.416V62.96H164.088V58.352ZM155.592 52.016V69.224H205.416V52.016H155.592ZM175.464 49.136V77.36H184.032V49.136H175.464ZM175.392 15.872V24.872H184.248V15.872H175.392ZM149.688 74.552L150.12 82.184C163.944 81.896 185.04 81.392 204.768 80.816L205.128 73.616C185.4 74.048 163.656 74.408 149.688 74.552ZM191.232 70.88C196.344 74.624 202.752 80.456 206.064 84.2L212.904 79.808C209.52 76.28 203.184 70.808 197.856 67.136L191.232 70.88ZM148.896 20.48V33.944H157.392V27.392H202.32V33.944H211.176V20.48H148.896ZM190.008 27.176C181.152 37.832 164.448 45.248 147.24 49.064C148.752 50.576 151.2 53.816 152.208 55.472C169.128 50.72 186.624 42.656 196.992 30.344L190.008 27.176ZM165.672 32.288V39.92C165.672 46.112 167.832 47.84 176.688 47.84C178.488 47.84 187.704 47.84 189.576 47.84C195.768 47.84 197.928 46.256 198.72 39.848C196.704 39.416 193.824 38.552 192.24 37.544C191.952 41.36 191.448 41.936 188.784 41.936C186.624 41.936 178.992 41.936 177.408 41.936C173.808 41.936 173.16 41.72 173.16 39.92V32.288H165.672ZM157.464 30.776C156.096 35.312 153 39.344 148.176 41.576L153.864 46.328C159.624 43.304 162.36 38.48 164.088 32.936L157.464 30.776ZM169.416 29.624C172.656 30.992 176.688 33.584 178.848 35.456L183.888 30.56C181.584 28.832 177.552 26.528 174.312 25.232L169.416 29.624ZM194.328 36.248C199.08 39.776 204.192 45.104 206.496 48.776L212.832 43.952C210.312 40.352 205.2 35.528 200.376 32.216L194.328 36.248ZM290.52 29.336V37.256H312.696V29.336H290.52ZM298.584 15.872V83.48H306.792V15.872H298.584ZM298.8 35.24C297.216 44.168 293.616 55.616 289.44 61.736C290.664 64.04 292.608 68 293.4 70.592C297.936 63.032 301.752 48.776 303.48 37.04L298.8 35.24ZM306.288 38.264L302.184 41.504C304.344 44.96 308.376 52.664 309.96 56.768L315.072 50.576C313.848 48.56 307.944 40.208 306.288 38.264ZM341.712 51.728C345.672 55.904 350.784 61.736 353.016 65.408L358.632 60.008C356.184 56.552 350.928 51.08 346.968 47.12L341.712 51.728ZM314.064 28.76C316.296 33.728 318.6 40.352 319.392 44.6L326.16 41.792C325.152 37.544 322.776 31.136 320.4 26.24L314.064 28.76ZM349.992 25.664C348.696 30.416 346.104 36.896 344.016 41.072L350.064 43.88C352.44 40.064 355.176 34.088 357.912 28.904L349.992 25.664ZM337.032 15.944V71.24C337.032 80.24 338.76 82.688 344.88 82.688C346.104 82.688 349.344 82.688 350.568 82.688C355.896 82.688 357.912 79.16 358.704 69.944C356.4 69.44 353.376 68 351.504 66.56C351.36 73.112 351.072 74.984 349.848 74.984C349.272 74.984 346.968 74.984 346.464 74.984C345.24 74.984 345.096 74.552 345.096 71.312V15.944H337.032ZM312.048 58.64L316.152 66.776C320.184 63.176 324.648 59 328.896 54.896L326.304 48.992C321.12 52.736 315.576 56.552 312.048 58.64ZM324.864 15.944V46.328C324.864 57.848 324.144 71.312 311.112 77.576C312.84 79.088 315.504 82.184 316.656 83.84C330.264 75.488 332.64 60.224 332.64 46.4V15.944H324.864Z" fill="#767753"/>
</svg>
