<svg width="394" height="98" viewBox="0 0 394 98" fill="none" xmlns="http://www.w3.org/2000/svg">
<path d="M93.106 32.752C94.866 35.172 97.066 38.516 98.056 40.562L100.586 39.132C99.464 37.108 97.33 34.006 95.482 31.63L93.106 32.752ZM84.768 39.924C84.768 39.396 86.77 38.252 86.77 38.252V38.186C89.3 33.786 91.984 27.67 93.766 21.356L90.752 20.608C89.366 26.482 86.682 32.818 85.758 34.402C84.9 36.03 84.372 36.954 83.668 37.218C84.042 37.988 84.592 39.396 84.768 39.924ZM84.768 39.924C85.868 39.44 87.408 39.264 98.496 37.812C98.298 37.24 97.968 36.118 97.858 35.37L86.264 36.668L84.636 37.658L84.768 39.924ZM82.106 25.668V28.286H100.85V25.668H82.106ZM82.986 51.232V54.136H99.882V51.232H82.986ZM84.856 77.016C85.076 76.796 86.11 76.686 87.21 76.686H98.364V74.156H86.242L84.856 74.948V77.016ZM97.352 74.156V74.794C96.802 77.588 95.35 81.262 94.118 83.154C94.756 83.484 95.724 84.122 96.23 84.518C97.792 82.23 99.398 78.644 100.234 75.08L98.298 74.046L97.792 74.156H97.352ZM84.856 77.016C84.856 76.488 86.638 75.586 86.638 75.586V75.542C87.474 74.09 88.508 71.802 89.014 69.8L86.242 69.052C85.912 70.988 85.142 72.946 84.856 73.474C84.614 74.024 84.284 74.42 83.954 74.508C84.262 75.212 84.702 76.444 84.856 77.016ZM83.448 66.302V68.81H96.604V66.302H83.448ZM95.79 66.302V66.588C95.35 68.524 94.382 72.11 93.502 74.816L96.142 75.256C97.022 72.55 97.99 69.228 98.584 66.566L96.56 66.192L96.12 66.302H95.79Z" fill="#767753"/>
<path d="M375.552 25.916C374.408 28.336 372.032 32.164 369.92 35.156C372.67 38.742 375.2 42.724 376.344 45.452L379.182 44.022C377.95 41.602 375.552 38.082 373.154 35.134C374.914 32.538 376.916 29.986 378.368 26.906L375.552 25.916ZM383.186 26.356C381.998 28.666 379.6 32.318 377.444 35.178C380.216 38.588 382.79 42.394 383.978 45.012L386.838 43.582C385.584 41.272 383.142 37.95 380.744 35.156C382.526 32.714 384.55 30.272 386.024 27.368L383.186 26.356ZM371.262 66.454C371.46 66.234 372.516 66.124 373.66 66.124H385.364V63.638H372.648L371.262 64.43V66.454ZM384.506 63.638V64.276C383.934 67.378 382.46 71.646 381.074 73.89C381.734 74.22 382.68 74.924 383.164 75.364C384.836 72.702 386.464 68.5 387.3 64.452L385.43 63.506L384.946 63.638H384.506ZM371.262 66.454C371.262 65.948 373.11 65.024 373.11 65.024V64.98C374.342 62.89 375.838 59.766 376.74 56.774L373.836 56.246C373.22 58.952 372.01 61.812 371.592 62.56C371.174 63.33 370.822 63.792 370.36 63.924C370.668 64.65 371.108 65.904 371.262 66.454Z" fill="#767753"/>
<path d="M223.952 31.238V33.856H242.96V31.238H223.952ZM228.264 40.126C228.462 39.906 229.408 39.796 230.244 39.796H238.208V37.2H229.54L228.264 37.926V40.126ZM237.592 37.2V37.838C236.888 40.544 235.128 44.152 233.61 46.11C234.27 46.506 235.282 47.254 235.81 47.738C237.636 45.34 239.572 41.754 240.606 38.19L238.56 37.046L238.054 37.2H237.592ZM228.264 40.126C228.264 39.62 230.288 38.696 230.288 38.696V38.63C231.806 35.88 233.456 32.074 234.556 28.268L231.806 27.63C230.926 31.128 229.364 34.89 228.836 35.88C228.308 36.914 227.934 37.508 227.384 37.684C227.692 38.344 228.11 39.598 228.264 40.126ZM225.646 69.224C225.866 69.004 226.944 68.894 228.066 68.894H239.858L239.88 66.408H227.054L225.646 67.2V69.224ZM225.646 69.224C225.646 68.696 227.516 67.838 227.516 67.838V67.794C228.176 66.496 229.034 64.428 229.43 62.58L226.856 61.92C226.592 63.68 225.866 65.484 225.646 65.968C225.404 66.474 225.118 66.804 224.81 66.914C225.096 67.552 225.514 68.674 225.646 69.224ZM224.59 58.884V61.458H242.432V58.884H224.59ZM233.17 59.874C232.554 67.992 230.464 72.656 224.128 74.988C224.7 75.494 225.624 76.616 225.932 77.166C232.532 74.284 234.974 69.092 235.854 60.072L233.17 59.874ZM238.956 66.716C238.582 69.752 237.768 73.822 236.558 76.308L239.088 77.232C240.474 74.416 241.398 70.632 241.948 67.31L242.08 66.87L239.704 66.056L238.692 66.716H238.956Z" fill="#767753"/>
<path d="M252.069 53.148C252.289 53.4707 252.545 53.8373 252.839 54.248C253.147 54.644 253.455 55.0327 253.763 55.414C254.085 55.7807 254.364 56.1033 254.599 56.382V56.668H252.421C252.142 56.4773 251.812 56.2427 251.431 55.964C251.064 55.6707 250.683 55.3627 250.287 55.04C249.905 54.7173 249.546 54.4093 249.209 54.116C248.871 53.8227 248.6 53.5733 248.395 53.368V53.148H252.069Z" fill="#767753"/>
<path d="M115.599 50.368C115.393 50.5733 115.122 50.8227 114.785 51.116C114.447 51.4093 114.081 51.7173 113.685 52.04C113.303 52.3627 112.922 52.6707 112.541 52.964C112.174 53.2427 111.851 53.4773 111.573 53.668H109.395V53.382C109.629 53.1033 109.901 52.7807 110.209 52.414C110.531 52.0327 110.847 51.644 111.155 51.248C111.463 50.8373 111.719 50.4707 111.925 50.148H115.599V50.368Z" fill="#767753"/>
<path d="M4.536 53.312V82.616H12.24V61.016H23.256V80.888H31.392V53.312H4.536ZM25.632 15.872C19.872 18.248 10.296 20.408 1.728 21.632C2.664 23.36 3.888 26.384 4.248 28.328C13.536 27.176 24.336 25.16 32.4 22.136L25.632 15.872ZM13.536 24.152V57.344H21.888V24.152H13.536ZM36.36 16.16V83.48H45V16.16H36.36ZM56.448 16.16V83.192H65.232V16.16H56.448ZM2.088 36.176V44.24H32.616V36.176H2.088ZM31.032 28.832V37.112H69.84V28.832H31.032ZM40.248 50V58.136H60.912V50H40.248ZM40.248 71.384V79.52H60.912V71.384H40.248ZM8.28 70.88V78.584H27.792V70.88H8.28ZM147.888 20.192V27.752H212.256V20.192H147.888ZM163.728 15.872V32.072H172.512V15.872H163.728ZM187.632 15.872V31.136H196.488V15.872H187.632ZM147.96 57.272V64.904H212.256V57.272H147.96ZM175.32 52.448V83.48H184.392V52.448H175.32ZM172.944 60.728C167.256 66.632 156.168 71.888 145.728 74.408C147.672 76.208 150.336 79.736 151.632 81.968C162.36 78.584 173.376 71.888 180 63.896L172.944 60.728ZM186.768 61.304L180.216 64.04C186.624 72.104 197.28 78.656 208.008 81.824C209.232 79.52 211.896 76.064 213.768 74.264C203.184 72.032 192.384 67.208 186.768 61.304ZM202.032 29.984C189.72 32.72 168.264 34.16 149.688 34.376C150.48 36.248 151.416 39.704 151.632 41.792C170.568 41.72 193.032 40.352 208.872 36.752L202.032 29.984ZM152.784 45.176C155.232 48.416 157.68 52.808 158.544 55.688L166.248 52.592C165.24 49.568 162.576 45.392 159.984 42.296L152.784 45.176ZM172.872 43.52C174.6 46.472 176.184 50.432 176.616 52.952L184.608 50.288C184.104 47.624 182.232 43.952 180.432 41.072L172.872 43.52ZM200.088 39.416C198.504 43.52 195.48 49.136 193.032 52.664L199.8 55.544C202.464 52.304 205.848 47.264 208.944 42.512L200.088 39.416ZM324.432 19.4V26.816H344.808V44.312H324.432V51.656H353.088V19.4H324.432ZM325.368 31.784V39.2H348.84V31.784H325.368ZM320.472 19.4V76.928H328.68V19.4H320.472ZM314.712 73.688L317.016 82.04C323.712 80.672 332.136 79.016 340.128 77.288L339.48 69.584C330.408 71.168 321.048 72.824 314.712 73.688ZM351.72 52.952C348.624 56.264 343.224 60.872 339.552 63.32L343.656 68.576C347.688 66.344 352.728 62.744 357.48 59.576L351.72 52.952ZM339.768 47.408L332.352 48.704C335.592 64.616 341.208 77.144 352.584 83.624C353.808 81.248 356.472 77.936 358.416 76.28C348.12 71.312 342.432 60.296 339.768 47.408ZM291.168 30.704V38.768H317.16V30.704H291.168ZM300.744 15.872V83.48H308.88V15.872H300.744ZM300.456 36.248C298.584 45.464 294.264 56.696 289.368 62.96C290.664 65.048 292.608 68.576 293.4 70.952C298.8 63.536 303.264 49.568 305.424 38.048L300.456 36.248ZM308.592 42.296L304.704 46.04C306.936 49.64 311.616 57.704 313.488 62.096L318.312 55.472C316.944 53.384 310.392 44.312 308.592 42.296Z" fill="#767753"/>
</svg>
