<svg width="572" height="127" viewBox="0 0 572 127" fill="none" xmlns="http://www.w3.org/2000/svg">
<path d="M33.575 33.512V42.224H53.663V33.512H33.575ZM61.583 15.944V72.248C61.583 73.616 61.079 74.048 59.639 74.12C58.055 74.12 53.519 74.12 48.767 73.904C50.135 76.496 51.863 80.888 52.223 83.552C58.775 83.552 63.527 83.192 66.623 81.68C69.647 80.096 70.727 77.504 70.727 72.32V15.944H61.583ZM50.711 33.512V35.384C48.263 51.296 41.207 63.824 31.343 70.448C33.431 71.744 36.959 75.272 38.471 77.288C48.767 69.728 56.687 55.04 59.999 35.384L54.023 33.224L52.511 33.512H50.711ZM70.223 26.456L63.383 27.896C68.495 50.144 77.063 68.864 93.767 78.296C95.207 75.632 98.231 72.032 100.391 70.232C84.263 62.528 74.831 45.536 70.223 26.456ZM90.383 27.104C85.919 33.512 78.287 41.36 72.455 46.184L78.647 51.08C84.695 46.544 92.399 39.272 98.519 32.792L90.383 27.104ZM224.663 45.68V52.88H237.263V45.68H224.663ZM209.255 58.424V65.552H221.351V58.424H209.255ZM209.615 72.104V79.52H237.623V72.104H209.615ZM225.671 58.424V65.552H237.047V58.424H225.671ZM218.255 40.64C215.591 43.088 211.127 45.968 206.951 47.84C207.959 49.496 209.327 52.304 209.759 53.96C214.727 52.088 220.631 49.496 225.311 46.472L218.255 40.64ZM205.511 45.608V83.624H213.575V47.768L205.511 45.608ZM233.663 45.68V82.832H241.943V45.68H233.663ZM234.023 16.232C227.903 18.176 217.751 19.904 208.751 20.912C209.543 22.496 210.623 25.232 210.911 26.96C220.415 26.168 231.647 24.584 239.855 21.992L234.023 16.232ZM207.815 19.832C206.447 26.672 203.711 33.512 200.039 37.832C202.055 38.84 205.655 41.144 207.239 42.512C211.055 37.472 214.439 29.48 216.239 21.56L207.815 19.832ZM217.535 28.904C218.687 32.792 219.623 37.832 219.767 41.144L227.183 39.344C226.967 36.104 225.959 31.136 224.663 27.32L217.535 28.904ZM229.991 26.528C232.943 31.136 235.967 37.328 237.047 41.432L244.103 38.408C242.879 34.304 239.783 28.4 236.687 23.864L229.991 26.528ZM187.151 22.568V83.408H195.575V22.568H187.151ZM176.783 36.104V44.168H202.991V36.104H176.783ZM187.655 39.344C185.351 47.336 180.311 57.776 175.271 63.536C176.639 65.696 178.511 69.296 179.303 71.816C184.847 64.688 189.959 51.872 192.695 41.576L187.655 39.344ZM198.383 16.592C192.839 19.112 183.911 21.2 175.919 22.568C176.927 24.368 178.007 27.248 178.367 29.12C186.791 28.04 196.799 26.096 204.143 23.288L198.383 16.592ZM195.359 46.112L191.615 49.496C193.847 52.52 198.167 59.072 199.895 62.528L204.791 55.76C203.423 54.104 197.159 47.624 195.359 46.112ZM357.791 49.568V71.456C357.791 79.808 359.951 82.472 368.231 82.472C369.815 82.472 375.575 82.472 377.231 82.472C384.791 82.472 387.023 78.872 387.815 65.264C385.583 64.688 381.623 63.176 379.823 61.664C379.463 72.68 379.103 74.336 376.439 74.336C375.143 74.336 370.679 74.336 369.527 74.336C367.007 74.336 366.647 74.048 366.647 71.384V49.568H357.791ZM338.927 49.424C338.063 61.952 336.623 70.88 319.559 75.776C321.575 77.576 324.023 81.104 324.959 83.48C344.471 77.072 347.351 65.336 348.503 49.424H338.927ZM337.559 27.896H370.679V42.656H337.559V27.896ZM328.847 19.4V51.296H379.967V19.4H328.847ZM474.935 55.328V63.104H523.895V55.328H474.935ZM520.439 55.328V56.408C519.863 66.344 519.143 70.448 517.991 71.6C517.271 72.248 516.551 72.392 515.399 72.392C513.959 72.392 510.935 72.32 507.695 71.96C509.135 74.192 510.143 77.576 510.215 80.168C514.103 80.312 517.559 80.24 519.647 80.024C522.023 79.736 523.751 79.16 525.335 77.288C527.351 75.2 528.287 69.944 529.079 58.568C529.223 57.488 529.295 55.328 529.295 55.328H520.439ZM479.111 41V48.848H525.623V26.528H469.679V34.376H516.695V41H479.111ZM493.655 30.92V83.408H502.295V30.92H493.655ZM493.151 57.992C487.463 65.264 476.375 71.816 465.215 74.984C467.231 76.856 469.895 80.312 471.263 82.616C482.783 78.44 494.015 70.592 500.855 61.304L493.151 57.992ZM477.095 18.392C479.183 21.704 481.415 26.312 482.207 29.192L490.703 26.384C489.695 23.36 487.247 19.04 485.087 15.872L477.095 18.392ZM509.783 15.728C508.775 19.112 506.759 23.72 505.031 26.888L512.735 29.048C514.607 26.312 516.983 22.136 519.287 17.96L509.783 15.728ZM473.639 39.92C472.127 47.48 469.607 57.272 467.591 63.32L476.375 64.4C478.247 58.28 480.623 48.848 482.423 40.856L473.639 39.92Z" fill="#767753"/>
<path d="M113.168 23.06V25.634H126.72V29.44H115.038V31.992H129.404V23.06H113.168ZM114.004 29.44V31.904C114.004 34.104 113.63 37.8 110.484 40.11C111.144 40.484 112.222 41.32 112.684 41.804C116.248 39.12 116.754 34.698 116.754 31.948V29.44H114.004ZM125.818 44.422C122.936 51.484 118.184 57.292 112.112 60.636C112.706 61.186 113.762 62.33 114.158 62.924C120.296 59.14 125.334 52.87 128.546 45.258L125.818 44.422ZM113.608 47.986C118.602 52.43 124.96 58.7 127.666 62.858L130.02 60.526C127.094 56.346 120.472 50.362 115.588 46.16L113.608 47.986ZM130.02 82.372C129.206 82.856 128.172 83.868 127.49 84.396C123.398 81.58 120.098 77.334 117.766 70.536C116.336 71.504 114.994 72.406 113.19 73.396C112.794 72.472 112.222 71.548 111.694 70.756C113.74 69.964 116.292 68.556 117.876 67.412L119.944 68.006C121.924 74.98 125.004 79.27 130.02 82.372Z" fill="#767753"/>
<path d="M396.892 22.5V25.118H415.13V22.5H396.892ZM404.57 24.15V40.056H407.452V24.15H404.57ZM398.3 43.928V56.842C398.3 57.898 397.618 58.8 397.112 59.196C397.552 59.658 398.366 60.802 398.652 61.44L400.874 58.712V43.928H398.3ZM398.652 61.44C399.708 61.088 401.248 61.198 412.732 60.736C412.644 60.142 412.556 58.91 412.622 58.162L400.28 58.536L398.63 59.416L398.652 61.44ZM411.434 43.95V62.232H414.14V43.95H411.434ZM398.212 83.506C398.212 82.978 400.17 81.922 400.17 81.922V81.834C402.942 77.874 406 72.352 408.2 66.456L405.23 65.598C403.492 71.054 400.434 76.796 399.4 78.248C398.432 79.744 397.86 80.58 397.112 80.822C397.486 81.57 398.036 82.956 398.212 83.506ZM398.212 83.506C399.444 83.11 401.226 83.242 414.976 82.67C414.866 82.12 414.778 80.844 414.822 80.118L399.994 80.558L398.168 81.46L398.212 83.506Z" fill="#767753"/>
<path d="M553.324 34.042V34.504C552.884 41.412 552.334 44.448 551.586 45.152C551.278 45.438 551.014 45.482 550.552 45.482C549.98 45.482 548.682 45.46 547.34 45.35C547.846 46.098 548.198 47.264 548.242 48.012C549.54 48.078 550.882 48.078 551.652 47.99C552.62 47.88 553.258 47.638 553.896 46.89C554.886 45.79 555.436 42.776 555.986 35.23C556.008 34.878 556.052 34.042 556.052 34.042H553.324ZM541.29 36.858C541.488 36.638 542.522 36.528 543.556 36.528H554.182L554.204 34.042H542.632L541.29 34.812V36.858ZM541.29 36.858C541.29 36.33 542.962 35.406 542.962 35.406V35.362C543.754 33.888 544.722 31.578 545.162 29.576L542.258 28.806C542.038 30.72 541.4 32.7 541.202 33.228C540.982 33.778 540.652 34.152 540.344 34.262C540.652 34.988 541.136 36.264 541.29 36.858ZM546.438 35.428C545.646 41.06 543.336 44.426 538.408 46.142C538.958 46.648 539.926 47.77 540.256 48.32C545.404 46.12 548.066 42.27 549.166 35.758L546.438 35.428ZM539.486 67.232V70.136H556.382V67.232H539.486Z" fill="#767753"/>
<path d="M565.554 55.148C565.774 55.4707 566.031 55.8373 566.324 56.248C566.632 56.644 566.94 57.0327 567.248 57.414C567.571 57.7807 567.849 58.1033 568.084 58.382V58.668H565.906C565.627 58.4773 565.297 58.2427 564.916 57.964C564.549 57.6707 564.168 57.3627 563.772 57.04C563.391 56.7173 563.031 56.4093 562.694 56.116C562.357 55.8227 562.085 55.5733 561.88 55.368V55.148H565.554Z" fill="#767753"/>
<path d="M268.324 32.042V32.504C267.884 39.412 267.334 42.448 266.586 43.152C266.278 43.438 266.014 43.482 265.552 43.482C264.98 43.482 263.682 43.46 262.34 43.35C262.846 44.098 263.198 45.264 263.242 46.012C264.54 46.078 265.882 46.078 266.652 45.99C267.62 45.88 268.258 45.638 268.896 44.89C269.886 43.79 270.436 40.776 270.986 33.23C271.008 32.878 271.052 32.042 271.052 32.042H268.324ZM256.29 34.858C256.488 34.638 257.522 34.528 258.556 34.528H269.182L269.204 32.042H257.632L256.29 32.812V34.858ZM256.29 34.858C256.29 34.33 257.962 33.406 257.962 33.406V33.362C258.754 31.888 259.722 29.578 260.162 27.576L257.258 26.806C257.038 28.72 256.4 30.7 256.202 31.228C255.982 31.778 255.652 32.152 255.344 32.262C255.652 32.988 256.136 34.264 256.29 34.858ZM261.438 33.428C260.646 39.06 258.336 42.426 253.408 44.142C253.958 44.648 254.926 45.77 255.256 46.32C260.404 44.12 263.066 40.27 264.166 33.758L261.438 33.428ZM266.366 69.016C267.664 71.37 269.248 74.582 269.93 76.584L272.526 75.308C271.734 73.284 270.172 70.27 268.786 67.916L266.366 69.016ZM255.806 75.902C255.806 75.396 257.764 74.582 257.764 74.582V74.516C261.768 71.48 266.102 67.432 269.71 62.548L267.532 60.81C264.166 65.672 259.48 70.138 257.874 71.37C256.422 72.558 255.586 73.196 254.772 73.394C255.124 74.12 255.652 75.374 255.806 75.902ZM255.806 75.902C256.928 75.396 258.49 75.198 270.766 73.482C270.568 72.954 270.26 71.964 270.128 71.282L257.236 72.888L255.696 73.812L255.806 75.902ZM255.74 68.444C255.74 67.96 257.434 67.146 257.434 67.146V67.08C259.986 64.836 262.67 61.69 264.694 58.5L262.34 56.982C260.602 60.238 257.83 63.56 256.906 64.396C256.048 65.254 255.52 65.76 254.86 65.914C255.168 66.618 255.63 67.938 255.74 68.444ZM255.74 68.444C256.51 68.114 257.72 67.872 265.508 66.992C265.64 66.442 266.014 65.32 266.366 64.638L257.06 65.518L255.63 66.354L255.74 68.444Z" fill="#767753"/>
<path d="M139.63 51.668C139.425 51.3307 139.153 50.964 138.816 50.568C138.493 50.172 138.156 49.7833 137.804 49.402C137.467 49.0207 137.159 48.698 136.88 48.434V48.148H139.058C139.439 48.3827 139.85 48.6613 140.29 48.984C140.73 49.292 141.141 49.644 141.522 50.04C141.903 49.644 142.321 49.292 142.776 48.984C143.231 48.6613 143.649 48.3827 144.03 48.148H146.208V48.434C145.944 48.698 145.636 49.0207 145.284 49.402C144.932 49.7833 144.587 50.172 144.25 50.568C143.927 50.964 143.663 51.3307 143.458 51.668H139.63Z" fill="#767753"/>
<path d="M278.554 50.148C278.774 50.4707 279.031 50.8373 279.324 51.248C279.632 51.644 279.94 52.0327 280.248 52.414C280.571 52.7807 280.849 53.1033 281.084 53.382V53.668H278.906C278.627 53.4773 278.297 53.2427 277.916 52.964C277.549 52.6707 277.168 52.3627 276.772 52.04C276.391 51.7173 276.031 51.4093 275.694 51.116C275.357 50.8227 275.085 50.5733 274.88 50.368V50.148H278.554Z" fill="#767753"/>
</svg>
