<svg width="269" height="98" viewBox="0 0 269 98" fill="none" xmlns="http://www.w3.org/2000/svg">
<path d="M83.986 34.232V37.136H100.882V34.232H83.986ZM84.712 74.506C84.712 73.978 86.67 72.922 86.67 72.922V72.834C89.442 68.874 92.5 63.352 94.7 57.456L91.73 56.598C89.992 62.054 86.934 67.796 85.9 69.248C84.932 70.744 84.36 71.58 83.612 71.822C83.986 72.57 84.536 73.956 84.712 74.506ZM84.712 74.506C85.944 74.11 87.726 74.242 101.476 73.67C101.366 73.12 101.278 71.844 101.322 71.118L86.494 71.558L84.668 72.46L84.712 74.506Z" fill="#767753"/>
<path d="M242.106 37.752C243.866 40.172 246.066 43.516 247.056 45.562L249.586 44.132C248.464 42.108 246.33 39.006 244.482 36.63L242.106 37.752ZM233.768 44.924C233.768 44.396 235.77 43.252 235.77 43.252V43.186C238.3 38.786 240.984 32.67 242.766 26.356L239.752 25.608C238.366 31.482 235.682 37.818 234.758 39.402C233.9 41.03 233.372 41.954 232.668 42.218C233.042 42.988 233.592 44.396 233.768 44.924ZM233.768 44.924C234.868 44.44 236.408 44.264 247.496 42.812C247.298 42.24 246.968 41.118 246.858 40.37L235.264 41.668L233.636 42.658L233.768 44.924ZM231.106 30.668V33.286H249.85V30.668H231.106ZM243.866 68.016C245.164 70.37 246.748 73.582 247.43 75.584L250.026 74.308C249.234 72.284 247.672 69.27 246.286 66.916L243.866 68.016ZM233.306 74.902C233.306 74.396 235.264 73.582 235.264 73.582V73.516C239.268 70.48 243.602 66.432 247.21 61.548L245.032 59.81C241.666 64.672 236.98 69.138 235.374 70.37C233.922 71.558 233.086 72.196 232.272 72.394C232.624 73.12 233.152 74.374 233.306 74.902ZM233.306 74.902C234.428 74.396 235.99 74.198 248.266 72.482C248.068 71.954 247.76 70.964 247.628 70.282L234.736 71.888L233.196 72.812L233.306 74.902ZM233.24 67.444C233.24 66.96 234.934 66.146 234.934 66.146V66.08C237.486 63.836 240.17 60.69 242.194 57.5L239.84 55.982C238.102 59.238 235.33 62.56 234.406 63.396C233.548 64.254 233.02 64.76 232.36 64.914C232.668 65.618 233.13 66.938 233.24 67.444ZM233.24 67.444C234.01 67.114 235.22 66.872 243.008 65.992C243.14 65.442 243.514 64.32 243.866 63.638L234.56 64.518L233.13 65.354L233.24 67.444Z" fill="#767753"/>
<path d="M262.099 49.368C261.893 49.5733 261.622 49.8227 261.285 50.116C260.947 50.4093 260.581 50.7173 260.185 51.04C259.803 51.3627 259.422 51.6707 259.041 51.964C258.674 52.2427 258.351 52.4773 258.073 52.668H255.895V52.382C256.129 52.1033 256.401 51.7807 256.709 51.414C257.031 51.0327 257.347 50.644 257.655 50.248C257.963 49.8373 258.219 49.4707 258.425 49.148H262.099V49.368Z" fill="#767753"/>
<path d="M24.408 57.344V64.112H69.84V57.344H24.408ZM33.624 30.344H39.312V32.864H33.624V30.344ZM33.624 37.616H39.312V40.208H33.624V37.616ZM33.624 23.072H39.312V25.592H33.624V23.072ZM27.36 18.032V45.176H45.792V18.032H27.36ZM54.792 30.344H60.624V32.864H54.792V30.344ZM54.792 37.616H60.624V40.208H54.792V37.616ZM54.792 23.072H60.624V25.592H54.792V23.072ZM48.456 18.032V45.176H67.248V18.032H48.456ZM40.176 52.304C36.864 58.496 31.968 66.56 28.44 71.6L35.856 73.688C39.384 68.576 44.352 60.872 48.168 54.248L40.176 52.304ZM37.368 47.12C39.024 48.704 41.184 50.936 42.12 52.376L46.728 48.704C45.648 47.336 43.488 45.176 41.76 43.808L37.368 47.12ZM58.824 47.12C61.056 49.64 63.72 53.24 64.872 55.4L69.984 52.016C68.688 49.856 65.88 46.472 63.72 44.096L58.824 47.12ZM33.624 71.96C43.92 74.768 57.384 79.808 64.008 83.624L69.192 77.648C61.92 73.832 48.312 69.152 38.448 66.704L33.624 71.96ZM51.768 44.096C50.328 46.688 47.592 50.216 45 52.16C46.512 53.096 48.528 54.824 49.608 55.832C52.128 53.744 55.296 50.072 57.168 46.976L51.768 44.096ZM30.456 44.096C29.088 46.688 26.28 50.144 23.76 52.088C25.2 53.024 27.288 54.752 28.368 55.76C30.816 53.744 33.984 50.072 35.928 47.048L30.456 44.096ZM3.168 30.776V38.696H25.056V30.776H3.168ZM10.872 15.872V83.48H18.576V15.872H10.872ZM10.728 36.248C9.216 45.392 5.616 56.768 1.44 62.96C2.664 64.904 4.392 68.144 5.112 70.304C9.792 62.96 13.464 49.064 15.192 37.76L10.728 36.248ZM18.216 40.64L15.12 43.736C16.848 46.472 20.52 53.528 21.888 57.056L25.848 51.08C24.768 49.424 19.584 42.224 18.216 40.64ZM54.288 60.8C51.408 72.896 43.2 75.776 23.76 76.352C24.912 78.08 26.208 81.176 26.568 83.624C49.104 81.536 59.256 77.072 62.424 61.304L54.288 60.8ZM146.52 29.336V37.256H168.696V29.336H146.52ZM154.584 15.872V83.48H162.792V15.872H154.584ZM154.8 35.24C153.216 44.168 149.616 55.616 145.44 61.736C146.664 64.04 148.608 68 149.4 70.592C153.936 63.032 157.752 48.776 159.48 37.04L154.8 35.24ZM162.288 38.264L158.184 41.504C160.344 44.96 164.376 52.664 165.96 56.768L171.072 50.576C169.848 48.56 163.944 40.208 162.288 38.264ZM197.712 51.728C201.672 55.904 206.784 61.736 209.016 65.408L214.632 60.008C212.184 56.552 206.928 51.08 202.968 47.12L197.712 51.728ZM170.064 28.76C172.296 33.728 174.6 40.352 175.392 44.6L182.16 41.792C181.152 37.544 178.776 31.136 176.4 26.24L170.064 28.76ZM205.992 25.664C204.696 30.416 202.104 36.896 200.016 41.072L206.064 43.88C208.44 40.064 211.176 34.088 213.912 28.904L205.992 25.664ZM193.032 15.944V71.24C193.032 80.24 194.76 82.688 200.88 82.688C202.104 82.688 205.344 82.688 206.568 82.688C211.896 82.688 213.912 79.16 214.704 69.944C212.4 69.44 209.376 68 207.504 66.56C207.36 73.112 207.072 74.984 205.848 74.984C205.272 74.984 202.968 74.984 202.464 74.984C201.24 74.984 201.096 74.552 201.096 71.312V15.944H193.032ZM168.048 58.64L172.152 66.776C176.184 63.176 180.648 59 184.896 54.896L182.304 48.992C177.12 52.736 171.576 56.552 168.048 58.64ZM180.864 15.944V46.328C180.864 57.848 180.144 71.312 167.112 77.576C168.84 79.088 171.504 82.184 172.656 83.84C186.264 75.488 188.64 60.224 188.64 46.4V15.944H180.864Z" fill="#767753"/>
</svg>
