<svg width="192" height="77" viewBox="0 0 192 77" fill="none" xmlns="http://www.w3.org/2000/svg">
<path d="M12.168 16.148L11.376 16.292H1.98V20.612H9.792C8.172 26.912 5.004 31.844 0.828 34.652C1.908 35.3 3.636 37.028 4.392 38.036C9.468 34.292 13.428 26.984 15.084 17.228L12.168 16.148ZM30.204 13.124C28.368 15.68 25.524 18.74 22.968 21.116C21.924 18.812 21.096 16.4 20.412 13.88V7.544H15.876V35.588C15.876 36.2 15.624 36.452 14.904 36.452C14.148 36.452 11.88 36.488 9.504 36.38C10.188 37.64 11.016 39.8 11.196 41.168C14.472 41.168 16.812 40.988 18.36 40.196C19.836 39.476 20.412 38.18 20.412 35.588V24.968C23.004 30.836 26.64 35.588 31.86 38.54C32.616 37.244 34.092 35.444 35.172 34.544C30.744 32.456 27.36 28.964 24.804 24.644C27.72 22.376 31.32 18.992 34.2 15.932L30.204 13.124ZM84.816 36.416V34.04H89.856L88.38 34.868C88.992 35.3 89.64 35.804 90.252 36.308L84.816 36.416ZM74.88 30.908V28.64H80.604V30.908H74.88ZM91.008 28.64V30.908H84.816V28.64H91.008ZM88.092 13.232H93.924V16.364C93.6 16.112 93.24 15.86 92.916 15.644L89.964 17.66C90.684 18.164 91.404 18.776 92.088 19.424C91.116 19.208 89.676 18.776 88.92 18.272C88.776 20.216 88.488 20.504 87.228 20.504H84.528C87.12 18.848 89.424 16.904 91.296 14.708L88.092 13.232ZM95.436 34.04V25.472H84.816V24.068H80.604V25.472H74.34C76.068 24.824 77.76 24.14 79.38 23.348C79.92 23.384 80.496 23.42 81.144 23.42H87.588C90.648 23.42 91.728 22.592 92.124 19.46C93.744 20.936 95.22 22.592 96.012 23.888L99.144 21.512C98.064 19.964 96.084 18.02 94.068 16.472H98.352V9.812H84.924V7.544H80.532V9.812H67.32V16.472H70.992C70.164 18.092 68.832 19.424 66.996 20.288L69.804 22.628C72.72 21.152 74.052 18.704 74.916 15.968L71.604 14.924L71.532 15.14V13.232H78.804L77.544 14.348C79.164 15.032 81.18 16.292 82.224 17.264L84.708 14.78C84.096 14.312 83.196 13.736 82.26 13.232H87.732C85.68 15.68 82.764 17.768 79.416 19.496V19.46V15.68H75.708V19.496C75.708 20.108 75.744 20.648 75.852 21.116C72.9 22.304 69.732 23.276 66.528 23.996C67.284 24.752 68.472 26.336 69.012 27.2C69.552 27.056 70.128 26.876 70.668 26.696V34.04H80.604V36.488C75.744 36.596 71.244 36.632 67.752 36.668L67.968 40.448C74.592 40.304 84.6 40.052 94.14 39.8C94.752 40.412 95.328 40.988 95.76 41.492L99.144 39.332C97.812 37.892 95.4 35.768 93.132 34.04H95.436ZM143.172 24.788C142.596 23.852 140.076 20.288 139.032 18.992V18.164H141.948V14.204H139.032V7.508H135V14.204H130.932V18.164H134.892C133.992 22.448 132.372 27.524 130.392 30.332C131.04 31.484 132.012 33.428 132.372 34.688C133.308 33.104 134.208 30.908 135 28.496V41.096H139.032V24.356C139.68 25.652 140.292 26.912 140.652 27.848L143.172 24.788ZM148.032 18.128C147.456 16.364 146.628 14.348 145.8 12.656L142.668 13.952C143.784 16.4 144.936 19.712 145.332 21.8L148.032 20.648V22.7C148.032 23.276 148.032 23.924 147.996 24.536C145.656 26.192 143.244 27.848 141.66 28.784L143.712 32.816C144.972 31.736 146.268 30.512 147.6 29.252C146.916 32.888 145.296 36.236 141.228 38.216C142.056 38.9 143.388 40.448 143.964 41.312C150.732 37.136 151.92 29.576 151.92 22.7V7.544H148.032V18.128ZM158.796 36.884C158.184 36.884 158.112 36.668 158.112 35.084V27.164C159.696 28.928 161.244 30.8 162.072 32.132L164.844 29.468C163.656 27.74 160.992 25.04 159.048 23.024L158.112 23.852V20.288L160.524 21.44C161.748 19.568 163.116 16.58 164.448 13.988L160.524 12.404C159.984 14.384 159.048 16.94 158.112 18.956V7.544H154.08V35.048C154.08 39.476 154.944 40.736 158.004 40.736H160.848C163.476 40.736 164.448 38.936 164.88 34.4C163.728 34.112 162.252 33.428 161.316 32.708C161.208 35.948 161.064 36.884 160.488 36.884H158.796Z" fill="#767753"/>
<path d="M56.7827 29.516C56.652 29.3013 56.4793 29.068 56.2647 28.816C56.0593 28.564 55.8447 28.3167 55.6207 28.074C55.406 27.8313 55.21 27.626 55.0327 27.458V27.276H56.4187C56.6613 27.4253 56.9227 27.6027 57.2027 27.808C57.4827 28.004 57.744 28.228 57.9867 28.48C58.2293 28.228 58.4953 28.004 58.7847 27.808C59.074 27.6027 59.34 27.4253 59.5827 27.276H60.9687V27.458C60.8007 27.626 60.6047 27.8313 60.3807 28.074C60.1567 28.3167 59.9373 28.564 59.7227 28.816C59.5173 29.068 59.3493 29.3013 59.2187 29.516H56.7827Z" fill="#767753"/>
<path d="M122.362 27.276C122.502 27.4813 122.665 27.7147 122.852 27.976C123.048 28.228 123.244 28.4753 123.44 28.718C123.645 28.9513 123.823 29.1567 123.972 29.334V29.516H122.586C122.409 29.3947 122.199 29.2453 121.956 29.068C121.723 28.8813 121.48 28.6853 121.228 28.48C120.985 28.2747 120.757 28.0787 120.542 27.892C120.327 27.7053 120.155 27.5467 120.024 27.416V27.276H122.362Z" fill="#767753"/>
<path d="M50.348 6.22H40.03V7.844H48.64V10.266H40.562V11.848C40.562 13.248 40.324 15.586 38.322 17.07C38.742 17.294 39.414 17.826 39.722 18.134C41.976 16.44 42.312 13.64 42.312 11.904H50.348V6.22ZM50.754 29.048C49.858 27.774 48.43 26.234 46.834 24.694C47.996 23.07 48.99 21.278 49.802 19.346L48.066 18.8C47.38 20.48 46.54 22.048 45.546 23.462C44.188 22.202 42.788 20.97 41.556 19.906L40.296 21.068C41.598 22.216 43.04 23.574 44.412 24.932C42.956 26.654 41.262 28.082 39.358 29.132C39.736 29.482 40.394 30.196 40.646 30.588C42.494 29.454 44.174 27.97 45.658 26.22C47.142 27.788 48.458 29.314 49.256 30.546L50.754 29.048ZM43.012 32.43C42.004 33.172 40.394 34.068 39.092 34.572C39.428 35.062 39.792 35.65 40.03 36.238C41.192 35.608 42.032 35.034 42.956 34.418C44.426 38.744 46.526 41.46 49.144 43.252C49.564 42.902 50.236 42.272 50.74 41.95C47.548 39.976 45.602 37.26 44.328 32.822L43.012 32.43Z" fill="#767753"/>
<path d="M105.806 14.444V25.518H107.584V16.152H114.444V25.518H116.306V14.444H105.806ZM105.596 31.784V33.618H116.348V31.784H105.596Z" fill="#767753"/>
<path d="M183.95 18.168V16.516H178.574C178.882 15.62 179.176 14.696 179.442 13.772L177.524 13.296C177.272 14.374 176.95 15.466 176.614 16.516H172.022V18.168H176.026C175.354 20.016 174.682 21.514 174.36 22.074C173.814 23.11 173.478 23.698 173.016 23.852C173.268 24.342 173.618 25.238 173.716 25.588C174.388 25.28 175.284 25.182 181.29 24.398C181.654 24.986 181.962 25.532 182.186 25.994L183.782 25.07C183.082 23.796 181.71 21.822 180.534 20.296L179.022 21.024C179.428 21.584 179.876 22.228 180.31 22.872L175.592 23.418C176.404 21.864 177.23 20.072 177.958 18.168H183.95ZM184.076 38.182C183.572 36.908 182.564 34.99 181.696 33.478L180.142 34.178C180.422 34.682 180.716 35.242 181.01 35.816L176.292 36.404C178.35 34.654 180.464 32.526 182.284 30.076L180.884 28.97C180.268 29.852 179.596 30.706 178.91 31.504L175.648 31.812C176.88 30.552 178.112 29.04 179.092 27.5L177.594 26.534C176.474 28.606 174.71 30.706 174.136 31.252C173.59 31.798 173.24 32.106 172.82 32.204C173.016 32.666 173.31 33.492 173.394 33.828C173.8 33.66 174.388 33.52 177.426 33.156C176.278 34.374 175.256 35.298 174.738 35.69C173.828 36.446 173.296 36.838 172.764 36.964C173.002 37.426 173.324 38.224 173.436 38.56C174.108 38.252 175.018 38.14 181.682 37.216C181.99 37.874 182.242 38.504 182.424 39.008L184.076 38.182Z" fill="#767753"/>
<path d="M190.688 25.416C190.538 25.584 190.319 25.8033 190.03 26.074C189.75 26.3447 189.456 26.6107 189.148 26.872C188.84 27.1333 188.574 27.348 188.35 27.516H187.174V27.334C187.314 27.166 187.477 26.9607 187.664 26.718C187.85 26.4753 188.032 26.228 188.21 25.976C188.396 25.7147 188.55 25.4813 188.672 25.276H190.688V25.416Z" fill="#767753"/>
</svg>
