<svg width="396" height="98" viewBox="0 0 396 98" fill="none" xmlns="http://www.w3.org/2000/svg">
<path d="M8.568 22.784V31.568H63.432V22.784H8.568ZM13.536 45.968V54.68H57.672V45.968H13.536ZM4.464 70.304V79.16H67.248V70.304H4.464ZM157.104 62.6V69.296H204.048V62.6H157.104ZM158.976 51.008V58.136H207.288V51.008H158.976ZM148.248 74.192V81.608H211.968V74.192H148.248ZM175.752 46.616V79.376H184.752V46.616H175.752ZM163.656 34.88H195.624V38.696H163.656V34.88ZM163.656 24.944H195.624V28.76H163.656V24.944ZM155.232 18.392V45.32H204.624V18.392H155.232ZM158.904 44.6C156.312 50.432 151.56 56.264 146.592 60.008C148.608 61.232 152.136 63.824 153.792 65.408C158.76 61.016 164.16 54.032 167.4 47.048L158.904 44.6ZM291.816 19.184V26.024H356.4V19.184H291.816ZM307.584 15.872V30.416H316.008V15.872H307.584ZM331.56 15.872V30.416H340.056V15.872H331.56ZM306.072 37.616H341.928V55.112H306.072V37.616ZM298.152 31.928V60.8H350.28V31.928H298.152ZM319.32 27.032C318.888 29.192 317.736 32.216 316.872 34.52L323.712 35.888C324.936 33.944 326.736 31.208 328.32 28.184L319.32 27.032ZM332.568 39.704V40.64C328.752 46.544 319.248 50.36 309.888 52.016C310.896 53.024 312.336 54.824 313.056 55.976C323.568 53.816 333.792 49.496 338.616 41.432L334.728 39.416L333.72 39.704H332.568ZM322.2 36.176C319.248 39.776 313.92 43.52 306.72 46.256C307.944 46.976 309.744 48.56 310.608 49.856C318.312 46.328 323.856 42.152 327.816 37.256L322.2 36.176ZM321.84 39.704L318.672 43.592H333.576V39.704H321.84ZM307.656 43.376C316.872 46.544 328.68 51.872 334.512 55.472L338.328 51.872C331.992 48.2 320.184 43.232 311.256 40.28L307.656 43.376ZM316.44 62.672C320.112 65.12 324.504 68.864 326.448 71.528L332.496 66.632C330.336 64.04 325.8 60.512 322.056 58.208L316.44 62.672ZM339.192 66.704C343.584 70.88 348.408 76.856 350.352 80.888L357.696 76.928C355.392 72.824 350.352 67.136 345.96 63.176L339.192 66.704ZM308.736 63.248V73.256C308.736 80.312 310.896 82.472 319.896 82.472C321.696 82.472 329.472 82.472 331.344 82.472C338.112 82.472 340.344 80.456 341.352 72.248C339.048 71.744 335.664 70.592 333.936 69.368C333.648 74.624 333.144 75.416 330.552 75.416C328.68 75.416 322.344 75.416 320.904 75.416C317.664 75.416 317.016 75.128 317.016 73.184V63.248H308.736ZM299.232 64.616C298.008 69.944 295.056 74.336 290.088 76.928L296.568 81.608C302.544 78.368 305.136 72.968 306.576 66.704L299.232 64.616Z" fill="#767753"/>
<path d="M88.42 32.64C89.938 35.566 91.786 39.504 92.578 41.99L95.416 40.802C94.492 38.316 92.688 34.62 91.06 31.694L88.42 32.64ZM78.146 41.352C78.168 40.802 80.17 39.724 80.17 39.724V39.636C82.678 35.588 85.362 29.978 87.21 24.126L84.13 23.334C82.722 28.746 80.06 34.576 79.158 36.028C78.3 37.524 77.794 38.36 77.068 38.602C77.442 39.372 77.992 40.802 78.146 41.352ZM78.146 41.352C79.356 40.802 80.984 40.626 92.908 38.822C92.688 38.228 92.358 37.106 92.182 36.336L79.686 37.986L78.014 38.998L78.146 41.352ZM79.356 67.016C79.576 66.796 80.61 66.686 81.71 66.686H92.864V64.156H80.742L79.356 64.948V67.016ZM91.852 64.156V64.794C91.302 67.588 89.85 71.262 88.618 73.154C89.256 73.484 90.224 74.122 90.73 74.518C92.292 72.23 93.898 68.644 94.734 65.08L92.798 64.046L92.292 64.156H91.852ZM79.356 67.016C79.356 66.488 81.138 65.586 81.138 65.586V65.542C81.974 64.09 83.008 61.802 83.514 59.8L80.742 59.052C80.412 60.988 79.642 62.946 79.356 63.474C79.114 64.024 78.784 64.42 78.454 64.508C78.762 65.212 79.202 66.444 79.356 67.016ZM77.948 56.302V58.81H91.104V56.302H77.948ZM90.29 56.302V56.588C89.85 58.524 88.882 62.11 88.002 64.816L90.642 65.256C91.522 62.55 92.49 59.228 93.084 56.566L91.06 56.192L90.62 56.302H90.29Z" fill="#767753"/>
<path d="M221.892 20.5V23.118H240.13V20.5H221.892ZM229.57 22.15V38.056H232.452V22.15H229.57ZM222.486 49.232V52.136H239.382V49.232H222.486ZM223.212 81.506C223.212 80.978 225.17 79.922 225.17 79.922V79.834C227.942 75.874 231 70.352 233.2 64.456L230.23 63.598C228.492 69.054 225.434 74.796 224.4 76.248C223.432 77.744 222.86 78.58 222.112 78.822C222.486 79.57 223.036 80.956 223.212 81.506ZM223.212 81.506C224.444 81.11 226.226 81.242 239.976 80.67C239.866 80.12 239.778 78.844 239.822 78.118L224.994 78.558L223.168 79.46L223.212 81.506Z" fill="#767753"/>
<path d="M370.452 22.238V24.856H389.46V22.238H370.452ZM374.764 31.126C374.962 30.906 375.908 30.796 376.744 30.796H384.708V28.2H376.04L374.764 28.926V31.126ZM384.092 28.2V28.838C383.388 31.544 381.628 35.152 380.11 37.11C380.77 37.506 381.782 38.254 382.31 38.738C384.136 36.34 386.072 32.754 387.106 29.19L385.06 28.046L384.554 28.2H384.092ZM374.764 31.126C374.764 30.62 376.788 29.696 376.788 29.696V29.63C378.306 26.88 379.956 23.074 381.056 19.268L378.306 18.63C377.426 22.128 375.864 25.89 375.336 26.88C374.808 27.914 374.434 28.508 373.884 28.684C374.192 29.344 374.61 30.598 374.764 31.126ZM384.818 41.422C381.936 48.484 377.184 54.292 371.112 57.636C371.706 58.186 372.762 59.33 373.158 59.924C379.296 56.14 384.334 49.87 387.546 42.258L384.818 41.422ZM372.608 44.986C377.602 49.43 383.96 55.7 386.666 59.858L389.02 57.526C386.094 53.346 379.472 47.362 374.588 43.16L372.608 44.986ZM372.212 81.506C372.212 80.978 374.17 79.922 374.17 79.922V79.834C376.942 75.874 380 70.352 382.2 64.456L379.23 63.598C377.492 69.054 374.434 74.796 373.4 76.248C372.432 77.744 371.86 78.58 371.112 78.822C371.486 79.57 372.036 80.956 372.212 81.506ZM372.212 81.506C373.444 81.11 375.226 81.242 388.976 80.67C388.866 80.12 388.778 78.844 388.822 78.118L373.994 78.558L372.168 79.46L372.212 81.506Z" fill="#767753"/>
</svg>
