<svg width="346" height="79" viewBox="0 0 346 79" fill="none" xmlns="http://www.w3.org/2000/svg">
<path d="M147.032 21H143.48V17.736H147.032V21ZM147.032 26.664H143.48V23.352H147.032V26.664ZM132.248 23.352H135.608V26.664H132.248V23.352ZM132.248 17.736H135.608V21H132.248V17.736ZM141.272 23.352V26.664H137.864V23.352H141.272ZM137.864 21V17.736H141.272V21H137.864ZM149.816 15.24H143.96V10.872H141.272V15.24H137.864V10.872H135.176V15.24H129.512V29.16H149.816V15.24ZM151.496 31.512H128.072V34.152H151.496V31.512ZM133.352 38.808H145.88V42.936H133.352V38.808ZM148.952 45.288V36.456H130.424V45.288H148.952ZM114.392 15.24H122.216V18.36H116.888V25.8H114.392V15.24ZM122.216 25.8H119.144V20.616H122.216V25.8ZM121.88 34.152V37.56H114.68V34.152H121.88ZM114.68 43.656V40.056H121.88V43.656H114.68ZM127.88 32.664V25.8H125.048V12.504H111.656V25.8H108.92V32.664H111.656V54.648H114.68V46.248H121.88V51.288C121.88 51.768 121.736 51.864 121.304 51.864C120.824 51.912 119.336 51.912 117.608 51.864C118.04 52.632 118.472 53.832 118.568 54.648C121.112 54.648 122.648 54.6 123.704 54.12C124.712 53.64 125 52.824 125 51.336V31.56H111.656V28.344H125.048V32.664H127.88ZM144.248 51.096C145.016 49.704 145.88 47.88 146.744 46.2L143.768 45.336C143.288 46.968 142.328 49.416 141.512 50.952L141.944 51.096H136.712L137.384 50.856C137.096 49.368 136.232 47.112 135.272 45.384L132.68 46.248C133.496 47.736 134.168 49.656 134.504 51.096H127.208V53.784H151.832V51.096H144.248ZM203.432 37.368V33.72H214.28V37.368H203.432ZM203.432 27.72H214.28V31.32H203.432V27.72ZM229.208 27.72V31.32H217.784V27.72H229.208ZM229.208 37.368H217.784V33.72H229.208V37.368ZM217.784 50.232V46.104H234.584V43.224H217.784V39.912H232.808V25.128H217.784V22.248H237.32V19.32H217.784V15.624C223.4 15.192 228.632 14.664 232.712 13.896L230.792 11.112C223.256 12.504 209.816 13.368 198.728 13.656C199.064 14.424 199.448 15.624 199.496 16.488C204.2 16.392 209.288 16.2 214.28 15.864V19.32H195.128V22.248H214.28V25.128H199.928V39.912H214.28V43.224H198.488V46.104H214.28V50.232H194.888V53.16H237.608V50.232H217.784Z" fill="#60794D"/>
<path d="M172.225 23.704V21.698H165.697C166.071 20.61 166.428 19.488 166.751 18.366L164.422 17.788C164.116 19.097 163.725 20.423 163.317 21.698H157.741V23.704H162.603C161.787 25.948 160.971 27.767 160.58 28.447C159.917 29.705 159.509 30.419 158.948 30.606C159.254 31.201 159.679 32.289 159.798 32.714C160.614 32.34 161.702 32.221 168.995 31.269C169.437 31.983 169.811 32.646 170.083 33.207L172.021 32.085C171.171 30.538 169.505 28.141 168.077 26.288L166.241 27.172C166.734 27.852 167.278 28.634 167.805 29.416L162.076 30.079C163.062 28.192 164.065 26.016 164.949 23.704H172.225ZM158.438 46.452V48.679H171.494V46.452H158.438Z" fill="#60794D"/>
<path d="M251.754 22.713V20.776H255.706V14.692H254.042V19.255H251.754V13.483H250.181V19.255H248.023V14.692H246.45V20.776H250.181V22.713H245.319V24.247H256.655V22.713H251.754ZM256.343 37.116C255.511 35.933 254.185 34.503 252.703 33.073C253.782 31.565 254.705 29.901 255.459 28.107L253.847 27.6C253.21 29.16 252.43 30.616 251.507 31.929C250.246 30.759 248.946 29.615 247.802 28.627L246.632 29.706C247.841 30.772 249.18 32.033 250.454 33.294C249.102 34.893 247.529 36.219 245.761 37.194C246.112 37.519 246.723 38.182 246.957 38.546C248.673 37.493 250.233 36.115 251.611 34.49C252.989 35.946 254.211 37.363 254.952 38.507L256.343 37.116ZM248.075 50.544C249.583 48.269 251.143 45.331 252.3 42.211L250.545 41.704C249.518 44.928 247.711 48.334 247.1 49.192C246.541 50.063 246.19 50.57 245.748 50.7C245.982 51.142 246.307 51.974 246.398 52.286C247.126 52.065 248.192 52.143 256.304 51.805C256.252 51.467 256.187 50.726 256.226 50.297L248.075 50.544Z" fill="#60794D"/>
<path d="M177.435 39.092C177.267 38.816 177.045 38.516 176.769 38.192C176.505 37.868 176.229 37.55 175.941 37.238C175.665 36.926 175.413 36.662 175.185 36.446V36.212H176.967C177.279 36.404 177.615 36.632 177.975 36.896C178.335 37.148 178.671 37.436 178.983 37.76C179.295 37.436 179.637 37.148 180.009 36.896C180.381 36.632 180.723 36.404 181.035 36.212H182.817V36.446C182.601 36.662 182.349 36.926 182.061 37.238C181.773 37.55 181.491 37.868 181.215 38.192C180.951 38.516 180.735 38.816 180.567 39.092H177.435Z" fill="#60794D"/>
<path d="M263.439 34.978C263.609 35.2273 263.808 35.5107 264.034 35.828C264.272 36.134 264.51 36.4343 264.748 36.729C264.998 37.0123 265.213 37.2617 265.394 37.477V37.698H263.711C263.496 37.5507 263.241 37.3693 262.946 37.154C262.663 36.9273 262.368 36.6893 262.062 36.44C261.768 36.1907 261.49 35.9527 261.229 35.726C260.969 35.4993 260.759 35.3067 260.6 35.148V34.978H263.439Z" fill="#60794D"/>
</svg>
