<svg width="562" height="91" viewBox="0 0 562 91" fill="none" xmlns="http://www.w3.org/2000/svg">
<rect width="562" height="91" rx="45.5" fill="#D7E9C6"/>
<rect x="13" y="11" width="535" height="70" rx="35" fill="#A0CA77"/>
<path d="M127.261 43.44H130.681V41.37H127.261V34.89H125.221V41.37H121.021V43.44H124.981C124.111 47.52 122.281 52.2 120.421 54.69C120.781 55.2 121.321 56.04 121.561 56.61C122.941 54.66 124.231 51.51 125.221 48.24V62.25H127.261V47.97C128.161 49.47 129.211 51.33 129.631 52.29L130.861 50.64C130.351 49.83 128.101 46.44 127.261 45.33V43.44ZM144.511 46.65H137.761V44.34H144.511V46.65ZM144.511 50.61H137.761V48.24H144.511V50.61ZM144.511 54.6H137.761V52.2H144.511V54.6ZM135.811 42.66V56.25H146.551V42.66H140.851C140.971 41.85 141.091 40.95 141.181 39.99H148.111V38.07H141.391C141.511 37.02 141.601 36 141.691 35.04L139.441 34.92C139.411 35.88 139.321 36.99 139.261 38.07H131.431V39.99H139.081C138.991 40.95 138.901 41.85 138.811 42.66H135.811ZM148.231 58.68H133.531V44.49H131.491V62.31H133.531V60.6H148.231V58.68ZM191.941 50.19L191.641 48.21L188.161 49.29V43.17H191.221V41.01H188.161V34.92H186.091V41.01H183.781C183.991 39.69 184.201 38.31 184.351 36.96L182.401 36.63C182.041 40.29 181.471 44.07 180.331 46.62C180.811 46.8 181.651 47.34 182.041 47.61C182.581 46.38 183.001 44.85 183.361 43.17H186.091V49.86C183.991 50.52 182.071 51.03 180.541 51.45L181.141 53.58C182.611 53.13 184.321 52.59 186.091 52.05V62.31H188.161V51.39L191.941 50.19ZM196.111 39.9C196.621 38.43 197.071 36.9 197.431 35.31L195.391 34.89C194.401 39.42 192.601 43.74 190.141 46.41C190.591 46.71 191.491 47.34 191.851 47.7C193.141 46.17 194.281 44.19 195.271 42H197.851C196.471 46.8 193.801 51.81 190.621 54.3C191.251 54.63 191.971 55.14 192.391 55.59C195.661 52.74 198.421 47.13 199.771 42H202.231C200.671 49.53 197.431 56.91 192.511 60.45C193.171 60.78 193.951 61.32 194.371 61.8C199.351 57.84 202.651 49.86 204.151 42H205.591C204.991 53.88 204.331 58.32 203.371 59.37C203.041 59.76 202.741 59.88 202.261 59.88C201.661 59.88 200.461 59.85 199.111 59.73C199.501 60.33 199.711 61.26 199.741 61.92C201.061 62.01 202.351 62.04 203.161 61.92C204.061 61.83 204.661 61.56 205.231 60.78C206.431 59.28 207.091 54.63 207.751 41.04C207.781 40.77 207.781 39.9 207.781 39.9H196.111ZM248.071 40.89H250.231V38.76H258.301V40.89H260.491V38.76H267.511V36.87H260.491V34.92H258.301V36.87H250.231V34.92H248.071V36.87H241.321V38.76H248.071V40.89ZM260.011 52.89C259.771 54.03 259.351 55.68 258.961 56.91L257.521 57L257.941 58.59C259.741 58.41 261.931 58.17 264.121 57.93C264.301 58.32 264.451 58.68 264.541 58.98L265.921 58.35C265.561 57.3 264.691 55.68 263.791 54.48L262.471 54.99C262.831 55.5 263.161 56.04 263.491 56.61C262.441 56.7 261.451 56.76 260.491 56.82C260.911 55.74 261.331 54.42 261.751 53.25L260.011 52.89ZM246.271 48.12H253.291V50.94H246.271V48.12ZM246.271 43.74H253.291V46.5H246.271V43.74ZM262.711 46.5H255.361V43.74H262.711V46.5ZM262.711 50.94H255.361V48.12H262.711V50.94ZM259.111 60.09C257.491 60.09 257.221 59.91 257.221 59.07V52.62H264.961V42.06H254.701C255.061 41.43 255.421 40.71 255.811 39.96L253.531 39.57C253.321 40.26 252.961 41.22 252.601 42.06H244.081V52.62H249.091C248.431 56.37 246.751 59.07 240.661 60.42C241.111 60.84 241.711 61.77 241.921 62.31C248.641 60.6 250.591 57.33 251.371 52.62H255.091V59.1C255.091 61.38 255.901 61.95 258.961 61.95H264.871C267.181 61.95 267.871 61.23 268.141 58.35C267.541 58.23 266.671 57.93 266.191 57.6C266.071 59.73 265.861 60.09 264.691 60.09H259.111ZM306.781 47.4H313.771V49.47H306.781V47.4ZM313.771 42.24H306.781V40.23H313.771V42.24ZM313.771 45.81H306.781V43.83H313.771V45.81ZM327.691 54.96V53.13H315.391V51.27H326.851V49.47H315.901V47.4H324.601V45.81H315.901V43.83H324.511V42.24H315.901V40.23H325.681V38.46H315.841C316.411 37.5 317.041 36.36 317.641 35.25L315.151 34.89C314.821 35.91 314.191 37.32 313.591 38.46H307.801C308.521 37.38 309.151 36.33 309.691 35.31L307.381 34.86C306.061 37.56 303.631 41.07 300.301 43.68C300.781 43.98 301.531 44.64 301.891 45.15C302.911 44.31 303.841 43.38 304.711 42.45V51.27H313.201V53.13H301.081V54.96H311.341C308.491 57.18 304.141 59.16 300.361 60.12C300.841 60.54 301.501 61.38 301.831 61.95C305.641 60.75 310.141 58.44 313.201 55.83V62.25H315.391V55.77C318.451 58.35 322.981 60.6 326.851 61.74C327.181 61.17 327.811 60.36 328.291 59.91C324.511 58.98 320.161 57.12 317.341 54.96H327.691ZM396.713 60H382.553V57.81L388.163 52.14C389.243 51.06 390.153 50.1 390.893 49.26C391.633 48.42 392.193 47.6 392.573 46.8C392.953 45.98 393.143 45.09 393.143 44.13C393.143 42.95 392.793 42.06 392.093 41.46C391.393 40.84 390.483 40.53 389.363 40.53C388.323 40.53 387.403 40.71 386.603 41.07C385.823 41.43 385.023 41.93 384.203 42.57L382.793 40.8C383.633 40.1 384.593 39.51 385.673 39.03C386.773 38.53 388.003 38.28 389.363 38.28C391.363 38.28 392.943 38.79 394.103 39.81C395.263 40.81 395.843 42.2 395.843 43.98C395.843 45.1 395.613 46.15 395.153 47.13C394.693 48.11 394.053 49.08 393.233 50.04C392.413 50.98 391.453 51.99 390.353 53.07L385.883 57.48V57.6H396.713V60ZM423.091 38.58L415.111 60H412.531L420.511 38.58H423.091ZM452.134 43.59C452.134 45.03 451.734 46.18 450.934 47.04C450.134 47.88 449.054 48.44 447.694 48.72V48.84C449.414 49.04 450.694 49.58 451.534 50.46C452.374 51.34 452.794 52.49 452.794 53.91C452.794 55.15 452.504 56.26 451.924 57.24C451.344 58.2 450.444 58.95 449.224 59.49C448.024 60.03 446.474 60.3 444.574 60.3C443.454 60.3 442.414 60.21 441.454 60.03C440.494 59.87 439.574 59.57 438.694 59.13V56.67C439.594 57.11 440.564 57.46 441.604 57.72C442.644 57.96 443.644 58.08 444.604 58.08C446.524 58.08 447.904 57.71 448.744 56.97C449.604 56.21 450.034 55.17 450.034 53.85C450.034 52.51 449.504 51.55 448.444 50.97C447.404 50.37 445.934 50.07 444.034 50.07H441.964V47.82H444.064C445.824 47.82 447.154 47.45 448.054 46.71C448.974 45.97 449.434 44.99 449.434 43.77C449.434 42.73 449.084 41.93 448.384 41.37C447.684 40.79 446.734 40.5 445.534 40.5C444.374 40.5 443.384 40.67 442.564 41.01C441.744 41.35 440.934 41.78 440.134 42.3L438.814 40.5C439.574 39.9 440.514 39.38 441.634 38.94C442.774 38.5 444.064 38.28 445.504 38.28C447.744 38.28 449.404 38.78 450.484 39.78C451.584 40.78 452.134 42.05 452.134 43.59ZM484.152 49.26C484.152 51.56 483.912 53.54 483.432 55.2C482.952 56.84 482.192 58.1 481.152 58.98C480.112 59.86 478.732 60.3 477.012 60.3C474.592 60.3 472.802 59.33 471.642 57.39C470.502 55.43 469.932 52.72 469.932 49.26C469.932 46.94 470.162 44.96 470.622 43.32C471.102 41.68 471.862 40.43 472.902 39.57C473.942 38.69 475.312 38.25 477.012 38.25C479.412 38.25 481.202 39.22 482.382 41.16C483.562 43.08 484.152 45.78 484.152 49.26ZM472.572 49.26C472.572 52.2 472.902 54.4 473.562 55.86C474.242 57.32 475.392 58.05 477.012 58.05C478.612 58.05 479.752 57.33 480.432 55.89C481.132 54.43 481.482 52.22 481.482 49.26C481.482 46.34 481.132 44.15 480.432 42.69C479.752 41.23 478.612 40.5 477.012 40.5C475.392 40.5 474.242 41.23 473.562 42.69C472.902 44.15 472.572 46.34 472.572 49.26Z" fill="white"/>
<path d="M90 68C86.1062 68 82.5528 67.1078 79.4758 65.364C76.3717 63.6066 73.9891 61.1734 72.3962 58.1183C70.8033 55.1038 70 51.8594 70 48.4934C70 42.1399 71.8924 37.0842 75.6093 33.4613C79.3261 29.8385 84.1865 28 90.0272 28C93.853 28 97.3519 28.8652 100.429 30.5549C103.533 32.2582 105.929 34.6779 107.563 37.733C109.183 40.7611 110 44.2352 110 48.0608C110 51.9405 109.142 55.4687 107.44 58.5373C105.725 61.6465 103.261 64.0257 100.116 65.6208C96.998 67.2024 93.5943 68 90 68ZM90.0272 29.8925C84.6903 29.8925 80.2927 31.5417 76.9435 34.8131C73.5943 38.071 71.9061 42.6671 71.9061 48.4934C71.9061 51.562 72.6413 54.509 74.0844 57.2531C75.514 59.9703 77.6515 62.1467 80.4289 63.7283C83.2199 65.3099 86.4466 66.121 90.0136 66.121C93.3084 66.121 96.4125 65.391 99.258 63.9446C102.063 62.5252 104.255 60.4028 105.779 57.6316C107.318 54.8334 108.108 51.6161 108.108 48.0608C108.108 44.5461 107.359 41.3694 105.888 38.6252C104.432 35.8946 102.294 33.7452 99.5167 32.2176C96.712 30.6766 93.5262 29.8925 90.0272 29.8925Z" fill="white"/>
<path d="M97.611 48.7369H97.6382L92.6961 34.8538C92.3285 33.8129 90.9262 33.6237 90.2863 34.5159L81.6682 46.5064H81.6954C80.3339 48.4665 79.5851 50.9268 80.1842 53.8062C80.8104 56.8342 82.948 59.4702 85.7934 60.5247C91.4435 62.62 97.2298 58.8214 98.0467 53.0627C98.2645 51.5622 98.0739 50.0887 97.611 48.7369Z" fill="white"/>
<path d="M87.8216 61.4169C86.0926 56.8072 90.776 39.2607 90.776 39.2607L89.9864 62.0522L87.8216 61.4169Z" fill="#A0CA77"/>
<path d="M88.1758 54.7931C88.1758 54.7931 84.105 48.1287 84.5679 48.3314C85.5073 48.7235 87.0867 50.6025 89.6054 54.009" fill="#A0CA77"/>
<path d="M173.688 43.416C173.538 43.584 173.319 43.8033 173.03 44.074C172.75 44.3447 172.456 44.6107 172.148 44.872C171.84 45.1333 171.574 45.348 171.35 45.516H170.174V45.334C170.314 45.166 170.477 44.9607 170.664 44.718C170.85 44.4753 171.032 44.228 171.21 43.976C171.396 43.7147 171.55 43.4813 171.672 43.276H173.688V43.416Z" fill="white"/>
<path d="M349.688 51.416C349.538 51.584 349.319 51.8033 349.03 52.074C348.75 52.3447 348.456 52.6107 348.148 52.872C347.84 53.1333 347.574 53.348 347.35 53.516H346.174V53.334C346.314 53.166 346.477 52.9607 346.664 52.718C346.85 52.4753 347.032 52.228 347.21 51.976C347.396 51.7147 347.55 51.4813 347.672 51.276H349.688V51.416Z" fill="white"/>
<path d="M160.754 53.713V51.776H164.706V45.692H163.042V50.255H160.754V44.483H159.181V50.255H157.023V45.692H155.45V51.776H159.181V53.713H154.319V55.247H165.655V53.713H160.754Z" fill="white"/>
<path d="M225.754 54.048C224.858 52.774 223.43 51.234 221.834 49.694C222.996 48.07 223.99 46.278 224.802 44.346L223.066 43.8C222.38 45.48 221.54 47.048 220.546 48.462C219.188 47.202 217.788 45.97 216.556 44.906L215.296 46.068C216.598 47.216 218.04 48.574 219.412 49.932C217.956 51.654 216.262 53.082 214.358 54.132C214.736 54.482 215.394 55.196 215.646 55.588C217.494 54.454 219.174 52.97 220.658 51.22C222.142 52.788 223.458 54.314 224.256 55.546L225.754 54.048Z" fill="white"/>
<path d="M232.293 44.276C232.433 44.4813 232.596 44.7147 232.783 44.976C232.979 45.228 233.175 45.4753 233.371 45.718C233.576 45.9513 233.754 46.1567 233.903 46.334V46.516H232.517C232.34 46.3947 232.13 46.2453 231.887 46.068C231.654 45.8813 231.411 45.6853 231.159 45.48C230.916 45.2747 230.688 45.0787 230.473 44.892C230.258 44.7053 230.086 44.5467 229.955 44.416V44.276H232.293Z" fill="white"/>
<path d="M286.077 46.883C285.518 45.414 284.452 43.23 283.503 41.488L281.943 42.047C282.307 42.762 282.71 43.568 283.087 44.387L277.718 45.102C278.992 42.84 280.279 39.98 281.215 37.029L279.408 36.561C278.563 39.746 276.99 43.191 276.457 44.049C275.963 44.933 275.664 45.427 275.222 45.583C275.456 46.025 275.768 46.87 275.872 47.208C276.548 46.896 277.458 46.779 283.737 45.83C283.997 46.48 284.231 47.078 284.387 47.585L286.077 46.883ZM284.348 50.38L284.075 50.458H275.976V52.018H283.321C282.788 53.214 282.073 54.306 281.228 55.281C280.24 54.436 279.239 53.643 278.316 52.954L277.133 53.942C278.082 54.683 279.109 55.541 280.097 56.425C278.615 57.751 276.86 58.778 275.001 59.402C275.352 59.727 275.781 60.403 275.989 60.845C277.952 60.091 279.772 58.999 281.319 57.569C282.502 58.726 283.529 59.857 284.166 60.793L285.531 59.584C284.829 58.635 283.724 57.504 282.476 56.373C283.789 54.865 284.829 53.058 285.492 50.939L284.348 50.38Z" fill="white"/>
<path d="M340.463 39.405V45.476L336.524 46.399V39.873H334.99V46.048C334.99 46.594 334.561 46.971 334.249 47.14C334.522 47.517 334.86 48.232 334.977 48.648C335.471 48.336 336.16 48.063 340.463 46.932V50.754H342.062V39.405H340.463ZM333.482 57.228V58.931H343.466V57.228H333.482Z" fill="white"/>
</svg>
