<svg width="766" height="124" viewBox="0 0 766 124" fill="none" xmlns="http://www.w3.org/2000/svg">
<rect width="766" height="124" rx="45.5" fill="#D7E9C6"/>
<rect x="17.7188" y="14.989" width="729.199" height="95.3846" rx="45.5" fill="#A0CA77"/>
<path d="M208.247 51.576V53.952H228.407V51.576H208.247ZM209.543 76.488V78.9H228.551V76.488H209.543ZM217.895 47.796C217.787 51.108 217.427 55.464 217.031 58.128L219.443 58.452C219.911 55.68 220.379 51.396 220.667 47.94L217.895 47.796ZM208.319 59.388V80.916H210.767V59.388H208.319ZM215.915 63.924H224.087V66.768H215.915V63.924ZM215.915 68.712H224.087V71.592H215.915V68.712ZM215.915 59.172H224.087V61.98H215.915V59.172ZM213.539 57.12V73.608H226.535V57.12H213.539ZM195.647 55.572V58.128H207.347V55.572H195.647ZM200.723 47.76V80.844H203.207V47.76H200.723ZM200.651 57.084C199.643 62.232 197.303 68.496 194.927 71.736C195.359 72.312 196.007 73.356 196.295 74.04C198.815 70.44 201.191 63.348 202.307 57.66L200.651 57.084ZM203.027 60.144L201.803 61.296C202.703 62.7 205.259 67.02 206.051 68.856L207.563 66.84C206.879 65.76 203.819 61.152 203.027 60.144ZM277.835 47.76C276.611 53.232 274.487 58.416 271.463 61.656C272.039 62.016 273.119 62.808 273.551 63.204C276.575 59.64 278.951 54.168 280.283 48.264L277.835 47.76ZM290.255 53.808V54.456C289.499 70.26 288.671 75.984 287.483 77.352C287.051 77.82 286.691 77.964 286.115 77.964C285.431 77.964 283.955 77.928 282.335 77.784C282.767 78.504 283.019 79.656 283.091 80.448C284.675 80.556 286.259 80.592 287.195 80.448C288.311 80.34 288.995 80.016 289.715 79.044C291.191 77.28 291.947 71.628 292.775 55.212C292.811 54.816 292.811 53.808 292.811 53.808H290.255ZM277.583 53.808L276.431 56.364H291.335V53.808H277.583ZM281.219 54.6C279.743 60.9 276.287 67.884 272.075 71.196C272.795 71.592 273.659 72.24 274.199 72.78C278.303 69.216 281.723 62.016 283.271 55.644L281.219 54.6ZM286.367 54.816C284.639 64.392 280.643 74.148 274.343 78.648C275.135 79.044 276.107 79.728 276.647 80.304C282.695 75.444 286.727 65.508 288.527 55.824L286.367 54.816ZM259.871 67.74L260.591 70.368C264.227 69.216 269.087 67.704 273.659 66.264L273.299 63.888C268.403 65.364 263.255 66.876 259.871 67.74ZM266.603 47.796V80.88H269.123V47.796H266.603ZM262.139 49.848C261.707 54.276 260.987 58.848 259.619 61.908C260.195 62.16 261.239 62.772 261.671 63.096C263.039 59.892 263.939 55.032 264.479 50.244L262.139 49.848ZM262.355 55.14L261.923 57.768H272.831V55.14H262.355ZM340.043 57.192V68.208H342.635V57.192H340.043ZM342.275 68.532V77.028C342.275 79.8 343.211 80.52 346.955 80.52C347.747 80.52 353.255 80.52 354.047 80.52C356.891 80.52 357.719 79.62 358.043 76.128C357.323 75.984 356.243 75.66 355.667 75.228C355.523 77.784 355.271 78.216 353.831 78.216C352.643 78.216 347.999 78.216 347.135 78.216C345.155 78.216 344.831 78 344.831 77.028V68.532H342.275ZM335.075 68.604C334.355 73.464 332.483 76.884 324.815 78.612C325.355 79.152 326.075 80.232 326.363 80.952C334.751 78.792 336.983 74.652 337.883 68.604H335.075ZM351.203 72.06C352.247 73.536 353.291 75.588 353.687 76.848L355.379 76.092C354.983 74.832 353.867 72.852 352.787 71.448L351.203 72.06ZM348.215 69.504C347.891 71.16 347.243 73.644 346.667 75.192L348.287 75.696C348.899 74.22 349.655 71.916 350.339 69.972L348.215 69.504ZM340.367 53.412C340.043 54.528 339.395 56.148 338.855 57.3L340.979 57.804C341.627 56.832 342.419 55.356 343.139 53.916L340.367 53.412ZM345.191 74.472L345.695 76.416C348.143 76.164 350.987 75.876 353.975 75.552V73.932C350.663 74.148 347.531 74.364 345.191 74.472ZM331.583 63.744H351.455V67.164H331.583V63.744ZM331.583 58.452H351.455V61.836H331.583V58.452ZM328.955 56.436V69.216H354.191V56.436H328.955ZM333.743 47.796V55.032H336.407V47.796H333.743ZM346.163 47.796V55.032H348.791V47.796H346.163ZM325.607 50.1V52.476H357.287V50.1H325.607ZM390.119 69.792V72.06H422.303V69.792H390.119ZM396.167 56.652V58.56H418.451V56.652H396.167ZM396.167 60.972V62.916H418.559V60.972H396.167ZM395.735 52.044V54.276H419.927V52.044H395.735ZM405.455 53.304V66.228H408.083V53.304H405.455ZM404.771 66.912V80.88H407.471V66.912H404.771ZM404.195 70.62C400.919 73.86 394.583 76.884 389.219 78.252C389.831 78.792 390.623 79.8 391.019 80.52C396.311 78.864 402.719 75.444 406.283 71.7L404.195 70.62ZM408.083 70.62L405.995 71.7C409.559 75.336 415.931 78.648 421.295 80.232C421.691 79.548 422.447 78.54 423.023 78C417.623 76.668 411.323 73.788 408.083 70.62ZM407.147 47.76C406.643 49.308 405.599 51.54 404.735 52.98L407.111 53.484C408.047 52.116 409.163 50.1 410.171 48.192L407.147 47.76ZM397.751 47.724C396.131 51 393.179 55.212 389.147 58.38C389.759 58.74 390.659 59.568 391.127 60.18C395.411 56.58 398.435 52.188 400.559 48.228L397.751 47.724ZM394.475 53.52V67.56H421.331V65.4H397.067V53.52H394.475ZM509.883 78H492.891V75.372L499.623 68.568C500.919 67.272 502.011 66.12 502.899 65.112C503.787 64.104 504.459 63.12 504.915 62.16C505.371 61.176 505.599 60.108 505.599 58.956C505.599 57.54 505.179 56.472 504.339 55.752C503.499 55.008 502.407 54.636 501.063 54.636C499.815 54.636 498.711 54.852 497.751 55.284C496.815 55.716 495.855 56.316 494.871 57.084L493.179 54.96C493.851 54.384 494.583 53.868 495.375 53.412C496.191 52.956 497.067 52.596 498.003 52.332C498.963 52.068 499.983 51.936 501.063 51.936C502.671 51.936 504.051 52.212 505.203 52.764C506.355 53.316 507.243 54.108 507.867 55.14C508.515 56.148 508.839 57.36 508.839 58.776C508.839 59.784 508.683 60.744 508.371 61.656C508.059 62.544 507.615 63.42 507.039 64.284C506.463 65.148 505.767 66.024 504.951 66.912C504.135 67.8 503.235 68.724 502.251 69.684L496.887 74.976V75.12H509.883V78ZM553.596 52.296L544.02 78H540.924L550.5 52.296H553.596ZM600.507 58.308C600.507 59.46 600.291 60.456 599.859 61.296C599.427 62.136 598.803 62.82 597.987 63.348C597.195 63.876 596.259 64.248 595.179 64.464V64.608C597.243 64.848 598.779 65.496 599.787 66.552C600.795 67.608 601.299 68.988 601.299 70.692C601.299 72.18 600.951 73.512 600.255 74.688C599.559 75.84 598.479 76.74 597.015 77.388C595.575 78.036 593.715 78.36 591.435 78.36C590.091 78.36 588.843 78.252 587.691 78.036C586.539 77.844 585.435 77.484 584.379 76.956V74.004C585.459 74.532 586.623 74.952 587.871 75.264C589.119 75.552 590.319 75.696 591.471 75.696C593.775 75.696 595.431 75.252 596.439 74.364C597.471 73.452 597.987 72.204 597.987 70.62C597.987 69.54 597.699 68.676 597.123 68.028C596.571 67.356 595.755 66.864 594.675 66.552C593.595 66.24 592.299 66.084 590.787 66.084H588.303V63.384H590.823C592.239 63.384 593.415 63.18 594.351 62.772C595.311 62.364 596.031 61.8 596.511 61.08C597.015 60.336 597.267 59.484 597.267 58.524C597.267 57.276 596.847 56.316 596.007 55.644C595.167 54.948 594.027 54.6 592.587 54.6C591.675 54.6 590.847 54.696 590.103 54.888C589.359 55.056 588.663 55.308 588.015 55.644C587.391 55.956 586.755 56.328 586.107 56.76L584.523 54.6C585.147 54.12 585.855 53.676 586.647 53.268C587.463 52.86 588.363 52.536 589.347 52.296C590.331 52.056 591.399 51.936 592.551 51.936C595.239 51.936 597.231 52.536 598.527 53.736C599.847 54.936 600.507 56.46 600.507 58.308ZM650.988 65.112C650.988 67.2 650.832 69.06 650.52 70.692C650.208 72.324 649.704 73.716 649.008 74.868C648.336 75.996 647.448 76.86 646.344 77.46C645.264 78.06 643.956 78.36 642.42 78.36C640.5 78.36 638.904 77.832 637.632 76.776C636.384 75.72 635.448 74.208 634.824 72.24C634.224 70.248 633.924 67.872 633.924 65.112C633.924 62.328 634.2 59.952 634.752 57.984C635.328 56.016 636.24 54.516 637.488 53.484C638.736 52.428 640.38 51.9 642.42 51.9C644.34 51.9 645.936 52.428 647.208 53.484C648.48 54.516 649.428 56.016 650.052 57.984C650.676 59.952 650.988 62.328 650.988 65.112ZM637.092 65.112C637.092 67.464 637.26 69.42 637.596 70.98C637.956 72.54 638.52 73.716 639.288 74.508C640.08 75.276 641.124 75.66 642.42 75.66C643.716 75.66 644.748 75.276 645.516 74.508C646.308 73.74 646.884 72.576 647.244 71.016C647.604 69.432 647.784 67.464 647.784 65.112C647.784 62.76 647.604 60.816 647.244 59.28C646.884 57.72 646.308 56.556 645.516 55.788C644.748 54.996 643.716 54.6 642.42 54.6C641.124 54.6 640.08 54.996 639.288 55.788C638.52 56.556 637.956 57.72 637.596 59.28C637.26 60.816 637.092 62.76 637.092 65.112Z" fill="white"/>
<path d="M122.67 92.6594C117.363 92.6594 112.519 91.4436 108.326 89.0674C104.095 86.6728 100.847 83.3571 98.6761 79.1942C96.505 75.0865 95.4102 70.6656 95.4102 66.079C95.4102 57.4214 97.9895 50.5323 103.056 45.5956C108.121 40.659 114.746 38.1539 122.707 38.1539C127.921 38.1539 132.691 39.3328 136.884 41.6353C141.115 43.9562 144.381 47.2535 146.608 51.4164C148.816 55.5426 149.93 60.2766 149.93 65.4895C149.93 70.7761 148.761 75.5838 146.441 79.7652C144.103 84.0019 140.744 87.2438 136.458 89.4174C132.208 91.5726 127.569 92.6594 122.67 92.6594ZM122.707 40.7327C115.433 40.7327 109.439 42.98 104.874 47.4377C100.309 51.8769 98.0081 58.1398 98.0081 66.079C98.0081 70.2603 99.0102 74.276 100.977 78.0153C102.926 81.7177 105.839 84.6834 109.625 86.8386C113.429 88.9937 117.827 90.0989 122.689 90.0989C127.179 90.0989 131.41 89.1043 135.288 87.1333C139.111 85.1992 142.099 82.3072 144.177 78.531C146.274 74.718 147.35 70.334 147.35 65.4895C147.35 60.7002 146.33 56.3715 144.326 52.6322C142.34 48.9113 139.427 45.9825 135.641 43.901C131.818 41.8011 127.476 40.7327 122.707 40.7327Z" fill="white"/>
<path d="M133.043 66.4108H133.08L126.344 47.4932C125.843 46.0748 123.931 45.817 123.059 47.0327L111.313 63.3715H111.35C109.494 66.0424 108.474 69.3949 109.29 73.3184C110.144 77.4445 113.057 81.0365 116.936 82.4732C124.637 85.3284 132.523 80.1523 133.637 72.3053C133.933 70.2606 133.674 68.2528 133.043 66.4108Z" fill="white"/>
<path d="M119.7 83.6889C117.343 77.4076 123.727 53.4982 123.727 53.4982L122.651 84.5547L119.7 83.6889Z" fill="#A0CA77"/>
<path d="M120.182 74.6632C120.182 74.6632 114.634 65.582 115.265 65.8584C116.545 66.3925 118.698 68.953 122.131 73.5949" fill="#A0CA77"/>
<path d="M249.752 57.416C249.64 57.5467 249.486 57.7053 249.29 57.892C249.103 58.0787 248.893 58.2747 248.66 58.48C248.436 58.6853 248.212 58.8813 247.988 59.068C247.773 59.2453 247.582 59.3947 247.414 59.516H246.238V59.334C246.387 59.1567 246.555 58.9513 246.742 58.718C246.928 58.4753 247.11 58.228 247.288 57.976C247.474 57.7147 247.624 57.4813 247.736 57.276H249.752V57.416Z" fill="white"/>
<path d="M447.752 67.416C447.64 67.5467 447.486 67.7053 447.29 67.892C447.103 68.0787 446.893 68.2747 446.66 68.48C446.436 68.6853 446.212 68.8813 445.988 69.068C445.773 69.2453 445.582 69.3947 445.414 69.516H444.238V69.334C444.387 69.1567 444.555 68.9513 444.742 68.718C444.928 68.4753 445.11 68.228 445.288 67.976C445.474 67.7147 445.624 67.4813 445.736 67.276H447.752V67.416Z" fill="white"/>
<path d="M233.586 69.726V71.26H244.922V69.726H233.586ZM238.435 60.496V70.831H240.021V60.496H238.435ZM234.704 61.705V67.789H243.96V61.705H242.309V66.255H236.29V61.705H234.704Z" fill="white"/>
<path d="M306.333 59.814C304.499 64.308 301.475 68.004 297.611 70.132C297.989 70.482 298.661 71.21 298.913 71.588C302.819 69.18 306.025 65.19 308.069 60.346L306.333 59.814ZM298.563 62.082C301.741 64.91 305.787 68.9 307.509 71.546L309.007 70.062C307.145 67.402 302.931 63.594 299.823 60.92L298.563 62.082Z" fill="white"/>
<path d="M314.357 56.276C314.497 56.4813 314.66 56.7147 314.847 56.976C315.043 57.228 315.239 57.4753 315.435 57.718C315.64 57.9513 315.818 58.1567 315.967 58.334V58.516H314.581C314.404 58.3947 314.194 58.2453 313.951 58.068C313.718 57.8813 313.475 57.6853 313.223 57.48C312.98 57.2747 312.752 57.0787 312.537 56.892C312.322 56.7053 312.15 56.5467 312.019 56.416V56.276H314.357Z" fill="white"/>
<path d="M370.464 58.06C371.361 59.789 372.453 62.116 372.921 63.585L374.598 62.883C374.052 61.414 372.986 59.23 372.024 57.501L370.464 58.06ZM364.393 63.208C364.406 62.883 365.589 62.246 365.589 62.246V62.194C367.071 59.802 368.657 56.487 369.749 53.029L367.929 52.561C367.097 55.759 365.524 59.204 364.991 60.062C364.484 60.946 364.185 61.44 363.756 61.583C363.977 62.038 364.302 62.883 364.393 63.208ZM364.393 63.208C365.108 62.883 366.07 62.779 373.116 61.713C372.986 61.362 372.791 60.699 372.687 60.244L365.303 61.219L364.315 61.817L364.393 63.208ZM364.51 66.471V68.031H372.7V66.471H364.51ZM372.323 66.471V66.757C371.049 70.891 367.5 74.076 363.535 75.402C363.873 75.74 364.302 76.403 364.523 76.858C368.826 75.207 372.453 71.905 374.013 66.952L372.882 66.38L372.609 66.471H372.323ZM365.654 69.955C368.254 71.944 371.348 74.83 372.687 76.793L374.052 75.597C372.596 73.595 369.372 70.865 366.837 68.967L365.654 69.955Z" fill="white"/>
<path d="M436.997 55.405V66.754H438.596V55.405H436.997ZM431.498 64.661C432.031 64.31 432.785 64.024 437.946 62.685C437.829 62.36 437.66 61.775 437.582 61.333L432.109 62.62L431.342 63.192L431.498 64.661ZM431.498 64.661C431.498 64.089 433.045 63.296 433.045 63.296V55.873H431.511V62.048C431.511 62.607 431.095 62.984 430.77 63.153C431.043 63.517 431.394 64.245 431.498 64.661ZM430.003 73.228V74.944H439.987V73.228H430.003Z" fill="white"/>
</svg>
