<svg width="709" height="709" viewBox="0 0 709 709" fill="none" xmlns="http://www.w3.org/2000/svg">
<rect x="0.730469" y="0.176758" width="708.269" height="708.269" rx="56" fill="#B3DDE9"/>
<path d="M445.656 293.784H430.524V263.52C430.524 221.757 396.629 187.861 354.865 187.861C313.101 187.861 279.206 221.757 279.206 263.52V293.784H264.074C247.429 293.784 233.811 307.403 233.811 324.048V475.366C233.811 492.011 247.429 505.629 264.074 505.629H445.656C462.301 505.629 475.919 492.011 475.919 475.366V324.048C475.919 307.403 462.301 293.784 445.656 293.784ZM309.47 263.52C309.47 238.402 329.746 218.125 354.865 218.125C379.984 218.125 400.26 238.402 400.26 263.52V293.784H309.47V263.52ZM430.524 475.366H279.206C270.883 475.366 264.074 468.556 264.074 460.234V339.179C264.074 330.857 270.883 324.048 279.206 324.048H430.524C438.846 324.048 445.656 330.857 445.656 339.179V460.234C445.656 468.556 438.846 475.366 430.524 475.366ZM354.865 429.97C371.51 429.97 385.129 416.352 385.129 399.707C385.129 383.062 371.51 369.443 354.865 369.443C338.22 369.443 324.601 383.062 324.601 399.707C324.601 416.352 338.22 429.97 354.865 429.97Z" fill="white" fill-opacity="0.81"/>
</svg>
