<svg width="738" height="117" viewBox="0 0 738 117" fill="none" xmlns="http://www.w3.org/2000/svg">
<path d="M59.72 40.4V45.84H101.48V40.4H59.72ZM53.96 76.64V82H112.92V76.64H53.96ZM57 28.16V33.6H112.68V28.16H57ZM99.08 40.4V41.68C98.2 72.88 97.08 84.08 95 86.64C94.28 87.6 93.56 87.76 92.04 87.76C90.52 87.84 86.84 87.76 82.76 87.44C83.56 88.8 84.12 90.88 84.2 92.24C88.2 92.48 92.2 92.48 94.6 92.32C97 92.08 98.76 91.44 100.28 89.44C102.84 86.08 103.96 75.6 104.92 43.36C104.92 42.56 105 40.4 105 40.4H99.08ZM56.76 40.4C55.4 54.24 52.52 73.52 50.28 84.64L56.36 85.04C58.36 74 61.08 54.72 62.84 40.4H56.76ZM60.6 18.4C56.44 28.56 49.56 38.8 42.2 45.28C43.8 46.16 46.52 48 47.8 48.96C54.76 41.92 62.04 31.12 66.84 20.16L60.6 18.4ZM70.2 49.44C75.48 51.76 81.64 55.68 84.68 58.64L88.28 54.88C85.08 51.92 78.84 48.32 73.64 46L70.2 49.44ZM68.2 66.96C73.64 69.76 80.2 74.16 83.4 77.36L86.92 73.52C83.64 70.4 77 66.16 71.56 63.6L68.2 66.96ZM42.36 58.32V63.76H57.32V63.6H101.48V63.76H115.72V58.32H101.48V58.48H57.32V58.32H42.36ZM237.08 24.24V91.52H243.24V30.32H283.16V91.2H289.48V24.24H237.08ZM241.16 52V57.92H285.8V52H241.16ZM241.08 80.32V86.32H285.96V80.32H241.08ZM476.04 20.8C466.2 24.4 448.84 27.6 433.96 29.52C434.6 30.96 435.48 33.2 435.72 34.64C450.92 32.8 468.84 29.84 480.52 25.84L476.04 20.8ZM431.24 53.12V58.88H483.8V53.12H431.24ZM434.36 83.6V89.36H482.52V83.6H434.36ZM455.08 29.68V85.2H461.08V29.68H455.08ZM421.8 40.08V92.4H427.8V34.32L427.72 34.16L421.8 40.08ZM430.52 18.88C425.56 31.44 417.32 43.68 408.68 51.52C409.88 53.04 411.72 56.16 412.36 57.6C421.72 48.48 430.68 34.64 436.36 20.72L430.52 18.88ZM595.56 22.8V28H622.84V22.8H595.56ZM626.44 63.68V68.88H661.16V63.68H626.44ZM594.68 46.96V52.32H624.76V46.96H594.68ZM608.68 49.12V85.44C608.68 86.32 608.36 86.56 607.48 86.64C606.52 86.64 603.32 86.64 599.88 86.56C600.68 88.16 601.48 90.64 601.64 92.16C606.6 92.16 609.72 92.08 611.72 91.2C613.88 90.16 614.44 88.56 614.44 85.44V49.12H608.68ZM659.08 63.68V64.64C657.88 78.64 656.44 84.24 654.76 85.84C654.04 86.56 653.32 86.64 652.04 86.64C650.76 86.64 647.56 86.56 644.12 86.24C645 87.84 645.56 90.24 645.72 91.84C649.32 92.08 652.84 92.08 654.68 91.92C656.84 91.76 658.28 91.28 659.72 89.84C662.04 87.44 663.48 81.36 665 66.32C665.16 65.44 665.24 63.68 665.24 63.68H659.08ZM641.4 55.76C640.04 69.6 636.92 81.68 620.28 87.84C621.56 88.88 623.16 91.04 623.88 92.48C641.96 85.44 645.88 71.92 647.4 55.76H641.4ZM598.36 36.16C605.16 39.2 613.32 44.24 617.32 47.92L621.32 43.52C617.16 39.84 608.84 35.12 602.12 32.32L598.36 36.16ZM623.16 46.96V48C621.88 53.76 619.88 60.88 617.8 65.28L622.04 67.36C624.52 62.4 626.92 54.72 628.6 48L624.92 46.72L624.04 46.96H623.16ZM655.24 29.68C650.92 42.08 639.72 49.2 625.16 52.88C626.36 54.16 628.2 56.64 628.92 57.92C644.04 53.2 656.04 45.2 661.4 30.72L655.24 29.68ZM638.12 18.8C634.92 26.48 629.08 33.76 622.76 38.48C624.28 39.28 626.68 40.96 627.72 42C633.88 36.88 640.04 28.88 643.8 20.32L638.12 18.8ZM636.68 31.36L631.72 33.04C638.12 45.36 650.12 54.32 664.76 58.24C665.56 56.64 667.32 54.32 668.6 53.12C654.36 50 642.44 42 636.68 31.36ZM607.96 48.72C605.32 57.92 599.64 68.4 593.88 73.84C594.92 75.28 596.36 77.76 597 79.44C603.24 73.2 609 60.8 612.04 50.24L607.96 48.72ZM636.36 27.28L633.88 32.4H666.92V27.28H636.36ZM621.4 22.8V23.92C618.76 28.24 613.16 34.08 608.04 37.44C609.24 38.16 611.08 39.44 612.12 40.4C617.64 36.72 623.88 30.64 627.56 25.04L623.64 22.56L622.68 22.8H621.4Z" fill="white"/>
<path d="M130.352 24.398V51.258H134.704V28.546H151.33V51.258H155.886V24.398H130.352ZM156.94 87.484C155.682 88.232 154.084 89.796 153.03 90.612C146.706 86.26 141.606 79.698 138.002 69.192C135.792 70.688 133.718 72.082 130.93 73.612C130.318 72.184 129.434 70.756 128.618 69.532C131.78 68.308 135.724 66.132 138.172 64.364L141.368 65.282C144.428 76.06 149.188 82.69 156.94 87.484Z" fill="white"/>
<path d="M706.667 43.3771C701.951 54.9331 694.175 64.4371 684.239 69.9091C685.211 70.8091 686.939 72.6811 687.587 73.6531C697.631 67.4611 705.875 57.2011 711.131 44.7451L706.667 43.3771ZM686.687 49.2091C694.859 56.4811 705.263 66.7411 709.691 73.5451L713.543 69.7291C708.755 62.8891 697.919 53.0971 689.927 46.2211L686.687 49.2091Z" fill="white"/>
<path d="M726.431 36.424C726.791 36.952 727.211 37.552 727.691 38.224C728.195 38.872 728.699 39.508 729.203 40.132C729.731 40.732 730.187 41.26 730.571 41.716V42.184H727.007C726.551 41.872 726.011 41.488 725.387 41.032C724.787 40.552 724.163 40.048 723.515 39.52C722.891 38.992 722.303 38.488 721.751 38.008C721.199 37.528 720.755 37.12 720.419 36.784V36.424H726.431Z" fill="white"/>
<path d="M313.819 51.3769C315.927 54.5049 318.579 58.7889 319.769 61.4069L323.475 59.3329C322.115 56.7489 319.531 52.7709 317.321 49.6429L313.819 51.3769ZM306.645 42.2649V61.9509C306.645 63.5829 305.523 65.0449 304.707 65.6569C305.421 66.4389 306.781 68.4109 307.257 69.4309L310.963 64.9769V42.2649H306.645ZM307.257 69.4309C308.889 68.9209 311.235 69.0569 328.541 68.3429C328.405 67.4249 328.269 65.5549 328.337 64.3989L309.807 64.9429L307.223 66.3029L307.257 69.4309ZM307.597 42.1969V46.3109H326.501V70.2809H331.057V42.1969H307.597Z" fill="white"/>
<path d="M344.714 35.424C345.074 35.952 345.494 36.552 345.974 37.224C346.478 37.872 346.982 38.508 347.486 39.132C348.014 39.732 348.47 40.26 348.854 40.716V41.184H345.29C344.834 40.872 344.294 40.488 343.67 40.032C343.07 39.552 342.446 39.048 341.798 38.52C341.174 37.992 340.586 37.488 340.034 37.008C339.482 36.528 339.038 36.12 338.702 35.784V35.424H344.714Z" fill="white"/>
<path d="M170.87 63.184C170.534 62.632 170.09 62.032 169.538 61.384C169.01 60.736 168.458 60.1 167.882 59.476C167.33 58.852 166.826 58.324 166.37 57.892V57.424H169.934C170.558 57.808 171.23 58.264 171.95 58.792C172.67 59.296 173.342 59.872 173.966 60.52C174.59 59.872 175.274 59.296 176.018 58.792C176.762 58.264 177.446 57.808 178.07 57.424H181.634V57.892C181.202 58.324 180.698 58.852 180.122 59.476C179.546 60.1 178.982 60.736 178.43 61.384C177.902 62.032 177.47 62.632 177.134 63.184H170.87Z" fill="white"/>
<path d="M510.244 31.856C512.476 35.168 515.284 39.704 516.544 42.476L520.468 40.28C519.028 37.544 516.292 33.332 513.952 30.02L510.244 31.856ZM502.648 22.208V43.052C502.648 44.78 501.46 46.328 500.596 46.976C501.352 47.804 502.792 49.892 503.296 50.972L507.22 46.256V22.208H502.648ZM503.296 50.972C505.024 50.432 507.508 50.576 525.832 49.82C525.688 48.848 525.544 46.868 525.616 45.644L505.996 46.22L503.26 47.66L503.296 50.972ZM503.656 22.136V26.492H523.672V51.872H528.496V22.136H503.656ZM503.656 77.652C503.98 77.292 505.708 77.112 507.58 77.112H526.732V73.044H505.924L503.656 74.34V77.652ZM525.328 73.044V74.088C524.392 79.164 521.98 86.148 519.712 89.82C520.792 90.36 522.34 91.512 523.132 92.232C525.868 87.876 528.532 81 529.9 74.376L526.84 72.828L526.048 73.044H525.328ZM503.656 77.652C503.656 76.824 506.68 75.312 506.68 75.312V75.24C508.696 71.82 511.144 66.708 512.62 61.812L507.868 60.948C506.86 65.376 504.88 70.056 504.196 71.28C503.512 72.54 502.936 73.296 502.18 73.512C502.684 74.7 503.404 76.752 503.656 77.652Z" fill="white"/>
<path d="M545.431 56.424C545.791 56.952 546.211 57.552 546.691 58.224C547.195 58.872 547.699 59.508 548.203 60.132C548.731 60.732 549.187 61.26 549.571 61.716V62.184H546.007C545.551 61.872 545.011 61.488 544.387 61.032C543.787 60.552 543.163 60.048 542.515 59.52C541.891 58.992 541.303 58.488 540.751 58.008C540.199 57.528 539.755 57.12 539.419 56.784V56.424H545.431Z" fill="white"/>
</svg>
