<svg width="353" height="354" viewBox="0 0 353 354" fill="none" xmlns="http://www.w3.org/2000/svg">
<rect y="0.0791016" width="353" height="353" rx="56" fill="#F890AC"/>
<path d="M221.75 146.412H214.208V131.329C214.208 110.514 197.315 93.6206 176.5 93.6206C155.685 93.6206 138.792 110.514 138.792 131.329V146.412H131.25C122.954 146.412 116.167 153.2 116.167 161.496V236.912C116.167 245.208 122.954 251.996 131.25 251.996H221.75C230.046 251.996 236.833 245.208 236.833 236.912V161.496C236.833 153.2 230.046 146.412 221.75 146.412ZM153.875 131.329C153.875 118.81 163.981 108.704 176.5 108.704C189.019 108.704 199.125 118.81 199.125 131.329V146.412H153.875V131.329ZM214.208 236.912H138.792C134.644 236.912 131.25 233.519 131.25 229.371V169.037C131.25 164.889 134.644 161.496 138.792 161.496H214.208C218.356 161.496 221.75 164.889 221.75 169.037V229.371C221.75 233.519 218.356 236.912 214.208 236.912ZM176.5 214.287C184.796 214.287 191.583 207.5 191.583 199.204C191.583 190.908 184.796 184.121 176.5 184.121C168.204 184.121 161.417 190.908 161.417 199.204C161.417 207.5 168.204 214.287 176.5 214.287Z" fill="white" fill-opacity="0.81"/>
</svg>
