<svg width="709" height="709" viewBox="0 0 709 709" fill="none" xmlns="http://www.w3.org/2000/svg">
<rect y="0.176758" width="708.269" height="708.269" rx="56" fill="#F890AC"/>
<path d="M442.373 294.054H427.241V263.791C427.241 222.027 393.346 188.132 351.582 188.132C309.818 188.132 275.923 222.027 275.923 263.791V294.054H260.791C244.146 294.054 230.527 307.673 230.527 324.318V475.636C230.527 492.281 244.146 505.9 260.791 505.9H442.373C459.018 505.9 472.636 492.281 472.636 475.636V324.318C472.636 307.673 459.018 294.054 442.373 294.054ZM306.186 263.791C306.186 238.672 326.463 218.395 351.582 218.395C376.701 218.395 396.977 238.672 396.977 263.791V294.054H306.186V263.791ZM427.241 475.636H275.923C267.6 475.636 260.791 468.827 260.791 460.504V339.45C260.791 331.127 267.6 324.318 275.923 324.318H427.241C435.563 324.318 442.373 331.127 442.373 339.45V460.504C442.373 468.827 435.563 475.636 427.241 475.636ZM351.582 430.241C368.227 430.241 381.845 416.622 381.845 399.977C381.845 383.332 368.227 369.713 351.582 369.713C334.937 369.713 321.318 383.332 321.318 399.977C321.318 416.622 334.937 430.241 351.582 430.241Z" fill="white" fill-opacity="0.81"/>
</svg>
