<svg width="353" height="352" viewBox="0 0 353 352" fill="none" xmlns="http://www.w3.org/2000/svg">
<rect width="353" height="352" rx="56" fill="#D693CE"/>
<path d="M221.75 146.333H214.208V131.25C214.208 110.435 197.315 93.5415 176.5 93.5415C155.685 93.5415 138.792 110.435 138.792 131.25V146.333H131.25C122.954 146.333 116.167 153.121 116.167 161.417V236.833C116.167 245.129 122.954 251.917 131.25 251.917H221.75C230.046 251.917 236.833 245.129 236.833 236.833V161.417C236.833 153.121 230.046 146.333 221.75 146.333ZM153.875 131.25C153.875 118.731 163.981 108.625 176.5 108.625C189.019 108.625 199.125 118.731 199.125 131.25V146.333H153.875V131.25ZM214.208 236.833H138.792C134.644 236.833 131.25 233.439 131.25 229.292V168.958C131.25 164.81 134.644 161.417 138.792 161.417H214.208C218.356 161.417 221.75 164.81 221.75 168.958V229.292C221.75 233.439 218.356 236.833 214.208 236.833ZM176.5 214.208C184.796 214.208 191.583 207.421 191.583 199.125C191.583 190.829 184.796 184.042 176.5 184.042C168.204 184.042 161.417 190.829 161.417 199.125C161.417 207.421 168.204 214.208 176.5 214.208Z" fill="white" fill-opacity="0.81"/>
</svg>
