<svg width="730" height="728" viewBox="0 0 730 728" fill="none" xmlns="http://www.w3.org/2000/svg">
<rect x="49.7695" y="35.3506" width="658.431" height="658.431" rx="142.5" stroke="#98CDD0" stroke-width="15"/>
<path d="M170.404 197.729L314.881 340.705C254.086 415.461 258.833 525.563 328.722 594.725C403.107 668.338 523.053 667.711 596.666 593.325C670.278 518.939 669.651 398.993 595.265 325.381C525.343 256.185 415.197 252.59 341.114 314.196L196.637 171.221L369.878 179.835L371.521 146.593L133.309 134.719L147.672 372.793L180.895 370.803L170.404 197.729ZM565.185 355.778C622.8 412.794 623.285 505.696 566.269 563.312C509.253 620.927 416.351 621.412 358.735 564.396C301.12 507.38 300.635 414.477 357.651 356.862C414.701 299.28 507.603 298.795 565.185 355.778Z" fill="#98CDD0"/>
</svg>
