<svg width="211" height="88" viewBox="0 0 211 88" fill="none" xmlns="http://www.w3.org/2000/svg">
<path d="M90.26 24.33V24.96C89.66 34.38 88.91 38.52 87.89 39.48C87.47 39.87 87.11 39.93 86.48 39.93C85.7 39.93 83.93 39.9 82.1 39.75C82.79 40.77 83.27 42.36 83.33 43.38C85.1 43.47 86.93 43.47 87.98 43.35C89.3 43.2 90.17 42.87 91.04 41.85C92.39 40.35 93.14 36.24 93.89 25.95C93.92 25.47 93.98 24.33 93.98 24.33H90.26ZM73.85 28.17C74.12 27.87 75.53 27.72 76.94 27.72H91.43L91.46 24.33H75.68L73.85 25.38V28.17ZM73.85 28.17C73.85 27.45 76.13 26.19 76.13 26.19V26.13C77.21 24.12 78.53 20.97 79.13 18.24L75.17 17.19C74.87 19.8 74 22.5 73.73 23.22C73.43 23.97 72.98 24.48 72.56 24.63C72.98 25.62 73.64 27.36 73.85 28.17ZM80.87 26.22C79.79 33.9 76.64 38.49 69.92 40.83C70.67 41.52 71.99 43.05 72.44 43.8C79.46 40.8 83.09 35.55 84.59 26.67L80.87 26.22ZM72.38 72.69C72.38 71.97 75.05 70.53 75.05 70.53V70.41C78.83 65.01 83 57.48 86 49.44L81.95 48.27C79.58 55.71 75.41 63.54 74 65.52C72.68 67.56 71.9 68.7 70.88 69.03C71.39 70.05 72.14 71.94 72.38 72.69ZM72.38 72.69C74.06 72.15 76.49 72.33 95.24 71.55C95.09 70.8 94.97 69.06 95.03 68.07L74.81 68.67L72.32 69.9L72.38 72.69Z" fill="#1299E5"/>
<path d="M192.46 31.08V43.74H196.18V28.02L195.7 27.84L192.46 31.08ZM200.89 20.76C196.45 26.4 188.8 31.14 181.21 33.72C181.9 34.5 183.01 36.21 183.43 37.08C191.11 33.99 199.12 28.86 204.19 22.56L200.89 20.76ZM195.94 16.56C193.24 19.83 187.6 23.31 182.35 25.17C182.98 25.89 184.03 27.3 184.51 28.17C190.09 25.95 195.79 22.23 199.48 18.24L195.94 16.56ZM199.57 48.03C195.64 57.66 189.16 65.58 180.88 70.14C181.69 70.89 183.13 72.45 183.67 73.26C192.04 68.1 198.91 59.55 203.29 49.17L199.57 48.03ZM182.92 52.89C189.73 58.95 198.4 67.5 202.09 73.17L205.3 69.99C201.31 64.29 192.28 56.13 185.62 50.4L182.92 52.89Z" fill="#1299E5"/>
<path d="M20.096 32.096V36.256H43.84V32.096H20.096ZM4.16 67.616V71.648H59.904V67.616H4.16ZM8 16.736V20.768H26.944V16.736H8ZM25.408 16.736V17.632C21.44 27.808 11.072 36.768 1.664 40.736C2.624 41.568 3.904 43.232 4.544 44.256C14.72 39.52 25.408 30.368 30.208 18.08L27.136 16.48L26.24 16.736H25.408ZM36.224 14.432L32.192 15.776C37.632 27.936 47.424 38.368 58.752 43.488C59.52 42.208 60.864 40.48 62.016 39.52C50.944 35.232 41.152 25.312 36.224 14.432ZM6.272 25.76C9.6 27.808 13.44 31.008 15.36 33.248L18.048 30.304C16.192 28 12.224 25.056 8.832 23.136L6.272 25.76ZM49.088 14.816C46.528 17.632 41.984 21.536 38.72 23.904L41.664 26.208C44.992 23.968 49.408 20.512 52.736 17.376L49.088 14.816ZM56.256 22.368C53.568 25.248 48.832 29.152 45.376 31.456L48.32 33.76C51.84 31.584 56.448 28.128 59.84 24.928L56.256 22.368ZM18.944 45.472H44.864V53.92H18.944V45.472ZM14.208 41.504V57.888H49.792V41.504H14.208ZM17.92 58.912C19.648 61.728 21.248 65.632 21.888 68.128L26.432 66.72C25.792 64.224 24.128 60.448 22.336 57.696L17.92 58.912ZM41.728 57.504C40.704 60.32 38.656 64.48 37.056 66.976L41.152 68.192C42.752 65.696 44.672 62.176 46.4 58.784L41.728 57.504ZM124.736 64.416V69.152H169.92V64.416H124.736ZM144.384 14.624V67.104H149.312V14.624H144.384ZM122.368 46.56V73.184H127.232V46.56H122.368ZM167.36 46.56V72.992H172.288V46.56H167.36ZM124.864 20.384V42.464H169.728V20.384H164.736V37.792H129.6V20.384H124.864Z" fill="#1299E5"/>
</svg>
