<svg width="683" height="109" viewBox="0 0 683 109" fill="none" xmlns="http://www.w3.org/2000/svg">
<path d="M14.56 19.04V92.32H20V19.04H14.56ZM3.2 45.68V51.36H28.96V45.68H3.2ZM14.24 48.64C12.08 57.92 7.04 70.08 2.32 76.32C3.36 78 4.88 80.64 5.52 82.48C10.56 75.12 15.52 61.04 18 50.32L14.24 48.64ZM19.84 52.88L16.88 55.2C19.12 58.64 24.72 68.56 26.4 72.72L30.4 68.08C28.88 65.52 21.84 55.2 19.84 52.88ZM4.08 25.04C6.16 30.56 8 37.92 8.48 42.64L12.88 41.52C12.32 36.8 10.48 29.6 8.16 24L4.08 25.04ZM26.24 23.68C25.12 29.12 22.88 36.96 21.12 41.68L24.8 42.88C26.88 38.4 29.28 30.88 31.28 24.96L26.24 23.68ZM34 25.36V29.92H74.72V25.36H34ZM36 34.88V39.28H72.96V34.88H36ZM31.76 44.72V49.36H76.72V44.72H31.76ZM50.8 18.88V47.28H56.56V18.88H50.8ZM36.8 54.24V92.32H42.48V58.8H67.6V54.24H36.8ZM65.76 54.24V86.24C65.76 87.12 65.52 87.44 64.48 87.44C63.44 87.44 60.16 87.44 56.56 87.36C57.28 88.8 58 90.88 58.32 92.32C63.28 92.32 66.64 92.32 68.72 91.52C70.88 90.64 71.44 89.12 71.44 86.24V54.24H65.76ZM39.84 64.72V69.04H68.08V64.72H39.84ZM39.84 75.04V79.36H68.08V75.04H39.84ZM220.8 67.6V88.08H226.56V67.6H220.8ZM192.96 66.56V70.72H255.04V66.56H192.96ZM188.08 86.32V90.64H259.92V86.32H188.08ZM206.24 71.2C204.24 76.32 199.44 80.48 193.92 83.12C194.96 83.92 196.56 85.68 197.2 86.56C203.04 83.36 208.32 78.32 210.8 72L206.24 71.2ZM238.4 71.12C237.04 76.4 233.28 80.4 228.16 82.96C229.12 83.76 230.8 85.6 231.36 86.48C236.96 83.36 241.36 78.32 243.12 71.76L238.4 71.12ZM204.24 78.96C208.16 80.88 212.96 83.92 215.44 86.08L217.68 82.72C215.28 80.64 210.4 77.76 206.56 76L204.24 78.96ZM237.36 79.12C241.76 80.96 247.12 84 250 86.24L252.24 82.56C249.44 80.48 243.92 77.68 239.52 75.92L237.36 79.12ZM195.04 21.92V25.92H253.04V21.92H195.04ZM199.04 37.28V40.64H216.8V37.28H199.04ZM197.28 44.08V47.44H216.8V44.08H197.28ZM230.48 44.08V47.44H250.72V44.08H230.48ZM230.48 37.28V40.64H248.88V37.28H230.48ZM220.8 23.52V48.64H226.56V23.52H220.8ZM190.08 29.92V42.48H195.12V33.6H252.64V42.48H257.84V29.92H190.08ZM197.6 54.08H206.32V60.08H197.6V54.08ZM193.2 50.72V63.52H210.88V50.72H193.2ZM219.28 54.08H228.24V60.08H219.28V54.08ZM214.8 50.72V63.52H232.8V50.72H214.8ZM241.28 54.08H250.56V60.08H241.28V54.08ZM236.88 50.72V63.52H255.2V50.72H236.88ZM396.96 34.56H418.64V39.84H396.96V34.56ZM392 30.96V43.44H423.84V30.96H392ZM394.16 58.08H421.44V75.92H394.16V58.08ZM389.36 54.32V79.76H426.48V54.32H389.36ZM403.04 64.64H412.4V69.36H403.04V64.64ZM399.28 61.52V72.56H416.32V61.52H399.28ZM383.92 47.12V50.88H432.16V47.12H383.92ZM405.04 41.04V48.8H410.32V41.04H405.04ZM374.56 22.08V92.32H380.24V27.2H435.68V92.32H441.6V22.08H374.56ZM378.08 84.08V89.2H438.8V84.08H378.08ZM610.64 51.36V56.56H628.08V51.36H610.64ZM585.44 53.36V58H608.16V53.36H585.44ZM595.92 23.36V34.08H600.32V23.36H595.92ZM595.92 44.56V55.6H600.32V44.56H595.92ZM581.04 85.2V90.4H629.28V85.2H581.04ZM585.44 21.2V56.24H590V25.84H607.36V21.2H585.44ZM588 32.16V36.24H602.56V42.96H588.16V47.04H606.72V32.16H588ZM613.6 19.28C612.4 28.08 610.16 37.12 606.8 43.04C608.16 43.68 610.48 44.96 611.44 45.76C614.96 39.52 617.44 29.84 618.96 20.24L613.6 19.28ZM555.2 84.56L556.56 90C564.16 88.48 574.4 86.32 584.08 84.32L583.6 79.12C573.04 81.2 562.32 83.28 555.2 84.56ZM559.76 38.72V43.84H581.04V38.72H559.76ZM556.08 52.24V57.44H582.48V52.24H556.08ZM557.52 62.8C559.04 67.6 560.08 73.92 560.24 78.08L564.56 77.04C564.32 72.96 563.12 66.64 561.6 61.84L557.52 62.8ZM578.24 61.04C577.6 65.2 576.24 71.6 575.04 75.52L579.04 76.56C580.24 72.8 581.52 67.04 582.8 62.16L578.24 61.04ZM567.6 40.96V84.24L572.72 83.52V40.96H567.6ZM613.6 30.8L612.08 36.08H628.88V30.8H613.6ZM587.2 62.96V87.52H592.16V68H598.72V87.52H602.88V68H609.36V87.52H613.52V68H620.24V87.52H625.44V62.96H587.2ZM567.68 18.88C565.12 25.28 560.24 33.52 553.36 39.6C554.56 40.4 556.24 42.24 557.12 43.44C564.72 36.4 569.6 27.84 572.56 21.68V20.16H570.88V18.88H567.68ZM568.64 18.88V23.04H569.6C573.92 27.12 578.88 33.92 581.2 38L585.52 33.68C582.96 29.52 577.6 23.28 573.12 18.88H568.64Z" fill="#60794D"/>
<path d="M103.34 22.81V45.508H106.538V22.81H103.34ZM92.3417 41.322C93.4077 40.62 94.9157 40.048 105.238 37.37C105.004 36.72 104.666 35.55 104.51 34.666L93.5637 37.24L92.0297 38.384L92.3417 41.322ZM92.3417 41.322C92.3417 40.178 95.4357 38.592 95.4357 38.592V23.746H92.3677V36.096C92.3677 37.214 91.5357 37.968 90.8857 38.306C91.4317 39.034 92.1337 40.49 92.3417 41.322ZM87.4017 57.17V60.576H111.478V57.17H87.4017ZM90.2097 94.598C90.2097 93.974 92.5237 92.726 92.5237 92.726V92.622C95.7997 87.942 99.4137 81.416 102.014 74.448L98.5037 73.434C96.4497 79.882 92.8357 86.668 91.6137 88.384C90.4697 90.152 89.7937 91.14 88.9097 91.426C89.3517 92.31 90.0017 93.948 90.2097 94.598ZM90.2097 94.598C91.6657 94.13 93.7717 94.286 110.022 93.61C109.892 92.96 109.788 91.452 109.84 90.594L92.3157 91.114L90.1577 92.18L90.2097 94.598Z" fill="#60794D"/>
<path d="M287.044 28.686V29.232C286.472 37.37 285.744 40.958 284.834 41.79C284.47 42.128 284.158 42.206 283.612 42.206C282.91 42.206 281.402 42.18 279.842 42.024C280.44 42.908 280.83 44.286 280.908 45.196C282.442 45.274 283.976 45.274 284.886 45.17C286.03 45.04 286.784 44.754 287.564 43.844C288.76 42.544 289.488 38.982 290.164 30.116C290.242 29.7 290.294 28.686 290.294 28.686H287.044ZM271.86 32.014C272.094 31.754 273.368 31.624 274.694 31.624H288.526L288.552 28.686H273.524L271.86 29.622V32.014ZM271.86 31.988C271.86 31.364 274.096 30.272 274.096 30.272V30.246C274.824 28.504 275.734 25.826 276.072 23.512L272.926 22.654C272.744 24.916 271.99 27.282 271.782 27.932C271.522 28.608 271.184 29.024 270.82 29.154C271.184 29.934 271.678 31.338 271.86 31.988ZM279.998 22.55C279.14 33.08 276.774 39.528 269.026 42.856C269.676 43.506 270.768 44.91 271.106 45.586C279.27 41.53 282.104 34.432 283.196 22.81L279.998 22.55ZM270.352 57.456V60.888H290.32V57.456H270.352ZM271.21 94.598C271.21 93.974 273.524 92.726 273.524 92.726V92.622C276.8 87.942 280.414 81.416 283.014 74.448L279.504 73.434C277.45 79.882 273.836 86.668 272.614 88.384C271.47 90.152 270.794 91.14 269.91 91.426C270.352 92.31 271.002 93.948 271.21 94.598ZM271.21 94.598C272.666 94.13 274.772 94.286 291.022 93.61C290.892 92.96 290.788 91.452 290.84 90.594L273.316 91.114L271.158 92.18L271.21 94.598Z" fill="#60794D"/>
<path d="M653.34 22.81V45.508H656.538V22.81H653.34ZM642.342 41.322C643.408 40.62 644.916 40.048 655.238 37.37C655.004 36.72 654.666 35.55 654.51 34.666L643.564 37.24L642.03 38.384L642.342 41.322ZM642.342 41.322C642.342 40.178 645.436 38.592 645.436 38.592V23.746H642.368V36.096C642.368 37.214 641.536 37.968 640.886 38.306C641.432 39.034 642.134 40.49 642.342 41.322ZM639.352 57.456V60.888H659.32V57.456H639.352ZM641.562 86.928C641.822 86.668 643.044 86.538 644.344 86.538H657.526V83.548H643.2L641.562 84.484V86.928ZM656.33 83.548V84.302C655.68 87.604 653.964 91.946 652.508 94.182C653.262 94.572 654.406 95.326 655.004 95.794C656.85 93.09 658.748 88.852 659.736 84.64L657.448 83.418L656.85 83.548H656.33ZM641.562 86.928C641.562 86.304 643.668 85.238 643.668 85.238V85.186C644.656 83.47 645.878 80.766 646.476 78.4L643.2 77.516C642.81 79.804 641.9 82.118 641.562 82.742C641.276 83.392 640.886 83.86 640.496 83.964C640.86 84.796 641.38 86.252 641.562 86.928ZM639.898 74.266V77.23H655.446V74.266H639.898ZM654.484 74.266V74.604C653.964 76.892 652.82 81.13 651.78 84.328L654.9 84.848C655.94 81.65 657.084 77.724 657.786 74.578L655.394 74.136L654.874 74.266H654.484Z" fill="#60794D"/>
<path d="M672.172 58.084C672.432 58.4653 672.735 58.8987 673.082 59.384C673.446 59.852 673.81 60.3113 674.174 60.762C674.555 61.1953 674.885 61.5767 675.162 61.906V62.244H672.588C672.259 62.0187 671.869 61.7413 671.418 61.412C670.985 61.0653 670.534 60.7013 670.066 60.32C669.615 59.9387 669.191 59.5747 668.792 59.228C668.393 58.8813 668.073 58.5867 667.83 58.344V58.084H672.172Z" fill="#60794D"/>
<path d="M463.312 46.616C465.392 49.476 467.992 53.428 469.162 55.846L472.152 54.156C470.826 51.764 468.304 48.098 466.12 45.29L463.312 46.616ZM453.458 55.092C453.458 54.468 455.824 53.116 455.824 53.116V53.038C458.814 47.838 461.986 40.61 464.092 33.148L460.53 32.264C458.892 39.206 455.72 46.694 454.628 48.566C453.614 50.49 452.99 51.582 452.158 51.894C452.6 52.804 453.25 54.468 453.458 55.092ZM453.458 55.092C454.758 54.52 456.578 54.312 469.682 52.596C469.448 51.92 469.058 50.594 468.928 49.71L455.226 51.244L453.302 52.414L453.458 55.092ZM450.312 38.244V41.338H472.464V38.244H450.312ZM467.108 65.226C463.702 73.572 458.086 80.436 450.91 84.388C451.612 85.038 452.86 86.39 453.328 87.092C460.582 82.62 466.536 75.21 470.332 66.214L467.108 65.226ZM452.678 69.438C458.58 74.69 466.094 82.1 469.292 87.014L472.074 84.258C468.616 79.318 460.79 72.246 455.018 67.28L452.678 69.438Z" fill="#60794D"/>
<path d="M308.662 56.344C308.419 56.5867 308.099 56.8813 307.7 57.228C307.301 57.5747 306.868 57.9387 306.4 58.32C305.949 58.7013 305.499 59.0653 305.048 59.412C304.615 59.7413 304.233 60.0187 303.904 60.244H301.33V59.906C301.607 59.5767 301.928 59.1953 302.292 58.762C302.673 58.3113 303.046 57.852 303.41 57.384C303.774 56.8987 304.077 56.4653 304.32 56.084H308.662V56.344Z" fill="#60794D"/>
<path d="M488.662 58.344C488.419 58.5867 488.099 58.8813 487.7 59.228C487.301 59.5747 486.868 59.9387 486.4 60.32C485.949 60.7013 485.499 61.0653 485.048 61.412C484.615 61.7413 484.233 62.0187 483.904 62.244H481.33V61.906C481.607 61.5767 481.928 61.1953 482.292 60.762C482.673 60.3113 483.046 59.852 483.41 59.384C483.774 58.8987 484.077 58.4653 484.32 58.084H488.662V58.344Z" fill="#60794D"/>
</svg>
