<svg width="383" height="78" viewBox="0 0 383 78" fill="none" xmlns="http://www.w3.org/2000/svg">
<g filter="url(#filter0_d_444_9045)">
<path d="M81.964 19.608V16.392H52.3C53.164 14.856 53.932 13.224 54.652 11.64L51.004 10.584C48.508 16.584 44.38 22.776 40.012 26.568C40.972 27.096 42.556 28.2 43.324 28.776C45.772 26.328 48.22 23.16 50.428 19.608H81.964ZM64.972 45.24L66.604 43.464C64.684 41.544 60.7 39.048 57.484 37.512L55.468 39.48C58.492 41.016 62.044 43.368 64.06 45.24H49.276C49.66 42.84 50.044 40.2 50.428 37.512H73.42C73.228 40.728 73.036 43.272 72.844 45.24H64.972ZM73.852 26.856C73.756 29.688 73.66 32.184 73.564 34.44H65.404L67.42 32.328C65.5 30.6 61.804 28.344 58.684 27L56.668 29.016C59.788 30.408 63.34 32.712 65.212 34.44H50.86C51.196 31.848 51.58 29.304 51.868 26.856H73.852ZM83.788 37.608V34.344H77.02C77.164 31.752 77.26 28.824 77.356 25.464C77.356 24.984 77.404 23.688 77.404 23.688H48.748C48.412 26.904 47.932 30.6 47.404 34.344H40.108V37.608H46.924C46.252 42.264 45.484 46.728 44.812 50.04L48.412 50.28L48.748 48.456H72.412C72.124 49.944 71.836 50.808 71.5 51.24C71.02 51.768 70.588 51.864 69.724 51.864C68.812 51.912 66.604 51.864 64.156 51.72C64.636 52.488 65.02 53.736 65.068 54.504C67.42 54.648 69.82 54.696 71.212 54.6C72.652 54.456 73.66 54.072 74.572 52.872C75.148 52.152 75.58 50.808 75.964 48.456H82.108V45.24H76.348C76.54 43.224 76.732 40.728 76.876 37.608H83.788ZM136.54 47.496V34.104H160.348V47.496H136.54ZM160.348 17.64V30.6H136.54V17.64H160.348ZM132.94 14.136V54.12H136.54V51H160.348V53.928H164.092V14.136H132.94ZM224.908 10.872C221.98 18.312 217.132 25.656 211.9 30.312C212.668 31.176 213.772 33 214.108 33.864C216.076 31.992 217.996 29.784 219.772 27.384V54.696H223.276V22.104C225.244 18.84 226.924 15.432 228.364 11.928L224.908 10.872ZM256.588 34.68V31.224H243.052V17.928C247.372 17.064 251.404 16.056 254.668 15L252.028 12.024C246.172 14.136 235.804 16.056 226.924 17.208C227.308 18.024 227.884 19.368 228.028 20.232C231.676 19.8 235.66 19.224 239.5 18.552V31.224H225.34V34.68H239.5V49.416H227.164V52.872H255.868V49.416H243.052V34.68H256.588ZM334.924 18.888C333.82 21.336 332.236 23.352 330.268 25.08C328.012 23.304 326.14 21.192 324.844 18.888H334.924ZM315.724 39.72C316.78 37.752 317.74 35.016 318.556 32.232C319.084 32.904 319.612 33.624 319.852 34.104C323.74 32.904 327.292 31.32 330.316 29.208C333.484 31.464 337.18 33.192 341.212 34.296C341.692 33.336 342.748 31.992 343.468 31.224C339.628 30.408 336.076 28.968 333.052 27.048C335.5 24.84 337.468 22.152 338.812 18.888H342.508V15.864H326.572C327.388 14.52 328.156 13.128 328.78 11.736L325.372 10.824C323.452 15.384 319.996 19.752 316.252 22.536C317.116 23.016 318.508 24.024 319.18 24.6C320.332 23.64 321.484 22.44 322.636 21.192C323.98 23.352 325.66 25.32 327.58 27.048C325.132 28.632 322.204 29.832 318.988 30.744C319.228 29.88 319.468 29.016 319.708 28.2L317.548 27.432L317.02 27.624H313.468L315.292 25.56C314.284 24.648 312.844 23.64 311.26 22.68C314.14 20.472 317.212 17.4 319.084 14.52L316.78 13.08L316.156 13.224H300.028V16.344H313.612C312.172 18.024 310.348 19.752 308.572 21.096C307.036 20.28 305.404 19.512 303.916 18.888L301.708 21.192C305.452 22.824 309.868 25.512 312.364 27.624H299.5V30.744H306.748C304.972 35.64 301.996 40.776 299.02 43.608C299.644 44.52 300.508 45.912 300.892 46.92C303.532 44.232 306.028 39.72 307.9 35.112V50.52C307.9 51.048 307.708 51.192 307.132 51.24C306.508 51.24 304.636 51.24 302.572 51.192C303.052 52.104 303.532 53.592 303.676 54.456C306.556 54.456 308.428 54.408 309.676 53.928C310.876 53.304 311.26 52.344 311.26 50.52V30.744H315.868C315.148 33.528 314.188 36.504 313.276 38.472L315.724 39.72ZM330.22 37.608C330.508 36.072 330.748 34.488 330.892 32.856H327.292C327.148 34.488 326.956 36.072 326.668 37.608H318.412V40.584H325.9C324.412 45.48 321.388 49.512 314.764 51.912C315.484 52.536 316.444 53.832 316.876 54.648C324.556 51.672 327.916 46.68 329.596 40.584H337.66C336.94 47.16 336.22 49.848 335.308 50.76C334.828 51.192 334.444 51.24 333.676 51.24C332.908 51.24 330.988 51.192 328.924 51C329.452 51.912 329.788 53.352 329.884 54.312C332.044 54.456 334.06 54.408 335.212 54.36C336.46 54.216 337.372 53.976 338.188 53.112C339.58 51.72 340.492 48.072 341.356 39.144C341.404 38.568 341.452 37.608 341.452 37.608H330.22Z" fill="white"/>
<path d="M268.518 20.432C269.589 21.979 270.915 24.121 271.51 25.447L273.363 24.41C272.683 23.118 271.391 21.112 270.269 19.565L268.518 20.432ZM267.09 27.198V17.899H274.876V26.96L267.09 27.198ZM265.424 15.842V15.876H264.931V25.702C264.931 26.518 264.37 27.249 263.979 27.555C264.319 27.963 264.999 28.949 265.254 29.459C266.036 29.204 267.141 29.272 274.876 28.949V29.884H277.154V15.842H265.424ZM276.355 42.891L275.998 42.976H267.43C268.246 41.446 269.096 39.542 269.657 37.672L267.396 37.264C266.92 39.355 265.985 41.565 265.662 42.143C265.339 42.755 265.084 43.112 264.727 43.214C264.965 43.758 265.305 44.744 265.407 45.152C265.577 44.982 266.393 44.897 267.277 44.897H275.335C274.774 47.056 273.856 49.487 272.989 50.898C273.499 51.153 274.23 51.714 274.621 52.037C275.913 49.98 277.154 46.75 277.8 43.622L276.355 42.891Z" fill="white"/>
<path d="M90.693 16.182V29.629H92.852V18.256H101.182V29.629H103.443V16.182H90.693ZM94.586 38.165C93.362 39.066 91.407 40.154 89.826 40.766C90.234 41.361 90.676 42.075 90.965 42.789C92.376 42.024 93.396 41.327 94.518 40.579C96.303 45.832 98.853 49.13 102.032 51.306C102.542 50.881 103.358 50.116 103.97 49.725C100.094 47.328 97.731 44.03 96.184 38.641L94.586 38.165Z" fill="white"/>
<path d="M364.987 39.844C363.899 38.297 362.165 36.427 360.227 34.557C361.638 32.585 362.845 30.409 363.831 28.063L361.723 27.4C360.89 29.44 359.87 31.344 358.663 33.061C357.014 31.531 355.314 30.035 353.818 28.743L352.288 30.154C353.869 31.548 355.62 33.197 357.286 34.846C355.518 36.937 353.461 38.671 351.149 39.946C351.608 40.371 352.407 41.238 352.713 41.714C354.957 40.337 356.997 38.535 358.799 36.41C360.601 38.314 362.199 40.167 363.168 41.663L364.987 39.844Z" fill="white"/>
<path d="M372.439 22.978C372.609 23.2273 372.808 23.5107 373.034 23.828C373.272 24.134 373.51 24.4343 373.748 24.729C373.998 25.0123 374.213 25.2617 374.394 25.477V25.698H372.711C372.496 25.5507 372.241 25.3693 371.946 25.154C371.663 24.9273 371.368 24.6893 371.062 24.44C370.768 24.1907 370.49 23.9527 370.229 23.726C369.969 23.4993 369.759 23.3067 369.6 23.148V22.978H372.439Z" fill="white"/>
<path d="M283.439 33.978C283.609 34.2273 283.808 34.5107 284.034 34.828C284.272 35.134 284.51 35.4343 284.748 35.729C284.998 36.0123 285.213 36.2617 285.394 36.477V36.698H283.711C283.496 36.5507 283.241 36.3693 282.946 36.154C282.663 35.9273 282.368 35.6893 282.062 35.44C281.768 35.1907 281.49 34.9527 281.229 34.726C280.969 34.4993 280.759 34.3067 280.6 34.148V33.978H283.439Z" fill="white"/>
<path d="M179.518 32.432C180.589 33.979 181.915 36.121 182.51 37.447L184.363 36.41C183.683 35.118 182.391 33.112 181.269 31.565L179.518 32.432ZM178.09 39.198V29.899H185.876V38.96L178.09 39.198ZM176.424 27.842V27.876H175.931V37.702C175.931 38.518 175.37 39.249 174.979 39.555C175.319 39.963 175.999 40.949 176.254 41.459C177.036 41.204 178.141 41.272 185.876 40.949V41.884H188.154V27.842H176.424Z" fill="white"/>
<path d="M196.439 23.978C196.609 24.2273 196.808 24.5107 197.034 24.828C197.272 25.134 197.51 25.4343 197.748 25.729C197.998 26.0123 198.213 26.2617 198.394 26.477V26.698H196.711C196.496 26.5507 196.241 26.3693 195.946 26.154C195.663 25.9273 195.368 25.6893 195.062 25.44C194.768 25.1907 194.49 24.9527 194.229 24.726C193.969 24.4993 193.759 24.3067 193.6 24.148V23.978H196.439Z" fill="white"/>
</g>
<defs>
<filter id="filter0_d_444_9045" x="-4" y="0" width="391" height="86" filterUnits="userSpaceOnUse" color-interpolation-filters="sRGB">
<feFlood flood-opacity="0" result="BackgroundImageFix"/>
<feColorMatrix in="SourceAlpha" type="matrix" values="0 0 0 0 0 0 0 0 0 0 0 0 0 0 0 0 0 0 127 0" result="hardAlpha"/>
<feOffset dy="4"/>
<feGaussianBlur stdDeviation="2"/>
<feComposite in2="hardAlpha" operator="out"/>
<feColorMatrix type="matrix" values="0 0 0 0 0 0 0 0 0 0 0 0 0 0 0 0 0 0 0.25 0"/>
<feBlend mode="normal" in2="BackgroundImageFix" result="effect1_dropShadow_444_9045"/>
<feBlend mode="normal" in="SourceGraphic" in2="effect1_dropShadow_444_9045" result="shape"/>
</filter>
</defs>
</svg>
