<svg width="339" height="63" viewBox="0 0 339 63" fill="none" xmlns="http://www.w3.org/2000/svg">
<path d="M7.872 24.408C7.536 21.576 6.432 17.304 5.088 13.992L2.64 14.568C3.888 17.88 4.992 22.248 5.232 25.08L7.872 24.408ZM12.144 30.216H17.424V26.856H12.144V10.968H8.88V26.856H2.112V30.216H8.304C6.816 35.496 4.08 41.736 1.584 45.144C2.208 46.056 3.12 47.688 3.504 48.744C5.376 45.864 7.392 41.352 8.88 36.696V54.6H12.144V35.688C13.584 38.184 15.312 41.352 15.936 42.936L18.336 40.2C17.424 38.712 13.44 32.904 12.144 31.272V30.216ZM14.976 25.128C16.176 22.488 17.664 18.024 18.768 14.472L15.84 13.752C15.168 16.92 13.824 21.624 12.768 24.408L14.976 25.128ZM25.536 44.328V40.776H39.36V44.328H25.536ZM39.36 34.632V38.184H25.536V34.632H39.36ZM42.72 31.896H22.128V54.648H25.536V46.872H39.36V51C39.36 51.528 39.216 51.72 38.592 51.72C38.016 51.72 36.048 51.72 33.888 51.672C34.368 52.536 34.752 53.736 34.896 54.648C37.872 54.648 39.84 54.6 41.088 54.12C42.384 53.592 42.72 52.728 42.72 51V31.896ZM33.888 26.28V23.016H43.632V20.424H33.888V17.496H44.688V14.76H33.888V10.92H30.48V14.76H20.448V17.496H30.48V20.424H21.648V23.016H30.48V26.28H19.104V29.016H45.888V26.28H33.888ZM93.168 19.656H108.528V28.584H111.936V19.656H127.488V24.936H130.56V17.448H111.936V15.048H127.728V12.696H93.168V15.048H108.528V17.448H90.24V24.936H93.168V19.656ZM106.176 25.896H94.512V27.912H106.176V25.896ZM94.704 31.848H99.888V35.4H94.704V31.848ZM92.064 37.464H102.624V29.832H92.064V37.464ZM95.568 21.816V23.832H106.128V21.816H95.568ZM112.944 35.4H107.568V31.848H112.944V35.4ZM115.68 29.832H104.976V37.464H115.68V29.832ZM126.336 25.896H114.288V27.912H126.336V25.896ZM114.288 21.816V23.832H125.232V21.816H114.288ZM126.24 35.4H120.72V31.848H126.24V35.4ZM128.976 29.832H118.08V37.464H128.976V29.832ZM114.864 51.048C116.64 50.088 118.176 48.792 119.424 47.208C121.776 48.264 124.416 49.8 125.856 50.952L127.248 48.84C125.76 47.688 123.024 46.296 120.672 45.24C121.152 44.376 121.488 43.368 121.776 42.36L118.992 41.976C118.176 45.096 115.968 47.496 112.896 49.032C113.472 49.464 114.384 50.52 114.72 51.048H111.936V41.736H128.928V39.24H91.968V41.736H108.528V51.048H94.656C96.432 50.04 98.16 48.744 99.6 47.16C101.712 48.216 104.064 49.752 105.312 50.856L106.704 48.888C105.456 47.832 103.152 46.392 101.04 45.336C101.664 44.424 102.192 43.464 102.576 42.456L99.888 42.024C98.64 45.048 95.808 47.544 92.544 49.176C93.072 49.56 94.032 50.52 94.416 51.048H89.04V53.592H131.808V51.048H114.864ZM193.824 38.136H199.488V40.92H193.824V38.136ZM191.616 42.792H201.792V36.264H191.616V42.792ZM188.544 34.2H204.864V44.856H188.544V34.2ZM185.76 47.112H207.792V31.992H185.76V47.112ZM190.272 20.184H203.184V23.352H190.272V20.184ZM198.144 27.672V25.512H206.256V18.072H187.296V25.512H195.12V27.672H182.496V29.928H211.2V27.672H198.144ZM180.24 49.656V15.816H213.36V49.656H180.24ZM176.928 12.792V54.6H180.24V52.728H213.36V54.6H216.768V12.792H176.928ZM305.184 21.144V17.976H297.984C298.512 15.96 298.896 13.8 299.232 11.688L296.112 11.112C295.392 16.392 294.048 21.72 292.032 25.272C292.8 25.656 294.192 26.424 294.816 26.856C295.68 25.272 296.448 23.304 297.12 21.144H305.184ZM294.288 33.24H304.704V30.216H294.288V33.24ZM285.552 15.048V18.792H282V15.048H285.552ZM289.488 25.224H282V21.192H289.488V25.224ZM285.552 31.368H282V27.672H285.552V31.368ZM278.208 46.728L271.728 48.024V33.816H277.536V30.696H271.728V25.752H276.72V22.728H265.104C267.6 19.848 269.472 16.824 270.816 14.232C273.168 16.68 275.568 20.136 276.864 22.248L279.312 19.752V34.152H292.848V31.368H288.144V27.672H291.984V18.792H288.144V15.048H292.368V12.264H279.312V19.512C277.728 17.064 274.608 13.464 271.968 10.872H268.752C267.264 14.664 264.336 19.56 260.208 23.256C260.88 23.688 261.936 24.744 262.464 25.464C262.992 24.936 263.52 24.408 264.048 23.88V25.752H268.704V30.696H261.84V33.816H268.704V48.6C265.92 49.128 263.328 49.608 261.312 49.944L262.128 53.208C266.64 52.248 272.688 51 278.496 49.752L278.208 46.728ZM262.752 36.984C263.568 39.912 264.24 43.608 264.288 46.104L266.88 45.48C266.736 43.032 266.016 39.336 265.152 36.456L262.752 36.984ZM275.472 45.24C276.192 42.936 277.008 39.576 277.68 36.648L274.992 35.928C274.704 38.424 273.84 42.264 273.12 44.568L275.472 45.24ZM283.296 40.056H287.184V50.376H283.296V40.056ZM293.616 40.056V50.376H289.632V40.056H293.616ZM300.048 40.056V50.376H296.016V40.056H300.048ZM303.12 50.376V37.176H280.32V50.376H276.672V53.448H305.424V50.376H303.12Z" fill="#60794D"/>
<path d="M63.567 12.145V20.084L58.416 21.291V12.757H56.41V20.832C56.41 21.546 55.849 22.039 55.441 22.26C55.798 22.753 56.24 23.688 56.393 24.232C57.039 23.824 57.94 23.467 63.567 21.988V26.986H65.658V12.145H63.567ZM53.197 32.282V34.475H68.837V32.282H53.197ZM57.175 52.096C59.147 49.121 61.187 45.279 62.7 41.199L60.405 40.536C59.062 44.752 56.699 49.206 55.9 50.328C55.169 51.467 54.71 52.13 54.132 52.3C54.438 52.878 54.863 53.966 54.982 54.374C55.934 54.085 57.328 54.187 67.936 53.745C67.868 53.303 67.783 52.334 67.834 51.773L57.175 52.096Z" fill="#60794D"/>
<path d="M149.309 15.987C149.53 14.797 149.7 13.505 149.819 12.128L147.745 11.958C147.626 13.42 147.456 14.763 147.235 15.987H144.277C144.634 14.967 144.991 13.709 145.161 12.587L143.121 12.026C142.985 13.505 142.509 15.069 142.356 15.477C142.186 15.919 141.982 16.208 141.744 16.293C141.965 16.803 142.288 17.721 142.424 18.146V18.163C142.577 17.993 143.41 17.891 144.277 17.891H146.793C145.79 21.393 143.988 23.79 140.571 25.235C140.979 25.66 141.693 26.578 141.931 27.02C145.756 25.133 147.796 22.192 148.901 17.891H152.216C151.876 22.107 151.434 24.045 150.89 24.538C150.652 24.776 150.448 24.81 150.108 24.81C149.649 24.81 148.663 24.793 147.643 24.708C148.034 25.286 148.289 26.17 148.34 26.782C149.343 26.833 150.346 26.833 150.941 26.748C151.672 26.663 152.165 26.493 152.675 25.898C153.474 25.048 153.933 22.719 154.392 16.905C154.426 16.633 154.46 15.987 154.46 15.987H149.309ZM140.197 32.282V34.475H155.837V32.282H140.197ZM144.175 52.096C146.147 49.121 148.187 45.279 149.7 41.199L147.405 40.536C146.062 44.752 143.699 49.206 142.9 50.328C142.169 51.467 141.71 52.13 141.132 52.3C141.438 52.878 141.863 53.966 141.982 54.374C142.934 54.085 144.328 54.187 154.936 53.745C154.868 53.303 154.783 52.334 154.834 51.773L144.175 52.096Z" fill="#60794D"/>
<path d="M165.064 32.148C164.883 32.352 164.617 32.6183 164.265 32.947C163.925 33.2757 163.568 33.5987 163.194 33.916C162.82 34.2333 162.497 34.494 162.225 34.698H160.797V34.477C160.967 34.273 161.166 34.0237 161.392 33.729C161.619 33.4343 161.84 33.134 162.055 32.828C162.282 32.5107 162.469 32.2273 162.616 31.978H165.064V32.148Z" fill="#60794D"/>
<path d="M238.225 18.704V16.698H231.697C232.071 15.61 232.428 14.488 232.751 13.366L230.422 12.788C230.116 14.097 229.725 15.423 229.317 16.698H223.741V18.704H228.603C227.787 20.948 226.971 22.767 226.58 23.447C225.917 24.705 225.509 25.419 224.948 25.606C225.254 26.201 225.679 27.289 225.798 27.714C226.614 27.34 227.702 27.221 234.995 26.269C235.437 26.983 235.811 27.646 236.083 28.207L238.021 27.085C237.171 25.538 235.505 23.141 234.077 21.288L232.241 22.172C232.734 22.852 233.278 23.634 233.805 24.416L228.076 25.079C229.062 23.192 230.065 21.016 230.949 18.704H238.225ZM237.987 50.844C236.899 49.297 235.165 47.427 233.227 45.557C234.638 43.585 235.845 41.409 236.831 39.063L234.723 38.4C233.89 40.44 232.87 42.344 231.663 44.061C230.014 42.531 228.314 41.035 226.818 39.743L225.288 41.154C226.869 42.548 228.62 44.197 230.286 45.846C228.518 47.937 226.461 49.671 224.149 50.946C224.608 51.371 225.407 52.238 225.713 52.714C227.957 51.337 229.997 49.535 231.799 47.41C233.601 49.314 235.199 51.167 236.168 52.663L237.987 50.844Z" fill="#60794D"/>
<path d="M248.091 32.148C247.933 32.3067 247.723 32.4993 247.462 32.726C247.202 32.9527 246.918 33.1907 246.612 33.44C246.318 33.6893 246.023 33.9273 245.728 34.154C245.445 34.3693 245.196 34.5507 244.98 34.698H243.297V34.477C243.479 34.2617 243.688 34.0123 243.926 33.729C244.176 33.4343 244.419 33.134 244.657 32.828C244.895 32.5107 245.094 32.2273 245.252 31.978H248.091V32.148Z" fill="#60794D"/>
<path d="M325.567 13.145V21.084L320.416 22.291V13.757H318.41V21.832C318.41 22.546 317.849 23.039 317.441 23.26C317.798 23.753 318.24 24.688 318.393 25.232C319.039 24.824 319.94 24.467 325.567 22.988V27.986H327.658V13.145H325.567ZM316.438 32.452V34.679H329.494V32.452H316.438ZM328.27 46.064L327.879 46.166H326.859C327.454 44.262 328.1 42.086 328.491 40.301L326.91 40.012L326.57 40.097H316.795V42.018H325.89C325.567 43.293 325.125 44.823 324.717 46.166H319.821C320.314 45.146 320.807 43.905 321.096 42.8L318.954 42.222C318.699 43.701 318.087 45.231 317.883 45.639C317.679 46.064 317.441 46.353 317.169 46.438C317.424 46.965 317.747 47.917 317.883 48.359C318.036 48.189 318.835 48.104 319.685 48.104H327.165C326.621 49.957 325.771 51.963 325.023 53.119C325.533 53.374 326.264 53.85 326.672 54.156C327.862 52.405 329.12 49.634 329.766 46.863L328.27 46.064Z" fill="#60794D"/>
<path d="M336.371 32.978C336.541 33.2273 336.739 33.5107 336.966 33.828C337.204 34.134 337.442 34.4343 337.68 34.729C337.929 35.0123 338.144 35.2617 338.326 35.477V35.698H336.643C336.427 35.5507 336.172 35.3693 335.878 35.154C335.594 34.9273 335.3 34.6893 334.994 34.44C334.699 34.1907 334.421 33.9527 334.161 33.726C333.9 33.4993 333.69 33.3067 333.532 33.148V32.978H336.371Z" fill="#60794D"/>
</svg>
