<svg width="2048" height="2732" viewBox="0 0 2048 2732" fill="none" xmlns="http://www.w3.org/2000/svg">
<g clip-path="url(#clip0_488_9393)">
<rect width="2048" height="2732" fill="#BEE0B9"/>
<g filter="url(#filter0_b_488_9393)">
<rect width="2048" height="2860" fill="black" fill-opacity="0.1"/>
</g>
<g filter="url(#filter1_bf_488_9393)">
<path d="M2112.12 3297.42C2111.59 3302.22 2107 3305.17 2103.62 3302.87L-727.806 1373.75C-731.74 1371.07 -730.676 1363.82 -726.075 1361.95L2463 65.9366C2466.75 64.4113 2470.27 67.7111 2469.76 72.2803L2112.12 3297.42Z" fill="url(#paint0_radial_488_9393)"/>
</g>
<g filter="url(#filter2_bf_488_9393)">
<path d="M-152.869 3236.52C-156.184 3238.94 -160.634 3236.27 -161.207 3231.52L-525.416 211.946C-525.849 208.357 -523.798 205.169 -520.835 204.826L825.008 48.8292C826.866 48.6139 828.733 49.5785 829.941 51.3791L1938.61 1703.19C1940.7 1706.3 1940.15 1710.78 1937.43 1712.76L-152.869 3236.52Z" fill="url(#paint1_radial_488_9393)"/>
</g>
<g filter="url(#filter3_bf_488_9393)">
<path d="M918.192 4284.84C915.838 4288.61 910.352 4288.6 908.008 4284.83L-1739.3 26.1688C-1741.79 22.1718 -1738.91 17.0014 -1734.21 17.0014L3576.17 17.0019C3580.89 17.0019 3583.76 22.187 3581.26 26.1831L918.192 4284.84Z" fill="url(#paint2_radial_488_9393)"/>
</g>
<ellipse cx="972" cy="1749" rx="440" ry="847" fill="url(#paint3_radial_488_9393)"/>
<path d="M732.587 381.44V402.392H735.539V381.44H732.587ZM722.435 398.528C723.419 397.88 724.811 397.352 734.339 394.88C734.123 394.28 733.811 393.2 733.667 392.384L723.563 394.76L722.147 395.816L722.435 398.528ZM722.435 398.528C722.435 397.472 725.291 396.008 725.291 396.008V382.304H722.459V393.704C722.459 394.736 721.691 395.432 721.091 395.744C721.595 396.416 722.243 397.76 722.435 398.528ZM719.675 410.344V413.512H738.107V410.344H719.675ZM718.571 427.488V430.392H739.355V427.488H718.571ZM722.939 422.16V436.584C722.939 440.4 724.259 441.648 727.883 441.648C728.627 441.648 732.611 441.648 733.667 441.648C735.035 441.648 736.523 441.6 737.195 441.384C737.075 440.712 736.907 439.416 736.859 438.672C736.115 438.816 734.843 438.912 733.787 438.912C732.683 438.912 728.651 438.912 727.739 438.912C726.251 438.912 725.843 438.36 725.843 436.728V422.16H722.939ZM731.891 421.92V423.888C731.891 427.392 731.723 431.832 729.923 435.864C730.787 436.176 732.011 436.848 732.659 437.376C734.603 432.912 734.747 427.848 734.747 423.912V421.92H731.891Z" fill="#A0CA77"/>
<path d="M854.2 388.4C855.58 391.06 857.26 394.64 857.98 396.9L860.56 395.82C859.72 393.56 858.08 390.2 856.6 387.54L854.2 388.4ZM844.86 396.32C844.88 395.82 846.7 394.84 846.7 394.84V394.76C848.98 391.08 851.42 385.98 853.1 380.66L850.3 379.94C849.02 384.86 846.6 390.16 845.78 391.48C845 392.84 844.54 393.6 843.88 393.82C844.22 394.52 844.72 395.82 844.86 396.32ZM844.86 396.32C845.96 395.82 847.44 395.66 858.28 394.02C858.08 393.48 857.78 392.46 857.62 391.76L846.26 393.26L844.74 394.18L844.86 396.32ZM856.38 402.02C853.76 408.44 849.44 413.72 843.92 416.76C844.46 417.26 845.42 418.3 845.78 418.84C851.36 415.4 855.94 409.7 858.86 402.78L856.38 402.02ZM845.28 405.26C849.82 409.3 855.6 415 858.06 418.78L860.2 416.66C857.54 412.86 851.52 407.42 847.08 403.6L845.28 405.26ZM859.92 427.92V425.6H843.94V427.92H859.92ZM859.66 436.8L857.86 435.18C856.36 436.94 854.28 437.88 851.1 437.88C848.38 437.88 846.9 436.92 846.9 435.38C846.9 433.58 849.46 432.46 853.68 432.84V426.04H851.14V430.74C847.34 430.86 844.52 432.54 844.52 435.56C844.52 438.48 847.32 440.3 851.4 440.3C854.9 440.3 857.78 439.28 859.66 436.8Z" fill="#A0CA77"/>
<path d="M1118.57 385.042V385.504C1118.09 392.39 1117.47 395.426 1116.7 396.13C1116.4 396.416 1116.13 396.482 1115.67 396.482C1115.08 396.482 1113.8 396.46 1112.48 396.328C1112.99 397.076 1113.32 398.242 1113.38 399.012C1114.68 399.078 1115.98 399.078 1116.75 398.99C1117.72 398.88 1118.35 398.638 1119.01 397.868C1120.03 396.768 1120.64 393.754 1121.21 386.252C1121.28 385.9 1121.32 385.042 1121.32 385.042H1118.57ZM1105.73 387.858C1105.92 387.638 1107 387.528 1108.12 387.528H1119.83L1119.85 385.042H1107.13L1105.73 385.834V387.858ZM1105.73 387.836C1105.73 387.308 1107.62 386.384 1107.62 386.384V386.362C1108.23 384.888 1109 382.622 1109.29 380.664L1106.63 379.938C1106.47 381.852 1105.84 383.854 1105.66 384.404C1105.44 384.976 1105.15 385.328 1104.85 385.438C1105.15 386.098 1105.57 387.286 1105.73 387.836ZM1112.61 379.85C1111.89 388.76 1109.88 394.216 1103.33 397.032C1103.88 397.582 1104.8 398.77 1105.09 399.342C1112 395.91 1114.39 389.904 1115.32 380.07L1112.61 379.85ZM1102.8 407.99V410.872H1123.17V407.99H1102.8ZM1105.18 438.506C1105.18 437.978 1107.13 436.922 1107.13 436.922V436.834C1109.91 432.874 1112.96 427.352 1115.16 421.456L1112.19 420.598C1110.46 426.054 1107.4 431.796 1106.36 433.248C1105.4 434.744 1104.82 435.58 1104.08 435.822C1104.45 436.57 1105 437.956 1105.18 438.506ZM1105.18 438.506C1106.41 438.11 1108.19 438.242 1121.94 437.67C1121.83 437.12 1121.74 435.844 1121.79 435.118L1106.96 435.558L1105.13 436.46L1105.18 438.506Z" fill="#A0CA77"/>
<path d="M1440.86 380.5V383.118H1459.09V380.5H1440.86ZM1448.53 382.15V398.056H1451.42V382.15H1448.53ZM1439.8 406.99V409.872H1460.17V406.99H1439.8ZM1442.18 437.506C1442.18 436.978 1444.13 435.922 1444.13 435.922V435.834C1446.91 431.874 1449.96 426.352 1452.16 420.456L1449.19 419.598C1447.46 425.054 1444.4 430.796 1443.36 432.248C1442.4 433.744 1441.82 434.58 1441.08 434.822C1441.45 435.57 1442 436.956 1442.18 437.506ZM1442.18 437.506C1443.41 437.11 1445.19 437.242 1458.94 436.67C1458.83 436.12 1458.74 434.844 1458.79 434.118L1443.96 434.558L1442.13 435.46L1442.18 437.506Z" fill="#A0CA77"/>
<path d="M1323.82 395.12C1325.62 398.578 1327.8 403.232 1328.74 406.17L1332.09 404.766C1331 401.828 1328.87 397.46 1326.94 394.002L1323.82 395.12ZM1311.68 405.416C1311.71 404.766 1314.07 403.492 1314.07 403.492V403.388C1317.04 398.604 1320.21 391.974 1322.39 385.058L1318.75 384.122C1317.09 390.518 1313.94 397.408 1312.88 399.124C1311.86 400.892 1311.27 401.88 1310.41 402.166C1310.85 403.076 1311.5 404.766 1311.68 405.416ZM1311.68 405.416C1313.11 404.766 1315.04 404.558 1329.13 402.426C1328.87 401.724 1328.48 400.398 1328.27 399.488L1313.5 401.438L1311.53 402.634L1311.68 405.416ZM1313.11 427.928C1313.37 427.668 1314.59 427.538 1315.89 427.538H1329.08V424.548H1314.75L1313.11 425.484V427.928ZM1327.88 424.548V425.302C1327.23 428.604 1325.51 432.946 1324.06 435.182C1324.81 435.572 1325.96 436.326 1326.55 436.794C1328.4 434.09 1330.3 429.852 1331.29 425.64L1329 424.418L1328.4 424.548H1327.88ZM1313.11 427.928C1313.11 427.304 1315.22 426.238 1315.22 426.238V426.186C1316.21 424.47 1317.43 421.766 1318.03 419.4L1314.75 418.516C1314.36 420.804 1313.45 423.118 1313.11 423.742C1312.83 424.392 1312.44 424.86 1312.05 424.964C1312.41 425.796 1312.93 427.252 1313.11 427.928ZM1311.45 415.266V418.23H1327V415.266H1311.45ZM1326.03 415.266V415.604C1325.51 417.892 1324.37 422.13 1323.33 425.328L1326.45 425.848C1327.49 422.65 1328.63 418.724 1329.34 415.578L1326.94 415.136L1326.42 415.266H1326.03Z" fill="#A0CA77"/>
<path d="M988.285 381.07V400.276H990.991V381.07H988.285ZM978.979 396.734C979.881 396.14 981.157 395.656 989.891 393.39C989.693 392.84 989.407 391.85 989.275 391.102L980.013 393.28L978.715 394.248L978.979 396.734ZM978.979 396.734C978.979 395.766 981.597 394.424 981.597 394.424V381.862H979.001V392.312C979.001 393.258 978.297 393.896 977.747 394.182C978.209 394.798 978.803 396.03 978.979 396.734ZM974.799 408.99V411.872H995.171V408.99H974.799ZM977.175 439.506C977.175 438.978 979.133 437.922 979.133 437.922V437.834C981.905 433.874 984.963 428.352 987.163 422.456L984.193 421.598C982.455 427.054 979.397 432.796 978.363 434.248C977.395 435.744 976.823 436.58 976.075 436.822C976.449 437.57 976.999 438.956 977.175 439.506ZM977.175 439.506C978.407 439.11 980.189 439.242 993.939 438.67C993.829 438.12 993.741 436.844 993.785 436.118L978.957 436.558L977.131 437.46L977.175 439.506Z" fill="#A0CA77"/>
<path d="M748.913 413.456C748.689 413.088 748.393 412.688 748.025 412.256C747.673 411.824 747.305 411.4 746.921 410.984C746.553 410.568 746.217 410.216 745.913 409.928V409.616H748.289C748.705 409.872 749.153 410.176 749.633 410.528C750.113 410.864 750.561 411.248 750.977 411.68C751.393 411.248 751.849 410.864 752.345 410.528C752.841 410.176 753.297 409.872 753.713 409.616H756.089V409.928C755.801 410.216 755.465 410.568 755.081 410.984C754.697 411.4 754.321 411.824 753.953 412.256C753.601 412.688 753.313 413.088 753.089 413.456H748.913Z" fill="#A0CA77"/>
<path d="M870.913 414.456C870.689 414.088 870.393 413.688 870.025 413.256C869.673 412.824 869.305 412.4 868.921 411.984C868.553 411.568 868.217 411.216 867.913 410.928V410.616H870.289C870.705 410.872 871.153 411.176 871.633 411.528C872.113 411.864 872.561 412.248 872.977 412.68C873.393 412.248 873.849 411.864 874.345 411.528C874.841 411.176 875.297 410.872 875.713 410.616H878.089V410.928C877.801 411.216 877.465 411.568 877.081 411.984C876.697 412.4 876.321 412.824 875.953 413.256C875.601 413.688 875.313 414.088 875.089 414.456H870.913Z" fill="#A0CA77"/>
<path d="M1138.38 404.856C1138.16 405.08 1137.86 405.352 1137.49 405.672C1137.12 405.992 1136.72 406.328 1136.29 406.68C1135.88 407.032 1135.46 407.368 1135.04 407.688C1134.64 407.992 1134.29 408.248 1133.99 408.456H1131.61V408.144C1131.87 407.84 1132.16 407.488 1132.5 407.088C1132.85 406.672 1133.2 406.248 1133.53 405.816C1133.87 405.368 1134.15 404.968 1134.37 404.616H1138.38V404.856Z" fill="#A0CA77"/>
<path d="M1568.64 382.238V384.856H1587.65V382.238H1568.64ZM1572.95 391.126C1573.15 390.906 1574.1 390.796 1574.93 390.796H1582.9V388.2H1574.23L1572.95 388.926V391.126ZM1582.28 388.2V388.838C1581.58 391.544 1579.82 395.152 1578.3 397.11C1578.96 397.506 1579.97 398.254 1580.5 398.738C1582.33 396.34 1584.26 392.754 1585.3 389.19L1583.25 388.046L1582.74 388.2H1582.28ZM1572.95 391.126C1572.95 390.62 1574.98 389.696 1574.98 389.696V389.63C1576.5 386.88 1578.15 383.074 1579.25 379.268L1576.5 378.63C1575.62 382.128 1574.05 385.89 1573.53 386.88C1573 387.914 1572.62 388.508 1572.07 388.684C1572.38 389.344 1572.8 390.598 1572.95 391.126ZM1583.01 399.422C1580.13 406.484 1575.37 412.292 1569.3 415.636C1569.9 416.186 1570.95 417.33 1571.35 417.924C1577.49 414.14 1582.52 407.87 1585.74 400.258L1583.01 399.422ZM1570.8 402.986C1575.79 407.43 1582.15 413.7 1584.86 417.858L1587.21 415.526C1584.28 411.346 1577.66 405.362 1572.78 401.16L1570.8 402.986ZM1570.4 437.506C1570.4 436.978 1572.36 435.922 1572.36 435.922V435.834C1575.13 431.874 1578.19 426.352 1580.39 420.456L1577.42 419.598C1575.68 425.054 1572.62 430.796 1571.59 432.248C1570.62 433.744 1570.05 434.58 1569.3 434.822C1569.68 435.57 1570.23 436.956 1570.4 437.506ZM1570.4 437.506C1571.63 437.11 1573.42 437.242 1587.17 436.67C1587.06 436.12 1586.97 434.844 1587.01 434.118L1572.18 434.558L1570.36 435.46L1570.4 437.506Z" fill="#A0CA77"/>
<path d="M1182.06 499.815C1181.96 499.918 1181.82 500.043 1181.65 500.189C1181.48 500.336 1181.3 500.49 1181.1 500.651C1180.91 500.813 1180.72 500.967 1180.53 501.113C1180.35 501.253 1180.19 501.37 1180.05 501.465H1178.96V501.322C1179.07 501.183 1179.21 501.022 1179.36 500.838C1179.53 500.648 1179.68 500.453 1179.84 500.255C1179.99 500.05 1180.12 499.867 1180.22 499.705H1182.06V499.815Z" fill="#A0CA77"/>
</g>
<defs>
<filter id="filter0_b_488_9393" x="-9" y="-9" width="2066" height="2878" filterUnits="userSpaceOnUse" color-interpolation-filters="sRGB">
<feFlood flood-opacity="0" result="BackgroundImageFix"/>
<feGaussianBlur in="BackgroundImage" stdDeviation="4.5"/>
<feComposite in2="SourceAlpha" operator="in" result="effect1_backgroundBlur_488_9393"/>
<feBlend mode="normal" in="SourceGraphic" in2="effect1_backgroundBlur_488_9393" result="shape"/>
</filter>
<filter id="filter1_bf_488_9393" x="-734.227" y="61.5595" width="3208.04" height="3246.1" filterUnits="userSpaceOnUse" color-interpolation-filters="sRGB">
<feFlood flood-opacity="0" result="BackgroundImageFix"/>
<feGaussianBlur in="BackgroundImage" stdDeviation="2"/>
<feComposite in2="SourceAlpha" operator="in" result="effect1_backgroundBlur_488_9393"/>
<feBlend mode="normal" in="SourceGraphic" in2="effect1_backgroundBlur_488_9393" result="shape"/>
<feGaussianBlur stdDeviation="2" result="effect2_foregroundBlur_488_9393"/>
</filter>
<filter id="filter2_bf_488_9393" x="-529.473" y="44.7995" width="2473.35" height="3196.63" filterUnits="userSpaceOnUse" color-interpolation-filters="sRGB">
<feFlood flood-opacity="0" result="BackgroundImageFix"/>
<feGaussianBlur in="BackgroundImage" stdDeviation="2"/>
<feComposite in2="SourceAlpha" operator="in" result="effect1_backgroundBlur_488_9393"/>
<feBlend mode="normal" in="SourceGraphic" in2="effect1_backgroundBlur_488_9393" result="shape"/>
<feGaussianBlur stdDeviation="2" result="effect2_foregroundBlur_488_9393"/>
</filter>
<filter id="filter3_bf_488_9393" x="-1744.21" y="13.0013" width="5330.39" height="4278.66" filterUnits="userSpaceOnUse" color-interpolation-filters="sRGB">
<feFlood flood-opacity="0" result="BackgroundImageFix"/>
<feGaussianBlur in="BackgroundImage" stdDeviation="2"/>
<feComposite in2="SourceAlpha" operator="in" result="effect1_backgroundBlur_488_9393"/>
<feBlend mode="normal" in="SourceGraphic" in2="effect1_backgroundBlur_488_9393" result="shape"/>
<feGaussianBlur stdDeviation="2" result="effect2_foregroundBlur_488_9393"/>
</filter>
<radialGradient id="paint0_radial_488_9393" cx="0" cy="0" r="1" gradientUnits="userSpaceOnUse" gradientTransform="translate(2001.87 3072.1) rotate(-113.026) scale(1743.36 1059.87)">
<stop stop-color="#F8FBDD"/>
<stop offset="0.1125" stop-color="#F3FC91" stop-opacity="0.892708"/>
<stop offset="1" stop-color="#A9CDA4" stop-opacity="0"/>
</radialGradient>
<radialGradient id="paint1_radial_488_9393" cx="0" cy="0" r="1" gradientUnits="userSpaceOnUse" gradientTransform="translate(-148.839 3284.84) rotate(-55.7338) scale(1539.28 1137.71)">
<stop stop-color="#F8FBDD"/>
<stop offset="0.1125" stop-color="#F3FC91" stop-opacity="0.892708"/>
<stop offset="1" stop-color="#A9CDA4" stop-opacity="0"/>
</radialGradient>
<radialGradient id="paint2_radial_488_9393" cx="0" cy="0" r="1" gradientUnits="userSpaceOnUse" gradientTransform="translate(913.091 3877.52) rotate(-87.8301) scale(2771.87 2039.83)">
<stop offset="0.333333" stop-color="#F8FBDD"/>
<stop offset="0.614583" stop-color="#F3FC91" stop-opacity="0.28"/>
<stop offset="1" stop-color="#A9CDA4" stop-opacity="0"/>
</radialGradient>
<radialGradient id="paint3_radial_488_9393" cx="0" cy="0" r="1" gradientUnits="userSpaceOnUse" gradientTransform="translate(972 1749) rotate(90) scale(847 440)">
<stop stop-color="white"/>
<stop offset="0.317708" stop-color="#F8FFD9" stop-opacity="0.837204"/>
<stop offset="0.84375" stop-color="white" stop-opacity="0"/>
</radialGradient>
<clipPath id="clip0_488_9393">
<rect width="2048" height="2732" fill="white"/>
</clipPath>
</defs>
</svg>
