<svg width="221" height="61" viewBox="0 0 221 61" fill="none" xmlns="http://www.w3.org/2000/svg">
<rect y="9" width="221" height="43" rx="21.5" fill="#BEE6F6"/>
<rect y="5" width="53" height="54" rx="26.5" fill="#1299E5"/>
<g clip-path="url(#clip0_409_9167)">
<path d="M31.1012 31.888L37.4271 25.5796C38.1143 24.8924 38.1143 23.7823 37.4271 23.0775L29.8677 15.5181C28.7576 14.408 26.8545 15.2009 26.8545 16.7692V27.6589L20 20.7867C19.3128 20.0995 18.2026 20.0995 17.5154 20.7867C16.8282 21.474 16.8282 22.5841 17.5154 23.2713L26.1321 31.888L17.5154 40.5046C16.8282 41.1918 16.8282 42.3019 17.5154 42.9892C18.2026 43.6764 19.3128 43.6764 20 42.9892L26.8545 36.1346V47.0244C26.8545 48.5926 28.7576 49.3856 29.8677 48.2755L37.4447 40.6984C38.1319 40.0112 38.1319 38.9011 37.4447 38.1963L31.1012 31.888ZM30.3787 21.0158L33.6915 24.3286L30.3787 27.6413V21.0158ZM30.3787 42.7601V36.1346L33.6915 39.4474L30.3787 42.7601Z" fill="white"/>
</g>
<path d="M68.48 31.6V29.68H72.152V31.6H68.48ZM68.48 26.512H72.152V28.432H68.48V26.512ZM77.72 26.512V28.432H73.88V26.512H77.72ZM77.72 31.6H73.88V29.68H77.72V31.6ZM72.152 38.872H73.88V36.136H81.032V34.624H73.88V32.944H79.424V25.192H73.88V23.56H80.672V22.048H73.88V19.936H72.152V22.048H65.696V23.56H72.152V25.192H66.848V32.944H72.152V34.624H65.336V36.136H72.152V38.872ZM65.048 24.424C64.304 23.248 62.648 21.616 61.184 20.512L59.816 21.52C61.28 22.672 62.888 24.328 63.608 25.528L65.048 24.424ZM64.328 29.32H59.6V31H62.648V37.144C61.568 38.152 60.344 39.16 59.336 39.904L60.272 41.608C61.448 40.576 62.552 39.568 63.608 38.536C65.096 40.408 67.256 41.248 70.4 41.368C73.088 41.488 78.152 41.44 80.84 41.32C80.912 40.792 81.2 39.976 81.416 39.568C78.536 39.76 73.016 39.832 70.376 39.712C67.568 39.616 65.456 38.8 64.328 37.024V29.32ZM99.008 33.52C98.744 35.608 98.288 37.768 97.544 39.232C97.88 39.352 98.6 39.664 98.864 39.88C99.632 38.344 100.184 36.04 100.52 33.784L99.008 33.52ZM105.008 31.6C105.248 32.152 105.416 32.68 105.512 33.136L106.928 32.488C106.568 31.168 105.608 29.104 104.6 27.568L103.304 28.096C103.688 28.72 104.048 29.416 104.384 30.112L100.928 30.28C102.56 28.24 104.36 25.528 105.728 23.344L104.24 22.648C103.568 23.944 102.656 25.504 101.672 26.992C101.312 26.512 100.88 25.984 100.376 25.456C101.288 24.112 102.32 22.168 103.136 20.512L101.576 19.936C101.072 21.256 100.232 23.08 99.44 24.448C99.2 24.208 98.96 23.992 98.72 23.776L97.76 24.904C98.84 25.936 100.04 27.304 100.736 28.384C100.232 29.104 99.728 29.776 99.248 30.376L97.592 30.448L97.76 32.056L101.528 31.816V41.824H103.112V31.72L105.008 31.6ZM103.928 33.856C104.528 35.224 105.008 37 105.128 38.152L106.52 37.72C106.352 36.568 105.848 34.816 105.248 33.472L103.928 33.856ZM110.648 32.824L110.384 32.848H106.472V34.384H109.712C108.896 36.832 107.336 38.632 105.416 39.64C105.752 39.88 106.304 40.48 106.544 40.864C108.896 39.496 110.792 37 111.632 33.208L110.648 32.824ZM108.992 27.256H117.056V29.344H108.992V27.256ZM108.992 23.824H117.056V25.888H108.992V23.824ZM118.16 31.84C117.416 32.68 116.24 33.832 115.184 34.696C114.56 33.544 114.104 32.296 113.816 31.12V30.808H118.76V22.384H113.12C113.48 21.736 113.888 20.992 114.224 20.272L112.256 19.888C112.04 20.608 111.68 21.568 111.296 22.384H107.36V30.808H112.184V39.928C112.184 40.192 112.112 40.264 111.8 40.264C111.536 40.288 110.552 40.288 109.496 40.264C109.712 40.696 109.928 41.368 109.976 41.8C111.488 41.8 112.424 41.776 113.024 41.536C113.648 41.272 113.816 40.816 113.816 39.928V35.032C114.824 37.288 116.48 39.52 119.048 40.84C119.288 40.384 119.816 39.736 120.128 39.4C118.28 38.608 116.912 37.336 115.904 35.896C117.08 35.08 118.472 33.928 119.6 32.896L118.16 31.84ZM151.28 21.112C152.792 21.928 154.616 23.152 155.528 23.992L156.632 22.768C155.696 21.928 153.824 20.776 152.336 20.032L151.28 21.112ZM154.688 27.592C153.944 30.016 152.912 32.176 151.616 34.072C150.968 31.792 150.536 28.936 150.296 25.744H157.928V23.992H150.176C150.104 22.696 150.08 21.352 150.08 19.96H148.232C148.256 21.328 148.28 22.672 148.376 23.992H138.368V30.688C138.368 33.784 138.152 37.888 136.184 40.816C136.592 41.032 137.36 41.656 137.672 42.016C139.832 38.896 140.192 34.072 140.192 30.712V30.52H144.56C144.464 34.648 144.344 36.16 144.008 36.52C143.864 36.736 143.624 36.784 143.288 36.784C142.88 36.784 141.848 36.76 140.744 36.664C141.032 37.12 141.224 37.792 141.248 38.344C142.424 38.392 143.504 38.392 144.104 38.344C144.776 38.272 145.184 38.104 145.544 37.648C146.048 37.024 146.192 35.008 146.312 29.632V28.864H140.192V25.744H148.472C148.784 29.608 149.36 33.136 150.224 35.848C148.688 37.648 146.84 39.136 144.704 40.288C145.112 40.624 145.736 41.344 146 41.704C147.848 40.624 149.504 39.28 150.944 37.72C152.048 40.192 153.488 41.656 155.336 41.656C157.16 41.656 157.808 40.48 158.144 36.4C157.664 36.256 157.016 35.848 156.608 35.44C156.44 38.632 156.152 39.88 155.48 39.88C154.256 39.88 153.152 38.512 152.264 36.16C154.04 33.88 155.456 31.144 156.488 28.048L154.688 27.592ZM184.016 33.16C182.744 33.496 181.424 33.856 180.176 34.192V24.448H183.656V22.744H174.92V24.448H178.424V34.672C176.96 35.032 175.64 35.368 174.584 35.608L175.04 37.432C177.56 36.736 180.992 35.776 184.232 34.816L184.016 33.16ZM189.608 25.36C189.656 23.728 189.68 22.048 189.68 20.32H187.904C187.904 22.072 187.88 23.752 187.832 25.36H183.824V27.088H187.76C187.4 32.896 186.08 37.744 180.992 40.456C181.424 40.768 182.024 41.416 182.264 41.872C187.736 38.8 189.128 33.448 189.512 27.088H194.312C193.952 35.584 193.568 38.8 192.896 39.568C192.632 39.856 192.344 39.928 191.888 39.928C191.36 39.928 189.992 39.928 188.528 39.784C188.84 40.288 189.056 41.032 189.08 41.536C190.424 41.632 191.84 41.656 192.608 41.584C193.448 41.488 193.928 41.296 194.456 40.648C195.368 39.544 195.68 36.112 196.064 26.272C196.088 26.032 196.088 25.36 196.088 25.36H189.608Z" fill="#664A33"/>
<path d="M88.116 22.288C88.22 21.728 88.3 21.12 88.356 20.472L87.38 20.392C87.324 21.08 87.244 21.712 87.14 22.288H85.748C85.916 21.808 86.084 21.216 86.164 20.688L85.204 20.424C85.14 21.12 84.916 21.856 84.844 22.048C84.764 22.256 84.668 22.392 84.556 22.432C84.66 22.672 84.812 23.104 84.876 23.304V23.312C84.948 23.232 85.34 23.184 85.748 23.184H86.932C86.46 24.832 85.612 25.96 84.004 26.64C84.196 26.84 84.532 27.272 84.644 27.48C86.444 26.592 87.404 25.208 87.924 23.184H89.484C89.324 25.168 89.116 26.08 88.86 26.312C88.748 26.424 88.652 26.44 88.492 26.44C88.276 26.44 87.812 26.432 87.332 26.392C87.516 26.664 87.636 27.08 87.66 27.368C88.132 27.392 88.604 27.392 88.884 27.352C89.228 27.312 89.46 27.232 89.7 26.952C90.076 26.552 90.292 25.456 90.508 22.72C90.524 22.592 90.54 22.288 90.54 22.288H88.116ZM84.412 30.448V31.496H90.556V30.448H84.412ZM89.98 37.736L89.796 37.784H89.316C89.596 36.888 89.9 35.864 90.084 35.024L89.34 34.888L89.18 34.928H84.58V35.832H88.86C88.708 36.432 88.5 37.152 88.308 37.784H86.004C86.236 37.304 86.468 36.72 86.604 36.2L85.596 35.928C85.476 36.624 85.188 37.344 85.092 37.536C84.996 37.736 84.884 37.872 84.756 37.912C84.876 38.16 85.028 38.608 85.092 38.816C85.164 38.736 85.54 38.696 85.94 38.696H89.46C89.204 39.568 88.804 40.512 88.452 41.056C88.692 41.176 89.036 41.4 89.228 41.544C89.788 40.72 90.38 39.416 90.684 38.112L89.98 37.736Z" fill="#664A33"/>
<path d="M129.82 21H123.188V21.944H125.98V27.384H127.028V21.944H129.82V21ZM123.412 30.448V31.496H129.556V30.448H123.412ZM128.98 37.736L128.796 37.784H128.316C128.596 36.888 128.9 35.864 129.084 35.024L128.34 34.888L128.18 34.928H123.58V35.832H127.86C127.708 36.432 127.5 37.152 127.308 37.784H125.004C125.236 37.304 125.468 36.72 125.604 36.2L124.596 35.928C124.476 36.624 124.188 37.344 124.092 37.536C123.996 37.736 123.884 37.872 123.756 37.912C123.876 38.16 124.028 38.608 124.092 38.816C124.164 38.736 124.54 38.696 124.94 38.696H128.46C128.204 39.568 127.804 40.512 127.452 41.056C127.692 41.176 128.036 41.4 128.228 41.544C128.788 40.72 129.38 39.416 129.684 38.112L128.98 37.736Z" fill="#664A33"/>
<path d="M165.284 21.216C164.564 22.08 163.068 23.008 161.66 23.504C161.836 23.704 162.108 24.08 162.244 24.304C163.732 23.72 165.252 22.728 166.236 21.656L165.284 21.216ZM166.604 22.336C165.428 23.84 163.388 25.096 161.364 25.784C161.54 26 161.836 26.456 161.956 26.68C162.756 26.36 163.58 25.952 164.356 25.472V28.456H165.348V24.808C166.164 24.216 166.9 23.544 167.492 22.816L166.604 22.336ZM162.7 39.104C163.628 37.704 164.588 35.896 165.3 33.976L164.22 33.664C163.588 35.648 162.476 37.744 162.1 38.272C161.756 38.808 161.54 39.12 161.268 39.2C161.412 39.472 161.612 39.984 161.668 40.176C162.116 40.04 162.772 40.088 167.764 39.88C167.732 39.672 167.692 39.216 167.716 38.952L162.7 39.104Z" fill="#664A33"/>
<path d="M202.569 21.246C202.198 22.016 201.449 23.234 200.77 24.179C201.645 25.32 202.45 26.594 202.821 27.455L203.724 27C203.325 26.23 202.562 25.117 201.806 24.172C202.366 23.353 203.003 22.541 203.458 21.561L202.569 21.246ZM204.991 21.386C204.613 22.121 203.85 23.283 203.164 24.186C204.053 25.271 204.865 26.489 205.243 27.315L206.16 26.86C205.754 26.132 204.977 25.075 204.221 24.179C204.788 23.402 205.432 22.632 205.894 21.708L204.991 21.386ZM206.377 33.524C205.929 32.887 205.215 32.117 204.417 31.347C204.998 30.535 205.495 29.639 205.901 28.673L205.033 28.4C204.69 29.24 204.27 30.024 203.773 30.731C203.094 30.101 202.394 29.485 201.778 28.953L201.148 29.534C201.799 30.108 202.52 30.787 203.206 31.466C202.478 32.327 201.631 33.041 200.679 33.566C200.868 33.741 201.197 34.098 201.323 34.294C202.247 33.727 203.087 32.985 203.829 32.11C204.571 32.894 205.229 33.657 205.628 34.273L206.377 33.524ZM201.925 40.216C202.737 38.991 203.577 37.409 204.2 35.729L203.255 35.456C202.702 37.192 201.729 39.026 201.4 39.488C201.099 39.957 200.91 40.23 200.672 40.3C200.798 40.538 200.973 40.986 201.022 41.154C201.414 41.035 201.988 41.077 206.356 40.895C206.328 40.713 206.293 40.314 206.314 40.083L201.925 40.216Z" fill="#664A33"/>
<path d="M95.1268 29.952C95.0521 30.0267 94.9534 30.1173 94.8308 30.224C94.7081 30.3307 94.5748 30.4427 94.4308 30.56C94.2921 30.6773 94.1534 30.7893 94.0148 30.896C93.8814 30.9973 93.7641 31.0827 93.6628 31.152H92.8708V31.048C92.9561 30.9467 93.0548 30.8293 93.1668 30.696C93.2841 30.5573 93.3988 30.416 93.5108 30.272C93.6228 30.1227 93.7161 29.9893 93.7908 29.872H95.1268V29.952Z" fill="#664A33"/>
<path d="M133.207 29.872C133.287 29.9893 133.38 30.1227 133.487 30.272C133.599 30.416 133.711 30.5573 133.823 30.696C133.94 30.8293 134.041 30.9467 134.127 31.048V31.152H133.335C133.233 31.0827 133.113 30.9973 132.975 30.896C132.841 30.7893 132.703 30.6773 132.559 30.56C132.42 30.4427 132.289 30.3307 132.167 30.224C132.044 30.1173 131.945 30.0267 131.871 29.952V29.872H133.207Z" fill="#664A33"/>
<path d="M172.127 28.952C172.052 29.0267 171.953 29.1173 171.831 29.224C171.708 29.3307 171.575 29.4427 171.431 29.56C171.292 29.6773 171.153 29.7893 171.015 29.896C170.881 29.9973 170.764 30.0827 170.663 30.152H169.871V30.048C169.956 29.9467 170.055 29.8293 170.167 29.696C170.284 29.5573 170.399 29.416 170.511 29.272C170.623 29.1227 170.716 28.9893 170.791 28.872H172.127V28.952Z" fill="#664A33"/>
<defs>
<clipPath id="clip0_409_9167">
<rect width="42.2903" height="42.2903" fill="white" transform="translate(9 9)"/>
</clipPath>
</defs>
</svg>
