<svg width="344" height="99" viewBox="0 0 344 99" fill="none" xmlns="http://www.w3.org/2000/svg">
<path d="M0 41.5C0 22.4462 15.4462 7 34.5 7H309.5C328.554 7 344 22.4462 344 41.5V48.5C344 67.5538 328.554 83 309.5 83H34.5C15.4462 83 0 67.5538 0 48.5V41.5Z" fill="#C4C4C4"/>
<rect width="96.2694" height="98.0858" rx="48.1347" fill="#FC9861"/>
<path d="M49.877 48.6858L59.5335 58.1435C60.5825 59.1738 60.5825 60.8381 59.5335 61.8948L47.9941 73.2282C46.2995 74.8925 43.3945 73.7037 43.3945 71.3525V55.0261L32.931 65.3292C31.882 66.3595 30.1874 66.3595 29.1383 65.3292C28.0893 64.2989 28.0893 62.6345 29.1383 61.6042L42.2916 48.6858L29.1383 35.7674C28.0893 34.7371 28.0893 33.0728 29.1383 32.0425C30.1874 31.0122 31.882 31.0122 32.931 32.0425L43.3945 42.3191V25.9927C43.3945 23.6415 46.2995 22.4527 47.9941 24.1171L59.5604 35.4768C60.6094 36.5071 60.6094 38.1714 59.5604 39.2282L49.877 48.6858ZM48.7741 64.9857L53.831 60.0191L48.7741 55.0526V64.9857ZM48.7741 32.3859V42.3191L53.831 37.3525L48.7741 32.3859Z" fill="white"/>
<path d="M126.396 43.556V46.256H158.112V43.556H126.396ZM128.988 34.664V37.364H155.628V34.664H128.988ZM140.724 28.796V61.88H143.532V28.796H140.724ZM140.004 44.924C136.908 50.036 130.932 55.184 125.388 57.596C126.036 58.172 126.9 59.216 127.368 59.9C132.948 57.056 138.924 51.656 142.344 45.932L140.004 44.924ZM144.252 44.924L142.02 45.896C145.476 51.584 151.452 57.092 156.996 59.9C157.464 59.18 158.328 58.136 158.976 57.596C153.432 55.184 147.384 50 144.252 44.924ZM197.82 42.98H190.656V45.5H195.228V55.724H197.82V42.98ZM197.82 54.644H195.48C193.788 56.192 191.844 57.812 190.26 58.964L191.664 61.592C193.464 60.008 195.12 58.46 196.704 56.912C198.936 59.756 202.212 61.016 206.964 61.196C210.996 61.376 218.7 61.304 222.768 61.124C222.876 60.332 223.308 59.072 223.632 58.46C219.276 58.748 210.96 58.856 206.964 58.676C202.68 58.532 199.512 57.308 197.82 54.644ZM190.98 31.172C193.176 32.936 195.66 35.456 196.668 37.256L198.9 35.564C197.784 33.8 195.264 31.316 193.032 29.696L190.98 31.172ZM199.872 32V34.268H222.516V32H199.872ZM199.332 51.008V53.276H223.056V51.008H199.332ZM209.628 28.796V57.38H212.292V28.796H209.628ZM204.084 43.52H218.016V46.4H204.084V43.52ZM204.084 38.768H218.016V41.612H204.084V38.768ZM201.6 36.752V48.452H220.644V36.752H201.6ZM285.948 46.796C284.508 48.416 281.988 50.756 280.188 52.124L281.844 53.42C283.716 52.16 286.164 50.144 288.108 48.38L285.948 46.796ZM277.02 28.724C276.588 30.164 275.724 32.18 275.04 33.512L277.308 34.088C278.136 32.9 279.144 31.028 280.008 29.3L277.02 28.724ZM272.124 39.884H284.256V43.016H272.124V39.884ZM272.124 34.664H284.256V37.796H272.124V34.664ZM269.64 32.504V45.212H286.848V32.504H269.64ZM276.912 44.024V59C276.912 59.396 276.804 59.504 276.336 59.504C275.904 59.54 274.464 59.54 272.844 59.504C273.168 60.188 273.492 61.196 273.564 61.88C275.832 61.88 277.272 61.844 278.208 61.448C279.108 61.052 279.36 60.368 279.36 59V44.024H276.912ZM268.272 48.344V50.612H274.284V48.344H268.272ZM273.672 48.344V48.776C272.628 53.492 270.036 56.804 266.652 58.568C267.192 58.964 268.02 59.864 268.344 60.44C271.944 58.388 274.788 54.608 276.084 48.884L274.608 48.272L274.14 48.344H273.672ZM279.036 44.204L277.56 46.04C278.532 50.72 281.124 57.236 287.28 60.404C287.64 59.72 288.432 58.712 288.936 58.208C282.636 55.472 280.044 49.28 279.036 44.204ZM260.856 28.796C259.92 31.172 258.228 34.7 256.932 36.788L258.768 37.58C260.172 35.6 261.864 32.36 263.232 29.696L260.856 28.796ZM264.888 32.9C262.908 36.68 259.524 42.044 256.824 45.248L258.48 46.184C261.18 43.052 264.672 37.94 267.156 33.944L264.888 32.9ZM255.096 36.284C257.004 38.12 259.164 40.676 260.064 42.404L261.612 40.388C260.676 38.732 258.48 36.32 256.536 34.556L255.096 36.284ZM263.484 41.144C264.924 43.52 266.328 46.724 266.796 48.74L268.92 47.768C268.416 45.788 266.94 42.692 265.428 40.316L263.484 41.144ZM254.808 44.708L255.096 47.12C258.372 46.904 262.692 46.652 266.976 46.364V44.096C262.44 44.348 257.94 44.564 254.808 44.708ZM264.42 49.856C265.284 51.908 266.04 54.608 266.22 56.336L268.308 55.688C268.092 53.96 267.336 51.296 266.4 49.244L264.42 49.856ZM256.968 49.352C256.572 52.484 255.888 55.724 254.736 57.92C255.276 58.172 256.356 58.64 256.788 58.928C257.94 56.624 258.768 53.168 259.236 49.748L256.968 49.352ZM260.784 45.752V61.88H263.16V45.752H260.784Z" fill="white"/>
<path d="M172 35.038C170.026 39.49 166.918 43.214 163.11 45.454C163.348 45.678 163.74 46.126 163.894 46.364C167.758 43.928 170.936 40.092 173.064 35.388L172 35.038ZM164.146 36.774C167.352 39.644 171.188 43.718 172.868 46.336L173.792 45.454C172.028 42.836 168.108 38.888 164.93 36.074L164.146 36.774ZM174.156 60.16C173.848 60.37 173.442 60.776 173.176 61C170.376 59.152 168.178 56.464 166.708 51.886C165.77 52.474 164.608 53.104 163.432 53.664C163.278 53.3 163.068 52.936 162.858 52.614C164.16 52.138 165.728 51.326 166.736 50.654L167.562 50.906C168.906 55.61 170.964 58.186 174.156 60.16Z" fill="white"/>
<path d="M237.532 33.95V34.146C237.168 38.892 236.762 40.81 236.23 41.3C236.062 41.482 235.894 41.51 235.586 41.51C235.236 41.51 234.396 41.496 233.5 41.412C233.71 41.706 233.822 42.154 233.85 42.476C234.69 42.532 235.516 42.532 235.964 42.504C236.482 42.462 236.818 42.35 237.154 41.986C237.784 41.314 238.176 39.438 238.568 34.482C238.596 34.328 238.624 33.95 238.624 33.95H237.532ZM229.006 35.112C229.146 35 229.65 34.944 230.462 34.944H238.022L238.036 33.95H229.664L229.006 34.258V35.112ZM229.006 35.112C229.006 34.86 229.818 34.482 229.818 34.482V34.468C230.21 33.544 230.658 32.158 230.868 30.898L229.79 30.576C229.678 31.794 229.23 33.11 229.104 33.46C228.964 33.81 228.824 34.048 228.642 34.104C228.782 34.37 228.95 34.874 229.006 35.112ZM233.682 30.52C233.15 36.316 231.904 39.9 227.774 41.874C227.998 42.084 228.376 42.546 228.516 42.77C232.73 40.516 234.13 36.792 234.76 30.618L233.682 30.52ZM228.138 46.106V47.24H238.708V46.106H228.138ZM229.272 57.758C229.412 57.646 229.902 57.59 230.7 57.59H238.092V56.568H229.916L229.272 56.89V57.758ZM237.672 56.568V56.848C237.322 58.626 236.426 61.104 235.726 62.294C235.978 62.434 236.37 62.686 236.566 62.868C237.378 61.496 238.33 59.074 238.806 56.918L238.05 56.526L237.84 56.568H237.672ZM229.272 57.758C229.272 57.52 230.042 57.142 230.042 57.142V57.128C230.63 56.106 231.288 54.566 231.666 53.152L230.574 52.816C230.294 54.188 229.678 55.63 229.468 56.008C229.286 56.386 229.104 56.68 228.908 56.722C229.034 57.002 229.202 57.52 229.272 57.758ZM228.418 51.528V52.536H237.084V51.528H228.418ZM236.762 51.528V51.654C236.454 52.844 235.81 55.196 235.236 56.862L236.286 57.044C236.846 55.364 237.49 53.166 237.868 51.626L237.07 51.472L236.888 51.528H236.762Z" fill="white"/>
<path d="M293.76 31.766V32.802H305.268V31.766H293.76ZM298.94 32.396V42.728H300.06V32.396H298.94ZM294.138 46.106V47.24H304.708V46.106H294.138ZM295.272 57.758C295.412 57.646 295.902 57.59 296.7 57.59H304.092V56.568H295.916L295.272 56.89V57.758ZM303.672 56.568V56.848C303.322 58.626 302.426 61.104 301.726 62.294C301.978 62.434 302.37 62.686 302.566 62.868C303.378 61.496 304.33 59.074 304.806 56.918L304.05 56.526L303.84 56.568H303.672ZM295.272 57.758C295.272 57.52 296.042 57.142 296.042 57.142V57.128C296.63 56.106 297.288 54.566 297.666 53.152L296.574 52.816C296.294 54.188 295.678 55.63 295.468 56.008C295.286 56.386 295.104 56.68 294.908 56.722C295.034 57.002 295.202 57.52 295.272 57.758ZM294.418 51.528V52.536H303.084V51.528H294.418ZM302.762 51.528V51.654C302.454 52.844 301.81 55.196 301.236 56.862L302.286 57.044C302.846 55.364 303.49 53.166 303.868 51.626L303.07 51.472L302.888 51.528H302.762Z" fill="white"/>
<path d="M179.149 49.276C179.261 49.4813 179.401 49.7147 179.569 49.976C179.737 50.228 179.91 50.4753 180.087 50.718C180.274 50.9607 180.437 51.1707 180.577 51.348V51.516H179.583C179.425 51.3853 179.238 51.2313 179.023 51.054C178.818 50.8673 178.608 50.676 178.393 50.48C178.188 50.2747 177.997 50.0787 177.819 49.892C177.651 49.7053 177.521 49.5467 177.427 49.416V49.276H179.149Z" fill="white"/>
<path d="M246.577 44.416C246.475 44.5467 246.335 44.7053 246.157 44.892C245.989 45.0787 245.798 45.2747 245.583 45.48C245.378 45.676 245.173 45.8673 244.967 46.054C244.762 46.2313 244.575 46.3853 244.407 46.516H243.427V46.348C243.567 46.1707 243.726 45.9607 243.903 45.718C244.081 45.4753 244.253 45.228 244.421 44.976C244.589 44.7147 244.729 44.4813 244.841 44.276H246.577V44.416Z" fill="white"/>
<path d="M311.149 46.276C311.261 46.4813 311.401 46.7147 311.569 46.976C311.737 47.228 311.91 47.4753 312.087 47.718C312.274 47.9607 312.437 48.1707 312.577 48.348V48.516H311.583C311.425 48.3853 311.238 48.2313 311.023 48.054C310.818 47.8673 310.608 47.676 310.393 47.48C310.188 47.2747 309.997 47.0787 309.819 46.892C309.651 46.7053 309.521 46.5467 309.427 46.416V46.276H311.149Z" fill="white"/>
<path d="M278.107 46.34C278.187 46.4867 278.287 46.6533 278.407 46.84C278.527 47.02 278.65 47.1967 278.777 47.37C278.91 47.5433 279.027 47.6933 279.127 47.82V47.94H278.417C278.303 47.8467 278.17 47.7367 278.017 47.61C277.87 47.4767 277.72 47.34 277.567 47.2C277.42 47.0533 277.283 46.9133 277.157 46.78C277.037 46.6467 276.943 46.5333 276.877 46.44V46.34H278.107Z" fill="white"/>
</svg>
