<svg width="228" height="61" viewBox="0 0 228 61" fill="none" xmlns="http://www.w3.org/2000/svg">
<path d="M0 31C0 19.402 9.40202 10 21 10H168C179.598 10 189 19.402 189 31C189 42.598 179.598 52 168 52H21C9.40202 52 0 42.598 0 31Z" fill="#BEE6F6"/>
<rect y="6" width="53" height="54" rx="26.5" fill="#1299E5"/>
<path d="M23.1893 32.888L16.8634 26.5796C16.1762 25.8924 16.1762 24.7823 16.8634 24.0775L24.4228 16.5181C25.5329 15.408 27.436 16.2009 27.436 17.7692V28.6589L34.2906 21.7867C34.9778 21.0995 36.0879 21.0995 36.7751 21.7867C37.4623 22.474 37.4623 23.5841 36.7751 24.2713L28.1585 32.888L36.7751 41.5046C37.4623 42.1918 37.4623 43.3019 36.7751 43.9892C36.0879 44.6764 34.9778 44.6764 34.2906 43.9892L27.436 37.1346V48.0244C27.436 49.5926 25.5329 50.3856 24.4228 49.2755L16.8458 41.6984C16.1586 41.0112 16.1586 39.9011 16.8458 39.1963L23.1893 32.888ZM23.9118 22.0158L20.5991 25.3286L23.9118 28.6413V22.0158ZM23.9118 43.7601V37.1346L20.5991 40.4474L23.9118 43.7601Z" fill="white"/>
<path d="M67.796 39.4C65.204 39.4 64.676 39.064 64.676 37.552V31.216H77.204V32.392H79.028V21.424H61.604V23.176H77.204V29.464H64.676V25.528H62.876V37.528C62.876 40.48 64.076 41.152 67.916 41.152H76.892C80.804 41.152 81.596 39.856 82.052 35.464C81.524 35.368 80.732 35.08 80.252 34.744C79.916 38.608 79.532 39.4 76.916 39.4H67.796ZM112.58 31.6V29.68H116.252V31.6H112.58ZM112.58 26.512H116.252V28.432H112.58V26.512ZM121.82 26.512V28.432H117.98V26.512H121.82ZM121.82 31.6H117.98V29.68H121.82V31.6ZM116.252 38.872H117.98V36.136H125.132V34.624H117.98V32.944H123.524V25.192H117.98V23.56H124.772V22.048H117.98V19.936H116.252V22.048H109.796V23.56H116.252V25.192H110.948V32.944H116.252V34.624H109.436V36.136H116.252V38.872ZM109.148 24.424C108.404 23.248 106.748 21.616 105.284 20.512L103.916 21.52C105.38 22.672 106.988 24.328 107.708 25.528L109.148 24.424ZM108.428 29.32H103.7V31H106.748V37.144C105.668 38.152 104.444 39.16 103.436 39.904L104.372 41.608C105.548 40.576 106.652 39.568 107.708 38.536C109.196 40.408 111.356 41.248 114.5 41.368C117.188 41.488 122.252 41.44 124.94 41.32C125.012 40.792 125.3 39.976 125.516 39.568C122.636 39.76 117.116 39.832 114.476 39.712C111.668 39.616 109.556 38.8 108.428 37.024V29.32ZM147.908 33.52C147.644 35.608 147.188 37.768 146.444 39.232C146.78 39.352 147.5 39.664 147.764 39.88C148.532 38.344 149.084 36.04 149.42 33.784L147.908 33.52ZM153.908 31.6C154.148 32.152 154.316 32.68 154.412 33.136L155.828 32.488C155.468 31.168 154.508 29.104 153.5 27.568L152.204 28.096C152.588 28.72 152.948 29.416 153.284 30.112L149.828 30.28C151.46 28.24 153.26 25.528 154.628 23.344L153.14 22.648C152.468 23.944 151.556 25.504 150.572 26.992C150.212 26.512 149.78 25.984 149.276 25.456C150.188 24.112 151.22 22.168 152.036 20.512L150.476 19.936C149.972 21.256 149.132 23.08 148.34 24.448C148.1 24.208 147.86 23.992 147.62 23.776L146.66 24.904C147.74 25.936 148.94 27.304 149.636 28.384C149.132 29.104 148.628 29.776 148.148 30.376L146.492 30.448L146.66 32.056L150.428 31.816V41.824H152.012V31.72L153.908 31.6ZM152.828 33.856C153.428 35.224 153.908 37 154.028 38.152L155.42 37.72C155.252 36.568 154.748 34.816 154.148 33.472L152.828 33.856ZM159.548 32.824L159.284 32.848H155.372V34.384H158.612C157.796 36.832 156.236 38.632 154.316 39.64C154.652 39.88 155.204 40.48 155.444 40.864C157.796 39.496 159.692 37 160.532 33.208L159.548 32.824ZM157.892 27.256H165.956V29.344H157.892V27.256ZM157.892 23.824H165.956V25.888H157.892V23.824ZM167.06 31.84C166.316 32.68 165.14 33.832 164.084 34.696C163.46 33.544 163.004 32.296 162.716 31.12V30.808H167.66V22.384H162.02C162.38 21.736 162.788 20.992 163.124 20.272L161.156 19.888C160.94 20.608 160.58 21.568 160.196 22.384H156.26V30.808H161.084V39.928C161.084 40.192 161.012 40.264 160.7 40.264C160.436 40.288 159.452 40.288 158.396 40.264C158.612 40.696 158.828 41.368 158.876 41.8C160.388 41.8 161.324 41.776 161.924 41.536C162.548 41.272 162.716 40.816 162.716 39.928V35.032C163.724 37.288 165.38 39.52 167.948 40.84C168.188 40.384 168.716 39.736 169.028 39.4C167.18 38.608 165.812 37.336 164.804 35.896C165.98 35.08 167.372 33.928 168.5 32.896L167.06 31.84Z" fill="#664A33"/>
<path d="M85.67 31.78V32.59H93.23V31.78H85.67Z" fill="#664A33"/>
<path d="M95.4232 30.94C95.3299 30.7867 95.2099 30.62 95.0632 30.44C94.9165 30.26 94.7632 30.0867 94.6032 29.92C94.4432 29.7467 94.3032 29.5967 94.1832 29.47V29.34H94.9032C95.0765 29.4533 95.2565 29.5867 95.4432 29.74C95.6365 29.8933 95.8165 30.06 95.9832 30.24C96.1632 30.06 96.3465 29.8933 96.5332 29.74C96.7265 29.5867 96.9099 29.4533 97.0832 29.34H97.8132V29.47C97.6932 29.5967 97.5499 29.7467 97.3832 29.92C97.2232 30.0867 97.0665 30.26 96.9132 30.44C96.7665 30.62 96.6499 30.7867 96.5632 30.94H95.4232Z" fill="#664A33"/>
<path d="M133.013 21.816C133.139 21.159 133.229 20.448 133.31 19.674L132.626 19.62C132.554 20.412 132.455 21.15 132.329 21.816H130.277C130.493 21.249 130.709 20.529 130.817 19.863L130.124 19.656C130.043 20.439 129.755 21.285 129.683 21.501C129.593 21.735 129.503 21.888 129.386 21.915C129.467 22.095 129.575 22.419 129.62 22.563V22.572C129.701 22.5 130.034 22.464 130.547 22.464H132.185C131.672 24.57 130.718 26.01 128.828 26.919C128.972 27.054 129.215 27.342 129.296 27.486C131.312 26.415 132.32 24.831 132.878 22.464H135.056C134.84 25.137 134.588 26.253 134.264 26.55C134.147 26.658 134.039 26.676 133.841 26.676C133.616 26.676 133.076 26.667 132.509 26.613C132.635 26.802 132.716 27.099 132.734 27.297C133.265 27.333 133.796 27.342 134.084 27.324C134.426 27.297 134.633 27.225 134.849 26.982C135.263 26.559 135.506 25.353 135.767 22.158C135.785 22.059 135.794 21.816 135.794 21.816H133.013ZM129.053 31.202V31.931H135.857V31.202H129.053ZM135.425 39.472L135.299 39.508H134.39C134.723 38.473 135.092 37.222 135.317 36.331L134.804 36.223L134.687 36.259H129.233V36.907H134.453C134.255 37.663 133.958 38.689 133.688 39.508H130.466C130.799 38.878 131.123 38.059 131.33 37.303L130.619 37.096C130.439 37.969 130.043 38.896 129.917 39.139C129.8 39.391 129.674 39.571 129.548 39.598C129.629 39.787 129.746 40.111 129.782 40.264C129.872 40.192 130.196 40.156 130.709 40.156H135.074C134.813 41.236 134.327 42.514 133.931 43.18C134.102 43.27 134.345 43.441 134.471 43.549C135.002 42.676 135.605 41.11 135.911 39.724L135.425 39.472Z" fill="#664A33"/>
<path d="M178.217 20.412H170.819V21.087H174.14V27.459H174.869V21.087H178.217V20.412ZM171.053 31.202V31.931H177.857V31.202H171.053ZM177.425 39.472L177.299 39.508H176.39C176.723 38.473 177.092 37.222 177.317 36.331L176.804 36.223L176.687 36.259H171.233V36.907H176.453C176.255 37.663 175.958 38.689 175.688 39.508H172.466C172.799 38.878 173.123 38.059 173.33 37.303L172.619 37.096C172.439 37.969 172.043 38.896 171.917 39.139C171.8 39.391 171.674 39.571 171.548 39.598C171.629 39.787 171.746 40.111 171.782 40.264C171.872 40.192 172.196 40.156 172.709 40.156H177.074C176.813 41.236 176.327 42.514 175.931 43.18C176.102 43.27 176.345 43.441 176.471 43.549C177.002 42.676 177.605 41.11 177.911 39.724L177.425 39.472Z" fill="#664A33"/>
<path d="M181.107 31.34C181.187 31.4867 181.287 31.6533 181.407 31.84C181.527 32.02 181.65 32.1967 181.777 32.37C181.903 32.5433 182.02 32.6933 182.127 32.82V32.94H181.417C181.257 32.82 181.073 32.6667 180.867 32.48C180.667 32.2933 180.473 32.1033 180.287 31.91C180.107 31.7167 179.97 31.56 179.877 31.44V31.34H181.107Z" fill="#664A33"/>
</svg>
