<svg width="349" height="103" viewBox="0 0 349 103" fill="none" xmlns="http://www.w3.org/2000/svg">
<path d="M0 49.5C0 30.4462 15.4462 15 34.5 15H297.5C316.554 15 332 30.4462 332 49.5V54.5C332 73.5538 316.554 89 297.5 89H34.5C15.4462 89 0 73.5538 0 54.5V49.5Z" fill="#BEE6F6"/>
<rect x="248" width="101" height="103" rx="50.5" fill="#1299E5"/>
<path d="M300.537 51.2802L310.709 61.1252C311.814 62.1977 311.814 63.9302 310.709 65.0302L298.554 76.8277C296.769 78.5602 293.709 77.3227 293.709 74.8752V57.8802L282.687 68.6052C281.582 69.6777 279.797 69.6777 278.692 68.6052C277.587 67.5327 277.587 65.8002 278.692 64.7277L292.547 51.2802L278.692 37.8327C277.587 36.7602 277.587 35.0277 278.692 33.9552C279.797 32.8827 281.582 32.8827 282.687 33.9552L293.709 44.6527V27.6577C293.709 25.2102 296.769 23.9727 298.554 25.7052L310.737 37.5302C311.842 38.6027 311.842 40.3352 310.737 41.4352L300.537 51.2802ZM299.375 68.2477L304.702 63.0777L299.375 57.9077V68.2477ZM299.375 34.3127V44.6527L304.702 39.4827L299.375 34.3127Z" fill="white"/>
<path d="M60.42 46.256V64.328C60.42 68.828 62.256 69.872 68.124 69.872C69.456 69.872 80.184 69.872 81.66 69.872C87.6 69.872 88.752 67.928 89.472 61.268C88.644 61.124 87.456 60.656 86.7 60.152C86.232 65.984 85.62 67.208 81.66 67.208C79.248 67.208 69.852 67.208 67.944 67.208C63.984 67.208 63.192 66.668 63.192 64.4V46.256H60.42ZM61.932 52.16V54.86H83.172V52.16H61.932ZM58.548 40.028V42.692H82.092V56.624H84.864V40.028H58.548ZM128.82 51.98H121.656V54.5H126.228V64.724H128.82V51.98ZM128.82 63.644H126.48C124.788 65.192 122.844 66.812 121.26 67.964L122.664 70.592C124.464 69.008 126.12 67.46 127.704 65.912C129.936 68.756 133.212 70.016 137.964 70.196C141.996 70.376 149.7 70.304 153.768 70.124C153.876 69.332 154.308 68.072 154.632 67.46C150.276 67.748 141.96 67.856 137.964 67.676C133.68 67.532 130.512 66.308 128.82 63.644ZM121.98 40.172C124.176 41.936 126.66 44.456 127.668 46.256L129.9 44.564C128.784 42.8 126.264 40.316 124.032 38.696L121.98 40.172ZM130.872 41V43.268H153.516V41H130.872ZM130.332 60.008V62.276H154.056V60.008H130.332ZM140.628 37.796V66.38H143.292V37.796H140.628ZM135.084 52.52H149.016V55.4H135.084V52.52ZM135.084 47.768H149.016V50.612H135.084V47.768ZM132.6 45.752V57.452H151.644V45.752H132.6ZM216.948 55.796C215.508 57.416 212.988 59.756 211.188 61.124L212.844 62.42C214.716 61.16 217.164 59.144 219.108 57.38L216.948 55.796ZM208.02 37.724C207.588 39.164 206.724 41.18 206.04 42.512L208.308 43.088C209.136 41.9 210.144 40.028 211.008 38.3L208.02 37.724ZM203.124 48.884H215.256V52.016H203.124V48.884ZM203.124 43.664H215.256V46.796H203.124V43.664ZM200.64 41.504V54.212H217.848V41.504H200.64ZM207.912 53.024V68C207.912 68.396 207.804 68.504 207.336 68.504C206.904 68.54 205.464 68.54 203.844 68.504C204.168 69.188 204.492 70.196 204.564 70.88C206.832 70.88 208.272 70.844 209.208 70.448C210.108 70.052 210.36 69.368 210.36 68V53.024H207.912ZM199.272 57.344V59.612H205.284V57.344H199.272ZM204.672 57.344V57.776C203.628 62.492 201.036 65.804 197.652 67.568C198.192 67.964 199.02 68.864 199.344 69.44C202.944 67.388 205.788 63.608 207.084 57.884L205.608 57.272L205.14 57.344H204.672ZM210.036 53.204L208.56 55.04C209.532 59.72 212.124 66.236 218.28 69.404C218.64 68.72 219.432 67.712 219.936 67.208C213.636 64.472 211.044 58.28 210.036 53.204ZM191.856 37.796C190.92 40.172 189.228 43.7 187.932 45.788L189.768 46.58C191.172 44.6 192.864 41.36 194.232 38.696L191.856 37.796ZM195.888 41.9C193.908 45.68 190.524 51.044 187.824 54.248L189.48 55.184C192.18 52.052 195.672 46.94 198.156 42.944L195.888 41.9ZM186.096 45.284C188.004 47.12 190.164 49.676 191.064 51.404L192.612 49.388C191.676 47.732 189.48 45.32 187.536 43.556L186.096 45.284ZM194.484 50.144C195.924 52.52 197.328 55.724 197.796 57.74L199.92 56.768C199.416 54.788 197.94 51.692 196.428 49.316L194.484 50.144ZM185.808 53.708L186.096 56.12C189.372 55.904 193.692 55.652 197.976 55.364V53.096C193.44 53.348 188.94 53.564 185.808 53.708ZM195.42 58.856C196.284 60.908 197.04 63.608 197.22 65.336L199.308 64.688C199.092 62.96 198.336 60.296 197.4 58.244L195.42 58.856ZM187.968 58.352C187.572 61.484 186.888 64.724 185.736 66.92C186.276 67.172 187.356 67.64 187.788 67.928C188.94 65.624 189.768 62.168 190.236 58.748L187.968 58.352ZM191.784 54.752V70.88H194.16V54.752H191.784Z" fill="#664A33"/>
<path d="M91.638 53.106V54.24H102.208V53.106H91.638Z" fill="#664A33"/>
<path d="M107.692 50.516C107.562 50.3013 107.394 50.0727 107.188 49.83C106.983 49.578 106.768 49.3307 106.544 49.088C106.32 48.8453 106.124 48.6353 105.956 48.458V48.276H106.964C107.207 48.4347 107.459 48.6213 107.72 48.836C107.991 49.0507 108.243 49.284 108.476 49.536C108.728 49.284 108.985 49.0507 109.246 48.836C109.517 48.6213 109.774 48.4347 110.016 48.276H111.038V48.458C110.87 48.6353 110.67 48.8453 110.436 49.088C110.212 49.3307 109.993 49.578 109.778 49.83C109.573 50.0727 109.41 50.3013 109.288 50.516H107.692Z" fill="#664A33"/>
<path d="M166.032 40.95V41.146C165.668 45.892 165.262 47.81 164.73 48.3C164.562 48.482 164.394 48.51 164.086 48.51C163.736 48.51 162.896 48.496 162 48.412C162.21 48.706 162.322 49.154 162.35 49.476C163.19 49.532 164.016 49.532 164.464 49.504C164.982 49.462 165.318 49.35 165.654 48.986C166.284 48.314 166.676 46.438 167.068 41.482C167.096 41.328 167.124 40.95 167.124 40.95H166.032ZM157.506 42.112C157.646 42 158.15 41.944 158.962 41.944H166.522L166.536 40.95H158.164L157.506 41.258V42.112ZM157.506 42.112C157.506 41.86 158.318 41.482 158.318 41.482V41.468C158.71 40.544 159.158 39.158 159.368 37.898L158.29 37.576C158.178 38.794 157.73 40.11 157.604 40.46C157.464 40.81 157.324 41.048 157.142 41.104C157.282 41.37 157.45 41.874 157.506 42.112ZM162.182 37.52C161.65 43.316 160.404 46.9 156.274 48.874C156.498 49.084 156.876 49.546 157.016 49.77C161.23 47.516 162.63 43.792 163.26 37.618L162.182 37.52ZM156.638 53.106V54.24H167.208V53.106H156.638ZM157.772 63.758C157.912 63.646 158.402 63.59 159.2 63.59H166.592V62.568H158.416L157.772 62.89V63.758ZM166.172 62.568V62.848C165.822 64.626 164.926 67.104 164.226 68.294C164.478 68.434 164.87 68.686 165.066 68.868C165.878 67.496 166.83 65.074 167.306 62.918L166.55 62.526L166.34 62.568H166.172ZM157.772 63.758C157.772 63.52 158.542 63.142 158.542 63.142V63.128C159.13 62.106 159.788 60.566 160.166 59.152L159.074 58.816C158.794 60.188 158.178 61.63 157.968 62.008C157.786 62.386 157.604 62.68 157.408 62.722C157.534 63.002 157.702 63.52 157.772 63.758ZM156.918 57.528V58.536H165.584V57.528H156.918ZM165.262 57.528V57.654C164.954 58.844 164.31 61.196 163.736 62.862L164.786 63.044C165.346 61.364 165.99 59.166 166.368 57.626L165.57 57.472L165.388 57.528H165.262Z" fill="#664A33"/>
<path d="M221.76 39.766V40.802H233.268V39.766H221.76ZM226.94 40.396V50.728H228.06V40.396H226.94ZM222.138 54.106V55.24H232.708V54.106H222.138ZM223.272 64.758C223.412 64.646 223.902 64.59 224.7 64.59H232.092V63.568H223.916L223.272 63.89V64.758ZM231.672 63.568V63.848C231.322 65.626 230.426 68.104 229.726 69.294C229.978 69.434 230.37 69.686 230.566 69.868C231.378 68.496 232.33 66.074 232.806 63.918L232.05 63.526L231.84 63.568H231.672ZM223.272 64.758C223.272 64.52 224.042 64.142 224.042 64.142V64.128C224.63 63.106 225.288 61.566 225.666 60.152L224.574 59.816C224.294 61.188 223.678 62.63 223.468 63.008C223.286 63.386 223.104 63.68 222.908 63.722C223.034 64.002 223.202 64.52 223.272 64.758ZM222.418 58.528V59.536H231.084V58.528H222.418ZM230.762 58.528V58.654C230.454 59.844 229.81 62.196 229.236 63.862L230.286 64.044C230.846 62.364 231.49 60.166 231.868 58.626L231.07 58.472L230.888 58.528H230.762Z" fill="#664A33"/>
<path d="M237.649 53.276C237.761 53.4813 237.901 53.7147 238.069 53.976C238.237 54.228 238.41 54.4753 238.587 54.718C238.774 54.9607 238.937 55.1707 239.077 55.348V55.516H238.083C237.925 55.3853 237.738 55.2313 237.523 55.054C237.318 54.8673 237.108 54.676 236.893 54.48C236.688 54.2747 236.497 54.0787 236.319 53.892C236.151 53.7053 236.021 53.5467 235.927 53.416V53.276H237.649Z" fill="#664A33"/>
<path d="M175.077 51.416C174.975 51.5467 174.835 51.7053 174.657 51.892C174.489 52.0787 174.298 52.2747 174.083 52.48C173.878 52.676 173.673 52.8673 173.467 53.054C173.262 53.2313 173.075 53.3853 172.907 53.516H171.927V53.348C172.067 53.1707 172.226 52.9607 172.403 52.718C172.581 52.4753 172.753 52.228 172.921 51.976C173.089 51.7147 173.229 51.4813 173.341 51.276H175.077V51.416Z" fill="#664A33"/>
</svg>
