<svg width="228" height="61" viewBox="0 0 228 61" fill="none" xmlns="http://www.w3.org/2000/svg">
<path d="M228 31C228 19.402 218.598 10 207 10H60C48.402 10 39 19.402 39 31C39 42.598 48.402 52 60 52H207C218.598 52 228 42.598 228 31Z" fill="#C4C4C4"/>
<rect width="53" height="54" rx="26.5" transform="matrix(-1 0 0 1 228 6)" fill="#FC9861"/>
<path d="M204.811 32.888L211.137 26.5796C211.824 25.8924 211.824 24.7823 211.137 24.0775L203.577 16.5181C202.467 15.408 200.564 16.2009 200.564 17.7692V28.6589L193.709 21.7867C193.022 21.0995 191.912 21.0995 191.225 21.7867C190.538 22.474 190.538 23.5841 191.225 24.2713L199.842 32.888L191.225 41.5046C190.538 42.1918 190.538 43.3019 191.225 43.9892C191.912 44.6764 193.022 44.6764 193.709 43.9892L200.564 37.1346V48.0244C200.564 49.5926 202.467 50.3856 203.577 49.2755L211.154 41.6984C211.841 41.0112 211.841 39.9011 211.154 39.1963L204.811 32.888ZM204.088 22.0158L207.401 25.3286L204.088 28.6413V22.0158ZM204.088 43.7601V37.1346L207.401 40.4474L204.088 43.7601Z" fill="white"/>
<path d="M69.836 31.48V29.728H60.188V25.6H68.18V23.848H60.188V19.936H58.34V23.848H50.588V25.6H58.34V29.728H48.86V31.48H57.332C55.172 34.576 51.548 37.552 48.212 39.04C48.62 39.376 49.196 40.072 49.508 40.504C52.652 38.92 56.012 36.064 58.34 32.872V41.848H60.188V32.776C62.516 35.968 65.924 38.944 69.092 40.504C69.404 40.048 69.98 39.352 70.388 39.016C67.052 37.552 63.404 34.552 61.22 31.48H69.836ZM100.58 31.6V29.68H104.252V31.6H100.58ZM100.58 26.512H104.252V28.432H100.58V26.512ZM109.82 26.512V28.432H105.98V26.512H109.82ZM109.82 31.6H105.98V29.68H109.82V31.6ZM104.252 38.872H105.98V36.136H113.132V34.624H105.98V32.944H111.524V25.192H105.98V23.56H112.772V22.048H105.98V19.936H104.252V22.048H97.796V23.56H104.252V25.192H98.948V32.944H104.252V34.624H97.436V36.136H104.252V38.872ZM97.148 24.424C96.404 23.248 94.748 21.616 93.284 20.512L91.916 21.52C93.38 22.672 94.988 24.328 95.708 25.528L97.148 24.424ZM96.428 29.32H91.7V31H94.748V37.144C93.668 38.152 92.444 39.16 91.436 39.904L92.372 41.608C93.548 40.576 94.652 39.568 95.708 38.536C97.196 40.408 99.356 41.248 102.5 41.368C105.188 41.488 110.252 41.44 112.94 41.32C113.012 40.792 113.3 39.976 113.516 39.568C110.636 39.76 105.116 39.832 102.476 39.712C99.668 39.616 97.556 38.8 96.428 37.024V29.32ZM135.908 33.52C135.644 35.608 135.188 37.768 134.444 39.232C134.78 39.352 135.5 39.664 135.764 39.88C136.532 38.344 137.084 36.04 137.42 33.784L135.908 33.52ZM141.908 31.6C142.148 32.152 142.316 32.68 142.412 33.136L143.828 32.488C143.468 31.168 142.508 29.104 141.5 27.568L140.204 28.096C140.588 28.72 140.948 29.416 141.284 30.112L137.828 30.28C139.46 28.24 141.26 25.528 142.628 23.344L141.14 22.648C140.468 23.944 139.556 25.504 138.572 26.992C138.212 26.512 137.78 25.984 137.276 25.456C138.188 24.112 139.22 22.168 140.036 20.512L138.476 19.936C137.972 21.256 137.132 23.08 136.34 24.448C136.1 24.208 135.86 23.992 135.62 23.776L134.66 24.904C135.74 25.936 136.94 27.304 137.636 28.384C137.132 29.104 136.628 29.776 136.148 30.376L134.492 30.448L134.66 32.056L138.428 31.816V41.824H140.012V31.72L141.908 31.6ZM140.828 33.856C141.428 35.224 141.908 37 142.028 38.152L143.42 37.72C143.252 36.568 142.748 34.816 142.148 33.472L140.828 33.856ZM147.548 32.824L147.284 32.848H143.372V34.384H146.612C145.796 36.832 144.236 38.632 142.316 39.64C142.652 39.88 143.204 40.48 143.444 40.864C145.796 39.496 147.692 37 148.532 33.208L147.548 32.824ZM145.892 27.256H153.956V29.344H145.892V27.256ZM145.892 23.824H153.956V25.888H145.892V23.824ZM155.06 31.84C154.316 32.68 153.14 33.832 152.084 34.696C151.46 33.544 151.004 32.296 150.716 31.12V30.808H155.66V22.384H150.02C150.38 21.736 150.788 20.992 151.124 20.272L149.156 19.888C148.94 20.608 148.58 21.568 148.196 22.384H144.26V30.808H149.084V39.928C149.084 40.192 149.012 40.264 148.7 40.264C148.436 40.288 147.452 40.288 146.396 40.264C146.612 40.696 146.828 41.368 146.876 41.8C148.388 41.8 149.324 41.776 149.924 41.536C150.548 41.272 150.716 40.816 150.716 39.928V35.032C151.724 37.288 153.38 39.52 155.948 40.84C156.188 40.384 156.716 39.736 157.028 39.4C155.18 38.608 153.812 37.336 152.804 35.896C153.98 35.08 155.372 33.928 156.5 32.896L155.06 31.84Z" fill="white"/>
<path d="M81.29 29.61C80.66 28.66 79.63 27.48 78.48 26.28C79.36 25.11 80.12 23.82 80.76 22.41L80 22.17C79.44 23.45 78.74 24.64 77.93 25.72C76.95 24.72 75.91 23.74 74.96 22.9L74.39 23.4C75.37 24.28 76.43 25.32 77.42 26.36C76.33 27.68 75.06 28.78 73.65 29.6C73.82 29.76 74.11 30.08 74.22 30.25C75.6 29.38 76.85 28.26 77.96 26.93C79.06 28.13 80.03 29.31 80.62 30.24L81.29 29.61ZM76.25 34.6C75.53 35.08 74.41 35.67 73.48 36C73.62 36.23 73.77 36.5 73.88 36.76C74.72 36.36 75.55 35.91 76.23 35.48C77.27 38.76 78.84 40.68 80.85 42C81.04 41.83 81.32 41.54 81.54 41.4C79.26 39.99 77.79 38.14 76.84 34.79L76.25 34.6Z" fill="white"/>
<path d="M122.07 23.24C122.21 22.51 122.31 21.72 122.4 20.86L121.64 20.8C121.56 21.68 121.45 22.5 121.31 23.24H119.03C119.27 22.61 119.51 21.81 119.63 21.07L118.86 20.84C118.77 21.71 118.45 22.65 118.37 22.89C118.27 23.15 118.17 23.32 118.04 23.35C118.13 23.55 118.25 23.91 118.3 24.07V24.08C118.39 24 118.76 23.96 119.33 23.96H121.15C120.58 26.3 119.52 27.9 117.42 28.91C117.58 29.06 117.85 29.38 117.94 29.54C120.18 28.35 121.3 26.59 121.92 23.96H124.34C124.1 26.93 123.82 28.17 123.46 28.5C123.33 28.62 123.21 28.64 122.99 28.64C122.74 28.64 122.14 28.63 121.51 28.57C121.65 28.78 121.74 29.11 121.76 29.33C122.35 29.37 122.94 29.38 123.26 29.36C123.64 29.33 123.87 29.25 124.11 28.98C124.57 28.51 124.84 27.17 125.13 23.62C125.15 23.51 125.16 23.24 125.16 23.24H122.07ZM117.67 31.78V32.59H125.23V31.78H117.67ZM124.75 39.08L124.61 39.12H123.6C123.97 37.97 124.38 36.58 124.63 35.59L124.06 35.47L123.93 35.51H117.87V36.23H123.67C123.45 37.07 123.12 38.21 122.82 39.12H119.24C119.61 38.42 119.97 37.51 120.2 36.67L119.41 36.44C119.21 37.41 118.77 38.44 118.63 38.71C118.5 38.99 118.36 39.19 118.22 39.22C118.31 39.43 118.44 39.79 118.48 39.96C118.58 39.88 118.94 39.84 119.51 39.84H124.36C124.07 41.04 123.53 42.46 123.09 43.2C123.28 43.3 123.55 43.49 123.69 43.61C124.28 42.64 124.95 40.9 125.29 39.36L124.75 39.08Z" fill="white"/>
<path d="M167.63 20.68H159.41V21.43H163.1V28.51H163.91V21.43H167.63V20.68ZM159.67 30.78V31.59H167.23V30.78H159.67ZM166.75 38.08L166.61 38.12H165.6C165.97 36.97 166.38 35.58 166.63 34.59L166.06 34.47L165.93 34.51H159.87V35.23H165.67C165.45 36.07 165.12 37.21 164.82 38.12H161.24C161.61 37.42 161.97 36.51 162.2 35.67L161.41 35.44C161.21 36.41 160.77 37.44 160.63 37.71C160.5 37.99 160.36 38.19 160.22 38.22C160.31 38.43 160.44 38.79 160.48 38.96C160.58 38.88 160.94 38.84 161.51 38.84H166.36C166.07 40.04 165.53 41.46 165.09 42.2C165.28 42.3 165.55 42.49 165.69 42.61C166.28 41.64 166.95 39.9 167.29 38.36L166.75 38.08Z" fill="white"/>
<path d="M84.6066 33.34C84.6866 33.4867 84.7866 33.6533 84.9066 33.84C85.0266 34.02 85.1499 34.1967 85.2766 34.37C85.4032 34.5433 85.5199 34.6933 85.6266 34.82V34.94H84.9166C84.7566 34.82 84.5732 34.6667 84.3666 34.48C84.1666 34.2933 83.9732 34.1033 83.7866 33.91C83.6066 33.7167 83.4699 33.56 83.3766 33.44V33.34H84.6066Z" fill="white"/>
<path d="M129.627 30.44C129.527 30.56 129.387 30.7167 129.207 30.91C129.027 31.1033 128.833 31.2933 128.627 31.48C128.42 31.6667 128.237 31.82 128.077 31.94H127.377V31.82C127.477 31.6933 127.59 31.5433 127.717 31.37C127.843 31.1967 127.967 31.02 128.087 30.84C128.207 30.6533 128.307 30.4867 128.387 30.34H129.627V30.44Z" fill="white"/>
<path d="M170.607 30.34C170.687 30.4867 170.787 30.6533 170.907 30.84C171.027 31.02 171.15 31.1967 171.277 31.37C171.403 31.5433 171.52 31.6933 171.627 31.82V31.94H170.917C170.757 31.82 170.573 31.6667 170.367 31.48C170.167 31.2933 169.973 31.1033 169.787 30.91C169.607 30.7167 169.47 30.56 169.377 30.44V30.34H170.607Z" fill="white"/>
</svg>
