<svg width="221" height="61" viewBox="0 0 221 61" fill="none" xmlns="http://www.w3.org/2000/svg">
<rect width="221" height="43" rx="21.5" transform="matrix(-1 0 0 1 221 9)" fill="#C4C4C4"/>
<rect width="53" height="54" rx="26.5" transform="matrix(-1 0 0 1 221 5)" fill="#FC9861"/>
<path d="M197.811 31.888L204.137 25.5796C204.824 24.8924 204.824 23.7823 204.137 23.0775L196.577 15.5181C195.467 14.408 193.564 15.2009 193.564 16.7692V27.6589L186.709 20.7867C186.022 20.0995 184.912 20.0995 184.225 20.7867C183.538 21.474 183.538 22.5841 184.225 23.2713L192.842 31.888L184.225 40.5046C183.538 41.1918 183.538 42.3019 184.225 42.9892C184.912 43.6764 186.022 43.6764 186.709 42.9892L193.564 36.1346V47.0244C193.564 48.5926 195.467 49.3856 196.577 48.2755L204.154 40.6984C204.841 40.0112 204.841 38.9011 204.154 38.1963L197.811 31.888ZM197.088 21.0158L200.401 24.3286L197.088 27.6413V21.0158ZM197.088 42.7601V36.1346L200.401 39.4474L197.088 42.7601Z" fill="white"/>
<path d="M24.48 31.6V29.68H28.152V31.6H24.48ZM24.48 26.512H28.152V28.432H24.48V26.512ZM33.72 26.512V28.432H29.88V26.512H33.72ZM33.72 31.6H29.88V29.68H33.72V31.6ZM28.152 38.872H29.88V36.136H37.032V34.624H29.88V32.944H35.424V25.192H29.88V23.56H36.672V22.048H29.88V19.936H28.152V22.048H21.696V23.56H28.152V25.192H22.848V32.944H28.152V34.624H21.336V36.136H28.152V38.872ZM21.048 24.424C20.304 23.248 18.648 21.616 17.184 20.512L15.816 21.52C17.28 22.672 18.888 24.328 19.608 25.528L21.048 24.424ZM20.328 29.32H15.6V31H18.648V37.144C17.568 38.152 16.344 39.16 15.336 39.904L16.272 41.608C17.448 40.576 18.552 39.568 19.608 38.536C21.096 40.408 23.256 41.248 26.4 41.368C29.088 41.488 34.152 41.44 36.84 41.32C36.912 40.792 37.2 39.976 37.416 39.568C34.536 39.76 29.016 39.832 26.376 39.712C23.568 39.616 21.456 38.8 20.328 37.024V29.32ZM55.008 33.52C54.744 35.608 54.288 37.768 53.544 39.232C53.88 39.352 54.6 39.664 54.864 39.88C55.632 38.344 56.184 36.04 56.52 33.784L55.008 33.52ZM61.008 31.6C61.248 32.152 61.416 32.68 61.512 33.136L62.928 32.488C62.568 31.168 61.608 29.104 60.6 27.568L59.304 28.096C59.688 28.72 60.048 29.416 60.384 30.112L56.928 30.28C58.56 28.24 60.36 25.528 61.728 23.344L60.24 22.648C59.568 23.944 58.656 25.504 57.672 26.992C57.312 26.512 56.88 25.984 56.376 25.456C57.288 24.112 58.32 22.168 59.136 20.512L57.576 19.936C57.072 21.256 56.232 23.08 55.44 24.448C55.2 24.208 54.96 23.992 54.72 23.776L53.76 24.904C54.84 25.936 56.04 27.304 56.736 28.384C56.232 29.104 55.728 29.776 55.248 30.376L53.592 30.448L53.76 32.056L57.528 31.816V41.824H59.112V31.72L61.008 31.6ZM59.928 33.856C60.528 35.224 61.008 37 61.128 38.152L62.52 37.72C62.352 36.568 61.848 34.816 61.248 33.472L59.928 33.856ZM66.648 32.824L66.384 32.848H62.472V34.384H65.712C64.896 36.832 63.336 38.632 61.416 39.64C61.752 39.88 62.304 40.48 62.544 40.864C64.896 39.496 66.792 37 67.632 33.208L66.648 32.824ZM64.992 27.256H73.056V29.344H64.992V27.256ZM64.992 23.824H73.056V25.888H64.992V23.824ZM74.16 31.84C73.416 32.68 72.24 33.832 71.184 34.696C70.56 33.544 70.104 32.296 69.816 31.12V30.808H74.76V22.384H69.12C69.48 21.736 69.888 20.992 70.224 20.272L68.256 19.888C68.04 20.608 67.68 21.568 67.296 22.384H63.36V30.808H68.184V39.928C68.184 40.192 68.112 40.264 67.8 40.264C67.536 40.288 66.552 40.288 65.496 40.264C65.712 40.696 65.928 41.368 65.976 41.8C67.488 41.8 68.424 41.776 69.024 41.536C69.648 41.272 69.816 40.816 69.816 39.928V35.032C70.824 37.288 72.48 39.52 75.048 40.84C75.288 40.384 75.816 39.736 76.128 39.4C74.28 38.608 72.912 37.336 71.904 35.896C73.08 35.08 74.472 33.928 75.6 32.896L74.16 31.84ZM113.856 32.416V30.64H103.8C103.944 29.536 103.992 28.432 103.992 27.328V25.888H111.816V24.112H103.992V19.936H102.168V24.112H97.584C98.064 23.008 98.448 21.856 98.784 20.68L96.912 20.272C96.048 23.512 94.56 26.68 92.712 28.72C93.192 28.912 94.056 29.368 94.44 29.656C95.28 28.624 96.072 27.328 96.792 25.888H102.168V27.328C102.168 28.432 102.12 29.536 101.928 30.64H92.568V32.416H101.52C100.512 35.512 98.064 38.368 92.28 40.312C92.664 40.672 93.216 41.416 93.384 41.848C99.504 39.736 102.144 36.592 103.248 33.16C105.096 37.624 108.24 40.528 113.208 41.824C113.496 41.32 114 40.576 114.408 40.192C109.536 39.112 106.392 36.448 104.736 32.416H113.856ZM133.416 36.136C132.792 37.912 131.736 39.664 130.488 40.816C130.872 41.08 131.592 41.584 131.904 41.872C133.152 40.576 134.4 38.56 135.12 36.568L133.416 36.136ZM136.8 36.808C137.712 37.936 138.72 39.472 139.176 40.504L140.688 39.712C140.208 38.728 139.2 37.216 138.24 36.112L136.8 36.808ZM144.048 26.032H148.872C148.392 29.056 147.648 31.648 146.544 33.808C145.392 31.552 144.576 28.912 144.024 26.056L144.048 26.032ZM138.456 25.312H133.488V22.336H138.456V25.312ZM138.456 29.752H133.488V26.704H138.456V29.752ZM138.456 34.192H133.488V31.12H138.456V34.192ZM152.568 26.032V24.328H144.624C145.056 23.008 145.416 21.64 145.704 20.224L143.856 19.912C143.16 23.584 141.96 27.088 140.184 29.512V20.848H131.808V35.68H140.184V30.616C140.544 30.904 140.928 31.216 141.12 31.408C141.768 30.592 142.368 29.656 142.896 28.624C143.544 31.216 144.36 33.592 145.464 35.608C144.12 37.576 142.344 39.112 139.992 40.264C140.352 40.648 140.88 41.464 141.048 41.872C143.328 40.672 145.104 39.16 146.496 37.288C147.84 39.232 149.52 40.792 151.584 41.848C151.872 41.368 152.448 40.648 152.832 40.312C150.672 39.304 148.944 37.696 147.6 35.632C149.112 33.04 150.072 29.872 150.72 26.032H152.568Z" fill="white"/>
<path d="M44.116 22.288C44.22 21.728 44.3 21.12 44.356 20.472L43.38 20.392C43.324 21.08 43.244 21.712 43.14 22.288H41.748C41.916 21.808 42.084 21.216 42.164 20.688L41.204 20.424C41.14 21.12 40.916 21.856 40.844 22.048C40.764 22.256 40.668 22.392 40.556 22.432C40.66 22.672 40.812 23.104 40.876 23.304V23.312C40.948 23.232 41.34 23.184 41.748 23.184H42.932C42.46 24.832 41.612 25.96 40.004 26.64C40.196 26.84 40.532 27.272 40.644 27.48C42.444 26.592 43.404 25.208 43.924 23.184H45.484C45.324 25.168 45.116 26.08 44.86 26.312C44.748 26.424 44.652 26.44 44.492 26.44C44.276 26.44 43.812 26.432 43.332 26.392C43.516 26.664 43.636 27.08 43.66 27.368C44.132 27.392 44.604 27.392 44.884 27.352C45.228 27.312 45.46 27.232 45.7 26.952C46.076 26.552 46.292 25.456 46.508 22.72C46.524 22.592 46.54 22.288 46.54 22.288H44.116ZM40.412 30.448V31.496H46.556V30.448H40.412ZM45.98 37.736L45.796 37.784H45.316C45.596 36.888 45.9 35.864 46.084 35.024L45.34 34.888L45.18 34.928H40.58V35.832H44.86C44.708 36.432 44.5 37.152 44.308 37.784H42.004C42.236 37.304 42.468 36.72 42.604 36.2L41.596 35.928C41.476 36.624 41.188 37.344 41.092 37.536C40.996 37.736 40.884 37.872 40.756 37.912C40.876 38.16 41.028 38.608 41.092 38.816C41.164 38.736 41.54 38.696 41.94 38.696H45.46C45.204 39.568 44.804 40.512 44.452 41.056C44.692 41.176 45.036 41.4 45.228 41.544C45.788 40.72 46.38 39.416 46.684 38.112L45.98 37.736Z" fill="white"/>
<path d="M85.82 21H79.188V21.944H81.98V27.384H83.028V21.944H85.82V21ZM79.412 30.448V31.496H85.556V30.448H79.412ZM84.98 37.736L84.796 37.784H84.316C84.596 36.888 84.9 35.864 85.084 35.024L84.34 34.888L84.18 34.928H79.58V35.832H83.86C83.708 36.432 83.5 37.152 83.308 37.784H81.004C81.236 37.304 81.468 36.72 81.604 36.2L80.596 35.928C80.476 36.624 80.188 37.344 80.092 37.536C79.996 37.736 79.884 37.872 79.756 37.912C79.876 38.16 80.028 38.608 80.092 38.816C80.164 38.736 80.54 38.696 80.94 38.696H84.46C84.204 39.568 83.804 40.512 83.452 41.056C83.692 41.176 84.036 41.4 84.228 41.544C84.788 40.72 85.38 39.416 85.684 38.112L84.98 37.736Z" fill="white"/>
<path d="M123.556 28.84H117.66V29.768H122.58V31.152H117.964V32.056C117.964 32.856 117.828 34.192 116.684 35.04C116.924 35.168 117.308 35.472 117.484 35.648C118.772 34.68 118.964 33.08 118.964 32.088H123.556V28.84Z" fill="white"/>
<path opacity="0.94" d="M156.964 24.272C157.172 23.784 157.372 23.192 157.476 22.664L156.452 22.392C156.364 23.096 156.124 23.824 156.044 24.024C155.956 24.232 155.852 24.36 155.732 24.408C155.844 24.664 156.012 25.112 156.068 25.32C156.14 25.24 156.524 25.2 156.908 25.2H160.14C159.956 27.104 159.732 28.064 159.444 28.304C159.324 28.4 159.204 28.416 159.012 28.416C158.764 28.416 158.18 28.408 157.588 28.36C157.788 28.648 157.94 29.08 157.948 29.368C158.5 29.392 159.052 29.4 159.372 29.36C159.78 29.32 160.044 29.24 160.308 28.944C160.724 28.52 160.964 27.4 161.204 24.72C161.212 24.592 161.236 24.272 161.236 24.272H156.964ZM161.756 35.712V34.768H155.268V35.712H158.332C158.26 36.376 158.156 36.976 157.996 37.504H156.564C156.748 37.08 156.924 36.584 157.02 36.12L156.092 35.88C155.988 36.52 155.724 37.168 155.652 37.344C155.564 37.528 155.452 37.656 155.348 37.688C155.444 37.928 155.596 38.336 155.652 38.528C155.724 38.448 156.116 38.408 156.524 38.408H157.652C157.156 39.448 156.356 40.16 155.092 40.624C155.3 40.816 155.636 41.224 155.748 41.416C157.228 40.776 158.132 39.808 158.684 38.408H160.372C160.212 39.36 159.956 40.408 159.612 41.112L160.532 41.44C161.044 40.424 161.372 39.048 161.58 37.84L161.628 37.68L160.764 37.376L160.572 37.504H158.972C159.116 36.96 159.22 36.368 159.3 35.712H161.756Z" fill="white"/>
<path d="M51.1268 29.952C51.0521 30.0267 50.9534 30.1173 50.8308 30.224C50.7081 30.3307 50.5748 30.4427 50.4308 30.56C50.2921 30.6773 50.1534 30.7893 50.0148 30.896C49.8814 30.9973 49.7641 31.0827 49.6628 31.152H48.8708V31.048C48.9561 30.9467 49.0548 30.8293 49.1668 30.696C49.2841 30.5573 49.3988 30.416 49.5108 30.272C49.6228 30.1227 49.7161 29.9893 49.7908 29.872H51.1268V29.952Z" fill="white"/>
<path d="M89.2068 29.872C89.2868 29.9893 89.3801 30.1227 89.4868 30.272C89.5988 30.416 89.7108 30.5573 89.8228 30.696C89.9401 30.8293 90.0414 30.9467 90.1268 31.048V31.152H89.3348C89.2334 31.0827 89.1134 30.9973 88.9748 30.896C88.8414 30.7893 88.7028 30.6773 88.5588 30.56C88.4201 30.4427 88.2894 30.3307 88.1668 30.224C88.0441 30.1173 87.9454 30.0267 87.8708 29.952V29.872H89.2068Z" fill="white"/>
<path d="M164.207 30.872C164.287 30.9893 164.38 31.1227 164.487 31.272C164.599 31.416 164.711 31.5573 164.823 31.696C164.94 31.8293 165.041 31.9467 165.127 32.048V32.152H164.335C164.233 32.0827 164.113 31.9973 163.975 31.896C163.841 31.7893 163.703 31.6773 163.559 31.56C163.42 31.4427 163.289 31.3307 163.167 31.224C163.044 31.1173 162.945 31.0267 162.871 30.952V30.872H164.207Z" fill="white"/>
</svg>
