<svg width="1241" height="173" viewBox="0 0 1241 173" fill="none" xmlns="http://www.w3.org/2000/svg">
<rect width="1241" height="173" rx="86.5" fill="white" fill-opacity="0.8"/>
<path d="M206.682 77.3874V83.0194H224.41V77.3874H206.682ZM206.682 87.8834V93.3234H224.41V87.8834H206.682ZM206.682 98.5714V104.267H224.41V98.5714H206.682ZM234.394 91.3394V97.8034H258.522V91.3394H234.394ZM209.818 66.8914V72.6514H219.93V66.8914H209.818ZM229.594 64.2034V70.4754H253.338V64.2034H229.594ZM229.594 103.563V110.219H259.738V103.563H229.594ZM241.562 85.5794V120.843H248.858V85.5794H241.562ZM213.594 80.3314V100.683H218.714V80.3314H213.594ZM251.29 64.2034V65.0994C251.034 74.3794 250.65 77.8354 249.946 78.6674C249.498 79.2434 248.986 79.3714 248.154 79.3714C247.322 79.3714 245.658 79.3074 243.61 79.1154C244.57 80.7794 245.21 83.3394 245.338 85.2594C247.898 85.3874 250.394 85.3234 251.802 85.1314C253.466 84.8754 254.682 84.3634 255.706 83.0194C257.114 81.3554 257.69 76.9394 258.01 66.6354C258.074 65.8034 258.138 64.2034 258.138 64.2034H251.29ZM233.114 86.0274C232.218 91.1474 230.49 96.3954 227.994 99.7874C229.53 100.491 232.346 101.899 233.626 102.795C236.122 99.0194 238.234 93.1314 239.386 87.2434L233.114 86.0274ZM208.282 60.8754C206.554 68.4914 203.162 75.9794 198.81 80.7154C200.346 81.7394 203.098 84.0434 204.25 85.2594C208.858 79.8194 212.826 71.1794 215.13 62.3474L208.282 60.8754ZM203.866 77.3874V94.3474C203.866 101.579 203.482 111.115 199.13 117.771C200.602 118.411 203.354 120.139 204.506 121.163C209.178 113.931 210.01 102.539 210.01 94.3474V77.3874H203.866ZM222.362 77.3874V113.547C222.362 114.315 222.042 114.571 221.274 114.571C220.506 114.635 217.946 114.635 215.45 114.507C216.346 116.235 217.37 119.179 217.626 120.971C221.53 120.971 224.154 120.843 226.138 119.755C228.058 118.603 228.634 116.683 228.634 113.675V77.3874H222.362ZM237.274 66.3154C236.634 73.2274 235.29 78.6674 227.61 81.8034C229.146 82.9554 230.874 85.4514 231.642 87.0514C241.178 82.8274 243.354 75.6594 244.122 66.3154H237.274ZM218.138 66.8914V68.0434C217.37 71.0514 215.77 75.7874 214.362 78.7314C215.706 79.4354 217.818 80.7154 219.034 81.6114C221.018 78.4114 223.514 73.3554 224.922 69.3234L220.57 66.5714L219.61 66.8914H218.138ZM362.458 90.3154H377.242V93.5794H362.458V90.3154ZM362.458 98.7634H377.242V102.091H362.458V98.7634ZM362.458 81.8034H377.242V85.0674H362.458V81.8034ZM355.546 76.2354V107.659H384.538V76.2354H355.546ZM366.17 60.9394V80.2674H373.21V60.9394H366.17ZM353.05 64.7794C355.034 68.1074 357.018 72.5874 357.722 75.4034L364.122 72.7154C363.29 69.8994 361.114 65.6114 359.13 62.4114L353.05 64.7794ZM379.674 62.2194C378.714 65.4834 376.73 70.0914 375.194 72.9714L381.274 75.2754C382.938 72.5874 384.986 68.6194 386.842 64.7154L379.674 62.2194ZM371.802 111.499C375.322 114.315 379.61 118.283 381.786 120.971L388.378 117.195C385.882 114.507 381.21 110.539 377.114 107.595L371.802 111.499ZM362.074 107.339C359.322 110.283 353.818 113.995 349.274 115.979C350.746 117.387 352.794 119.691 353.882 121.163C358.682 118.923 364.506 115.147 368.154 111.563L362.074 107.339ZM331.994 76.8754V83.2754H351.194V76.8754H331.994ZM328.922 87.9474V94.4754H352.282V87.9474H328.922ZM329.562 98.0594C330.522 101.643 331.418 106.251 331.546 109.323L336.73 107.979C336.41 104.907 335.514 100.427 334.426 96.8434L329.562 98.0594ZM328.218 112.715L329.69 119.691C336.41 118.347 345.242 116.555 353.498 114.763L352.986 108.427C344.026 110.091 334.49 111.819 328.218 112.715ZM347.29 96.3314C346.842 99.4034 345.882 103.883 345.05 106.763L349.658 108.043C350.618 105.355 351.642 101.323 352.794 97.6754L347.29 96.3314ZM337.69 79.4354V115.083L344.282 113.931V79.4354H337.69ZM337.37 60.9394C335.386 65.9314 331.61 71.9474 326.234 76.5554C327.642 77.5794 329.818 80.0114 330.842 81.5474C337.178 75.7874 341.082 69.1954 343.578 64.3314V62.3474H341.402V60.9394H337.37ZM338.33 60.9394V66.3794H339.674C343.194 69.2594 347.546 74.6354 349.53 77.8994L354.458 72.0114C352.154 68.6834 347.418 64.1394 343.706 60.9394H338.33ZM463.898 61.1954V120.843H470.746V61.1954H463.898ZM455.77 82.2514V89.4194H476.89V82.2514H455.77ZM463.834 86.0914C462.234 92.4274 458.458 101.323 454.746 106.059C455.898 108.235 457.626 111.691 458.266 114.059C462.426 107.915 466.138 96.7154 468.122 88.2034L463.834 86.0914ZM470.874 89.9314L467.354 92.8754C469.338 96.1394 473.05 103.307 474.458 107.083L479.322 101.195C478.106 99.2754 472.538 91.6594 470.874 89.9314ZM455.706 66.1874C457.242 70.7314 458.458 76.8114 458.65 80.7154L463.962 79.4354C463.642 75.4674 462.426 69.5154 460.698 64.9074L455.706 66.1874ZM473.498 64.5874C472.858 69.0674 471.45 75.3394 470.234 79.3074L474.778 80.5874C476.25 76.8754 478.042 70.8594 479.578 65.8674L473.498 64.5874ZM480.346 65.6114V71.1154H513.69V65.6114H480.346ZM481.882 73.6114V78.7954H512.346V73.6114H481.882ZM478.554 81.5474V87.1154H515.354V81.5474H478.554ZM492.762 61.0034V84.6834H500.058V61.0034H492.762ZM481.882 89.7394V121.099H489.05V95.1794H506.202V89.7394H481.882ZM504.474 89.7394V114.059C504.474 114.763 504.218 115.019 503.386 115.019C502.618 115.019 499.93 115.019 497.562 114.891C498.394 116.619 499.226 119.179 499.546 121.035C503.642 121.035 506.65 120.971 508.826 120.011C511.066 118.987 511.642 117.323 511.642 114.123V89.7394H504.474ZM485.914 98.2514V103.243H506.97V98.2514H485.914ZM485.914 106.315V111.307H506.97V106.315H485.914ZM609.626 100.043V117.003H616.986V100.043H609.626ZM588.058 98.7634V103.563H639.194V98.7634H588.058ZM584.41 114.955V119.947H642.778V114.955H584.41ZM597.466 103.499C596.058 107.147 592.538 109.963 588.186 111.819C589.338 112.715 591.194 114.827 591.898 115.915C596.826 113.483 600.922 109.515 602.906 104.459L597.466 103.499ZM624.986 103.435C624.026 107.019 621.466 109.771 617.69 111.563C618.778 112.459 620.634 114.635 621.274 115.723C625.882 113.291 629.082 109.323 630.49 104.203L624.986 103.435ZM596.506 110.475C599.578 111.819 603.482 113.995 605.466 115.595L608.09 111.627C606.106 110.091 602.138 108.107 599.066 106.955L596.506 110.475ZM624.602 110.731C627.93 111.947 632.218 114.059 634.458 115.659L637.018 111.371C634.778 109.899 630.426 107.979 627.098 106.891L624.602 110.731ZM590.234 62.9234V67.4674H637.018V62.9234H590.234ZM593.69 75.4034V78.8594H607.706V75.4034H593.69ZM592.218 80.7154V84.2354H607.642V80.7154H592.218ZM618.906 80.7154V84.2354H634.522V80.7154H618.906ZM618.906 75.4034V78.8594H633.242V75.4034H618.906ZM609.626 64.8434V84.9394H616.986V64.8434H609.626ZM585.37 69.3874V79.5634H591.514V73.4834H635.226V79.5634H641.69V69.3874H585.37ZM593.178 89.9954H597.85V93.3234H593.178V89.9954ZM587.994 86.4754V96.9074H603.354V86.4754H587.994ZM611.098 89.9954H615.898V93.3234H611.098V89.9954ZM605.85 86.4754V96.9074H621.402V86.4754H605.85ZM629.018 89.9954H634.074V93.3234H629.018V89.9954ZM623.834 86.4754V96.9074H639.578V86.4754H623.834ZM721.626 101.003H715.482L713.882 69.5794H723.226L721.626 101.003ZM713.626 111.179C713.626 109.387 714.095 108.129 715.034 107.403C715.972 106.635 717.146 106.251 718.554 106.251C719.876 106.251 721.007 106.614 721.946 107.339C722.927 108.065 723.418 109.345 723.418 111.179C723.418 112.929 722.927 114.187 721.946 114.955C721.007 115.723 719.876 116.107 718.554 116.107C717.146 116.107 715.972 115.723 715.034 114.955C714.095 114.187 713.626 112.929 713.626 111.179ZM799.147 67.0834V74.8914H847.915V67.0834H799.147ZM803.563 87.6914V95.4354H842.795V87.6914H803.563ZM795.499 109.323V117.195H851.307V109.323H795.499ZM931.179 102.475V108.427H972.907V102.475H931.179ZM932.843 92.1714V98.5074H975.787V92.1714H932.843ZM923.307 112.779V119.371H979.947V112.779H923.307ZM947.755 88.2674V117.387H955.755V88.2674H947.755ZM937.003 77.8354H965.419V81.2274H937.003V77.8354ZM937.003 69.0034H965.419V72.3954H937.003V69.0034ZM929.515 63.1794V87.1154H973.419V63.1794H929.515ZM932.779 86.4754C930.475 91.6594 926.251 96.8434 921.835 100.171C923.627 101.259 926.763 103.563 928.235 104.971C932.651 101.067 937.451 94.8594 940.331 88.6514L932.779 86.4754ZM1050.92 63.8834V69.9634H1108.33V63.8834H1050.92ZM1064.94 60.9394V73.8674H1072.43V60.9394H1064.94ZM1086.25 60.9394V73.8674H1093.8V60.9394H1086.25ZM1063.6 80.2674H1095.47V95.8194H1063.6V80.2674ZM1056.56 75.2114V100.875H1102.89V75.2114H1056.56ZM1075.37 70.8594C1074.99 72.7794 1073.96 75.4674 1073.2 77.5154L1079.28 78.7314C1080.36 77.0034 1081.96 74.5714 1083.37 71.8834L1075.37 70.8594ZM1087.15 82.1234V82.9554C1083.76 88.2034 1075.31 91.5954 1066.99 93.0674C1067.88 93.9634 1069.16 95.5634 1069.8 96.5874C1079.15 94.6674 1088.24 90.8274 1092.52 83.6594L1089.07 81.8674L1088.17 82.1234H1087.15ZM1077.93 78.9874C1075.31 82.1874 1070.57 85.5154 1064.17 87.9474C1065.26 88.5874 1066.86 89.9954 1067.63 91.1474C1074.48 88.0114 1079.4 84.2994 1082.92 79.9474L1077.93 78.9874ZM1077.61 82.1234L1074.8 85.5794H1088.04V82.1234H1077.61ZM1065 85.3874C1073.2 88.2034 1083.69 92.9394 1088.88 96.1394L1092.27 92.9394C1086.64 89.6754 1076.14 85.2594 1068.2 82.6354L1065 85.3874ZM1072.81 102.539C1076.08 104.715 1079.98 108.043 1081.71 110.411L1087.08 106.059C1085.16 103.755 1081.13 100.619 1077.8 98.5714L1072.81 102.539ZM1093.04 106.123C1096.94 109.835 1101.23 115.147 1102.96 118.731L1109.48 115.211C1107.44 111.563 1102.96 106.507 1099.05 102.987L1093.04 106.123ZM1065.96 103.051V111.947C1065.96 118.219 1067.88 120.139 1075.88 120.139C1077.48 120.139 1084.4 120.139 1086.06 120.139C1092.08 120.139 1094.06 118.347 1094.96 111.051C1092.91 110.603 1089.9 109.579 1088.36 108.491C1088.11 113.163 1087.66 113.867 1085.36 113.867C1083.69 113.867 1078.06 113.867 1076.78 113.867C1073.9 113.867 1073.32 113.611 1073.32 111.883V103.051H1065.96ZM1057.52 104.267C1056.43 109.003 1053.8 112.907 1049.39 115.211L1055.15 119.371C1060.46 116.491 1062.76 111.691 1064.04 106.123L1057.52 104.267ZM1187.56 101.003H1181.42L1179.82 69.5794H1189.16L1187.56 101.003ZM1179.56 111.179C1179.56 109.387 1180.03 108.129 1180.97 107.403C1181.91 106.635 1183.08 106.251 1184.49 106.251C1185.81 106.251 1186.94 106.614 1187.88 107.339C1188.86 108.065 1189.36 109.345 1189.36 111.179C1189.36 112.929 1188.86 114.187 1187.88 114.955C1186.94 115.723 1185.81 116.107 1184.49 116.107C1183.08 116.107 1181.91 115.723 1180.97 114.955C1180.03 114.187 1179.56 112.929 1179.56 111.179Z" fill="#A0CA77"/>
<g clip-path="url(#clip0_488_10317)">
<path d="M112.295 92.0485C107.042 92.0485 102.745 96.3441 102.745 101.594C102.745 106.845 107.042 111.14 112.295 111.14C117.547 111.14 121.844 106.845 121.844 101.594C121.844 96.3441 117.547 92.0485 112.295 92.0485ZM140.942 68.1837H136.168V58.6377C136.168 45.4644 125.472 34.7729 112.295 34.7729C101.408 34.7729 91.907 42.1233 89.1854 52.6715C88.517 55.2489 90.0449 57.8263 92.6232 58.4946C95.1537 59.1628 97.7797 57.6354 98.4482 55.058C100.072 48.7577 105.753 44.3189 112.295 44.3189C120.173 44.3189 126.618 50.7624 126.618 58.6377V68.1837H83.6469C78.3948 68.1837 74.0977 72.4793 74.0977 77.7296V125.459C74.0977 130.709 78.3948 135.005 83.6469 135.005H140.942C146.194 135.005 150.491 130.709 150.491 125.459V77.7296C150.491 72.4793 146.194 68.1837 140.942 68.1837ZM140.942 120.686C140.942 123.311 138.794 125.459 136.168 125.459H88.4215C85.7955 125.459 83.6469 123.311 83.6469 120.686V82.5025C83.6469 79.8774 85.7955 77.7296 88.4215 77.7296H136.168C138.794 77.7296 140.942 79.8774 140.942 82.5025V120.686Z" fill="#A0CA77"/>
</g>
<defs>
<clipPath id="clip0_488_10317">
<rect width="114.591" height="114.551" fill="white" transform="translate(55 30)"/>
</clipPath>
</defs>
</svg>
