<svg width="562" height="91" viewBox="0 0 562 91" fill="none" xmlns="http://www.w3.org/2000/svg">
<rect width="562" height="91" rx="45.5" fill="white" fill-opacity="0.8"/>
<path d="M134.142 44.73C134.712 45.33 135.312 46.17 135.582 46.77C135.792 46.68 136.002 46.56 136.212 46.47C135.852 48.6 135.132 50.76 134.142 52.32V44.73ZM129.522 52.14V49.65H131.232V52.14H129.522ZM125.472 49.65H127.152V52.14H125.442C125.472 51.45 125.472 50.79 125.472 50.16V49.65ZM128.622 40.08C128.352 40.83 128.082 41.61 127.782 42.27H125.202C125.562 41.58 125.892 40.83 126.222 40.08H128.622ZM129.522 44.88H131.232V47.13H129.522V44.88ZM125.472 44.88H127.152V47.13H125.472V44.88ZM148.662 54.48H143.562V51.78H148.062V48.78H143.562V46.08H140.172V48.78H138.702C138.882 48.15 139.002 47.49 139.122 46.86L136.452 46.32C139.512 44.64 140.652 42.15 141.162 39.03H144.642C144.522 41.52 144.372 42.54 144.102 42.87C143.892 43.14 143.652 43.2 143.292 43.2C142.872 43.2 142.062 43.17 141.132 43.08C141.582 43.83 141.882 45.03 141.942 45.96C143.142 45.99 144.312 45.96 144.972 45.87C145.722 45.75 146.292 45.51 146.802 44.88C147.432 44.1 147.702 42.03 147.852 37.26C147.882 36.87 147.912 36.12 147.912 36.12H134.592V39.03H137.952C137.532 41.22 136.632 42.96 134.142 44.1V42.27H130.782C131.412 41.04 132.012 39.66 132.432 38.49L130.392 37.23L129.942 37.38H127.212C127.452 36.69 127.662 35.97 127.842 35.25L124.692 34.59C123.882 38.1 122.292 41.61 120.252 43.8C120.882 44.22 121.992 45.12 122.592 45.72V50.16C122.592 53.52 122.442 57.99 120.432 61.08C121.092 61.38 122.382 62.19 122.892 62.67C124.272 60.51 124.962 57.6 125.262 54.78H131.232V59.1C131.232 59.49 131.082 59.61 130.722 59.61C130.362 59.61 129.192 59.61 127.992 59.55C128.442 60.36 128.922 61.71 129.012 62.58C130.842 62.58 132.072 62.49 133.002 61.98C133.902 61.47 134.142 60.57 134.142 59.16V52.83C134.892 53.16 135.972 53.73 136.482 54.09C136.932 53.43 137.322 52.65 137.682 51.78H140.172V54.48H134.622V57.54H140.172V62.49H143.562V57.54H148.662V54.48ZM198.912 35.16C198.462 36.72 197.532 38.85 196.782 40.2L199.632 41.28C200.412 40.05 201.372 38.13 202.212 36.36L198.912 35.16ZM191.652 40.11C191.262 38.76 190.212 36.78 189.312 35.28L186.522 36.39C187.392 37.92 188.352 40.02 188.652 41.34L191.652 40.11ZM197.772 45.84H190.872V44.31H197.772V45.84ZM197.772 49.8H190.872V48.27H197.772V49.8ZM197.772 53.76H190.872V52.23H197.772V53.76ZM178.212 42.03C179.412 40.62 180.372 39.21 181.122 37.92C182.382 39.12 183.762 40.8 184.572 42.03H178.212ZM201.162 41.73H195.882V34.59H192.612V41.73H187.632V56.37H190.542C189.642 57.3 188.172 58.38 186.672 59.25L186.462 56.73C185.112 56.97 183.732 57.24 182.412 57.48V50.19H186.132V47.19H182.412V45H185.622V42.03H185.232L187.122 39.75C186.072 38.19 183.882 36.09 182.112 34.62H179.172C178.242 36.93 176.502 39.75 173.982 41.88C174.672 42.33 175.662 43.5 176.112 44.19C176.292 44.01 176.502 43.83 176.682 43.65V45H179.322V47.19H175.242V50.19H179.322V58.02C177.672 58.29 176.172 58.53 174.912 58.71L175.572 61.95C178.332 61.41 181.872 60.72 185.322 59.97C185.112 60.06 184.902 60.15 184.722 60.24C185.412 60.93 186.342 61.95 186.882 62.64C189.102 61.59 191.832 59.85 193.512 58.2L190.902 56.37H201.162V41.73ZM195.222 58.17C196.902 59.46 198.882 61.35 199.872 62.58L202.932 60.81C201.822 59.55 199.602 57.72 197.712 56.37L195.222 58.17ZM175.542 51.9C175.992 53.55 176.412 55.71 176.472 57.15L178.872 56.49C178.722 55.11 178.302 52.98 177.822 51.33L175.542 51.9ZM184.902 56.55C185.352 55.32 185.832 53.4 186.372 51.72L183.792 51.09C183.612 52.5 183.132 54.63 182.742 55.95L184.902 56.55ZM232.662 48.15V47.85H235.512V44.52H232.662V43.23L234.552 43.74C235.272 42.03 236.082 39.24 236.802 36.9L233.982 36.3C233.712 38.1 233.202 40.56 232.662 42.39V34.74H229.482V42.9C229.332 41.07 228.762 38.46 228.012 36.45L225.702 37.05C226.392 39.15 226.992 42 227.052 43.8L229.482 43.23V44.52H225.732V47.85H229.032C228.132 50.58 226.692 53.79 225.222 55.65C225.732 56.67 226.542 58.26 226.872 59.34C227.832 57.96 228.702 56.01 229.482 53.88V62.52H232.662V52.32C233.382 53.67 234.072 55.14 234.432 56.1L236.682 53.34C236.112 52.47 233.502 48.93 232.722 48.09L232.662 48.15ZM241.212 55.77V54.3H248.412V55.77H241.212ZM248.412 50.52V51.99H241.212V50.52H248.412ZM251.772 48H237.912V62.64H241.212V58.08H248.412V59.34C248.412 59.67 248.292 59.79 247.902 59.79C247.542 59.82 246.282 59.82 245.172 59.76C245.562 60.57 245.982 61.74 246.102 62.58C248.022 62.61 249.432 62.55 250.422 62.1C251.472 61.65 251.772 60.87 251.772 59.4V48ZM246.342 44.19V42.9H252.072V40.53H246.342V39.33H252.732V36.78H246.342V34.65H242.982V36.78H237.162V39.33H242.982V40.53H237.882V42.9H242.982V44.19H236.322V46.77H253.482V44.19H246.342ZM280.302 40.47H288.762V45.81H292.152V40.47H300.732V43.26H303.732V38.52H292.152V37.59H301.512V35.52H279.732V37.59H288.762V38.52H277.452V43.26H280.302V40.47ZM287.832 43.8H280.632V45.45H287.832V43.8ZM281.082 48.12H283.242V49.68H281.082V48.12ZM278.682 51.36H285.822V46.5H278.682V51.36ZM287.862 41.31H281.322V42.96H287.862V41.31ZM291.702 49.68H289.422V48.12H291.702V49.68ZM294.252 46.5H286.992V51.36H294.252V46.5ZM300.372 43.8H293.082V45.45H300.372V43.8ZM293.082 41.31V42.96H299.772V41.31H293.082ZM300.162 49.68H297.822V48.12H300.162V49.68ZM302.742 46.5H295.362V51.36H302.742V46.5ZM281.322 59.76C282.132 59.28 282.852 58.74 283.512 58.08C284.562 58.59 285.672 59.22 286.422 59.76H281.322ZM288.762 54.45V59.76H287.022L288.072 58.23C287.322 57.66 286.062 56.97 284.862 56.43C285.162 55.95 285.432 55.44 285.642 54.9L283.272 54.45H288.762ZM292.152 59.76V54.45H295.872C295.422 56.1 294.252 57.36 292.482 58.2C292.902 58.53 293.562 59.22 293.952 59.76H292.152ZM294.822 59.76C295.512 59.31 296.142 58.77 296.682 58.17C297.792 58.65 298.992 59.22 299.832 59.76H294.822ZM300.552 59.76L301.512 58.11C300.702 57.57 299.202 56.88 297.882 56.37C298.122 55.86 298.302 55.32 298.452 54.75L296.322 54.45H302.532V52.23H278.712V54.45H283.122C282.402 56.16 280.782 57.45 278.772 58.32C279.192 58.62 279.762 59.25 280.182 59.76H277.032V62.07H304.182V59.76H300.552ZM332.232 53.31H329.352L328.602 38.58H332.982L332.232 53.31ZM328.482 58.08C328.482 57.24 328.702 56.65 329.142 56.31C329.582 55.95 330.132 55.77 330.792 55.77C331.392 55.77 331.922 55.95 332.382 56.31C332.842 56.65 333.072 57.24 333.072 58.08C333.072 58.9 332.842 59.49 332.382 59.85C331.922 60.21 331.392 60.39 330.792 60.39C330.132 60.39 329.582 60.21 329.142 59.85C328.702 59.49 328.482 58.9 328.482 58.08ZM359.63 37.47V41.07H382.37V37.47H359.63ZM361.7 47.04V50.67H380V47.04H361.7ZM357.95 57.15V60.81H383.99V57.15H357.95ZM415.25 42.45H428.51V44.07H415.25V42.45ZM415.25 38.34H428.51V39.93H415.25V38.34ZM423.95 58.77V56.73H431.99V53.94H423.95V52.11H433.37V49.17H423.95V47.34H420.26V49.17H415.91C416.24 48.6 416.51 48.06 416.78 47.52L414.29 46.8H432.23V35.64H411.74V46.8H413.12C412.04 49.14 410.15 51.42 408.17 52.92C409.01 53.37 410.45 54.48 411.14 55.11C412.07 54.3 413.03 53.25 413.9 52.11H420.26V53.94H412.52V56.73H420.26V58.77H408.83V61.86H435.26V58.77H423.95ZM466.22 40.62H469.7V38.79H476.15V40.62H479.66V38.79H486.41V35.97H479.66V34.62H476.15V35.97H469.7V34.62H466.22V35.97H459.65V38.79H466.22V40.62ZM480.44 50.85H477.56L478.97 49.5C478.22 49.08 477.29 48.6 476.27 48.12C477.41 47.31 478.37 46.35 479.06 45.18L477.47 44.37L477.05 44.46H473.69C473.96 44.16 474.23 43.86 474.5 43.56H480.44V50.85ZM470.03 50.85C471.5 50.46 472.97 49.95 474.26 49.32C475.37 49.86 476.39 50.37 477.17 50.85H470.03ZM465.59 43.56H471.8C471.2 44.16 470.45 44.76 469.58 45.33C468.92 45.12 468.32 44.91 467.72 44.7L466.25 45.99C466.67 46.14 467.12 46.29 467.57 46.47C467.03 46.71 466.43 46.95 465.83 47.19C466.37 47.49 467.09 48.15 467.45 48.66C468.35 48.27 469.19 47.82 469.94 47.37C470.6 47.64 471.26 47.94 471.92 48.21C470.45 48.84 468.8 49.29 467.15 49.56C467.51 49.89 467.93 50.4 468.26 50.85H465.59V43.56ZM471.86 46.08H475.49C475.07 46.47 474.59 46.8 474.08 47.13C473.3 46.8 472.52 46.5 471.74 46.17L471.86 46.08ZM483.89 41.25H473.9C474.2 40.77 474.5 40.23 474.77 39.69L471.11 39.21C470.96 39.81 470.72 40.56 470.48 41.25H462.32V53.19H470.87L469.88 53.97C471.44 55.02 473.24 56.55 474.05 57.66L476.51 55.62C475.91 54.9 474.86 54 473.78 53.19H483.89V41.25ZM461.66 61.8C464.12 60.48 465.2 58.26 465.77 55.65L462.74 54.81C462.26 57 461.03 58.8 458.96 59.88L461.66 61.8ZM471.71 59.28C470.39 59.28 470.12 59.16 470.12 58.35V54.21H466.67V58.38C466.67 61.32 467.6 62.19 471.32 62.19H476.09C478.85 62.19 479.81 61.35 480.2 57.96C479.27 57.75 477.86 57.27 477.17 56.76C477.02 58.95 476.84 59.28 475.73 59.28H471.71ZM479.3 55.62C481.13 57.39 483.14 59.85 483.92 61.5L486.95 59.91C486.05 58.2 483.92 55.83 482.12 54.21L479.3 55.62ZM514.64 53.31H511.76L511.01 38.58H515.39L514.64 53.31ZM510.89 58.08C510.89 57.24 511.11 56.65 511.55 56.31C511.99 55.95 512.54 55.77 513.2 55.77C513.8 55.77 514.33 55.95 514.79 56.31C515.25 56.65 515.48 57.24 515.48 58.08C515.48 58.9 515.25 59.49 514.79 59.85C514.33 60.21 513.8 60.39 513.2 60.39C512.54 60.39 511.99 60.21 511.55 59.85C511.11 59.49 510.89 58.9 510.89 58.08Z" fill="#A0CA77"/>
<path d="M76.9997 48.3334C74.433 48.3334 72.333 50.4334 72.333 53C72.333 55.5667 74.433 57.6667 76.9997 57.6667C79.5663 57.6667 81.6663 55.5667 81.6663 53C81.6663 50.4334 79.5663 48.3334 76.9997 48.3334ZM90.9997 36.6667H88.6663V32C88.6663 25.56 83.4397 20.3334 76.9997 20.3334C71.6797 20.3334 67.0363 23.9267 65.7063 29.0834C65.3797 30.3434 66.1263 31.6034 67.3863 31.93C68.623 32.2567 69.9063 31.51 70.233 30.25C71.0263 27.17 73.803 25 76.9997 25C80.8497 25 83.9997 28.15 83.9997 32V36.6667H62.9997C60.433 36.6667 58.333 38.7667 58.333 41.3334V64.6667C58.333 67.2334 60.433 69.3334 62.9997 69.3334H90.9997C93.5663 69.3334 95.6663 67.2334 95.6663 64.6667V41.3334C95.6663 38.7667 93.5663 36.6667 90.9997 36.6667ZM90.9997 62.3334C90.9997 63.6167 89.9497 64.6667 88.6663 64.6667H65.333C64.0497 64.6667 62.9997 63.6167 62.9997 62.3334V43.6667C62.9997 42.3834 64.0497 41.3334 65.333 41.3334H88.6663C89.9497 41.3334 90.9997 42.3834 90.9997 43.6667V62.3334Z" fill="#A0CA77"/>
<path d="M158.661 34.035V39.172L155.328 39.953V34.431H154.03V39.656C154.03 40.118 153.667 40.437 153.403 40.58C153.634 40.899 153.92 41.504 154.019 41.856C154.437 41.592 155.02 41.361 158.661 40.404V43.638H160.014V34.035H158.661ZM152.754 48.116V49.557H161.202V48.116H152.754ZM161.763 58.127V56.807H159.629C159.651 56.235 159.662 55.674 159.662 55.168V54.244H158.353V55.146C158.353 55.663 158.342 56.224 158.309 56.807H155.57V54.354H154.239V56.807H152.237V58.127H154.239V60.965C154.239 62.725 154.855 63.297 156.516 63.297H159.156C159.783 63.297 160.465 63.275 160.784 63.176C160.718 62.868 160.652 62.263 160.619 61.922C160.289 61.988 159.706 62.043 159.222 62.043H156.45C155.757 62.043 155.57 61.779 155.57 61.042V58.127H158.155C158.023 58.963 157.803 59.821 157.44 60.635C157.836 60.778 158.397 61.086 158.705 61.328C159.145 60.294 159.387 59.194 159.519 58.127H161.763Z" fill="#A0CA77"/>
<path d="M214.719 42.901C214.246 41.658 213.344 39.81 212.541 38.336L211.221 38.809C211.529 39.414 211.87 40.096 212.189 40.789L207.646 41.394C208.724 39.48 209.813 37.06 210.605 34.563L209.076 34.167C208.361 36.862 207.03 39.777 206.579 40.503C206.161 41.251 205.908 41.669 205.534 41.801C205.732 42.175 205.996 42.89 206.084 43.176C206.656 42.912 207.426 42.813 212.739 42.01C212.959 42.56 213.157 43.066 213.289 43.495L214.719 42.901ZM214.521 52.252C213.817 51.251 212.695 50.041 211.441 48.831C212.354 47.555 213.135 46.147 213.773 44.629L212.409 44.2C211.87 45.52 211.21 46.752 210.429 47.863C209.362 46.873 208.262 45.905 207.294 45.069L206.304 45.982C207.327 46.884 208.46 47.951 209.538 49.018C208.394 50.371 207.063 51.493 205.567 52.318C205.864 52.593 206.381 53.154 206.579 53.462C208.031 52.571 209.351 51.405 210.517 50.03C211.683 51.262 212.717 52.461 213.344 53.429L214.521 52.252ZM210.924 56.356H214.367V55.08H205.578V56.356H209.538V57.907C207.437 57.962 205.897 58.897 205.897 60.558C205.897 62.153 207.437 63.154 209.67 63.154C211.595 63.165 213.179 62.593 214.224 61.229L213.234 60.338C212.398 61.306 211.265 61.823 209.516 61.823C208.009 61.823 207.206 61.306 207.206 60.459C207.206 59.458 208.603 58.853 210.924 59.062V56.356Z" fill="#A0CA77"/>
<path d="M314.847 36.521C314.99 35.751 315.1 34.915 315.177 34.024L313.835 33.914C313.758 34.86 313.648 35.729 313.505 36.521H311.591C311.822 35.861 312.053 35.047 312.163 34.321L310.843 33.958C310.755 34.915 310.447 35.927 310.348 36.191C310.238 36.477 310.106 36.664 309.952 36.719C310.095 37.049 310.304 37.643 310.392 37.918V37.929C310.491 37.819 311.03 37.753 311.591 37.753H313.219C312.57 40.019 311.404 41.57 309.193 42.505C309.457 42.78 309.919 43.374 310.073 43.66C312.548 42.439 313.868 40.536 314.583 37.753H316.728C316.508 40.481 316.222 41.735 315.87 42.054C315.716 42.208 315.584 42.23 315.364 42.23C315.067 42.23 314.429 42.219 313.769 42.164C314.022 42.538 314.187 43.11 314.22 43.506C314.869 43.539 315.518 43.539 315.903 43.484C316.376 43.429 316.695 43.319 317.025 42.934C317.542 42.384 317.839 40.877 318.136 37.115C318.158 36.939 318.18 36.521 318.18 36.521H314.847ZM308.951 48.006V49.425H319.071V48.006H308.951ZM311.525 61.768C312.801 59.843 314.121 57.357 315.1 54.717L313.615 54.288C312.746 57.016 311.217 59.898 310.7 60.624C310.227 61.361 309.93 61.79 309.556 61.9C309.754 62.274 310.029 62.978 310.106 63.242C310.722 63.055 311.624 63.121 318.488 62.835C318.444 62.549 318.389 61.922 318.422 61.559L311.525 61.768Z" fill="#A0CA77"/>
<path d="M449.565 34.75H440.446V36.048H444.285V43.528H445.726V36.048H449.565V34.75ZM439.951 48.006V49.425H450.071V48.006H439.951ZM442.525 61.768C443.801 59.843 445.121 57.357 446.1 54.717L444.615 54.288C443.746 57.016 442.217 59.898 441.7 60.624C441.227 61.361 440.93 61.79 440.556 61.9C440.754 62.274 441.029 62.978 441.106 63.242C441.722 63.055 442.624 63.121 449.488 62.835C449.444 62.549 449.389 61.922 449.422 61.559L442.525 61.768Z" fill="#A0CA77"/>
<path d="M500.741 36.917V35.608H496.044C496.22 35.124 496.385 34.629 496.528 34.134L495.153 33.804C495.01 34.409 494.812 35.036 494.614 35.608H491.237V36.917H494.13C493.943 37.39 493.778 37.753 493.679 37.929C493.415 38.446 493.217 38.743 492.953 38.831C493.096 39.172 493.316 39.799 493.393 40.052C493.492 39.953 493.954 39.887 494.383 39.887H497.738C497.309 41.042 496.649 42.296 496.055 43.055C496.396 43.242 496.902 43.616 497.166 43.858C498.079 42.659 499.036 40.866 499.553 39.084L498.53 38.523L498.288 38.6H494.779C495.032 38.083 495.296 37.511 495.538 36.917H500.741ZM500.521 52.252C499.817 51.251 498.695 50.041 497.441 48.831C498.354 47.555 499.135 46.147 499.773 44.629L498.409 44.2C497.87 45.52 497.21 46.752 496.429 47.863C495.362 46.873 494.262 45.905 493.294 45.069L492.304 45.982C493.327 46.884 494.46 47.951 495.538 49.018C494.394 50.371 493.063 51.493 491.567 52.318C491.864 52.593 492.381 53.154 492.579 53.462C494.031 52.571 495.351 51.405 496.517 50.03C497.683 51.262 498.717 52.461 499.344 53.429L500.521 52.252ZM493.525 61.768C494.801 59.843 496.121 57.357 497.1 54.717L495.615 54.288C494.746 57.016 493.217 59.898 492.7 60.624C492.227 61.361 491.93 61.79 491.556 61.9C491.754 62.274 492.029 62.978 492.106 63.242C492.722 63.055 493.624 63.121 500.488 62.835C500.444 62.549 500.389 61.922 500.422 61.559L493.525 61.768Z" fill="#A0CA77"/>
<path d="M398.577 46.883C398.018 45.414 396.952 43.23 396.003 41.488L394.443 42.047C394.807 42.762 395.21 43.568 395.587 44.387L390.218 45.102C391.492 42.84 392.779 39.98 393.715 37.029L391.908 36.561C391.063 39.746 389.49 43.191 388.957 44.049C388.463 44.933 388.164 45.427 387.722 45.583C387.956 46.025 388.268 46.87 388.372 47.208C389.048 46.896 389.958 46.779 396.237 45.83C396.497 46.48 396.731 47.078 396.887 47.585L398.577 46.883ZM397.03 55.696L396.731 55.774H395.951C396.406 54.318 396.9 52.654 397.199 51.289L395.99 51.068L395.73 51.133H388.255V52.602H395.21C394.963 53.577 394.625 54.747 394.313 55.774H390.569C390.946 54.994 391.323 54.045 391.544 53.2L389.906 52.758C389.711 53.889 389.243 55.059 389.087 55.371C388.931 55.696 388.749 55.917 388.541 55.982C388.736 56.385 388.983 57.113 389.087 57.451C389.204 57.321 389.815 57.256 390.465 57.256H396.185C395.769 58.673 395.119 60.207 394.547 61.091C394.937 61.286 395.496 61.65 395.808 61.884C396.718 60.545 397.68 58.426 398.174 56.307L397.03 55.696Z" fill="#A0CA77"/>
<path d="M264.661 34.035V39.172L261.328 39.953V34.431H260.03V39.656C260.03 40.118 259.667 40.437 259.403 40.58C259.634 40.899 259.92 41.504 260.019 41.856C260.437 41.592 261.02 41.361 264.661 40.404V43.638H266.014V34.035H264.661ZM257.951 48.006V49.425H268.071V48.006H257.951ZM260.525 61.768C261.801 59.843 263.121 57.357 264.1 54.717L262.615 54.288C261.746 57.016 260.217 59.898 259.7 60.624C259.227 61.361 258.93 61.79 258.556 61.9C258.754 62.274 259.029 62.978 259.106 63.242C259.722 63.055 260.624 63.121 267.488 62.835C267.444 62.549 267.389 61.922 267.422 61.559L260.525 61.768Z" fill="#A0CA77"/>
<path d="M165.044 50.334C164.941 50.1653 164.805 49.982 164.637 49.784C164.475 49.586 164.307 49.3917 164.131 49.201C163.962 49.0103 163.808 48.849 163.669 48.717V48.574H164.758C164.948 48.6913 165.154 48.8307 165.374 48.992C165.594 49.146 165.799 49.322 165.99 49.52C166.18 49.322 166.389 49.146 166.617 48.992C166.844 48.8307 167.053 48.6913 167.244 48.574H168.333V48.717C168.201 48.849 168.047 49.0103 167.871 49.201C167.695 49.3917 167.522 49.586 167.354 49.784C167.192 49.982 167.06 50.1653 166.958 50.334H165.044Z" fill="#A0CA77"/>
<path d="M218.044 51.334C217.941 51.1653 217.805 50.982 217.637 50.784C217.475 50.586 217.307 50.3917 217.131 50.201C216.962 50.0103 216.808 49.849 216.669 49.717V49.574H217.758C217.948 49.6913 218.154 49.8307 218.374 49.992C218.594 50.146 218.799 50.322 218.99 50.52C219.18 50.322 219.389 50.146 219.617 49.992C219.844 49.8307 220.053 49.6913 220.244 49.574H221.333V49.717C221.201 49.849 221.047 50.0103 220.871 50.201C220.695 50.3917 220.522 50.586 220.354 50.784C220.192 50.982 220.06 51.1653 219.958 51.334H218.044Z" fill="#A0CA77"/>
<path d="M324.549 49.684C324.447 49.7867 324.311 49.9113 324.142 50.058C323.974 50.2047 323.79 50.3587 323.592 50.52C323.402 50.6813 323.211 50.8353 323.02 50.982C322.837 51.1213 322.676 51.2387 322.536 51.334H321.447V51.191C321.565 51.0517 321.7 50.8903 321.854 50.707C322.016 50.5163 322.173 50.322 322.327 50.124C322.481 49.9187 322.61 49.7353 322.712 49.574H324.549V49.684Z" fill="#A0CA77"/>
</svg>
