<svg width="1486" height="756" viewBox="0 0 1486 756" fill="none" xmlns="http://www.w3.org/2000/svg">
<rect x="17.5" y="17.501" width="1451" height="721" rx="82.5" fill="white" stroke="#BEE6F6" stroke-width="35"/>
<path d="M486.802 293.683L470.458 293.683L470.458 301.675L478.522 301.675L478.522 320.179L486.802 320.179L486.802 293.683ZM486.802 316.795L479.314 316.795C476.146 319.459 472.618 322.051 469.594 323.995L473.698 332.563C477.298 329.467 480.322 326.731 483.202 323.923C487.522 329.467 493.354 331.555 501.994 331.915C510.778 332.347 526.114 332.203 535.114 331.771C535.474 329.251 536.842 325.291 537.778 323.347C527.77 324.139 510.706 324.355 502.066 323.923C494.65 323.635 489.538 321.547 486.802 316.795ZM470.674 272.299C474.778 275.827 479.602 280.795 481.546 284.323L488.674 278.851C486.442 275.467 481.402 270.643 477.298 267.475L470.674 272.299ZM489.97 270.787L489.97 277.771L535.33 277.771L535.33 270.787L489.97 270.787ZM489.034 308.515L489.034 315.571L536.194 315.571L536.194 308.515L489.034 308.515ZM507.97 265.603L507.97 322.267L516.394 322.267L516.394 265.603L507.97 265.603ZM500.698 295.771L523.882 295.771L523.882 299.371L500.698 299.371L500.698 295.771ZM500.698 286.699L523.882 286.699L523.882 290.227L500.698 290.227L500.698 286.699ZM492.778 280.723L492.778 305.347L532.162 305.347L532.162 280.723L492.778 280.723ZM668.89 265.531L668.89 275.323L677.602 275.323L677.602 265.531L668.89 265.531ZM652.762 272.443L652.762 279.715L693.802 279.715L693.802 272.443L652.762 272.443ZM650.53 288.859L650.53 296.203L695.602 296.203L695.602 288.859L650.53 288.859ZM659.314 279.931C660.538 283.315 661.474 287.779 661.546 290.515L669.394 288.787C669.178 286.051 668.026 281.803 666.73 278.491L659.314 279.931ZM679.618 278.563C678.97 281.731 677.674 286.267 676.522 289.291L683.794 290.299C685.09 287.491 686.53 283.531 687.97 279.427L679.618 278.563ZM651.106 301.315L651.106 308.587L695.458 308.587L695.458 301.315L651.106 301.315ZM666.01 294.403C662.914 302.395 658.09 312.763 654.49 319.171L661.906 321.547C665.722 314.779 670.762 304.627 674.65 296.059L666.01 294.403ZM659.602 319.243C669.826 322.555 682.93 328.531 689.194 333.211L694.738 326.803C687.898 322.051 674.65 316.507 664.642 313.555L659.602 319.243ZM679.618 306.643C676.594 320.035 668.602 324.787 648.874 326.371C650.098 328.027 651.394 330.979 652.042 333.355C674.578 330.403 684.154 324.499 687.898 307.507L679.618 306.643ZM627.562 302.395L629.362 310.819C635.986 309.019 644.338 306.715 652.186 304.411L651.178 296.779C642.61 298.939 633.61 301.171 627.562 302.395ZM629.002 279.283L629.002 287.203L651.25 287.203L651.25 279.283L629.002 279.283ZM637.498 265.675L637.498 323.491C637.498 324.499 637.138 324.859 636.202 324.859C635.266 324.859 632.314 324.859 629.506 324.715C630.586 327.091 631.666 330.835 631.954 333.139C636.85 333.139 640.306 332.851 642.682 331.411C645.058 330.043 645.778 327.739 645.778 323.491L645.778 265.675L637.498 265.675ZM797.554 292.675L797.554 300.595L814.186 300.595L814.186 292.675L797.554 292.675ZM810.874 292.675L810.874 293.971C810.73 307.939 810.442 312.979 809.578 314.131C809.002 314.851 808.354 314.995 807.346 314.995C806.194 314.995 803.746 314.995 801.154 314.707C802.45 316.867 803.386 320.251 803.53 322.771C806.914 322.843 810.01 322.843 811.954 322.555C814.042 322.195 815.482 321.547 816.922 319.747C818.578 317.515 818.938 311.107 819.226 295.843C819.226 294.835 819.298 292.675 819.298 292.675L810.874 292.675ZM832.546 270.139C836.578 272.443 841.69 275.971 844.066 278.491L849.61 272.659C847.018 270.283 841.69 266.971 837.73 264.883L832.546 270.139ZM841.042 288.643C836.074 305.347 826.426 318.379 812.602 325.795C814.402 327.523 817.57 331.123 818.866 332.923C833.122 324.139 843.706 309.523 849.754 290.731L841.042 288.643ZM798.058 276.403L798.058 284.899L853.57 284.899L853.57 276.403L798.058 276.403ZM792.298 276.403L792.298 297.499C792.298 306.931 791.794 319.531 786.25 328.171C788.266 329.179 792.154 332.347 793.594 334.075C800.146 324.355 801.37 308.371 801.37 297.571L801.37 276.403L792.298 276.403ZM821.53 265.675C821.746 298.507 827.578 332.707 843.274 332.707C850.042 332.707 852.922 329.467 854.29 316.075C851.986 315.211 848.89 313.195 846.946 311.179C846.514 320.251 845.65 323.923 843.994 323.923C836.722 323.923 830.098 295.051 830.602 265.675L821.53 265.675ZM945.802 273.379L945.802 281.515L972.946 281.515L972.946 273.379L945.802 273.379ZM974.026 280.939L974.026 289.219L1006.28 289.219L1006.28 280.939L974.026 280.939ZM955.162 276.691L955.162 312.907L963.658 312.907L963.658 276.691L955.162 276.691ZM1002.25 280.939L1002.25 282.667C1001.6 310.027 1000.81 320.683 998.866 322.915C998.074 323.851 997.354 324.139 995.986 324.139C994.33 324.139 990.874 324.139 987.058 323.779C988.57 326.155 989.578 329.827 989.722 332.275C993.682 332.419 997.642 332.491 1000.09 332.059C1002.83 331.627 1004.63 330.835 1006.5 328.243C1009.09 324.787 1009.88 314.131 1010.67 284.827C1010.75 283.747 1010.75 280.939 1010.75 280.939L1002.25 280.939ZM944.794 311.971L946.81 320.971C954.802 318.811 965.17 315.859 974.818 313.051L973.666 304.843C963.298 307.579 952.066 310.459 944.794 311.971ZM984.178 266.755C984.034 294.619 984.898 315.139 965.026 326.299C967.186 327.883 969.922 331.123 971.146 333.355C992.674 320.467 992.818 296.779 992.962 266.755L984.178 266.755Z" fill="#67695E"/>
<circle cx="744" cy="522" r="88" fill="white" stroke="#BEE6F6" stroke-width="12"/>
<path d="M704.91 520.519L735.985 551.783L795.187 492.219" stroke="#BEE6F6" stroke-width="12"/>
</svg>
