<svg width="641" height="326" viewBox="0 0 641 326" fill="none" xmlns="http://www.w3.org/2000/svg">
<rect x="7.5" y="7.5" width="626" height="311" rx="48.5" fill="white" stroke="#BEE6F6" stroke-width="15"/>
<path d="M223.288 103.32V101.52H226.924V103.32H223.288ZM223.288 97.02H226.924V98.748H223.288V97.02ZM234.844 97.02V98.748H231.1V97.02H234.844ZM234.844 103.32H231.1V101.52H234.844V103.32ZM226.924 114.696H231.1V111.348H240.964V107.856H231.1V106.272H238.948V94.032H231.1V92.556H240.532V89.1H231.1V86.544H226.924V89.1H217.96V92.556H226.924V94.032H219.4V106.272H226.924V107.856H217.528V111.348H226.924V114.696ZM217.348 93.132C216.196 91.404 213.712 89.028 211.696 87.408L208.42 89.856C210.436 91.584 212.812 94.068 213.82 95.832L217.348 93.132ZM216.376 100.476H208.276V104.4H212.308V112.248C210.868 113.472 209.248 114.66 207.844 115.56L209.86 119.808C211.696 118.26 213.172 116.892 214.612 115.488C216.772 118.26 219.652 119.304 223.936 119.484C228.328 119.664 235.96 119.592 240.424 119.376C240.64 118.188 241.252 116.208 241.756 115.2C236.788 115.596 228.292 115.704 223.972 115.524C220.3 115.38 217.78 114.372 216.376 111.96V100.476ZM298.204 93.528C297.88 94.968 297.34 96.768 296.836 98.064H293.056L293.2 98.028C293.128 96.84 292.66 95.04 292.12 93.528H298.204ZM298.096 107.892C297.628 109.584 296.944 110.988 296.008 112.104C294.46 111.528 292.948 110.988 291.544 110.556C291.976 109.692 292.444 108.792 292.876 107.892H298.096ZM306.232 101.7V98.064H300.688C301.228 96.768 301.84 95.184 302.416 93.528H305.368V89.928H297.34V86.508H292.984V89.928H284.956V93.528H288.952L288.232 93.672C288.7 95.004 289.096 96.732 289.276 98.064H283.876V101.7H291.184C290.86 102.528 290.5 103.392 290.104 104.292H284.488L284.2 101.988L281.464 102.708V97.236H284.236V93.312H281.464V86.544H277.36V93.312H273.184V97.236H277.36V103.716C275.524 104.148 273.832 104.544 272.464 104.832L273.364 108.972L277.36 107.892V115.272C277.36 115.812 277.18 115.956 276.748 115.956C276.28 115.992 274.804 115.992 273.4 115.92C273.94 117.108 274.48 118.944 274.588 120.096C277.072 120.096 278.764 119.952 279.952 119.232C281.104 118.584 281.464 117.432 281.464 115.308V106.74C282.364 106.488 283.264 106.2 284.164 105.948V107.892H288.484C287.584 109.836 286.648 111.708 285.82 113.148L289.528 114.336L289.888 113.688C290.752 113.976 291.652 114.336 292.552 114.696C290.248 115.776 287.152 116.388 283.012 116.748C283.624 117.54 284.272 119.016 284.596 120.204C290.032 119.484 293.956 118.404 296.764 116.532C299.284 117.756 301.588 119.016 303.1 120.132L305.8 116.928C304.288 115.884 302.128 114.768 299.752 113.688C300.904 112.14 301.732 110.232 302.308 107.892H306.196V104.292H294.604C295.036 103.428 295.432 102.528 295.792 101.7H306.232ZM364.66 97.992C363.796 100.908 362.608 103.572 361.204 105.984C360.592 103.104 360.088 99.72 359.764 96.12H370.888V91.872H367.144L368.872 90.036C367.612 88.848 364.984 87.192 363.004 86.184L360.412 88.74C361.888 89.64 363.688 90.792 365.02 91.872H359.512C359.44 90.108 359.404 88.344 359.44 86.544H354.94C354.94 88.344 355.012 90.108 355.084 91.872H340.396V102.384C340.396 107.064 340.144 113.328 337.408 117.648C338.38 118.152 340.288 119.736 341.044 120.564C343.996 116.172 344.752 109.152 344.896 103.896H349.576C349.468 108.432 349.324 110.16 348.964 110.664C348.676 111.024 348.388 111.096 347.884 111.096C347.308 111.096 346.084 111.06 344.788 110.952C345.436 112.032 345.904 113.688 345.976 114.948C347.632 114.984 349.18 114.984 350.116 114.84C351.196 114.66 351.916 114.336 352.6 113.4C353.428 112.356 353.644 109.152 353.752 101.592C353.752 101.088 353.788 99.972 353.788 99.972H344.896V96.12H355.336C355.804 101.52 356.596 106.56 357.82 110.628C355.732 112.968 353.248 114.948 350.476 116.46C351.376 117.288 352.924 119.052 353.572 119.988C355.804 118.62 357.82 117 359.656 115.092C361.24 118.044 363.22 119.844 365.74 119.844C369.088 119.844 370.528 118.26 371.212 111.6C370.06 111.132 368.548 110.196 367.576 109.188C367.396 113.688 366.964 115.488 366.1 115.488C364.948 115.488 363.796 113.976 362.752 111.384C365.344 107.892 367.468 103.716 368.944 99.036L364.66 97.992ZM416.608 106.056C414.952 106.488 413.296 106.92 411.64 107.352V94.428H416.248V90.396H402.712V94.428H407.392V108.396C405.484 108.9 403.684 109.296 402.208 109.62L403.252 114.048C407.212 112.968 412.396 111.528 417.148 110.124L416.608 106.056ZM426.112 94.14C426.148 91.908 426.184 89.532 426.184 87.12H421.828C421.828 89.568 421.828 91.944 421.792 94.14H416.752V98.244H421.612C421.144 106.488 419.308 112.752 412.324 116.712C413.368 117.504 414.7 119.052 415.348 120.168C423.232 115.452 425.32 107.856 425.932 98.244H430.756C430.432 109.476 430.036 114.012 429.136 114.984C428.74 115.488 428.38 115.596 427.732 115.596C426.904 115.596 425.14 115.596 423.268 115.452C423.988 116.64 424.492 118.44 424.564 119.664C426.58 119.736 428.524 119.736 429.748 119.556C431.116 119.34 432.016 118.944 432.916 117.648C434.212 115.92 434.608 110.664 435.04 96.12C435.076 95.58 435.076 94.14 435.076 94.14H426.112Z" fill="#67695E"/>
<path d="M251.424 89.932C251.58 89.092 251.7 88.18 251.784 87.208L250.32 87.088C250.236 88.12 250.116 89.068 249.96 89.932H247.872C248.124 89.212 248.376 88.324 248.496 87.532L247.056 87.136C246.96 88.18 246.624 89.284 246.516 89.572C246.396 89.884 246.252 90.088 246.084 90.148C246.24 90.508 246.468 91.156 246.564 91.456V91.468C246.672 91.348 247.26 91.276 247.872 91.276H249.648C248.94 93.748 247.668 95.44 245.256 96.46C245.544 96.76 246.048 97.408 246.216 97.72C248.916 96.388 250.356 94.312 251.136 91.276H253.476C253.236 94.252 252.924 95.62 252.54 95.968C252.372 96.136 252.228 96.16 251.988 96.16C251.664 96.16 250.968 96.148 250.248 96.088C250.524 96.496 250.704 97.12 250.74 97.552C251.448 97.588 252.156 97.588 252.576 97.528C253.092 97.468 253.44 97.348 253.8 96.928C254.364 96.328 254.688 94.684 255.012 90.58C255.036 90.388 255.06 89.932 255.06 89.932H251.424ZM245.868 103.672V105.244H255.084V103.672H245.868ZM254.22 116.104L253.944 116.176H253.224C253.644 114.832 254.1 113.296 254.376 112.036L253.26 111.832L253.02 111.892H246.12V113.248H252.54C252.312 114.148 252 115.228 251.712 116.176H248.256C248.604 115.456 248.952 114.58 249.156 113.8L247.644 113.392C247.464 114.436 247.032 115.516 246.888 115.804C246.744 116.104 246.576 116.308 246.384 116.368C246.564 116.74 246.792 117.412 246.888 117.724C246.996 117.604 247.56 117.544 248.16 117.544H253.44C253.056 118.852 252.456 120.268 251.928 121.084C252.288 121.264 252.804 121.6 253.092 121.816C253.932 120.58 254.82 118.624 255.276 116.668L254.22 116.104Z" fill="#67695E"/>
<path d="M318.312 87.22V92.824L314.676 93.676V87.652H313.26V93.352C313.26 93.856 312.864 94.204 312.576 94.36C312.828 94.708 313.14 95.368 313.248 95.752C313.704 95.464 314.34 95.212 318.312 94.168V97.696H319.788V87.22H318.312ZM311.868 103.672V105.244H321.084V103.672H311.868ZM321.696 115.684V114.244H319.368C319.392 113.62 319.404 113.008 319.404 112.456V111.448H317.976V112.432C317.976 112.996 317.964 113.608 317.928 114.244H314.94V111.568H313.488V114.244H311.304V115.684H313.488V118.78C313.488 120.7 314.16 121.324 315.972 121.324H318.852C319.536 121.324 320.28 121.3 320.628 121.192C320.556 120.856 320.484 120.196 320.448 119.824C320.088 119.896 319.452 119.956 318.924 119.956H315.9C315.144 119.956 314.94 119.668 314.94 118.864V115.684H317.76C317.616 116.596 317.376 117.532 316.98 118.42C317.412 118.576 318.024 118.912 318.36 119.176C318.84 118.048 319.104 116.848 319.248 115.684H321.696Z" fill="#67695E"/>
<path d="M383.676 89.824C382.596 91.12 380.352 92.512 378.24 93.256C378.504 93.556 378.912 94.12 379.116 94.456C381.348 93.58 383.628 92.092 385.104 90.484L383.676 89.824ZM385.656 91.504C383.892 93.76 380.832 95.644 377.796 96.676C378.06 97 378.504 97.684 378.684 98.02C379.884 97.54 381.12 96.928 382.284 96.208V100.684H383.772V95.212C384.996 94.324 386.1 93.316 386.988 92.224L385.656 91.504ZM379.8 115.656C381.192 113.556 382.632 110.844 383.7 107.964L382.08 107.496C381.132 110.472 379.464 113.616 378.9 114.408C378.384 115.212 378.06 115.68 377.652 115.8C377.868 116.208 378.168 116.976 378.252 117.264C378.924 117.06 379.908 117.132 387.396 116.82C387.348 116.508 387.288 115.824 387.324 115.428L379.8 115.656Z" fill="#67695E"/>
<path d="M443.904 87.136C443.268 88.456 441.984 90.544 440.82 92.164C442.32 94.12 443.7 96.304 444.336 97.78L445.884 97C445.2 95.68 443.892 93.772 442.596 92.152C443.556 90.748 444.648 89.356 445.428 87.676L443.904 87.136ZM448.056 87.376C447.408 88.636 446.1 90.628 444.924 92.176C446.448 94.036 447.84 96.124 448.488 97.54L450.06 96.76C449.364 95.512 448.032 93.7 446.736 92.164C447.708 90.832 448.812 89.512 449.604 87.928L448.056 87.376ZM450.432 107.184C449.664 106.092 448.44 104.772 447.072 103.452C448.068 102.06 448.92 100.524 449.616 98.868L448.128 98.4C447.54 99.84 446.82 101.184 445.968 102.396C444.804 101.316 443.604 100.26 442.548 99.348L441.468 100.344C442.584 101.328 443.82 102.492 444.996 103.656C443.748 105.132 442.296 106.356 440.664 107.256C440.988 107.556 441.552 108.168 441.768 108.504C443.352 107.532 444.792 106.26 446.064 104.76C447.336 106.104 448.464 107.412 449.148 108.468L450.432 107.184ZM442.8 117.656C444.192 115.556 445.632 112.844 446.7 109.964L445.08 109.496C444.132 112.472 442.464 115.616 441.9 116.408C441.384 117.212 441.06 117.68 440.652 117.8C440.868 118.208 441.168 118.976 441.252 119.264C441.924 119.06 442.908 119.132 450.396 118.82C450.348 118.508 450.288 117.824 450.324 117.428L442.8 117.656Z" fill="#67695E"/>
<circle cx="318" cy="215" r="43" fill="white" stroke="#BEE6F6" stroke-width="8"/>
<path d="M298.455 214.259L313.992 229.892L343.594 200.109" stroke="#BEE6F6" stroke-width="8"/>
</svg>
