<svg width="1486" height="756" viewBox="0 0 1486 756" fill="none" xmlns="http://www.w3.org/2000/svg">
<rect x="17.5" y="17.5" width="1451" height="721" rx="82.5" fill="white" stroke="#BEE6F6" stroke-width="35"/>
<path d="M249.702 293.682L233.358 293.682L233.358 301.674L241.422 301.674L241.422 320.178L249.702 320.178L249.702 293.682ZM249.702 316.794L242.214 316.794C239.046 319.458 235.518 322.05 232.494 323.994L236.598 332.562C240.198 329.466 243.222 326.73 246.102 323.922C250.422 329.466 256.254 331.554 264.894 331.914C273.678 332.346 289.014 332.202 298.014 331.77C298.374 329.25 299.742 325.29 300.678 323.346C290.67 324.138 273.606 324.354 264.966 323.922C257.55 323.634 252.438 321.546 249.702 316.794ZM233.574 272.298C237.678 275.826 242.502 280.794 244.446 284.322L251.574 278.85C249.342 275.466 244.302 270.642 240.198 267.474L233.574 272.298ZM252.87 270.786L252.87 277.77L298.23 277.77L298.23 270.786L252.87 270.786ZM251.934 308.514L251.934 315.57L299.094 315.57L299.094 308.514L251.934 308.514ZM270.87 265.602L270.87 322.266L279.294 322.266L279.294 265.602L270.87 265.602ZM263.598 295.77L286.782 295.77L286.782 299.37L263.598 299.37L263.598 295.77ZM263.598 286.698L286.782 286.698L286.782 290.226L263.598 290.226L263.598 286.698ZM255.678 280.722L255.678 305.346L295.062 305.346L295.062 280.722L255.678 280.722ZM431.79 265.53L431.79 275.322L440.502 275.322L440.502 265.53L431.79 265.53ZM415.662 272.442L415.662 279.714L456.702 279.714L456.702 272.442L415.662 272.442ZM413.43 288.858L413.43 296.202L458.502 296.202L458.502 288.858L413.43 288.858ZM422.214 279.93C423.438 283.314 424.374 287.778 424.446 290.514L432.294 288.786C432.078 286.05 430.926 281.802 429.63 278.49L422.214 279.93ZM442.518 278.562C441.87 281.73 440.574 286.266 439.422 289.29L446.694 290.298C447.99 287.49 449.43 283.53 450.87 279.426L442.518 278.562ZM414.006 301.314L414.006 308.586L458.358 308.586L458.358 301.314L414.006 301.314ZM428.91 294.402C425.814 302.394 420.99 312.762 417.39 319.17L424.806 321.546C428.622 314.778 433.662 304.626 437.55 296.058L428.91 294.402ZM422.502 319.242C432.726 322.554 445.83 328.53 452.094 333.21L457.638 326.802C450.798 322.05 437.55 316.506 427.542 313.554L422.502 319.242ZM442.518 306.642C439.494 320.034 431.502 324.786 411.774 326.37C412.998 328.026 414.294 330.978 414.942 333.354C437.478 330.402 447.054 324.498 450.798 307.506L442.518 306.642ZM390.462 302.394L392.262 310.818C398.886 309.018 407.238 306.714 415.086 304.41L414.078 296.778C405.51 298.938 396.51 301.17 390.462 302.394ZM391.902 279.282L391.902 287.202L414.15 287.202L414.15 279.282L391.902 279.282ZM400.398 265.674L400.398 323.49C400.398 324.498 400.038 324.858 399.102 324.858C398.166 324.858 395.214 324.858 392.406 324.714C393.486 327.09 394.566 330.834 394.854 333.138C399.75 333.138 403.206 332.85 405.582 331.41C407.958 330.042 408.678 327.738 408.678 323.49L408.678 265.674L400.398 265.674ZM553.686 278.13L553.686 314.634L562.398 314.634L562.398 286.626L604.158 286.626L604.158 314.274L613.23 314.274L613.23 278.13L553.686 278.13ZM558.222 302.106L558.222 310.602L609.198 310.602L609.198 302.106L558.222 302.106ZM578.67 265.602L578.67 333.21L587.814 333.21L587.814 265.602L578.67 265.602ZM719.718 336.666C728.646 334.002 733.974 327.378 733.974 319.242C733.974 313.194 731.238 309.306 726.198 309.306C722.31 309.306 719.07 311.754 719.07 315.786C719.07 319.962 722.382 322.266 725.982 322.266C727.566 322.266 729.078 321.762 730.23 320.682L726.27 314.202L726.774 321.33C726.774 325.434 723.462 328.962 717.414 330.906L719.718 336.666ZM869.766 287.706L869.766 294.186L891.51 294.186L891.51 287.706L869.766 287.706ZM869.982 267.834L869.982 274.386L891.294 274.386L891.294 267.834L869.982 267.834ZM869.766 297.498L869.766 304.05L891.51 304.05L891.51 297.498L869.766 297.498ZM866.31 277.554L866.31 284.394L893.886 284.394L893.886 277.554L866.31 277.554ZM873.51 307.506L873.51 314.346L884.238 314.346L884.238 322.554L873.51 322.554L873.51 329.394L891.582 329.394L891.582 307.506L873.51 307.506ZM869.622 307.506L869.622 332.274L876.894 332.274L876.894 307.506L869.622 307.506ZM895.614 269.49L895.614 275.682L932.334 275.682L932.334 269.49L895.614 269.49ZM897.414 278.274L897.414 284.106L931.182 284.106L931.182 278.274L897.414 278.274ZM893.886 286.914L893.886 293.106L933.702 293.106L933.702 286.914L893.886 286.914ZM909.582 265.602L909.582 292.17L917.79 292.17L917.79 265.602L909.582 265.602ZM898.782 295.842L898.782 333.138L906.774 333.138L906.774 301.962L926.43 301.962L926.43 295.842L898.782 295.842ZM921.678 295.842L921.678 325.074C921.678 325.866 921.462 326.154 920.526 326.154C919.59 326.154 916.566 326.226 913.902 326.082C914.838 327.954 915.918 330.906 916.134 332.994C920.814 332.994 924.198 332.922 926.646 331.842C929.022 330.69 929.742 328.818 929.742 325.146L929.742 295.842L921.678 295.842ZM902.31 305.202L902.31 310.818L925.854 310.818L925.854 305.202L902.31 305.202ZM902.31 314.202L902.31 319.818L925.854 319.818L925.854 314.202L902.31 314.202ZM1058.62 298.146L1058.62 304.914L1084.18 304.914L1084.18 298.146L1058.62 298.146ZM1058.62 309.738L1058.62 316.938L1084.18 316.938L1084.18 309.738L1058.62 309.738ZM1055.09 285.906L1055.09 333.138L1063.16 333.138L1063.16 293.322L1082.74 293.322L1082.74 285.906L1055.09 285.906ZM1080.8 285.906L1080.8 324.57C1080.8 325.362 1080.51 325.65 1079.65 325.65C1078.85 325.722 1076.26 325.722 1073.89 325.578C1074.97 327.594 1076.19 331.122 1076.48 333.282C1080.73 333.282 1083.75 333.138 1086.05 331.842C1088.36 330.474 1089.08 328.314 1089.08 324.642L1089.08 285.906L1080.8 285.906ZM1067.33 265.674L1067.33 290.73L1075.69 290.73L1075.69 265.674L1067.33 265.674ZM1057.97 269.346C1056.03 274.17 1052.79 279.066 1048.97 282.234C1050.92 283.242 1054.23 285.402 1055.74 286.698C1059.49 283.026 1063.45 277.122 1065.82 271.362L1057.97 269.346ZM1077.27 271.65C1080.73 276.042 1084.47 282.018 1085.84 285.906L1093.04 282.162C1091.38 278.202 1087.42 272.442 1083.89 268.338L1077.27 271.65ZM1035.87 272.298L1035.87 333.138L1044.29 333.138L1044.29 272.298L1035.87 272.298ZM1025.5 285.834L1025.5 293.898L1051.93 293.898L1051.93 285.834L1025.5 285.834ZM1036.37 289.074C1034.07 297.066 1029.03 307.506 1023.99 313.266C1025.36 315.426 1027.23 319.026 1028.02 321.546C1033.57 314.418 1038.68 301.602 1041.41 291.306L1036.37 289.074ZM1047.1 266.322C1041.56 268.842 1032.63 270.93 1024.64 272.298C1025.65 274.098 1026.73 276.978 1027.09 278.85C1035.51 277.77 1045.52 275.826 1052.86 273.018L1047.1 266.322ZM1044.08 295.842L1040.33 299.226C1042.57 302.25 1046.89 308.802 1048.61 312.258L1053.51 305.49C1052.14 303.834 1045.88 297.354 1044.08 295.842ZM1218.75 287.85C1217.02 293.466 1214 299.154 1210.33 302.898C1212.2 303.834 1215.51 305.922 1217.09 307.218C1220.77 303.042 1224.37 296.346 1226.45 289.65L1218.75 287.85ZM1215.65 268.698L1215.65 275.754L1234.95 275.754L1234.95 285.258L1242.94 285.258L1242.94 268.698L1215.65 268.698ZM1218.46 293.97L1218.46 301.098L1249.13 301.098L1249.13 293.97L1218.46 293.97ZM1211.69 307.362L1211.69 314.634L1251.15 314.634L1251.15 307.362L1211.69 307.362ZM1211.55 281.946L1211.55 289.146L1250 289.146L1250 281.946L1211.55 281.946ZM1235.02 311.322L1227.75 312.186C1229.48 319.026 1233.15 329.034 1247.33 333.354C1248.34 331.194 1250.43 328.026 1252.23 326.37C1239.34 323.13 1236.17 316.362 1235.02 311.322ZM1226.6 297.354L1226.6 307.938C1226.6 313.986 1224.94 322.194 1209.03 327.234C1210.9 328.818 1213.42 331.626 1214.5 333.426C1231.49 326.802 1235.02 316.578 1235.02 308.154L1235.02 297.354L1226.6 297.354ZM1202.33 274.314L1202.33 321.618L1209.82 321.618L1209.82 274.314L1202.33 274.314ZM1196 265.818C1192.83 276.402 1187.5 286.914 1181.67 293.682C1183.04 295.986 1185.13 300.954 1185.77 303.042C1193.19 294.402 1199.89 280.794 1203.99 268.194L1196 265.818ZM1190.38 285.474L1190.38 333.138L1198.59 333.138L1198.59 277.698L1198.37 277.554L1190.38 285.474Z" fill="#67695E"/>
<path d="M327.61 273.042L327.61 273.504C327.126 280.39 326.51 283.426 325.74 284.13C325.432 284.416 325.168 284.482 324.706 284.482C324.112 284.482 322.836 284.46 321.516 284.328C322.022 285.076 322.352 286.242 322.418 287.012C323.716 287.078 325.014 287.078 325.784 286.99C326.752 286.88 327.39 286.638 328.05 285.868C329.062 284.768 329.678 281.754 330.25 274.252C330.316 273.9 330.36 273.042 330.36 273.042L327.61 273.042ZM314.762 275.858C314.96 275.638 316.038 275.528 317.16 275.528L328.864 275.528L328.886 273.042L316.17 273.042L314.762 273.834L314.762 275.858ZM314.762 275.836C314.762 275.308 316.654 274.384 316.654 274.384L316.654 274.362C317.27 272.888 318.04 270.622 318.326 268.664L315.664 267.938C315.51 269.852 314.872 271.854 314.696 272.404C314.476 272.976 314.19 273.328 313.882 273.438C314.19 274.098 314.608 275.286 314.762 275.836ZM321.648 267.85C320.922 276.76 318.92 282.216 312.364 285.032C312.914 285.582 313.838 286.77 314.124 287.342C321.032 283.91 323.43 277.904 324.354 268.07L321.648 267.85ZM313.486 298.232L313.486 301.136L330.382 301.136L330.382 298.232L313.486 298.232ZM315.356 324.016C315.576 323.796 316.61 323.686 317.71 323.686L328.864 323.686L328.864 321.156L316.742 321.156L315.356 321.948L315.356 324.016ZM327.852 321.156L327.852 321.794C327.302 324.588 325.85 328.262 324.618 330.154C325.256 330.484 326.224 331.122 326.73 331.518C328.292 329.23 329.898 325.644 330.734 322.08L328.798 321.046L328.292 321.156L327.852 321.156ZM315.356 324.016C315.356 323.488 317.138 322.586 317.138 322.586L317.138 322.542C317.974 321.09 319.008 318.802 319.514 316.8L316.742 316.052C316.412 317.988 315.642 319.946 315.356 320.474C315.114 321.024 314.784 321.42 314.454 321.508C314.762 322.212 315.202 323.444 315.356 324.016ZM313.948 313.302L313.948 315.81L327.104 315.81L327.104 313.302L313.948 313.302ZM326.29 313.302L326.29 313.588C325.85 315.524 324.882 319.11 324.002 321.816L326.642 322.256C327.522 319.55 328.49 316.228 329.084 313.566L327.06 313.192L326.62 313.302L326.29 313.302Z" fill="#67695E"/>
<path d="M481.322 270.07L481.322 289.276L484.028 289.276L484.028 270.07L481.322 270.07ZM472.016 285.734C472.918 285.14 474.194 284.656 482.928 282.39C482.73 281.84 482.444 280.85 482.312 280.102L473.05 282.28L471.752 283.248L472.016 285.734ZM472.016 285.734C472.016 284.766 474.634 283.424 474.634 283.424L474.634 270.862L472.038 270.862L472.038 281.312C472.038 282.258 471.334 282.896 470.784 283.182C471.246 283.798 471.84 285.03 472.016 285.734ZM469.486 300.232L469.486 303.136L486.382 303.136L486.382 300.232L469.486 300.232ZM468.474 319.614L468.474 322.276L487.526 322.276L487.526 319.614L468.474 319.614ZM472.478 314.73L472.478 327.952C472.478 331.45 473.688 332.594 477.01 332.594C477.692 332.594 481.344 332.594 482.312 332.594C483.566 332.594 484.93 332.55 485.546 332.352C485.436 331.736 485.282 330.548 485.238 329.866C484.556 329.998 483.39 330.086 482.422 330.086C481.41 330.086 477.714 330.086 476.878 330.086C475.514 330.086 475.14 329.58 475.14 328.084L475.14 314.73L472.478 314.73ZM480.684 314.51L480.684 316.314C480.684 319.526 480.53 323.596 478.88 327.292C479.672 327.578 480.794 328.194 481.388 328.678C483.17 324.586 483.302 319.944 483.302 316.336L483.302 314.51L480.684 314.51Z" fill="#67695E"/>
<path d="M624.386 285.844L624.386 288.44L643.57 288.44L643.57 285.844L624.386 285.844ZM632.592 270.224L632.592 287.714L635.276 287.714L635.276 270.224L632.592 270.224ZM626.278 272.27L626.278 282.566L641.942 282.566L641.942 272.27L639.148 272.27L639.148 279.97L628.962 279.97L628.962 272.27L626.278 272.27ZM638.818 292.422C635.936 299.484 631.184 305.292 625.112 308.636C625.706 309.186 626.762 310.33 627.158 310.924C633.296 307.14 638.334 300.87 641.546 293.258L638.818 292.422ZM626.608 295.986C631.602 300.43 637.96 306.7 640.666 310.858L643.02 308.526C640.094 304.346 633.472 298.362 628.588 294.16L626.608 295.986ZM626.212 332.506C626.212 331.978 628.17 330.922 628.17 330.922L628.17 330.834C630.942 326.874 634 321.352 636.2 315.456L633.23 314.598C631.492 320.054 628.434 325.796 627.4 327.248C626.432 328.744 625.86 329.58 625.112 329.822C625.486 330.57 626.036 331.956 626.212 332.506ZM626.212 332.506C627.444 332.11 629.226 332.242 642.976 331.67C642.866 331.12 642.778 329.844 642.822 329.118L627.994 329.558L626.168 330.46L626.212 332.506Z" fill="#67695E"/>
<path d="M954.134 269.894C952.44 272.292 949.03 276.164 946.06 279.134C949.734 282.676 953.232 286.702 954.926 289.43L957.72 287.824C955.982 285.404 952.704 281.95 949.58 279.112C952.066 276.604 954.97 273.898 956.906 271.126L954.134 269.894ZM943.486 300.232L943.486 303.136L960.382 303.136L960.382 300.232L943.486 300.232ZM944.212 332.506C944.212 331.978 946.17 330.922 946.17 330.922L946.17 330.834C948.942 326.874 952 321.352 954.2 315.456L951.23 314.598C949.492 320.054 946.434 325.796 945.4 327.248C944.432 328.744 943.86 329.58 943.112 329.822C943.486 330.57 944.036 331.956 944.212 332.506ZM944.212 332.506C945.444 332.11 947.226 332.242 960.976 331.67C960.866 331.12 960.778 329.844 960.822 329.118L945.994 329.558L944.168 330.46L944.212 332.506Z" fill="#67695E"/>
<path d="M1107.17 279.06L1107.17 281.634L1120.72 281.634L1120.72 285.44L1109.04 285.44L1109.04 287.992L1123.4 287.992L1123.4 279.06L1107.17 279.06ZM1108 285.44L1108 287.904C1108 290.104 1107.63 293.8 1104.48 296.11C1105.14 296.484 1106.22 297.32 1106.68 297.804C1110.25 295.12 1110.75 290.698 1110.75 287.948L1110.75 285.44L1108 285.44ZM1118.37 318.016C1119.66 320.37 1121.25 323.582 1121.93 325.584L1124.53 324.308C1123.73 322.284 1122.17 319.27 1120.79 316.916L1118.37 318.016ZM1107.81 324.902C1107.81 324.396 1109.76 323.582 1109.76 323.582L1109.76 323.516C1113.77 320.48 1118.1 316.432 1121.71 311.548L1119.53 309.81C1116.17 314.672 1111.48 319.138 1109.87 320.37C1108.42 321.558 1107.59 322.196 1106.77 322.394C1107.12 323.12 1107.65 324.374 1107.81 324.902ZM1107.81 324.902C1108.93 324.396 1110.49 324.198 1122.77 322.482C1122.57 321.954 1122.26 320.964 1122.13 320.282L1109.24 321.888L1107.7 322.812L1107.81 324.902ZM1107.74 317.444C1107.74 316.96 1109.43 316.146 1109.43 316.146L1109.43 316.08C1111.99 313.836 1114.67 310.69 1116.69 307.5L1114.34 305.982C1112.6 309.238 1109.83 312.56 1108.91 313.396C1108.05 314.254 1107.52 314.76 1106.86 314.914C1107.17 315.618 1107.63 316.938 1107.74 317.444ZM1107.74 317.444C1108.51 317.114 1109.72 316.872 1117.51 315.992C1117.64 315.442 1118.01 314.32 1118.37 313.638L1109.06 314.518L1107.63 315.354L1107.74 317.444Z" fill="#67695E"/>
<path d="M1265.5 279.962L1265.5 282.514L1279.91 282.514L1279.91 279.962L1265.5 279.962ZM1263.54 279.962L1263.54 286.034C1263.54 289.114 1263.3 293.25 1260.75 296.066C1261.39 296.352 1262.55 297.122 1263.01 297.584C1265.76 294.526 1266.2 289.554 1266.2 286.056L1266.2 279.962L1263.54 279.962ZM1263.34 307.874L1263.34 310.514L1277.2 310.514L1277.2 307.874L1263.34 307.874ZM1276.57 307.874L1276.57 308.358C1274.41 315.354 1268.4 320.744 1261.69 322.988C1262.27 323.56 1262.99 324.682 1263.37 325.452C1270.65 322.658 1276.79 317.07 1279.43 308.688L1277.51 307.72L1277.05 307.874L1276.57 307.874ZM1265.28 313.77C1269.68 317.136 1274.92 322.02 1277.18 325.342L1279.49 323.318C1277.03 319.93 1271.57 315.31 1267.28 312.098L1265.28 313.77Z" fill="#67695E"/>
<path d="M1289.57 297.148C1289.79 297.471 1290.05 297.837 1290.34 298.248C1290.65 298.644 1290.95 299.033 1291.26 299.414C1291.59 299.781 1291.86 300.103 1292.1 300.382L1292.1 300.668L1289.92 300.668C1289.64 300.477 1289.31 300.243 1288.93 299.964C1288.56 299.671 1288.18 299.363 1287.79 299.04C1287.41 298.717 1287.05 298.409 1286.71 298.116C1286.37 297.823 1286.1 297.573 1285.89 297.368L1285.89 297.148L1289.57 297.148Z" fill="#67695E"/>
<path d="M970.378 298.5L971.968 300.058L973.558 298.5L976.2 298.5L976.2 298.607L972.956 301.615L970.99 301.615L967.735 298.597L967.735 298.5L970.378 298.5Z" fill="#67695E"/>
<path d="M346.099 297.368C345.893 297.573 345.622 297.823 345.285 298.116C344.947 298.409 344.581 298.717 344.185 299.04C343.803 299.363 343.422 299.671 343.041 299.964C342.674 300.243 342.351 300.477 342.073 300.668L339.895 300.668L339.895 300.382C340.129 300.103 340.401 299.781 340.709 299.414C341.031 299.033 341.347 298.644 341.655 298.248C341.963 297.837 342.219 297.471 342.425 297.148L346.099 297.148L346.099 297.368Z" fill="#67695E"/>
</svg>
