<svg width="641" height="326" viewBox="0 0 641 326" fill="none" xmlns="http://www.w3.org/2000/svg">
<rect x="7.5" y="7.5" width="626" height="311" rx="48.5" fill="white" stroke="#BEE6F6" stroke-width="15"/>
<path d="M126.088 109.32V107.52H129.724V109.32H126.088ZM126.088 103.02H129.724V104.748H126.088V103.02ZM137.644 103.02V104.748H133.9V103.02H137.644ZM137.644 109.32H133.9V107.52H137.644V109.32ZM129.724 120.696H133.9V117.348H143.764V113.856H133.9V112.272H141.748V100.032H133.9V98.556H143.332V95.1H133.9V92.544H129.724V95.1H120.76V98.556H129.724V100.032H122.2V112.272H129.724V113.856H120.328V117.348H129.724V120.696ZM120.148 99.132C118.996 97.404 116.512 95.028 114.496 93.408L111.22 95.856C113.236 97.584 115.612 100.068 116.62 101.832L120.148 99.132ZM119.176 106.476H111.076V110.4H115.108V118.248C113.668 119.472 112.048 120.66 110.644 121.56L112.66 125.808C114.496 124.26 115.972 122.892 117.412 121.488C119.572 124.26 122.452 125.304 126.736 125.484C131.128 125.664 138.76 125.592 143.224 125.376C143.44 124.188 144.052 122.208 144.556 121.2C139.588 121.596 131.092 121.704 126.772 121.524C123.1 121.38 120.58 120.372 119.176 117.96V106.476ZM201.004 99.528C200.68 100.968 200.14 102.768 199.636 104.064H195.856L196 104.028C195.928 102.84 195.46 101.04 194.92 99.528H201.004ZM200.896 113.892C200.428 115.584 199.744 116.988 198.808 118.104C197.26 117.528 195.748 116.988 194.344 116.556C194.776 115.692 195.244 114.792 195.676 113.892H200.896ZM209.032 107.7V104.064H203.488C204.028 102.768 204.64 101.184 205.216 99.528H208.168V95.928H200.14V92.508H195.784V95.928H187.756V99.528H191.752L191.032 99.672C191.5 101.004 191.896 102.732 192.076 104.064H186.676V107.7H193.984C193.66 108.528 193.3 109.392 192.904 110.292H187.288L187 107.988L184.264 108.708V103.236H187.036V99.312H184.264V92.544H180.16V99.312H175.984V103.236H180.16V109.716C178.324 110.148 176.632 110.544 175.264 110.832L176.164 114.972L180.16 113.892V121.272C180.16 121.812 179.98 121.956 179.548 121.956C179.08 121.992 177.604 121.992 176.2 121.92C176.74 123.108 177.28 124.944 177.388 126.096C179.872 126.096 181.564 125.952 182.752 125.232C183.904 124.584 184.264 123.432 184.264 121.308V112.74C185.164 112.488 186.064 112.2 186.964 111.948V113.892H191.284C190.384 115.836 189.448 117.708 188.62 119.148L192.328 120.336L192.688 119.688C193.552 119.976 194.452 120.336 195.352 120.696C193.048 121.776 189.952 122.388 185.812 122.748C186.424 123.54 187.072 125.016 187.396 126.204C192.832 125.484 196.756 124.404 199.564 122.532C202.084 123.756 204.388 125.016 205.9 126.132L208.6 122.928C207.088 121.884 204.928 120.768 202.552 119.688C203.704 118.14 204.532 116.232 205.108 113.892H208.996V110.292H197.404C197.836 109.428 198.232 108.528 198.592 107.7H209.032ZM259.396 110.688V102.948H267.532V110.688H259.396ZM246.76 110.688V102.948H254.86V110.688H246.76ZM259.396 98.736V92.508H254.86V98.736H242.44V116.88H246.76V114.9H254.86V126.132H259.396V114.9H267.532V116.7H272.032V98.736H259.396ZM310.984 127.968C315.448 126.636 318.076 123.324 318.076 119.22C318.076 116.196 316.744 114.288 314.188 114.288C312.28 114.288 310.66 115.512 310.66 117.528C310.66 119.58 312.28 120.732 314.08 120.732C314.224 120.732 314.368 120.732 314.476 120.696C314.26 122.604 312.64 124.152 309.832 125.052L310.984 127.968ZM382.372 93.624H371.788V96.864H382.372V93.624ZM383.668 98.448H369.988V101.832H383.668V98.448ZM382.48 103.452H371.68V106.728H382.48V103.452ZM371.68 111.588H382.48V108.384H371.68V111.588ZM378.88 116.736V120.876H375.172V116.736H378.88ZM382.516 113.352H371.572V125.628H375.172V124.224H382.516V113.352ZM390.04 116.664V114.972H397.492V116.664H390.04ZM397.492 110.58V112.2H390.04V110.58H397.492ZM401.488 107.556H386.116V126.06H390.04V119.472H397.492V122.064C397.492 122.46 397.384 122.604 396.916 122.604C396.448 122.64 394.972 122.64 393.64 122.604C394.108 123.54 394.612 124.98 394.756 126.024C397.06 126.024 398.752 125.988 399.94 125.412C401.164 124.872 401.488 123.936 401.488 122.136V107.556ZM395.548 103.128V101.688H402.244V98.808H395.548V97.512H402.784V94.452H395.548V92.508H391.48V94.452H384.532V97.512H391.48V98.808H385.432V101.688H391.48V103.128H383.668V106.224H403.432V103.128H395.548ZM444.472 106.584H448.324V102.588H444.472V97.512C446.02 97.116 447.46 96.648 448.756 96.144L445.912 92.868C443.14 94.128 438.712 95.172 434.752 95.856C435.22 96.72 435.724 98.16 435.94 99.132C437.344 98.952 438.82 98.7 440.332 98.412V102.588H435.184V106.584H439.756C438.424 110.076 436.444 113.892 434.428 116.232C435.112 117.312 436.012 119.076 436.408 120.3C437.812 118.5 439.18 115.944 440.332 113.172V126.096H444.472V112.056C445.336 113.352 446.2 114.756 446.632 115.692L449.08 112.344C448.396 111.552 445.444 108.42 444.472 107.628V106.584ZM453.868 114.432V112.02H462.652V114.432H453.868ZM462.652 106.296V108.672H453.868V106.296H462.652ZM468.7 100.752C467.908 98.808 465.928 95.964 464.164 93.876L460.888 95.532C462.616 97.692 464.452 100.644 465.136 102.588H460.096V92.544H455.956V102.588H450.628C452.356 100.752 454.084 98.016 455.2 95.388L451.312 94.38C450.34 96.756 448.72 99.204 446.812 100.788C447.64 101.22 449.008 102.084 449.836 102.732V126.06H453.868V117.996H462.652V121.812C462.652 122.244 462.508 122.388 462.076 122.388C461.68 122.388 460.42 122.388 459.232 122.316C459.772 123.36 460.384 125.052 460.528 126.168C462.652 126.168 464.092 126.06 465.244 125.412C466.396 124.764 466.756 123.684 466.756 121.884V102.588H465.208L468.7 100.752ZM505.996 92.616C504.376 97.872 501.712 103.128 498.832 106.512C499.516 107.628 500.56 110.112 500.884 111.12C501.676 110.184 502.432 109.176 503.188 108.06V126.096H507.256V100.608C508.264 98.376 509.164 96.036 509.92 93.804L505.996 92.616ZM512.836 96.828H509.128V120.372H512.836V96.828ZM533.392 116.88V113.28H525.328V110.148H532.384V106.62H520.324C520.612 105.9 520.9 105.18 521.116 104.46L520.036 104.208H532.816V100.644H529.288V94.02H515.716V97.548H525.328V100.644H513.7V104.208H517.048C516.184 106.8 514.744 109.356 513.124 111.048C514.024 111.516 515.644 112.56 516.436 113.208C517.156 112.344 517.876 111.3 518.56 110.148H521.188V113.28H513.772V116.88H520.684C519.856 119.148 517.732 121.524 512.44 123.18C513.376 123.936 514.636 125.34 515.14 126.24C519.46 124.548 522.016 122.388 523.492 120.156C524.896 122.568 527.236 124.908 531.52 126.204C531.988 125.124 533.032 123.54 533.932 122.748C528.856 121.416 526.768 119.04 525.832 116.88H533.392Z" fill="#67695E"/>
<path d="M167.331 108.172C167.21 108.293 167.049 108.441 166.85 108.614C166.651 108.787 166.434 108.969 166.2 109.16C165.975 109.351 165.749 109.533 165.524 109.706C165.307 109.871 165.117 110.009 164.952 110.122H163.665V109.953C163.804 109.788 163.964 109.598 164.146 109.381C164.337 109.156 164.523 108.926 164.705 108.692C164.887 108.449 165.039 108.233 165.16 108.042H167.331V108.172Z" fill="#67695E"/>
<path d="M156.001 96.343C156.17 95.433 156.3 94.445 156.391 93.392L154.805 93.262C154.714 94.38 154.584 95.407 154.415 96.343H152.153C152.426 95.563 152.699 94.601 152.829 93.743L151.269 93.314C151.165 94.445 150.801 95.641 150.684 95.953C150.554 96.291 150.398 96.512 150.216 96.577C150.385 96.967 150.632 97.669 150.736 97.994V98.007C150.853 97.877 151.49 97.799 152.153 97.799H154.077C153.31 100.477 151.932 102.31 149.319 103.415C149.631 103.74 150.177 104.442 150.359 104.78C153.284 103.337 154.844 101.088 155.689 97.799H158.224C157.964 101.023 157.626 102.505 157.21 102.882C157.028 103.064 156.872 103.09 156.612 103.09C156.261 103.09 155.507 103.077 154.727 103.012C155.026 103.454 155.221 104.13 155.26 104.598C156.027 104.637 156.794 104.637 157.249 104.572C157.808 104.507 158.185 104.377 158.575 103.922C159.186 103.272 159.537 101.491 159.888 97.045C159.914 96.837 159.94 96.343 159.94 96.343H156.001ZM149.982 109.228V110.931H159.966V109.228H149.982ZM159.03 120.696L158.731 120.774H157.951C158.406 119.318 158.9 117.654 159.199 116.289L157.99 116.068L157.73 116.133H150.255V117.602H157.21C156.963 118.577 156.625 119.747 156.313 120.774H152.569C152.946 119.994 153.323 119.045 153.544 118.2L151.906 117.758C151.711 118.889 151.243 120.059 151.087 120.371C150.931 120.696 150.749 120.917 150.541 120.982C150.736 121.385 150.983 122.113 151.087 122.451C151.204 122.321 151.815 122.256 152.465 122.256H158.185C157.769 123.673 157.119 125.207 156.547 126.091C156.937 126.286 157.496 126.65 157.808 126.884C158.718 125.545 159.68 123.426 160.174 121.307L159.03 120.696Z" fill="#67695E"/>
<path d="M221.963 93.405V99.476L218.024 100.399V93.873H216.49V100.048C216.49 100.594 216.061 100.971 215.749 101.14C216.022 101.517 216.36 102.232 216.477 102.648C216.971 102.336 217.66 102.063 221.963 100.932V104.754H223.562V93.405H221.963ZM214.982 109.228V110.931H224.966V109.228H214.982ZM225.629 120.241V118.681H223.107C223.133 118.005 223.146 117.342 223.146 116.744V115.652H221.599V116.718C221.599 117.329 221.586 117.992 221.547 118.681H218.31V115.782H216.737V118.681H214.371V120.241H216.737V123.595C216.737 125.675 217.465 126.351 219.428 126.351H222.548C223.289 126.351 224.095 126.325 224.472 126.208C224.394 125.844 224.316 125.129 224.277 124.726C223.887 124.804 223.198 124.869 222.626 124.869H219.35C218.531 124.869 218.31 124.557 218.31 123.686V120.241H221.365C221.209 121.229 220.949 122.243 220.52 123.205C220.988 123.374 221.651 123.738 222.015 124.024C222.535 122.802 222.821 121.502 222.977 120.241H225.629Z" fill="#67695E"/>
<path d="M283.754 101.713V99.776H287.706V93.692H286.042V98.255H283.754V92.483H282.181V98.255H280.023V93.692H278.45V99.776H282.181V101.713H277.319V103.247H288.655V101.713H283.754ZM288.343 114.116C287.511 112.933 286.185 111.503 284.703 110.073C285.782 108.565 286.705 106.901 287.459 105.107L285.847 104.6C285.21 106.16 284.43 107.616 283.507 108.929C282.246 107.759 280.946 106.615 279.802 105.627L278.632 106.706C279.841 107.772 281.18 109.033 282.454 110.294C281.102 111.893 279.529 113.219 277.761 114.194C278.112 114.519 278.723 115.182 278.957 115.546C280.673 114.493 282.233 113.115 283.611 111.49C284.989 112.946 286.211 114.363 286.952 115.507L288.343 114.116ZM280.075 125.544C281.583 123.269 283.143 120.331 284.3 117.211L282.545 116.704C281.518 119.928 279.711 123.334 279.1 124.192C278.541 125.063 278.19 125.57 277.748 125.7C277.982 126.142 278.307 126.974 278.398 127.286C279.126 127.065 280.192 127.143 288.304 126.805C288.252 126.467 288.187 125.726 288.226 125.297L280.075 125.544Z" fill="#67695E"/>
<path d="M424.481 109.151L425.408 108.244H426.976V108.313L425.059 110.097H423.897L421.98 108.301V108.244H423.548L424.481 109.151Z" fill="#67695E"/>
<path d="M415.261 91.301C414.273 92.718 412.245 94.993 410.49 96.748C412.661 98.841 414.741 101.233 415.742 102.832L417.38 101.896C416.353 100.466 414.429 98.412 412.583 96.735C414.052 95.253 415.755 93.654 416.912 92.016L415.261 91.301ZM408.982 108.228V109.931H418.966V108.228H408.982ZM411.075 124.544C412.583 122.269 414.143 119.331 415.3 116.211L413.545 115.704C412.518 118.928 410.711 122.334 410.1 123.192C409.541 124.063 409.19 124.57 408.748 124.7C408.982 125.142 409.307 125.974 409.398 126.286C410.126 126.065 411.192 126.143 419.304 125.805C419.252 125.467 419.187 124.726 419.226 124.297L411.075 124.544Z" fill="#67695E"/>
<path d="M483.966 95.99H474.385V97.498H482.38V99.747H474.879V101.216C474.879 102.516 474.658 104.687 472.799 106.065C473.189 106.273 473.813 106.767 474.099 107.053C476.192 105.48 476.504 102.88 476.504 101.268H483.966V95.99ZM484.642 124.169C484.174 122.986 483.238 121.205 482.432 119.801L480.989 120.451C481.249 120.919 481.522 121.439 481.795 121.972L477.414 122.518C479.325 120.893 481.288 118.917 482.978 116.642L481.678 115.615C481.106 116.434 480.482 117.227 479.845 117.968L476.816 118.254C477.96 117.084 479.104 115.68 480.014 114.25L478.623 113.353C477.583 115.277 475.945 117.227 475.412 117.734C474.905 118.241 474.58 118.527 474.19 118.618C474.372 119.047 474.645 119.814 474.723 120.126C475.1 119.97 475.646 119.84 478.467 119.502C477.401 120.633 476.452 121.491 475.971 121.855C475.126 122.557 474.632 122.921 474.138 123.038C474.359 123.467 474.658 124.208 474.762 124.52C475.386 124.234 476.231 124.13 482.419 123.272C482.705 123.883 482.939 124.468 483.108 124.936L484.642 124.169Z" fill="#67695E"/>
<path d="M551.278 96.523H541.593V100.111C541.593 101.931 541.463 104.375 539.942 106.026C540.319 106.208 541.008 106.663 541.294 106.936C542.906 105.116 543.179 102.191 543.179 100.111V98.018H551.278V96.523ZM549.848 114.38L549.575 114.458H541.476V116.018H548.821C548.288 117.214 547.573 118.306 546.728 119.281C545.74 118.436 544.739 117.643 543.816 116.954L542.633 117.942C543.582 118.683 544.609 119.541 545.597 120.425C544.115 121.751 542.36 122.778 540.501 123.402C540.852 123.727 541.281 124.403 541.489 124.845C543.452 124.091 545.272 122.999 546.819 121.569C548.002 122.726 549.029 123.857 549.666 124.793L551.031 123.584C550.329 122.635 549.224 121.504 547.976 120.373C549.289 118.865 550.329 117.058 550.992 114.939L549.848 114.38Z" fill="#67695E"/>
<path d="M556.836 109.042C556.966 109.233 557.118 109.449 557.291 109.692C557.473 109.926 557.655 110.156 557.837 110.381C558.028 110.598 558.192 110.788 558.331 110.953V111.122H557.044C556.879 111.009 556.684 110.871 556.459 110.706C556.242 110.533 556.017 110.351 555.783 110.16C555.558 109.969 555.345 109.787 555.146 109.614C554.947 109.441 554.786 109.293 554.665 109.172V109.042H556.836Z" fill="#67695E"/>
</svg>
