<svg width="1486" height="756" viewBox="0 0 1486 756" fill="none" xmlns="http://www.w3.org/2000/svg">
<rect x="17.5" y="17.5" width="1451" height="721" rx="82.5" fill="white" stroke="#BEE6F6" stroke-width="35"/>
<path d="M169.926 297.642L169.926 304.482L204.846 304.482L204.846 297.642L169.926 297.642ZM168.846 309.954L168.846 317.01L205.998 317.01L205.998 309.954L168.846 309.954ZM190.446 299.802L190.446 331.914L198.006 331.914L198.006 299.802L190.446 299.802ZM176.406 300.09L176.406 313.842C176.406 317.514 174.822 324.498 168.702 328.242C170.502 329.394 173.094 331.698 174.246 333.21C181.806 328.026 183.75 318.522 183.75 313.914L183.75 300.09L176.406 300.09ZM161.358 278.202L161.358 283.818L179.502 283.818L179.502 278.202L161.358 278.202ZM194.766 278.202L194.766 283.818L212.982 283.818L212.982 278.202L194.766 278.202ZM209.598 268.338L209.598 323.058C209.598 324.138 209.238 324.57 208.086 324.57C207.006 324.57 203.406 324.57 200.238 324.426C201.39 326.658 202.542 330.69 202.758 332.994C208.302 333.066 212.046 332.85 214.71 331.41C217.302 329.97 218.094 327.522 218.094 323.202L218.094 268.338L209.598 268.338ZM162.15 268.338L162.15 274.53L176.838 274.53L176.838 287.778L162.15 287.778L162.15 293.97L184.974 293.97L184.974 268.338L162.15 268.338ZM213.99 268.338L189.654 268.338L189.654 294.114L213.99 294.114L213.99 287.922L197.862 287.922L197.862 274.53L213.99 274.53L213.99 268.338ZM157.038 268.338L157.038 333.21L165.534 333.21L165.534 268.338L157.038 268.338ZM320.406 274.53L320.406 282.09L338.91 282.09L338.91 290.442L320.406 290.442L320.406 298.002L346.542 298.002L346.542 274.53L320.406 274.53ZM326.382 321.33L326.382 328.17L344.886 328.17L344.886 321.33L326.382 321.33ZM323.934 304.122L323.934 332.202L331.278 332.202L331.278 310.962L340.134 310.962L340.134 331.266L347.766 331.266L347.766 304.122L323.934 304.122ZM316.302 274.53L316.302 292.818C316.302 302.682 315.87 316.506 311.046 326.226C312.774 327.018 316.23 329.754 317.598 331.194C323.214 320.466 324.222 303.834 324.222 292.89L324.222 274.53L316.302 274.53ZM325.95 267.33C327.39 271.218 329.046 276.33 329.622 279.57L337.47 277.338C336.678 274.098 334.95 269.202 333.366 265.386L325.95 267.33ZM355.758 279.066L355.758 287.058L379.518 287.058L379.518 279.066L355.758 279.066ZM357.486 265.458C355.83 277.626 352.518 289.146 346.758 296.13C348.558 297.498 351.726 300.594 352.878 302.106C359.358 293.826 363.39 280.722 365.622 266.754L357.486 265.458ZM368.502 283.818C366.63 304.338 361.662 318.738 347.766 326.586C349.35 328.242 351.726 331.914 352.59 333.642C367.998 323.922 373.974 307.938 376.494 284.394L368.502 283.818ZM359.862 285.474L352.95 286.626C356.262 307.506 362.166 324.354 375.27 333.066C376.494 330.978 378.942 328.026 380.742 326.514C368.574 319.386 362.598 303.546 359.862 285.474ZM471.894 283.242L471.894 291.954L491.982 291.954L491.982 283.242L471.894 283.242ZM499.902 265.674L499.902 321.978C499.902 323.346 499.398 323.778 497.958 323.85C496.374 323.85 491.838 323.85 487.086 323.634C488.454 326.226 490.182 330.618 490.542 333.282C497.094 333.282 501.846 332.922 504.942 331.41C507.966 329.826 509.046 327.234 509.046 322.05L509.046 265.674L499.902 265.674ZM489.03 283.242L489.03 285.114C486.582 301.026 479.526 313.554 469.662 320.178C471.75 321.474 475.278 325.002 476.79 327.018C487.086 319.458 495.006 304.77 498.318 285.114L492.342 282.954L490.83 283.242L489.03 283.242ZM508.542 276.186L501.702 277.626C506.814 299.874 515.382 318.594 532.086 328.026C533.526 325.362 536.55 321.762 538.71 319.962C522.582 312.258 513.15 295.266 508.542 276.186ZM528.702 276.834C524.238 283.242 516.606 291.09 510.774 295.914L516.966 300.81C523.014 296.274 530.718 289.002 536.838 282.522L528.702 276.834ZM630.87 270.498L630.87 277.266L694.302 277.266L694.302 270.498L630.87 270.498ZM629.79 324.282L629.79 331.41L695.67 331.41L695.67 324.282L629.79 324.282ZM636.99 280.866L636.99 287.562L688.326 287.562L688.326 280.866L636.99 280.866ZM631.086 290.586L631.086 303.402L639.438 303.402L639.438 297.426L685.302 297.426L685.302 303.402L694.014 303.402L694.014 290.586L631.086 290.586ZM657.726 265.602L657.726 284.754L666.726 284.754L666.726 265.602L657.726 265.602ZM665.358 301.674L665.358 308.226L678.534 308.226L678.534 313.266L665.358 313.266L665.358 319.818L686.742 319.818L686.742 301.674L665.358 301.674ZM665.358 317.154L665.358 327.882L673.494 327.882L673.494 317.154L665.358 317.154ZM659.31 293.034L651.39 293.034L651.39 304.338L659.31 304.338L659.31 293.034ZM659.31 317.226L651.174 317.226L651.174 328.242L659.31 328.242L659.31 317.226ZM665.358 293.034L665.358 305.058L673.35 305.058L673.35 293.034L665.358 293.034ZM659.31 301.674L638.574 301.674L638.574 319.818L659.31 319.818L659.31 313.266L646.35 313.266L646.35 308.226L659.31 308.226L659.31 301.674ZM804.102 293.682L787.758 293.682L787.758 301.674L795.822 301.674L795.822 320.178L804.102 320.178L804.102 293.682ZM804.102 316.794L796.614 316.794C793.446 319.458 789.918 322.05 786.894 323.994L790.998 332.562C794.598 329.466 797.622 326.73 800.502 323.922C804.822 329.466 810.654 331.554 819.294 331.914C828.078 332.346 843.414 332.202 852.414 331.77C852.774 329.25 854.142 325.29 855.078 323.346C845.07 324.138 828.006 324.354 819.366 323.922C811.95 323.634 806.838 321.546 804.102 316.794ZM787.974 272.298C792.078 275.826 796.902 280.794 798.846 284.322L805.974 278.85C803.742 275.466 798.702 270.642 794.598 267.474L787.974 272.298ZM807.27 270.786L807.27 277.77L852.63 277.77L852.63 270.786L807.27 270.786ZM806.334 308.514L806.334 315.57L853.494 315.57L853.494 308.514L806.334 308.514ZM825.27 265.602L825.27 322.266L833.694 322.266L833.694 265.602L825.27 265.602ZM817.998 295.77L841.182 295.77L841.182 299.37L817.998 299.37L817.998 295.77ZM817.998 286.698L841.182 286.698L841.182 290.226L817.998 290.226L817.998 286.698ZM810.078 280.722L810.078 305.346L849.462 305.346L849.462 280.722L810.078 280.722ZM986.19 265.53L986.19 275.322L994.902 275.322L994.902 265.53L986.19 265.53ZM970.062 272.442L970.062 279.714L1011.1 279.714L1011.1 272.442L970.062 272.442ZM967.83 288.858L967.83 296.202L1012.9 296.202L1012.9 288.858L967.83 288.858ZM976.614 279.93C977.838 283.314 978.774 287.778 978.846 290.514L986.694 288.786C986.478 286.05 985.326 281.802 984.03 278.49L976.614 279.93ZM996.918 278.562C996.27 281.73 994.974 286.266 993.822 289.29L1001.09 290.298C1002.39 287.49 1003.83 283.53 1005.27 279.426L996.918 278.562ZM968.406 301.314L968.406 308.586L1012.76 308.586L1012.76 301.314L968.406 301.314ZM983.31 294.402C980.214 302.394 975.39 312.762 971.79 319.17L979.206 321.546C983.022 314.778 988.062 304.626 991.95 296.058L983.31 294.402ZM976.902 319.242C987.126 322.554 1000.23 328.53 1006.49 333.21L1012.04 326.802C1005.2 322.05 991.95 316.506 981.942 313.554L976.902 319.242ZM996.918 306.642C993.894 320.034 985.902 324.786 966.174 326.37C967.398 328.026 968.694 330.978 969.342 333.354C991.878 330.402 1001.45 324.498 1005.2 307.506L996.918 306.642ZM944.862 302.394L946.662 310.818C953.286 309.018 961.638 306.714 969.486 304.41L968.478 296.778C959.91 298.938 950.91 301.17 944.862 302.394ZM946.302 279.282L946.302 287.202L968.55 287.202L968.55 279.282L946.302 279.282ZM954.798 265.674L954.798 323.49C954.798 324.498 954.438 324.858 953.502 324.858C952.566 324.858 949.614 324.858 946.806 324.714C947.886 327.09 948.966 330.834 949.254 333.138C954.15 333.138 957.606 332.85 959.982 331.41C962.358 330.042 963.078 327.738 963.078 323.49L963.078 265.674L954.798 265.674ZM1105.57 269.13L1105.57 276.33L1170.15 276.33L1170.15 269.13L1105.57 269.13ZM1144.81 285.834L1144.81 292.602L1169.29 292.602L1169.29 285.834L1144.81 285.834ZM1144.01 299.37L1144.01 306.066L1167.49 306.066L1167.49 299.37L1144.01 299.37ZM1121.41 265.602L1121.41 279.426L1129.97 279.426L1129.97 265.602L1121.41 265.602ZM1121.33 282.738L1121.33 291.09L1128.46 291.09L1128.46 282.738L1121.33 282.738ZM1121.33 297.498L1121.33 305.922L1128.46 305.922L1128.46 297.498L1121.33 297.498ZM1145.38 265.602L1145.38 279.426L1153.95 279.426L1153.95 265.602L1145.38 265.602ZM1105.06 323.994L1105.06 331.05L1170.65 331.05L1170.65 323.994L1105.06 323.994ZM1112.69 310.386L1112.69 327.738L1120.69 327.738L1120.69 316.65L1127.38 316.65L1127.38 327.738L1134.58 327.738L1134.58 316.65L1141.42 316.65L1141.42 327.738L1148.62 327.738L1148.62 316.65L1155.46 316.65L1155.46 327.738L1163.96 327.738L1163.96 310.386L1112.69 310.386ZM1145.81 279.282C1144.16 285.042 1140.85 290.586 1136.67 294.114C1138.54 295.122 1141.85 297.354 1143.29 298.578C1147.54 294.474 1151.43 287.922 1153.59 281.01L1145.81 279.282ZM1112.69 288.138L1112.69 292.674L1130.62 292.674L1130.62 295.77L1112.69 295.77L1112.69 300.306L1137.46 300.306L1137.46 288.138L1112.69 288.138ZM1139.41 280.434L1108.81 280.434L1108.81 308.154L1139.69 308.154L1139.69 303.042L1115.79 303.042L1115.79 285.546L1139.41 285.546L1139.41 280.434ZM1264.04 302.466L1264.04 310.386L1328.48 310.386L1328.48 302.466L1264.04 302.466ZM1278.15 290.01L1278.15 305.562L1286.65 305.562L1286.65 290.01L1278.15 290.01ZM1269.01 285.546L1269.01 293.322L1324.45 293.322L1324.45 285.546L1269.01 285.546ZM1299.39 304.05C1292.05 312.546 1276.85 320.682 1263.03 323.922C1265.12 325.938 1267.28 329.106 1268.57 331.41C1282.11 327.09 1297.66 318.162 1305.94 308.802L1299.39 304.05ZM1304.29 289.866L1304.29 323.562C1304.29 324.714 1303.78 325.074 1302.34 325.146C1300.76 325.146 1295.36 325.146 1290.61 324.93C1291.9 327.162 1293.34 330.834 1293.77 333.21C1300.33 333.21 1305.15 333.066 1308.53 331.842C1311.92 330.618 1312.93 328.314 1312.93 323.706L1312.93 289.866L1304.29 289.866ZM1264.25 270.498L1264.25 278.202L1328.33 278.202L1328.33 270.498L1264.25 270.498ZM1279.16 265.602L1279.16 283.602L1287.73 283.602L1287.73 265.602L1279.16 265.602ZM1304.43 265.602L1304.43 283.602L1313 283.602L1313 265.602L1304.43 265.602Z" fill="#67695E"/>
<path d="M223.805 484.886L223.805 492.734L256.061 492.734L256.061 484.886L223.805 484.886ZM220.205 434.99L220.205 442.622L245.693 442.622L245.693 434.99L220.205 434.99ZM222.077 427.502C217.901 435.494 209.909 444.278 198.029 450.542C199.973 452.054 202.853 455.222 204.077 457.382C217.037 449.606 225.677 439.958 231.797 429.446L222.077 427.502ZM242.957 434.99L242.957 436.43C236.333 454.574 217.757 468.542 197.885 474.302C199.685 476.102 201.845 479.63 202.925 482.006C224.381 474.806 243.605 460.118 252.029 437.726L246.053 434.558L244.613 434.99L242.957 434.99ZM210.773 450.83C215.741 454.574 222.149 460.118 224.885 463.862L231.869 457.598C228.701 453.854 222.149 448.742 217.181 445.214L210.773 450.83ZM252.029 462.926L252.029 495.614L261.029 495.614L261.029 462.926L252.029 462.926ZM227.477 462.926L225.389 462.926L218.837 469.334L218.837 495.47L227.477 495.47L227.477 470.774L256.349 470.774L256.349 462.926L227.477 462.926ZM384.797 449.606L384.797 479.198L392.573 479.198L392.573 449.606L384.797 449.606ZM376.013 464.582L376.013 470.846L402.581 470.846L402.581 464.582L376.013 464.582ZM366.509 475.238L366.509 482.222L410.501 482.222L410.501 475.238L366.509 475.238ZM370.973 453.71L370.973 495.398L378.821 495.398L378.821 460.406L402.581 460.406L402.581 453.71L370.973 453.71ZM398.981 453.71L398.981 486.902C398.981 487.766 398.621 487.982 397.685 488.054C396.749 488.054 393.581 488.054 390.773 487.91C391.853 489.926 393.149 493.238 393.509 495.47C398.045 495.47 401.357 495.326 403.805 494.03C406.253 492.806 406.973 490.646 406.973 486.974L406.973 453.71L398.981 453.71ZM399.917 428.51C393.653 430.382 383.285 432.11 374.213 432.974C375.005 434.63 376.013 437.438 376.301 439.166C386.021 438.374 397.469 436.862 406.037 434.486L399.917 428.51ZM373.205 431.39C371.765 437.942 369.101 444.638 365.501 448.886C367.517 449.75 371.189 451.838 372.845 453.062C376.373 448.31 379.613 440.606 381.413 433.046L373.205 431.39ZM383.213 440.246C384.581 443.27 385.733 447.374 386.021 449.966L393.437 447.806C393.077 445.142 391.853 441.254 390.341 438.374L383.213 440.246ZM396.461 438.95C399.053 443.054 401.789 448.67 402.869 452.27L410.285 449.03C409.061 445.43 406.253 440.102 403.517 436.142L396.461 438.95ZM352.253 434.702L352.253 495.614L360.389 495.614L360.389 434.702L352.253 434.702ZM342.893 448.598L342.893 456.446L367.661 456.446L367.661 448.598L342.893 448.598ZM352.181 451.766C350.309 459.614 346.061 470.126 341.741 476.03C343.037 478.19 344.909 481.718 345.701 484.238C350.597 477.038 354.917 463.934 357.149 453.782L352.181 451.766ZM362.765 429.158C357.797 431.462 349.661 433.55 342.245 434.846C343.181 436.502 344.261 439.31 344.621 441.11C352.541 440.03 361.901 438.086 368.813 435.278L362.765 429.158ZM360.245 458.246L356.573 461.558C358.589 464.294 362.837 470.558 364.421 473.726L369.245 467.102C367.877 465.59 361.973 459.614 360.245 458.246ZM520.373 451.982C524.117 451.982 527.213 449.102 527.213 445.214C527.213 441.254 524.117 438.374 520.373 438.374C516.557 438.374 513.461 441.254 513.461 445.214C513.461 449.102 516.557 451.982 520.373 451.982ZM520.373 486.326C524.117 486.326 527.213 483.446 527.213 479.558C527.213 475.598 524.117 472.718 520.373 472.718C516.557 472.718 513.461 475.598 513.461 479.558C513.461 483.446 516.557 486.326 520.373 486.326ZM631.08 458.722L631.08 466.948L604.361 466.948L604.361 458.722L631.08 458.722ZM607.49 437.874L607.49 489.062L596.943 489.062L596.943 437.874L607.49 437.874ZM638.604 437.874L638.604 489.062L628.092 489.062L628.092 437.874L638.604 437.874ZM656.329 470.429L656.329 469.69C656.329 466.901 656.728 464.335 657.525 461.991C658.321 459.624 659.482 457.573 661.005 455.839C662.529 454.104 664.404 452.757 666.63 451.796C668.857 450.812 671.411 450.319 674.294 450.319C677.177 450.319 679.743 450.812 681.993 451.796C684.243 452.757 686.13 454.104 687.654 455.839C689.2 457.573 690.372 459.624 691.169 461.991C691.966 464.335 692.364 466.901 692.364 469.69L692.364 470.429C692.364 473.194 691.966 475.761 691.169 478.128C690.372 480.472 689.2 482.522 687.654 484.28C686.13 486.015 684.255 487.362 682.029 488.323C679.802 489.284 677.247 489.765 674.364 489.765C671.482 489.765 668.915 489.284 666.665 488.323C664.439 487.362 662.552 486.015 661.005 484.28C659.482 482.522 658.321 480.472 657.525 478.128C656.728 475.761 656.329 473.194 656.329 470.429ZM666.454 469.69L666.454 470.429C666.454 472.022 666.595 473.511 666.876 474.894C667.157 476.276 667.603 477.495 668.212 478.55C668.845 479.581 669.665 480.39 670.673 480.976C671.681 481.562 672.911 481.854 674.364 481.854C675.771 481.854 676.978 481.562 677.986 480.976C678.993 480.39 679.802 479.581 680.411 478.55C681.021 477.495 681.466 476.276 681.747 474.894C682.052 473.511 682.204 472.022 682.204 470.429L682.204 469.69C682.204 468.144 682.052 466.69 681.747 465.331C681.466 463.948 681.009 462.729 680.376 461.675C679.767 460.597 678.958 459.753 677.95 459.144C676.943 458.534 675.724 458.229 674.294 458.229C672.864 458.229 671.646 458.534 670.638 459.144C669.654 459.753 668.845 460.597 668.212 461.675C667.603 462.729 667.157 463.948 666.876 465.331C666.595 466.69 666.454 468.144 666.454 469.69ZM720.25 479.218L728.161 451.022L734.594 451.022L732.52 462.097L724.61 489.062L719.231 489.062L720.25 479.218ZM716.243 451.022L721.903 479.183L722.43 489.062L716.102 489.062L706.469 451.022L716.243 451.022ZM741.836 478.726L747.356 451.022L757.164 451.022L747.532 489.062L741.239 489.062L741.836 478.726ZM735.473 451.022L743.348 479.007L744.438 489.062L739.024 489.062L731.114 462.132L729.11 451.022L735.473 451.022ZM824.257 480.765L824.257 435.062L834.452 435.062L834.452 489.062L825.276 489.062L824.257 480.765ZM800.21 470.499L800.21 469.761C800.21 466.854 800.538 464.218 801.194 461.851C801.85 459.46 802.811 457.409 804.077 455.698C805.343 453.987 806.901 452.663 808.753 451.726C810.604 450.788 812.714 450.319 815.081 450.319C817.307 450.319 819.253 450.788 820.917 451.726C822.604 452.663 824.034 453.999 825.206 455.733C826.401 457.444 827.362 459.472 828.089 461.815C828.815 464.136 829.343 466.679 829.671 469.444L829.671 471.062C829.343 473.71 828.815 476.171 828.089 478.444C827.362 480.718 826.401 482.71 825.206 484.421C824.034 486.108 822.604 487.421 820.917 488.358C819.229 489.296 817.261 489.765 815.011 489.765C812.643 489.765 810.534 489.284 808.682 488.323C806.854 487.362 805.307 486.015 804.042 484.28C802.8 482.546 801.85 480.507 801.194 478.163C800.538 475.819 800.21 473.265 800.21 470.499ZM810.335 469.761L810.335 470.499C810.335 472.069 810.452 473.534 810.686 474.894C810.944 476.253 811.354 477.46 811.917 478.515C812.503 479.546 813.253 480.354 814.167 480.94C815.104 481.503 816.241 481.784 817.577 481.784C819.311 481.784 820.741 481.397 821.866 480.624C822.991 479.827 823.846 478.737 824.432 477.354C825.042 475.972 825.393 474.378 825.487 472.573L825.487 467.968C825.417 466.491 825.206 465.167 824.854 463.995C824.526 462.8 824.034 461.78 823.378 460.937C822.745 460.093 821.948 459.437 820.987 458.968C820.05 458.499 818.936 458.265 817.647 458.265C816.335 458.265 815.21 458.569 814.272 459.179C813.335 459.765 812.573 460.573 811.987 461.604C811.425 462.636 811.003 463.854 810.721 465.261C810.464 466.644 810.335 468.144 810.335 469.761ZM863.287 459.319L863.287 489.062L853.162 489.062L853.162 451.022L862.689 451.022L863.287 459.319ZM874.748 450.776L874.572 460.163C874.08 460.093 873.482 460.034 872.779 459.987C872.1 459.917 871.479 459.882 870.916 459.882C869.486 459.882 868.244 460.069 867.189 460.444C866.158 460.796 865.291 461.323 864.588 462.026C863.908 462.729 863.393 463.585 863.041 464.593C862.713 465.601 862.525 466.749 862.479 468.038L860.439 467.405C860.439 464.944 860.686 462.683 861.178 460.62C861.67 458.534 862.385 456.718 863.322 455.171C864.283 453.624 865.455 452.429 866.838 451.585C868.221 450.741 869.803 450.319 871.584 450.319C872.146 450.319 872.721 450.366 873.307 450.46C873.893 450.53 874.373 450.636 874.748 450.776ZM901.017 451.022L901.017 489.062L890.857 489.062L890.857 451.022L901.017 451.022ZM890.224 441.108C890.224 439.632 890.739 438.413 891.771 437.452C892.802 436.491 894.185 436.011 895.919 436.011C897.63 436.011 899.001 436.491 900.032 437.452C901.087 438.413 901.614 439.632 901.614 441.108C901.614 442.585 901.087 443.804 900.032 444.765C899.001 445.726 897.63 446.206 895.919 446.206C894.185 446.206 892.802 445.726 891.771 444.765C890.739 443.804 890.224 442.585 890.224 441.108ZM930.098 459.144L930.098 489.062L919.973 489.062L919.973 451.022L929.465 451.022L930.098 459.144ZM928.621 468.706L925.879 468.706C925.879 465.894 926.243 463.362 926.969 461.112C927.696 458.839 928.715 456.905 930.028 455.312C931.34 453.694 932.899 452.464 934.703 451.62C936.532 450.753 938.571 450.319 940.821 450.319C942.602 450.319 944.231 450.577 945.707 451.093C947.184 451.608 948.45 452.429 949.504 453.554C950.582 454.679 951.403 456.167 951.965 458.019C952.551 459.87 952.844 462.132 952.844 464.804L952.844 489.062L942.649 489.062L942.649 464.769C942.649 463.081 942.414 461.769 941.946 460.831C941.477 459.894 940.786 459.237 939.871 458.862C938.981 458.464 937.879 458.265 936.567 458.265C935.207 458.265 934.024 458.534 933.016 459.073C932.032 459.612 931.211 460.362 930.555 461.323C929.922 462.261 929.442 463.362 929.114 464.628C928.786 465.894 928.621 467.253 928.621 468.706ZM981.468 435.026L981.468 489.062L971.343 489.062L971.343 435.026L981.468 435.026ZM1005.44 451.022L988.922 469.866L980.062 478.831L976.371 471.519L983.402 462.589L993.281 451.022L1005.44 451.022ZM994.933 489.062L983.683 471.483L990.679 465.366L1006.61 489.062L994.933 489.062ZM1049.33 435.062L1059.46 435.062L1059.46 480.343L1058.44 489.062L1049.33 489.062L1049.33 435.062ZM1083.54 469.655L1083.54 470.394C1083.54 473.229 1083.24 475.831 1082.63 478.198C1082.04 480.565 1081.13 482.616 1079.88 484.351C1078.64 486.062 1077.1 487.397 1075.24 488.358C1073.42 489.296 1071.26 489.765 1068.78 489.765C1066.46 489.765 1064.44 489.296 1062.73 488.358C1061.04 487.421 1059.62 486.097 1058.47 484.386C1057.33 482.675 1056.4 480.671 1055.7 478.374C1054.99 476.077 1054.47 473.569 1054.12 470.851L1054.12 469.233C1054.47 466.515 1054.99 464.007 1055.7 461.71C1056.4 459.413 1057.33 457.409 1058.47 455.698C1059.62 453.987 1061.04 452.663 1062.73 451.726C1064.42 450.788 1066.41 450.319 1068.71 450.319C1071.21 450.319 1073.39 450.8 1075.24 451.761C1077.12 452.698 1078.67 454.034 1079.88 455.769C1081.13 457.479 1082.04 459.519 1082.63 461.886C1083.24 464.229 1083.54 466.819 1083.54 469.655ZM1073.42 470.394L1073.42 469.655C1073.42 468.108 1073.3 466.655 1073.06 465.296C1072.85 463.913 1072.48 462.706 1071.94 461.675C1071.4 460.62 1070.66 459.788 1069.72 459.179C1068.81 458.569 1067.63 458.265 1066.17 458.265C1064.79 458.265 1063.62 458.499 1062.66 458.968C1061.7 459.437 1060.9 460.093 1060.27 460.937C1059.66 461.78 1059.2 462.788 1058.9 463.96C1058.59 465.108 1058.4 466.374 1058.33 467.757L1058.33 472.362C1058.4 474.214 1058.71 475.854 1059.25 477.284C1059.81 478.69 1060.65 479.804 1061.78 480.624C1062.93 481.421 1064.42 481.819 1066.24 481.819C1067.67 481.819 1068.86 481.538 1069.79 480.976C1070.73 480.413 1071.46 479.616 1071.97 478.585C1072.51 477.554 1072.89 476.347 1073.1 474.964C1073.31 473.558 1073.42 472.034 1073.42 470.394ZM1099.02 470.429L1099.02 469.69C1099.02 466.901 1099.42 464.335 1100.21 461.991C1101.01 459.624 1102.17 457.573 1103.69 455.839C1105.22 454.104 1107.09 452.757 1109.32 451.796C1111.54 450.812 1114.1 450.319 1116.98 450.319C1119.86 450.319 1122.43 450.812 1124.68 451.796C1126.93 452.757 1128.82 454.104 1130.34 455.839C1131.89 457.573 1133.06 459.624 1133.86 461.991C1134.65 464.335 1135.05 466.901 1135.05 469.69L1135.05 470.429C1135.05 473.194 1134.65 475.761 1133.86 478.128C1133.06 480.472 1131.89 482.522 1130.34 484.28C1128.82 486.015 1126.94 487.362 1124.72 488.323C1122.49 489.284 1119.93 489.765 1117.05 489.765C1114.17 489.765 1111.6 489.284 1109.35 488.323C1107.13 487.362 1105.24 486.015 1103.69 484.28C1102.17 482.522 1101.01 480.472 1100.21 478.128C1099.42 475.761 1099.02 473.194 1099.02 470.429ZM1109.14 469.69L1109.14 470.429C1109.14 472.022 1109.28 473.511 1109.56 474.894C1109.84 476.276 1110.29 477.495 1110.9 478.55C1111.53 479.581 1112.35 480.39 1113.36 480.976C1114.37 481.562 1115.6 481.854 1117.05 481.854C1118.46 481.854 1119.67 481.562 1120.67 480.976C1121.68 480.39 1122.49 479.581 1123.1 478.55C1123.71 477.495 1124.15 476.276 1124.43 474.894C1124.74 473.511 1124.89 472.022 1124.89 470.429L1124.89 469.69C1124.89 468.144 1124.74 466.69 1124.43 465.331C1124.15 463.948 1123.7 462.729 1123.06 461.675C1122.45 460.597 1121.65 459.753 1120.64 459.144C1119.63 458.534 1118.41 458.229 1116.98 458.229C1115.55 458.229 1114.33 458.534 1113.33 459.144C1112.34 459.753 1111.53 460.597 1110.9 461.675C1110.29 462.729 1109.84 463.948 1109.56 465.331C1109.28 466.69 1109.14 468.144 1109.14 469.69ZM1170.71 451.022L1170.71 458.194L1148.56 458.194L1148.56 451.022L1170.71 451.022ZM1154.04 441.636L1164.17 441.636L1164.17 477.601C1164.17 478.702 1164.31 479.546 1164.59 480.132C1164.89 480.718 1165.34 481.128 1165.93 481.362C1166.51 481.573 1167.25 481.679 1168.14 481.679C1168.77 481.679 1169.34 481.655 1169.83 481.608C1170.34 481.538 1170.78 481.468 1171.13 481.397L1171.16 488.851C1170.3 489.132 1169.36 489.354 1168.35 489.519C1167.34 489.683 1166.23 489.765 1165.01 489.765C1162.79 489.765 1160.84 489.401 1159.18 488.675C1157.54 487.925 1156.27 486.729 1155.38 485.089C1154.49 483.448 1154.04 481.292 1154.04 478.62L1154.04 441.636ZM1205.91 451.022L1205.91 458.194L1183.76 458.194L1183.76 451.022L1205.91 451.022ZM1189.24 441.636L1199.37 441.636L1199.37 477.601C1199.37 478.702 1199.51 479.546 1199.79 480.132C1200.09 480.718 1200.54 481.128 1201.12 481.362C1201.71 481.573 1202.45 481.679 1203.34 481.679C1203.97 481.679 1204.53 481.655 1205.03 481.608C1205.54 481.538 1205.98 481.468 1206.33 481.397L1206.36 488.851C1205.5 489.132 1204.56 489.354 1203.55 489.519C1202.54 489.683 1201.43 489.765 1200.21 489.765C1197.98 489.765 1196.04 489.401 1194.37 488.675C1192.73 487.925 1191.47 486.729 1190.58 485.089C1189.69 483.448 1189.24 481.292 1189.24 478.62L1189.24 441.636ZM1233.16 435.062L1233.16 489.062L1223 489.062L1223 435.062L1233.16 435.062ZM1269.83 489.765C1266.88 489.765 1264.23 489.296 1261.89 488.358C1259.54 487.397 1257.55 486.073 1255.91 484.386C1254.29 482.698 1253.05 480.741 1252.19 478.515C1251.32 476.265 1250.88 473.874 1250.88 471.343L1250.88 469.937C1250.88 467.054 1251.29 464.417 1252.12 462.026C1252.94 459.636 1254.11 457.562 1255.63 455.804C1257.18 454.046 1259.05 452.698 1261.26 451.761C1263.46 450.8 1265.94 450.319 1268.71 450.319C1271.4 450.319 1273.79 450.765 1275.88 451.655C1277.97 452.546 1279.71 453.812 1281.12 455.452C1282.55 457.093 1283.63 459.062 1284.35 461.358C1285.08 463.632 1285.44 466.163 1285.44 468.952L1285.44 473.171L1255.21 473.171L1255.21 466.421L1275.49 466.421L1275.49 465.647C1275.49 464.241 1275.24 462.987 1274.72 461.886C1274.23 460.761 1273.48 459.87 1272.47 459.214C1271.46 458.558 1270.17 458.229 1268.6 458.229C1267.27 458.229 1266.12 458.522 1265.16 459.108C1264.2 459.694 1263.41 460.515 1262.8 461.569C1262.22 462.624 1261.77 463.866 1261.47 465.296C1261.19 466.702 1261.04 468.249 1261.04 469.937L1261.04 471.343C1261.04 472.866 1261.26 474.272 1261.68 475.562C1262.12 476.851 1262.74 477.964 1263.54 478.901C1264.36 479.839 1265.35 480.565 1266.49 481.081C1267.67 481.597 1268.99 481.854 1270.47 481.854C1272.29 481.854 1273.99 481.503 1275.56 480.8C1277.16 480.073 1278.53 478.983 1279.68 477.53L1284.6 482.874C1283.8 484.022 1282.71 485.124 1281.33 486.179C1279.97 487.233 1278.33 488.101 1276.41 488.78C1274.49 489.437 1272.29 489.765 1269.83 489.765Z" fill="#67695E"/>
<path d="M232.796 273.636L232.796 276.968L256.316 276.968L256.316 273.636L232.796 273.636ZM249.68 281.7L249.652 282.176C248.98 288.616 248.168 292.004 247.02 292.844C246.6 293.152 246.124 293.18 245.396 293.18C244.388 293.18 241.924 293.152 239.6 292.984C240.3 293.88 240.832 295.28 240.888 296.232C243.044 296.344 245.172 296.372 246.376 296.288C247.944 296.176 248.952 295.924 249.904 294.972C251.332 293.628 252.2 290.408 253.012 283.156C253.096 282.708 253.152 281.7 253.152 281.7L249.68 281.7ZM237.5 285.284C237.752 285.004 238.956 284.836 240.104 284.836L250.94 284.836L250.94 281.7L239.096 281.7L237.5 282.596L237.5 285.284ZM237.5 285.284C237.5 284.612 239.544 283.52 239.544 283.52L239.544 283.436C241.252 281.56 243.156 278.76 244.388 276.212L240.804 274.728C239.936 277.276 238.368 279.88 237.836 280.552C237.332 281.28 236.828 281.756 236.324 281.896C236.716 282.848 237.304 284.556 237.5 285.284ZM234.504 319.376C234.784 319.096 236.156 318.956 237.584 318.956L252.592 318.956L252.62 315.792L236.296 315.792L234.504 316.8L234.504 319.376ZM234.504 319.376C234.504 318.704 236.884 317.612 236.884 317.612L236.884 317.556C237.724 315.904 238.816 313.272 239.32 310.92L236.044 310.08C235.708 312.32 234.784 314.616 234.504 315.232C234.196 315.876 233.832 316.296 233.44 316.436C233.804 317.248 234.336 318.676 234.504 319.376ZM233.16 306.216L233.16 309.492L255.868 309.492L255.868 306.216L233.16 306.216ZM244.08 307.476C243.296 317.808 240.636 323.744 232.572 326.712C233.3 327.356 234.476 328.784 234.868 329.484C243.268 325.816 246.376 319.208 247.496 307.728L244.08 307.476ZM251.444 316.184C250.968 320.048 249.932 325.228 248.392 328.392L251.612 329.568C253.376 325.984 254.552 321.168 255.252 316.94L255.42 316.38L252.396 315.344L251.108 316.184L251.444 316.184Z" fill="#67695E"/>
<path d="M277.084 428.916L277.084 451.036L280.668 451.036L280.668 432.332L294.36 432.332L294.36 451.036L298.112 451.036L298.112 428.916L277.084 428.916ZM276.664 459.568L276.664 463.264L298.168 463.264L298.168 459.568L276.664 459.568ZM277.588 494.644C277.588 493.972 280.08 492.628 280.08 492.628L280.08 492.516C283.608 487.476 287.5 480.448 290.3 472.944L286.52 471.852C284.308 478.796 280.416 486.104 279.1 487.952C277.868 489.856 277.14 490.92 276.188 491.228C276.664 492.18 277.364 493.944 277.588 494.644ZM277.588 494.644C279.156 494.14 281.424 494.308 298.924 493.58C298.784 492.88 298.672 491.256 298.728 490.332L279.856 490.892L277.532 492.04L277.588 494.644Z" fill="#67695E"/>
<path d="M434.996 448.808L434.996 460.624L438.468 460.624L438.468 445.952L438.02 445.784L434.996 448.808ZM442.864 439.176C438.72 444.44 431.58 448.864 424.496 451.272C425.14 452 426.176 453.596 426.568 454.408C433.736 451.524 441.212 446.736 445.944 440.856L442.864 439.176ZM438.244 435.256C435.724 438.308 430.46 441.556 425.56 443.292C426.148 443.964 427.128 445.28 427.576 446.092C432.784 444.02 438.104 440.548 441.548 436.824L438.244 435.256ZM425.588 489.644C425.588 488.972 428.08 487.628 428.08 487.628L428.08 487.516C431.608 482.476 435.5 475.448 438.3 467.944L434.52 466.852C432.308 473.796 428.416 481.104 427.1 482.952C425.868 484.856 425.14 485.92 424.188 486.228C424.664 487.18 425.364 488.944 425.588 489.644ZM425.588 489.644C427.156 489.14 429.424 489.308 446.924 488.58C446.784 487.88 446.672 486.256 446.728 485.332L427.856 485.892L425.532 487.04L425.588 489.644Z" fill="#67695E"/>
<path d="M319.444 456.832C319.182 457.093 318.837 457.411 318.408 457.784C317.978 458.157 317.512 458.549 317.008 458.96C316.522 459.371 316.037 459.763 315.552 460.136C315.085 460.491 314.674 460.789 314.32 461.032L311.548 461.032L311.548 460.668C311.846 460.313 312.192 459.903 312.584 459.436C312.994 458.951 313.396 458.456 313.788 457.952C314.18 457.429 314.506 456.963 314.768 456.552L319.444 456.552L319.444 456.832Z" fill="#67695E"/>
<path d="M407.216 276.956C405.06 280.008 400.72 284.936 396.94 288.716C401.616 293.224 406.068 298.348 408.224 301.82L411.78 299.776C409.568 296.696 405.396 292.3 401.42 288.688C404.584 285.496 408.28 282.052 410.744 278.524L407.216 276.956ZM393.664 320.568L393.664 324.264L415.168 324.264L415.168 320.568L393.664 320.568Z" fill="#67695E"/>
<path d="M550.668 271.06L550.668 273.634L564.22 273.634L564.22 277.44L552.538 277.44L552.538 279.992L566.904 279.992L566.904 271.06L550.668 271.06ZM551.504 277.44L551.504 279.904C551.504 282.104 551.13 285.8 547.984 288.11C548.644 288.484 549.722 289.32 550.184 289.804C553.748 287.12 554.254 282.698 554.254 279.948L554.254 277.44L551.504 277.44ZM563.318 292.422C560.436 299.484 555.684 305.292 549.612 308.636C550.206 309.186 551.262 310.33 551.658 310.924C557.796 307.14 562.834 300.87 566.046 293.258L563.318 292.422ZM551.108 295.986C556.102 300.43 562.46 306.7 565.166 310.858L567.52 308.526C564.594 304.346 557.972 298.362 553.088 294.16L551.108 295.986ZM567.52 330.372C566.706 330.856 565.672 331.868 564.99 332.396C560.898 329.58 557.598 325.334 555.266 318.536C553.836 319.504 552.494 320.406 550.69 321.396C550.294 320.472 549.722 319.548 549.194 318.756C551.24 317.964 553.792 316.556 555.376 315.412L557.444 316.006C559.424 322.98 562.504 327.27 567.52 330.372Z" fill="#67695E"/>
<path d="M711 275.962L711 278.514L725.41 278.514L725.41 275.962L711 275.962ZM709.042 275.962L709.042 282.034C709.042 285.114 708.8 289.25 706.248 292.066C706.886 292.352 708.052 293.122 708.514 293.584C711.264 290.526 711.704 285.554 711.704 282.056L711.704 275.962L709.042 275.962ZM721.318 304.422C718.436 311.484 713.684 317.292 707.612 320.636C708.206 321.186 709.262 322.33 709.658 322.924C715.796 319.14 720.834 312.87 724.046 305.258L721.318 304.422ZM709.108 307.986C714.102 312.43 720.46 318.7 723.166 322.858L725.52 320.526C722.594 316.346 715.972 310.362 711.088 306.16L709.108 307.986Z" fill="#67695E"/>
<path d="M881.11 274.042L881.11 274.504C880.626 281.39 880.01 284.426 879.24 285.13C878.932 285.416 878.668 285.482 878.206 285.482C877.612 285.482 876.336 285.46 875.016 285.328C875.522 286.076 875.852 287.242 875.918 288.012C877.216 288.078 878.514 288.078 879.284 287.99C880.252 287.88 880.89 287.638 881.55 286.868C882.562 285.768 883.178 282.754 883.75 275.252C883.816 274.9 883.86 274.042 883.86 274.042L881.11 274.042ZM868.262 276.858C868.46 276.638 869.538 276.528 870.66 276.528L882.364 276.528L882.386 274.042L869.67 274.042L868.262 274.834L868.262 276.858ZM868.262 276.836C868.262 276.308 870.154 275.384 870.154 275.384L870.154 275.362C870.77 273.888 871.54 271.622 871.826 269.664L869.164 268.938C869.01 270.852 868.372 272.854 868.196 273.404C867.976 273.976 867.69 274.328 867.382 274.438C867.69 275.098 868.108 276.286 868.262 276.836ZM875.148 268.85C874.422 277.76 872.42 283.216 865.864 286.032C866.414 286.582 867.338 287.77 867.624 288.342C874.532 284.91 876.93 278.904 877.854 269.07L875.148 268.85ZM866.986 299.232L866.986 302.136L883.882 302.136L883.882 299.232L866.986 299.232ZM868.856 325.016C869.076 324.796 870.11 324.686 871.21 324.686L882.364 324.686L882.364 322.156L870.242 322.156L868.856 322.948L868.856 325.016ZM881.352 322.156L881.352 322.794C880.802 325.588 879.35 329.262 878.118 331.154C878.756 331.484 879.724 332.122 880.23 332.518C881.792 330.23 883.398 326.644 884.234 323.08L882.298 322.046L881.792 322.156L881.352 322.156ZM868.856 325.016C868.856 324.488 870.638 323.586 870.638 323.586L870.638 323.542C871.474 322.09 872.508 319.802 873.014 317.8L870.242 317.052C869.912 318.988 869.142 320.946 868.856 321.474C868.614 322.024 868.284 322.42 867.954 322.508C868.262 323.212 868.702 324.444 868.856 325.016ZM867.448 314.302L867.448 316.81L880.604 316.81L880.604 314.302L867.448 314.302ZM879.79 314.302L879.79 314.588C879.35 316.524 878.382 320.11 877.502 322.816L880.142 323.256C881.022 320.55 881.99 317.228 882.584 314.566L880.56 314.192L880.12 314.302L879.79 314.302Z" fill="#67695E"/>
<path d="M1038.82 267.07L1038.82 286.276L1041.53 286.276L1041.53 267.07L1038.82 267.07ZM1029.52 282.734C1030.42 282.14 1031.69 281.656 1040.43 279.39C1040.23 278.84 1039.94 277.85 1039.81 277.102L1030.55 279.28L1029.25 280.248L1029.52 282.734ZM1029.52 282.734C1029.52 281.766 1032.13 280.424 1032.13 280.424L1032.13 267.862L1029.54 267.862L1029.54 278.312C1029.54 279.258 1028.83 279.896 1028.28 280.182C1028.75 280.798 1029.34 282.03 1029.52 282.734ZM1026.99 297.232L1026.99 300.136L1043.88 300.136L1043.88 297.232L1026.99 297.232ZM1025.97 316.614L1025.97 319.276L1045.03 319.276L1045.03 316.614L1025.97 316.614ZM1029.98 311.73L1029.98 324.952C1029.98 328.45 1031.19 329.594 1034.51 329.594C1035.19 329.594 1038.84 329.594 1039.81 329.594C1041.07 329.594 1042.43 329.55 1043.05 329.352C1042.94 328.736 1042.78 327.548 1042.74 326.866C1042.06 326.998 1040.89 327.086 1039.92 327.086C1038.91 327.086 1035.21 327.086 1034.38 327.086C1033.01 327.086 1032.64 326.58 1032.64 325.084L1032.64 311.73L1029.98 311.73ZM1038.18 311.51L1038.18 313.314C1038.18 316.526 1038.03 320.596 1036.38 324.292C1037.17 324.578 1038.29 325.194 1038.89 325.678C1040.67 321.586 1040.8 316.944 1040.8 313.336L1040.8 311.51L1038.18 311.51Z" fill="#67695E"/>
<path d="M1201.11 278.042L1201.11 278.504C1200.63 285.39 1200.01 288.426 1199.24 289.13C1198.93 289.416 1198.67 289.482 1198.21 289.482C1197.61 289.482 1196.34 289.46 1195.02 289.328C1195.52 290.076 1195.85 291.242 1195.92 292.012C1197.22 292.078 1198.51 292.078 1199.28 291.99C1200.25 291.88 1200.89 291.638 1201.55 290.868C1202.56 289.768 1203.18 286.754 1203.75 279.252C1203.82 278.9 1203.86 278.042 1203.86 278.042L1201.11 278.042ZM1188.26 280.858C1188.46 280.638 1189.54 280.528 1190.66 280.528L1202.36 280.528L1202.39 278.042L1189.67 278.042L1188.26 278.834L1188.26 280.858ZM1188.26 280.836C1188.26 280.308 1190.15 279.384 1190.15 279.384L1190.15 279.362C1190.77 277.888 1191.54 275.622 1191.83 273.664L1189.16 272.938C1189.01 274.852 1188.37 276.854 1188.2 277.404C1187.98 277.976 1187.69 278.328 1187.38 278.438C1187.69 279.098 1188.11 280.286 1188.26 280.836ZM1195.15 272.85C1194.42 281.76 1192.42 287.216 1185.86 290.032C1186.41 290.582 1187.34 291.77 1187.62 292.342C1194.53 288.91 1196.93 282.904 1197.85 273.07L1195.15 272.85ZM1188.86 317.016C1189.08 316.796 1190.11 316.686 1191.21 316.686L1202.36 316.686L1202.36 314.156L1190.24 314.156L1188.86 314.948L1188.86 317.016ZM1201.35 314.156L1201.35 314.794C1200.8 317.588 1199.35 321.262 1198.12 323.154C1198.76 323.484 1199.72 324.122 1200.23 324.518C1201.79 322.23 1203.4 318.644 1204.23 315.08L1202.3 314.046L1201.79 314.156L1201.35 314.156ZM1188.86 317.016C1188.86 316.488 1190.64 315.586 1190.64 315.586L1190.64 315.542C1191.47 314.09 1192.51 311.802 1193.01 309.8L1190.24 309.052C1189.91 310.988 1189.14 312.946 1188.86 313.474C1188.61 314.024 1188.28 314.42 1187.95 314.508C1188.26 315.212 1188.7 316.444 1188.86 317.016ZM1187.45 306.302L1187.45 308.81L1200.6 308.81L1200.6 306.302L1187.45 306.302ZM1199.79 306.302L1199.79 306.588C1199.35 308.524 1198.38 312.11 1197.5 314.816L1200.14 315.256C1201.02 312.55 1201.99 309.228 1202.58 306.566L1200.56 306.192L1200.12 306.302L1199.79 306.302Z" fill="#67695E"/>
<path d="M1340.99 278.232L1340.99 281.136L1357.88 281.136L1357.88 278.232L1340.99 278.232ZM1340.88 304.116C1343.67 306.536 1347.21 309.946 1348.97 311.948L1351.02 309.704C1349.19 307.768 1345.72 304.688 1342.86 302.334L1340.88 304.116ZM1355.9 302.268C1353.79 304.908 1350.49 307.944 1347.96 309.726L1350.12 311.464C1352.6 309.572 1355.81 306.69 1358.28 303.984L1355.9 302.268ZM1348.16 309.374L1348.16 320.682L1350.95 320.682L1350.95 309.374L1348.16 309.374Z" fill="#67695E"/>
<path d="M1218.6 294.368C1218.39 294.573 1218.12 294.823 1217.78 295.116C1217.45 295.409 1217.08 295.717 1216.68 296.04C1216.3 296.363 1215.92 296.671 1215.54 296.964C1215.17 297.243 1214.85 297.477 1214.57 297.668L1212.39 297.668L1212.39 297.382C1212.63 297.103 1212.9 296.781 1213.21 296.414C1213.53 296.033 1213.85 295.644 1214.15 295.248C1214.46 294.837 1214.72 294.471 1214.92 294.148L1218.6 294.148L1218.6 294.368Z" fill="#67695E"/>
<path d="M1373.6 286.368C1373.39 286.573 1373.12 286.823 1372.78 287.116C1372.45 287.409 1372.08 287.717 1371.68 288.04C1371.3 288.363 1370.92 288.671 1370.54 288.964C1370.17 289.243 1369.85 289.477 1369.57 289.668L1367.39 289.668L1367.39 289.382C1367.63 289.103 1367.9 288.781 1368.21 288.414C1368.53 288.033 1368.85 287.644 1369.15 287.248C1369.46 286.837 1369.72 286.471 1369.92 286.148L1373.6 286.148L1373.6 286.368Z" fill="#67695E"/>
<path d="M899.599 298.368C899.393 298.573 899.122 298.823 898.785 299.116C898.447 299.409 898.081 299.717 897.685 300.04C897.303 300.363 896.922 300.671 896.541 300.964C896.174 301.243 895.851 301.477 895.573 301.668L893.395 301.668L893.395 301.382C893.629 301.103 893.901 300.781 894.209 300.414C894.531 300.033 894.847 299.644 895.155 299.248C895.463 298.837 895.719 298.471 895.925 298.148L899.599 298.148L899.599 298.368Z" fill="#67695E"/>
<path d="M425.436 306L427.459 307.982L429.482 306L432.846 306L432.846 306.137L428.717 309.965L426.215 309.965L422.072 306.123L422.072 306L425.436 306Z" fill="#67695E"/>
<path d="M577.436 299L579.459 300.982L581.482 299L584.846 299L584.846 299.137L580.717 302.965L578.215 302.965L574.072 299.123L574.072 299L577.436 299Z" fill="#67695E"/>
<path d="M740.444 293.832C740.182 294.093 739.837 294.411 739.408 294.784C738.978 295.157 738.512 295.549 738.008 295.96C737.522 296.371 737.037 296.763 736.552 297.136C736.085 297.491 735.674 297.789 735.32 298.032L732.548 298.032L732.548 297.668C732.846 297.313 733.192 296.903 733.584 296.436C733.994 295.951 734.396 295.456 734.788 294.952C735.18 294.429 735.506 293.963 735.768 293.552L740.444 293.552L740.444 293.832Z" fill="#67695E"/>
</svg>
