<svg width="641" height="326" viewBox="0 0 641 326" fill="none" xmlns="http://www.w3.org/2000/svg">
<rect x="7.5" y="7.5" width="626" height="311" rx="48.5" fill="white" stroke="#BEE6F6" stroke-width="15"/>
<path d="M87.944 118.936V120.772H82.292V118.936H87.944ZM82.292 125.524V123.58H87.944V125.524H82.292ZM91.976 128.62V115.876H78.116V148.132H82.292V128.62H91.976ZM91.4 136.54V133.84H94.748V136.54H91.4ZM102.452 140.032V136.54H98.492V133.84H101.876V130.456H84.488V133.84H87.764V136.54H83.984V140.032H87.62C87.26 141.868 86.252 144.208 83.948 145.648C84.776 146.224 86.072 147.34 86.684 148.096C89.744 146.008 90.932 142.516 91.292 140.032H94.748V147.448H98.492V140.032H102.452ZM98.42 125.596V123.58H104.252V125.596H98.42ZM104.252 118.936V120.772H98.42V118.936H104.252ZM108.464 115.876H94.352V128.692H104.252V143.092C104.252 143.596 104.072 143.812 103.496 143.812C102.956 143.848 101.192 143.848 99.572 143.776C100.148 144.892 100.724 146.836 100.868 148.024C103.604 148.024 105.476 147.916 106.772 147.196C108.068 146.512 108.464 145.324 108.464 143.128V115.876ZM154.616 122.68V126.892H147.272V122.68H154.616ZM158.396 130.636V118.936H153.464C152.996 117.46 152.42 115.768 151.844 114.4L148.136 115.336C148.532 116.452 149 117.712 149.324 118.936H143.348V128.08C143.348 132.94 143.132 139.816 140.72 144.64C141.548 145.072 143.312 146.404 143.96 147.088C146.336 142.588 147.056 135.892 147.236 130.636H158.396ZM150.764 142.228V137.08H155.228V142.228H150.764ZM147.128 133.66V147.628H150.764V145.612H155.228V147.16H159.008V133.66H147.128ZM165.38 125.2H169.124C168.764 128.512 168.188 131.428 167.396 134.056C166.424 131.5 165.74 128.692 165.2 125.74L165.38 125.2ZM174.74 125.2V121.24H166.604C167.108 119.26 167.504 117.172 167.828 115.084L163.832 114.472C163.004 120.484 161.348 126.244 158.468 129.7C159.404 130.348 160.916 131.932 161.528 132.652C161.96 132.148 162.356 131.572 162.752 130.924C163.4 133.768 164.228 136.36 165.272 138.736C163.76 141.256 161.708 143.272 159.008 144.856C159.8 145.684 160.952 147.448 161.348 148.348C163.868 146.764 165.812 144.892 167.432 142.696C168.872 144.82 170.564 146.62 172.688 148.024C173.3 146.98 174.452 145.54 175.352 144.784C173.012 143.38 171.104 141.364 169.628 138.88C171.392 135.1 172.472 130.564 173.12 125.2H174.74ZM216.968 123.148L216.176 123.292H206.78V127.612H214.592C212.972 133.912 209.804 138.844 205.628 141.652C206.708 142.3 208.436 144.028 209.192 145.036C214.268 141.292 218.228 133.984 219.884 124.228L216.968 123.148ZM235.004 120.124C233.168 122.68 230.324 125.74 227.768 128.116C226.724 125.812 225.896 123.4 225.212 120.88V114.544H220.676V142.588C220.676 143.2 220.424 143.452 219.704 143.452C218.948 143.452 216.68 143.488 214.304 143.38C214.988 144.64 215.816 146.8 215.996 148.168C219.272 148.168 221.612 147.988 223.16 147.196C224.636 146.476 225.212 145.18 225.212 142.588V131.968C227.804 137.836 231.44 142.588 236.66 145.54C237.416 144.244 238.892 142.444 239.972 141.544C235.544 139.456 232.16 135.964 229.604 131.644C232.52 129.376 236.12 125.992 239 122.932L235.004 120.124ZM285.224 122.104H274.892V125.416H300.38V122.104H289.652V120.34H303.404V116.956H289.652V114.508H285.224V116.956H271.832V120.34H285.224V122.104ZM285.944 143.704V138.232H279.5V135.712H285.944V130.312H289.004V135.712H295.556V138.232H289.004V143.704H285.944ZM282.056 130.312V132.436H276.08V130.312H282.056ZM298.904 132.436H292.964V130.312H298.904V132.436ZM293 143.704V141.472H299.624V133.3H303.224V126.928H271.94V133.3H275.648V141.472H281.912V143.704H271.328V147.196H304.052V143.704H293ZM350.888 131.32V129.52H354.524V131.32H350.888ZM350.888 125.02H354.524V126.748H350.888V125.02ZM362.444 125.02V126.748H358.7V125.02H362.444ZM362.444 131.32H358.7V129.52H362.444V131.32ZM354.524 142.696H358.7V139.348H368.564V135.856H358.7V134.272H366.548V122.032H358.7V120.556H368.132V117.1H358.7V114.544H354.524V117.1H345.56V120.556H354.524V122.032H347V134.272H354.524V135.856H345.128V139.348H354.524V142.696ZM344.948 121.132C343.796 119.404 341.312 117.028 339.296 115.408L336.02 117.856C338.036 119.584 340.412 122.068 341.42 123.832L344.948 121.132ZM343.976 128.476H335.876V132.4H339.908V140.248C338.468 141.472 336.848 142.66 335.444 143.56L337.46 147.808C339.296 146.26 340.772 144.892 342.212 143.488C344.372 146.26 347.252 147.304 351.536 147.484C355.928 147.664 363.56 147.592 368.024 147.376C368.24 146.188 368.852 144.208 369.356 143.2C364.388 143.596 355.892 143.704 351.572 143.524C347.9 143.38 345.38 142.372 343.976 139.96V128.476ZM425.804 121.528C425.48 122.968 424.94 124.768 424.436 126.064H420.656L420.8 126.028C420.728 124.84 420.26 123.04 419.72 121.528H425.804ZM425.696 135.892C425.228 137.584 424.544 138.988 423.608 140.104C422.06 139.528 420.548 138.988 419.144 138.556C419.576 137.692 420.044 136.792 420.476 135.892H425.696ZM433.832 129.7V126.064H428.288C428.828 124.768 429.44 123.184 430.016 121.528H432.968V117.928H424.94V114.508H420.584V117.928H412.556V121.528H416.552L415.832 121.672C416.3 123.004 416.696 124.732 416.876 126.064H411.476V129.7H418.784C418.46 130.528 418.1 131.392 417.704 132.292H412.088L411.8 129.988L409.064 130.708V125.236H411.836V121.312H409.064V114.544H404.96V121.312H400.784V125.236H404.96V131.716C403.124 132.148 401.432 132.544 400.064 132.832L400.964 136.972L404.96 135.892V143.272C404.96 143.812 404.78 143.956 404.348 143.956C403.88 143.992 402.404 143.992 401 143.92C401.54 145.108 402.08 146.944 402.188 148.096C404.672 148.096 406.364 147.952 407.552 147.232C408.704 146.584 409.064 145.432 409.064 143.308V134.74C409.964 134.488 410.864 134.2 411.764 133.948V135.892H416.084C415.184 137.836 414.248 139.708 413.42 141.148L417.128 142.336L417.488 141.688C418.352 141.976 419.252 142.336 420.152 142.696C417.848 143.776 414.752 144.388 410.612 144.748C411.224 145.54 411.872 147.016 412.196 148.204C417.632 147.484 421.556 146.404 424.364 144.532C426.884 145.756 429.188 147.016 430.7 148.132L433.4 144.928C431.888 143.884 429.728 142.768 427.352 141.688C428.504 140.14 429.332 138.232 429.908 135.892H433.796V132.292H422.204C422.636 131.428 423.032 130.528 423.392 129.7H433.832ZM478.472 129.484H471.056V127.972H478.472V129.484ZM473.828 133.12H471.056V131.752H473.828V133.12ZM473.828 124.408V125.704H471.056V124.408H473.828ZM473.864 121.384H478.112V119.836H485.78V121.384H486.032C485.204 124.048 483.728 126.604 481.82 128.368V125.704H477.32V124.408H482.792V121.888H467.6V135.676H482.972V133.12H477.32V131.752H481.82V128.872C482.756 129.412 484.088 130.348 484.736 130.924C485.6 130.096 486.392 129.088 487.148 127.936H497.66V124.552H488.948C489.272 123.76 489.596 122.968 489.848 122.14L486.212 121.384H490.064V119.836H498.092V116.272H490.064V114.544H485.78V116.272H478.112V114.544H473.864V116.272H465.98V119.836H473.864V121.384ZM496.76 134.632V131.284H485.06V134.632H496.76ZM473.468 139.852H476.816V143.524H473.468V139.852ZM483.8 139.852V143.524H480.38V139.852H483.8ZM490.82 139.852V143.524H487.4V139.852H490.82ZM494.996 143.524V136.756H469.544V143.524H465.728V147.016H498.308V143.524H494.996ZM538.34 123.472H542.552V120.772H550.904V123.472H555.188V120.772H562.784V116.956H555.188V114.544H550.904V116.956H542.552V114.544H538.34V116.956H530.888V120.772H538.34V123.472ZM542.012 128.296H550.832V132.832H542.012V128.296ZM562.856 132.832H555.152V128.296H560.84V124.444H533.264V128.296H537.836V132.832H530.78V136.756H545C541.004 139.744 535.46 142.3 530.348 143.488C531.32 144.496 532.436 146.08 533.048 147.232C539.384 145.252 546.584 141.22 550.832 136.864V143.308C550.832 143.92 550.616 144.1 549.86 144.1C549.068 144.1 546.368 144.1 544.028 144.028C544.676 145.144 545.36 146.908 545.612 148.132C548.852 148.132 551.264 148.06 552.92 147.412C554.612 146.8 555.152 145.72 555.152 143.38V136.756H562.856V132.832Z" fill="#67695E"/>
<path d="M132.076 212.84V205.82H144.28V212.84H132.076ZM138.412 191.78C137.116 194.156 135.424 196.388 133.408 198.368C131.896 196.82 129.592 195.02 127.684 193.616C128.296 193.004 128.872 192.392 129.448 191.78H138.412ZM148.744 201.932H135.892C139.492 198.512 142.408 194.3 144.244 189.368L141.292 187.82L140.572 188.036H132.4C133.048 187.1 133.66 186.164 134.2 185.228L129.376 184.328C127.288 188.252 123.328 192.644 117.424 195.776C118.396 196.496 119.8 198.08 120.448 199.124C121.888 198.26 123.22 197.36 124.444 196.388C126.352 197.9 128.512 199.772 129.952 201.356C126.208 204.128 121.852 206.288 117.352 207.584C118.252 208.448 119.332 210.212 119.836 211.4C122.572 210.464 125.272 209.312 127.792 207.872V218.096H132.076V216.692H144.28V218.132H148.744V201.932ZM168.76 203.984C168.112 203.264 165.34 200.456 164.368 199.628V198.692H167.968V195.452C168.904 195.92 169.984 196.568 170.524 197C171.82 195.236 173.08 192.68 173.98 189.944C178.408 189.512 183.304 188.792 187.048 187.784L184.024 184.796C181.432 185.588 177.4 186.308 173.476 186.776L170.74 186.2C170.056 189.404 168.76 192.644 167.032 194.804H164.368V189.512C165.88 189.116 167.284 188.648 168.544 188.144L165.556 185.12C163.108 186.272 159.04 187.316 155.332 187.964C155.8 188.756 156.304 190.196 156.484 191.06C157.708 190.88 159.004 190.7 160.3 190.448V194.804H155.656V198.692H159.616C158.572 202.148 156.844 206.072 155.08 208.412C155.728 209.492 156.664 211.256 157.024 212.48C158.212 210.788 159.328 208.376 160.3 205.784V218.132H164.368V203.948C165.16 205.172 165.952 206.432 166.384 207.26L168.76 203.984ZM182.296 189.98C183.592 191.996 184.924 194.804 185.464 196.604L189.136 195.02C188.524 193.184 187.192 190.592 185.788 188.576L182.296 189.98ZM180.352 208.016V205.856H183.556V208.016H180.352ZM173.512 205.856H176.5V208.016H173.512V205.856ZM176.5 200.672V202.724H173.512V200.672H176.5ZM183.556 200.672V202.724H180.352V200.672H183.556ZM189.28 208.016H187.516V197.324H180.352V195.272H177.76L180.82 194.408C180.64 193.076 179.992 191.132 179.236 189.692L175.708 190.628C176.356 192.032 176.932 193.976 177.076 195.272H176.5V197.324H169.624V208.016H167.392V211.472H169.624V218.06H173.512V211.472H183.556V213.812C183.556 214.244 183.376 214.352 182.908 214.388C182.44 214.388 180.892 214.424 179.488 214.352C180.028 215.324 180.64 216.98 180.82 218.06C183.088 218.06 184.744 218.024 185.932 217.376C187.156 216.764 187.516 215.72 187.516 213.884V211.472H189.28V208.016ZM210.087 196.424C211.995 196.424 213.507 194.984 213.507 193.076C213.507 191.096 211.995 189.656 210.087 189.656C208.179 189.656 206.667 191.096 206.667 193.076C206.667 194.984 208.179 196.424 210.087 196.424ZM210.087 213.596C211.995 213.596 213.507 212.156 213.507 210.248C213.507 208.268 211.995 206.828 210.087 206.828C208.179 206.828 206.667 208.268 206.667 210.248C206.667 212.156 208.179 213.596 210.087 213.596ZM253.003 215H247.729V204.031H237.446V215H232.173V189.406H237.446V199.777H247.729V189.406H253.003V215ZM258.301 205.314C258.301 203.428 258.664 201.746 259.391 200.27C260.117 198.793 261.16 197.65 262.52 196.842C263.891 196.033 265.479 195.629 267.283 195.629C269.85 195.629 271.941 196.414 273.559 197.984C275.188 199.555 276.096 201.688 276.283 204.383L276.318 205.684C276.318 208.602 275.504 210.945 273.875 212.715C272.246 214.473 270.061 215.352 267.318 215.352C264.576 215.352 262.385 214.473 260.744 212.715C259.115 210.957 258.301 208.566 258.301 205.543V205.314ZM263.381 205.684C263.381 207.488 263.721 208.871 264.4 209.832C265.08 210.781 266.053 211.256 267.318 211.256C268.549 211.256 269.51 210.787 270.201 209.85C270.893 208.9 271.238 207.389 271.238 205.314C271.238 203.545 270.893 202.174 270.201 201.201C269.51 200.229 268.537 199.742 267.283 199.742C266.041 199.742 265.08 200.229 264.4 201.201C263.721 202.162 263.381 203.656 263.381 205.684ZM297.788 208.092L300.284 195.98H305.189L300.337 215H296.083L292.48 203.029L288.876 215H284.64L279.788 195.98H284.693L287.171 208.074L290.652 195.98H294.325L297.788 208.092ZM319.494 205.35C319.494 202.385 320.156 200.023 321.48 198.266C322.816 196.508 324.638 195.629 326.947 195.629C328.798 195.629 330.328 196.32 331.535 197.703V188H336.632V215H332.045L331.798 212.979C330.533 214.561 328.904 215.352 326.912 215.352C324.673 215.352 322.875 214.473 321.515 212.715C320.168 210.945 319.494 208.49 319.494 205.35ZM324.574 205.719C324.574 207.5 324.884 208.865 325.505 209.814C326.127 210.764 327.029 211.238 328.213 211.238C329.783 211.238 330.89 210.576 331.535 209.252V201.746C330.902 200.422 329.806 199.76 328.248 199.76C325.798 199.76 324.574 201.746 324.574 205.719ZM353.057 200.744C352.366 200.65 351.757 200.604 351.229 200.604C349.307 200.604 348.048 201.254 347.45 202.555V215H342.37V195.98H347.169L347.309 198.248C348.329 196.502 349.741 195.629 351.546 195.629C352.108 195.629 352.636 195.705 353.128 195.857L353.057 200.744ZM362.68 215H357.582V195.98H362.68V215ZM357.283 191.059C357.283 190.297 357.535 189.67 358.039 189.178C358.555 188.686 359.252 188.439 360.131 188.439C360.998 188.439 361.689 188.686 362.205 189.178C362.721 189.67 362.979 190.297 362.979 191.059C362.979 191.832 362.715 192.465 362.188 192.957C361.672 193.449 360.986 193.695 360.131 193.695C359.275 193.695 358.584 193.449 358.057 192.957C357.541 192.465 357.283 191.832 357.283 191.059ZM373.357 195.98L373.515 198.178C374.874 196.479 376.696 195.629 378.982 195.629C380.997 195.629 382.497 196.221 383.482 197.404C384.466 198.588 384.97 200.357 384.993 202.713V215H379.913V202.836C379.913 201.758 379.679 200.979 379.21 200.498C378.741 200.006 377.962 199.76 376.872 199.76C375.443 199.76 374.37 200.369 373.655 201.588V215H368.575V195.98H373.357ZM397.569 207.371L395.741 209.199V215H390.661V188H395.741V202.959L396.725 201.693L401.594 195.98H407.694L400.821 203.908L408.291 215H402.455L397.569 207.371ZM439.595 205.666C439.595 208.713 438.944 211.092 437.643 212.803C436.343 214.502 434.526 215.352 432.194 215.352C430.132 215.352 428.485 214.561 427.255 212.979L427.026 215H422.456V188H427.536V197.686C428.708 196.314 430.249 195.629 432.159 195.629C434.479 195.629 436.296 196.484 437.608 198.195C438.932 199.895 439.595 202.291 439.595 205.385V205.666ZM434.514 205.297C434.514 203.375 434.21 201.975 433.6 201.096C432.991 200.205 432.083 199.76 430.876 199.76C429.259 199.76 428.145 200.422 427.536 201.746V209.252C428.157 210.588 429.282 211.256 430.911 211.256C432.552 211.256 433.63 210.447 434.145 208.83C434.391 208.057 434.514 206.879 434.514 205.297ZM443.75 205.314C443.75 203.428 444.113 201.746 444.84 200.27C445.566 198.793 446.609 197.65 447.969 196.842C449.34 196.033 450.928 195.629 452.732 195.629C455.299 195.629 457.391 196.414 459.008 197.984C460.637 199.555 461.545 201.688 461.732 204.383L461.768 205.684C461.768 208.602 460.953 210.945 459.324 212.715C457.695 214.473 455.51 215.352 452.768 215.352C450.025 215.352 447.834 214.473 446.193 212.715C444.564 210.957 443.75 208.566 443.75 205.543V205.314ZM448.83 205.684C448.83 207.488 449.17 208.871 449.85 209.832C450.529 210.781 451.502 211.256 452.768 211.256C453.998 211.256 454.959 210.787 455.65 209.85C456.342 208.9 456.688 207.389 456.688 205.314C456.688 203.545 456.342 202.174 455.65 201.201C454.959 200.229 453.986 199.742 452.732 199.742C451.49 199.742 450.529 200.229 449.85 201.201C449.17 202.162 448.83 203.656 448.83 205.684ZM472.779 191.305V195.98H476.03V199.707H472.779V209.199C472.779 209.902 472.913 210.406 473.183 210.711C473.452 211.016 473.968 211.168 474.73 211.168C475.292 211.168 475.79 211.127 476.224 211.045V214.895C475.228 215.199 474.202 215.352 473.148 215.352C469.585 215.352 467.769 213.553 467.698 209.955V199.707H464.921V195.98H467.698V191.305H472.779ZM486.743 191.305V195.98H489.995V199.707H486.743V209.199C486.743 209.902 486.877 210.406 487.147 210.711C487.416 211.016 487.932 211.168 488.694 211.168C489.256 211.168 489.754 211.127 490.188 211.045V214.895C489.192 215.199 488.166 215.352 487.112 215.352C483.549 215.352 481.733 213.553 481.662 209.955V199.707H478.885V195.98H481.662V191.305H486.743ZM499.986 215H494.888V188H499.986V215ZM514.741 215.352C511.952 215.352 509.679 214.496 507.921 212.785C506.175 211.074 505.302 208.795 505.302 205.947V205.455C505.302 203.545 505.671 201.84 506.409 200.34C507.147 198.828 508.19 197.668 509.538 196.859C510.897 196.039 512.444 195.629 514.179 195.629C516.78 195.629 518.825 196.449 520.313 198.09C521.813 199.73 522.563 202.057 522.563 205.068V207.143H510.452C510.616 208.385 511.108 209.381 511.929 210.131C512.761 210.881 513.809 211.256 515.075 211.256C517.032 211.256 518.561 210.547 519.663 209.129L522.159 211.924C521.397 213.002 520.366 213.846 519.065 214.455C517.764 215.053 516.323 215.352 514.741 215.352ZM514.161 199.742C513.153 199.742 512.333 200.082 511.7 200.762C511.079 201.441 510.68 202.414 510.505 203.68H517.571V203.275C517.548 202.15 517.243 201.283 516.657 200.674C516.071 200.053 515.239 199.742 514.161 199.742Z" fill="#67695E"/>
<path d="M125.908 118.984V117.318H114.148V118.984H117.704C117.312 119.824 116.864 120.538 116.682 120.776C116.416 121.14 116.178 121.364 115.912 121.448C116.108 121.91 116.416 122.764 116.514 123.128C116.64 122.988 117.228 122.918 117.802 122.918H122.422C122.128 125.284 121.75 126.558 121.274 126.922C121.064 127.076 120.812 127.09 120.462 127.09C119.958 127.09 118.726 127.076 117.564 126.978C117.914 127.44 118.166 128.14 118.208 128.616C119.272 128.672 120.336 128.686 120.952 128.644C121.736 128.588 122.226 128.448 122.716 127.986C123.416 127.314 123.85 125.69 124.27 122.064C124.298 121.854 124.326 121.336 124.326 121.336H118.264C118.796 120.622 119.328 119.796 119.762 118.984H125.908ZM125.698 134.746V133.094H114.344V134.746H119.706C119.58 135.908 119.398 136.958 119.118 137.882H116.612C116.934 137.14 117.242 136.272 117.41 135.46L115.786 135.04C115.604 136.16 115.142 137.294 115.016 137.602C114.862 137.924 114.666 138.148 114.484 138.204C114.652 138.624 114.918 139.338 115.016 139.674C115.142 139.534 115.828 139.464 116.542 139.464H118.516C117.648 141.284 116.248 142.53 114.036 143.342C114.4 143.678 114.988 144.392 115.184 144.728C117.774 143.608 119.356 141.914 120.322 139.464H123.276C122.996 141.13 122.548 142.964 121.946 144.196L123.556 144.77C124.452 142.992 125.026 140.584 125.39 138.47L125.474 138.19L123.962 137.658L123.626 137.882H120.826C121.078 136.93 121.26 135.894 121.4 134.746H125.698Z" fill="#67695E"/>
<path d="M187.358 119.478C186.294 121.004 184.11 123.454 182.22 125.344C184.558 127.598 186.798 130.174 187.876 131.896L189.64 130.888C188.534 129.348 186.462 127.136 184.474 125.33C186.056 123.734 187.89 122.012 189.136 120.248L187.358 119.478ZM180.596 141.784V143.618H191.348V141.784H180.596Z" fill="#67695E"/>
<path d="M320.684 118.794H310.254V122.658C310.254 124.618 310.114 127.25 308.476 129.028C308.882 129.224 309.624 129.714 309.932 130.008C311.668 128.048 311.962 124.898 311.962 122.658V120.404H320.684V118.794ZM320.754 145.048C319.858 143.774 318.43 142.234 316.834 140.694C317.996 139.07 318.99 137.278 319.802 135.346L318.066 134.8C317.38 136.48 316.54 138.048 315.546 139.462C314.188 138.202 312.788 136.97 311.556 135.906L310.296 137.068C311.598 138.216 313.04 139.574 314.412 140.932C312.956 142.654 311.262 144.082 309.358 145.132C309.736 145.482 310.394 146.196 310.646 146.588C312.494 145.454 314.174 143.97 315.658 142.22C317.142 143.788 318.458 145.314 319.256 146.546L320.754 145.048Z" fill="#67695E"/>
<path d="M381.078 117.754C381.26 116.774 381.4 115.71 381.498 114.576L379.79 114.436C379.692 115.64 379.552 116.746 379.37 117.754H376.934C377.228 116.914 377.522 115.878 377.662 114.954L375.982 114.492C375.87 115.71 375.478 116.998 375.352 117.334C375.212 117.698 375.044 117.936 374.848 118.006C375.03 118.426 375.296 119.182 375.408 119.532V119.546C375.534 119.406 376.22 119.322 376.934 119.322H379.006C378.18 122.206 376.696 124.18 373.882 125.37C374.218 125.72 374.806 126.476 375.002 126.84C378.152 125.286 379.832 122.864 380.742 119.322H383.472C383.192 122.794 382.828 124.39 382.38 124.796C382.184 124.992 382.016 125.02 381.736 125.02C381.358 125.02 380.546 125.006 379.706 124.936C380.028 125.412 380.238 126.14 380.28 126.644C381.106 126.686 381.932 126.686 382.422 126.616C383.024 126.546 383.43 126.406 383.85 125.916C384.508 125.216 384.886 123.298 385.264 118.51C385.292 118.286 385.32 117.754 385.32 117.754H381.078ZM374.596 131.784V133.618H385.348V131.784H374.596ZM384.34 144.288L384.018 144.372H383.178C383.668 142.804 384.2 141.012 384.522 139.542L383.22 139.304L382.94 139.374H374.89V140.956H382.38C382.114 142.006 381.75 143.266 381.414 144.372H377.382C377.788 143.532 378.194 142.51 378.432 141.6L376.668 141.124C376.458 142.342 375.954 143.602 375.786 143.938C375.618 144.288 375.422 144.526 375.198 144.596C375.408 145.03 375.674 145.814 375.786 146.178C375.912 146.038 376.57 145.968 377.27 145.968H383.43C382.982 147.494 382.282 149.146 381.666 150.098C382.086 150.308 382.688 150.7 383.024 150.952C384.004 149.51 385.04 147.228 385.572 144.946L384.34 144.288Z" fill="#67695E"/>
<path d="M447.114 113.59V120.128L442.872 121.122V114.094H441.22V120.744C441.22 121.332 440.758 121.738 440.422 121.92C440.716 122.326 441.08 123.096 441.206 123.544C441.738 123.208 442.48 122.914 447.114 121.696V125.812H448.836V113.59H447.114ZM439.596 130.784V132.618H450.348V130.784H439.596ZM451.062 142.798V141.118H448.346C448.374 140.39 448.388 139.676 448.388 139.032V137.856H446.722V139.004C446.722 139.662 446.708 140.376 446.666 141.118H443.18V137.996H441.486V141.118H438.938V142.798H441.486V146.41C441.486 148.65 442.27 149.378 444.384 149.378H447.744C448.542 149.378 449.41 149.35 449.816 149.224C449.732 148.832 449.648 148.062 449.606 147.628C449.186 147.712 448.444 147.782 447.828 147.782H444.3C443.418 147.782 443.18 147.446 443.18 146.508V142.798H446.47C446.302 143.862 446.022 144.954 445.56 145.99C446.064 146.172 446.778 146.564 447.17 146.872C447.73 145.556 448.038 144.156 448.206 142.798H451.062Z" fill="#67695E"/>
<path d="M511.078 119.754C511.26 118.774 511.4 117.71 511.498 116.576L509.79 116.436C509.692 117.64 509.552 118.746 509.37 119.754H506.934C507.228 118.914 507.522 117.878 507.662 116.954L505.982 116.492C505.87 117.71 505.478 118.998 505.352 119.334C505.212 119.698 505.044 119.936 504.848 120.006C505.03 120.426 505.296 121.182 505.408 121.532V121.546C505.534 121.406 506.22 121.322 506.934 121.322H509.006C508.18 124.206 506.696 126.18 503.882 127.37C504.218 127.72 504.806 128.476 505.002 128.84C508.152 127.286 509.832 124.864 510.742 121.322H513.472C513.192 124.794 512.828 126.39 512.38 126.796C512.184 126.992 512.016 127.02 511.736 127.02C511.358 127.02 510.546 127.006 509.706 126.936C510.028 127.412 510.238 128.14 510.28 128.644C511.106 128.686 511.932 128.686 512.422 128.616C513.024 128.546 513.43 128.406 513.85 127.916C514.508 127.216 514.886 125.298 515.264 120.51C515.292 120.286 515.32 119.754 515.32 119.754H511.078ZM514.34 140.288L514.018 140.372H513.178C513.668 138.804 514.2 137.012 514.522 135.542L513.22 135.304L512.94 135.374H504.89V136.956H512.38C512.114 138.006 511.75 139.266 511.414 140.372H507.382C507.788 139.532 508.194 138.51 508.432 137.6L506.668 137.124C506.458 138.342 505.954 139.602 505.786 139.938C505.618 140.288 505.422 140.526 505.198 140.596C505.408 141.03 505.674 141.814 505.786 142.178C505.912 142.038 506.57 141.968 507.27 141.968H513.43C512.982 143.494 512.282 145.146 511.666 146.098C512.086 146.308 512.688 146.7 513.024 146.952C514.004 145.51 515.04 143.228 515.572 140.946L514.34 140.288Z" fill="#67695E"/>
<path d="M569.596 120.784V122.618H580.348V120.784H569.596ZM579.074 133.702C578.038 135.004 576.526 136.474 575.154 137.594C573.936 136.418 572.228 134.934 570.786 133.758L569.512 134.892C571.052 136.222 572.942 138.014 574.146 139.302V145.42H575.938V139.134C577.436 137.958 579.186 136.334 580.586 134.794L579.074 133.702Z" fill="#67695E"/>
<path d="M256.348 115.22H246.03V116.844H254.64V119.266H246.562V120.848C246.562 122.248 246.324 124.586 244.322 126.07C244.742 126.294 245.414 126.826 245.722 127.134C247.976 125.44 248.312 122.64 248.312 120.904H256.348V115.22ZM256.754 137.048C255.858 135.774 254.43 134.234 252.834 132.694C253.996 131.07 254.99 129.278 255.802 127.346L254.066 126.8C253.38 128.48 252.54 130.048 251.546 131.462C250.188 130.202 248.788 128.97 247.556 127.906L246.296 129.068C247.598 130.216 249.04 131.574 250.412 132.932C248.956 134.654 247.262 136.082 245.358 137.132C245.736 137.482 246.394 138.196 246.646 138.588C248.494 137.454 250.174 135.97 251.658 134.22C253.142 135.788 254.458 137.314 255.256 138.546L256.754 137.048ZM249.012 139.43C248.004 140.172 246.394 141.068 245.092 141.572C245.428 142.062 245.792 142.65 246.03 143.238C247.192 142.608 248.032 142.034 248.956 141.418C250.426 145.744 252.526 148.46 255.144 150.252C255.564 149.902 256.236 149.272 256.74 148.95C253.548 146.976 251.602 144.26 250.328 139.822L249.012 139.43Z" fill="#67695E"/>
<path d="M195.979 133.471L196.978 132.493H198.666V132.568L196.602 134.489H195.351L193.286 132.555V132.493H194.975L195.979 133.471Z" fill="#67695E"/>
<path d="M262.979 132.471L263.978 131.493H265.666V131.568L263.602 133.489H262.351L260.286 131.555V131.493H261.975L262.979 132.471Z" fill="#67695E"/>
<path d="M327.972 129.416C327.841 129.547 327.669 129.705 327.454 129.892C327.239 130.079 327.006 130.275 326.754 130.48C326.511 130.685 326.269 130.881 326.026 131.068C325.793 131.245 325.587 131.395 325.41 131.516H324.024V131.334C324.173 131.157 324.346 130.951 324.542 130.718C324.747 130.475 324.948 130.228 325.144 129.976C325.34 129.715 325.503 129.481 325.634 129.276H327.972V129.416Z" fill="#67695E"/>
<path d="M392.972 129.416C392.841 129.547 392.669 129.705 392.454 129.892C392.239 130.079 392.006 130.275 391.754 130.48C391.511 130.685 391.269 130.881 391.026 131.068C390.793 131.245 390.587 131.395 390.41 131.516H389.024V131.334C389.173 131.157 389.346 130.951 389.542 130.718C389.747 130.475 389.948 130.228 390.144 129.976C390.34 129.715 390.503 129.481 390.634 129.276H392.972V129.416Z" fill="#67695E"/>
<path d="M522.972 130.416C522.841 130.547 522.669 130.705 522.454 130.892C522.239 131.079 522.006 131.275 521.754 131.48C521.511 131.685 521.269 131.881 521.026 132.068C520.793 132.245 520.587 132.395 520.41 132.516H519.024V132.334C519.173 132.157 519.346 131.951 519.542 131.718C519.747 131.475 519.948 131.228 520.144 130.976C520.34 130.715 520.503 130.481 520.634 130.276H522.972V130.416Z" fill="#67695E"/>
<path d="M587.972 126.416C587.841 126.547 587.669 126.705 587.454 126.892C587.239 127.079 587.006 127.275 586.754 127.48C586.511 127.685 586.269 127.881 586.026 128.068C585.793 128.245 585.587 128.395 585.41 128.516H584.024V128.334C584.173 128.157 584.346 127.951 584.542 127.718C584.747 127.475 584.948 127.228 585.144 126.976C585.34 126.715 585.503 126.481 585.634 126.276H587.972V126.416Z" fill="#67695E"/>
</svg>
