<svg width="708" height="706" viewBox="0 0 708 706" fill="none" xmlns="http://www.w3.org/2000/svg">
<rect width="708" height="706" rx="56" fill="#B7DFD7"/>
<g clip-path="url(#clip0_383_8984)">
<path d="M444.755 293.498H429.629V263.246C429.629 221.498 395.747 187.615 353.999 187.615C312.251 187.615 278.368 221.498 278.368 263.246V293.498H263.242C246.604 293.498 232.99 307.112 232.99 323.751V475.013C232.99 491.651 246.604 505.265 263.242 505.265H444.755C461.394 505.265 475.007 491.651 475.007 475.013V323.751C475.007 307.112 461.394 293.498 444.755 293.498ZM308.621 263.246C308.621 238.136 328.889 217.867 353.999 217.867C379.108 217.867 399.377 238.136 399.377 263.246V293.498H308.621V263.246ZM429.629 475.013H278.368C270.049 475.013 263.242 468.206 263.242 459.886V338.877C263.242 330.557 270.049 323.751 278.368 323.751H429.629C437.948 323.751 444.755 330.557 444.755 338.877V459.886C444.755 468.206 437.948 475.013 429.629 475.013ZM353.999 429.634C370.637 429.634 384.251 416.02 384.251 399.382C384.251 382.743 370.637 369.129 353.999 369.129C337.36 369.129 323.747 382.743 323.747 399.382C323.747 416.02 337.36 429.634 353.999 429.634Z" fill="white" fill-opacity="0.81"/>
</g>
<defs>
<clipPath id="clip0_383_8984">
<rect width="363.026" height="363.028" fill="white" transform="translate(172.486 172.489)"/>
</clipPath>
</defs>
</svg>
