<svg width="750" height="146" viewBox="0 0 750 146" fill="none" xmlns="http://www.w3.org/2000/svg">
<path d="M93.3179 33.36V38.8H120.758V33.36H93.3179ZM95.0779 18.8C93.0779 31.36 89.3179 43.36 83.2379 50.96C84.6779 51.68 87.3979 53.44 88.4379 54.32C94.3579 46.08 98.5179 33.44 100.998 19.68L95.0779 18.8ZM105.158 35.52H102.118V49.36C102.118 56 99.6379 77.04 82.5179 87.68C83.6379 88.8 85.3179 91.2 86.1179 92.56C99.5579 83.92 104.198 68.32 105.078 61.84C105.878 68.4 110.118 84.24 122.598 92.56C123.478 91.12 125.318 88.64 126.358 87.36C110.518 77.04 108.038 55.68 108.038 49.36V35.52H105.158ZM119.238 33.36V34.48C118.038 40.64 116.118 48.48 114.038 53.2L118.838 54.88C121.238 49.68 123.638 41.44 125.158 34.16L121.158 33.04L120.198 33.36H119.238ZM68.3579 32.4V41.92H73.7179V32.4H68.3579ZM57.9579 39.76V84.8H63.3979V39.76H57.9579ZM61.1579 50.48V54.8H81.0779V50.48H61.1579ZM52.1179 83.6L54.1979 89.28C61.6379 86.88 71.0779 83.76 80.1179 80.72L79.3979 75.76C69.3979 78.8 58.9979 81.84 52.1179 83.6ZM72.4379 69.52C75.3979 74.64 78.5179 81.68 79.7179 85.92L84.9179 83.68C83.6379 79.52 80.3579 72.8 77.3179 67.68L72.4379 69.52ZM61.1579 39.76V44.24H78.3579V61.36H61.1579V65.84H83.7979V39.76H61.1579ZM67.0779 18.88C64.0379 25.2 58.4379 33.12 50.3579 39.04C51.5579 39.84 53.1579 41.76 53.9579 43.04C62.8379 36.24 68.5979 27.92 72.1179 21.76V20.16H70.2779V18.88H67.0779ZM68.6779 18.88V22.88H69.7979C74.3579 26.88 79.8779 33.36 82.6779 37.2L86.9179 33.2C83.8779 29.2 77.8779 23.12 72.9979 18.88H68.6779ZM237.318 39.36V45.36H261.398V39.36H237.318ZM269.958 19.04V84C269.958 85.52 269.318 86 267.798 86.08C266.118 86.08 260.998 86.16 255.238 85.92C256.198 87.76 257.398 90.72 257.638 92.48C265.078 92.48 269.718 92.32 272.438 91.2C275.078 90.16 276.198 88.24 276.198 84V19.04H269.958ZM259.318 39.36V40.72C255.958 59.04 246.758 72.72 235.318 79.92C236.758 80.88 239.158 83.28 240.198 84.72C251.958 76.72 261.638 61.76 265.718 40.64L261.638 39.12L260.598 39.36H259.318ZM275.878 32.08L271.078 33.2C276.998 56.88 287.878 77.28 306.118 86.32C307.158 84.48 309.238 82.08 310.758 80.88C292.838 73.04 281.398 53.6 275.878 32.08ZM301.958 31.84C296.678 38.96 287.398 48.32 280.598 53.84L284.838 57.2C291.798 51.84 300.918 43.04 307.478 35.76L301.958 31.84ZM455.078 23.28V28.96H483.718V58.56H489.798V23.28H455.078ZM460.198 48.24V53.92H486.438V48.24H460.198ZM457.398 48.24V82.64C457.398 90.16 459.878 92.08 468.118 92.08C469.798 92.08 482.278 92.08 484.198 92.08C491.958 92.08 493.798 88.64 494.598 76.4C492.918 75.92 490.358 74.96 488.918 73.92C488.518 84.48 487.878 86.4 483.878 86.4C481.158 86.4 470.678 86.4 468.598 86.4C464.198 86.4 463.398 85.76 463.398 82.64V48.24H457.398ZM434.918 56.56V92.4H440.598V56.56H434.918ZM433.958 18.88C431.478 24.24 426.998 32 423.398 36.64L427.638 38.72C431.318 34.24 435.958 27.12 439.478 21.2L433.958 18.88ZM444.278 27.84C439.238 36.4 430.518 48.4 423.638 55.52L427.478 57.76C434.438 50.8 443.238 39.44 449.558 30.4L444.278 27.84ZM420.038 36.56C424.518 40.08 429.718 45.2 432.118 48.72L435.158 44.08C432.758 40.8 427.478 35.92 422.918 32.56L420.038 36.56ZM441.718 46.32C445.478 51.6 449.478 58.72 451.078 63.2L455.958 60.8C454.278 56.24 450.118 49.36 446.278 44.16L441.718 46.32ZM419.558 54.24L420.198 59.6C428.198 59.28 439.318 58.64 450.118 57.92L450.198 52.88C438.838 53.44 427.318 53.92 419.558 54.24ZM443.878 65.84C446.438 70.8 449.158 77.36 450.118 81.6L455.238 79.68C454.118 75.44 451.398 69.04 448.678 64.16L443.878 65.84ZM424.998 64.64C423.878 71.6 422.038 78.8 418.998 83.68C420.438 84.16 422.998 85.44 424.038 86.16C426.838 81.04 429.158 73.28 430.438 65.6L424.998 64.64ZM645.238 24.88V29.52H667.798V24.88H645.238ZM643.238 37.44V42.08H666.598V37.44H643.238ZM635.078 48.96V54H677.638V48.96H635.078ZM665.638 24.88V25.6C664.998 31.44 663.558 42.8 662.038 50.88L667.718 51.36C669.158 43.36 670.678 32.72 671.478 25.04L667.318 24.56L666.278 24.88H665.638ZM644.598 18.8C643.158 27.04 640.838 38.24 638.998 44.88L644.758 45.52C646.438 38.88 648.758 27.84 650.278 19.36L644.598 18.8ZM633.078 83.12L636.118 87.68C640.998 84.64 646.998 80.72 652.518 76.88L650.758 72.48C644.278 76.56 637.558 80.64 633.078 83.12ZM636.678 60.16C639.798 63.36 643.078 67.84 644.438 70.88L648.918 67.92C647.478 64.96 644.038 60.64 640.838 57.6L636.678 60.16ZM672.038 57.44C670.198 60.72 666.838 65.36 664.358 68.24L668.278 70.56C670.918 67.76 674.118 63.76 676.838 59.92L672.038 57.44ZM653.238 51.28V86.24C653.238 87.12 652.998 87.36 652.038 87.36C651.158 87.36 648.358 87.44 645.158 87.28C645.878 88.8 646.678 90.96 646.918 92.48C651.558 92.48 654.598 92.4 656.438 91.52C658.438 90.64 658.998 89.12 658.998 86.24V51.28H653.238ZM658.838 55.6L654.518 56.48C657.718 71.04 664.038 82.64 674.998 88.08C675.798 86.56 677.478 84.48 678.678 83.44C668.118 79.04 661.718 68.48 658.838 55.6ZM609.638 38.64V43.84H632.118V38.64H609.638ZM605.318 52.32V57.6H634.598V52.32H605.318ZM607.158 62.88C608.678 67.76 609.958 74 610.038 78.16L614.518 77.04C614.198 72.88 612.918 66.72 611.318 61.84L607.158 62.88ZM604.598 84.4L605.798 90C613.958 88.24 624.918 85.92 635.318 83.6L634.918 78.48C623.798 80.8 612.278 83.12 604.598 84.4ZM629.398 61.12C628.678 65.36 627.238 71.68 626.038 75.6L629.958 76.72C631.318 72.96 632.678 67.2 634.038 62.32L629.398 61.12ZM617.878 40.56V85.04L623.158 84.16V40.56H617.878ZM617.638 18.88C614.918 25.28 609.798 33.44 602.518 39.52C603.638 40.32 605.398 42.08 606.278 43.28C614.198 36.32 619.398 27.84 622.518 21.68V20.16H620.758V18.88H617.638ZM618.598 18.88V23.12H619.718C624.438 27.04 629.958 33.68 632.758 37.6L636.758 33.04C633.878 29.04 627.878 23.04 623.078 18.88H618.598Z" fill="#60794D"/>
<path d="M143.111 27.62V32.336H176.447V27.62H143.111ZM147.899 71.652C148.223 71.292 149.951 71.112 151.823 71.112H170.975V67.044H150.167L147.899 68.34V71.652ZM169.571 67.044V68.088C168.635 73.164 166.223 80.148 163.955 83.82C165.035 84.36 166.583 85.512 167.375 86.232C170.111 81.876 172.775 75 174.143 68.376L171.083 66.828L170.291 67.044H169.571ZM147.899 71.652C147.899 70.824 150.923 69.312 150.923 69.312V69.24C152.939 65.82 155.387 60.708 156.863 55.812L152.111 54.948C151.103 59.376 149.123 64.056 148.439 65.28C147.755 66.54 147.179 67.296 146.423 67.512C146.927 68.7 147.647 70.752 147.899 71.652Z" fill="#60794D"/>
<path d="M187.87 52.184C187.534 51.632 187.09 51.032 186.538 50.384C186.01 49.736 185.458 49.1 184.882 48.476C184.33 47.852 183.826 47.324 183.37 46.892V46.424H186.934C187.558 46.808 188.23 47.264 188.95 47.792C189.67 48.296 190.342 48.872 190.966 49.52C191.59 48.872 192.274 48.296 193.018 47.792C193.762 47.264 194.446 46.808 195.07 46.424H198.634V46.892C198.202 47.324 197.698 47.852 197.122 48.476C196.546 49.1 195.982 49.736 195.43 50.384C194.902 51.032 194.47 51.632 194.134 52.184H187.87Z" fill="#60794D"/>
<path d="M325.063 14.9V18.41H343.543V23.6H327.613V27.08H347.203V14.9H325.063ZM326.203 23.6V26.96C326.203 29.96 325.693 35 321.403 38.15C322.303 38.66 323.773 39.8 324.403 40.46C329.263 36.8 329.953 30.77 329.953 27.02V23.6H326.203ZM342.313 42.03C338.383 51.66 331.903 59.58 323.623 64.14C324.433 64.89 325.873 66.45 326.413 67.26C334.783 62.1 341.653 53.55 346.033 43.17L342.313 42.03ZM325.663 46.89C332.473 52.95 341.143 61.5 344.833 67.17L348.043 63.99C344.053 58.29 335.023 50.13 328.363 44.4L325.663 46.89ZM348.043 91.78C346.933 92.44 345.523 93.82 344.593 94.54C339.013 90.7 334.513 84.91 331.333 75.64C329.383 76.96 327.553 78.19 325.093 79.54C324.553 78.28 323.773 77.02 323.053 75.94C325.843 74.86 329.323 72.94 331.483 71.38L334.303 72.19C337.003 81.7 341.203 87.55 348.043 91.78Z" fill="#60794D"/>
<path d="M361.864 56.184C361.528 55.632 361.084 55.032 360.532 54.384C360.004 53.736 359.452 53.1 358.876 52.476C358.324 51.852 357.82 51.324 357.364 50.892V50.424H360.928C361.552 50.808 362.224 51.264 362.944 51.792C363.664 52.296 364.336 52.872 364.96 53.52C365.584 52.872 366.268 52.296 367.012 51.792C367.756 51.264 368.44 50.808 369.064 50.424H372.628V50.892C372.196 51.324 371.692 51.852 371.116 52.476C370.54 53.1 369.976 53.736 369.424 54.384C368.896 55.032 368.464 55.632 368.128 56.184H361.864Z" fill="#60794D"/>
<path d="M527.179 22.66V54.088H531.607V22.66H527.179ZM511.951 48.292C513.427 47.32 515.515 46.528 529.807 42.82C529.483 41.92 529.015 40.3 528.799 39.076L513.643 42.64L511.519 44.224L511.951 48.292ZM511.951 48.292C511.951 46.708 516.235 44.512 516.235 44.512V23.956H511.987V41.056C511.987 42.604 510.835 43.648 509.935 44.116C510.691 45.124 511.663 47.14 511.951 48.292ZM507.811 76.016V80.768H535.459V76.016H507.811Z" fill="#60794D"/>
<path d="M552.674 57.424C553.034 57.952 553.454 58.552 553.934 59.224C554.438 59.872 554.942 60.508 555.446 61.132C555.974 61.732 556.43 62.26 556.814 62.716V63.184H553.25C552.794 62.872 552.254 62.488 551.63 62.032C551.03 61.552 550.406 61.048 549.758 60.52C549.134 59.992 548.546 59.488 547.994 59.008C547.442 58.528 546.998 58.12 546.662 57.784V57.424H552.674Z" fill="#60794D"/>
<path d="M717.923 29.796V30.552C717.131 41.82 716.123 46.788 714.863 47.94C714.359 48.408 713.927 48.516 713.171 48.516C712.199 48.516 710.111 48.48 707.951 48.264C708.779 49.488 709.319 51.396 709.427 52.656C711.551 52.764 713.675 52.764 714.935 52.62C716.519 52.44 717.563 52.044 718.643 50.784C720.299 48.984 721.307 44.052 722.243 31.776C722.351 31.2 722.423 29.796 722.423 29.796H717.923ZM696.899 34.404C697.223 34.044 698.987 33.864 700.823 33.864H719.975L720.011 29.796H699.203L696.899 31.092V34.404ZM696.899 34.368C696.899 33.504 699.995 31.992 699.995 31.992V31.956C701.003 29.544 702.263 25.836 702.731 22.632L698.375 21.444C698.123 24.576 697.079 27.852 696.791 28.752C696.431 29.688 695.963 30.264 695.459 30.444C695.963 31.524 696.647 33.468 696.899 34.368ZM708.167 21.3C706.979 35.88 703.703 44.808 692.975 49.416C693.875 50.316 695.387 52.26 695.855 53.196C707.159 47.58 711.083 37.752 712.595 21.66L708.167 21.3ZM716.627 62.236C711.911 73.792 704.135 83.296 694.199 88.768C695.171 89.668 696.899 91.54 697.547 92.512C707.591 86.32 715.835 76.06 721.091 63.604L716.627 62.236ZM696.647 68.068C704.819 75.34 715.223 85.6 719.651 92.404L723.503 88.588C718.715 81.748 707.879 71.956 699.887 65.08L696.647 68.068Z" fill="#60794D"/>
<path d="M734.674 54.424C735.034 54.952 735.454 55.552 735.934 56.224C736.438 56.872 736.942 57.508 737.446 58.132C737.974 58.732 738.43 59.26 738.814 59.716V60.184H735.25C734.794 59.872 734.254 59.488 733.63 59.032C733.03 58.552 732.406 58.048 731.758 57.52C731.134 56.992 730.546 56.488 729.994 56.008C729.442 55.528 728.998 55.12 728.662 54.784V54.424H734.674Z" fill="#60794D"/>
</svg>
