<svg width="403" height="79" viewBox="0 0 403 79" fill="none" xmlns="http://www.w3.org/2000/svg">
<path d="M70.7 19.416C68.828 17.016 65.324 13.416 62.396 10.872H58.94C57.068 14.664 53.708 19.368 48.908 22.872C49.58 23.4 50.588 24.504 51.068 25.272C55.772 21.624 58.988 17.304 61.1 13.8C63.692 16.2 66.62 19.656 68.156 21.72L70.7 19.416ZM56.636 36.168V32.28H65.612V36.168H56.636ZM65.612 25.944V29.688H56.636V25.944H65.612ZM83.228 22.728H89.372C88.7 25.8 87.788 29.112 86.876 31.272L89.66 32.328C91.148 29.208 92.492 24.264 93.452 19.992L91.1 19.32L90.524 19.464H77.18C77.948 16.872 78.572 14.136 79.052 11.352L75.548 10.824C74.396 18.168 72.236 25.128 68.78 29.64V23.304H62.828V18.888H59.612V23.304H53.42V48.504C52.172 48.888 51.02 49.176 49.964 49.464L51.212 52.776C55.292 51.48 60.428 49.752 65.468 48.072C65.852 49.08 66.188 49.992 66.38 50.808L69.452 49.464C68.684 46.968 66.764 42.936 64.94 39.96L62.06 41.016C62.828 42.312 63.596 43.848 64.316 45.336C61.676 46.152 59.036 46.92 56.636 47.592V38.808H68.78V30.168C69.644 30.648 70.94 31.464 71.564 31.944C73.388 29.448 74.876 26.28 76.172 22.728H79.772V29.016C79.772 32.952 78.284 45.48 68.108 51.816C68.732 52.488 69.74 53.976 70.22 54.696C78.236 49.56 80.972 40.296 81.5 36.408C81.98 40.296 84.524 49.752 91.916 54.696C92.444 53.88 93.548 52.392 94.172 51.672C84.764 45.48 83.228 32.76 83.228 29.016V22.728ZM151.628 22.92L151.1 23.064H137.084V26.616H149.564C147.26 36.168 142.172 43.32 135.932 47.208C136.748 47.784 138.188 49.176 138.764 50.04C145.772 45.288 151.58 36.408 153.98 23.832L151.628 22.92ZM175.628 18.6C172.796 22.344 168.092 27.144 164.252 30.504C162.572 27.096 161.228 23.448 160.22 19.656V10.968H156.524V49.608C156.524 50.568 156.188 50.856 155.228 50.904C154.268 50.904 151.196 50.952 147.74 50.808C148.316 51.864 149.036 53.64 149.18 54.696C153.596 54.696 156.38 54.6 157.964 53.976C159.548 53.304 160.22 52.152 160.22 49.608V29.016C164.012 38.856 169.772 46.92 178.076 51C178.652 49.944 179.9 48.504 180.764 47.784C174.428 45.048 169.436 39.816 165.74 33.336C169.868 30.12 175.052 25.08 178.844 20.904L175.628 18.6ZM225.692 38.088C224.972 42.264 223.916 46.536 222.14 49.464C222.956 49.752 224.492 50.472 225.068 50.904C226.796 47.88 228.14 43.224 228.908 38.664L225.692 38.088ZM236.924 38.856C238.46 41.784 240.044 45.672 240.668 48.216L243.644 47.064C243.02 44.568 241.388 40.728 239.756 37.8L236.924 38.856ZM235.628 27.192C236.492 28.392 237.404 29.784 238.22 31.224C235.148 31.368 232.124 31.512 229.388 31.608C233.036 27.576 237.164 22.152 240.284 17.736L237.164 16.2C235.58 18.84 233.42 22.056 231.116 25.128C230.3 24.12 229.148 22.968 227.9 21.864C229.964 19.176 232.364 15.432 234.284 12.264L231.02 10.872C229.772 13.608 227.708 17.304 225.788 20.04C225.308 19.656 224.876 19.32 224.444 18.984L222.716 21.384C225.02 23.208 227.66 25.656 229.196 27.672C228.044 29.16 226.844 30.552 225.74 31.8L222.428 31.896L222.812 35.112C225.308 35.016 228.332 34.872 231.596 34.68V54.648H234.956V34.488L239.804 34.152C240.38 35.304 240.86 36.36 241.196 37.272L244.076 35.784C243.116 33.096 240.62 29.016 238.316 25.944L235.628 27.192ZM251.612 51.096C248.972 51.096 248.492 50.712 248.492 48.84V31.704H260.684V34.488H264.236V13.464H243.596V16.824H260.684V28.344H244.94V48.84C244.94 53.304 246.428 54.408 251.324 54.408H260.924C265.532 54.408 266.636 52.392 267.068 45.096C266.108 44.808 264.62 44.28 263.756 43.656C263.516 49.896 263.132 51.096 260.732 51.096H251.612ZM336.956 42.744C333.644 44.856 330.236 46.92 327.692 48.408L327.548 46.392L320.492 47.832V33.912H327.356V30.792H320.492V25.704H325.82V22.632H313.244C315.884 19.752 317.852 16.68 319.292 14.088C321.884 16.488 324.764 19.848 326.204 22.008L328.604 19.32C326.876 16.92 323.324 13.368 320.444 10.872H317.228C315.644 14.664 312.572 19.512 308.252 23.16C308.876 23.592 309.932 24.696 310.46 25.416C311.132 24.792 311.804 24.168 312.428 23.544V25.704H317.372V30.792H309.884V33.912H317.372V48.408C314.396 49.032 311.66 49.512 309.452 49.896L310.172 53.208C314.828 52.152 320.876 50.904 326.732 49.608L328.22 51.768C331.1 49.944 334.652 47.64 337.964 45.432L336.956 42.744ZM310.988 37.08C311.9 39.96 312.62 43.656 312.716 46.152L315.356 45.48C315.212 43.032 314.444 39.336 313.436 36.456L310.988 37.08ZM324.572 45.288C325.292 43.08 326.204 39.672 326.972 36.744L324.188 36.024C323.804 38.568 322.892 42.36 322.22 44.664L324.572 45.288ZM328.556 35.4C330.38 37.368 332.348 40.056 333.212 41.832L335.804 40.056C334.94 38.328 332.876 35.736 331.052 33.912L328.556 35.4ZM334.46 21.912C334.796 20.424 335.132 18.792 335.468 17.208H345.548C345.404 18.6 345.164 20.232 344.924 21.912H334.46ZM341.804 31.8H352.94V28.776H347.276C348.044 24.216 348.812 18.696 349.244 14.52L346.748 14.232L346.22 14.424H336.044L336.668 11.16L333.26 10.824C332.396 15.72 331.052 22.392 329.948 26.376L333.308 26.712C333.452 26.088 333.644 25.416 333.836 24.696H344.54C344.348 26.088 344.108 27.48 343.916 28.776H327.548V31.8H338.444V51C338.444 51.528 338.252 51.672 337.676 51.672C337.148 51.672 335.468 51.72 333.596 51.624C334.028 52.488 334.508 53.784 334.604 54.648C337.436 54.648 339.212 54.648 340.316 54.12C341.516 53.592 341.804 52.68 341.804 51V41.4C343.964 46.2 347.036 49.944 351.356 52.056C351.836 51.192 352.844 49.896 353.516 49.32C347.372 46.728 343.58 40.584 341.804 33.144V31.8ZM347.324 41.592C348.86 39.96 350.828 37.608 352.46 35.304L349.58 33.816C348.524 35.784 346.508 38.568 345.02 40.248L347.324 41.592Z" fill="#60794D"/>
<path d="M101.738 20.828V23.15H118.298V20.828H101.738ZM115.67 40.414L115.292 40.504H106.22C107.084 38.884 107.984 36.868 108.578 34.888L106.184 34.456C105.68 36.67 104.69 39.01 104.348 39.622C104.006 40.27 103.736 40.648 103.358 40.756C103.61 41.332 103.97 42.376 104.078 42.808C104.258 42.628 105.122 42.538 106.058 42.538H114.59C113.996 44.824 113.024 47.398 112.106 48.892C112.646 49.162 113.42 49.756 113.834 50.098C115.202 47.92 116.516 44.5 117.2 41.188L115.67 40.414Z" fill="#60794D"/>
<path d="M201.494 12.91H188.965V14.882H199.42V17.823H189.611V19.744C189.611 21.444 189.322 24.283 186.891 26.085C187.401 26.357 188.217 27.003 188.591 27.377C191.328 25.32 191.736 21.92 191.736 19.812H201.494V12.91ZM201.987 39.844C200.899 38.297 199.165 36.427 197.227 34.557C198.638 32.585 199.845 30.409 200.831 28.063L198.723 27.4C197.89 29.44 196.87 31.344 195.663 33.061C194.014 31.531 192.314 30.035 190.818 28.743L189.288 30.154C190.869 31.548 192.62 33.197 194.286 34.846C192.518 36.937 190.461 38.671 188.149 39.946C188.608 40.371 189.407 41.238 189.713 41.714C191.957 40.337 193.997 38.535 195.799 36.41C197.601 38.314 199.199 40.167 200.168 41.663L201.987 39.844ZM192.586 43.165C191.362 44.066 189.407 45.154 187.826 45.766C188.234 46.361 188.676 47.075 188.965 47.789C190.376 47.024 191.396 46.327 192.518 45.579C194.303 50.832 196.853 54.13 200.032 56.306C200.542 55.881 201.358 55.116 201.97 54.725C198.094 52.328 195.731 49.03 194.184 43.641L192.586 43.165Z" fill="#60794D"/>
<path d="M284.567 16.145V24.084L279.416 25.291V16.757H277.41V24.832C277.41 25.546 276.849 26.039 276.441 26.26C276.798 26.753 277.24 27.688 277.393 28.232C278.039 27.824 278.94 27.467 284.567 25.988V30.986H286.658V16.145H284.567ZM275.438 44.452V46.679H288.494V44.452H275.438Z" fill="#60794D"/>
<path d="M369.309 19.987C369.53 18.797 369.7 17.505 369.819 16.128L367.745 15.958C367.626 17.42 367.456 18.763 367.235 19.987H364.277C364.634 18.967 364.991 17.709 365.161 16.587L363.121 16.026C362.985 17.505 362.509 19.069 362.356 19.477C362.186 19.919 361.982 20.208 361.744 20.293C361.965 20.803 362.288 21.721 362.424 22.146V22.163C362.577 21.993 363.41 21.891 364.277 21.891H366.793C365.79 25.393 363.988 27.79 360.571 29.235C360.979 29.66 361.693 30.578 361.931 31.02C365.756 29.133 367.796 26.192 368.901 21.891H372.216C371.876 26.107 371.434 28.045 370.89 28.538C370.652 28.776 370.448 28.81 370.108 28.81C369.649 28.81 368.663 28.793 367.643 28.708C368.034 29.286 368.289 30.17 368.34 30.782C369.343 30.833 370.346 30.833 370.941 30.748C371.672 30.663 372.165 30.493 372.675 29.898C373.474 29.048 373.933 26.719 374.392 20.905C374.426 20.633 374.46 19.987 374.46 19.987H369.309ZM374.987 50.844C373.899 49.297 372.165 47.427 370.227 45.557C371.638 43.585 372.845 41.409 373.831 39.063L371.723 38.4C370.89 40.44 369.87 42.344 368.663 44.061C367.014 42.531 365.314 41.035 363.818 39.743L362.288 41.154C363.869 42.548 365.62 44.197 367.286 45.846C365.518 47.937 363.461 49.671 361.149 50.946C361.608 51.371 362.407 52.238 362.713 52.714C364.957 51.337 366.997 49.535 368.799 47.41C370.601 49.314 372.199 51.167 373.168 52.663L374.987 50.844Z" fill="#60794D"/>
<path d="M296.465 34.212C296.645 34.476 296.855 34.776 297.095 35.112C297.347 35.436 297.599 35.754 297.851 36.066C298.115 36.366 298.343 36.63 298.535 36.858V37.092H296.753C296.525 36.936 296.255 36.744 295.943 36.516C295.643 36.276 295.331 36.024 295.007 35.76C294.695 35.496 294.401 35.244 294.125 35.004C293.849 34.764 293.627 34.56 293.459 34.392V34.212H296.465Z" fill="#60794D"/>
<path d="M380.465 34.212C380.645 34.476 380.855 34.776 381.095 35.112C381.347 35.436 381.599 35.754 381.851 36.066C382.115 36.366 382.343 36.63 382.535 36.858V37.092H380.753C380.525 36.936 380.255 36.744 379.943 36.516C379.643 36.276 379.331 36.024 379.007 35.76C378.695 35.496 378.401 35.244 378.125 35.004C377.849 34.764 377.627 34.56 377.459 34.392V34.212H380.465Z" fill="#60794D"/>
<path d="M122.435 33.092C122.267 32.816 122.045 32.516 121.769 32.192C121.505 31.868 121.229 31.55 120.941 31.238C120.665 30.926 120.413 30.662 120.185 30.446V30.212H121.967C122.279 30.404 122.615 30.632 122.975 30.896C123.335 31.148 123.671 31.436 123.983 31.76C124.295 31.436 124.637 31.148 125.009 30.896C125.381 30.632 125.723 30.404 126.035 30.212H127.817V30.446C127.601 30.662 127.349 30.926 127.061 31.238C126.773 31.55 126.491 31.868 126.215 32.192C125.951 32.516 125.735 32.816 125.567 33.092H122.435Z" fill="#60794D"/>
<path d="M207.435 33.092C207.267 32.816 207.045 32.516 206.769 32.192C206.505 31.868 206.229 31.55 205.941 31.238C205.665 30.926 205.413 30.662 205.185 30.446V30.212H206.967C207.279 30.404 207.615 30.632 207.975 30.896C208.335 31.148 208.671 31.436 208.983 31.76C209.295 31.436 209.637 31.148 210.009 30.896C210.381 30.632 210.723 30.404 211.035 30.212H212.817V30.446C212.601 30.662 212.349 30.926 212.061 31.238C211.773 31.55 211.491 31.868 211.215 32.192C210.951 32.516 210.735 32.816 210.567 33.092H207.435Z" fill="#60794D"/>
</svg>
